M48
;GenerationSoftware,Autodesk,EAGLE,9.6.2*%
;CreationDate,2023-10-26T08:34:10Z*%
FMAT,2
ICI,OFF
METRIC,TZ,000.000
T8C0.350
T7C0.600
T6C0.700
T5C1.000
T4C1.016
T3C3.000
T2C3.200
T1C9.144
%
G90
M71
T1
X52602Y8738
T2
X13970Y2540
X66040Y7620
X65840Y34060
X15240Y50800
T3
X8400Y21760
X39900Y50260
X39900Y21760
X8400Y50260
T4
X34716Y19978
X29636Y17438
X32176Y17438
X34716Y17438
X29636Y19978
X32176Y19978
T5
X59000Y27000
X49270Y18222
X2170Y32482
X16970Y25682
X16970Y34182
X16970Y38182
X16970Y46682
X21702Y28580
X21666Y39238
X59800Y37595
X62000Y6198
X16702Y28580
X58166Y43942
X32820Y44660
X32820Y49540
X43712Y6198
X43712Y11278
X62000Y8738
X62000Y11278
X53740Y48870
X58820Y48870
X9770Y10134
X9770Y12134
X21206Y13046
X21206Y10506
X21206Y7966
X21206Y5426
X32477Y13229
X2614Y5492
X2614Y8032
X2614Y10572
X20340Y49250
X22880Y49250
X25420Y49250
X27960Y49250
X39776Y12482
X59800Y31405
X57600Y30135
X55400Y28865
X53200Y27595
X59610Y34500
X57070Y34500
X54530Y34500
X51990Y34500
X57600Y38865
X55400Y40135
X53200Y41405
X28156Y10142
X2170Y28482
T6
X18796Y21857
X20396Y21857
X17196Y21857
T7
X9906Y34036
X12598Y15850
X12700Y21082
X41910Y44704
X18161Y13970
X2540Y25400
X18009Y9347
X35052Y48006
T8
X29616Y40665
X21742Y42951
X53746Y37363
X53492Y31267
X43688Y51562
X26695Y39878
X38049Y41732
X25933Y30023
X26264Y31725
X26568Y47523
X41173Y29718
X37694Y35154
X5867Y16307
X42418Y2032
X42062Y17805
X36881Y37008
X28804Y26848
X43586Y22631
X29620Y38446
X44900Y41398
X39809Y39979
X40986Y39364
X42176Y38304
X42337Y36946
X42316Y35625
X45110Y26238
X42672Y19812
X26822Y34950
X30855Y30181
X36821Y32722
X24643Y36931
X64800Y46000
X64700Y40400
X49730Y45338
X31100Y39200
X33030Y37354
X33494Y35729
X61468Y17018
X28016Y33858
X29362Y30226
X27915Y25705
X25654Y27178
X58420Y18796
X26924Y14732
X37844Y24332
X32843Y34246
X30734Y6096
X1473Y13818
X4242Y12141
X19812Y16256
X34617Y32496
X59334Y41681
X28448Y36322
X24282Y34747
X36068Y49276
X30480Y49784
X17526Y2032
X3302Y2286
X18288Y6350
M30