M48
;GenerationSoftware,Autodesk,EAGLE,9.6.2*%
;CreationDate,2023-12-16T05:24:12Z*%
FMAT,2
ICI,OFF
METRIC,TZ,000.000
T12C0.300
T11C0.350
T10C0.600
T9C0.630
T8C0.750
T7C0.800
T6C0.900
T5C1.000
T4C1.016
T3C3.000
T2C3.200
T1C9.144
%
G90
M71
T1
X56159Y10338
T2
X15240Y50800
X13970Y2540
X66040Y7620
X66040Y35560
T3
X65608Y21665
X35128Y50165
T4
X44475Y43459
X39395Y43459
X41935Y43459
X41935Y40919
X39395Y40919
X44475Y40919
T5
X58699Y18838
X53619Y1838
X58699Y1838
X43688Y4318
X2235Y6325
X2235Y8865
X41148Y4318
X2084Y49880
X39802Y51410
X44882Y51410
X55750Y24535
X58250Y28865
X54178Y48895
X4084Y49880
X51638Y48895
X49098Y48895
X64237Y47752
X64237Y50292
X22733Y26746
X46558Y48895
X20193Y26746
X53619Y18838
X56159Y18838
T6
X27686Y38100
X27686Y27940
X27686Y30480
X27686Y20320
X27686Y33020
X27686Y17780
X27686Y35560
X27686Y40640
X32766Y30480
X32766Y40640
X27686Y43180
X32766Y20320
X32766Y43180
X27686Y25400
X32766Y33020
X32766Y35560
T7
X21590Y11608
X19050Y11608
X16510Y11608
X11608Y19634
X36830Y8113
X35560Y10312
X39878Y8128
X39878Y10668
X39878Y13208
X42926Y8113
X44196Y10312
X45466Y12512
X6528Y19634
X9068Y19634
X34290Y12512
T8
X2291Y46302
X2291Y40302
X19329Y22657
X16789Y20117
X19329Y17577
X2291Y44302
X2291Y38302
T9
X57402Y42520
X62282Y42520
T10
X18550Y51040
X27190Y51040
X27190Y47240
X18550Y47240
T11
X8534Y14554
X16561Y32004
X16586Y32969
T12
X12243Y35103
X10973Y33833
X12243Y33833
X38354Y33274
X37795Y37983
X50292Y5588
X35839Y29794
X7137Y15596
X6502Y28651
X7976Y15570
X31496Y14808
X33782Y16764
X37592Y14478
X43180Y14478
X46482Y14478
X48768Y14478
X56642Y45974
X7388Y45520
X8688Y44220
X8688Y45520
X9655Y11720
X10955Y11720
X9655Y10420
X10955Y10420
X9655Y9120
X10955Y9120
X9655Y7820
X10955Y7820
X52578Y30734
X4788Y44220
X4788Y45520
X6088Y44220
X47151Y46575
X6088Y45520
X7388Y44220
X21463Y31471
X25171Y31547
X40919Y36576
X40894Y27178
X39421Y27788
X49047Y41351
X47015Y18796
X50292Y41910
X50470Y25146
X44772Y34054
X44780Y37541
X48438Y1445
X48422Y35011
X42215Y20574
X63830Y27838
X52499Y25245
X46736Y40894
X45339Y26314
X51308Y30734
X18542Y15164
X6172Y27102
X51816Y42672
X13513Y12598
X3937Y10439
X25959Y9322
X19126Y9779
X10414Y46431
X4877Y36017
X2946Y24232
X10668Y30378
X25933Y17424
X20955Y18847
X18110Y43637
X5893Y28042
X18542Y42926
X2540Y1524
X17704Y42926
X21590Y51054
X13157Y39446
X22403Y49530
X23368Y49530
X20701Y44882
X21223Y45491
X16256Y38430
X4826Y34671
X4623Y31598
X13843Y38456
X7290Y21590
X8179Y21793
X9220Y21717
X2845Y28169
X13868Y41377
X33479Y14091
X35052Y43180
X66774Y25603
X58420Y25400
X25908Y42418
X25654Y49276
X20066Y49784
X24130Y51054
M30