G04 EAGLE Gerber RS-274X export*
G75*
%MOMM*%
%FSLAX34Y34*%
%LPD*%
%INBottom Copper*%
%IPPOS*%
%AMOC8*
5,1,8,0,0,1.08239X$1,22.5*%
G01*
%ADD10C,1.508000*%
%ADD11C,0.808000*%
%ADD12C,1.258000*%
%ADD13C,1.408000*%
%ADD14C,1.108000*%
%ADD15C,1.308000*%
%ADD16C,1.138000*%
%ADD17C,1.524000*%
%ADD18C,0.030000*%
%ADD19C,0.706400*%
%ADD20C,0.508000*%
%ADD21C,0.406400*%
%ADD22C,1.524000*%
%ADD23C,0.756400*%
%ADD24C,1.270000*%
%ADD25C,0.609600*%
%ADD26C,1.016000*%
%ADD27C,0.812800*%
%ADD28C,0.762000*%

G36*
X580299Y10288D02*
X580299Y10288D01*
X580301Y10288D01*
X580396Y10308D01*
X580493Y10327D01*
X580495Y10329D01*
X580498Y10329D01*
X580578Y10385D01*
X580659Y10440D01*
X580660Y10442D01*
X580662Y10444D01*
X580715Y10527D01*
X580768Y10608D01*
X580768Y10611D01*
X580770Y10613D01*
X580786Y10709D01*
X580803Y10805D01*
X580803Y10808D01*
X580803Y10810D01*
X580781Y10905D01*
X580760Y11001D01*
X580758Y11003D01*
X580758Y11006D01*
X580655Y11154D01*
X578863Y12945D01*
X577403Y16470D01*
X577403Y20286D01*
X578863Y23811D01*
X581561Y26509D01*
X581684Y26559D01*
X582908Y27067D01*
X584133Y27574D01*
X585086Y27969D01*
X588902Y27969D01*
X592427Y26509D01*
X595125Y23811D01*
X596585Y20286D01*
X596585Y16470D01*
X595125Y12945D01*
X593333Y11154D01*
X593332Y11151D01*
X593329Y11150D01*
X593277Y11069D01*
X593222Y10987D01*
X593222Y10984D01*
X593220Y10982D01*
X593203Y10886D01*
X593184Y10790D01*
X593185Y10787D01*
X593185Y10785D01*
X593206Y10688D01*
X593226Y10594D01*
X593228Y10592D01*
X593228Y10589D01*
X593285Y10509D01*
X593340Y10429D01*
X593343Y10428D01*
X593344Y10426D01*
X593427Y10374D01*
X593510Y10322D01*
X593512Y10321D01*
X593514Y10320D01*
X593692Y10288D01*
X649605Y10288D01*
X649610Y10289D01*
X649615Y10288D01*
X649708Y10309D01*
X649802Y10327D01*
X649806Y10330D01*
X649811Y10331D01*
X649889Y10387D01*
X649967Y10440D01*
X649970Y10444D01*
X649974Y10447D01*
X650025Y10529D01*
X650077Y10608D01*
X650077Y10613D01*
X650080Y10618D01*
X650112Y10795D01*
X650112Y27446D01*
X651678Y31227D01*
X654644Y34193D01*
X671974Y51523D01*
X671993Y51552D01*
X672019Y51575D01*
X672048Y51635D01*
X672085Y51690D01*
X672091Y51724D01*
X672106Y51755D01*
X672110Y51822D01*
X672122Y51887D01*
X672115Y51921D01*
X672117Y51955D01*
X672095Y52018D01*
X672081Y52083D01*
X672061Y52111D01*
X672049Y52144D01*
X672004Y52193D01*
X671967Y52247D01*
X671937Y52266D01*
X671914Y52292D01*
X671853Y52319D01*
X671797Y52355D01*
X671763Y52361D01*
X671731Y52375D01*
X671665Y52377D01*
X671600Y52389D01*
X671566Y52381D01*
X671531Y52382D01*
X671458Y52355D01*
X671405Y52343D01*
X671384Y52329D01*
X671362Y52321D01*
X670498Y51822D01*
X663844Y50039D01*
X656956Y50039D01*
X650302Y51822D01*
X644337Y55266D01*
X639466Y60137D01*
X636022Y66102D01*
X634239Y72756D01*
X634239Y79644D01*
X636022Y86298D01*
X639466Y92263D01*
X644337Y97134D01*
X650302Y100578D01*
X656956Y102361D01*
X663844Y102361D01*
X670498Y100578D01*
X674751Y98122D01*
X674787Y98110D01*
X674818Y98090D01*
X674881Y98078D01*
X674941Y98058D01*
X674979Y98061D01*
X675015Y98054D01*
X675078Y98068D01*
X675141Y98073D01*
X675174Y98090D01*
X675211Y98098D01*
X675263Y98135D01*
X675320Y98164D01*
X675344Y98192D01*
X675374Y98214D01*
X675408Y98268D01*
X675449Y98317D01*
X675461Y98352D01*
X675480Y98384D01*
X675493Y98457D01*
X675509Y98508D01*
X675507Y98533D01*
X675512Y98561D01*
X675512Y199273D01*
X675512Y199276D01*
X675512Y199278D01*
X675492Y199373D01*
X675473Y199470D01*
X675471Y199472D01*
X675471Y199474D01*
X675415Y199555D01*
X675360Y199635D01*
X675358Y199637D01*
X675356Y199639D01*
X675273Y199692D01*
X675192Y199745D01*
X675189Y199745D01*
X675187Y199746D01*
X675091Y199763D01*
X674995Y199780D01*
X674992Y199780D01*
X674990Y199780D01*
X674896Y199758D01*
X674799Y199737D01*
X674797Y199735D01*
X674794Y199734D01*
X674646Y199632D01*
X671531Y196516D01*
X665794Y193204D01*
X659394Y191489D01*
X652770Y191489D01*
X646370Y193204D01*
X640633Y196516D01*
X635948Y201201D01*
X632636Y206938D01*
X630921Y213338D01*
X630921Y219962D01*
X632636Y226362D01*
X635948Y232099D01*
X640633Y236784D01*
X646370Y240096D01*
X652770Y241811D01*
X659394Y241811D01*
X665794Y240096D01*
X671531Y236784D01*
X674646Y233668D01*
X674649Y233667D01*
X674650Y233665D01*
X674731Y233612D01*
X674813Y233557D01*
X674816Y233557D01*
X674818Y233555D01*
X674914Y233538D01*
X675010Y233520D01*
X675013Y233520D01*
X675015Y233520D01*
X675112Y233541D01*
X675206Y233561D01*
X675208Y233563D01*
X675211Y233563D01*
X675291Y233620D01*
X675371Y233676D01*
X675372Y233678D01*
X675374Y233679D01*
X675426Y233762D01*
X675478Y233845D01*
X675479Y233847D01*
X675480Y233850D01*
X675512Y234027D01*
X675512Y333239D01*
X675505Y333275D01*
X675507Y333313D01*
X675485Y333373D01*
X675473Y333435D01*
X675452Y333466D01*
X675439Y333501D01*
X675396Y333548D01*
X675360Y333601D01*
X675329Y333621D01*
X675303Y333649D01*
X675245Y333676D01*
X675192Y333710D01*
X675155Y333717D01*
X675121Y333732D01*
X675058Y333735D01*
X674995Y333746D01*
X674958Y333738D01*
X674921Y333739D01*
X674851Y333714D01*
X674799Y333702D01*
X674779Y333688D01*
X674751Y333678D01*
X670498Y331222D01*
X663844Y329439D01*
X656956Y329439D01*
X650302Y331222D01*
X644337Y334666D01*
X639466Y339537D01*
X636022Y345502D01*
X634239Y352156D01*
X634239Y359044D01*
X636022Y365698D01*
X639466Y371663D01*
X644337Y376534D01*
X650302Y379978D01*
X656956Y381761D01*
X663844Y381761D01*
X667625Y380748D01*
X667693Y380743D01*
X667761Y380730D01*
X667793Y380737D01*
X667825Y380735D01*
X667890Y380758D01*
X667957Y380772D01*
X667984Y380790D01*
X668014Y380801D01*
X668065Y380847D01*
X668122Y380886D01*
X668139Y380914D01*
X668163Y380935D01*
X668192Y380997D01*
X668229Y381056D01*
X668235Y381087D01*
X668248Y381116D01*
X668251Y381185D01*
X668263Y381253D01*
X668256Y381284D01*
X668257Y381317D01*
X668233Y381381D01*
X668217Y381448D01*
X668197Y381477D01*
X668187Y381505D01*
X668153Y381541D01*
X668115Y381596D01*
X651678Y398033D01*
X650112Y401814D01*
X650112Y470478D01*
X650112Y470481D01*
X650112Y470483D01*
X650092Y470578D01*
X650073Y470675D01*
X650071Y470677D01*
X650071Y470680D01*
X650015Y470760D01*
X649960Y470841D01*
X649958Y470842D01*
X649956Y470844D01*
X649873Y470897D01*
X649792Y470950D01*
X649789Y470950D01*
X649787Y470952D01*
X649691Y470968D01*
X649595Y470985D01*
X649592Y470985D01*
X649590Y470985D01*
X649495Y470963D01*
X649399Y470942D01*
X649397Y470940D01*
X649394Y470940D01*
X649246Y470837D01*
X647799Y469389D01*
X647606Y469309D01*
X646381Y468802D01*
X645157Y468295D01*
X645156Y468295D01*
X644274Y467929D01*
X641274Y467929D01*
X641266Y467928D01*
X641258Y467929D01*
X641168Y467908D01*
X641077Y467890D01*
X641071Y467885D01*
X641063Y467883D01*
X640915Y467781D01*
X639336Y466201D01*
X638267Y465759D01*
X637182Y465309D01*
X623750Y465309D01*
X621888Y466081D01*
X621879Y466082D01*
X621871Y466087D01*
X621694Y466119D01*
X616404Y466119D01*
X615115Y467408D01*
X615115Y474932D01*
X616404Y476221D01*
X618548Y476221D01*
X618553Y476222D01*
X618558Y476221D01*
X618651Y476242D01*
X618745Y476260D01*
X618749Y476263D01*
X618754Y476264D01*
X618832Y476320D01*
X618910Y476373D01*
X618913Y476377D01*
X618917Y476380D01*
X618968Y476462D01*
X619020Y476541D01*
X619020Y476546D01*
X619023Y476551D01*
X619055Y476728D01*
X619055Y478312D01*
X619054Y478317D01*
X619055Y478322D01*
X619034Y478415D01*
X619016Y478509D01*
X619013Y478513D01*
X619012Y478518D01*
X618956Y478596D01*
X618903Y478674D01*
X618899Y478677D01*
X618896Y478681D01*
X618814Y478732D01*
X618735Y478784D01*
X618730Y478784D01*
X618725Y478787D01*
X618548Y478819D01*
X616404Y478819D01*
X615115Y480108D01*
X615115Y487632D01*
X616404Y488921D01*
X621694Y488921D01*
X621703Y488923D01*
X621712Y488921D01*
X621888Y488959D01*
X621890Y488960D01*
X622400Y489171D01*
X623624Y489679D01*
X623800Y489751D01*
X623802Y489753D01*
X623805Y489753D01*
X623885Y489809D01*
X623966Y489863D01*
X623968Y489865D01*
X623970Y489867D01*
X624023Y489949D01*
X624077Y490031D01*
X624077Y490033D01*
X624078Y490035D01*
X624095Y490132D01*
X624113Y490228D01*
X624113Y490230D01*
X624113Y490233D01*
X624091Y490329D01*
X624071Y490424D01*
X624069Y490426D01*
X624068Y490428D01*
X624011Y490508D01*
X623955Y490588D01*
X623953Y490589D01*
X623952Y490591D01*
X623800Y490689D01*
X621888Y491481D01*
X621879Y491482D01*
X621871Y491487D01*
X621694Y491519D01*
X616404Y491519D01*
X615115Y492808D01*
X615115Y500332D01*
X616404Y501621D01*
X618548Y501621D01*
X618553Y501622D01*
X618558Y501621D01*
X618651Y501642D01*
X618745Y501660D01*
X618749Y501663D01*
X618754Y501664D01*
X618832Y501720D01*
X618910Y501773D01*
X618913Y501777D01*
X618917Y501780D01*
X618968Y501862D01*
X619020Y501941D01*
X619020Y501946D01*
X619023Y501951D01*
X619055Y502128D01*
X619055Y503712D01*
X619054Y503717D01*
X619055Y503722D01*
X619034Y503815D01*
X619016Y503909D01*
X619013Y503913D01*
X619012Y503918D01*
X618956Y503996D01*
X618903Y504074D01*
X618899Y504077D01*
X618896Y504081D01*
X618814Y504132D01*
X618735Y504184D01*
X618730Y504184D01*
X618725Y504187D01*
X618548Y504219D01*
X616404Y504219D01*
X615115Y505508D01*
X615115Y513032D01*
X616404Y514321D01*
X621694Y514321D01*
X621703Y514323D01*
X621712Y514321D01*
X621888Y514359D01*
X621890Y514360D01*
X622309Y514534D01*
X623534Y515041D01*
X623750Y515131D01*
X637182Y515131D01*
X639336Y514239D01*
X640915Y512659D01*
X640922Y512655D01*
X640926Y512649D01*
X641005Y512600D01*
X641082Y512548D01*
X641090Y512547D01*
X641096Y512543D01*
X641274Y512511D01*
X644274Y512511D01*
X647799Y511051D01*
X649246Y509603D01*
X649249Y509602D01*
X649250Y509599D01*
X649331Y509547D01*
X649413Y509492D01*
X649416Y509492D01*
X649418Y509490D01*
X649514Y509473D01*
X649610Y509454D01*
X649613Y509455D01*
X649615Y509455D01*
X649712Y509476D01*
X649806Y509496D01*
X649808Y509498D01*
X649811Y509498D01*
X649891Y509555D01*
X649971Y509610D01*
X649972Y509613D01*
X649974Y509614D01*
X650027Y509698D01*
X650078Y509780D01*
X650079Y509782D01*
X650080Y509784D01*
X650112Y509962D01*
X650112Y513689D01*
X650111Y513696D01*
X650112Y513704D01*
X650091Y513794D01*
X650073Y513885D01*
X650068Y513892D01*
X650066Y513899D01*
X649964Y514047D01*
X641047Y522964D01*
X641041Y522968D01*
X641036Y522974D01*
X640957Y523023D01*
X640880Y523075D01*
X640873Y523076D01*
X640866Y523080D01*
X640689Y523112D01*
X454590Y523112D01*
X454587Y523112D01*
X454585Y523112D01*
X454490Y523092D01*
X454393Y523073D01*
X454391Y523071D01*
X454388Y523071D01*
X454308Y523015D01*
X454227Y522960D01*
X454226Y522958D01*
X454224Y522956D01*
X454171Y522873D01*
X454118Y522792D01*
X454118Y522789D01*
X454116Y522787D01*
X454100Y522691D01*
X454083Y522595D01*
X454083Y522592D01*
X454083Y522590D01*
X454105Y522496D01*
X454126Y522399D01*
X454128Y522397D01*
X454128Y522394D01*
X454231Y522246D01*
X456949Y519529D01*
X458409Y516004D01*
X458409Y512188D01*
X456949Y508663D01*
X454251Y505965D01*
X453927Y505831D01*
X452703Y505324D01*
X451478Y504817D01*
X450726Y504505D01*
X446910Y504505D01*
X443385Y505965D01*
X440687Y508663D01*
X439227Y512188D01*
X439227Y516004D01*
X440687Y519529D01*
X443405Y522246D01*
X443406Y522249D01*
X443409Y522250D01*
X443461Y522331D01*
X443516Y522413D01*
X443516Y522416D01*
X443518Y522418D01*
X443535Y522512D01*
X443554Y522610D01*
X443553Y522613D01*
X443553Y522615D01*
X443532Y522712D01*
X443512Y522806D01*
X443510Y522808D01*
X443510Y522811D01*
X443453Y522891D01*
X443398Y522971D01*
X443395Y522972D01*
X443394Y522974D01*
X443311Y523026D01*
X443228Y523078D01*
X443226Y523079D01*
X443224Y523080D01*
X443046Y523112D01*
X403790Y523112D01*
X403787Y523112D01*
X403785Y523112D01*
X403690Y523092D01*
X403593Y523073D01*
X403591Y523071D01*
X403588Y523071D01*
X403508Y523015D01*
X403427Y522960D01*
X403426Y522958D01*
X403424Y522956D01*
X403371Y522873D01*
X403318Y522792D01*
X403318Y522789D01*
X403316Y522787D01*
X403300Y522691D01*
X403283Y522595D01*
X403283Y522592D01*
X403283Y522590D01*
X403305Y522496D01*
X403326Y522399D01*
X403328Y522397D01*
X403328Y522394D01*
X403431Y522246D01*
X406149Y519529D01*
X407609Y516004D01*
X407609Y512188D01*
X406149Y508663D01*
X403451Y505965D01*
X403127Y505831D01*
X401903Y505324D01*
X400678Y504817D01*
X399926Y504505D01*
X396110Y504505D01*
X392585Y505965D01*
X389887Y508663D01*
X388427Y512188D01*
X388427Y516004D01*
X389887Y519529D01*
X392605Y522246D01*
X392606Y522249D01*
X392609Y522250D01*
X392661Y522331D01*
X392716Y522413D01*
X392716Y522416D01*
X392718Y522418D01*
X392735Y522512D01*
X392754Y522610D01*
X392753Y522613D01*
X392753Y522615D01*
X392732Y522712D01*
X392712Y522806D01*
X392710Y522808D01*
X392710Y522811D01*
X392653Y522891D01*
X392598Y522971D01*
X392595Y522972D01*
X392594Y522974D01*
X392511Y523026D01*
X392428Y523078D01*
X392426Y523079D01*
X392424Y523080D01*
X392246Y523112D01*
X366323Y523112D01*
X366255Y523099D01*
X366187Y523094D01*
X366158Y523079D01*
X366126Y523073D01*
X366069Y523034D01*
X366008Y523003D01*
X365987Y522978D01*
X365961Y522960D01*
X365923Y522902D01*
X365878Y522850D01*
X365869Y522819D01*
X365851Y522792D01*
X365839Y522724D01*
X365818Y522658D01*
X365821Y522626D01*
X365816Y522595D01*
X365831Y522527D01*
X365837Y522459D01*
X365852Y522431D01*
X365859Y522399D01*
X365899Y522343D01*
X365932Y522282D01*
X365958Y522260D01*
X365975Y522236D01*
X366018Y522209D01*
X366069Y522166D01*
X366731Y521784D01*
X371416Y517099D01*
X374728Y511362D01*
X376443Y504962D01*
X376443Y498338D01*
X374728Y491938D01*
X371416Y486201D01*
X366731Y481516D01*
X360994Y478204D01*
X354594Y476489D01*
X347970Y476489D01*
X341570Y478204D01*
X335833Y481516D01*
X331148Y486201D01*
X327836Y491938D01*
X326121Y498338D01*
X326121Y504962D01*
X327836Y511362D01*
X331148Y517099D01*
X335833Y521784D01*
X336495Y522166D01*
X336546Y522211D01*
X336603Y522250D01*
X336621Y522277D01*
X336645Y522298D01*
X336675Y522360D01*
X336713Y522418D01*
X336718Y522450D01*
X336732Y522479D01*
X336736Y522548D01*
X336748Y522615D01*
X336741Y522647D01*
X336743Y522679D01*
X336720Y522744D01*
X336705Y522811D01*
X336686Y522837D01*
X336675Y522868D01*
X336629Y522918D01*
X336589Y522974D01*
X336561Y522991D01*
X336540Y523015D01*
X336477Y523044D01*
X336418Y523080D01*
X336384Y523086D01*
X336357Y523099D01*
X336307Y523100D01*
X336241Y523112D01*
X311658Y523112D01*
X311653Y523111D01*
X311648Y523112D01*
X311555Y523091D01*
X311462Y523073D01*
X311457Y523070D01*
X311452Y523069D01*
X311374Y523013D01*
X311296Y522960D01*
X311293Y522956D01*
X311289Y522953D01*
X311238Y522871D01*
X311186Y522792D01*
X311186Y522787D01*
X311183Y522782D01*
X311151Y522605D01*
X311151Y436898D01*
X311152Y436893D01*
X311151Y436888D01*
X311172Y436795D01*
X311190Y436701D01*
X311193Y436697D01*
X311194Y436692D01*
X311250Y436614D01*
X311303Y436536D01*
X311307Y436533D01*
X311310Y436529D01*
X311392Y436478D01*
X311471Y436426D01*
X311476Y436426D01*
X311481Y436423D01*
X311658Y436391D01*
X319383Y436391D01*
X319389Y436392D01*
X319396Y436391D01*
X319487Y436412D01*
X319579Y436430D01*
X319585Y436434D01*
X319591Y436435D01*
X319668Y436490D01*
X319745Y436543D01*
X319749Y436548D01*
X319754Y436552D01*
X319852Y436704D01*
X319953Y436949D01*
X322511Y439507D01*
X323264Y439819D01*
X323270Y439823D01*
X323276Y439824D01*
X323353Y439879D01*
X323431Y439931D01*
X323434Y439936D01*
X323439Y439940D01*
X323489Y440020D01*
X323541Y440098D01*
X323542Y440105D01*
X323545Y440110D01*
X323577Y440288D01*
X323577Y441111D01*
X337399Y454933D01*
X358561Y454933D01*
X371367Y442127D01*
X371367Y327021D01*
X371368Y327013D01*
X371367Y327006D01*
X371388Y326916D01*
X371406Y326825D01*
X371411Y326818D01*
X371413Y326811D01*
X371515Y326663D01*
X384321Y313857D01*
X384321Y177923D01*
X384322Y177915D01*
X384321Y177908D01*
X384342Y177818D01*
X384360Y177727D01*
X384365Y177720D01*
X384367Y177713D01*
X384469Y177565D01*
X425469Y136565D01*
X425469Y102654D01*
X425482Y102587D01*
X425487Y102519D01*
X425502Y102490D01*
X425508Y102458D01*
X425547Y102401D01*
X425577Y102340D01*
X425604Y102317D01*
X425621Y102292D01*
X425663Y102264D01*
X425712Y102221D01*
X434896Y96624D01*
X434934Y96610D01*
X434968Y96588D01*
X435028Y96577D01*
X435084Y96556D01*
X435125Y96558D01*
X435165Y96550D01*
X435224Y96563D01*
X435285Y96566D01*
X435321Y96583D01*
X435361Y96592D01*
X435411Y96626D01*
X435465Y96653D01*
X435492Y96683D01*
X435526Y96706D01*
X435558Y96757D01*
X435598Y96802D01*
X435612Y96841D01*
X435633Y96875D01*
X435644Y96935D01*
X435663Y96992D01*
X435660Y97033D01*
X435667Y97073D01*
X435653Y97132D01*
X435649Y97192D01*
X435631Y97228D01*
X435621Y97268D01*
X435582Y97325D01*
X435559Y97371D01*
X435536Y97391D01*
X435519Y97416D01*
X434677Y98258D01*
X433369Y101415D01*
X433369Y104833D01*
X434677Y107990D01*
X437094Y110407D01*
X437953Y110763D01*
X439178Y111270D01*
X440251Y111715D01*
X443669Y111715D01*
X446826Y110407D01*
X449243Y107990D01*
X450551Y104833D01*
X450551Y101415D01*
X449243Y98258D01*
X446826Y95841D01*
X445921Y95466D01*
X444696Y94959D01*
X443669Y94533D01*
X440217Y94533D01*
X440177Y94548D01*
X440138Y94546D01*
X440099Y94553D01*
X440039Y94541D01*
X439977Y94538D01*
X439942Y94521D01*
X439903Y94513D01*
X439852Y94478D01*
X439796Y94451D01*
X439770Y94422D01*
X439738Y94399D01*
X439704Y94347D01*
X439663Y94301D01*
X439651Y94264D01*
X439629Y94231D01*
X439619Y94170D01*
X439599Y94111D01*
X439601Y94072D01*
X439595Y94033D01*
X439608Y93973D01*
X439613Y93912D01*
X439630Y93876D01*
X439639Y93838D01*
X439675Y93788D01*
X439703Y93733D01*
X439735Y93704D01*
X439756Y93675D01*
X439799Y93647D01*
X439838Y93613D01*
X454922Y84421D01*
X454968Y84404D01*
X455009Y84379D01*
X455067Y84368D01*
X455111Y84352D01*
X455145Y84354D01*
X455186Y84347D01*
X497046Y84347D01*
X540277Y41116D01*
X540277Y27407D01*
X540278Y27400D01*
X540277Y27394D01*
X540298Y27302D01*
X540316Y27210D01*
X540320Y27205D01*
X540321Y27198D01*
X540376Y27122D01*
X540429Y27044D01*
X540434Y27041D01*
X540438Y27036D01*
X540590Y26938D01*
X541627Y26509D01*
X544325Y23811D01*
X545785Y20286D01*
X545785Y16470D01*
X544325Y12945D01*
X542533Y11154D01*
X542532Y11151D01*
X542529Y11150D01*
X542477Y11069D01*
X542422Y10987D01*
X542422Y10984D01*
X542420Y10982D01*
X542403Y10886D01*
X542384Y10790D01*
X542385Y10787D01*
X542385Y10785D01*
X542406Y10688D01*
X542426Y10594D01*
X542428Y10592D01*
X542428Y10589D01*
X542485Y10509D01*
X542540Y10429D01*
X542543Y10428D01*
X542544Y10426D01*
X542627Y10374D01*
X542710Y10322D01*
X542712Y10321D01*
X542714Y10320D01*
X542892Y10288D01*
X580296Y10288D01*
X580299Y10288D01*
G37*
G36*
X117375Y10295D02*
X117375Y10295D01*
X117413Y10293D01*
X117473Y10315D01*
X117535Y10327D01*
X117566Y10348D01*
X117601Y10361D01*
X117648Y10404D01*
X117701Y10440D01*
X117721Y10471D01*
X117749Y10497D01*
X117776Y10555D01*
X117810Y10608D01*
X117817Y10645D01*
X117832Y10679D01*
X117835Y10742D01*
X117846Y10805D01*
X117838Y10842D01*
X117839Y10879D01*
X117814Y10949D01*
X117802Y11001D01*
X117788Y11021D01*
X117778Y11049D01*
X115322Y15302D01*
X113539Y21956D01*
X113539Y28844D01*
X115322Y35498D01*
X118766Y41463D01*
X123637Y46334D01*
X129602Y49778D01*
X136256Y51561D01*
X143144Y51561D01*
X149798Y49778D01*
X155763Y46334D01*
X160634Y41463D01*
X164078Y35498D01*
X165861Y28844D01*
X165861Y21956D01*
X164078Y15302D01*
X161622Y11049D01*
X161610Y11013D01*
X161590Y10982D01*
X161578Y10919D01*
X161558Y10859D01*
X161561Y10821D01*
X161554Y10785D01*
X161568Y10722D01*
X161573Y10659D01*
X161590Y10626D01*
X161598Y10589D01*
X161635Y10537D01*
X161664Y10480D01*
X161692Y10456D01*
X161714Y10426D01*
X161768Y10392D01*
X161817Y10351D01*
X161852Y10339D01*
X161884Y10320D01*
X161957Y10307D01*
X162008Y10291D01*
X162033Y10293D01*
X162061Y10288D01*
X292100Y10288D01*
X292105Y10289D01*
X292110Y10288D01*
X292203Y10309D01*
X292297Y10327D01*
X292301Y10330D01*
X292306Y10331D01*
X292384Y10387D01*
X292462Y10440D01*
X292465Y10444D01*
X292469Y10447D01*
X292520Y10529D01*
X292572Y10608D01*
X292572Y10613D01*
X292575Y10618D01*
X292607Y10795D01*
X292607Y198102D01*
X292606Y198107D01*
X292607Y198112D01*
X292586Y198205D01*
X292568Y198299D01*
X292565Y198303D01*
X292564Y198308D01*
X292508Y198386D01*
X292455Y198464D01*
X292451Y198467D01*
X292448Y198471D01*
X292366Y198522D01*
X292287Y198574D01*
X292282Y198574D01*
X292277Y198577D01*
X292100Y198609D01*
X285137Y198609D01*
X285131Y198608D01*
X285124Y198609D01*
X285033Y198588D01*
X284941Y198570D01*
X284935Y198566D01*
X284929Y198565D01*
X284852Y198510D01*
X284775Y198457D01*
X284771Y198452D01*
X284766Y198448D01*
X284668Y198296D01*
X284567Y198051D01*
X282009Y195493D01*
X281771Y195394D01*
X280546Y194887D01*
X279322Y194380D01*
X279321Y194380D01*
X278668Y194109D01*
X275052Y194109D01*
X271711Y195493D01*
X269153Y198051D01*
X267769Y201392D01*
X267769Y205008D01*
X269153Y208349D01*
X271711Y210907D01*
X272414Y211198D01*
X272415Y211198D01*
X273639Y211706D01*
X274864Y212213D01*
X275052Y212291D01*
X278668Y212291D01*
X282009Y210907D01*
X284567Y208349D01*
X284668Y208104D01*
X284672Y208098D01*
X284674Y208092D01*
X284728Y208016D01*
X284780Y207937D01*
X284786Y207934D01*
X284790Y207929D01*
X284869Y207879D01*
X284948Y207827D01*
X284954Y207826D01*
X284960Y207823D01*
X285137Y207791D01*
X292100Y207791D01*
X292105Y207792D01*
X292110Y207791D01*
X292203Y207812D01*
X292297Y207830D01*
X292301Y207833D01*
X292306Y207834D01*
X292384Y207890D01*
X292462Y207943D01*
X292465Y207947D01*
X292469Y207950D01*
X292520Y208032D01*
X292572Y208111D01*
X292572Y208116D01*
X292575Y208121D01*
X292607Y208298D01*
X292607Y299702D01*
X292606Y299707D01*
X292607Y299712D01*
X292586Y299805D01*
X292568Y299899D01*
X292565Y299903D01*
X292564Y299908D01*
X292508Y299986D01*
X292455Y300064D01*
X292451Y300067D01*
X292448Y300071D01*
X292366Y300122D01*
X292287Y300174D01*
X292282Y300174D01*
X292277Y300177D01*
X292100Y300209D01*
X285137Y300209D01*
X285131Y300208D01*
X285124Y300209D01*
X285033Y300188D01*
X284941Y300170D01*
X284935Y300166D01*
X284929Y300165D01*
X284852Y300110D01*
X284775Y300057D01*
X284771Y300052D01*
X284766Y300048D01*
X284668Y299896D01*
X284567Y299651D01*
X282009Y297093D01*
X281409Y296844D01*
X280184Y296337D01*
X278960Y295830D01*
X278959Y295830D01*
X278668Y295709D01*
X275052Y295709D01*
X271711Y297093D01*
X269153Y299651D01*
X269052Y299896D01*
X269048Y299902D01*
X269046Y299908D01*
X268992Y299984D01*
X268940Y300063D01*
X268934Y300066D01*
X268930Y300071D01*
X268851Y300121D01*
X268772Y300173D01*
X268766Y300174D01*
X268760Y300177D01*
X268583Y300209D01*
X155578Y300209D01*
X152741Y303047D01*
X140487Y315301D01*
X137649Y318138D01*
X137649Y356028D01*
X137648Y356036D01*
X137649Y356044D01*
X137628Y356134D01*
X137610Y356225D01*
X137605Y356231D01*
X137603Y356239D01*
X137501Y356387D01*
X132867Y361021D01*
X132860Y361025D01*
X132856Y361031D01*
X132777Y361080D01*
X132700Y361132D01*
X132692Y361133D01*
X132686Y361137D01*
X132508Y361169D01*
X121746Y361169D01*
X121738Y361168D01*
X121730Y361169D01*
X121640Y361148D01*
X121549Y361130D01*
X121543Y361125D01*
X121535Y361123D01*
X121387Y361021D01*
X67731Y307365D01*
X64894Y304527D01*
X53674Y304527D01*
X53666Y304526D01*
X53658Y304527D01*
X53568Y304506D01*
X53477Y304488D01*
X53471Y304483D01*
X53463Y304481D01*
X53315Y304379D01*
X43347Y294411D01*
X43343Y294404D01*
X43337Y294400D01*
X43288Y294321D01*
X43236Y294244D01*
X43235Y294236D01*
X43231Y294230D01*
X43199Y294052D01*
X43199Y289973D01*
X43199Y289971D01*
X43199Y289968D01*
X43219Y289873D01*
X43238Y289777D01*
X43240Y289774D01*
X43240Y289772D01*
X43296Y289691D01*
X43351Y289611D01*
X43353Y289609D01*
X43355Y289607D01*
X43438Y289554D01*
X43519Y289502D01*
X43522Y289501D01*
X43524Y289500D01*
X43620Y289483D01*
X43716Y289466D01*
X43719Y289467D01*
X43721Y289466D01*
X43815Y289488D01*
X43912Y289510D01*
X43914Y289511D01*
X43917Y289512D01*
X44065Y289614D01*
X46717Y292267D01*
X57237Y302787D01*
X68203Y302787D01*
X68211Y302788D01*
X68218Y302787D01*
X68308Y302808D01*
X68399Y302826D01*
X68406Y302831D01*
X68413Y302833D01*
X68561Y302935D01*
X73493Y307867D01*
X102657Y307867D01*
X102665Y307868D01*
X102673Y307867D01*
X102763Y307888D01*
X102854Y307906D01*
X102860Y307911D01*
X102868Y307913D01*
X103016Y308015D01*
X103518Y308517D01*
X103695Y308590D01*
X104920Y309098D01*
X105569Y309367D01*
X107791Y309367D01*
X109842Y308517D01*
X111413Y306946D01*
X112263Y304895D01*
X112263Y302673D01*
X111413Y300622D01*
X109842Y299051D01*
X109413Y298873D01*
X108189Y298366D01*
X108188Y298366D01*
X107791Y298201D01*
X105569Y298201D01*
X103518Y299051D01*
X103016Y299553D01*
X103010Y299557D01*
X103005Y299563D01*
X102926Y299612D01*
X102849Y299664D01*
X102841Y299665D01*
X102835Y299669D01*
X102657Y299701D01*
X77085Y299701D01*
X77077Y299700D01*
X77070Y299701D01*
X76980Y299680D01*
X76889Y299662D01*
X76882Y299657D01*
X76875Y299655D01*
X76727Y299553D01*
X71795Y294621D01*
X60829Y294621D01*
X60821Y294620D01*
X60814Y294621D01*
X60724Y294600D01*
X60633Y294582D01*
X60626Y294577D01*
X60619Y294575D01*
X60471Y294473D01*
X52491Y286493D01*
X52487Y286487D01*
X52481Y286482D01*
X52432Y286404D01*
X52380Y286327D01*
X52379Y286319D01*
X52375Y286312D01*
X52343Y286135D01*
X52343Y268565D01*
X36997Y253219D01*
X36993Y253213D01*
X36987Y253208D01*
X36938Y253130D01*
X36886Y253052D01*
X36885Y253045D01*
X36881Y253038D01*
X36849Y252861D01*
X36849Y243208D01*
X35195Y241555D01*
X35191Y241548D01*
X35185Y241544D01*
X35136Y241465D01*
X35084Y241388D01*
X35083Y241380D01*
X35079Y241374D01*
X35050Y241213D01*
X34197Y239154D01*
X32626Y237583D01*
X32416Y237496D01*
X31192Y236989D01*
X31191Y236989D01*
X30575Y236733D01*
X28353Y236733D01*
X26302Y237583D01*
X24731Y239154D01*
X23881Y241205D01*
X23881Y243427D01*
X24731Y245478D01*
X26302Y247049D01*
X26698Y247213D01*
X27354Y247485D01*
X27360Y247488D01*
X27366Y247490D01*
X27443Y247544D01*
X27521Y247597D01*
X27524Y247602D01*
X27529Y247606D01*
X27579Y247686D01*
X27631Y247764D01*
X27632Y247771D01*
X27635Y247776D01*
X27667Y247953D01*
X27667Y256156D01*
X30356Y258845D01*
X30865Y258845D01*
X30873Y258846D01*
X30880Y258845D01*
X30970Y258866D01*
X31061Y258884D01*
X31068Y258889D01*
X31075Y258891D01*
X31223Y258993D01*
X44029Y271799D01*
X44033Y271805D01*
X44039Y271810D01*
X44088Y271888D01*
X44140Y271966D01*
X44141Y271973D01*
X44145Y271980D01*
X44177Y272157D01*
X44177Y274458D01*
X44177Y274461D01*
X44177Y274464D01*
X44157Y274558D01*
X44138Y274655D01*
X44136Y274657D01*
X44136Y274660D01*
X44080Y274740D01*
X44025Y274821D01*
X44023Y274822D01*
X44021Y274824D01*
X43938Y274878D01*
X43857Y274930D01*
X43854Y274930D01*
X43852Y274932D01*
X43756Y274948D01*
X43660Y274966D01*
X43657Y274965D01*
X43655Y274965D01*
X43561Y274944D01*
X43464Y274922D01*
X43462Y274920D01*
X43459Y274920D01*
X43311Y274817D01*
X40361Y271867D01*
X35176Y266681D01*
X19434Y266681D01*
X16597Y269519D01*
X11201Y274915D01*
X11154Y274962D01*
X11151Y274963D01*
X11150Y274966D01*
X11069Y275018D01*
X10987Y275073D01*
X10984Y275073D01*
X10982Y275075D01*
X10886Y275092D01*
X10790Y275111D01*
X10787Y275110D01*
X10785Y275111D01*
X10688Y275089D01*
X10594Y275069D01*
X10592Y275068D01*
X10589Y275067D01*
X10509Y275010D01*
X10429Y274955D01*
X10428Y274953D01*
X10426Y274951D01*
X10374Y274868D01*
X10322Y274786D01*
X10321Y274783D01*
X10320Y274781D01*
X10288Y274603D01*
X10288Y10795D01*
X10289Y10790D01*
X10288Y10785D01*
X10309Y10692D01*
X10327Y10598D01*
X10330Y10594D01*
X10331Y10589D01*
X10387Y10511D01*
X10440Y10433D01*
X10444Y10430D01*
X10447Y10426D01*
X10529Y10375D01*
X10608Y10323D01*
X10613Y10323D01*
X10618Y10320D01*
X10795Y10288D01*
X117339Y10288D01*
X117375Y10295D01*
G37*
G36*
X529499Y10288D02*
X529499Y10288D01*
X529501Y10288D01*
X529596Y10308D01*
X529693Y10327D01*
X529695Y10329D01*
X529698Y10329D01*
X529778Y10385D01*
X529859Y10440D01*
X529860Y10442D01*
X529862Y10444D01*
X529915Y10527D01*
X529968Y10608D01*
X529968Y10611D01*
X529970Y10613D01*
X529986Y10709D01*
X530003Y10805D01*
X530003Y10808D01*
X530003Y10810D01*
X529981Y10905D01*
X529960Y11001D01*
X529958Y11003D01*
X529958Y11006D01*
X529855Y11154D01*
X528063Y12945D01*
X526603Y16470D01*
X526603Y20286D01*
X528063Y23811D01*
X530761Y26509D01*
X530884Y26559D01*
X531798Y26938D01*
X531804Y26942D01*
X531810Y26943D01*
X531887Y26998D01*
X531965Y27050D01*
X531968Y27055D01*
X531973Y27059D01*
X532023Y27139D01*
X532075Y27217D01*
X532076Y27224D01*
X532079Y27229D01*
X532111Y27407D01*
X532111Y37523D01*
X532110Y37531D01*
X532111Y37539D01*
X532090Y37629D01*
X532072Y37720D01*
X532067Y37726D01*
X532065Y37734D01*
X531963Y37882D01*
X493812Y76033D01*
X493805Y76037D01*
X493801Y76043D01*
X493722Y76092D01*
X493645Y76144D01*
X493637Y76145D01*
X493631Y76149D01*
X493453Y76181D01*
X454447Y76181D01*
X454396Y76171D01*
X454327Y76167D01*
X453218Y75898D01*
X452874Y76107D01*
X452828Y76124D01*
X452787Y76149D01*
X452729Y76160D01*
X452685Y76176D01*
X452651Y76174D01*
X452610Y76181D01*
X452207Y76181D01*
X451399Y76989D01*
X451356Y77017D01*
X451305Y77063D01*
X437834Y85272D01*
X437795Y85286D01*
X437759Y85309D01*
X437701Y85320D01*
X437646Y85340D01*
X437604Y85338D01*
X437562Y85346D01*
X437504Y85333D01*
X437445Y85330D01*
X437408Y85312D01*
X437366Y85303D01*
X437318Y85269D01*
X437265Y85244D01*
X437237Y85212D01*
X437202Y85188D01*
X437171Y85138D01*
X437132Y85094D01*
X437118Y85054D01*
X437096Y85019D01*
X437086Y84960D01*
X437067Y84904D01*
X437070Y84862D01*
X437063Y84821D01*
X437077Y84755D01*
X437081Y84704D01*
X437094Y84678D01*
X437101Y84645D01*
X437851Y82836D01*
X437851Y79418D01*
X436543Y76261D01*
X434126Y73844D01*
X433668Y73654D01*
X432444Y73147D01*
X431219Y72640D01*
X430969Y72536D01*
X427551Y72536D01*
X424394Y73844D01*
X421977Y76261D01*
X420669Y79418D01*
X420669Y82836D01*
X421977Y85993D01*
X424394Y88410D01*
X424476Y88444D01*
X425700Y88951D01*
X425701Y88951D01*
X426925Y89458D01*
X427551Y89718D01*
X428731Y89718D01*
X428793Y89730D01*
X428856Y89733D01*
X428890Y89750D01*
X428928Y89757D01*
X428980Y89793D01*
X429037Y89820D01*
X429062Y89848D01*
X429094Y89870D01*
X429128Y89923D01*
X429170Y89970D01*
X429182Y90006D01*
X429203Y90038D01*
X429214Y90100D01*
X429234Y90160D01*
X429232Y90198D01*
X429238Y90235D01*
X429225Y90297D01*
X429220Y90360D01*
X429203Y90394D01*
X429195Y90431D01*
X429158Y90482D01*
X429130Y90538D01*
X429099Y90566D01*
X429079Y90594D01*
X429039Y90619D01*
X428995Y90658D01*
X420362Y95919D01*
X420316Y95936D01*
X420275Y95961D01*
X420217Y95972D01*
X420173Y95988D01*
X420139Y95986D01*
X420098Y95993D01*
X419695Y95993D01*
X418887Y96801D01*
X418844Y96829D01*
X418793Y96875D01*
X417817Y97470D01*
X417722Y97861D01*
X417702Y97905D01*
X417691Y97952D01*
X417657Y98001D01*
X417637Y98043D01*
X417612Y98066D01*
X417588Y98100D01*
X417303Y98385D01*
X417303Y99527D01*
X417294Y99573D01*
X417294Y99574D01*
X417293Y99580D01*
X417289Y99647D01*
X417020Y100756D01*
X417229Y101100D01*
X417246Y101146D01*
X417271Y101187D01*
X417282Y101245D01*
X417298Y101289D01*
X417296Y101323D01*
X417303Y101364D01*
X417303Y132973D01*
X417302Y132981D01*
X417303Y132988D01*
X417282Y133078D01*
X417264Y133169D01*
X417259Y133176D01*
X417257Y133183D01*
X417155Y133331D01*
X376155Y174331D01*
X376155Y310265D01*
X376154Y310273D01*
X376155Y310280D01*
X376134Y310370D01*
X376116Y310461D01*
X376111Y310468D01*
X376109Y310475D01*
X376007Y310623D01*
X363201Y323429D01*
X363201Y438535D01*
X363200Y438543D01*
X363201Y438550D01*
X363180Y438640D01*
X363162Y438731D01*
X363157Y438738D01*
X363155Y438745D01*
X363053Y438893D01*
X355327Y446619D01*
X355321Y446623D01*
X355316Y446629D01*
X355238Y446678D01*
X355160Y446730D01*
X355153Y446731D01*
X355146Y446735D01*
X354969Y446767D01*
X340991Y446767D01*
X340983Y446766D01*
X340976Y446767D01*
X340886Y446746D01*
X340795Y446728D01*
X340788Y446723D01*
X340781Y446721D01*
X340633Y446619D01*
X333524Y439510D01*
X333521Y439506D01*
X333516Y439503D01*
X333465Y439422D01*
X333413Y439343D01*
X333412Y439338D01*
X333409Y439333D01*
X333393Y439239D01*
X333375Y439146D01*
X333376Y439141D01*
X333375Y439136D01*
X333397Y439043D01*
X333417Y438950D01*
X333420Y438946D01*
X333421Y438941D01*
X333524Y438793D01*
X335367Y436949D01*
X336751Y433608D01*
X336751Y429992D01*
X335367Y426651D01*
X332809Y424093D01*
X331756Y423657D01*
X330531Y423150D01*
X329468Y422709D01*
X325852Y422709D01*
X322511Y424093D01*
X319953Y426651D01*
X319852Y426896D01*
X319848Y426902D01*
X319846Y426908D01*
X319792Y426984D01*
X319740Y427063D01*
X319734Y427066D01*
X319730Y427071D01*
X319651Y427121D01*
X319572Y427173D01*
X319566Y427174D01*
X319560Y427177D01*
X319383Y427209D01*
X311658Y427209D01*
X311653Y427208D01*
X311648Y427209D01*
X311555Y427188D01*
X311462Y427170D01*
X311457Y427167D01*
X311452Y427166D01*
X311374Y427110D01*
X311296Y427057D01*
X311293Y427053D01*
X311289Y427050D01*
X311238Y426968D01*
X311186Y426889D01*
X311186Y426884D01*
X311183Y426879D01*
X311151Y426702D01*
X311151Y411498D01*
X311152Y411493D01*
X311151Y411488D01*
X311172Y411395D01*
X311190Y411301D01*
X311193Y411297D01*
X311194Y411292D01*
X311250Y411214D01*
X311303Y411136D01*
X311307Y411133D01*
X311310Y411129D01*
X311392Y411078D01*
X311471Y411026D01*
X311476Y411026D01*
X311481Y411023D01*
X311658Y410991D01*
X319383Y410991D01*
X319389Y410992D01*
X319396Y410991D01*
X319487Y411012D01*
X319579Y411030D01*
X319585Y411034D01*
X319591Y411035D01*
X319668Y411090D01*
X319745Y411143D01*
X319749Y411148D01*
X319754Y411152D01*
X319852Y411304D01*
X319953Y411549D01*
X322511Y414107D01*
X323715Y414606D01*
X324939Y415113D01*
X324940Y415113D01*
X325852Y415491D01*
X329468Y415491D01*
X332809Y414107D01*
X335367Y411549D01*
X336751Y408208D01*
X336751Y404592D01*
X335367Y401251D01*
X332809Y398693D01*
X331847Y398294D01*
X331846Y398294D01*
X330622Y397787D01*
X329468Y397309D01*
X325852Y397309D01*
X322511Y398693D01*
X319953Y401251D01*
X319852Y401496D01*
X319848Y401502D01*
X319846Y401508D01*
X319792Y401584D01*
X319740Y401663D01*
X319734Y401666D01*
X319730Y401671D01*
X319651Y401721D01*
X319572Y401773D01*
X319566Y401774D01*
X319560Y401777D01*
X319383Y401809D01*
X311658Y401809D01*
X311653Y401808D01*
X311648Y401809D01*
X311555Y401788D01*
X311462Y401770D01*
X311457Y401767D01*
X311452Y401766D01*
X311374Y401710D01*
X311296Y401657D01*
X311293Y401653D01*
X311289Y401650D01*
X311238Y401568D01*
X311186Y401489D01*
X311186Y401484D01*
X311183Y401479D01*
X311151Y401302D01*
X311151Y362222D01*
X311152Y362217D01*
X311151Y362212D01*
X311172Y362119D01*
X311190Y362025D01*
X311193Y362021D01*
X311194Y362016D01*
X311250Y361938D01*
X311303Y361860D01*
X311307Y361857D01*
X311310Y361853D01*
X311392Y361802D01*
X311471Y361750D01*
X311476Y361750D01*
X311481Y361747D01*
X311658Y361715D01*
X320708Y361715D01*
X320716Y361716D01*
X320724Y361715D01*
X320814Y361736D01*
X320905Y361754D01*
X320911Y361759D01*
X320919Y361761D01*
X321067Y361863D01*
X322511Y363307D01*
X322671Y363373D01*
X323896Y363881D01*
X325120Y364388D01*
X325121Y364388D01*
X325852Y364691D01*
X329468Y364691D01*
X332809Y363307D01*
X335367Y360749D01*
X335468Y360504D01*
X335472Y360498D01*
X335474Y360492D01*
X335528Y360416D01*
X335580Y360337D01*
X335586Y360334D01*
X335590Y360329D01*
X335669Y360279D01*
X335748Y360227D01*
X335754Y360226D01*
X335760Y360223D01*
X335937Y360191D01*
X343328Y360191D01*
X343336Y360192D01*
X343344Y360191D01*
X343434Y360212D01*
X343525Y360230D01*
X343531Y360235D01*
X343539Y360237D01*
X343687Y360339D01*
X345781Y362433D01*
X345785Y362440D01*
X345791Y362444D01*
X345840Y362523D01*
X345892Y362600D01*
X345893Y362608D01*
X345897Y362614D01*
X345929Y362792D01*
X345929Y428285D01*
X345928Y428293D01*
X345929Y428301D01*
X345908Y428391D01*
X345890Y428482D01*
X345885Y428489D01*
X345883Y428496D01*
X345790Y428631D01*
X344937Y430689D01*
X344937Y432911D01*
X345787Y434962D01*
X347358Y436533D01*
X348303Y436925D01*
X348304Y436925D01*
X349409Y437383D01*
X351631Y437383D01*
X353682Y436533D01*
X355253Y434962D01*
X356103Y432911D01*
X356103Y430689D01*
X355252Y428635D01*
X355249Y428633D01*
X355200Y428554D01*
X355148Y428477D01*
X355147Y428470D01*
X355143Y428463D01*
X355111Y428285D01*
X355111Y358778D01*
X350662Y354329D01*
X350659Y354325D01*
X350655Y354322D01*
X350603Y354242D01*
X350551Y354163D01*
X350550Y354157D01*
X350547Y354153D01*
X350531Y354059D01*
X350513Y353966D01*
X350514Y353961D01*
X350513Y353955D01*
X350535Y353863D01*
X350555Y353770D01*
X350558Y353765D01*
X350559Y353760D01*
X350662Y353612D01*
X350792Y353481D01*
X353333Y350941D01*
X353333Y282063D01*
X353334Y282055D01*
X353333Y282048D01*
X353354Y281958D01*
X353372Y281867D01*
X353377Y281860D01*
X353379Y281853D01*
X353481Y281705D01*
X364763Y270423D01*
X364763Y165105D01*
X340523Y140865D01*
X340519Y140859D01*
X340512Y140854D01*
X340463Y140775D01*
X340412Y140698D01*
X340411Y140691D01*
X340407Y140684D01*
X340375Y140507D01*
X340375Y139797D01*
X339525Y137745D01*
X337954Y136175D01*
X337643Y136046D01*
X336419Y135539D01*
X335902Y135325D01*
X333681Y135325D01*
X331629Y136175D01*
X330059Y137745D01*
X329925Y138070D01*
X329924Y138071D01*
X329924Y138072D01*
X329868Y138154D01*
X329813Y138236D01*
X329812Y138237D01*
X329811Y138238D01*
X329728Y138292D01*
X329645Y138346D01*
X329644Y138347D01*
X329643Y138347D01*
X329544Y138365D01*
X329448Y138383D01*
X329447Y138383D01*
X329446Y138383D01*
X329346Y138361D01*
X329252Y138340D01*
X329251Y138340D01*
X329250Y138339D01*
X329168Y138281D01*
X329088Y138225D01*
X329088Y138224D01*
X329087Y138223D01*
X329034Y138139D01*
X328982Y138055D01*
X328981Y138054D01*
X328981Y138053D01*
X328949Y137876D01*
X328949Y36513D01*
X328950Y36505D01*
X328949Y36497D01*
X328970Y36407D01*
X328988Y36316D01*
X328993Y36310D01*
X328995Y36302D01*
X329097Y36154D01*
X348602Y16649D01*
X348609Y16645D01*
X348613Y16639D01*
X348692Y16590D01*
X348769Y16538D01*
X348777Y16537D01*
X348783Y16533D01*
X348961Y16501D01*
X478846Y16501D01*
X478852Y16502D01*
X478859Y16501D01*
X478950Y16522D01*
X479042Y16540D01*
X479048Y16544D01*
X479054Y16545D01*
X479131Y16600D01*
X479208Y16653D01*
X479212Y16658D01*
X479217Y16662D01*
X479314Y16814D01*
X479645Y17612D01*
X481216Y19183D01*
X481880Y19458D01*
X483104Y19965D01*
X483267Y20033D01*
X485489Y20033D01*
X487540Y19183D01*
X489111Y17612D01*
X489961Y15561D01*
X489961Y13339D01*
X489111Y11288D01*
X488977Y11154D01*
X488975Y11151D01*
X488973Y11150D01*
X488920Y11069D01*
X488866Y10987D01*
X488865Y10984D01*
X488864Y10982D01*
X488846Y10885D01*
X488828Y10790D01*
X488829Y10787D01*
X488828Y10785D01*
X488850Y10688D01*
X488870Y10594D01*
X488871Y10592D01*
X488872Y10589D01*
X488929Y10509D01*
X488984Y10429D01*
X488986Y10428D01*
X488988Y10426D01*
X489071Y10374D01*
X489153Y10322D01*
X489156Y10321D01*
X489158Y10320D01*
X489335Y10288D01*
X529496Y10288D01*
X529499Y10288D01*
G37*
G36*
X42746Y362095D02*
X42746Y362095D01*
X42821Y362108D01*
X42831Y362115D01*
X42841Y362117D01*
X42870Y362141D01*
X42941Y362189D01*
X43074Y362322D01*
X43114Y362387D01*
X43158Y362449D01*
X43160Y362459D01*
X44574Y363873D01*
X44614Y363938D01*
X44658Y364000D01*
X44660Y364012D01*
X44665Y364020D01*
X44669Y364057D01*
X44685Y364142D01*
X44685Y368213D01*
X110868Y434396D01*
X110908Y434460D01*
X110952Y434522D01*
X110954Y434534D01*
X110959Y434543D01*
X110963Y434580D01*
X110979Y434665D01*
X110979Y451541D01*
X110962Y451615D01*
X110949Y451690D01*
X110942Y451700D01*
X110940Y451710D01*
X110916Y451739D01*
X110868Y451810D01*
X104060Y458618D01*
X103996Y458658D01*
X103934Y458702D01*
X103922Y458704D01*
X103913Y458709D01*
X103876Y458713D01*
X103791Y458729D01*
X101828Y458729D01*
X98557Y462000D01*
X98557Y466624D01*
X101828Y469895D01*
X106452Y469895D01*
X109723Y466624D01*
X109723Y464661D01*
X109740Y464587D01*
X109753Y464512D01*
X109760Y464502D01*
X109762Y464492D01*
X109786Y464463D01*
X109834Y464392D01*
X119145Y455081D01*
X119145Y431125D01*
X116642Y428622D01*
X115771Y427751D01*
X115757Y427729D01*
X115737Y427713D01*
X115712Y427656D01*
X115679Y427604D01*
X115677Y427578D01*
X115666Y427554D01*
X115669Y427493D01*
X115663Y427431D01*
X115672Y427407D01*
X115673Y427381D01*
X115702Y427327D01*
X115724Y427269D01*
X115743Y427252D01*
X115756Y427229D01*
X115806Y427194D01*
X115852Y427152D01*
X115876Y427144D01*
X115897Y427129D01*
X115982Y427113D01*
X116018Y427102D01*
X116028Y427104D01*
X116040Y427102D01*
X118910Y427102D01*
X118984Y427119D01*
X119059Y427132D01*
X119069Y427139D01*
X119079Y427141D01*
X119108Y427165D01*
X119179Y427213D01*
X122769Y430803D01*
X151551Y430803D01*
X155141Y427213D01*
X155205Y427173D01*
X155267Y427129D01*
X155279Y427127D01*
X155288Y427122D01*
X155325Y427118D01*
X155410Y427102D01*
X169645Y427102D01*
X169682Y427111D01*
X169721Y427109D01*
X169765Y427130D01*
X169813Y427141D01*
X169843Y427166D01*
X169878Y427182D01*
X169909Y427220D01*
X169947Y427251D01*
X169963Y427287D01*
X169987Y427316D01*
X169998Y427365D01*
X170018Y427410D01*
X170016Y427448D01*
X170025Y427486D01*
X170013Y427545D01*
X170011Y427583D01*
X170001Y427601D01*
X169996Y427628D01*
X169907Y427842D01*
X169907Y430678D01*
X170993Y433299D01*
X173860Y436166D01*
X173900Y436231D01*
X173944Y436293D01*
X173946Y436305D01*
X173951Y436314D01*
X173955Y436351D01*
X173971Y436435D01*
X173971Y437790D01*
X175057Y440411D01*
X177063Y442417D01*
X179684Y443503D01*
X180533Y443503D01*
X180558Y443509D01*
X180584Y443506D01*
X180642Y443528D01*
X180702Y443542D01*
X180722Y443559D01*
X180746Y443568D01*
X180788Y443613D01*
X180835Y443652D01*
X180846Y443676D01*
X180863Y443695D01*
X180881Y443754D01*
X180906Y443811D01*
X180905Y443836D01*
X180913Y443861D01*
X180902Y443922D01*
X180900Y443984D01*
X180887Y444006D01*
X180883Y444032D01*
X180835Y444103D01*
X180817Y444136D01*
X180809Y444142D01*
X180802Y444152D01*
X176264Y448690D01*
X176199Y448730D01*
X176137Y448774D01*
X176125Y448776D01*
X176117Y448781D01*
X176080Y448785D01*
X175995Y448801D01*
X164519Y448801D01*
X161718Y451602D01*
X121910Y491410D01*
X119109Y494211D01*
X119109Y507301D01*
X119092Y507375D01*
X119079Y507450D01*
X119072Y507460D01*
X119070Y507470D01*
X119046Y507498D01*
X118998Y507570D01*
X111240Y515328D01*
X111175Y515368D01*
X111113Y515412D01*
X111101Y515414D01*
X111093Y515419D01*
X111056Y515423D01*
X110971Y515439D01*
X28729Y515439D01*
X28655Y515422D01*
X28580Y515409D01*
X28570Y515402D01*
X28560Y515400D01*
X28532Y515376D01*
X28460Y515328D01*
X25542Y512410D01*
X25502Y512345D01*
X25458Y512283D01*
X25456Y512271D01*
X25451Y512263D01*
X25447Y512226D01*
X25431Y512141D01*
X25431Y507533D01*
X25445Y507472D01*
X25452Y507408D01*
X25465Y507388D01*
X25470Y507365D01*
X25511Y507316D01*
X25545Y507262D01*
X25567Y507247D01*
X25580Y507231D01*
X25615Y507216D01*
X25665Y507182D01*
X26273Y506931D01*
X28971Y504233D01*
X30431Y500708D01*
X30431Y496892D01*
X28971Y493367D01*
X26273Y490669D01*
X22748Y489209D01*
X18932Y489209D01*
X15407Y490669D01*
X12709Y493367D01*
X11249Y496892D01*
X11249Y500708D01*
X12709Y504233D01*
X15407Y506931D01*
X16015Y507182D01*
X16066Y507219D01*
X16122Y507250D01*
X16136Y507269D01*
X16155Y507283D01*
X16185Y507339D01*
X16222Y507391D01*
X16227Y507418D01*
X16237Y507436D01*
X16238Y507474D01*
X16249Y507533D01*
X16249Y516102D01*
X21968Y521820D01*
X22611Y522463D01*
X22624Y522485D01*
X22644Y522501D01*
X22670Y522558D01*
X22702Y522610D01*
X22705Y522636D01*
X22715Y522660D01*
X22713Y522721D01*
X22719Y522783D01*
X22710Y522807D01*
X22709Y522833D01*
X22679Y522887D01*
X22657Y522945D01*
X22638Y522962D01*
X22626Y522985D01*
X22576Y523020D01*
X22530Y523062D01*
X22505Y523070D01*
X22484Y523085D01*
X22400Y523101D01*
X22364Y523112D01*
X22354Y523110D01*
X22342Y523112D01*
X10668Y523112D01*
X10618Y523101D01*
X10567Y523099D01*
X10535Y523081D01*
X10499Y523073D01*
X10460Y523040D01*
X10415Y523016D01*
X10394Y522986D01*
X10366Y522963D01*
X10345Y522916D01*
X10315Y522874D01*
X10307Y522832D01*
X10295Y522804D01*
X10296Y522774D01*
X10288Y522732D01*
X10288Y377804D01*
X10294Y377779D01*
X10291Y377753D01*
X10313Y377695D01*
X10327Y377635D01*
X10344Y377615D01*
X10353Y377591D01*
X10398Y377549D01*
X10437Y377502D01*
X10461Y377491D01*
X10480Y377473D01*
X10539Y377456D01*
X10596Y377431D01*
X10621Y377432D01*
X10646Y377424D01*
X10707Y377435D01*
X10769Y377437D01*
X10791Y377450D01*
X10817Y377454D01*
X10888Y377502D01*
X10921Y377520D01*
X10927Y377528D01*
X10937Y377535D01*
X11164Y377762D01*
X14462Y381060D01*
X14502Y381125D01*
X14546Y381187D01*
X14548Y381199D01*
X14553Y381207D01*
X14557Y381244D01*
X14573Y381329D01*
X14573Y384679D01*
X15843Y387745D01*
X18189Y390091D01*
X21255Y391361D01*
X24573Y391361D01*
X27639Y390091D01*
X29985Y387745D01*
X31255Y384679D01*
X31255Y381361D01*
X29985Y378295D01*
X27639Y375949D01*
X24573Y374679D01*
X21223Y374679D01*
X21149Y374662D01*
X21074Y374649D01*
X21064Y374642D01*
X21054Y374640D01*
X21025Y374616D01*
X20954Y374568D01*
X17656Y371270D01*
X17616Y371205D01*
X17572Y371143D01*
X17570Y371131D01*
X17565Y371123D01*
X17561Y371086D01*
X17545Y371001D01*
X17545Y362458D01*
X17556Y362408D01*
X17558Y362357D01*
X17576Y362325D01*
X17584Y362289D01*
X17617Y362250D01*
X17641Y362205D01*
X17671Y362184D01*
X17694Y362156D01*
X17741Y362135D01*
X17783Y362105D01*
X17825Y362097D01*
X17853Y362085D01*
X17883Y362086D01*
X17925Y362078D01*
X42672Y362078D01*
X42746Y362095D01*
G37*
G36*
X25369Y275863D02*
X25369Y275863D01*
X25371Y275863D01*
X25467Y275883D01*
X25565Y275902D01*
X25566Y275903D01*
X25567Y275903D01*
X25649Y275960D01*
X25730Y276015D01*
X25731Y276016D01*
X25732Y276017D01*
X25787Y276102D01*
X25840Y276183D01*
X25840Y276184D01*
X25841Y276185D01*
X25858Y276284D01*
X25875Y276380D01*
X25875Y276382D01*
X25875Y276383D01*
X25853Y276480D01*
X25832Y276576D01*
X25831Y276577D01*
X25831Y276578D01*
X25773Y276658D01*
X25716Y276739D01*
X25715Y276740D01*
X25714Y276741D01*
X25562Y276839D01*
X25286Y276953D01*
X23715Y278524D01*
X22865Y280575D01*
X22865Y281285D01*
X22864Y281293D01*
X22865Y281300D01*
X22844Y281390D01*
X22826Y281481D01*
X22821Y281488D01*
X22819Y281495D01*
X22717Y281643D01*
X21317Y283043D01*
X21317Y324271D01*
X36409Y339363D01*
X52455Y339363D01*
X52463Y339364D01*
X52470Y339363D01*
X52560Y339384D01*
X52651Y339402D01*
X52658Y339407D01*
X52665Y339409D01*
X52813Y339511D01*
X70699Y357397D01*
X70700Y357398D01*
X70701Y357399D01*
X70704Y357404D01*
X70709Y357408D01*
X70758Y357486D01*
X70810Y357564D01*
X70811Y357571D01*
X70815Y357578D01*
X70847Y357755D01*
X70847Y362625D01*
X126071Y417849D01*
X134661Y417849D01*
X134669Y417850D01*
X134677Y417849D01*
X134767Y417870D01*
X134858Y417888D01*
X134864Y417893D01*
X134872Y417895D01*
X135020Y417997D01*
X135522Y418499D01*
X135919Y418664D01*
X135920Y418664D01*
X137144Y419171D01*
X137573Y419349D01*
X139795Y419349D01*
X141846Y418499D01*
X143417Y416928D01*
X144267Y414877D01*
X144267Y412655D01*
X143417Y410604D01*
X141846Y409033D01*
X141637Y408947D01*
X140413Y408439D01*
X139795Y408183D01*
X137573Y408183D01*
X135522Y409033D01*
X135020Y409535D01*
X135014Y409539D01*
X135009Y409545D01*
X134930Y409594D01*
X134853Y409646D01*
X134845Y409647D01*
X134839Y409651D01*
X134661Y409683D01*
X129663Y409683D01*
X129655Y409682D01*
X129648Y409683D01*
X129558Y409662D01*
X129467Y409644D01*
X129460Y409639D01*
X129453Y409637D01*
X129305Y409535D01*
X79161Y359391D01*
X79157Y359385D01*
X79151Y359380D01*
X79102Y359302D01*
X79050Y359224D01*
X79049Y359217D01*
X79045Y359210D01*
X79013Y359033D01*
X79013Y354163D01*
X56047Y331197D01*
X40001Y331197D01*
X39993Y331196D01*
X39986Y331197D01*
X39896Y331176D01*
X39805Y331158D01*
X39798Y331153D01*
X39791Y331151D01*
X39643Y331049D01*
X29631Y321037D01*
X29627Y321031D01*
X29621Y321026D01*
X29572Y320948D01*
X29520Y320870D01*
X29519Y320863D01*
X29515Y320856D01*
X29483Y320679D01*
X29483Y287639D01*
X29484Y287633D01*
X29483Y287626D01*
X29504Y287535D01*
X29522Y287443D01*
X29526Y287437D01*
X29527Y287431D01*
X29582Y287354D01*
X29635Y287277D01*
X29640Y287273D01*
X29644Y287268D01*
X29796Y287170D01*
X31610Y286419D01*
X33151Y284878D01*
X33154Y284876D01*
X33155Y284874D01*
X33236Y284822D01*
X33318Y284767D01*
X33321Y284766D01*
X33323Y284765D01*
X33419Y284748D01*
X33515Y284729D01*
X33518Y284730D01*
X33520Y284729D01*
X33617Y284751D01*
X33711Y284771D01*
X33713Y284772D01*
X33716Y284773D01*
X33796Y284829D01*
X33876Y284885D01*
X33877Y284887D01*
X33879Y284889D01*
X33932Y284973D01*
X33983Y285054D01*
X33984Y285057D01*
X33985Y285059D01*
X34017Y285236D01*
X34017Y298066D01*
X45479Y309527D01*
X45481Y309530D01*
X45483Y309531D01*
X45535Y309612D01*
X45590Y309694D01*
X45591Y309697D01*
X45592Y309699D01*
X45609Y309795D01*
X45628Y309891D01*
X45627Y309894D01*
X45628Y309896D01*
X45606Y309993D01*
X45586Y310087D01*
X45585Y310089D01*
X45584Y310092D01*
X45527Y310172D01*
X45472Y310252D01*
X45469Y310253D01*
X45468Y310255D01*
X45385Y310307D01*
X45303Y310359D01*
X45300Y310360D01*
X45298Y310361D01*
X45120Y310393D01*
X45117Y310393D01*
X43066Y311243D01*
X41495Y312814D01*
X40645Y314865D01*
X40645Y317087D01*
X41495Y319138D01*
X43066Y320709D01*
X43200Y320764D01*
X44424Y321272D01*
X45117Y321559D01*
X45827Y321559D01*
X45835Y321560D01*
X45842Y321559D01*
X45932Y321580D01*
X46023Y321598D01*
X46030Y321603D01*
X46037Y321605D01*
X46185Y321707D01*
X49363Y324885D01*
X51439Y324885D01*
X51447Y324886D01*
X51454Y324885D01*
X51544Y324906D01*
X51635Y324924D01*
X51642Y324929D01*
X51649Y324931D01*
X51797Y325033D01*
X115403Y388639D01*
X128492Y388639D01*
X128493Y388639D01*
X128495Y388639D01*
X128591Y388659D01*
X128689Y388678D01*
X128690Y388679D01*
X128691Y388679D01*
X128773Y388736D01*
X128854Y388791D01*
X128855Y388792D01*
X128856Y388793D01*
X128911Y388878D01*
X128964Y388959D01*
X128964Y388960D01*
X128965Y388961D01*
X128982Y389060D01*
X128999Y389156D01*
X128999Y389158D01*
X128999Y389159D01*
X128977Y389256D01*
X128956Y389352D01*
X128955Y389353D01*
X128955Y389354D01*
X128899Y389433D01*
X128840Y389515D01*
X128839Y389516D01*
X128838Y389517D01*
X128686Y389615D01*
X128410Y389729D01*
X126839Y391300D01*
X125989Y393351D01*
X125989Y395573D01*
X126839Y397624D01*
X128410Y399195D01*
X128876Y399388D01*
X130101Y399895D01*
X130461Y400045D01*
X132683Y400045D01*
X134734Y399195D01*
X136305Y397624D01*
X137155Y395573D01*
X137155Y393351D01*
X136305Y391300D01*
X135409Y390404D01*
X135408Y390402D01*
X135407Y390402D01*
X135352Y390319D01*
X135298Y390237D01*
X135297Y390235D01*
X135297Y390234D01*
X135279Y390137D01*
X135260Y390040D01*
X135260Y390038D01*
X135260Y390037D01*
X135281Y389940D01*
X135302Y389844D01*
X135302Y389842D01*
X135303Y389841D01*
X135359Y389761D01*
X135416Y389679D01*
X135417Y389678D01*
X135418Y389677D01*
X135501Y389625D01*
X135585Y389571D01*
X135586Y389571D01*
X135588Y389570D01*
X135688Y389554D01*
X135783Y389538D01*
X135784Y389538D01*
X135785Y389538D01*
X135961Y389576D01*
X136382Y389750D01*
X137319Y390139D01*
X139541Y390139D01*
X141592Y389289D01*
X143163Y387718D01*
X144013Y385667D01*
X144013Y383445D01*
X143163Y381394D01*
X141592Y379823D01*
X140875Y379526D01*
X139651Y379019D01*
X139541Y378973D01*
X137319Y378973D01*
X135268Y379823D01*
X134766Y380325D01*
X134760Y380329D01*
X134755Y380335D01*
X134676Y380384D01*
X134599Y380436D01*
X134591Y380437D01*
X134585Y380441D01*
X134407Y380473D01*
X118995Y380473D01*
X118987Y380472D01*
X118980Y380473D01*
X118890Y380452D01*
X118799Y380434D01*
X118792Y380429D01*
X118785Y380427D01*
X118637Y380325D01*
X55031Y316719D01*
X52955Y316719D01*
X52947Y316718D01*
X52940Y316719D01*
X52850Y316698D01*
X52759Y316680D01*
X52752Y316675D01*
X52745Y316673D01*
X52597Y316571D01*
X51959Y315933D01*
X51955Y315927D01*
X51949Y315922D01*
X51900Y315844D01*
X51848Y315766D01*
X51847Y315759D01*
X51843Y315752D01*
X51811Y315575D01*
X51811Y314865D01*
X51622Y314410D01*
X51621Y314406D01*
X51619Y314403D01*
X51602Y314308D01*
X51583Y314213D01*
X51584Y314210D01*
X51584Y314206D01*
X51605Y314111D01*
X51624Y314017D01*
X51626Y314014D01*
X51627Y314010D01*
X51684Y313930D01*
X51738Y313852D01*
X51741Y313850D01*
X51743Y313847D01*
X51825Y313795D01*
X51906Y313744D01*
X51910Y313743D01*
X51913Y313741D01*
X52091Y313709D01*
X60880Y313709D01*
X60888Y313710D01*
X60896Y313709D01*
X60986Y313730D01*
X61077Y313748D01*
X61083Y313753D01*
X61091Y313755D01*
X61239Y313857D01*
X114895Y367513D01*
X117732Y370351D01*
X136522Y370351D01*
X146831Y360042D01*
X146831Y322152D01*
X146832Y322144D01*
X146831Y322136D01*
X146852Y322046D01*
X146870Y321955D01*
X146875Y321949D01*
X146877Y321941D01*
X146979Y321793D01*
X159233Y309539D01*
X159240Y309535D01*
X159244Y309529D01*
X159323Y309480D01*
X159400Y309428D01*
X159408Y309427D01*
X159414Y309423D01*
X159592Y309391D01*
X210826Y309391D01*
X210828Y309391D01*
X210831Y309391D01*
X210926Y309411D01*
X211022Y309430D01*
X211024Y309432D01*
X211027Y309432D01*
X211107Y309488D01*
X211188Y309543D01*
X211189Y309545D01*
X211191Y309547D01*
X211245Y309630D01*
X211297Y309711D01*
X211298Y309714D01*
X211299Y309716D01*
X211315Y309812D01*
X211333Y309908D01*
X211332Y309911D01*
X211333Y309913D01*
X211311Y310008D01*
X211289Y310104D01*
X211288Y310106D01*
X211287Y310109D01*
X211184Y310257D01*
X209897Y311544D01*
X209047Y313595D01*
X209047Y315817D01*
X209897Y317868D01*
X211468Y319439D01*
X212218Y319750D01*
X212219Y319750D01*
X212543Y319884D01*
X212550Y319889D01*
X212559Y319891D01*
X212707Y319994D01*
X213280Y320567D01*
X249334Y320567D01*
X249343Y320569D01*
X249352Y320567D01*
X249528Y320605D01*
X249531Y320606D01*
X249912Y320764D01*
X250603Y321051D01*
X252825Y321051D01*
X254876Y320201D01*
X256447Y318630D01*
X257297Y316579D01*
X257297Y314357D01*
X256447Y312306D01*
X254876Y310735D01*
X253987Y310367D01*
X253985Y310366D01*
X253984Y310366D01*
X253902Y310310D01*
X253820Y310255D01*
X253819Y310254D01*
X253818Y310253D01*
X253766Y310172D01*
X253710Y310087D01*
X253710Y310086D01*
X253709Y310085D01*
X253692Y309988D01*
X253673Y309890D01*
X253674Y309889D01*
X253673Y309888D01*
X253696Y309788D01*
X253716Y309694D01*
X253717Y309693D01*
X253717Y309692D01*
X253776Y309610D01*
X253831Y309530D01*
X253832Y309530D01*
X253833Y309529D01*
X253918Y309476D01*
X254001Y309424D01*
X254002Y309423D01*
X254003Y309423D01*
X254181Y309391D01*
X268583Y309391D01*
X268589Y309392D01*
X268596Y309391D01*
X268687Y309412D01*
X268779Y309430D01*
X268785Y309434D01*
X268791Y309435D01*
X268868Y309490D01*
X268945Y309543D01*
X268949Y309548D01*
X268954Y309552D01*
X269052Y309704D01*
X269153Y309949D01*
X271711Y312507D01*
X272052Y312648D01*
X273277Y313156D01*
X274501Y313663D01*
X274502Y313663D01*
X275052Y313891D01*
X278668Y313891D01*
X282009Y312507D01*
X284567Y309949D01*
X284668Y309704D01*
X284672Y309698D01*
X284674Y309692D01*
X284728Y309616D01*
X284780Y309537D01*
X284786Y309534D01*
X284790Y309529D01*
X284869Y309479D01*
X284948Y309427D01*
X284954Y309426D01*
X284960Y309423D01*
X285137Y309391D01*
X292100Y309391D01*
X292105Y309392D01*
X292110Y309391D01*
X292203Y309412D01*
X292297Y309430D01*
X292301Y309433D01*
X292306Y309434D01*
X292384Y309490D01*
X292462Y309543D01*
X292465Y309547D01*
X292469Y309550D01*
X292520Y309632D01*
X292572Y309711D01*
X292572Y309716D01*
X292575Y309721D01*
X292607Y309898D01*
X292607Y348978D01*
X292606Y348983D01*
X292607Y348988D01*
X292586Y349081D01*
X292568Y349175D01*
X292565Y349179D01*
X292564Y349184D01*
X292508Y349262D01*
X292455Y349340D01*
X292451Y349343D01*
X292448Y349347D01*
X292366Y349398D01*
X292287Y349450D01*
X292282Y349450D01*
X292277Y349453D01*
X292100Y349485D01*
X283812Y349485D01*
X283804Y349484D01*
X283796Y349485D01*
X283706Y349464D01*
X283615Y349446D01*
X283609Y349441D01*
X283601Y349439D01*
X283453Y349337D01*
X282009Y347893D01*
X281228Y347569D01*
X281227Y347569D01*
X280003Y347062D01*
X278778Y346555D01*
X278668Y346509D01*
X275052Y346509D01*
X271711Y347893D01*
X269153Y350451D01*
X267769Y353792D01*
X267769Y357408D01*
X269153Y360749D01*
X271711Y363307D01*
X271871Y363373D01*
X273096Y363881D01*
X274320Y364388D01*
X274321Y364388D01*
X275052Y364691D01*
X278668Y364691D01*
X282009Y363307D01*
X283453Y361863D01*
X283459Y361859D01*
X283464Y361853D01*
X283543Y361804D01*
X283620Y361752D01*
X283628Y361751D01*
X283634Y361747D01*
X283812Y361715D01*
X292100Y361715D01*
X292105Y361716D01*
X292110Y361715D01*
X292203Y361736D01*
X292297Y361754D01*
X292301Y361757D01*
X292306Y361758D01*
X292384Y361814D01*
X292462Y361867D01*
X292465Y361871D01*
X292469Y361874D01*
X292520Y361956D01*
X292572Y362035D01*
X292572Y362040D01*
X292575Y362045D01*
X292607Y362222D01*
X292607Y401302D01*
X292606Y401307D01*
X292607Y401312D01*
X292586Y401405D01*
X292568Y401499D01*
X292565Y401503D01*
X292564Y401508D01*
X292508Y401586D01*
X292455Y401664D01*
X292451Y401667D01*
X292448Y401671D01*
X292366Y401722D01*
X292287Y401774D01*
X292282Y401774D01*
X292277Y401777D01*
X292100Y401809D01*
X285765Y401809D01*
X285759Y401808D01*
X285752Y401809D01*
X285661Y401788D01*
X285568Y401770D01*
X285563Y401766D01*
X285557Y401765D01*
X285480Y401710D01*
X285403Y401657D01*
X285399Y401652D01*
X285394Y401648D01*
X285296Y401496D01*
X285058Y400922D01*
X282338Y398202D01*
X281338Y397787D01*
X281337Y397787D01*
X280113Y397280D01*
X278888Y396773D01*
X278784Y396729D01*
X195598Y396729D01*
X195593Y396728D01*
X195588Y396729D01*
X195495Y396708D01*
X195401Y396690D01*
X195397Y396687D01*
X195392Y396686D01*
X195314Y396630D01*
X195236Y396577D01*
X195233Y396573D01*
X195229Y396570D01*
X195178Y396488D01*
X195126Y396409D01*
X195126Y396404D01*
X195123Y396399D01*
X195091Y396222D01*
X195091Y373996D01*
X193618Y370442D01*
X175681Y352505D01*
X175677Y352498D01*
X175671Y352494D01*
X175622Y352415D01*
X175570Y352338D01*
X175569Y352330D01*
X175565Y352323D01*
X175533Y352146D01*
X175533Y347580D01*
X174301Y344608D01*
X174300Y344599D01*
X174295Y344591D01*
X174263Y344413D01*
X174263Y338970D01*
X174264Y338962D01*
X174263Y338954D01*
X174284Y338864D01*
X174302Y338773D01*
X174307Y338767D01*
X174309Y338759D01*
X174411Y338611D01*
X177302Y335721D01*
X178581Y332633D01*
X178581Y329291D01*
X177986Y327854D01*
X177984Y327846D01*
X177980Y327840D01*
X177965Y327748D01*
X177947Y327657D01*
X177949Y327650D01*
X177947Y327642D01*
X177986Y327466D01*
X178581Y326029D01*
X178581Y322687D01*
X177302Y319599D01*
X170621Y312918D01*
X169778Y312569D01*
X168553Y312062D01*
X167533Y311639D01*
X164191Y311639D01*
X161103Y312918D01*
X158740Y315281D01*
X158183Y316627D01*
X158178Y316634D01*
X158177Y316642D01*
X158122Y316717D01*
X158071Y316794D01*
X158064Y316798D01*
X158060Y316804D01*
X157908Y316902D01*
X155261Y317998D01*
X152898Y320361D01*
X151619Y323449D01*
X151619Y326791D01*
X151741Y327085D01*
X151743Y327093D01*
X151747Y327099D01*
X151762Y327191D01*
X151780Y327282D01*
X151778Y327289D01*
X151779Y327297D01*
X151741Y327473D01*
X151619Y327767D01*
X151619Y331109D01*
X152898Y334197D01*
X157313Y338611D01*
X157317Y338618D01*
X157323Y338622D01*
X157372Y338701D01*
X157424Y338778D01*
X157425Y338786D01*
X157429Y338792D01*
X157461Y338970D01*
X157461Y344413D01*
X157459Y344422D01*
X157461Y344431D01*
X157423Y344608D01*
X156191Y347580D01*
X156191Y358286D01*
X157664Y361840D01*
X175601Y379777D01*
X175605Y379784D01*
X175611Y379788D01*
X175660Y379867D01*
X175712Y379944D01*
X175713Y379952D01*
X175717Y379959D01*
X175749Y380136D01*
X175749Y421737D01*
X175748Y421743D01*
X175749Y421750D01*
X175728Y421841D01*
X175710Y421933D01*
X175706Y421939D01*
X175705Y421945D01*
X175650Y422021D01*
X175597Y422099D01*
X175592Y422103D01*
X175588Y422108D01*
X175436Y422205D01*
X173830Y422871D01*
X173821Y422872D01*
X173813Y422877D01*
X173636Y422909D01*
X160669Y422909D01*
X160667Y422909D01*
X160664Y422909D01*
X160569Y422889D01*
X160473Y422870D01*
X160471Y422868D01*
X160468Y422868D01*
X160387Y422812D01*
X160307Y422757D01*
X160305Y422755D01*
X160303Y422753D01*
X160250Y422670D01*
X160198Y422589D01*
X160197Y422586D01*
X160196Y422584D01*
X160179Y422488D01*
X160162Y422392D01*
X160163Y422389D01*
X160162Y422387D01*
X160184Y422293D01*
X160206Y422196D01*
X160207Y422194D01*
X160208Y422191D01*
X160311Y422043D01*
X164103Y418251D01*
X166643Y415711D01*
X166643Y388325D01*
X166644Y388317D01*
X166643Y388309D01*
X166664Y388219D01*
X166682Y388128D01*
X166687Y388122D01*
X166689Y388114D01*
X166791Y387966D01*
X167293Y387464D01*
X168143Y385413D01*
X168143Y383191D01*
X167293Y381140D01*
X165722Y379569D01*
X165618Y379526D01*
X164394Y379019D01*
X163671Y378719D01*
X161449Y378719D01*
X159398Y379569D01*
X157827Y381140D01*
X156977Y383191D01*
X156977Y385413D01*
X157827Y387464D01*
X158329Y387966D01*
X158333Y387972D01*
X158339Y387977D01*
X158388Y388056D01*
X158440Y388133D01*
X158441Y388141D01*
X158445Y388147D01*
X158477Y388325D01*
X158477Y412119D01*
X158476Y412127D01*
X158477Y412134D01*
X158456Y412224D01*
X158438Y412315D01*
X158433Y412322D01*
X158431Y412329D01*
X158329Y412477D01*
X148317Y422489D01*
X148311Y422493D01*
X148306Y422499D01*
X148228Y422548D01*
X148151Y422600D01*
X148143Y422601D01*
X148136Y422605D01*
X147959Y422637D01*
X126361Y422637D01*
X126353Y422636D01*
X126346Y422637D01*
X126256Y422616D01*
X126165Y422598D01*
X126158Y422593D01*
X126151Y422591D01*
X126003Y422489D01*
X65191Y361677D01*
X65187Y361671D01*
X65181Y361666D01*
X65132Y361588D01*
X65080Y361510D01*
X65079Y361503D01*
X65075Y361496D01*
X65043Y361319D01*
X65043Y354671D01*
X52999Y342627D01*
X52283Y342627D01*
X52275Y342626D01*
X52267Y342627D01*
X52177Y342606D01*
X52086Y342588D01*
X52080Y342583D01*
X52072Y342581D01*
X51924Y342479D01*
X51422Y341977D01*
X50228Y341482D01*
X49371Y341127D01*
X47149Y341127D01*
X45098Y341977D01*
X43527Y343548D01*
X42677Y345599D01*
X42677Y347821D01*
X43527Y349872D01*
X45098Y351443D01*
X45734Y351707D01*
X45735Y351707D01*
X46959Y352214D01*
X47149Y352293D01*
X49371Y352293D01*
X50292Y351911D01*
X50299Y351910D01*
X50304Y351906D01*
X50397Y351890D01*
X50489Y351872D01*
X50495Y351874D01*
X50502Y351873D01*
X50593Y351894D01*
X50685Y351913D01*
X50691Y351917D01*
X50697Y351918D01*
X50845Y352021D01*
X56729Y357905D01*
X56729Y357906D01*
X56730Y357906D01*
X56734Y357912D01*
X56739Y357916D01*
X56788Y357994D01*
X56840Y358072D01*
X56841Y358079D01*
X56845Y358086D01*
X56877Y358263D01*
X56877Y364911D01*
X114009Y422043D01*
X114011Y422046D01*
X114013Y422047D01*
X114066Y422128D01*
X114120Y422210D01*
X114121Y422213D01*
X114122Y422215D01*
X114140Y422311D01*
X114158Y422407D01*
X114157Y422410D01*
X114158Y422412D01*
X114136Y422509D01*
X114116Y422603D01*
X114115Y422605D01*
X114114Y422608D01*
X114058Y422688D01*
X114002Y422768D01*
X114000Y422769D01*
X113998Y422771D01*
X113916Y422823D01*
X113833Y422875D01*
X113830Y422876D01*
X113828Y422877D01*
X113651Y422909D01*
X111139Y422909D01*
X111131Y422908D01*
X111124Y422909D01*
X111034Y422888D01*
X110943Y422870D01*
X110936Y422865D01*
X110929Y422863D01*
X110781Y422761D01*
X52999Y364979D01*
X52995Y364973D01*
X52989Y364968D01*
X52940Y364890D01*
X52888Y364812D01*
X52887Y364805D01*
X52883Y364798D01*
X52851Y364621D01*
X52851Y364195D01*
X52852Y364187D01*
X52851Y364179D01*
X52872Y364089D01*
X52890Y363998D01*
X52895Y363992D01*
X52897Y363984D01*
X52999Y363836D01*
X53501Y363334D01*
X54351Y361283D01*
X54351Y359061D01*
X53501Y357010D01*
X51930Y355439D01*
X51300Y355178D01*
X50076Y354671D01*
X50075Y354671D01*
X49879Y354589D01*
X47657Y354589D01*
X45606Y355439D01*
X44035Y357010D01*
X43237Y358937D01*
X43233Y358943D01*
X43232Y358949D01*
X43177Y359026D01*
X43125Y359104D01*
X43119Y359107D01*
X43116Y359113D01*
X43036Y359162D01*
X42957Y359214D01*
X42951Y359215D01*
X42945Y359219D01*
X42768Y359251D01*
X18052Y359251D01*
X18047Y359249D01*
X18042Y359250D01*
X17949Y359230D01*
X17855Y359211D01*
X17851Y359208D01*
X17846Y359207D01*
X17768Y359152D01*
X17690Y359098D01*
X17687Y359094D01*
X17683Y359091D01*
X17632Y359009D01*
X17580Y358930D01*
X17580Y358925D01*
X17577Y358921D01*
X17545Y358743D01*
X17545Y281766D01*
X17546Y281758D01*
X17545Y281750D01*
X17566Y281660D01*
X17584Y281569D01*
X17589Y281563D01*
X17591Y281555D01*
X17693Y281407D01*
X23089Y276011D01*
X23096Y276007D01*
X23100Y276001D01*
X23179Y275952D01*
X23256Y275900D01*
X23264Y275899D01*
X23270Y275895D01*
X23448Y275863D01*
X25368Y275863D01*
X25369Y275863D01*
G37*
%LPC*%
G36*
X554237Y47497D02*
X554237Y47497D01*
X540025Y51305D01*
X527282Y58662D01*
X516878Y69066D01*
X509521Y81809D01*
X505713Y96021D01*
X505713Y110735D01*
X509521Y124947D01*
X516878Y137690D01*
X527282Y148094D01*
X540025Y155451D01*
X554237Y159259D01*
X568951Y159259D01*
X583163Y155451D01*
X595906Y148094D01*
X606310Y137690D01*
X613667Y124947D01*
X617475Y110735D01*
X617475Y96021D01*
X613667Y81809D01*
X606310Y69066D01*
X595906Y58662D01*
X583163Y51305D01*
X568951Y47497D01*
X554237Y47497D01*
G37*
%LPD*%
G36*
X234116Y436392D02*
X234116Y436392D01*
X234124Y436391D01*
X234214Y436412D01*
X234305Y436430D01*
X234311Y436435D01*
X234319Y436437D01*
X234467Y436539D01*
X249558Y451631D01*
X263522Y451631D01*
X274253Y440899D01*
X274259Y440895D01*
X274263Y440890D01*
X274342Y440840D01*
X274420Y440788D01*
X274427Y440787D01*
X274432Y440783D01*
X274526Y440768D01*
X274617Y440750D01*
X274624Y440752D01*
X274630Y440751D01*
X274806Y440789D01*
X275052Y440891D01*
X278668Y440891D01*
X282009Y439507D01*
X284567Y436949D01*
X284668Y436704D01*
X284672Y436698D01*
X284674Y436692D01*
X284728Y436616D01*
X284780Y436537D01*
X284786Y436534D01*
X284790Y436529D01*
X284869Y436479D01*
X284948Y436427D01*
X284954Y436426D01*
X284960Y436423D01*
X285137Y436391D01*
X292100Y436391D01*
X292105Y436392D01*
X292110Y436391D01*
X292203Y436412D01*
X292297Y436430D01*
X292301Y436433D01*
X292306Y436434D01*
X292384Y436490D01*
X292462Y436543D01*
X292465Y436547D01*
X292469Y436550D01*
X292520Y436632D01*
X292572Y436711D01*
X292572Y436716D01*
X292575Y436721D01*
X292607Y436898D01*
X292607Y522605D01*
X292606Y522610D01*
X292607Y522615D01*
X292586Y522708D01*
X292568Y522802D01*
X292565Y522806D01*
X292564Y522811D01*
X292508Y522889D01*
X292455Y522967D01*
X292451Y522970D01*
X292448Y522974D01*
X292366Y523025D01*
X292287Y523077D01*
X292282Y523077D01*
X292277Y523080D01*
X292100Y523112D01*
X276689Y523112D01*
X276687Y523112D01*
X276684Y523112D01*
X276589Y523092D01*
X276493Y523073D01*
X276491Y523071D01*
X276488Y523071D01*
X276407Y523015D01*
X276327Y522960D01*
X276326Y522958D01*
X276323Y522956D01*
X276270Y522873D01*
X276218Y522792D01*
X276217Y522789D01*
X276216Y522787D01*
X276199Y522691D01*
X276182Y522595D01*
X276183Y522592D01*
X276182Y522590D01*
X276204Y522495D01*
X276226Y522399D01*
X276227Y522397D01*
X276228Y522394D01*
X276331Y522246D01*
X278333Y520244D01*
X279489Y517454D01*
X279489Y503354D01*
X278333Y500564D01*
X276198Y498429D01*
X275700Y498223D01*
X274475Y497715D01*
X273408Y497273D01*
X270388Y497273D01*
X267598Y498429D01*
X265463Y500564D01*
X264307Y503354D01*
X264307Y517454D01*
X265463Y520244D01*
X267465Y522246D01*
X267467Y522249D01*
X267469Y522250D01*
X267522Y522331D01*
X267576Y522413D01*
X267577Y522416D01*
X267578Y522418D01*
X267596Y522514D01*
X267614Y522610D01*
X267613Y522613D01*
X267614Y522615D01*
X267592Y522712D01*
X267572Y522806D01*
X267571Y522808D01*
X267570Y522811D01*
X267514Y522891D01*
X267458Y522971D01*
X267456Y522972D01*
X267454Y522974D01*
X267372Y523026D01*
X267289Y523078D01*
X267286Y523079D01*
X267284Y523080D01*
X267107Y523112D01*
X190289Y523112D01*
X190287Y523112D01*
X190284Y523112D01*
X190189Y523092D01*
X190093Y523073D01*
X190091Y523071D01*
X190088Y523071D01*
X190007Y523015D01*
X189927Y522960D01*
X189926Y522958D01*
X189923Y522956D01*
X189870Y522873D01*
X189818Y522792D01*
X189817Y522789D01*
X189816Y522787D01*
X189799Y522691D01*
X189782Y522595D01*
X189783Y522592D01*
X189782Y522590D01*
X189804Y522495D01*
X189826Y522399D01*
X189827Y522397D01*
X189828Y522394D01*
X189931Y522246D01*
X191933Y520244D01*
X193089Y517454D01*
X193089Y503354D01*
X191933Y500564D01*
X189798Y498429D01*
X189300Y498223D01*
X188075Y497715D01*
X187008Y497273D01*
X183988Y497273D01*
X181198Y498429D01*
X179063Y500564D01*
X178680Y501488D01*
X178660Y501518D01*
X178648Y501552D01*
X178605Y501600D01*
X178569Y501654D01*
X178538Y501674D01*
X178514Y501701D01*
X178455Y501728D01*
X178401Y501764D01*
X178366Y501771D01*
X178333Y501786D01*
X178268Y501789D01*
X178204Y501801D01*
X178169Y501793D01*
X178133Y501795D01*
X178072Y501772D01*
X178008Y501758D01*
X177979Y501737D01*
X177945Y501725D01*
X177897Y501680D01*
X177844Y501643D01*
X177825Y501612D01*
X177799Y501588D01*
X177766Y501519D01*
X177737Y501473D01*
X177734Y501450D01*
X177722Y501425D01*
X176778Y497902D01*
X173334Y491937D01*
X168463Y487066D01*
X162498Y483622D01*
X155844Y481839D01*
X148956Y481839D01*
X144650Y482993D01*
X144581Y482997D01*
X144513Y483010D01*
X144482Y483004D01*
X144450Y483006D01*
X144385Y482983D01*
X144317Y482969D01*
X144291Y482950D01*
X144260Y482940D01*
X144209Y482894D01*
X144153Y482854D01*
X144135Y482827D01*
X144111Y482806D01*
X144082Y482743D01*
X144045Y482685D01*
X144040Y482653D01*
X144026Y482624D01*
X144023Y482556D01*
X144012Y482488D01*
X144019Y482456D01*
X144018Y482424D01*
X144041Y482360D01*
X144057Y482292D01*
X144077Y482264D01*
X144087Y482236D01*
X144122Y482199D01*
X144160Y482144D01*
X168173Y458131D01*
X168180Y458127D01*
X168184Y458121D01*
X168263Y458072D01*
X168340Y458020D01*
X168348Y458019D01*
X168354Y458015D01*
X168532Y457983D01*
X179956Y457983D01*
X180623Y457315D01*
X180624Y457315D01*
X180624Y457314D01*
X180626Y457313D01*
X180631Y457310D01*
X180704Y457261D01*
X180790Y457204D01*
X180791Y457204D01*
X180792Y457204D01*
X180968Y457167D01*
X188493Y456966D01*
X188356Y449803D01*
X188358Y449790D01*
X188356Y449777D01*
X188376Y449692D01*
X188392Y449605D01*
X188399Y449595D01*
X188401Y449582D01*
X188487Y449459D01*
X188501Y449437D01*
X188503Y449436D01*
X188504Y449434D01*
X201399Y436539D01*
X201406Y436535D01*
X201410Y436529D01*
X201489Y436480D01*
X201566Y436428D01*
X201574Y436427D01*
X201580Y436423D01*
X201758Y436391D01*
X234108Y436391D01*
X234116Y436392D01*
G37*
%LPC*%
G36*
X166235Y192827D02*
X166235Y192827D01*
X163169Y194097D01*
X160823Y196443D01*
X159553Y199509D01*
X159553Y202806D01*
X159552Y202814D01*
X159553Y202822D01*
X159532Y202912D01*
X159514Y203003D01*
X159509Y203009D01*
X159507Y203017D01*
X159405Y203165D01*
X146837Y215733D01*
X146830Y215737D01*
X146826Y215743D01*
X146747Y215792D01*
X146670Y215844D01*
X146662Y215845D01*
X146656Y215849D01*
X146478Y215881D01*
X133458Y215881D01*
X133450Y215880D01*
X133442Y215881D01*
X133352Y215860D01*
X133261Y215842D01*
X133255Y215837D01*
X133247Y215835D01*
X133099Y215733D01*
X132432Y215065D01*
X129640Y212274D01*
X129302Y212134D01*
X128078Y211626D01*
X126853Y211119D01*
X126086Y210801D01*
X102724Y210801D01*
X101591Y211271D01*
X101582Y211272D01*
X101574Y211277D01*
X101397Y211309D01*
X100228Y211309D01*
X100220Y211308D01*
X100212Y211309D01*
X100123Y211288D01*
X100031Y211270D01*
X100025Y211265D01*
X100017Y211263D01*
X99869Y211161D01*
X97680Y208972D01*
X96742Y208583D01*
X95517Y208076D01*
X94293Y207568D01*
X94292Y207568D01*
X94126Y207499D01*
X90278Y207499D01*
X86724Y208972D01*
X86584Y209112D01*
X86578Y209116D01*
X86574Y209121D01*
X86495Y209171D01*
X86417Y209223D01*
X86410Y209224D01*
X86405Y209228D01*
X86312Y209243D01*
X86220Y209260D01*
X86213Y209259D01*
X86207Y209260D01*
X86031Y209222D01*
X85713Y209090D01*
X84488Y208583D01*
X83712Y208261D01*
X79146Y208261D01*
X79138Y208260D01*
X79130Y208261D01*
X79041Y208240D01*
X78949Y208222D01*
X78943Y208217D01*
X78935Y208215D01*
X78787Y208113D01*
X78376Y207702D01*
X78055Y207568D01*
X78054Y207568D01*
X76830Y207061D01*
X75605Y206554D01*
X74822Y206229D01*
X70974Y206229D01*
X67420Y207702D01*
X64700Y210422D01*
X63227Y213976D01*
X63227Y217824D01*
X64700Y221378D01*
X69452Y226130D01*
X70141Y226416D01*
X71365Y226923D01*
X71366Y226923D01*
X72590Y227430D01*
X73006Y227603D01*
X77572Y227603D01*
X77580Y227604D01*
X77588Y227603D01*
X77677Y227624D01*
X77769Y227642D01*
X77775Y227647D01*
X77783Y227649D01*
X77931Y227751D01*
X78088Y227908D01*
X78158Y227938D01*
X79383Y228445D01*
X80607Y228952D01*
X80608Y228952D01*
X81642Y229381D01*
X90921Y229381D01*
X90930Y229383D01*
X90939Y229381D01*
X91116Y229419D01*
X91118Y229420D01*
X91212Y229459D01*
X92437Y229967D01*
X93661Y230474D01*
X94088Y230651D01*
X106064Y230651D01*
X107197Y230181D01*
X107206Y230180D01*
X107214Y230175D01*
X107391Y230143D01*
X119946Y230143D01*
X119954Y230144D01*
X119962Y230143D01*
X120052Y230164D01*
X120143Y230182D01*
X120149Y230187D01*
X120157Y230189D01*
X120305Y230291D01*
X181932Y291919D01*
X184724Y294710D01*
X185168Y294895D01*
X185169Y294895D01*
X186393Y295402D01*
X187618Y295909D01*
X188278Y296183D01*
X250082Y296183D01*
X253636Y294710D01*
X259127Y289219D01*
X259134Y289215D01*
X259138Y289209D01*
X259217Y289160D01*
X259294Y289108D01*
X259302Y289107D01*
X259309Y289103D01*
X259486Y289071D01*
X278784Y289071D01*
X282338Y287598D01*
X285058Y284878D01*
X286531Y281324D01*
X286531Y277476D01*
X285058Y273922D01*
X282338Y271202D01*
X281790Y270975D01*
X280566Y270467D01*
X279341Y269960D01*
X278784Y269729D01*
X253346Y269729D01*
X249792Y271202D01*
X244301Y276693D01*
X244294Y276697D01*
X244290Y276703D01*
X244211Y276752D01*
X244134Y276804D01*
X244126Y276805D01*
X244119Y276809D01*
X243942Y276841D01*
X232298Y276841D01*
X232297Y276841D01*
X232296Y276841D01*
X232200Y276822D01*
X232102Y276802D01*
X232101Y276801D01*
X232099Y276801D01*
X232019Y276745D01*
X231936Y276689D01*
X231935Y276688D01*
X231934Y276687D01*
X231879Y276602D01*
X231827Y276521D01*
X231827Y276520D01*
X231826Y276519D01*
X231808Y276420D01*
X231791Y276324D01*
X231791Y276322D01*
X231791Y276321D01*
X231813Y276225D01*
X231835Y276128D01*
X231836Y276127D01*
X231836Y276126D01*
X231892Y276047D01*
X231951Y275965D01*
X231952Y275964D01*
X231953Y275963D01*
X232104Y275865D01*
X232763Y275593D01*
X235461Y272895D01*
X236921Y269370D01*
X236921Y265554D01*
X235461Y262029D01*
X232763Y259331D01*
X232706Y259308D01*
X231482Y258801D01*
X231481Y258801D01*
X230257Y258293D01*
X229238Y257871D01*
X225422Y257871D01*
X221897Y259331D01*
X219199Y262029D01*
X217739Y265554D01*
X217739Y269370D01*
X219199Y272895D01*
X221897Y275593D01*
X222556Y275865D01*
X222557Y275866D01*
X222558Y275866D01*
X222638Y275921D01*
X222722Y275977D01*
X222723Y275978D01*
X222724Y275979D01*
X222775Y276058D01*
X222832Y276145D01*
X222833Y276146D01*
X222833Y276147D01*
X222851Y276244D01*
X222869Y276342D01*
X222869Y276343D01*
X222869Y276344D01*
X222847Y276444D01*
X222826Y276538D01*
X222826Y276539D01*
X222825Y276540D01*
X222767Y276622D01*
X222711Y276702D01*
X222710Y276702D01*
X222709Y276703D01*
X222626Y276755D01*
X222541Y276808D01*
X222540Y276809D01*
X222539Y276809D01*
X222362Y276841D01*
X206898Y276841D01*
X206897Y276841D01*
X206896Y276841D01*
X206800Y276822D01*
X206702Y276802D01*
X206701Y276801D01*
X206699Y276801D01*
X206619Y276745D01*
X206536Y276689D01*
X206535Y276688D01*
X206534Y276687D01*
X206479Y276602D01*
X206427Y276521D01*
X206427Y276520D01*
X206426Y276519D01*
X206408Y276420D01*
X206391Y276324D01*
X206391Y276322D01*
X206391Y276321D01*
X206413Y276225D01*
X206435Y276128D01*
X206436Y276127D01*
X206436Y276126D01*
X206492Y276047D01*
X206551Y275965D01*
X206552Y275964D01*
X206553Y275963D01*
X206704Y275865D01*
X207363Y275593D01*
X210061Y272895D01*
X211521Y269370D01*
X211521Y265554D01*
X210061Y262029D01*
X207363Y259331D01*
X207306Y259308D01*
X206082Y258801D01*
X206081Y258801D01*
X204857Y258293D01*
X203838Y257871D01*
X200022Y257871D01*
X196497Y259331D01*
X193799Y262029D01*
X192339Y265554D01*
X192339Y269370D01*
X193799Y272895D01*
X196497Y275593D01*
X197156Y275865D01*
X197157Y275866D01*
X197158Y275866D01*
X197238Y275921D01*
X197322Y275977D01*
X197323Y275978D01*
X197324Y275979D01*
X197375Y276058D01*
X197432Y276145D01*
X197433Y276146D01*
X197433Y276147D01*
X197451Y276244D01*
X197469Y276342D01*
X197469Y276343D01*
X197469Y276344D01*
X197447Y276444D01*
X197426Y276538D01*
X197426Y276539D01*
X197425Y276540D01*
X197367Y276622D01*
X197311Y276702D01*
X197310Y276702D01*
X197309Y276703D01*
X197226Y276755D01*
X197141Y276808D01*
X197140Y276809D01*
X197139Y276809D01*
X196962Y276841D01*
X194418Y276841D01*
X194410Y276840D01*
X194402Y276841D01*
X194313Y276820D01*
X194221Y276802D01*
X194215Y276797D01*
X194207Y276795D01*
X194059Y276693D01*
X143295Y225929D01*
X143294Y225926D01*
X143291Y225925D01*
X143239Y225844D01*
X143184Y225762D01*
X143184Y225759D01*
X143182Y225757D01*
X143165Y225661D01*
X143147Y225565D01*
X143147Y225562D01*
X143147Y225560D01*
X143168Y225463D01*
X143188Y225369D01*
X143190Y225367D01*
X143190Y225364D01*
X143247Y225284D01*
X143302Y225204D01*
X143305Y225203D01*
X143306Y225201D01*
X143389Y225149D01*
X143472Y225097D01*
X143474Y225096D01*
X143476Y225095D01*
X143654Y225063D01*
X150492Y225063D01*
X165897Y209657D01*
X165904Y209653D01*
X165908Y209647D01*
X165987Y209598D01*
X166064Y209546D01*
X166072Y209545D01*
X166078Y209541D01*
X166256Y209509D01*
X169553Y209509D01*
X172619Y208239D01*
X174965Y205893D01*
X176235Y202827D01*
X176235Y199509D01*
X174965Y196443D01*
X172619Y194097D01*
X172077Y193873D01*
X170852Y193365D01*
X169628Y192858D01*
X169553Y192827D01*
X166235Y192827D01*
G37*
%LPD*%
%LPC*%
G36*
X503587Y245877D02*
X503587Y245877D01*
X501536Y246727D01*
X499965Y248298D01*
X499115Y250349D01*
X499115Y252571D01*
X499965Y254622D01*
X500467Y255124D01*
X500471Y255130D01*
X500477Y255135D01*
X500526Y255214D01*
X500578Y255291D01*
X500579Y255299D01*
X500583Y255305D01*
X500615Y255483D01*
X500615Y413673D01*
X500614Y413679D01*
X500615Y413686D01*
X500594Y413777D01*
X500576Y413870D01*
X500572Y413875D01*
X500571Y413881D01*
X500516Y413958D01*
X500463Y414035D01*
X500458Y414039D01*
X500454Y414044D01*
X500302Y414142D01*
X499758Y414367D01*
X498187Y415938D01*
X497337Y417989D01*
X497337Y420211D01*
X498187Y422262D01*
X499758Y423833D01*
X500749Y424243D01*
X501809Y424683D01*
X504031Y424683D01*
X506082Y423833D01*
X507653Y422262D01*
X508396Y420469D01*
X508401Y420461D01*
X508403Y420452D01*
X508506Y420304D01*
X508781Y420029D01*
X508781Y312160D01*
X508781Y312158D01*
X508781Y312155D01*
X508801Y312060D01*
X508820Y311964D01*
X508822Y311962D01*
X508822Y311959D01*
X508878Y311879D01*
X508933Y311798D01*
X508935Y311797D01*
X508937Y311795D01*
X509020Y311742D01*
X509101Y311689D01*
X509104Y311688D01*
X509106Y311687D01*
X509202Y311671D01*
X509298Y311653D01*
X509301Y311654D01*
X509303Y311653D01*
X509396Y311675D01*
X509494Y311697D01*
X509496Y311698D01*
X509499Y311699D01*
X509647Y311802D01*
X509918Y312073D01*
X510082Y312141D01*
X510083Y312141D01*
X511224Y312614D01*
X511230Y312618D01*
X511236Y312619D01*
X511313Y312674D01*
X511391Y312726D01*
X511394Y312731D01*
X511399Y312735D01*
X511449Y312815D01*
X511501Y312893D01*
X511502Y312900D01*
X511505Y312905D01*
X511537Y313083D01*
X511537Y425871D01*
X512429Y426763D01*
X512433Y426769D01*
X512439Y426774D01*
X512488Y426852D01*
X512540Y426930D01*
X512541Y426937D01*
X512545Y426944D01*
X512577Y427121D01*
X512577Y427831D01*
X513427Y429882D01*
X514998Y431453D01*
X515961Y431852D01*
X515962Y431852D01*
X517049Y432303D01*
X519271Y432303D01*
X521322Y431453D01*
X522893Y429882D01*
X523743Y427831D01*
X523743Y425609D01*
X522893Y423558D01*
X521322Y421987D01*
X520455Y421628D01*
X520016Y421446D01*
X520010Y421442D01*
X520004Y421441D01*
X519927Y421386D01*
X519849Y421334D01*
X519846Y421329D01*
X519841Y421325D01*
X519791Y421245D01*
X519739Y421167D01*
X519738Y421160D01*
X519735Y421155D01*
X519703Y420977D01*
X519703Y309807D01*
X519703Y309805D01*
X519703Y309804D01*
X519722Y309709D01*
X519742Y309610D01*
X519743Y309609D01*
X519743Y309608D01*
X519799Y309527D01*
X519855Y309444D01*
X519856Y309444D01*
X519857Y309442D01*
X519942Y309387D01*
X520023Y309335D01*
X520024Y309335D01*
X520025Y309334D01*
X520124Y309317D01*
X520220Y309299D01*
X520222Y309300D01*
X520223Y309300D01*
X520319Y309321D01*
X520416Y309343D01*
X520417Y309344D01*
X520418Y309344D01*
X520499Y309402D01*
X520579Y309459D01*
X520580Y309460D01*
X520581Y309461D01*
X520679Y309613D01*
X521047Y310502D01*
X521549Y311004D01*
X521553Y311010D01*
X521559Y311015D01*
X521608Y311094D01*
X521660Y311171D01*
X521661Y311179D01*
X521665Y311185D01*
X521697Y311363D01*
X521697Y352211D01*
X587843Y418357D01*
X587847Y418363D01*
X587853Y418368D01*
X587902Y418446D01*
X587954Y418524D01*
X587955Y418531D01*
X587959Y418538D01*
X587991Y418715D01*
X587991Y441329D01*
X587990Y441337D01*
X587991Y441344D01*
X587970Y441434D01*
X587952Y441525D01*
X587947Y441532D01*
X587945Y441539D01*
X587843Y441687D01*
X581857Y447673D01*
X581857Y466833D01*
X581844Y466900D01*
X581839Y466969D01*
X581824Y466998D01*
X581818Y467029D01*
X581779Y467086D01*
X581748Y467148D01*
X581723Y467168D01*
X581705Y467195D01*
X581647Y467233D01*
X581595Y467277D01*
X581564Y467287D01*
X581537Y467304D01*
X581469Y467316D01*
X581403Y467337D01*
X581371Y467334D01*
X581340Y467340D01*
X581272Y467325D01*
X581204Y467318D01*
X581176Y467303D01*
X581144Y467296D01*
X581088Y467256D01*
X581027Y467224D01*
X581005Y467197D01*
X580981Y467180D01*
X580954Y467137D01*
X580911Y467086D01*
X580669Y466668D01*
X580168Y466167D01*
X579555Y465813D01*
X578870Y465629D01*
X571931Y465629D01*
X571931Y470662D01*
X571930Y470667D01*
X571931Y470672D01*
X571910Y470765D01*
X571892Y470858D01*
X571889Y470863D01*
X571887Y470868D01*
X571832Y470946D01*
X571779Y471024D01*
X571775Y471027D01*
X571771Y471031D01*
X571690Y471082D01*
X571611Y471133D01*
X571606Y471134D01*
X571601Y471137D01*
X571424Y471169D01*
X570915Y471169D01*
X570915Y471171D01*
X571424Y471171D01*
X571429Y471172D01*
X571434Y471171D01*
X571527Y471192D01*
X571620Y471210D01*
X571625Y471213D01*
X571630Y471215D01*
X571708Y471270D01*
X571786Y471323D01*
X571789Y471327D01*
X571793Y471331D01*
X571844Y471412D01*
X571895Y471491D01*
X571896Y471496D01*
X571899Y471501D01*
X571931Y471678D01*
X571931Y476711D01*
X578870Y476711D01*
X579555Y476527D01*
X580168Y476173D01*
X580669Y475672D01*
X580911Y475254D01*
X580956Y475202D01*
X580995Y475145D01*
X581022Y475127D01*
X581043Y475103D01*
X581105Y475073D01*
X581163Y475036D01*
X581195Y475030D01*
X581224Y475016D01*
X581293Y475012D01*
X581360Y475000D01*
X581392Y475007D01*
X581424Y475005D01*
X581489Y475029D01*
X581556Y475044D01*
X581582Y475062D01*
X581613Y475073D01*
X581663Y475120D01*
X581719Y475160D01*
X581736Y475187D01*
X581760Y475209D01*
X581789Y475271D01*
X581825Y475330D01*
X581831Y475364D01*
X581844Y475391D01*
X581845Y475442D01*
X581857Y475507D01*
X581857Y491075D01*
X581856Y491083D01*
X581857Y491090D01*
X581836Y491180D01*
X581818Y491271D01*
X581813Y491278D01*
X581811Y491285D01*
X581709Y491433D01*
X580884Y492258D01*
X580880Y492261D01*
X580877Y492265D01*
X580797Y492316D01*
X580717Y492369D01*
X580712Y492370D01*
X580707Y492373D01*
X580614Y492389D01*
X580520Y492407D01*
X580515Y492406D01*
X580510Y492407D01*
X580417Y492385D01*
X580324Y492365D01*
X580320Y492362D01*
X580315Y492361D01*
X580167Y492258D01*
X579428Y491519D01*
X562404Y491519D01*
X561115Y492808D01*
X561115Y500332D01*
X562404Y501621D01*
X579428Y501621D01*
X580247Y500801D01*
X580254Y500797D01*
X580258Y500791D01*
X580337Y500742D01*
X580414Y500690D01*
X580422Y500689D01*
X580428Y500685D01*
X580606Y500653D01*
X584037Y500653D01*
X590023Y494667D01*
X590023Y451265D01*
X590024Y451257D01*
X590023Y451250D01*
X590044Y451160D01*
X590062Y451069D01*
X590067Y451062D01*
X590069Y451055D01*
X590171Y450907D01*
X596157Y444921D01*
X596157Y415123D01*
X530011Y348977D01*
X530007Y348971D01*
X530001Y348966D01*
X529952Y348888D01*
X529900Y348810D01*
X529899Y348803D01*
X529895Y348796D01*
X529863Y348619D01*
X529863Y311363D01*
X529864Y311355D01*
X529863Y311347D01*
X529884Y311257D01*
X529902Y311166D01*
X529907Y311160D01*
X529909Y311152D01*
X530011Y311004D01*
X530513Y310502D01*
X531363Y308451D01*
X531363Y306229D01*
X530513Y304178D01*
X528942Y302607D01*
X528501Y302424D01*
X528500Y302424D01*
X527276Y301917D01*
X526891Y301757D01*
X524669Y301757D01*
X522618Y302607D01*
X521047Y304178D01*
X520197Y306229D01*
X520197Y307459D01*
X520197Y307461D01*
X520197Y307464D01*
X520177Y307559D01*
X520158Y307655D01*
X520156Y307658D01*
X520156Y307660D01*
X520100Y307740D01*
X520045Y307821D01*
X520043Y307823D01*
X520041Y307825D01*
X519958Y307878D01*
X519877Y307930D01*
X519874Y307931D01*
X519872Y307932D01*
X519776Y307949D01*
X519680Y307966D01*
X519677Y307965D01*
X519675Y307966D01*
X519580Y307944D01*
X519484Y307922D01*
X519482Y307921D01*
X519479Y307920D01*
X519331Y307817D01*
X518811Y307297D01*
X518807Y307291D01*
X518801Y307286D01*
X518752Y307207D01*
X518700Y307130D01*
X518699Y307123D01*
X518695Y307116D01*
X518663Y306939D01*
X518663Y306229D01*
X517813Y304178D01*
X516242Y302607D01*
X515801Y302424D01*
X515800Y302424D01*
X514576Y301917D01*
X514191Y301757D01*
X511969Y301757D01*
X509918Y302607D01*
X509647Y302878D01*
X509644Y302880D01*
X509643Y302882D01*
X509562Y302935D01*
X509480Y302989D01*
X509477Y302990D01*
X509475Y302991D01*
X509379Y303008D01*
X509283Y303027D01*
X509280Y303026D01*
X509278Y303027D01*
X509181Y303005D01*
X509087Y302985D01*
X509085Y302984D01*
X509082Y302983D01*
X509001Y302926D01*
X508922Y302871D01*
X508921Y302869D01*
X508919Y302867D01*
X508866Y302783D01*
X508815Y302702D01*
X508814Y302699D01*
X508813Y302697D01*
X508781Y302520D01*
X508781Y255483D01*
X508782Y255475D01*
X508781Y255467D01*
X508802Y255377D01*
X508820Y255286D01*
X508825Y255280D01*
X508827Y255272D01*
X508929Y255124D01*
X509431Y254622D01*
X510281Y252571D01*
X510281Y250349D01*
X509431Y248298D01*
X507860Y246727D01*
X507618Y246627D01*
X507617Y246627D01*
X506393Y246119D01*
X505809Y245877D01*
X503587Y245877D01*
G37*
%LPD*%
G36*
X342194Y10288D02*
X342194Y10288D01*
X342197Y10288D01*
X342291Y10308D01*
X342388Y10327D01*
X342390Y10329D01*
X342393Y10329D01*
X342473Y10385D01*
X342554Y10440D01*
X342555Y10442D01*
X342557Y10444D01*
X342611Y10527D01*
X342663Y10608D01*
X342663Y10611D01*
X342665Y10613D01*
X342681Y10709D01*
X342699Y10805D01*
X342698Y10808D01*
X342698Y10810D01*
X342676Y10904D01*
X342655Y11001D01*
X342653Y11003D01*
X342653Y11006D01*
X342550Y11154D01*
X323323Y30380D01*
X320783Y32920D01*
X320783Y174919D01*
X323323Y177459D01*
X340447Y194583D01*
X340451Y194589D01*
X340457Y194594D01*
X340506Y194672D01*
X340558Y194749D01*
X340559Y194757D01*
X340563Y194764D01*
X340595Y194941D01*
X340595Y260481D01*
X340594Y260489D01*
X340595Y260496D01*
X340574Y260586D01*
X340556Y260677D01*
X340551Y260684D01*
X340549Y260691D01*
X340447Y260839D01*
X326625Y274661D01*
X326625Y295202D01*
X326624Y295207D01*
X326625Y295212D01*
X326604Y295305D01*
X326586Y295399D01*
X326583Y295403D01*
X326582Y295408D01*
X326526Y295486D01*
X326473Y295564D01*
X326469Y295567D01*
X326466Y295571D01*
X326384Y295622D01*
X326305Y295674D01*
X326300Y295674D01*
X326295Y295677D01*
X326118Y295709D01*
X325852Y295709D01*
X322511Y297093D01*
X319953Y299651D01*
X319852Y299896D01*
X319848Y299902D01*
X319846Y299908D01*
X319792Y299984D01*
X319740Y300063D01*
X319734Y300066D01*
X319730Y300071D01*
X319651Y300121D01*
X319572Y300173D01*
X319566Y300174D01*
X319560Y300177D01*
X319383Y300209D01*
X311658Y300209D01*
X311653Y300208D01*
X311648Y300209D01*
X311555Y300188D01*
X311462Y300170D01*
X311457Y300167D01*
X311452Y300166D01*
X311374Y300110D01*
X311296Y300057D01*
X311293Y300053D01*
X311289Y300050D01*
X311238Y299968D01*
X311186Y299889D01*
X311186Y299884D01*
X311183Y299879D01*
X311151Y299702D01*
X311151Y208298D01*
X311152Y208293D01*
X311151Y208288D01*
X311172Y208195D01*
X311190Y208101D01*
X311193Y208097D01*
X311194Y208092D01*
X311250Y208014D01*
X311303Y207936D01*
X311307Y207933D01*
X311310Y207929D01*
X311392Y207878D01*
X311471Y207826D01*
X311476Y207826D01*
X311481Y207823D01*
X311658Y207791D01*
X319383Y207791D01*
X319389Y207792D01*
X319396Y207791D01*
X319487Y207812D01*
X319579Y207830D01*
X319585Y207834D01*
X319591Y207835D01*
X319668Y207890D01*
X319745Y207943D01*
X319749Y207948D01*
X319754Y207952D01*
X319852Y208104D01*
X319953Y208349D01*
X322511Y210907D01*
X323214Y211198D01*
X323215Y211198D01*
X324439Y211706D01*
X325664Y212213D01*
X325852Y212291D01*
X329468Y212291D01*
X332809Y210907D01*
X335367Y208349D01*
X336751Y205008D01*
X336751Y201392D01*
X335367Y198051D01*
X332809Y195493D01*
X332571Y195394D01*
X331346Y194887D01*
X330122Y194380D01*
X330121Y194380D01*
X329468Y194109D01*
X325852Y194109D01*
X322511Y195493D01*
X319953Y198051D01*
X319852Y198296D01*
X319848Y198302D01*
X319846Y198308D01*
X319792Y198384D01*
X319740Y198463D01*
X319734Y198466D01*
X319730Y198471D01*
X319651Y198521D01*
X319572Y198573D01*
X319566Y198574D01*
X319560Y198577D01*
X319383Y198609D01*
X311658Y198609D01*
X311653Y198608D01*
X311648Y198609D01*
X311555Y198588D01*
X311462Y198570D01*
X311457Y198567D01*
X311452Y198566D01*
X311374Y198510D01*
X311296Y198457D01*
X311293Y198453D01*
X311289Y198450D01*
X311238Y198368D01*
X311186Y198289D01*
X311186Y198284D01*
X311183Y198279D01*
X311151Y198102D01*
X311151Y10795D01*
X311152Y10790D01*
X311151Y10785D01*
X311172Y10692D01*
X311190Y10598D01*
X311193Y10594D01*
X311194Y10589D01*
X311250Y10511D01*
X311303Y10433D01*
X311307Y10430D01*
X311310Y10426D01*
X311392Y10375D01*
X311471Y10323D01*
X311476Y10323D01*
X311481Y10320D01*
X311658Y10288D01*
X342191Y10288D01*
X342194Y10288D01*
G37*
%LPC*%
G36*
X421037Y200157D02*
X421037Y200157D01*
X418986Y201007D01*
X417415Y202578D01*
X416565Y204629D01*
X416565Y206851D01*
X417415Y208902D01*
X418986Y210473D01*
X419513Y210691D01*
X420737Y211198D01*
X421037Y211323D01*
X422509Y211323D01*
X422517Y211324D01*
X422524Y211323D01*
X422614Y211344D01*
X422705Y211362D01*
X422712Y211367D01*
X422719Y211369D01*
X422867Y211471D01*
X427823Y216427D01*
X427827Y216433D01*
X427833Y216438D01*
X427882Y216516D01*
X427934Y216594D01*
X427935Y216601D01*
X427939Y216608D01*
X427971Y216785D01*
X427971Y402910D01*
X427971Y402913D01*
X427971Y402915D01*
X427951Y403010D01*
X427932Y403107D01*
X427930Y403109D01*
X427930Y403111D01*
X427874Y403192D01*
X427819Y403273D01*
X427817Y403274D01*
X427815Y403276D01*
X427732Y403329D01*
X427651Y403382D01*
X427648Y403382D01*
X427646Y403384D01*
X427550Y403400D01*
X427454Y403417D01*
X427451Y403417D01*
X427449Y403417D01*
X427354Y403395D01*
X427258Y403374D01*
X427256Y403372D01*
X427253Y403372D01*
X427105Y403269D01*
X424832Y400996D01*
X424434Y400831D01*
X423209Y400323D01*
X421985Y399816D01*
X421278Y399523D01*
X417430Y399523D01*
X416348Y399972D01*
X416342Y399973D01*
X416336Y399976D01*
X416244Y399992D01*
X416152Y400010D01*
X416145Y400009D01*
X416139Y400010D01*
X416048Y399989D01*
X415955Y399970D01*
X415950Y399966D01*
X415943Y399964D01*
X415795Y399862D01*
X413425Y397491D01*
X413421Y397485D01*
X413415Y397480D01*
X413366Y397402D01*
X413314Y397324D01*
X413313Y397317D01*
X413309Y397310D01*
X413277Y397133D01*
X413277Y369783D01*
X413278Y369775D01*
X413277Y369767D01*
X413298Y369677D01*
X413316Y369586D01*
X413321Y369579D01*
X413323Y369572D01*
X413425Y369424D01*
X413927Y368922D01*
X414777Y366871D01*
X414777Y364649D01*
X413927Y362598D01*
X413425Y362096D01*
X413421Y362090D01*
X413415Y362085D01*
X413366Y362006D01*
X413314Y361929D01*
X413313Y361921D01*
X413309Y361915D01*
X413277Y361737D01*
X413277Y275549D01*
X413278Y275541D01*
X413277Y275533D01*
X413298Y275443D01*
X413316Y275352D01*
X413321Y275346D01*
X413323Y275338D01*
X413425Y275190D01*
X413673Y274942D01*
X414523Y272891D01*
X414523Y270669D01*
X413673Y268618D01*
X412102Y267047D01*
X411787Y266917D01*
X410563Y266409D01*
X410051Y266197D01*
X407829Y266197D01*
X405778Y267047D01*
X404207Y268618D01*
X403357Y270669D01*
X403357Y272891D01*
X404207Y274942D01*
X404963Y275698D01*
X404967Y275704D01*
X404973Y275709D01*
X405022Y275788D01*
X405074Y275865D01*
X405075Y275873D01*
X405079Y275879D01*
X405111Y276057D01*
X405111Y361737D01*
X405110Y361745D01*
X405111Y361753D01*
X405090Y361843D01*
X405072Y361934D01*
X405067Y361940D01*
X405065Y361948D01*
X404963Y362096D01*
X404461Y362598D01*
X403611Y364649D01*
X403611Y366871D01*
X404461Y368922D01*
X404963Y369424D01*
X404967Y369430D01*
X404973Y369435D01*
X405022Y369514D01*
X405074Y369591D01*
X405075Y369599D01*
X405079Y369605D01*
X405111Y369783D01*
X405111Y400725D01*
X407651Y403265D01*
X410022Y405635D01*
X410025Y405641D01*
X410031Y405645D01*
X410080Y405724D01*
X410133Y405802D01*
X410134Y405809D01*
X410137Y405814D01*
X410153Y405907D01*
X410170Y405999D01*
X410169Y406006D01*
X410170Y406012D01*
X410132Y406188D01*
X409683Y407270D01*
X409683Y411118D01*
X411156Y414672D01*
X413876Y417392D01*
X414495Y417649D01*
X414496Y417649D01*
X415720Y418156D01*
X416945Y418664D01*
X417430Y418865D01*
X421278Y418865D01*
X424832Y417392D01*
X427105Y415119D01*
X427108Y415118D01*
X427109Y415115D01*
X427190Y415063D01*
X427272Y415008D01*
X427275Y415008D01*
X427277Y415006D01*
X427373Y414989D01*
X427469Y414971D01*
X427472Y414971D01*
X427474Y414971D01*
X427571Y414992D01*
X427665Y415012D01*
X427667Y415014D01*
X427670Y415014D01*
X427750Y415071D01*
X427830Y415126D01*
X427831Y415129D01*
X427833Y415130D01*
X427885Y415213D01*
X427937Y415296D01*
X427938Y415298D01*
X427939Y415300D01*
X427971Y415478D01*
X427971Y419993D01*
X427970Y420001D01*
X427971Y420008D01*
X427950Y420098D01*
X427932Y420189D01*
X427927Y420196D01*
X427925Y420203D01*
X427823Y420351D01*
X422913Y425262D01*
X422907Y425265D01*
X422903Y425271D01*
X422824Y425320D01*
X422746Y425373D01*
X422739Y425374D01*
X422734Y425377D01*
X422641Y425393D01*
X422549Y425410D01*
X422542Y425409D01*
X422536Y425410D01*
X422360Y425372D01*
X421894Y425179D01*
X421278Y424923D01*
X417430Y424923D01*
X413876Y426396D01*
X411156Y429116D01*
X409683Y432670D01*
X409683Y436518D01*
X411156Y440072D01*
X413876Y442792D01*
X414405Y443012D01*
X415630Y443519D01*
X416854Y444026D01*
X417430Y444265D01*
X421278Y444265D01*
X424832Y442792D01*
X427552Y440072D01*
X429025Y436518D01*
X429025Y432670D01*
X428576Y431588D01*
X428575Y431582D01*
X428572Y431576D01*
X428556Y431484D01*
X428538Y431392D01*
X428539Y431385D01*
X428538Y431379D01*
X428559Y431288D01*
X428578Y431195D01*
X428582Y431190D01*
X428584Y431183D01*
X428686Y431035D01*
X433597Y426125D01*
X436137Y423585D01*
X436137Y415478D01*
X436137Y415475D01*
X436137Y415473D01*
X436157Y415378D01*
X436176Y415281D01*
X436178Y415279D01*
X436178Y415277D01*
X436235Y415195D01*
X436289Y415115D01*
X436291Y415114D01*
X436293Y415112D01*
X436376Y415059D01*
X436457Y415006D01*
X436460Y415006D01*
X436462Y415004D01*
X436558Y414988D01*
X436654Y414971D01*
X436657Y414971D01*
X436659Y414971D01*
X436754Y414993D01*
X436850Y415014D01*
X436852Y415016D01*
X436855Y415016D01*
X437003Y415119D01*
X439276Y417392D01*
X439895Y417649D01*
X439896Y417649D01*
X441120Y418156D01*
X442345Y418664D01*
X442830Y418865D01*
X446678Y418865D01*
X450232Y417392D01*
X452952Y414672D01*
X454425Y411118D01*
X454425Y407270D01*
X452952Y403716D01*
X450232Y400996D01*
X449834Y400831D01*
X448609Y400323D01*
X447385Y399816D01*
X446678Y399523D01*
X442830Y399523D01*
X439276Y400996D01*
X437003Y403269D01*
X437000Y403270D01*
X436999Y403273D01*
X436918Y403325D01*
X436836Y403380D01*
X436833Y403380D01*
X436831Y403382D01*
X436735Y403399D01*
X436639Y403417D01*
X436636Y403417D01*
X436634Y403417D01*
X436537Y403396D01*
X436443Y403376D01*
X436441Y403374D01*
X436438Y403374D01*
X436358Y403317D01*
X436278Y403262D01*
X436277Y403259D01*
X436275Y403258D01*
X436223Y403175D01*
X436171Y403092D01*
X436170Y403090D01*
X436169Y403088D01*
X436137Y402910D01*
X436137Y213193D01*
X427879Y204935D01*
X427875Y204929D01*
X427869Y204924D01*
X427820Y204846D01*
X427768Y204768D01*
X427767Y204761D01*
X427763Y204754D01*
X427748Y204670D01*
X426881Y202578D01*
X425310Y201007D01*
X425231Y200974D01*
X425230Y200974D01*
X424006Y200467D01*
X423259Y200157D01*
X421037Y200157D01*
G37*
%LPD*%
%LPC*%
G36*
X583089Y248417D02*
X583089Y248417D01*
X581038Y249267D01*
X579467Y250838D01*
X578617Y252889D01*
X578617Y255111D01*
X579467Y257162D01*
X581038Y258733D01*
X581392Y258880D01*
X581393Y258880D01*
X582617Y259387D01*
X583089Y259583D01*
X585311Y259583D01*
X587362Y258733D01*
X587864Y258231D01*
X587870Y258227D01*
X587875Y258221D01*
X587954Y258172D01*
X588031Y258120D01*
X588039Y258119D01*
X588045Y258115D01*
X588223Y258083D01*
X662208Y258083D01*
X662214Y258084D01*
X662221Y258083D01*
X662312Y258104D01*
X662404Y258122D01*
X662410Y258126D01*
X662416Y258127D01*
X662493Y258182D01*
X662570Y258235D01*
X662574Y258240D01*
X662579Y258244D01*
X662676Y258396D01*
X663007Y259194D01*
X663509Y259696D01*
X663513Y259702D01*
X663519Y259707D01*
X663568Y259786D01*
X663620Y259863D01*
X663621Y259871D01*
X663625Y259877D01*
X663657Y260055D01*
X663657Y275239D01*
X663656Y275247D01*
X663657Y275254D01*
X663636Y275344D01*
X663618Y275435D01*
X663613Y275442D01*
X663611Y275449D01*
X663509Y275597D01*
X600437Y338669D01*
X600437Y452759D01*
X600436Y452767D01*
X600437Y452774D01*
X600416Y452864D01*
X600398Y452955D01*
X600393Y452962D01*
X600391Y452969D01*
X600289Y453117D01*
X592817Y460589D01*
X592817Y498479D01*
X592816Y498487D01*
X592817Y498494D01*
X592796Y498584D01*
X592778Y498675D01*
X592773Y498682D01*
X592771Y498689D01*
X592669Y498837D01*
X586467Y505039D01*
X586461Y505043D01*
X586456Y505049D01*
X586378Y505098D01*
X586300Y505150D01*
X586293Y505151D01*
X586286Y505155D01*
X586109Y505187D01*
X580606Y505187D01*
X580598Y505186D01*
X580590Y505187D01*
X580500Y505166D01*
X580409Y505148D01*
X580403Y505143D01*
X580395Y505141D01*
X580247Y505039D01*
X579428Y504219D01*
X562404Y504219D01*
X561115Y505508D01*
X561115Y513032D01*
X562404Y514321D01*
X579428Y514321D01*
X580247Y513501D01*
X580254Y513497D01*
X580258Y513491D01*
X580337Y513442D01*
X580414Y513390D01*
X580422Y513389D01*
X580428Y513385D01*
X580606Y513353D01*
X589701Y513353D01*
X600983Y502071D01*
X600983Y464181D01*
X600984Y464173D01*
X600983Y464166D01*
X601004Y464076D01*
X601022Y463985D01*
X601027Y463978D01*
X601029Y463971D01*
X601131Y463823D01*
X608603Y456351D01*
X608603Y342261D01*
X608604Y342253D01*
X608603Y342246D01*
X608624Y342156D01*
X608642Y342065D01*
X608647Y342058D01*
X608649Y342051D01*
X608751Y341903D01*
X671823Y278831D01*
X671823Y260055D01*
X671824Y260047D01*
X671823Y260039D01*
X671844Y259949D01*
X671862Y259858D01*
X671867Y259851D01*
X671869Y259844D01*
X671971Y259696D01*
X672473Y259194D01*
X673323Y257143D01*
X673323Y254921D01*
X672473Y252870D01*
X670902Y251299D01*
X670643Y251192D01*
X669419Y250685D01*
X668851Y250449D01*
X668141Y250449D01*
X668133Y250448D01*
X668126Y250449D01*
X668036Y250428D01*
X667945Y250410D01*
X667938Y250405D01*
X667931Y250403D01*
X667783Y250301D01*
X667399Y249917D01*
X588223Y249917D01*
X588215Y249916D01*
X588207Y249917D01*
X588117Y249896D01*
X588026Y249878D01*
X588020Y249873D01*
X588012Y249871D01*
X587864Y249769D01*
X587362Y249267D01*
X587111Y249163D01*
X587110Y249163D01*
X585886Y248656D01*
X585311Y248417D01*
X583089Y248417D01*
G37*
%LPD*%
%LPC*%
G36*
X469043Y182377D02*
X469043Y182377D01*
X466992Y183227D01*
X465421Y184798D01*
X464571Y186849D01*
X464571Y189071D01*
X465421Y191122D01*
X466992Y192693D01*
X467582Y192937D01*
X468806Y193445D01*
X468807Y193445D01*
X469043Y193543D01*
X469753Y193543D01*
X469761Y193544D01*
X469768Y193543D01*
X469858Y193564D01*
X469949Y193582D01*
X469956Y193587D01*
X469963Y193589D01*
X470111Y193691D01*
X488783Y212363D01*
X488787Y212369D01*
X488793Y212374D01*
X488842Y212452D01*
X488894Y212530D01*
X488895Y212537D01*
X488899Y212544D01*
X488931Y212721D01*
X488931Y345700D01*
X488931Y345702D01*
X488931Y345705D01*
X488911Y345800D01*
X488892Y345896D01*
X488890Y345898D01*
X488890Y345901D01*
X488834Y345981D01*
X488779Y346062D01*
X488777Y346063D01*
X488775Y346065D01*
X488692Y346119D01*
X488611Y346171D01*
X488608Y346172D01*
X488606Y346173D01*
X488510Y346189D01*
X488414Y346207D01*
X488411Y346206D01*
X488409Y346207D01*
X488314Y346185D01*
X488218Y346163D01*
X488216Y346162D01*
X488213Y346161D01*
X488065Y346058D01*
X487384Y345377D01*
X486554Y345033D01*
X485332Y344527D01*
X483111Y344527D01*
X481059Y345377D01*
X479489Y346947D01*
X478639Y348999D01*
X478639Y349708D01*
X478637Y349716D01*
X478639Y349724D01*
X478618Y349814D01*
X478599Y349905D01*
X478595Y349911D01*
X478593Y349919D01*
X478490Y350067D01*
X475567Y352990D01*
X475567Y456635D01*
X475565Y456643D01*
X475567Y456651D01*
X475546Y456741D01*
X475527Y456832D01*
X475523Y456838D01*
X475521Y456846D01*
X475418Y456994D01*
X472397Y460015D01*
X472391Y460019D01*
X472386Y460025D01*
X472308Y460074D01*
X472230Y460126D01*
X472223Y460127D01*
X472216Y460131D01*
X472039Y460163D01*
X470403Y460163D01*
X468352Y461013D01*
X466781Y462584D01*
X465931Y464635D01*
X465931Y466857D01*
X466781Y468908D01*
X468352Y470479D01*
X469393Y470910D01*
X470403Y471329D01*
X472625Y471329D01*
X474676Y470479D01*
X476247Y468908D01*
X477053Y466961D01*
X477059Y466953D01*
X477061Y466944D01*
X477163Y466796D01*
X481192Y462768D01*
X483732Y460228D01*
X483732Y356583D01*
X483734Y356575D01*
X483733Y356567D01*
X483753Y356477D01*
X483772Y356386D01*
X483776Y356380D01*
X483778Y356372D01*
X483881Y356224D01*
X484264Y355841D01*
X484271Y355836D01*
X484275Y355830D01*
X484354Y355781D01*
X484431Y355730D01*
X484439Y355728D01*
X484445Y355724D01*
X484623Y355692D01*
X485332Y355692D01*
X487384Y354842D01*
X488065Y354161D01*
X488068Y354159D01*
X488069Y354157D01*
X488149Y354105D01*
X488232Y354050D01*
X488235Y354049D01*
X488237Y354048D01*
X488333Y354031D01*
X488429Y354012D01*
X488432Y354013D01*
X488434Y354012D01*
X488531Y354034D01*
X488625Y354054D01*
X488627Y354055D01*
X488630Y354056D01*
X488710Y354113D01*
X488790Y354168D01*
X488791Y354170D01*
X488793Y354172D01*
X488845Y354255D01*
X488897Y354337D01*
X488898Y354340D01*
X488899Y354342D01*
X488931Y354520D01*
X488931Y407769D01*
X488930Y407776D01*
X488931Y407782D01*
X488910Y407874D01*
X488892Y407966D01*
X488888Y407971D01*
X488887Y407978D01*
X488832Y408054D01*
X488779Y408132D01*
X488774Y408135D01*
X488770Y408141D01*
X488618Y408238D01*
X487312Y408779D01*
X485741Y410350D01*
X484891Y412401D01*
X484891Y414623D01*
X485741Y416674D01*
X487312Y418245D01*
X488323Y418664D01*
X489363Y419095D01*
X491585Y419095D01*
X493636Y418245D01*
X495207Y416674D01*
X496057Y414623D01*
X496057Y413913D01*
X496058Y413905D01*
X496057Y413898D01*
X496078Y413808D01*
X496096Y413717D01*
X496101Y413710D01*
X496103Y413703D01*
X496205Y413555D01*
X497097Y412663D01*
X497097Y209129D01*
X475885Y187917D01*
X475881Y187911D01*
X475875Y187906D01*
X475826Y187828D01*
X475774Y187750D01*
X475773Y187743D01*
X475769Y187736D01*
X475737Y187559D01*
X475737Y186849D01*
X474887Y184798D01*
X473316Y183227D01*
X473300Y183220D01*
X472075Y182713D01*
X471265Y182377D01*
X469043Y182377D01*
G37*
%LPD*%
G36*
X329468Y143433D02*
X329468Y143433D01*
X329469Y143433D01*
X329563Y143454D01*
X329662Y143476D01*
X329663Y143477D01*
X329664Y143477D01*
X329742Y143533D01*
X329825Y143592D01*
X329826Y143593D01*
X329827Y143594D01*
X329925Y143746D01*
X330059Y144070D01*
X331629Y145641D01*
X331925Y145763D01*
X333150Y146270D01*
X333681Y146490D01*
X334391Y146490D01*
X334398Y146492D01*
X334406Y146491D01*
X334496Y146512D01*
X334587Y146530D01*
X334594Y146535D01*
X334601Y146536D01*
X334749Y146639D01*
X356449Y168339D01*
X356453Y168345D01*
X356459Y168350D01*
X356508Y168428D01*
X356560Y168505D01*
X356561Y168513D01*
X356565Y168520D01*
X356597Y168697D01*
X356597Y266831D01*
X356596Y266839D01*
X356597Y266846D01*
X356576Y266936D01*
X356558Y267027D01*
X356553Y267034D01*
X356551Y267041D01*
X356449Y267189D01*
X345167Y278471D01*
X345167Y347349D01*
X345166Y347357D01*
X345167Y347364D01*
X345146Y347454D01*
X345128Y347545D01*
X345123Y347552D01*
X345121Y347559D01*
X345019Y347707D01*
X341865Y350861D01*
X341859Y350865D01*
X341854Y350871D01*
X341776Y350920D01*
X341698Y350972D01*
X341691Y350973D01*
X341684Y350977D01*
X341507Y351009D01*
X335937Y351009D01*
X335931Y351008D01*
X335924Y351009D01*
X335833Y350988D01*
X335741Y350970D01*
X335735Y350966D01*
X335729Y350965D01*
X335652Y350910D01*
X335575Y350857D01*
X335571Y350852D01*
X335566Y350848D01*
X335468Y350696D01*
X335367Y350451D01*
X332809Y347893D01*
X332028Y347569D01*
X332027Y347569D01*
X330803Y347062D01*
X329578Y346555D01*
X329468Y346509D01*
X325852Y346509D01*
X322511Y347893D01*
X321067Y349337D01*
X321061Y349341D01*
X321056Y349347D01*
X320977Y349396D01*
X320900Y349448D01*
X320892Y349449D01*
X320886Y349453D01*
X320708Y349485D01*
X311658Y349485D01*
X311653Y349484D01*
X311648Y349485D01*
X311555Y349464D01*
X311462Y349446D01*
X311457Y349443D01*
X311452Y349442D01*
X311374Y349386D01*
X311296Y349333D01*
X311293Y349329D01*
X311289Y349326D01*
X311238Y349244D01*
X311186Y349165D01*
X311186Y349160D01*
X311183Y349155D01*
X311151Y348978D01*
X311151Y309898D01*
X311152Y309893D01*
X311151Y309888D01*
X311172Y309795D01*
X311190Y309701D01*
X311193Y309697D01*
X311194Y309692D01*
X311250Y309614D01*
X311303Y309536D01*
X311307Y309533D01*
X311310Y309529D01*
X311392Y309478D01*
X311471Y309426D01*
X311476Y309426D01*
X311481Y309423D01*
X311658Y309391D01*
X319383Y309391D01*
X319389Y309392D01*
X319396Y309391D01*
X319487Y309412D01*
X319579Y309430D01*
X319585Y309434D01*
X319591Y309435D01*
X319668Y309490D01*
X319745Y309543D01*
X319749Y309548D01*
X319754Y309552D01*
X319852Y309704D01*
X319953Y309949D01*
X322511Y312507D01*
X322852Y312648D01*
X324077Y313156D01*
X325301Y313663D01*
X325302Y313663D01*
X325852Y313891D01*
X329468Y313891D01*
X332809Y312507D01*
X335367Y309949D01*
X336751Y306608D01*
X336751Y302992D01*
X335367Y299651D01*
X334939Y299223D01*
X334935Y299217D01*
X334929Y299212D01*
X334880Y299133D01*
X334828Y299056D01*
X334827Y299048D01*
X334823Y299042D01*
X334791Y298864D01*
X334791Y278253D01*
X334792Y278245D01*
X334791Y278238D01*
X334812Y278148D01*
X334830Y278057D01*
X334835Y278050D01*
X334837Y278043D01*
X334939Y277895D01*
X348761Y264073D01*
X348761Y191349D01*
X346221Y188809D01*
X329097Y171685D01*
X329093Y171679D01*
X329087Y171674D01*
X329038Y171596D01*
X328986Y171519D01*
X328985Y171511D01*
X328981Y171504D01*
X328949Y171327D01*
X328949Y143940D01*
X328949Y143939D01*
X328949Y143937D01*
X328969Y143841D01*
X328988Y143743D01*
X328989Y143742D01*
X328989Y143741D01*
X329046Y143659D01*
X329101Y143577D01*
X329102Y143577D01*
X329103Y143576D01*
X329187Y143522D01*
X329269Y143468D01*
X329270Y143468D01*
X329271Y143467D01*
X329369Y143450D01*
X329466Y143433D01*
X329468Y143433D01*
G37*
G36*
X292105Y410992D02*
X292105Y410992D01*
X292110Y410991D01*
X292203Y411012D01*
X292297Y411030D01*
X292301Y411033D01*
X292306Y411034D01*
X292384Y411090D01*
X292462Y411143D01*
X292465Y411147D01*
X292469Y411150D01*
X292520Y411232D01*
X292572Y411311D01*
X292572Y411316D01*
X292575Y411321D01*
X292607Y411498D01*
X292607Y426702D01*
X292606Y426707D01*
X292607Y426712D01*
X292586Y426805D01*
X292568Y426899D01*
X292565Y426903D01*
X292564Y426908D01*
X292508Y426986D01*
X292455Y427064D01*
X292451Y427067D01*
X292448Y427071D01*
X292366Y427122D01*
X292287Y427174D01*
X292282Y427174D01*
X292277Y427177D01*
X292100Y427209D01*
X285137Y427209D01*
X285131Y427208D01*
X285124Y427209D01*
X285033Y427188D01*
X284941Y427170D01*
X284935Y427166D01*
X284929Y427165D01*
X284852Y427109D01*
X284775Y427057D01*
X284771Y427052D01*
X284766Y427048D01*
X284668Y426896D01*
X284567Y426651D01*
X282009Y424093D01*
X280956Y423657D01*
X279731Y423150D01*
X278668Y422709D01*
X275052Y422709D01*
X271711Y424093D01*
X269153Y426651D01*
X267769Y429992D01*
X267769Y433608D01*
X267871Y433854D01*
X267872Y433860D01*
X267876Y433866D01*
X267892Y433958D01*
X267910Y434051D01*
X267908Y434057D01*
X267909Y434063D01*
X267888Y434155D01*
X267869Y434247D01*
X267865Y434252D01*
X267864Y434259D01*
X267761Y434407D01*
X259867Y442301D01*
X259860Y442305D01*
X259856Y442311D01*
X259777Y442360D01*
X259700Y442412D01*
X259692Y442413D01*
X259686Y442417D01*
X259508Y442449D01*
X253572Y442449D01*
X253564Y442448D01*
X253556Y442449D01*
X253466Y442428D01*
X253375Y442410D01*
X253369Y442405D01*
X253361Y442403D01*
X253213Y442301D01*
X238122Y427209D01*
X197744Y427209D01*
X195134Y429820D01*
X195133Y429821D01*
X195132Y429822D01*
X195050Y429876D01*
X194967Y429931D01*
X194965Y429931D01*
X194964Y429932D01*
X194867Y429950D01*
X194770Y429969D01*
X194769Y429968D01*
X194767Y429969D01*
X194670Y429947D01*
X194574Y429927D01*
X194573Y429926D01*
X194571Y429926D01*
X194491Y429869D01*
X194409Y429813D01*
X194408Y429812D01*
X194407Y429811D01*
X194355Y429728D01*
X194302Y429643D01*
X194301Y429642D01*
X194301Y429641D01*
X194284Y429543D01*
X194268Y429446D01*
X194268Y429445D01*
X194268Y429443D01*
X194306Y429267D01*
X195091Y427374D01*
X195091Y416578D01*
X195092Y416573D01*
X195091Y416568D01*
X195112Y416475D01*
X195130Y416381D01*
X195133Y416377D01*
X195134Y416372D01*
X195190Y416294D01*
X195243Y416216D01*
X195247Y416213D01*
X195250Y416209D01*
X195332Y416158D01*
X195411Y416106D01*
X195416Y416106D01*
X195421Y416103D01*
X195598Y416071D01*
X278784Y416071D01*
X282338Y414598D01*
X285058Y411878D01*
X285296Y411304D01*
X285300Y411298D01*
X285301Y411292D01*
X285356Y411215D01*
X285408Y411137D01*
X285414Y411134D01*
X285417Y411129D01*
X285497Y411079D01*
X285576Y411027D01*
X285582Y411026D01*
X285588Y411023D01*
X285765Y410991D01*
X292100Y410991D01*
X292105Y410992D01*
G37*
%LPC*%
G36*
X452279Y257561D02*
X452279Y257561D01*
X450228Y258411D01*
X448657Y259982D01*
X447807Y262033D01*
X447807Y264255D01*
X448657Y266306D01*
X450228Y267877D01*
X450550Y268010D01*
X451774Y268518D01*
X451775Y268518D01*
X452279Y268727D01*
X452989Y268727D01*
X452997Y268728D01*
X453004Y268727D01*
X453094Y268748D01*
X453185Y268766D01*
X453192Y268771D01*
X453199Y268773D01*
X453347Y268875D01*
X463129Y278657D01*
X463133Y278663D01*
X463139Y278668D01*
X463188Y278746D01*
X463240Y278824D01*
X463241Y278831D01*
X463245Y278838D01*
X463277Y279015D01*
X463277Y404917D01*
X463276Y404925D01*
X463277Y404933D01*
X463256Y405023D01*
X463238Y405114D01*
X463233Y405120D01*
X463231Y405128D01*
X463129Y405276D01*
X462627Y405778D01*
X461777Y407829D01*
X461777Y410051D01*
X462627Y412102D01*
X464198Y413673D01*
X465225Y414098D01*
X466249Y414523D01*
X468471Y414523D01*
X470522Y413673D01*
X472093Y412102D01*
X472943Y410051D01*
X472943Y407829D01*
X472093Y405778D01*
X471591Y405276D01*
X471587Y405270D01*
X471581Y405265D01*
X471532Y405186D01*
X471480Y405109D01*
X471479Y405101D01*
X471475Y405095D01*
X471443Y404917D01*
X471443Y275423D01*
X459121Y263101D01*
X459117Y263095D01*
X459111Y263090D01*
X459062Y263012D01*
X459010Y262934D01*
X459009Y262927D01*
X459005Y262920D01*
X458973Y262743D01*
X458973Y262033D01*
X458123Y259982D01*
X456552Y258411D01*
X456268Y258293D01*
X455043Y257786D01*
X454501Y257561D01*
X452279Y257561D01*
G37*
%LPD*%
%LPC*%
G36*
X393097Y272293D02*
X393097Y272293D01*
X391046Y273143D01*
X389475Y274714D01*
X388625Y276765D01*
X388625Y278986D01*
X389475Y281038D01*
X389977Y281540D01*
X389981Y281546D01*
X389987Y281551D01*
X390036Y281630D01*
X390088Y281707D01*
X390089Y281715D01*
X390093Y281721D01*
X390125Y281899D01*
X390125Y399973D01*
X390124Y399980D01*
X390125Y399986D01*
X390104Y400078D01*
X390086Y400170D01*
X390082Y400175D01*
X390081Y400182D01*
X390026Y400258D01*
X389973Y400336D01*
X389968Y400339D01*
X389964Y400345D01*
X389812Y400442D01*
X388476Y400996D01*
X385756Y403716D01*
X384283Y407270D01*
X384283Y411118D01*
X385756Y414672D01*
X388476Y417392D01*
X389095Y417649D01*
X389096Y417649D01*
X390320Y418156D01*
X391545Y418664D01*
X392030Y418865D01*
X395878Y418865D01*
X399432Y417392D01*
X402152Y414672D01*
X403625Y411118D01*
X403625Y407270D01*
X402152Y403716D01*
X399432Y400996D01*
X398604Y400653D01*
X398598Y400649D01*
X398592Y400647D01*
X398515Y400593D01*
X398437Y400541D01*
X398434Y400535D01*
X398429Y400531D01*
X398379Y400452D01*
X398327Y400373D01*
X398326Y400367D01*
X398323Y400361D01*
X398291Y400184D01*
X398291Y281899D01*
X398292Y281891D01*
X398291Y281883D01*
X398312Y281793D01*
X398330Y281702D01*
X398335Y281696D01*
X398337Y281688D01*
X398439Y281540D01*
X398941Y281038D01*
X399791Y278986D01*
X399791Y276765D01*
X398941Y274714D01*
X397370Y273143D01*
X397034Y273004D01*
X397033Y273004D01*
X395809Y272496D01*
X395319Y272293D01*
X393097Y272293D01*
G37*
%LPD*%
%LPC*%
G36*
X523880Y246866D02*
X523880Y246866D01*
X521828Y247716D01*
X520258Y249286D01*
X519408Y251338D01*
X519408Y253559D01*
X520258Y255611D01*
X521828Y257182D01*
X522255Y257358D01*
X523479Y257865D01*
X523880Y258031D01*
X524589Y258031D01*
X524597Y258033D01*
X524605Y258032D01*
X524695Y258053D01*
X524786Y258071D01*
X524793Y258075D01*
X524800Y258077D01*
X524948Y258180D01*
X537551Y270783D01*
X624717Y270783D01*
X624725Y270784D01*
X624732Y270783D01*
X624822Y270804D01*
X624913Y270822D01*
X624920Y270827D01*
X624927Y270829D01*
X625075Y270931D01*
X632571Y278427D01*
X632575Y278433D01*
X632581Y278438D01*
X632630Y278516D01*
X632682Y278594D01*
X632683Y278601D01*
X632687Y278608D01*
X632719Y278785D01*
X632719Y279495D01*
X633569Y281546D01*
X635140Y283117D01*
X635408Y283228D01*
X636632Y283735D01*
X637191Y283967D01*
X639413Y283967D01*
X641464Y283117D01*
X643035Y281546D01*
X643885Y279495D01*
X643885Y277273D01*
X643035Y275222D01*
X641464Y273651D01*
X641126Y273511D01*
X639901Y273004D01*
X639413Y272801D01*
X638703Y272801D01*
X638695Y272800D01*
X638688Y272801D01*
X638598Y272780D01*
X638507Y272762D01*
X638500Y272757D01*
X638493Y272755D01*
X638345Y272653D01*
X628309Y262617D01*
X541143Y262617D01*
X541135Y262616D01*
X541128Y262617D01*
X541038Y262596D01*
X540947Y262578D01*
X540940Y262573D01*
X540933Y262571D01*
X540785Y262469D01*
X530722Y252406D01*
X530718Y252400D01*
X530711Y252395D01*
X530662Y252316D01*
X530611Y252239D01*
X530610Y252231D01*
X530605Y252225D01*
X530573Y252047D01*
X530573Y251338D01*
X529724Y249286D01*
X528153Y247716D01*
X527973Y247641D01*
X527972Y247641D01*
X526748Y247134D01*
X526101Y246866D01*
X523880Y246866D01*
G37*
%LPD*%
%LPC*%
G36*
X38259Y98811D02*
X38259Y98811D01*
X36208Y99661D01*
X34637Y101232D01*
X33787Y103283D01*
X33787Y105505D01*
X34637Y107556D01*
X36208Y109127D01*
X36483Y109241D01*
X36484Y109241D01*
X37708Y109748D01*
X38259Y109977D01*
X38969Y109977D01*
X38977Y109978D01*
X38984Y109977D01*
X39074Y109998D01*
X39165Y110016D01*
X39172Y110021D01*
X39179Y110023D01*
X39327Y110125D01*
X65111Y135909D01*
X130977Y135909D01*
X135171Y131715D01*
X135177Y131711D01*
X135182Y131705D01*
X135260Y131656D01*
X135337Y131604D01*
X135345Y131603D01*
X135352Y131599D01*
X135529Y131567D01*
X136239Y131567D01*
X138290Y130717D01*
X139861Y129146D01*
X140711Y127095D01*
X140711Y124873D01*
X139861Y122822D01*
X138290Y121251D01*
X137270Y120829D01*
X136239Y120401D01*
X134017Y120401D01*
X131966Y121251D01*
X130395Y122822D01*
X129545Y124873D01*
X129545Y125583D01*
X129544Y125591D01*
X129545Y125598D01*
X129524Y125688D01*
X129506Y125779D01*
X129501Y125786D01*
X129499Y125793D01*
X129397Y125941D01*
X127743Y127595D01*
X127737Y127599D01*
X127732Y127605D01*
X127654Y127654D01*
X127576Y127706D01*
X127569Y127707D01*
X127562Y127711D01*
X127385Y127743D01*
X68703Y127743D01*
X68695Y127742D01*
X68688Y127743D01*
X68598Y127722D01*
X68507Y127704D01*
X68500Y127699D01*
X68493Y127697D01*
X68345Y127595D01*
X45101Y104351D01*
X45097Y104345D01*
X45091Y104340D01*
X45042Y104262D01*
X44990Y104184D01*
X44989Y104177D01*
X44985Y104170D01*
X44953Y103993D01*
X44953Y103283D01*
X44103Y101232D01*
X42532Y99661D01*
X42202Y99524D01*
X42201Y99524D01*
X40977Y99017D01*
X40481Y98811D01*
X38259Y98811D01*
G37*
%LPD*%
%LPC*%
G36*
X205592Y441687D02*
X205592Y441687D01*
X202971Y442773D01*
X200965Y444779D01*
X199879Y447400D01*
X199879Y450236D01*
X200965Y452857D01*
X205491Y457383D01*
X205496Y457391D01*
X205503Y457396D01*
X205601Y457548D01*
X206183Y458953D01*
X208189Y460959D01*
X208945Y461273D01*
X208946Y461273D01*
X210170Y461780D01*
X210810Y462045D01*
X212649Y462045D01*
X212657Y462046D01*
X212665Y462045D01*
X212754Y462066D01*
X212846Y462084D01*
X212852Y462089D01*
X212860Y462091D01*
X213008Y462193D01*
X222337Y471522D01*
X222341Y471529D01*
X222347Y471533D01*
X222396Y471612D01*
X222448Y471689D01*
X222449Y471697D01*
X222453Y471704D01*
X222485Y471881D01*
X222485Y488982D01*
X222484Y488988D01*
X222485Y488994D01*
X222464Y489086D01*
X222446Y489178D01*
X222442Y489183D01*
X222441Y489190D01*
X222386Y489266D01*
X222333Y489344D01*
X222328Y489347D01*
X222324Y489353D01*
X222172Y489450D01*
X220564Y490116D01*
X218844Y491836D01*
X217913Y494084D01*
X217913Y496516D01*
X218844Y498764D01*
X220564Y500484D01*
X221419Y500838D01*
X221420Y500838D01*
X222644Y501345D01*
X222812Y501415D01*
X234896Y501415D01*
X237144Y500484D01*
X238864Y498764D01*
X239795Y496516D01*
X239795Y494084D01*
X238864Y491836D01*
X237144Y490116D01*
X237121Y490107D01*
X235896Y489599D01*
X235028Y489240D01*
X235022Y489236D01*
X235016Y489235D01*
X234939Y489180D01*
X234861Y489128D01*
X234858Y489123D01*
X234853Y489119D01*
X234803Y489039D01*
X234751Y488960D01*
X234750Y488954D01*
X234747Y488948D01*
X234715Y488771D01*
X234715Y467922D01*
X233784Y465674D01*
X231992Y463883D01*
X220393Y452284D01*
X218568Y450458D01*
X218558Y450451D01*
X218481Y450399D01*
X218476Y450393D01*
X218470Y450388D01*
X218372Y450236D01*
X218273Y449997D01*
X211049Y442773D01*
X210210Y442425D01*
X208985Y441918D01*
X208428Y441687D01*
X205592Y441687D01*
G37*
%LPD*%
%LPC*%
G36*
X258477Y87635D02*
X258477Y87635D01*
X256426Y88485D01*
X254855Y90056D01*
X254005Y92107D01*
X254005Y92817D01*
X254004Y92825D01*
X254005Y92832D01*
X253984Y92922D01*
X253966Y93013D01*
X253961Y93020D01*
X253959Y93027D01*
X253857Y93175D01*
X253473Y93559D01*
X253467Y93563D01*
X253462Y93569D01*
X253384Y93618D01*
X253306Y93670D01*
X253299Y93671D01*
X253292Y93675D01*
X253115Y93707D01*
X195285Y93707D01*
X195277Y93706D01*
X195269Y93707D01*
X195179Y93686D01*
X195088Y93668D01*
X195082Y93663D01*
X195074Y93661D01*
X194926Y93559D01*
X194424Y93057D01*
X194117Y92930D01*
X192893Y92423D01*
X192892Y92423D01*
X192373Y92207D01*
X190151Y92207D01*
X188100Y93057D01*
X186529Y94628D01*
X185679Y96679D01*
X185679Y98901D01*
X186529Y100952D01*
X188100Y102523D01*
X188399Y102647D01*
X189624Y103154D01*
X190151Y103373D01*
X192373Y103373D01*
X194424Y102523D01*
X194926Y102021D01*
X194932Y102017D01*
X194937Y102011D01*
X195016Y101962D01*
X195093Y101910D01*
X195101Y101909D01*
X195107Y101905D01*
X195285Y101873D01*
X256707Y101873D01*
X259631Y98949D01*
X259637Y98945D01*
X259642Y98939D01*
X259720Y98890D01*
X259798Y98838D01*
X259805Y98837D01*
X259812Y98833D01*
X259989Y98801D01*
X260699Y98801D01*
X262750Y97951D01*
X264321Y96380D01*
X265171Y94329D01*
X265171Y92107D01*
X264321Y90056D01*
X262750Y88485D01*
X262459Y88365D01*
X261235Y87857D01*
X260699Y87635D01*
X258477Y87635D01*
G37*
%LPD*%
%LPC*%
G36*
X258223Y168661D02*
X258223Y168661D01*
X256172Y169511D01*
X255670Y170013D01*
X255664Y170017D01*
X255659Y170023D01*
X255580Y170072D01*
X255503Y170124D01*
X255495Y170125D01*
X255489Y170129D01*
X255311Y170161D01*
X222845Y170161D01*
X210269Y182737D01*
X210263Y182741D01*
X210258Y182747D01*
X210180Y182796D01*
X210102Y182848D01*
X210095Y182849D01*
X210088Y182853D01*
X209911Y182885D01*
X208439Y182885D01*
X206388Y183735D01*
X204817Y185306D01*
X203967Y187357D01*
X203967Y189579D01*
X204817Y191630D01*
X206388Y193201D01*
X206976Y193445D01*
X208201Y193952D01*
X208439Y194051D01*
X210661Y194051D01*
X212712Y193201D01*
X214283Y191630D01*
X215153Y189529D01*
X215154Y189526D01*
X215172Y189435D01*
X215177Y189428D01*
X215179Y189421D01*
X215281Y189273D01*
X226079Y178475D01*
X226085Y178471D01*
X226090Y178465D01*
X226168Y178416D01*
X226246Y178364D01*
X226253Y178363D01*
X226260Y178359D01*
X226437Y178327D01*
X255311Y178327D01*
X255319Y178328D01*
X255327Y178327D01*
X255417Y178348D01*
X255508Y178366D01*
X255514Y178371D01*
X255522Y178373D01*
X255670Y178475D01*
X256172Y178977D01*
X256811Y179242D01*
X258035Y179749D01*
X258036Y179749D01*
X258223Y179827D01*
X260445Y179827D01*
X262496Y178977D01*
X264067Y177406D01*
X264917Y175355D01*
X264917Y173133D01*
X264067Y171082D01*
X262496Y169511D01*
X261304Y169017D01*
X260445Y168661D01*
X258223Y168661D01*
G37*
%LPD*%
%LPC*%
G36*
X446614Y334953D02*
X446614Y334953D01*
X444562Y335803D01*
X442991Y337374D01*
X442141Y339426D01*
X442141Y341647D01*
X442991Y343698D01*
X443493Y344200D01*
X443497Y344207D01*
X443504Y344211D01*
X443552Y344290D01*
X443604Y344367D01*
X443605Y344375D01*
X443609Y344381D01*
X443641Y344559D01*
X443641Y371467D01*
X443640Y371475D01*
X443641Y371483D01*
X443620Y371573D01*
X443602Y371664D01*
X443597Y371670D01*
X443596Y371678D01*
X443493Y371826D01*
X443069Y372250D01*
X442219Y374301D01*
X442219Y376523D01*
X443069Y378574D01*
X444640Y380145D01*
X445786Y380620D01*
X445787Y380620D01*
X446691Y380995D01*
X448913Y380995D01*
X450964Y380145D01*
X452535Y378574D01*
X453385Y376523D01*
X453385Y374301D01*
X452535Y372250D01*
X451955Y371670D01*
X451951Y371664D01*
X451945Y371659D01*
X451896Y371580D01*
X451844Y371503D01*
X451843Y371496D01*
X451839Y371489D01*
X451807Y371312D01*
X451807Y344559D01*
X451807Y344557D01*
X451807Y344555D01*
X451808Y344550D01*
X451807Y344543D01*
X451828Y344453D01*
X451846Y344362D01*
X451851Y344356D01*
X451853Y344348D01*
X451955Y344200D01*
X452457Y343698D01*
X453307Y341647D01*
X453307Y339426D01*
X452457Y337374D01*
X450886Y335803D01*
X449902Y335395D01*
X448835Y334953D01*
X446614Y334953D01*
G37*
%LPD*%
%LPC*%
G36*
X183988Y459273D02*
X183988Y459273D01*
X181198Y460429D01*
X179063Y462564D01*
X177907Y465354D01*
X177907Y479454D01*
X179063Y482244D01*
X181198Y484379D01*
X181746Y484606D01*
X182971Y485113D01*
X183988Y485535D01*
X187008Y485535D01*
X189798Y484379D01*
X191933Y482244D01*
X193089Y479454D01*
X193089Y465354D01*
X191933Y462564D01*
X189798Y460429D01*
X189194Y460179D01*
X187970Y459672D01*
X187008Y459273D01*
X183988Y459273D01*
G37*
%LPD*%
%LPC*%
G36*
X270388Y459273D02*
X270388Y459273D01*
X267598Y460429D01*
X265463Y462564D01*
X264307Y465354D01*
X264307Y479454D01*
X265463Y482244D01*
X267598Y484379D01*
X268146Y484606D01*
X269371Y485113D01*
X270388Y485535D01*
X273408Y485535D01*
X276198Y484379D01*
X278333Y482244D01*
X279489Y479454D01*
X279489Y465354D01*
X278333Y462564D01*
X276198Y460429D01*
X275594Y460179D01*
X274370Y459672D01*
X273408Y459273D01*
X270388Y459273D01*
G37*
%LPD*%
%LPC*%
G36*
X392030Y424923D02*
X392030Y424923D01*
X388476Y426396D01*
X385756Y429116D01*
X384283Y432670D01*
X384283Y436518D01*
X385756Y440072D01*
X388476Y442792D01*
X389005Y443012D01*
X390230Y443519D01*
X391454Y444026D01*
X392030Y444265D01*
X395878Y444265D01*
X399432Y442792D01*
X402152Y440072D01*
X403625Y436518D01*
X403625Y432670D01*
X402152Y429116D01*
X399432Y426396D01*
X398943Y426193D01*
X397719Y425686D01*
X396494Y425179D01*
X395878Y424923D01*
X392030Y424923D01*
G37*
%LPD*%
%LPC*%
G36*
X534286Y178787D02*
X534286Y178787D01*
X530761Y180247D01*
X528063Y182945D01*
X526603Y186470D01*
X526603Y190286D01*
X528063Y193811D01*
X530761Y196509D01*
X531936Y196995D01*
X533161Y197503D01*
X534286Y197969D01*
X538102Y197969D01*
X541627Y196509D01*
X544325Y193811D01*
X545785Y190286D01*
X545785Y186470D01*
X544325Y182945D01*
X541627Y180247D01*
X541457Y180177D01*
X540232Y179670D01*
X539007Y179162D01*
X538102Y178787D01*
X534286Y178787D01*
G37*
%LPD*%
%LPC*%
G36*
X585086Y178787D02*
X585086Y178787D01*
X581561Y180247D01*
X578863Y182945D01*
X577403Y186470D01*
X577403Y190286D01*
X578863Y193811D01*
X581561Y196509D01*
X582736Y196995D01*
X583961Y197503D01*
X585086Y197969D01*
X588902Y197969D01*
X592427Y196509D01*
X595125Y193811D01*
X596585Y190286D01*
X596585Y186470D01*
X595125Y182945D01*
X592427Y180247D01*
X592257Y180177D01*
X591032Y179670D01*
X589807Y179162D01*
X588902Y178787D01*
X585086Y178787D01*
G37*
%LPD*%
%LPC*%
G36*
X409572Y33589D02*
X409572Y33589D01*
X406047Y35049D01*
X403349Y37747D01*
X401889Y41272D01*
X401889Y45088D01*
X403349Y48613D01*
X406047Y51311D01*
X406298Y51415D01*
X407523Y51922D01*
X408747Y52429D01*
X408748Y52429D01*
X409572Y52771D01*
X413388Y52771D01*
X416913Y51311D01*
X419611Y48613D01*
X421071Y45088D01*
X421071Y41272D01*
X419611Y37747D01*
X416913Y35049D01*
X415819Y34596D01*
X415818Y34596D01*
X414594Y34089D01*
X413388Y33589D01*
X409572Y33589D01*
G37*
%LPD*%
%LPC*%
G36*
X514474Y479359D02*
X514474Y479359D01*
X510949Y480819D01*
X508251Y483517D01*
X506791Y487042D01*
X506791Y490858D01*
X508251Y494383D01*
X510949Y497081D01*
X511448Y497287D01*
X512673Y497795D01*
X513897Y498302D01*
X513898Y498302D01*
X514474Y498541D01*
X518290Y498541D01*
X521815Y497081D01*
X524513Y494383D01*
X525973Y490858D01*
X525973Y487042D01*
X524513Y483517D01*
X521815Y480819D01*
X520969Y480469D01*
X520968Y480469D01*
X519744Y479962D01*
X518519Y479454D01*
X518290Y479359D01*
X514474Y479359D01*
G37*
%LPD*%
%LPC*%
G36*
X539874Y479359D02*
X539874Y479359D01*
X536349Y480819D01*
X533651Y483517D01*
X532191Y487042D01*
X532191Y490858D01*
X533651Y494383D01*
X536349Y497081D01*
X536848Y497287D01*
X538073Y497795D01*
X539297Y498302D01*
X539298Y498302D01*
X539874Y498541D01*
X543690Y498541D01*
X547215Y497081D01*
X549913Y494383D01*
X551373Y490858D01*
X551373Y487042D01*
X549913Y483517D01*
X547215Y480819D01*
X546369Y480469D01*
X546368Y480469D01*
X545144Y479962D01*
X543919Y479454D01*
X543690Y479359D01*
X539874Y479359D01*
G37*
%LPD*%
%LPC*%
G36*
X489074Y479359D02*
X489074Y479359D01*
X485549Y480819D01*
X482851Y483517D01*
X481391Y487042D01*
X481391Y490858D01*
X482851Y494383D01*
X485549Y497081D01*
X486048Y497287D01*
X487273Y497795D01*
X488497Y498302D01*
X488498Y498302D01*
X489074Y498541D01*
X492890Y498541D01*
X496415Y497081D01*
X499113Y494383D01*
X500573Y490858D01*
X500573Y487042D01*
X499113Y483517D01*
X496415Y480819D01*
X495569Y480469D01*
X495568Y480469D01*
X494344Y479962D01*
X493119Y479454D01*
X492890Y479359D01*
X489074Y479359D01*
G37*
%LPD*%
%LPC*%
G36*
X20444Y79055D02*
X20444Y79055D01*
X16919Y80515D01*
X14221Y83213D01*
X12761Y86738D01*
X12761Y90554D01*
X14221Y94079D01*
X16919Y96777D01*
X17620Y97067D01*
X17621Y97067D01*
X18845Y97574D01*
X20070Y98082D01*
X20444Y98237D01*
X24260Y98237D01*
X27785Y96777D01*
X30483Y94079D01*
X31943Y90554D01*
X31943Y86738D01*
X30483Y83213D01*
X27785Y80515D01*
X27141Y80249D01*
X25916Y79741D01*
X24692Y79234D01*
X24691Y79234D01*
X24260Y79055D01*
X20444Y79055D01*
G37*
%LPD*%
%LPC*%
G36*
X20444Y53655D02*
X20444Y53655D01*
X16919Y55115D01*
X14221Y57813D01*
X12761Y61338D01*
X12761Y65154D01*
X14221Y68679D01*
X16919Y71377D01*
X17711Y71705D01*
X18936Y72212D01*
X20160Y72719D01*
X20444Y72837D01*
X24260Y72837D01*
X27785Y71377D01*
X30483Y68679D01*
X31943Y65154D01*
X31943Y61338D01*
X30483Y57813D01*
X27785Y55115D01*
X27231Y54886D01*
X26007Y54379D01*
X24782Y53872D01*
X24260Y53655D01*
X20444Y53655D01*
G37*
%LPD*%
%LPC*%
G36*
X580592Y279060D02*
X580592Y279060D01*
X577067Y280520D01*
X574369Y283218D01*
X572909Y286743D01*
X572909Y290558D01*
X574369Y294083D01*
X577067Y296781D01*
X577411Y296924D01*
X578635Y297431D01*
X578636Y297431D01*
X579860Y297938D01*
X580592Y298241D01*
X584408Y298241D01*
X587933Y296781D01*
X590631Y294083D01*
X592091Y290558D01*
X592091Y286743D01*
X590631Y283218D01*
X587933Y280520D01*
X586931Y280105D01*
X585707Y279598D01*
X585706Y279598D01*
X584482Y279091D01*
X584408Y279060D01*
X580592Y279060D01*
G37*
%LPD*%
%LPC*%
G36*
X114369Y187751D02*
X114369Y187751D01*
X111212Y189059D01*
X108795Y191476D01*
X107487Y194633D01*
X107487Y198051D01*
X108795Y201208D01*
X111212Y203625D01*
X112351Y204097D01*
X113576Y204604D01*
X114369Y204933D01*
X117787Y204933D01*
X120944Y203625D01*
X123361Y201208D01*
X124669Y198051D01*
X124669Y194633D01*
X123361Y191476D01*
X120944Y189059D01*
X120319Y188800D01*
X119094Y188293D01*
X117870Y187786D01*
X117787Y187751D01*
X114369Y187751D01*
G37*
%LPD*%
%LPC*%
G36*
X63569Y187751D02*
X63569Y187751D01*
X60412Y189059D01*
X57995Y191476D01*
X56687Y194633D01*
X56687Y198051D01*
X57995Y201208D01*
X60412Y203625D01*
X61551Y204097D01*
X62776Y204604D01*
X63569Y204933D01*
X66987Y204933D01*
X70144Y203625D01*
X72561Y201208D01*
X73869Y198051D01*
X73869Y194633D01*
X72561Y191476D01*
X70144Y189059D01*
X69519Y188800D01*
X68294Y188293D01*
X67070Y187786D01*
X66987Y187751D01*
X63569Y187751D01*
G37*
%LPD*%
%LPC*%
G36*
X88969Y187751D02*
X88969Y187751D01*
X85812Y189059D01*
X83395Y191476D01*
X82087Y194633D01*
X82087Y198051D01*
X83395Y201208D01*
X85812Y203625D01*
X86951Y204097D01*
X88176Y204604D01*
X88969Y204933D01*
X92387Y204933D01*
X95544Y203625D01*
X97961Y201208D01*
X99269Y198051D01*
X99269Y194633D01*
X97961Y191476D01*
X95544Y189059D01*
X94919Y188800D01*
X93694Y188293D01*
X92470Y187786D01*
X92387Y187751D01*
X88969Y187751D01*
G37*
%LPD*%
%LPC*%
G36*
X341191Y116530D02*
X341191Y116530D01*
X338034Y117838D01*
X335617Y120255D01*
X334309Y123412D01*
X334309Y126830D01*
X335617Y129987D01*
X338034Y132404D01*
X338446Y132575D01*
X339670Y133082D01*
X340895Y133589D01*
X341191Y133712D01*
X344609Y133712D01*
X347766Y132404D01*
X350183Y129987D01*
X351491Y126830D01*
X351491Y123412D01*
X350183Y120255D01*
X347766Y117838D01*
X347638Y117785D01*
X346414Y117278D01*
X345189Y116771D01*
X344609Y116530D01*
X341191Y116530D01*
G37*
%LPD*%
%LPC*%
G36*
X452951Y116530D02*
X452951Y116530D01*
X449794Y117838D01*
X447377Y120255D01*
X446069Y123412D01*
X446069Y126830D01*
X447377Y129987D01*
X449794Y132404D01*
X450206Y132575D01*
X451430Y133082D01*
X452655Y133589D01*
X452951Y133712D01*
X456369Y133712D01*
X459526Y132404D01*
X461943Y129987D01*
X463251Y126830D01*
X463251Y123412D01*
X461943Y120255D01*
X459526Y117838D01*
X459398Y117785D01*
X458174Y117278D01*
X456949Y116771D01*
X456369Y116530D01*
X452951Y116530D01*
G37*
%LPD*%
%LPC*%
G36*
X353891Y94533D02*
X353891Y94533D01*
X350734Y95841D01*
X348317Y98258D01*
X347009Y101415D01*
X347009Y104833D01*
X348317Y107990D01*
X350734Y110407D01*
X351593Y110763D01*
X352818Y111270D01*
X353891Y111715D01*
X357309Y111715D01*
X360466Y110407D01*
X362883Y107990D01*
X364191Y104833D01*
X364191Y101415D01*
X362883Y98258D01*
X360466Y95841D01*
X359561Y95466D01*
X358336Y94959D01*
X357309Y94533D01*
X353891Y94533D01*
G37*
%LPD*%
%LPC*%
G36*
X397071Y123489D02*
X397071Y123489D01*
X393914Y124797D01*
X391497Y127214D01*
X390189Y130371D01*
X390189Y133789D01*
X391497Y136946D01*
X393914Y139363D01*
X394670Y139676D01*
X395894Y140183D01*
X395895Y140183D01*
X397071Y140671D01*
X400489Y140671D01*
X403646Y139363D01*
X406063Y136946D01*
X407371Y133789D01*
X407371Y130371D01*
X406063Y127214D01*
X403646Y124797D01*
X402638Y124379D01*
X401413Y123872D01*
X400489Y123489D01*
X397071Y123489D01*
G37*
%LPD*%
%LPC*%
G36*
X366591Y72536D02*
X366591Y72536D01*
X363434Y73844D01*
X361017Y76261D01*
X359709Y79418D01*
X359709Y82836D01*
X361017Y85993D01*
X363434Y88410D01*
X363516Y88444D01*
X364740Y88951D01*
X364741Y88951D01*
X365965Y89458D01*
X366591Y89718D01*
X370009Y89718D01*
X373166Y88410D01*
X375583Y85993D01*
X376891Y82836D01*
X376891Y79418D01*
X375583Y76261D01*
X373166Y73844D01*
X372708Y73654D01*
X371484Y73147D01*
X370259Y72640D01*
X370009Y72536D01*
X366591Y72536D01*
G37*
%LPD*%
%LPC*%
G36*
X397071Y98089D02*
X397071Y98089D01*
X393914Y99397D01*
X391497Y101814D01*
X390189Y104971D01*
X390189Y108389D01*
X391497Y111546D01*
X393914Y113963D01*
X394760Y114314D01*
X394761Y114314D01*
X395985Y114821D01*
X397071Y115271D01*
X400489Y115271D01*
X403646Y113963D01*
X406063Y111546D01*
X407371Y108389D01*
X407371Y104971D01*
X406063Y101814D01*
X403646Y99397D01*
X402728Y99017D01*
X401504Y98510D01*
X400489Y98089D01*
X397071Y98089D01*
G37*
%LPD*%
%LPC*%
G36*
X397071Y72689D02*
X397071Y72689D01*
X393914Y73997D01*
X391497Y76414D01*
X390189Y79571D01*
X390189Y82989D01*
X391497Y86146D01*
X393914Y88563D01*
X394851Y88951D01*
X396076Y89458D01*
X397071Y89871D01*
X400489Y89871D01*
X403646Y88563D01*
X406063Y86146D01*
X407371Y82989D01*
X407371Y79571D01*
X406063Y76414D01*
X403646Y73997D01*
X402819Y73654D01*
X401594Y73147D01*
X400489Y72689D01*
X397071Y72689D01*
G37*
%LPD*%
%LPC*%
G36*
X214191Y107487D02*
X214191Y107487D01*
X211034Y108795D01*
X208617Y111212D01*
X207309Y114369D01*
X207309Y117787D01*
X208617Y120944D01*
X211034Y123361D01*
X211235Y123444D01*
X212459Y123951D01*
X213684Y124459D01*
X214191Y124669D01*
X217609Y124669D01*
X220766Y123361D01*
X223183Y120944D01*
X224491Y117787D01*
X224491Y114369D01*
X223183Y111212D01*
X220766Y108795D01*
X220427Y108655D01*
X219203Y108147D01*
X219202Y108147D01*
X217978Y107640D01*
X217609Y107487D01*
X214191Y107487D01*
G37*
%LPD*%
%LPC*%
G36*
X163391Y107487D02*
X163391Y107487D01*
X160234Y108795D01*
X157817Y111212D01*
X156509Y114369D01*
X156509Y117787D01*
X157817Y120944D01*
X160234Y123361D01*
X160435Y123444D01*
X161659Y123951D01*
X162884Y124459D01*
X163391Y124669D01*
X166809Y124669D01*
X169966Y123361D01*
X172383Y120944D01*
X173691Y117787D01*
X173691Y114369D01*
X172383Y111212D01*
X169966Y108795D01*
X169627Y108655D01*
X168403Y108147D01*
X168402Y108147D01*
X167178Y107640D01*
X166809Y107487D01*
X163391Y107487D01*
G37*
%LPD*%
%LPC*%
G36*
X188791Y107487D02*
X188791Y107487D01*
X185634Y108795D01*
X183217Y111212D01*
X181909Y114369D01*
X181909Y117787D01*
X183217Y120944D01*
X185634Y123361D01*
X185835Y123444D01*
X187059Y123951D01*
X188284Y124459D01*
X188791Y124669D01*
X192209Y124669D01*
X195366Y123361D01*
X197783Y120944D01*
X199091Y117787D01*
X199091Y114369D01*
X197783Y111212D01*
X195366Y108795D01*
X195027Y108655D01*
X193803Y108147D01*
X193802Y108147D01*
X192578Y107640D01*
X192209Y107487D01*
X188791Y107487D01*
G37*
%LPD*%
%LPC*%
G36*
X21255Y434679D02*
X21255Y434679D01*
X18189Y435949D01*
X15843Y438295D01*
X14573Y441361D01*
X14573Y444679D01*
X15843Y447745D01*
X18189Y450091D01*
X21255Y451361D01*
X24573Y451361D01*
X27639Y450091D01*
X29985Y447745D01*
X31255Y444679D01*
X31255Y441361D01*
X29985Y438295D01*
X27639Y435949D01*
X24573Y434679D01*
X21255Y434679D01*
G37*
%LPD*%
%LPC*%
G36*
X21255Y454679D02*
X21255Y454679D01*
X18189Y455949D01*
X15843Y458295D01*
X14573Y461361D01*
X14573Y464679D01*
X15843Y467745D01*
X18189Y470091D01*
X21255Y471361D01*
X24573Y471361D01*
X27639Y470091D01*
X29985Y467745D01*
X31255Y464679D01*
X31255Y461361D01*
X29985Y458295D01*
X27639Y455949D01*
X24573Y454679D01*
X21255Y454679D01*
G37*
%LPD*%
%LPC*%
G36*
X21255Y394679D02*
X21255Y394679D01*
X18189Y395949D01*
X15843Y398295D01*
X14573Y401361D01*
X14573Y404679D01*
X15843Y407745D01*
X18189Y410091D01*
X21255Y411361D01*
X24573Y411361D01*
X27639Y410091D01*
X29985Y407745D01*
X31255Y404679D01*
X31255Y401361D01*
X29985Y398295D01*
X27639Y395949D01*
X24573Y394679D01*
X21255Y394679D01*
G37*
%LPD*%
%LPC*%
G36*
X191635Y167427D02*
X191635Y167427D01*
X188569Y168697D01*
X186223Y171043D01*
X184953Y174109D01*
X184953Y177427D01*
X186223Y180493D01*
X188569Y182839D01*
X189681Y183300D01*
X189682Y183300D01*
X190906Y183807D01*
X191635Y184109D01*
X194953Y184109D01*
X198019Y182839D01*
X200365Y180493D01*
X201635Y177427D01*
X201635Y174109D01*
X200365Y171043D01*
X198019Y168697D01*
X197567Y168510D01*
X196343Y168003D01*
X195118Y167496D01*
X194953Y167427D01*
X191635Y167427D01*
G37*
%LPD*%
%LPC*%
G36*
X191635Y218227D02*
X191635Y218227D01*
X188569Y219497D01*
X186223Y221843D01*
X184953Y224909D01*
X184953Y228227D01*
X186223Y231293D01*
X188569Y233639D01*
X189500Y234025D01*
X189501Y234025D01*
X190725Y234532D01*
X191635Y234909D01*
X194953Y234909D01*
X198019Y233639D01*
X200365Y231293D01*
X201635Y228227D01*
X201635Y224909D01*
X200365Y221843D01*
X198019Y219497D01*
X197386Y219235D01*
X196162Y218728D01*
X194953Y218227D01*
X191635Y218227D01*
G37*
%LPD*%
%LPC*%
G36*
X562404Y478819D02*
X562404Y478819D01*
X561115Y480108D01*
X561115Y487632D01*
X562404Y488921D01*
X579428Y488921D01*
X580717Y487632D01*
X580717Y480108D01*
X579428Y478819D01*
X562404Y478819D01*
G37*
%LPD*%
%LPC*%
G36*
X621284Y417455D02*
X621284Y417455D01*
X618439Y418634D01*
X616262Y420811D01*
X615083Y423656D01*
X615083Y426736D01*
X616262Y429581D01*
X618439Y431758D01*
X618666Y431852D01*
X619890Y432359D01*
X621115Y432867D01*
X621284Y432937D01*
X624364Y432937D01*
X627209Y431758D01*
X629386Y429581D01*
X630565Y426736D01*
X630565Y423656D01*
X629386Y420811D01*
X627209Y418634D01*
X627090Y418584D01*
X625865Y418077D01*
X624641Y417570D01*
X624640Y417570D01*
X624364Y417455D01*
X621284Y417455D01*
G37*
%LPD*%
%LPC*%
G36*
X572484Y417455D02*
X572484Y417455D01*
X569639Y418634D01*
X567462Y420811D01*
X566283Y423656D01*
X566283Y426736D01*
X567462Y429581D01*
X569639Y431758D01*
X569866Y431852D01*
X571090Y432359D01*
X572315Y432867D01*
X572484Y432937D01*
X575564Y432937D01*
X578409Y431758D01*
X580586Y429581D01*
X581765Y426736D01*
X581765Y423656D01*
X580586Y420811D01*
X578409Y418634D01*
X578290Y418584D01*
X577065Y418077D01*
X575841Y417570D01*
X575840Y417570D01*
X575564Y417455D01*
X572484Y417455D01*
G37*
%LPD*%
%LPC*%
G36*
X97297Y78947D02*
X97297Y78947D01*
X97297Y90449D01*
X108799Y90449D01*
X108799Y78947D01*
X97297Y78947D01*
G37*
%LPD*%
%LPC*%
G36*
X97297Y91947D02*
X97297Y91947D01*
X97297Y103449D01*
X108799Y103449D01*
X108799Y91947D01*
X97297Y91947D01*
G37*
%LPD*%
%LPC*%
G36*
X97297Y104947D02*
X97297Y104947D01*
X97297Y116449D01*
X108799Y116449D01*
X108799Y104947D01*
X97297Y104947D01*
G37*
%LPD*%
%LPC*%
G36*
X445769Y435609D02*
X445769Y435609D01*
X445769Y444721D01*
X447133Y444505D01*
X448654Y444010D01*
X450079Y443284D01*
X451373Y442344D01*
X452504Y441213D01*
X453444Y439919D01*
X454170Y438494D01*
X454665Y436973D01*
X454881Y435609D01*
X445769Y435609D01*
G37*
%LPD*%
%LPC*%
G36*
X434627Y435609D02*
X434627Y435609D01*
X434843Y436973D01*
X435338Y438494D01*
X436064Y439919D01*
X437004Y441213D01*
X438135Y442344D01*
X439429Y443284D01*
X440854Y444010D01*
X442375Y444505D01*
X443739Y444721D01*
X443739Y435609D01*
X434627Y435609D01*
G37*
%LPD*%
%LPC*%
G36*
X445769Y433579D02*
X445769Y433579D01*
X454881Y433579D01*
X454665Y432215D01*
X454170Y430694D01*
X453444Y429269D01*
X452504Y427975D01*
X451373Y426844D01*
X450079Y425904D01*
X448654Y425178D01*
X447133Y424683D01*
X445769Y424467D01*
X445769Y433579D01*
G37*
%LPD*%
%LPC*%
G36*
X442375Y424683D02*
X442375Y424683D01*
X440854Y425178D01*
X439429Y425904D01*
X438135Y426844D01*
X437004Y427975D01*
X436064Y429269D01*
X435338Y430694D01*
X434843Y432215D01*
X434627Y433579D01*
X443739Y433579D01*
X443739Y424467D01*
X442375Y424683D01*
G37*
%LPD*%
%LPC*%
G36*
X558887Y245721D02*
X558887Y245721D01*
X563394Y253528D01*
X564067Y253039D01*
X565189Y251916D01*
X566122Y250633D01*
X566842Y249219D01*
X567333Y247710D01*
X567581Y246143D01*
X567581Y244556D01*
X567333Y242989D01*
X566842Y241480D01*
X566704Y241208D01*
X558887Y245721D01*
G37*
%LPD*%
%LPC*%
G36*
X549322Y251243D02*
X549322Y251243D01*
X549811Y251916D01*
X550933Y253039D01*
X552217Y253971D01*
X553630Y254691D01*
X555140Y255182D01*
X556707Y255430D01*
X558293Y255430D01*
X559860Y255182D01*
X561370Y254691D01*
X561641Y254553D01*
X557128Y246736D01*
X549322Y251243D01*
G37*
%LPD*%
%LPC*%
G36*
X550933Y237660D02*
X550933Y237660D01*
X549811Y238782D01*
X548878Y240066D01*
X548158Y241480D01*
X547667Y242989D01*
X547419Y244556D01*
X547419Y246143D01*
X547667Y247710D01*
X548158Y249219D01*
X548296Y249491D01*
X556113Y244978D01*
X551606Y237171D01*
X550933Y237660D01*
G37*
%LPD*%
%LPC*%
G36*
X556707Y235269D02*
X556707Y235269D01*
X555140Y235517D01*
X553630Y236007D01*
X553359Y236146D01*
X557872Y243962D01*
X565678Y239455D01*
X565189Y238782D01*
X564067Y237660D01*
X562783Y236728D01*
X561370Y236007D01*
X559860Y235517D01*
X558293Y235269D01*
X556707Y235269D01*
G37*
%LPD*%
%LPC*%
G36*
X466597Y489965D02*
X466597Y489965D01*
X466597Y498996D01*
X467942Y498783D01*
X469452Y498292D01*
X470865Y497572D01*
X472149Y496639D01*
X473271Y495517D01*
X474204Y494233D01*
X474924Y492820D01*
X475415Y491310D01*
X475628Y489965D01*
X466597Y489965D01*
G37*
%LPD*%
%LPC*%
G36*
X562609Y189393D02*
X562609Y189393D01*
X562609Y198424D01*
X563954Y198211D01*
X565464Y197720D01*
X566877Y197000D01*
X568161Y196067D01*
X569283Y194945D01*
X570216Y193661D01*
X570936Y192248D01*
X571427Y190738D01*
X571640Y189393D01*
X562609Y189393D01*
G37*
%LPD*%
%LPC*%
G36*
X437895Y44195D02*
X437895Y44195D01*
X437895Y53226D01*
X439240Y53013D01*
X440750Y52522D01*
X442163Y51802D01*
X443447Y50869D01*
X444569Y49747D01*
X445502Y48463D01*
X446222Y47050D01*
X446713Y45540D01*
X446926Y44195D01*
X437895Y44195D01*
G37*
%LPD*%
%LPC*%
G36*
X437895Y42165D02*
X437895Y42165D01*
X446926Y42165D01*
X446713Y40820D01*
X446222Y39310D01*
X445502Y37897D01*
X444569Y36613D01*
X443447Y35491D01*
X442163Y34558D01*
X440750Y33838D01*
X439240Y33347D01*
X437895Y33134D01*
X437895Y42165D01*
G37*
%LPD*%
%LPC*%
G36*
X455536Y489965D02*
X455536Y489965D01*
X455749Y491310D01*
X456240Y492820D01*
X456960Y494233D01*
X457893Y495517D01*
X459015Y496639D01*
X460299Y497572D01*
X461712Y498292D01*
X463222Y498783D01*
X464567Y498996D01*
X464567Y489965D01*
X455536Y489965D01*
G37*
%LPD*%
%LPC*%
G36*
X466597Y487935D02*
X466597Y487935D01*
X475628Y487935D01*
X475415Y486590D01*
X474924Y485080D01*
X474204Y483667D01*
X473271Y482383D01*
X472149Y481261D01*
X470865Y480328D01*
X469452Y479608D01*
X467942Y479117D01*
X466597Y478904D01*
X466597Y487935D01*
G37*
%LPD*%
%LPC*%
G36*
X551548Y189393D02*
X551548Y189393D01*
X551761Y190738D01*
X552252Y192248D01*
X552972Y193661D01*
X553905Y194945D01*
X555027Y196067D01*
X556311Y197000D01*
X557724Y197720D01*
X559234Y198211D01*
X560579Y198424D01*
X560579Y189393D01*
X551548Y189393D01*
G37*
%LPD*%
%LPC*%
G36*
X426834Y44195D02*
X426834Y44195D01*
X427047Y45540D01*
X427538Y47050D01*
X428258Y48463D01*
X429191Y49747D01*
X430313Y50869D01*
X431597Y51802D01*
X433010Y52522D01*
X434520Y53013D01*
X435865Y53226D01*
X435865Y44195D01*
X426834Y44195D01*
G37*
%LPD*%
%LPC*%
G36*
X562609Y187363D02*
X562609Y187363D01*
X571640Y187363D01*
X571427Y186018D01*
X570936Y184508D01*
X570216Y183095D01*
X569283Y181811D01*
X568161Y180689D01*
X566877Y179756D01*
X565464Y179036D01*
X563954Y178545D01*
X562609Y178332D01*
X562609Y187363D01*
G37*
%LPD*%
%LPC*%
G36*
X559234Y178545D02*
X559234Y178545D01*
X557724Y179036D01*
X556311Y179756D01*
X555027Y180689D01*
X553905Y181811D01*
X552972Y183095D01*
X552252Y184508D01*
X551761Y186018D01*
X551548Y187363D01*
X560579Y187363D01*
X560579Y178332D01*
X559234Y178545D01*
G37*
%LPD*%
%LPC*%
G36*
X463222Y479117D02*
X463222Y479117D01*
X461712Y479608D01*
X460299Y480328D01*
X459015Y481261D01*
X457893Y482383D01*
X456960Y483667D01*
X456240Y485080D01*
X455749Y486590D01*
X455536Y487935D01*
X464567Y487935D01*
X464567Y478904D01*
X463222Y479117D01*
G37*
%LPD*%
%LPC*%
G36*
X434520Y33347D02*
X434520Y33347D01*
X433010Y33838D01*
X431597Y34558D01*
X430313Y35491D01*
X429191Y36613D01*
X428258Y37897D01*
X427538Y39310D01*
X427047Y40820D01*
X426834Y42165D01*
X435865Y42165D01*
X435865Y33134D01*
X434520Y33347D01*
G37*
%LPD*%
%LPC*%
G36*
X278161Y330807D02*
X278161Y330807D01*
X281079Y338823D01*
X281398Y338690D01*
X282967Y337642D01*
X284302Y336307D01*
X285350Y334738D01*
X286073Y332995D01*
X286441Y331144D01*
X286441Y329256D01*
X286169Y327892D01*
X278161Y330807D01*
G37*
%LPD*%
%LPC*%
G36*
X278161Y178407D02*
X278161Y178407D01*
X281079Y186423D01*
X281398Y186290D01*
X282967Y185242D01*
X284302Y183907D01*
X285350Y182338D01*
X286073Y180595D01*
X286441Y178744D01*
X286441Y176856D01*
X286169Y175492D01*
X278161Y178407D01*
G37*
%LPD*%
%LPC*%
G36*
X278161Y381607D02*
X278161Y381607D01*
X281079Y389623D01*
X281398Y389490D01*
X282967Y388442D01*
X284302Y387107D01*
X285350Y385538D01*
X286073Y383795D01*
X286441Y381944D01*
X286441Y380056D01*
X286169Y378692D01*
X278161Y381607D01*
G37*
%LPD*%
%LPC*%
G36*
X278161Y254607D02*
X278161Y254607D01*
X281079Y262623D01*
X281398Y262490D01*
X282967Y261442D01*
X284302Y260107D01*
X285350Y258538D01*
X286073Y256795D01*
X286441Y254944D01*
X286441Y253056D01*
X286169Y251692D01*
X278161Y254607D01*
G37*
%LPD*%
%LPC*%
G36*
X268237Y334419D02*
X268237Y334419D01*
X268370Y334738D01*
X269418Y336307D01*
X270753Y337642D01*
X272322Y338690D01*
X273130Y339025D01*
X273131Y339025D01*
X274065Y339413D01*
X275916Y339781D01*
X277804Y339781D01*
X279168Y339509D01*
X276253Y331501D01*
X268237Y334419D01*
G37*
%LPD*%
%LPC*%
G36*
X268237Y385219D02*
X268237Y385219D01*
X268370Y385538D01*
X269418Y387107D01*
X270753Y388442D01*
X272322Y389490D01*
X272949Y389750D01*
X272950Y389750D01*
X274065Y390213D01*
X275916Y390581D01*
X277804Y390581D01*
X279168Y390309D01*
X276253Y382301D01*
X268237Y385219D01*
G37*
%LPD*%
%LPC*%
G36*
X268237Y182019D02*
X268237Y182019D01*
X268370Y182338D01*
X269418Y183907D01*
X270753Y185242D01*
X272322Y186290D01*
X272449Y186343D01*
X273674Y186850D01*
X274065Y187013D01*
X275916Y187381D01*
X277804Y187381D01*
X279168Y187109D01*
X276253Y179101D01*
X268237Y182019D01*
G37*
%LPD*%
%LPC*%
G36*
X268237Y258219D02*
X268237Y258219D01*
X268370Y258538D01*
X269418Y260107D01*
X270753Y261442D01*
X272322Y262490D01*
X273402Y262938D01*
X274065Y263213D01*
X275916Y263581D01*
X277804Y263581D01*
X279168Y263309D01*
X276253Y255301D01*
X268237Y258219D01*
G37*
%LPD*%
%LPC*%
G36*
X275916Y168219D02*
X275916Y168219D01*
X274552Y168491D01*
X277467Y176499D01*
X285483Y173581D01*
X285350Y173262D01*
X284302Y171693D01*
X282967Y170358D01*
X281398Y169310D01*
X280693Y169017D01*
X280692Y169017D01*
X279655Y168587D01*
X277804Y168219D01*
X275916Y168219D01*
G37*
%LPD*%
%LPC*%
G36*
X275916Y371419D02*
X275916Y371419D01*
X274552Y371691D01*
X277467Y379699D01*
X285483Y376781D01*
X285350Y376462D01*
X284302Y374893D01*
X282967Y373558D01*
X281398Y372510D01*
X281193Y372425D01*
X279968Y371917D01*
X279655Y371787D01*
X277804Y371419D01*
X275916Y371419D01*
G37*
%LPD*%
%LPC*%
G36*
X275916Y320619D02*
X275916Y320619D01*
X274552Y320891D01*
X277467Y328899D01*
X285483Y325981D01*
X285350Y325662D01*
X284302Y324093D01*
X282967Y322758D01*
X281398Y321710D01*
X281374Y321700D01*
X280149Y321192D01*
X279655Y320987D01*
X277804Y320619D01*
X275916Y320619D01*
G37*
%LPD*%
%LPC*%
G36*
X275916Y244419D02*
X275916Y244419D01*
X274552Y244691D01*
X277467Y252699D01*
X285483Y249781D01*
X285350Y249462D01*
X284302Y247893D01*
X282967Y246558D01*
X281398Y245510D01*
X280421Y245105D01*
X279655Y244787D01*
X277804Y244419D01*
X275916Y244419D01*
G37*
%LPD*%
%LPC*%
G36*
X272322Y321710D02*
X272322Y321710D01*
X270753Y322758D01*
X269418Y324093D01*
X268370Y325662D01*
X267647Y327405D01*
X267279Y329256D01*
X267279Y331144D01*
X267551Y332508D01*
X275559Y329593D01*
X272641Y321577D01*
X272322Y321710D01*
G37*
%LPD*%
%LPC*%
G36*
X272322Y169310D02*
X272322Y169310D01*
X270753Y170358D01*
X269418Y171693D01*
X268370Y173262D01*
X267647Y175005D01*
X267279Y176856D01*
X267279Y178744D01*
X267551Y180108D01*
X275559Y177193D01*
X272641Y169177D01*
X272322Y169310D01*
G37*
%LPD*%
%LPC*%
G36*
X272322Y245510D02*
X272322Y245510D01*
X270753Y246558D01*
X269418Y247893D01*
X268370Y249462D01*
X267647Y251205D01*
X267279Y253056D01*
X267279Y254944D01*
X267551Y256308D01*
X275559Y253393D01*
X272641Y245377D01*
X272322Y245510D01*
G37*
%LPD*%
%LPC*%
G36*
X272322Y372510D02*
X272322Y372510D01*
X270753Y373558D01*
X269418Y374893D01*
X268370Y376462D01*
X267647Y378205D01*
X267279Y380056D01*
X267279Y381944D01*
X267551Y383308D01*
X275559Y380393D01*
X272641Y372377D01*
X272322Y372510D01*
G37*
%LPD*%
%LPC*%
G36*
X328675Y331215D02*
X328675Y331215D01*
X328675Y339767D01*
X330455Y339413D01*
X332198Y338690D01*
X333767Y337642D01*
X335102Y336307D01*
X336150Y334738D01*
X336873Y332995D01*
X337227Y331215D01*
X328675Y331215D01*
G37*
%LPD*%
%LPC*%
G36*
X328675Y329185D02*
X328675Y329185D01*
X337226Y329185D01*
X336873Y327405D01*
X336150Y325662D01*
X335102Y324093D01*
X333767Y322758D01*
X332198Y321710D01*
X332174Y321700D01*
X330949Y321192D01*
X330455Y320987D01*
X328675Y320633D01*
X328675Y329185D01*
G37*
%LPD*%
%LPC*%
G36*
X318093Y331215D02*
X318093Y331215D01*
X318447Y332995D01*
X319170Y334738D01*
X320218Y336307D01*
X321553Y337642D01*
X323122Y338690D01*
X323930Y339025D01*
X323931Y339025D01*
X324865Y339413D01*
X326645Y339766D01*
X326645Y331215D01*
X318093Y331215D01*
G37*
%LPD*%
%LPC*%
G36*
X324865Y320987D02*
X324865Y320987D01*
X323122Y321710D01*
X321553Y322758D01*
X320218Y324093D01*
X319170Y325662D01*
X318447Y327405D01*
X318094Y329185D01*
X326645Y329185D01*
X326645Y320634D01*
X324865Y320987D01*
G37*
%LPD*%
%LPC*%
G36*
X110297Y104947D02*
X110297Y104947D01*
X110297Y116449D01*
X116109Y116449D01*
X115876Y115278D01*
X115380Y114081D01*
X114660Y113003D01*
X113743Y112086D01*
X112665Y111366D01*
X112183Y111167D01*
X112181Y111165D01*
X112179Y111165D01*
X112099Y111110D01*
X112017Y111055D01*
X112015Y111053D01*
X112013Y111051D01*
X111961Y110969D01*
X111907Y110887D01*
X111906Y110885D01*
X111905Y110883D01*
X111888Y110786D01*
X111870Y110690D01*
X111871Y110688D01*
X111870Y110685D01*
X111892Y110589D01*
X111913Y110494D01*
X111914Y110492D01*
X111915Y110490D01*
X111972Y110410D01*
X112028Y110330D01*
X112030Y110329D01*
X112032Y110327D01*
X112183Y110229D01*
X112665Y110030D01*
X113743Y109310D01*
X114660Y108393D01*
X115380Y107315D01*
X115876Y106118D01*
X116109Y104947D01*
X110297Y104947D01*
G37*
%LPD*%
%LPC*%
G36*
X110297Y91947D02*
X110297Y91947D01*
X110297Y103449D01*
X116109Y103449D01*
X115876Y102278D01*
X115380Y101081D01*
X114660Y100003D01*
X113743Y99086D01*
X112665Y98366D01*
X112183Y98167D01*
X112181Y98165D01*
X112179Y98165D01*
X112099Y98110D01*
X112017Y98055D01*
X112015Y98053D01*
X112013Y98051D01*
X111961Y97969D01*
X111907Y97887D01*
X111906Y97885D01*
X111905Y97883D01*
X111888Y97786D01*
X111870Y97690D01*
X111871Y97688D01*
X111870Y97685D01*
X111892Y97589D01*
X111913Y97494D01*
X111914Y97492D01*
X111915Y97490D01*
X111972Y97410D01*
X112028Y97330D01*
X112030Y97329D01*
X112032Y97327D01*
X112183Y97229D01*
X112665Y97030D01*
X113743Y96310D01*
X114660Y95393D01*
X115380Y94315D01*
X115876Y93118D01*
X116109Y91947D01*
X110297Y91947D01*
G37*
%LPD*%
%LPC*%
G36*
X110297Y78947D02*
X110297Y78947D01*
X110297Y90449D01*
X116109Y90449D01*
X115876Y89278D01*
X115380Y88081D01*
X114660Y87003D01*
X113743Y86086D01*
X112665Y85366D01*
X112556Y85321D01*
X112183Y85167D01*
X112181Y85165D01*
X112178Y85165D01*
X112097Y85109D01*
X112017Y85055D01*
X112015Y85053D01*
X112013Y85051D01*
X111960Y84969D01*
X111907Y84887D01*
X111906Y84885D01*
X111905Y84883D01*
X111888Y84786D01*
X111870Y84690D01*
X111871Y84688D01*
X111870Y84685D01*
X111892Y84589D01*
X111913Y84494D01*
X111914Y84492D01*
X111915Y84490D01*
X111972Y84410D01*
X112028Y84330D01*
X112030Y84329D01*
X112032Y84327D01*
X112183Y84229D01*
X112665Y84030D01*
X113743Y83310D01*
X114660Y82393D01*
X115380Y81315D01*
X115876Y80118D01*
X116109Y78947D01*
X110297Y78947D01*
G37*
%LPD*%
%LPC*%
G36*
X97297Y117947D02*
X97297Y117947D01*
X97297Y123759D01*
X98468Y123526D01*
X99665Y123030D01*
X100743Y122310D01*
X101660Y121393D01*
X102380Y120315D01*
X102579Y119833D01*
X102581Y119831D01*
X102581Y119829D01*
X102636Y119749D01*
X102691Y119667D01*
X102693Y119665D01*
X102695Y119663D01*
X102777Y119611D01*
X102859Y119557D01*
X102861Y119556D01*
X102863Y119555D01*
X102960Y119538D01*
X103056Y119520D01*
X103058Y119521D01*
X103061Y119520D01*
X103157Y119542D01*
X103252Y119563D01*
X103254Y119564D01*
X103256Y119565D01*
X103336Y119622D01*
X103416Y119678D01*
X103417Y119680D01*
X103419Y119682D01*
X103517Y119833D01*
X103716Y120315D01*
X104436Y121393D01*
X105353Y122310D01*
X106431Y123030D01*
X107431Y123444D01*
X107628Y123526D01*
X108799Y123759D01*
X108799Y117947D01*
X97297Y117947D01*
G37*
%LPD*%
%LPC*%
G36*
X89987Y78947D02*
X89987Y78947D01*
X90220Y80118D01*
X90716Y81315D01*
X91436Y82393D01*
X92353Y83310D01*
X93431Y84030D01*
X93913Y84229D01*
X93915Y84231D01*
X93917Y84231D01*
X93997Y84286D01*
X94079Y84341D01*
X94081Y84343D01*
X94083Y84345D01*
X94135Y84427D01*
X94189Y84509D01*
X94190Y84511D01*
X94191Y84513D01*
X94208Y84610D01*
X94226Y84706D01*
X94225Y84708D01*
X94226Y84711D01*
X94204Y84807D01*
X94183Y84902D01*
X94182Y84904D01*
X94181Y84906D01*
X94124Y84986D01*
X94068Y85066D01*
X94066Y85067D01*
X94064Y85069D01*
X93913Y85167D01*
X93431Y85366D01*
X92353Y86086D01*
X91436Y87003D01*
X90716Y88081D01*
X90220Y89278D01*
X89987Y90449D01*
X95799Y90449D01*
X95799Y78947D01*
X89987Y78947D01*
G37*
%LPD*%
%LPC*%
G36*
X89987Y104947D02*
X89987Y104947D01*
X90220Y106118D01*
X90716Y107315D01*
X91436Y108393D01*
X92353Y109310D01*
X93431Y110030D01*
X93913Y110229D01*
X93915Y110231D01*
X93918Y110231D01*
X93999Y110287D01*
X94079Y110341D01*
X94081Y110343D01*
X94083Y110345D01*
X94136Y110427D01*
X94189Y110509D01*
X94190Y110511D01*
X94191Y110513D01*
X94208Y110610D01*
X94226Y110706D01*
X94225Y110708D01*
X94226Y110711D01*
X94204Y110807D01*
X94183Y110902D01*
X94182Y110904D01*
X94181Y110906D01*
X94124Y110986D01*
X94068Y111066D01*
X94066Y111067D01*
X94064Y111069D01*
X93913Y111167D01*
X93431Y111366D01*
X92353Y112086D01*
X91436Y113003D01*
X90716Y114081D01*
X90220Y115278D01*
X89987Y116449D01*
X95799Y116449D01*
X95799Y104947D01*
X89987Y104947D01*
G37*
%LPD*%
%LPC*%
G36*
X89987Y91947D02*
X89987Y91947D01*
X90220Y93118D01*
X90716Y94315D01*
X91436Y95393D01*
X92353Y96310D01*
X93431Y97030D01*
X93521Y97067D01*
X93913Y97229D01*
X93915Y97231D01*
X93918Y97231D01*
X93999Y97287D01*
X94079Y97341D01*
X94081Y97343D01*
X94083Y97345D01*
X94136Y97427D01*
X94189Y97509D01*
X94190Y97511D01*
X94191Y97513D01*
X94208Y97610D01*
X94226Y97706D01*
X94225Y97708D01*
X94226Y97711D01*
X94204Y97807D01*
X94183Y97902D01*
X94182Y97904D01*
X94181Y97906D01*
X94124Y97986D01*
X94068Y98066D01*
X94066Y98067D01*
X94064Y98069D01*
X93913Y98167D01*
X93431Y98366D01*
X92353Y99086D01*
X91436Y100003D01*
X90716Y101081D01*
X90220Y102278D01*
X89987Y103449D01*
X95799Y103449D01*
X95799Y91947D01*
X89987Y91947D01*
G37*
%LPD*%
%LPC*%
G36*
X107628Y71870D02*
X107628Y71870D01*
X106431Y72366D01*
X105353Y73086D01*
X104436Y74003D01*
X103716Y75081D01*
X103517Y75563D01*
X103515Y75565D01*
X103515Y75568D01*
X103459Y75649D01*
X103405Y75729D01*
X103403Y75731D01*
X103401Y75733D01*
X103319Y75786D01*
X103237Y75839D01*
X103235Y75840D01*
X103233Y75841D01*
X103136Y75858D01*
X103040Y75876D01*
X103038Y75875D01*
X103035Y75876D01*
X102939Y75854D01*
X102844Y75833D01*
X102842Y75832D01*
X102840Y75831D01*
X102760Y75774D01*
X102680Y75718D01*
X102679Y75716D01*
X102677Y75714D01*
X102579Y75563D01*
X102380Y75081D01*
X101660Y74003D01*
X100743Y73086D01*
X99665Y72366D01*
X99101Y72133D01*
X98468Y71870D01*
X97297Y71637D01*
X97297Y77449D01*
X108799Y77449D01*
X108799Y71637D01*
X107628Y71870D01*
G37*
%LPD*%
%LPC*%
G36*
X560625Y472185D02*
X560625Y472185D01*
X560625Y474374D01*
X560809Y475059D01*
X561163Y475672D01*
X561664Y476173D01*
X562277Y476527D01*
X562962Y476711D01*
X569901Y476711D01*
X569901Y472185D01*
X560625Y472185D01*
G37*
%LPD*%
%LPC*%
G36*
X562962Y465629D02*
X562962Y465629D01*
X562277Y465813D01*
X561664Y466167D01*
X561163Y466668D01*
X560809Y467281D01*
X560625Y467966D01*
X560625Y470155D01*
X569901Y470155D01*
X569901Y465629D01*
X562962Y465629D01*
G37*
%LPD*%
%LPC*%
G36*
X110297Y117947D02*
X110297Y117947D01*
X110297Y123759D01*
X111468Y123526D01*
X112665Y123030D01*
X113743Y122310D01*
X114660Y121393D01*
X115380Y120315D01*
X115876Y119118D01*
X116109Y117947D01*
X110297Y117947D01*
G37*
%LPD*%
%LPC*%
G36*
X110297Y77449D02*
X110297Y77449D01*
X116109Y77449D01*
X115876Y76278D01*
X115380Y75081D01*
X114660Y74003D01*
X113743Y73086D01*
X112665Y72366D01*
X112101Y72133D01*
X111468Y71870D01*
X110297Y71637D01*
X110297Y77449D01*
G37*
%LPD*%
%LPC*%
G36*
X89987Y117947D02*
X89987Y117947D01*
X90220Y119118D01*
X90716Y120315D01*
X91436Y121393D01*
X92353Y122310D01*
X93431Y123030D01*
X94431Y123444D01*
X94628Y123526D01*
X95799Y123759D01*
X95799Y117947D01*
X89987Y117947D01*
G37*
%LPD*%
%LPC*%
G36*
X94628Y71870D02*
X94628Y71870D01*
X93431Y72366D01*
X92353Y73086D01*
X91436Y74003D01*
X90716Y75081D01*
X90220Y76278D01*
X89987Y77449D01*
X95799Y77449D01*
X95799Y71637D01*
X94628Y71870D01*
G37*
%LPD*%
%LPC*%
G36*
X327659Y330199D02*
X327659Y330199D01*
X327659Y330201D01*
X327661Y330201D01*
X327661Y330199D01*
X327659Y330199D01*
G37*
%LPD*%
%LPC*%
G36*
X465581Y488949D02*
X465581Y488949D01*
X465581Y488951D01*
X465583Y488951D01*
X465583Y488949D01*
X465581Y488949D01*
G37*
%LPD*%
%LPC*%
G36*
X561593Y188377D02*
X561593Y188377D01*
X561593Y188379D01*
X561595Y188379D01*
X561595Y188377D01*
X561593Y188377D01*
G37*
%LPD*%
%LPC*%
G36*
X444753Y434593D02*
X444753Y434593D01*
X444753Y434595D01*
X444755Y434595D01*
X444755Y434593D01*
X444753Y434593D01*
G37*
%LPD*%
%LPC*%
G36*
X436879Y43179D02*
X436879Y43179D01*
X436879Y43181D01*
X436881Y43181D01*
X436881Y43179D01*
X436879Y43179D01*
G37*
%LPD*%
%LPC*%
G36*
X557499Y245349D02*
X557499Y245349D01*
X557500Y245351D01*
X557501Y245350D01*
X557500Y245348D01*
X557499Y245349D01*
G37*
%LPD*%
%LPC*%
G36*
X276859Y330199D02*
X276859Y330199D01*
X276859Y330201D01*
X276861Y330201D01*
X276861Y330199D01*
X276859Y330199D01*
G37*
%LPD*%
%LPC*%
G36*
X276859Y253999D02*
X276859Y253999D01*
X276859Y254001D01*
X276861Y254001D01*
X276861Y253999D01*
X276859Y253999D01*
G37*
%LPD*%
%LPC*%
G36*
X276859Y177799D02*
X276859Y177799D01*
X276859Y177801D01*
X276861Y177801D01*
X276861Y177799D01*
X276859Y177799D01*
G37*
%LPD*%
%LPC*%
G36*
X276859Y380999D02*
X276859Y380999D01*
X276859Y381001D01*
X276861Y381001D01*
X276861Y380999D01*
X276859Y380999D01*
G37*
%LPD*%
D10*
X20840Y498800D03*
X40840Y498800D03*
D11*
X47884Y442196D03*
X47884Y455196D03*
X60884Y442196D03*
X60884Y455196D03*
X73884Y442196D03*
X73884Y455196D03*
X86884Y442196D03*
X86884Y455196D03*
X96548Y117198D03*
X109548Y117198D03*
X96548Y104198D03*
X109548Y104198D03*
X96548Y91198D03*
X109548Y91198D03*
X96548Y78198D03*
X109548Y78198D03*
D12*
X193294Y226568D03*
X167894Y201168D03*
X193294Y175768D03*
X22914Y443020D03*
X22914Y403020D03*
X22914Y383020D03*
X22914Y463020D03*
D13*
X276860Y355600D03*
X276860Y177800D03*
X276860Y330200D03*
X276860Y203200D03*
X276860Y304800D03*
X276860Y406400D03*
X276860Y279400D03*
D14*
X271898Y466864D02*
X271898Y477944D01*
X185498Y477944D02*
X185498Y466864D01*
X185498Y504864D02*
X185498Y515944D01*
X271898Y515944D02*
X271898Y504864D01*
D10*
X22352Y88646D03*
X22352Y63246D03*
D15*
X165100Y116078D03*
X190500Y116078D03*
X215900Y116078D03*
D13*
X276860Y381000D03*
X276860Y431800D03*
D10*
X465582Y488950D03*
X490982Y488950D03*
X516382Y488950D03*
X541782Y488950D03*
D13*
X276860Y254000D03*
D16*
X574024Y425196D03*
X622824Y425196D03*
D10*
X582500Y288651D03*
X557500Y245349D03*
X398018Y514096D03*
X448818Y514096D03*
D15*
X454660Y125121D03*
X441960Y103124D03*
X429260Y81127D03*
X398780Y132080D03*
X398780Y106680D03*
X398780Y81280D03*
X342900Y125121D03*
X355600Y103124D03*
X368300Y81127D03*
D10*
X411480Y43180D03*
X436880Y43180D03*
D17*
X393954Y409194D03*
X419354Y409194D03*
X444754Y409194D03*
X393954Y434594D03*
X419354Y434594D03*
X444754Y434594D03*
D10*
X586994Y18378D03*
X536194Y18378D03*
X586994Y188378D03*
X561594Y188378D03*
X536194Y188378D03*
D13*
X327660Y330200D03*
X327660Y355600D03*
X327660Y304800D03*
X327660Y406400D03*
X327660Y203200D03*
X327660Y431800D03*
D15*
X65278Y196342D03*
X90678Y196342D03*
X116078Y196342D03*
D10*
X227330Y267462D03*
X201930Y267462D03*
D18*
X617316Y512120D02*
X632516Y512120D01*
X632516Y506420D01*
X617316Y506420D01*
X617316Y512120D01*
X617316Y506705D02*
X632516Y506705D01*
X632516Y506990D02*
X617316Y506990D01*
X617316Y507275D02*
X632516Y507275D01*
X632516Y507560D02*
X617316Y507560D01*
X617316Y507845D02*
X632516Y507845D01*
X632516Y508130D02*
X617316Y508130D01*
X617316Y508415D02*
X632516Y508415D01*
X632516Y508700D02*
X617316Y508700D01*
X617316Y508985D02*
X632516Y508985D01*
X632516Y509270D02*
X617316Y509270D01*
X617316Y509555D02*
X632516Y509555D01*
X632516Y509840D02*
X617316Y509840D01*
X617316Y510125D02*
X632516Y510125D01*
X632516Y510410D02*
X617316Y510410D01*
X617316Y510695D02*
X632516Y510695D01*
X632516Y510980D02*
X617316Y510980D01*
X617316Y511265D02*
X632516Y511265D01*
X632516Y511550D02*
X617316Y511550D01*
X617316Y511835D02*
X632516Y511835D01*
X632516Y512120D02*
X617316Y512120D01*
X617316Y499420D02*
X632516Y499420D01*
X632516Y493720D01*
X617316Y493720D01*
X617316Y499420D01*
X617316Y494005D02*
X632516Y494005D01*
X632516Y494290D02*
X617316Y494290D01*
X617316Y494575D02*
X632516Y494575D01*
X632516Y494860D02*
X617316Y494860D01*
X617316Y495145D02*
X632516Y495145D01*
X632516Y495430D02*
X617316Y495430D01*
X617316Y495715D02*
X632516Y495715D01*
X632516Y496000D02*
X617316Y496000D01*
X617316Y496285D02*
X632516Y496285D01*
X632516Y496570D02*
X617316Y496570D01*
X617316Y496855D02*
X632516Y496855D01*
X632516Y497140D02*
X617316Y497140D01*
X617316Y497425D02*
X632516Y497425D01*
X632516Y497710D02*
X617316Y497710D01*
X617316Y497995D02*
X632516Y497995D01*
X632516Y498280D02*
X617316Y498280D01*
X617316Y498565D02*
X632516Y498565D01*
X632516Y498850D02*
X617316Y498850D01*
X617316Y499135D02*
X632516Y499135D01*
X632516Y499420D02*
X617316Y499420D01*
X617316Y486720D02*
X632516Y486720D01*
X632516Y481020D01*
X617316Y481020D01*
X617316Y486720D01*
X617316Y481305D02*
X632516Y481305D01*
X632516Y481590D02*
X617316Y481590D01*
X617316Y481875D02*
X632516Y481875D01*
X632516Y482160D02*
X617316Y482160D01*
X617316Y482445D02*
X632516Y482445D01*
X632516Y482730D02*
X617316Y482730D01*
X617316Y483015D02*
X632516Y483015D01*
X632516Y483300D02*
X617316Y483300D01*
X617316Y483585D02*
X632516Y483585D01*
X632516Y483870D02*
X617316Y483870D01*
X617316Y484155D02*
X632516Y484155D01*
X632516Y484440D02*
X617316Y484440D01*
X617316Y484725D02*
X632516Y484725D01*
X632516Y485010D02*
X617316Y485010D01*
X617316Y485295D02*
X632516Y485295D01*
X632516Y485580D02*
X617316Y485580D01*
X617316Y485865D02*
X632516Y485865D01*
X632516Y486150D02*
X617316Y486150D01*
X617316Y486435D02*
X632516Y486435D01*
X632516Y486720D02*
X617316Y486720D01*
X617316Y474020D02*
X632516Y474020D01*
X632516Y468320D01*
X617316Y468320D01*
X617316Y474020D01*
X617316Y468605D02*
X632516Y468605D01*
X632516Y468890D02*
X617316Y468890D01*
X617316Y469175D02*
X632516Y469175D01*
X632516Y469460D02*
X617316Y469460D01*
X617316Y469745D02*
X632516Y469745D01*
X632516Y470030D02*
X617316Y470030D01*
X617316Y470315D02*
X632516Y470315D01*
X632516Y470600D02*
X617316Y470600D01*
X617316Y470885D02*
X632516Y470885D01*
X632516Y471170D02*
X617316Y471170D01*
X617316Y471455D02*
X632516Y471455D01*
X632516Y471740D02*
X617316Y471740D01*
X617316Y472025D02*
X632516Y472025D01*
X632516Y472310D02*
X617316Y472310D01*
X617316Y472595D02*
X632516Y472595D01*
X632516Y472880D02*
X617316Y472880D01*
X617316Y473165D02*
X632516Y473165D01*
X632516Y473450D02*
X617316Y473450D01*
X617316Y473735D02*
X632516Y473735D01*
X632516Y474020D02*
X617316Y474020D01*
X578516Y474020D02*
X563316Y474020D01*
X578516Y474020D02*
X578516Y468320D01*
X563316Y468320D01*
X563316Y474020D01*
X563316Y468605D02*
X578516Y468605D01*
X578516Y468890D02*
X563316Y468890D01*
X563316Y469175D02*
X578516Y469175D01*
X578516Y469460D02*
X563316Y469460D01*
X563316Y469745D02*
X578516Y469745D01*
X578516Y470030D02*
X563316Y470030D01*
X563316Y470315D02*
X578516Y470315D01*
X578516Y470600D02*
X563316Y470600D01*
X563316Y470885D02*
X578516Y470885D01*
X578516Y471170D02*
X563316Y471170D01*
X563316Y471455D02*
X578516Y471455D01*
X578516Y471740D02*
X563316Y471740D01*
X563316Y472025D02*
X578516Y472025D01*
X578516Y472310D02*
X563316Y472310D01*
X563316Y472595D02*
X578516Y472595D01*
X578516Y472880D02*
X563316Y472880D01*
X563316Y473165D02*
X578516Y473165D01*
X578516Y473450D02*
X563316Y473450D01*
X563316Y473735D02*
X578516Y473735D01*
X578516Y474020D02*
X563316Y474020D01*
X563316Y486720D02*
X578516Y486720D01*
X578516Y481020D01*
X563316Y481020D01*
X563316Y486720D01*
X563316Y481305D02*
X578516Y481305D01*
X578516Y481590D02*
X563316Y481590D01*
X563316Y481875D02*
X578516Y481875D01*
X578516Y482160D02*
X563316Y482160D01*
X563316Y482445D02*
X578516Y482445D01*
X578516Y482730D02*
X563316Y482730D01*
X563316Y483015D02*
X578516Y483015D01*
X578516Y483300D02*
X563316Y483300D01*
X563316Y483585D02*
X578516Y483585D01*
X578516Y483870D02*
X563316Y483870D01*
X563316Y484155D02*
X578516Y484155D01*
X578516Y484440D02*
X563316Y484440D01*
X563316Y484725D02*
X578516Y484725D01*
X578516Y485010D02*
X563316Y485010D01*
X563316Y485295D02*
X578516Y485295D01*
X578516Y485580D02*
X563316Y485580D01*
X563316Y485865D02*
X578516Y485865D01*
X578516Y486150D02*
X563316Y486150D01*
X563316Y486435D02*
X578516Y486435D01*
X578516Y486720D02*
X563316Y486720D01*
X563316Y499420D02*
X578516Y499420D01*
X578516Y493720D01*
X563316Y493720D01*
X563316Y499420D01*
X563316Y494005D02*
X578516Y494005D01*
X578516Y494290D02*
X563316Y494290D01*
X563316Y494575D02*
X578516Y494575D01*
X578516Y494860D02*
X563316Y494860D01*
X563316Y495145D02*
X578516Y495145D01*
X578516Y495430D02*
X563316Y495430D01*
X563316Y495715D02*
X578516Y495715D01*
X578516Y496000D02*
X563316Y496000D01*
X563316Y496285D02*
X578516Y496285D01*
X578516Y496570D02*
X563316Y496570D01*
X563316Y496855D02*
X578516Y496855D01*
X578516Y497140D02*
X563316Y497140D01*
X563316Y497425D02*
X578516Y497425D01*
X578516Y497710D02*
X563316Y497710D01*
X563316Y497995D02*
X578516Y497995D01*
X578516Y498280D02*
X563316Y498280D01*
X563316Y498565D02*
X578516Y498565D01*
X578516Y498850D02*
X563316Y498850D01*
X563316Y499135D02*
X578516Y499135D01*
X578516Y499420D02*
X563316Y499420D01*
X563316Y512120D02*
X578516Y512120D01*
X578516Y506420D01*
X563316Y506420D01*
X563316Y512120D01*
X563316Y506705D02*
X578516Y506705D01*
X578516Y506990D02*
X563316Y506990D01*
X563316Y507275D02*
X578516Y507275D01*
X578516Y507560D02*
X563316Y507560D01*
X563316Y507845D02*
X578516Y507845D01*
X578516Y508130D02*
X563316Y508130D01*
X563316Y508415D02*
X578516Y508415D01*
X578516Y508700D02*
X563316Y508700D01*
X563316Y508985D02*
X578516Y508985D01*
X578516Y509270D02*
X563316Y509270D01*
X563316Y509555D02*
X578516Y509555D01*
X578516Y509840D02*
X563316Y509840D01*
X563316Y510125D02*
X578516Y510125D01*
X578516Y510410D02*
X563316Y510410D01*
X563316Y510695D02*
X578516Y510695D01*
X578516Y510980D02*
X563316Y510980D01*
X563316Y511265D02*
X578516Y511265D01*
X578516Y511550D02*
X563316Y511550D01*
X563316Y511835D02*
X578516Y511835D01*
X578516Y512120D02*
X563316Y512120D01*
D10*
X642366Y502920D03*
X642366Y477520D03*
D19*
X65024Y286512D03*
D20*
X111834Y114912D02*
X140312Y114912D01*
X111834Y114912D02*
X109548Y117198D01*
D19*
X185420Y151638D03*
D20*
X177038Y151638D02*
X140312Y114912D01*
X177038Y151638D02*
X185420Y151638D01*
D19*
X61722Y271018D03*
X58928Y280416D03*
X25400Y15240D03*
D21*
X40640Y15240D01*
X96548Y71148D01*
X96548Y78198D01*
D19*
X122428Y351028D03*
X109728Y338328D03*
X122428Y338328D03*
D20*
X444754Y482854D02*
X450850Y488950D01*
X465582Y488950D01*
X444754Y482854D02*
X444754Y434594D01*
X427228Y452120D01*
X383540Y452120D01*
X377952Y446532D01*
X377952Y338328D02*
X383540Y332740D01*
D19*
X383540Y332740D03*
D20*
X377952Y379828D02*
X377952Y446532D01*
X377952Y379828D02*
X377952Y338328D01*
X561594Y188378D02*
X561594Y188214D01*
X557500Y192308D02*
X557500Y245349D01*
X557500Y192308D02*
X561594Y188214D01*
D19*
X377952Y379828D03*
X502920Y55880D03*
X358394Y297942D03*
D20*
X368300Y292354D02*
X368300Y126333D01*
X377952Y101600D01*
X388593Y62230D01*
X420550Y62230D01*
X436880Y45900D02*
X436880Y43180D01*
X436880Y45900D02*
X420550Y62230D01*
X436880Y43180D02*
X449580Y55880D01*
X502920Y55880D01*
D22*
X71374Y155956D02*
X71078Y155744D01*
D19*
X71374Y155956D03*
D22*
X71078Y155744D02*
X46482Y180340D01*
D23*
X85344Y145542D03*
D19*
X79756Y155702D03*
D24*
X84836Y150622D01*
X84836Y145814D01*
X81516Y145814D01*
X71374Y155956D01*
D22*
X79756Y155702D02*
X89154Y165100D01*
X207137Y214503D02*
X246634Y254000D01*
X207137Y214503D02*
X157734Y165100D01*
X89154Y165100D01*
D25*
X358394Y297942D02*
X362712Y297942D01*
X368300Y292354D01*
D22*
X109548Y78198D02*
X96548Y78198D01*
X96548Y91198D01*
X109548Y91198D01*
X109548Y78198D01*
X109548Y91198D02*
X109548Y104198D01*
X109548Y117198D01*
X96548Y117198D01*
X96548Y104198D01*
X109548Y104198D01*
X96548Y104198D02*
X96548Y91198D01*
X246634Y254000D02*
X276860Y254000D01*
X63500Y243840D02*
X63500Y279400D01*
X114300Y281940D02*
X127000Y294640D01*
X127000Y309880D01*
X119380Y317500D01*
X119380Y335280D01*
X122428Y338328D01*
X46482Y226822D02*
X46482Y180340D01*
X46482Y226822D02*
X63500Y243840D01*
X66040Y281940D02*
X114300Y281940D01*
D26*
X66040Y285496D02*
X65024Y286512D01*
X66040Y285496D02*
X66040Y281940D01*
X66040Y276860D01*
X58928Y280416D02*
X65024Y286512D01*
X58928Y280416D02*
X61722Y277622D01*
X61722Y271018D01*
X66802Y276098D01*
X66040Y276860D01*
X63500Y279400D01*
X109728Y338328D02*
X116332Y338328D01*
X119380Y335280D01*
X109728Y338328D02*
X122428Y351028D01*
X122428Y338328D01*
X207137Y214503D02*
X232928Y188712D01*
X276098Y177800D02*
X276860Y177800D01*
X276098Y177800D02*
X265186Y188712D01*
X232928Y188712D01*
D19*
X314960Y148082D03*
X337820Y167640D03*
X375920Y144780D03*
X431800Y144780D03*
X464820Y144780D03*
X487680Y144780D03*
X566420Y459740D03*
D20*
X566420Y466674D01*
X570916Y471170D01*
D27*
X327660Y330200D02*
X276860Y330200D01*
D19*
X215900Y510540D03*
X241300Y510540D03*
X200660Y497840D03*
X256540Y492760D03*
X259080Y424180D03*
D20*
X483870Y471170D02*
X570916Y471170D01*
X466090Y488950D02*
X465582Y488950D01*
X466090Y488950D02*
X483870Y471170D01*
D19*
X584200Y254000D03*
D21*
X665708Y254000D02*
X667740Y256032D01*
X665708Y254000D02*
X584200Y254000D01*
D19*
X667740Y256032D03*
X350520Y431800D03*
D20*
X350520Y360680D01*
X345440Y355600D02*
X327660Y355600D01*
X345440Y355600D02*
X350520Y360680D01*
D21*
X342900Y355600D02*
X349250Y349250D01*
X342900Y355600D02*
X327660Y355600D01*
D19*
X334792Y140908D03*
D21*
X360680Y166796D02*
X360680Y268732D01*
X360680Y166796D02*
X334792Y140908D01*
X360680Y268732D02*
X349250Y280162D01*
X349250Y349250D01*
D27*
X327660Y355600D02*
X276860Y355600D01*
D21*
X667740Y277140D02*
X667740Y256032D01*
X588010Y509270D02*
X570916Y509270D01*
X604520Y340360D02*
X667740Y277140D01*
X604520Y340360D02*
X604520Y454660D01*
X596900Y462280D01*
X596900Y500380D01*
X588010Y509270D01*
D19*
X138684Y413766D03*
X28448Y281686D03*
D21*
X74930Y360934D02*
X127762Y413766D01*
X138684Y413766D01*
X74930Y360934D02*
X74930Y355854D01*
X54356Y335280D02*
X38100Y335280D01*
X25400Y322580D01*
X25400Y284734D02*
X28448Y281686D01*
X54356Y335280D02*
X74930Y355854D01*
X25400Y322580D02*
X25400Y284734D01*
D26*
X47884Y491756D02*
X40840Y498800D01*
X47884Y491756D02*
X47884Y455196D01*
X60884Y455196D01*
X73884Y455196D01*
X86884Y455196D01*
X86884Y442196D01*
X73884Y442196D01*
X73884Y455196D01*
X73884Y442196D02*
X60884Y442196D01*
X47884Y442196D01*
X47884Y455196D01*
X60884Y455196D02*
X60884Y442196D01*
D19*
X92202Y217170D03*
X81788Y217932D03*
D22*
X124162Y220472D02*
X190202Y286512D01*
X255270Y279400D02*
X276860Y279400D01*
X255270Y279400D02*
X248158Y286512D01*
X190202Y286512D01*
D19*
X72898Y215900D03*
D22*
X104648Y220472D02*
X124162Y220472D01*
X104648Y220472D02*
X104140Y220980D01*
X96012Y220980D01*
X92202Y217170D01*
X89662Y219710D01*
X83566Y219710D01*
X81788Y217932D01*
X74930Y217932D01*
X72898Y215900D01*
D20*
X124162Y220472D02*
X148590Y220472D01*
X167894Y201168D01*
D19*
X138430Y384556D03*
X46228Y315976D03*
D21*
X117094Y384556D02*
X138430Y384556D01*
X117094Y384556D02*
X53340Y320802D01*
X51054Y320802D01*
X46228Y315976D01*
D19*
X48260Y346710D03*
D21*
X60960Y356362D02*
X60960Y363220D01*
X60960Y356362D02*
X51308Y346710D01*
X48260Y346710D01*
X60960Y363220D02*
X124460Y426720D01*
X149860Y426720D01*
X162560Y414020D01*
X162560Y384302D01*
D19*
X162560Y384302D03*
X212228Y454914D03*
X207010Y448818D03*
D27*
X213106Y454914D01*
X213868Y455676D01*
X215138Y455676D02*
X228600Y469138D01*
X228600Y495300D01*
X233680Y495300D01*
D19*
X233680Y495300D03*
X224028Y495300D03*
D27*
X228600Y495300D01*
X224028Y495300D02*
X233680Y495300D01*
X213106Y454914D02*
X212228Y454914D01*
X213868Y455676D02*
X215138Y455676D01*
D26*
X212228Y454914D02*
X212228Y454036D01*
X207010Y448818D01*
D19*
X131572Y394462D03*
X177038Y429260D03*
D23*
X165862Y329692D03*
D26*
X165862Y320040D01*
D19*
X185420Y429260D03*
D26*
X165862Y335280D02*
X165862Y329692D01*
D24*
X165862Y335280D02*
X165862Y349504D01*
D26*
X165862Y320040D02*
X165608Y320040D01*
D23*
X165608Y320040D03*
D26*
X165100Y320040D01*
X160020Y325120D01*
D24*
X164592Y329692D01*
D26*
X165862Y329692D01*
X170180Y325374D01*
D24*
X170180Y324358D02*
X165862Y320040D01*
D26*
X170180Y324358D02*
X170180Y325374D01*
X170180Y330962D01*
D24*
X165862Y335280D01*
D26*
X160020Y329438D02*
X160020Y325120D01*
D24*
X160020Y329438D02*
X165862Y335280D01*
D19*
X181102Y436372D03*
X209550Y188468D03*
X259334Y174244D03*
D21*
X224536Y174244D01*
X210312Y188468D01*
X209550Y188468D01*
D19*
X106680Y303784D03*
D21*
X75184Y303784D01*
X70104Y298704D02*
X58928Y298704D01*
X48260Y288036D01*
D20*
X32258Y254254D02*
X32258Y245110D01*
X29464Y242316D01*
D19*
X29464Y242316D03*
D21*
X70104Y298704D02*
X75184Y303784D01*
X48260Y288036D02*
X48260Y270256D01*
X32258Y254254D01*
D22*
X165862Y349504D02*
X165862Y356362D01*
X185420Y375920D01*
X185420Y406400D01*
X185420Y425450D01*
D26*
X181610Y429260D02*
X177038Y429260D01*
X181610Y429260D02*
X185420Y425450D01*
X185420Y429260D02*
X181102Y433578D01*
X181102Y436372D01*
X181102Y433324D01*
X177038Y429260D01*
X181102Y436372D02*
X185420Y432054D01*
X185420Y429260D01*
X185420Y425450D01*
D22*
X185420Y406400D02*
X276860Y406400D01*
D20*
X327660Y406400D01*
X327660Y203200D02*
X276860Y203200D01*
X20840Y498800D02*
X20840Y514200D01*
X26670Y520030D01*
X113030Y520030D01*
X123700Y496112D02*
X166420Y453392D01*
X123700Y509360D02*
X113030Y520030D01*
X123700Y509360D02*
X123700Y496112D01*
D21*
X327660Y439420D02*
X339090Y450850D01*
X327660Y439420D02*
X327660Y431800D01*
X339090Y450850D02*
X356870Y450850D01*
X367284Y440436D02*
X367284Y325120D01*
X367284Y440436D02*
X356870Y450850D01*
X367284Y325120D02*
X380238Y312166D01*
X380238Y176022D01*
X421386Y100076D02*
X453898Y80264D01*
X536194Y39425D02*
X536194Y18378D01*
X536194Y39425D02*
X495355Y80264D01*
X453898Y80264D01*
X421386Y134874D02*
X380238Y176022D01*
X421386Y134874D02*
X421386Y100076D01*
D20*
X178054Y453392D02*
X166420Y453392D01*
X178054Y453392D02*
X199646Y431800D01*
X236220Y431800D01*
X276860Y431800D02*
X327660Y431800D01*
X251460Y447040D02*
X236220Y431800D01*
X251460Y447040D02*
X261620Y447040D01*
X276860Y431800D01*
D19*
X48768Y360172D03*
D21*
X115062Y453390D02*
X104140Y464312D01*
X115062Y453390D02*
X115062Y432816D01*
D19*
X104140Y464312D03*
D21*
X48768Y366522D02*
X48768Y360172D01*
X48768Y366522D02*
X115062Y432816D01*
D19*
X191262Y97790D03*
D21*
X255016Y97790D01*
X259588Y93218D01*
D19*
X259588Y93218D03*
X39370Y104394D03*
D21*
X66802Y131826D01*
X129286Y131826D01*
X135128Y125984D01*
D19*
X135128Y125984D03*
X518160Y426720D03*
D21*
X515620Y424180D01*
X515620Y309880D01*
X513080Y307340D01*
D19*
X513080Y307340D03*
X453390Y263144D03*
D21*
X467360Y277114D02*
X467360Y408940D01*
X467360Y277114D02*
X453390Y263144D01*
D19*
X467360Y408940D03*
X524991Y252449D03*
D21*
X539242Y266700D01*
X626618Y266700D02*
X638302Y278384D01*
X626618Y266700D02*
X539242Y266700D01*
D19*
X638302Y278384D03*
D21*
X432054Y421894D02*
X419354Y434594D01*
X432054Y421894D02*
X432054Y214884D01*
X422910Y205740D01*
X422148Y205740D01*
D19*
X422148Y205740D03*
X471514Y465746D03*
X484222Y350110D03*
D21*
X472440Y465746D02*
X471514Y465746D01*
X472440Y465746D02*
X479650Y458536D01*
X479650Y354682D01*
X484222Y350110D01*
D20*
X22914Y383020D02*
X12954Y373060D01*
X12954Y279654D01*
X157480Y304800D02*
X276860Y304800D01*
D21*
X330708Y276352D02*
X344678Y262382D01*
X330708Y301752D02*
X327660Y304800D01*
X330708Y301752D02*
X330708Y276352D01*
X344678Y262382D02*
X344678Y193040D01*
X484378Y14450D02*
X482346Y12418D01*
X347060Y12418D01*
D19*
X484378Y14450D03*
D21*
X324866Y173228D02*
X344678Y193040D01*
X324866Y34612D02*
X347060Y12418D01*
X324866Y34612D02*
X324866Y173228D01*
D20*
X21336Y271272D02*
X12954Y279654D01*
X62992Y309118D02*
X119634Y365760D01*
X134620Y365760D02*
X142240Y358140D01*
X142240Y320040D02*
X157480Y304800D01*
X142240Y320040D02*
X142240Y358140D01*
X134620Y365760D02*
X119634Y365760D01*
X33274Y271272D02*
X21336Y271272D01*
X33274Y271272D02*
X38608Y276606D01*
X51562Y309118D02*
X62992Y309118D01*
X38608Y296164D02*
X38608Y276606D01*
X38608Y296164D02*
X51562Y309118D01*
X276860Y304800D02*
X327660Y304800D01*
D19*
X447802Y375412D03*
X447724Y340536D03*
D21*
X447724Y375334D01*
X447802Y375412D01*
D19*
X504698Y251460D03*
D21*
X504698Y418338D02*
X503936Y419100D01*
X502920Y419100D01*
X504698Y418338D02*
X504698Y251460D01*
D19*
X502920Y419100D03*
X470154Y187960D03*
D21*
X493014Y210820D01*
X493014Y410972D02*
X490474Y413512D01*
X493014Y410972D02*
X493014Y210820D01*
D19*
X490474Y413512D03*
D21*
X394208Y408940D02*
X393954Y409194D01*
X394208Y408940D02*
X394208Y277876D01*
D19*
X394208Y277876D03*
D21*
X409194Y399034D02*
X419354Y409194D01*
X409194Y399034D02*
X409194Y365760D01*
X409194Y272034D01*
X408940Y271780D01*
D19*
X408940Y271780D03*
X409194Y365760D03*
X251714Y315468D03*
D25*
X215392Y315468D01*
X214630Y314706D01*
D19*
X214630Y314706D03*
D28*
X624916Y509270D02*
X636016Y509270D01*
X642366Y502920D01*
X636016Y496570D02*
X624916Y496570D01*
X636016Y496570D02*
X642366Y502920D01*
X624916Y496570D02*
X624916Y509270D01*
X624916Y483870D02*
X636016Y483870D01*
X642366Y477520D01*
X636016Y471170D02*
X624916Y471170D01*
X636016Y471170D02*
X642366Y477520D01*
X624916Y471170D02*
X624916Y483870D01*
D19*
X525780Y307340D03*
D21*
X525780Y350520D01*
X592074Y416814D01*
X585940Y492976D02*
X582346Y496570D01*
X570916Y496570D01*
X592074Y443230D02*
X592074Y416814D01*
X585940Y449364D02*
X585940Y492976D01*
X585940Y449364D02*
X592074Y443230D01*
M02*
