G04 EAGLE Gerber RS-274X export*
G75*
%MOMM*%
%FSLAX34Y34*%
%LPD*%
%INTop Copper*%
%IPPOS*%
%AMOC8*
5,1,8,0,0,1.08239X$1,22.5*%
G01*
%ADD10C,0.330000*%
%ADD11C,1.508000*%
%ADD12C,0.320000*%
%ADD13C,0.170000*%
%ADD14C,0.416000*%
%ADD15R,0.900000X0.800000*%
%ADD16R,2.100000X1.400000*%
%ADD17C,0.030000*%
%ADD18R,4.900000X2.950000*%
%ADD19C,0.808000*%
%ADD20C,0.150000*%
%ADD21R,2.950000X4.900000*%
%ADD22R,2.200000X1.600000*%
%ADD23C,1.258000*%
%ADD24C,1.408000*%
%ADD25R,0.700000X1.200000*%
%ADD26R,0.760000X1.200000*%
%ADD27R,0.800000X1.200000*%
%ADD28C,1.108000*%
%ADD29C,1.308000*%
%ADD30R,1.600000X3.200000*%
%ADD31C,1.138000*%
%ADD32C,0.137500*%
%ADD33C,1.524000*%
%ADD34C,0.532500*%
%ADD35C,0.508000*%
%ADD36C,1.270000*%
%ADD37C,0.609600*%
%ADD38C,1.524000*%
%ADD39C,0.762000*%
%ADD40C,0.406400*%
%ADD41C,0.706400*%
%ADD42C,1.016000*%
%ADD43C,0.558800*%
%ADD44C,0.304800*%
%ADD45C,0.812800*%
%ADD46C,0.756400*%
%ADD47C,0.711200*%
%ADD48C,1.473200*%

G36*
X254050Y54241D02*
X254050Y54241D01*
X254101Y54243D01*
X254133Y54261D01*
X254169Y54269D01*
X254208Y54302D01*
X254253Y54326D01*
X254274Y54356D01*
X254302Y54379D01*
X254323Y54426D01*
X254353Y54468D01*
X254361Y54510D01*
X254373Y54538D01*
X254372Y54568D01*
X254380Y54610D01*
X254380Y81280D01*
X254369Y81330D01*
X254367Y81381D01*
X254349Y81413D01*
X254341Y81449D01*
X254308Y81488D01*
X254284Y81533D01*
X254254Y81554D01*
X254231Y81582D01*
X254184Y81603D01*
X254142Y81633D01*
X254100Y81641D01*
X254072Y81653D01*
X254042Y81652D01*
X254000Y81660D01*
X122682Y81660D01*
X122632Y81649D01*
X122581Y81647D01*
X122549Y81629D01*
X122513Y81621D01*
X122474Y81588D01*
X122429Y81564D01*
X122408Y81534D01*
X122380Y81511D01*
X122359Y81464D01*
X122329Y81422D01*
X122321Y81380D01*
X122309Y81352D01*
X122310Y81322D01*
X122302Y81280D01*
X122302Y70648D01*
X122313Y70598D01*
X122315Y70547D01*
X122333Y70515D01*
X122341Y70479D01*
X122374Y70440D01*
X122398Y70395D01*
X122428Y70374D01*
X122451Y70346D01*
X122498Y70325D01*
X122540Y70295D01*
X122582Y70287D01*
X122610Y70275D01*
X122640Y70276D01*
X122682Y70268D01*
X162874Y70268D01*
X178801Y54341D01*
X178866Y54301D01*
X178928Y54257D01*
X178940Y54255D01*
X178948Y54250D01*
X178985Y54246D01*
X179070Y54230D01*
X254000Y54230D01*
X254050Y54241D01*
G37*
G36*
X113302Y113795D02*
X113302Y113795D01*
X113320Y113793D01*
X113502Y113814D01*
X113685Y113833D01*
X113702Y113838D01*
X113719Y113840D01*
X113894Y113897D01*
X114070Y113951D01*
X114085Y113959D01*
X114102Y113965D01*
X114262Y114055D01*
X114424Y114143D01*
X114437Y114154D01*
X114453Y114163D01*
X114592Y114283D01*
X114733Y114400D01*
X114744Y114414D01*
X114758Y114426D01*
X114870Y114571D01*
X114985Y114714D01*
X114993Y114730D01*
X115004Y114744D01*
X115086Y114909D01*
X115171Y115071D01*
X115176Y115088D01*
X115184Y115105D01*
X115231Y115283D01*
X115282Y115458D01*
X115284Y115476D01*
X115288Y115493D01*
X115315Y115824D01*
X115315Y127509D01*
X119380Y127509D01*
X119407Y127511D01*
X119433Y127509D01*
X119607Y127531D01*
X119781Y127549D01*
X119806Y127557D01*
X119833Y127560D01*
X119998Y127616D01*
X120166Y127667D01*
X120189Y127680D01*
X120214Y127688D01*
X120366Y127775D01*
X120520Y127859D01*
X120540Y127876D01*
X120563Y127889D01*
X120816Y128104D01*
X123356Y130644D01*
X123359Y130648D01*
X123363Y130650D01*
X123376Y130667D01*
X123394Y130682D01*
X123501Y130820D01*
X123611Y130955D01*
X123624Y130979D01*
X123640Y131000D01*
X123718Y131157D01*
X123800Y131311D01*
X123808Y131336D01*
X123820Y131361D01*
X123865Y131530D01*
X123915Y131697D01*
X123917Y131723D01*
X123924Y131749D01*
X123951Y132080D01*
X123951Y142240D01*
X123950Y142253D01*
X123951Y142266D01*
X123950Y142270D01*
X123951Y142276D01*
X123930Y142458D01*
X123911Y142641D01*
X123906Y142658D01*
X123904Y142675D01*
X123847Y142850D01*
X123793Y143026D01*
X123785Y143041D01*
X123779Y143058D01*
X123689Y143218D01*
X123601Y143380D01*
X123590Y143393D01*
X123581Y143409D01*
X123461Y143548D01*
X123344Y143689D01*
X123330Y143700D01*
X123318Y143714D01*
X123173Y143826D01*
X123030Y143941D01*
X123014Y143949D01*
X123000Y143960D01*
X122835Y144042D01*
X122673Y144127D01*
X122656Y144132D01*
X122640Y144140D01*
X122461Y144187D01*
X122286Y144238D01*
X122268Y144240D01*
X122251Y144244D01*
X121920Y144271D01*
X87201Y144271D01*
X80771Y150701D01*
X80771Y152400D01*
X80770Y152412D01*
X80771Y152422D01*
X80770Y152428D01*
X80771Y152436D01*
X80750Y152618D01*
X80731Y152801D01*
X80726Y152818D01*
X80724Y152835D01*
X80667Y153010D01*
X80613Y153186D01*
X80605Y153201D01*
X80599Y153218D01*
X80509Y153378D01*
X80421Y153540D01*
X80410Y153553D01*
X80401Y153569D01*
X80281Y153708D01*
X80164Y153849D01*
X80150Y153860D01*
X80138Y153874D01*
X79993Y153986D01*
X79850Y154101D01*
X79834Y154109D01*
X79820Y154120D01*
X79655Y154202D01*
X79493Y154287D01*
X79476Y154292D01*
X79460Y154300D01*
X79281Y154347D01*
X79106Y154398D01*
X79088Y154400D01*
X79071Y154404D01*
X78740Y154431D01*
X66040Y154431D01*
X66013Y154429D01*
X65987Y154431D01*
X65813Y154409D01*
X65639Y154391D01*
X65614Y154384D01*
X65587Y154380D01*
X65422Y154325D01*
X65254Y154273D01*
X65231Y154260D01*
X65206Y154252D01*
X65054Y154165D01*
X64900Y154081D01*
X64880Y154064D01*
X64857Y154051D01*
X64604Y153836D01*
X62659Y151891D01*
X53340Y151891D01*
X53322Y151889D01*
X53304Y151891D01*
X53122Y151870D01*
X52939Y151851D01*
X52922Y151846D01*
X52905Y151844D01*
X52730Y151787D01*
X52554Y151733D01*
X52539Y151725D01*
X52522Y151719D01*
X52362Y151629D01*
X52200Y151541D01*
X52187Y151530D01*
X52171Y151521D01*
X52032Y151401D01*
X51891Y151284D01*
X51880Y151270D01*
X51867Y151258D01*
X51754Y151113D01*
X51639Y150970D01*
X51631Y150954D01*
X51620Y150940D01*
X51538Y150775D01*
X51453Y150613D01*
X51448Y150596D01*
X51440Y150580D01*
X51393Y150401D01*
X51342Y150226D01*
X51340Y150208D01*
X51336Y150191D01*
X51309Y149860D01*
X51309Y132921D01*
X42339Y123951D01*
X38100Y123951D01*
X38082Y123949D01*
X38064Y123951D01*
X37882Y123930D01*
X37699Y123911D01*
X37682Y123906D01*
X37665Y123904D01*
X37490Y123847D01*
X37314Y123793D01*
X37299Y123785D01*
X37282Y123779D01*
X37122Y123689D01*
X36960Y123601D01*
X36947Y123590D01*
X36931Y123581D01*
X36792Y123461D01*
X36651Y123344D01*
X36640Y123330D01*
X36627Y123318D01*
X36514Y123173D01*
X36399Y123030D01*
X36391Y123014D01*
X36380Y123000D01*
X36298Y122835D01*
X36213Y122673D01*
X36208Y122656D01*
X36200Y122640D01*
X36153Y122461D01*
X36102Y122286D01*
X36100Y122268D01*
X36096Y122251D01*
X36069Y121920D01*
X36069Y115824D01*
X36071Y115806D01*
X36069Y115788D01*
X36090Y115606D01*
X36109Y115423D01*
X36114Y115406D01*
X36116Y115389D01*
X36173Y115214D01*
X36227Y115038D01*
X36235Y115023D01*
X36241Y115006D01*
X36331Y114846D01*
X36419Y114684D01*
X36430Y114671D01*
X36439Y114655D01*
X36559Y114516D01*
X36676Y114375D01*
X36690Y114364D01*
X36702Y114351D01*
X36847Y114238D01*
X36990Y114123D01*
X37006Y114115D01*
X37020Y114104D01*
X37185Y114022D01*
X37347Y113937D01*
X37364Y113932D01*
X37381Y113924D01*
X37559Y113877D01*
X37734Y113826D01*
X37752Y113824D01*
X37769Y113820D01*
X38100Y113793D01*
X113284Y113793D01*
X113302Y113795D01*
G37*
G36*
X447565Y139704D02*
X447565Y139704D01*
X447599Y139702D01*
X447788Y139724D01*
X447979Y139741D01*
X448012Y139750D01*
X448046Y139754D01*
X448229Y139809D01*
X448413Y139859D01*
X448444Y139874D01*
X448477Y139884D01*
X448648Y139971D01*
X448820Y140053D01*
X448848Y140073D01*
X448879Y140088D01*
X449031Y140204D01*
X449186Y140315D01*
X449210Y140340D01*
X449237Y140360D01*
X449366Y140501D01*
X449500Y140637D01*
X449519Y140666D01*
X449543Y140692D01*
X449645Y140853D01*
X449752Y141010D01*
X449766Y141042D01*
X449784Y141071D01*
X449857Y141248D01*
X449934Y141422D01*
X449942Y141456D01*
X449955Y141488D01*
X449995Y141675D01*
X450041Y141860D01*
X450043Y141894D01*
X450050Y141928D01*
X450069Y142240D01*
X450069Y162147D01*
X450055Y162310D01*
X450048Y162475D01*
X450035Y162534D01*
X450029Y162595D01*
X449986Y162754D01*
X449950Y162914D01*
X449927Y162971D01*
X449911Y163030D01*
X449840Y163178D01*
X449777Y163330D01*
X449744Y163381D01*
X449717Y163436D01*
X449622Y163570D01*
X449532Y163708D01*
X449481Y163766D01*
X449455Y163802D01*
X449412Y163845D01*
X449326Y163942D01*
X444905Y168363D01*
X444878Y168385D01*
X444855Y168411D01*
X444706Y168529D01*
X444560Y168652D01*
X444530Y168669D01*
X444502Y168690D01*
X444334Y168780D01*
X444169Y168875D01*
X444136Y168887D01*
X444106Y168903D01*
X443924Y168962D01*
X443744Y169026D01*
X443710Y169031D01*
X443677Y169042D01*
X443488Y169068D01*
X443300Y169099D01*
X443266Y169099D01*
X443231Y169104D01*
X443040Y169096D01*
X442850Y169093D01*
X442816Y169087D01*
X442781Y169085D01*
X442595Y169044D01*
X442408Y169008D01*
X442376Y168995D01*
X442342Y168988D01*
X442166Y168914D01*
X441988Y168845D01*
X441958Y168827D01*
X441926Y168814D01*
X441766Y168711D01*
X441603Y168611D01*
X441577Y168588D01*
X441548Y168570D01*
X441314Y168363D01*
X438755Y165803D01*
X437413Y165248D01*
X435960Y165248D01*
X434619Y165803D01*
X428446Y171976D01*
X428320Y172081D01*
X428199Y172193D01*
X428148Y172225D01*
X428101Y172264D01*
X427959Y172346D01*
X427820Y172434D01*
X427763Y172458D01*
X427710Y172488D01*
X427555Y172543D01*
X427403Y172605D01*
X427343Y172618D01*
X427286Y172639D01*
X427124Y172665D01*
X426963Y172700D01*
X426886Y172705D01*
X426842Y172712D01*
X426781Y172711D01*
X426651Y172719D01*
X412463Y172719D01*
X412299Y172705D01*
X412135Y172698D01*
X412075Y172685D01*
X412014Y172679D01*
X411856Y172636D01*
X411695Y172600D01*
X411639Y172577D01*
X411580Y172561D01*
X411432Y172490D01*
X411280Y172427D01*
X411228Y172394D01*
X411173Y172367D01*
X411040Y172272D01*
X410902Y172182D01*
X410844Y172131D01*
X410807Y172105D01*
X410800Y172098D01*
X410799Y172097D01*
X410763Y172060D01*
X410667Y171976D01*
X404114Y165423D01*
X404009Y165296D01*
X403897Y165176D01*
X403865Y165124D01*
X403826Y165077D01*
X403744Y164935D01*
X403656Y164796D01*
X403632Y164739D01*
X403602Y164686D01*
X403547Y164531D01*
X403485Y164379D01*
X403472Y164320D01*
X403451Y164262D01*
X403425Y164100D01*
X403390Y163939D01*
X403385Y163862D01*
X403378Y163818D01*
X403379Y163757D01*
X403371Y163627D01*
X403371Y142240D01*
X403374Y142206D01*
X403372Y142171D01*
X403394Y141982D01*
X403411Y141792D01*
X403420Y141758D01*
X403424Y141724D01*
X403479Y141541D01*
X403529Y141357D01*
X403544Y141326D01*
X403554Y141293D01*
X403641Y141122D01*
X403723Y140951D01*
X403743Y140922D01*
X403758Y140891D01*
X403874Y140739D01*
X403985Y140584D01*
X404010Y140560D01*
X404030Y140533D01*
X404170Y140404D01*
X404307Y140270D01*
X404336Y140251D01*
X404362Y140228D01*
X404523Y140125D01*
X404680Y140018D01*
X404712Y140004D01*
X404741Y139986D01*
X404918Y139913D01*
X405092Y139836D01*
X405126Y139828D01*
X405158Y139815D01*
X405345Y139775D01*
X405530Y139729D01*
X405564Y139727D01*
X405598Y139720D01*
X405910Y139701D01*
X447530Y139701D01*
X447565Y139704D01*
G37*
G36*
X82370Y49675D02*
X82370Y49675D01*
X82445Y49688D01*
X82455Y49695D01*
X82465Y49697D01*
X82494Y49721D01*
X82565Y49769D01*
X83835Y51039D01*
X83875Y51104D01*
X83919Y51166D01*
X83921Y51178D01*
X83926Y51186D01*
X83930Y51223D01*
X83946Y51308D01*
X83946Y81280D01*
X83935Y81330D01*
X83933Y81381D01*
X83915Y81413D01*
X83907Y81449D01*
X83874Y81488D01*
X83850Y81533D01*
X83820Y81554D01*
X83797Y81582D01*
X83750Y81603D01*
X83708Y81633D01*
X83666Y81641D01*
X83638Y81653D01*
X83608Y81652D01*
X83566Y81660D01*
X68580Y81660D01*
X68530Y81649D01*
X68479Y81647D01*
X68447Y81629D01*
X68411Y81621D01*
X68372Y81588D01*
X68327Y81564D01*
X68306Y81534D01*
X68278Y81511D01*
X68257Y81464D01*
X68227Y81422D01*
X68219Y81380D01*
X68207Y81352D01*
X68208Y81322D01*
X68200Y81280D01*
X68200Y75184D01*
X68211Y75134D01*
X68213Y75100D01*
X51170Y58057D01*
X25857Y59263D01*
X18811Y66309D01*
X18746Y66349D01*
X18684Y66393D01*
X18672Y66395D01*
X18664Y66400D01*
X18627Y66404D01*
X18542Y66420D01*
X10668Y66420D01*
X10618Y66409D01*
X10567Y66407D01*
X10535Y66389D01*
X10499Y66381D01*
X10460Y66348D01*
X10415Y66324D01*
X10394Y66294D01*
X10366Y66271D01*
X10345Y66224D01*
X10315Y66182D01*
X10307Y66140D01*
X10295Y66112D01*
X10296Y66083D01*
X10295Y66081D01*
X10295Y66077D01*
X10288Y66040D01*
X10288Y50038D01*
X10299Y49988D01*
X10301Y49937D01*
X10319Y49905D01*
X10327Y49869D01*
X10360Y49830D01*
X10384Y49785D01*
X10414Y49764D01*
X10437Y49736D01*
X10484Y49715D01*
X10526Y49685D01*
X10568Y49677D01*
X10596Y49665D01*
X10626Y49666D01*
X10668Y49658D01*
X82296Y49658D01*
X82370Y49675D01*
G37*
G36*
X326704Y139704D02*
X326704Y139704D01*
X326739Y139702D01*
X326928Y139724D01*
X327118Y139741D01*
X327152Y139750D01*
X327186Y139754D01*
X327369Y139809D01*
X327553Y139859D01*
X327584Y139874D01*
X327617Y139884D01*
X327788Y139971D01*
X327959Y140053D01*
X327987Y140073D01*
X328018Y140088D01*
X328170Y140204D01*
X328325Y140315D01*
X328350Y140340D01*
X328377Y140360D01*
X328506Y140501D01*
X328639Y140637D01*
X328659Y140666D01*
X328682Y140692D01*
X328785Y140853D01*
X328892Y141010D01*
X328906Y141042D01*
X328924Y141071D01*
X328997Y141248D01*
X329074Y141422D01*
X329082Y141456D01*
X329095Y141488D01*
X329135Y141675D01*
X329180Y141860D01*
X329183Y141894D01*
X329190Y141928D01*
X329193Y141979D01*
X330059Y144070D01*
X331629Y145641D01*
X333681Y146490D01*
X335902Y146490D01*
X337954Y145641D01*
X339525Y144070D01*
X340400Y141958D01*
X340414Y141792D01*
X340424Y141758D01*
X340428Y141724D01*
X340483Y141541D01*
X340533Y141357D01*
X340548Y141326D01*
X340558Y141293D01*
X340645Y141122D01*
X340726Y140951D01*
X340746Y140922D01*
X340762Y140891D01*
X340877Y140739D01*
X340988Y140584D01*
X341013Y140560D01*
X341034Y140533D01*
X341174Y140404D01*
X341311Y140270D01*
X341340Y140251D01*
X341365Y140228D01*
X341526Y140125D01*
X341684Y140018D01*
X341716Y140004D01*
X341745Y139986D01*
X341922Y139913D01*
X342096Y139836D01*
X342130Y139828D01*
X342162Y139815D01*
X342348Y139775D01*
X342533Y139729D01*
X342568Y139727D01*
X342602Y139720D01*
X342914Y139701D01*
X348470Y139701D01*
X348505Y139704D01*
X348539Y139702D01*
X348728Y139724D01*
X348919Y139741D01*
X348952Y139750D01*
X348986Y139754D01*
X349169Y139809D01*
X349353Y139859D01*
X349384Y139874D01*
X349417Y139884D01*
X349588Y139971D01*
X349760Y140053D01*
X349788Y140073D01*
X349819Y140088D01*
X349971Y140204D01*
X350126Y140315D01*
X350150Y140340D01*
X350177Y140360D01*
X350306Y140501D01*
X350440Y140637D01*
X350459Y140666D01*
X350483Y140692D01*
X350585Y140853D01*
X350692Y141010D01*
X350706Y141042D01*
X350724Y141071D01*
X350797Y141248D01*
X350874Y141422D01*
X350882Y141456D01*
X350895Y141488D01*
X350935Y141675D01*
X350981Y141860D01*
X350983Y141894D01*
X350990Y141928D01*
X351009Y142240D01*
X351009Y169977D01*
X350995Y170140D01*
X350988Y170304D01*
X350975Y170364D01*
X350969Y170425D01*
X350926Y170584D01*
X350890Y170744D01*
X350867Y170800D01*
X350851Y170859D01*
X350780Y171008D01*
X350717Y171159D01*
X350684Y171211D01*
X350657Y171266D01*
X350562Y171400D01*
X350473Y171538D01*
X350421Y171596D01*
X350395Y171632D01*
X350352Y171675D01*
X350266Y171772D01*
X350062Y171975D01*
X349936Y172081D01*
X349815Y172193D01*
X349764Y172225D01*
X349717Y172264D01*
X349574Y172346D01*
X349435Y172434D01*
X349379Y172457D01*
X349326Y172488D01*
X349171Y172543D01*
X349019Y172605D01*
X348959Y172618D01*
X348902Y172639D01*
X348740Y172665D01*
X348578Y172700D01*
X348501Y172705D01*
X348457Y172712D01*
X348397Y172711D01*
X348267Y172719D01*
X347303Y172719D01*
X347186Y172709D01*
X347069Y172709D01*
X346963Y172689D01*
X346854Y172679D01*
X346741Y172649D01*
X346626Y172628D01*
X346480Y172577D01*
X346420Y172561D01*
X346407Y172555D01*
X346402Y172553D01*
X346400Y172553D01*
X346378Y172542D01*
X346331Y172526D01*
X344703Y171852D01*
X343250Y171852D01*
X341622Y172526D01*
X341511Y172561D01*
X341403Y172605D01*
X341296Y172628D01*
X341193Y172661D01*
X341077Y172675D01*
X340962Y172700D01*
X340809Y172710D01*
X340746Y172717D01*
X340710Y172716D01*
X340651Y172719D01*
X314960Y172719D01*
X314926Y172716D01*
X314891Y172718D01*
X314702Y172696D01*
X314512Y172679D01*
X314478Y172670D01*
X314444Y172666D01*
X314261Y172611D01*
X314077Y172561D01*
X314046Y172546D01*
X314013Y172536D01*
X313842Y172449D01*
X313671Y172367D01*
X313642Y172347D01*
X313611Y172332D01*
X313459Y172216D01*
X313304Y172105D01*
X313280Y172080D01*
X313253Y172060D01*
X313124Y171920D01*
X312990Y171783D01*
X312971Y171754D01*
X312948Y171728D01*
X312845Y171567D01*
X312738Y171410D01*
X312724Y171378D01*
X312706Y171349D01*
X312633Y171172D01*
X312556Y170998D01*
X312548Y170964D01*
X312535Y170932D01*
X312495Y170745D01*
X312449Y170560D01*
X312447Y170526D01*
X312440Y170492D01*
X312421Y170180D01*
X312421Y142240D01*
X312424Y142206D01*
X312422Y142171D01*
X312444Y141982D01*
X312461Y141792D01*
X312470Y141758D01*
X312474Y141724D01*
X312529Y141541D01*
X312579Y141357D01*
X312594Y141326D01*
X312604Y141293D01*
X312691Y141122D01*
X312773Y140951D01*
X312793Y140922D01*
X312808Y140891D01*
X312924Y140739D01*
X313035Y140584D01*
X313060Y140560D01*
X313080Y140533D01*
X313221Y140404D01*
X313357Y140270D01*
X313386Y140251D01*
X313412Y140228D01*
X313573Y140125D01*
X313730Y140018D01*
X313762Y140004D01*
X313791Y139986D01*
X313968Y139913D01*
X314142Y139836D01*
X314176Y139828D01*
X314208Y139815D01*
X314395Y139775D01*
X314580Y139729D01*
X314614Y139727D01*
X314648Y139720D01*
X314960Y139701D01*
X326670Y139701D01*
X326704Y139704D01*
G37*
G36*
X391685Y139704D02*
X391685Y139704D01*
X391719Y139702D01*
X391908Y139724D01*
X392099Y139741D01*
X392132Y139750D01*
X392166Y139754D01*
X392349Y139809D01*
X392533Y139859D01*
X392564Y139874D01*
X392597Y139884D01*
X392768Y139971D01*
X392940Y140053D01*
X392968Y140073D01*
X392999Y140088D01*
X393151Y140204D01*
X393306Y140315D01*
X393330Y140340D01*
X393357Y140360D01*
X393486Y140501D01*
X393620Y140637D01*
X393639Y140666D01*
X393663Y140692D01*
X393765Y140853D01*
X393872Y141010D01*
X393886Y141042D01*
X393904Y141071D01*
X393977Y141248D01*
X394054Y141422D01*
X394062Y141456D01*
X394075Y141488D01*
X394115Y141675D01*
X394161Y141860D01*
X394163Y141894D01*
X394170Y141928D01*
X394189Y142240D01*
X394189Y164593D01*
X394182Y164675D01*
X394184Y164757D01*
X394162Y164899D01*
X394149Y165042D01*
X394128Y165121D01*
X394115Y165202D01*
X394069Y165338D01*
X394031Y165476D01*
X393995Y165550D01*
X393969Y165628D01*
X393899Y165753D01*
X393837Y165883D01*
X393790Y165949D01*
X393749Y166021D01*
X393659Y166132D01*
X393575Y166249D01*
X393516Y166306D01*
X393464Y166370D01*
X393355Y166463D01*
X393253Y166563D01*
X393184Y166609D01*
X393122Y166662D01*
X392998Y166735D01*
X392880Y166815D01*
X392804Y166848D01*
X392733Y166890D01*
X392599Y166939D01*
X392468Y166997D01*
X392388Y167017D01*
X392310Y167045D01*
X392169Y167070D01*
X392030Y167104D01*
X391948Y167109D01*
X391867Y167123D01*
X391724Y167123D01*
X391581Y167131D01*
X391499Y167122D01*
X391417Y167122D01*
X391276Y167096D01*
X391134Y167079D01*
X391055Y167055D01*
X390974Y167041D01*
X390740Y166960D01*
X390703Y166949D01*
X390693Y166944D01*
X390678Y166939D01*
X389661Y166518D01*
X388208Y166518D01*
X386867Y167073D01*
X381964Y171976D01*
X381839Y172081D01*
X381717Y172193D01*
X381666Y172225D01*
X381619Y172264D01*
X381477Y172346D01*
X381338Y172434D01*
X381281Y172458D01*
X381228Y172488D01*
X381073Y172543D01*
X380921Y172605D01*
X380861Y172618D01*
X380804Y172639D01*
X380642Y172665D01*
X380481Y172700D01*
X380404Y172705D01*
X380360Y172712D01*
X380299Y172711D01*
X380169Y172719D01*
X362933Y172719D01*
X362769Y172705D01*
X362605Y172698D01*
X362545Y172685D01*
X362484Y172679D01*
X362325Y172636D01*
X362165Y172600D01*
X362109Y172577D01*
X362050Y172561D01*
X361902Y172490D01*
X361750Y172427D01*
X361698Y172394D01*
X361643Y172367D01*
X361510Y172272D01*
X361371Y172182D01*
X361314Y172131D01*
X361277Y172105D01*
X361276Y172104D01*
X361270Y172098D01*
X361269Y172097D01*
X361233Y172060D01*
X361137Y171975D01*
X360934Y171772D01*
X360829Y171646D01*
X360717Y171526D01*
X360685Y171474D01*
X360645Y171427D01*
X360564Y171284D01*
X360476Y171146D01*
X360452Y171089D01*
X360422Y171036D01*
X360367Y170881D01*
X360305Y170729D01*
X360292Y170669D01*
X360271Y170612D01*
X360245Y170450D01*
X360210Y170289D01*
X360205Y170212D01*
X360198Y170168D01*
X360199Y170107D01*
X360191Y169977D01*
X360191Y142240D01*
X360194Y142206D01*
X360192Y142171D01*
X360214Y141982D01*
X360231Y141792D01*
X360240Y141758D01*
X360244Y141724D01*
X360299Y141541D01*
X360349Y141357D01*
X360364Y141326D01*
X360374Y141293D01*
X360461Y141122D01*
X360543Y140951D01*
X360563Y140922D01*
X360578Y140891D01*
X360694Y140739D01*
X360805Y140584D01*
X360830Y140560D01*
X360850Y140533D01*
X360990Y140404D01*
X361127Y140270D01*
X361156Y140251D01*
X361182Y140228D01*
X361343Y140125D01*
X361500Y140018D01*
X361532Y140004D01*
X361561Y139986D01*
X361738Y139913D01*
X361912Y139836D01*
X361946Y139828D01*
X361978Y139815D01*
X362165Y139775D01*
X362350Y139729D01*
X362384Y139727D01*
X362418Y139720D01*
X362730Y139701D01*
X391650Y139701D01*
X391685Y139704D01*
G37*
G36*
X470773Y139704D02*
X470773Y139704D01*
X470807Y139702D01*
X470996Y139724D01*
X471187Y139741D01*
X471220Y139750D01*
X471254Y139754D01*
X471437Y139809D01*
X471621Y139859D01*
X471652Y139874D01*
X471685Y139884D01*
X471856Y139971D01*
X472028Y140053D01*
X472056Y140073D01*
X472087Y140088D01*
X472239Y140204D01*
X472394Y140315D01*
X472418Y140340D01*
X472445Y140360D01*
X472574Y140501D01*
X472708Y140637D01*
X472727Y140666D01*
X472751Y140692D01*
X472853Y140853D01*
X472960Y141010D01*
X472974Y141042D01*
X472992Y141071D01*
X473065Y141248D01*
X473142Y141422D01*
X473150Y141456D01*
X473163Y141488D01*
X473203Y141675D01*
X473249Y141860D01*
X473251Y141894D01*
X473258Y141928D01*
X473277Y142240D01*
X473277Y163212D01*
X473899Y164713D01*
X477571Y168384D01*
X477654Y168484D01*
X477745Y168577D01*
X477798Y168657D01*
X477860Y168730D01*
X477924Y168843D01*
X477997Y168950D01*
X478036Y169038D01*
X478083Y169121D01*
X478126Y169243D01*
X478179Y169362D01*
X478202Y169455D01*
X478234Y169545D01*
X478255Y169674D01*
X478286Y169800D01*
X478292Y169895D01*
X478307Y169989D01*
X478305Y170120D01*
X478313Y170249D01*
X478302Y170344D01*
X478301Y170440D01*
X478276Y170567D01*
X478261Y170696D01*
X478234Y170788D01*
X478216Y170882D01*
X478169Y171003D01*
X478131Y171127D01*
X478088Y171212D01*
X478053Y171302D01*
X477986Y171413D01*
X477927Y171529D01*
X477869Y171605D01*
X477819Y171686D01*
X477733Y171784D01*
X477655Y171887D01*
X477584Y171952D01*
X477521Y172024D01*
X477419Y172104D01*
X477324Y172193D01*
X477243Y172244D01*
X477168Y172303D01*
X477054Y172364D01*
X476944Y172434D01*
X476855Y172471D01*
X476771Y172516D01*
X476648Y172556D01*
X476527Y172605D01*
X476434Y172625D01*
X476343Y172655D01*
X476214Y172673D01*
X476087Y172700D01*
X475957Y172708D01*
X475897Y172716D01*
X475852Y172715D01*
X475837Y172715D01*
X475831Y172716D01*
X475826Y172716D01*
X475775Y172719D01*
X475709Y172719D01*
X475545Y172705D01*
X475381Y172698D01*
X475321Y172685D01*
X475260Y172679D01*
X475102Y172636D01*
X474941Y172600D01*
X474885Y172577D01*
X474826Y172561D01*
X474678Y172490D01*
X474526Y172427D01*
X474474Y172394D01*
X474419Y172367D01*
X474286Y172272D01*
X474147Y172182D01*
X474090Y172131D01*
X474053Y172105D01*
X474052Y172104D01*
X474046Y172098D01*
X474045Y172097D01*
X474009Y172060D01*
X473913Y171975D01*
X473737Y171799D01*
X472236Y171177D01*
X460912Y171177D01*
X460830Y171170D01*
X460748Y171172D01*
X460606Y171150D01*
X460463Y171137D01*
X460384Y171116D01*
X460303Y171103D01*
X460167Y171057D01*
X460029Y171019D01*
X459955Y170983D01*
X459877Y170957D01*
X459752Y170887D01*
X459622Y170825D01*
X459556Y170778D01*
X459484Y170737D01*
X459373Y170647D01*
X459256Y170563D01*
X459199Y170504D01*
X459135Y170452D01*
X459042Y170343D01*
X458942Y170241D01*
X458896Y170172D01*
X458843Y170110D01*
X458770Y169986D01*
X458690Y169868D01*
X458657Y169792D01*
X458615Y169721D01*
X458566Y169587D01*
X458508Y169456D01*
X458488Y169376D01*
X458460Y169298D01*
X458435Y169157D01*
X458401Y169018D01*
X458396Y168936D01*
X458382Y168855D01*
X458382Y168712D01*
X458374Y168569D01*
X458383Y168487D01*
X458383Y168405D01*
X458409Y168264D01*
X458426Y168122D01*
X458450Y168043D01*
X458464Y167962D01*
X458545Y167729D01*
X458556Y167691D01*
X458561Y167681D01*
X458566Y167666D01*
X459251Y166013D01*
X459251Y142240D01*
X459254Y142206D01*
X459252Y142171D01*
X459274Y141982D01*
X459291Y141792D01*
X459300Y141758D01*
X459304Y141724D01*
X459359Y141541D01*
X459409Y141357D01*
X459424Y141326D01*
X459434Y141293D01*
X459521Y141122D01*
X459603Y140951D01*
X459623Y140922D01*
X459638Y140891D01*
X459754Y140739D01*
X459865Y140584D01*
X459890Y140560D01*
X459910Y140533D01*
X460050Y140404D01*
X460187Y140270D01*
X460216Y140251D01*
X460242Y140228D01*
X460403Y140125D01*
X460560Y140018D01*
X460592Y140004D01*
X460621Y139986D01*
X460798Y139913D01*
X460972Y139836D01*
X461006Y139828D01*
X461038Y139815D01*
X461225Y139775D01*
X461410Y139729D01*
X461444Y139727D01*
X461478Y139720D01*
X461790Y139701D01*
X470738Y139701D01*
X470773Y139704D01*
G37*
G36*
X491179Y139715D02*
X491179Y139715D01*
X491343Y139722D01*
X491403Y139735D01*
X491464Y139741D01*
X491622Y139784D01*
X491783Y139820D01*
X491839Y139843D01*
X491898Y139859D01*
X492046Y139930D01*
X492198Y139993D01*
X492250Y140026D01*
X492305Y140053D01*
X492438Y140148D01*
X492576Y140238D01*
X492634Y140289D01*
X492671Y140315D01*
X492713Y140358D01*
X492811Y140444D01*
X495808Y143441D01*
X495913Y143568D01*
X496025Y143688D01*
X496057Y143740D01*
X496096Y143787D01*
X496178Y143929D01*
X496266Y144068D01*
X496290Y144125D01*
X496320Y144178D01*
X496375Y144333D01*
X496437Y144485D01*
X496450Y144544D01*
X496471Y144602D01*
X496497Y144764D01*
X496532Y144925D01*
X496537Y145002D01*
X496544Y145046D01*
X496543Y145107D01*
X496551Y145237D01*
X496551Y169687D01*
X496540Y169817D01*
X496538Y169947D01*
X496520Y170040D01*
X496511Y170136D01*
X496477Y170261D01*
X496452Y170389D01*
X496418Y170478D01*
X496393Y170570D01*
X496337Y170687D01*
X496290Y170809D01*
X496240Y170891D01*
X496199Y170977D01*
X496124Y171082D01*
X496056Y171193D01*
X495993Y171265D01*
X495937Y171343D01*
X495844Y171434D01*
X495758Y171531D01*
X495683Y171590D01*
X495615Y171657D01*
X495507Y171730D01*
X495405Y171810D01*
X495321Y171855D01*
X495242Y171909D01*
X495123Y171961D01*
X495008Y172023D01*
X494917Y172052D01*
X494830Y172091D01*
X494703Y172122D01*
X494580Y172162D01*
X494485Y172175D01*
X494392Y172198D01*
X494263Y172206D01*
X494134Y172223D01*
X494038Y172220D01*
X493943Y172225D01*
X493814Y172210D01*
X493684Y172205D01*
X493591Y172184D01*
X493496Y172173D01*
X493371Y172136D01*
X493244Y172108D01*
X493156Y172071D01*
X493065Y172043D01*
X492949Y171984D01*
X492829Y171934D01*
X492748Y171882D01*
X492663Y171839D01*
X492560Y171760D01*
X492451Y171690D01*
X492353Y171603D01*
X492305Y171567D01*
X492274Y171534D01*
X492216Y171483D01*
X482186Y161453D01*
X482081Y161326D01*
X481969Y161206D01*
X481937Y161154D01*
X481898Y161107D01*
X481816Y160965D01*
X481728Y160826D01*
X481704Y160769D01*
X481674Y160716D01*
X481619Y160561D01*
X481557Y160409D01*
X481544Y160350D01*
X481523Y160292D01*
X481497Y160130D01*
X481462Y159969D01*
X481457Y159892D01*
X481450Y159848D01*
X481451Y159787D01*
X481443Y159657D01*
X481443Y142240D01*
X481446Y142206D01*
X481444Y142171D01*
X481466Y141982D01*
X481483Y141792D01*
X481492Y141758D01*
X481496Y141724D01*
X481551Y141541D01*
X481601Y141357D01*
X481616Y141326D01*
X481626Y141293D01*
X481713Y141122D01*
X481795Y140951D01*
X481815Y140922D01*
X481830Y140891D01*
X481946Y140739D01*
X482057Y140584D01*
X482082Y140560D01*
X482102Y140533D01*
X482242Y140404D01*
X482379Y140270D01*
X482408Y140251D01*
X482434Y140228D01*
X482595Y140125D01*
X482752Y140018D01*
X482784Y140004D01*
X482813Y139986D01*
X482990Y139913D01*
X483164Y139836D01*
X483198Y139828D01*
X483230Y139815D01*
X483417Y139775D01*
X483602Y139729D01*
X483636Y139727D01*
X483670Y139720D01*
X483982Y139701D01*
X491015Y139701D01*
X491179Y139715D01*
G37*
D10*
X32060Y312218D02*
X39760Y312218D01*
X39760Y304518D01*
X32060Y304518D01*
X32060Y312218D01*
X32060Y307653D02*
X39760Y307653D01*
X39760Y310788D02*
X32060Y310788D01*
X19760Y312218D02*
X12060Y312218D01*
X19760Y312218D02*
X19760Y304518D01*
X12060Y304518D01*
X12060Y312218D01*
X12060Y307653D02*
X19760Y307653D01*
X19760Y310788D02*
X12060Y310788D01*
D11*
X20840Y498800D03*
X40840Y498800D03*
D10*
X76804Y502368D02*
X84504Y502368D01*
X84504Y494668D01*
X76804Y494668D01*
X76804Y502368D01*
X76804Y497803D02*
X84504Y497803D01*
X84504Y500938D02*
X76804Y500938D01*
X64504Y502368D02*
X56804Y502368D01*
X64504Y502368D02*
X64504Y494668D01*
X56804Y494668D01*
X56804Y502368D01*
X56804Y497803D02*
X64504Y497803D01*
X64504Y500938D02*
X56804Y500938D01*
X149458Y476760D02*
X157158Y476760D01*
X157158Y469060D01*
X149458Y469060D01*
X149458Y476760D01*
X149458Y472195D02*
X157158Y472195D01*
X157158Y475330D02*
X149458Y475330D01*
X137158Y476760D02*
X129458Y476760D01*
X137158Y476760D02*
X137158Y469060D01*
X129458Y469060D01*
X129458Y476760D01*
X129458Y472195D02*
X137158Y472195D01*
X137158Y475330D02*
X129458Y475330D01*
X145566Y354622D02*
X145566Y346922D01*
X137866Y346922D01*
X137866Y354622D01*
X145566Y354622D01*
X145566Y350057D02*
X137866Y350057D01*
X137866Y353192D02*
X145566Y353192D01*
X145566Y366922D02*
X145566Y374622D01*
X145566Y366922D02*
X137866Y366922D01*
X137866Y374622D01*
X145566Y374622D01*
X145566Y370057D02*
X137866Y370057D01*
X137866Y373192D02*
X145566Y373192D01*
X152186Y61414D02*
X152186Y53714D01*
X144486Y53714D01*
X144486Y61414D01*
X152186Y61414D01*
X152186Y56849D02*
X144486Y56849D01*
X144486Y59984D02*
X152186Y59984D01*
X152186Y73714D02*
X152186Y81414D01*
X152186Y73714D02*
X144486Y73714D01*
X144486Y81414D01*
X152186Y81414D01*
X152186Y76849D02*
X144486Y76849D01*
X144486Y79984D02*
X152186Y79984D01*
D12*
X100376Y307291D02*
X87576Y307291D01*
X87576Y322121D01*
X100376Y322121D01*
X100376Y307291D01*
X100376Y310331D02*
X87576Y310331D01*
X87576Y313371D02*
X100376Y313371D01*
X100376Y316411D02*
X87576Y316411D01*
X87576Y319451D02*
X100376Y319451D01*
X71936Y307291D02*
X59136Y307291D01*
X59136Y322121D01*
X71936Y322121D01*
X71936Y307291D01*
X71936Y310331D02*
X59136Y310331D01*
X59136Y313371D02*
X71936Y313371D01*
X71936Y316411D02*
X59136Y316411D01*
X59136Y319451D02*
X71936Y319451D01*
D10*
X54062Y124594D02*
X54062Y116894D01*
X54062Y124594D02*
X61762Y124594D01*
X61762Y116894D01*
X54062Y116894D01*
X54062Y120029D02*
X61762Y120029D01*
X61762Y123164D02*
X54062Y123164D01*
X54062Y104594D02*
X54062Y96894D01*
X54062Y104594D02*
X61762Y104594D01*
X61762Y96894D01*
X54062Y96894D01*
X54062Y100029D02*
X61762Y100029D01*
X61762Y103164D02*
X54062Y103164D01*
X238306Y304332D02*
X246006Y304332D01*
X246006Y296632D01*
X238306Y296632D01*
X238306Y304332D01*
X238306Y299767D02*
X246006Y299767D01*
X246006Y302902D02*
X238306Y302902D01*
X226006Y304332D02*
X218306Y304332D01*
X226006Y304332D02*
X226006Y296632D01*
X218306Y296632D01*
X218306Y304332D01*
X218306Y299767D02*
X226006Y299767D01*
X226006Y302902D02*
X218306Y302902D01*
X218320Y365292D02*
X210620Y365292D01*
X218320Y365292D02*
X218320Y357592D01*
X210620Y357592D01*
X210620Y365292D01*
X210620Y360727D02*
X218320Y360727D01*
X218320Y363862D02*
X210620Y363862D01*
X198320Y365292D02*
X190620Y365292D01*
X198320Y365292D02*
X198320Y357592D01*
X190620Y357592D01*
X190620Y365292D01*
X190620Y360727D02*
X198320Y360727D01*
X198320Y363862D02*
X190620Y363862D01*
X226942Y357592D02*
X234642Y357592D01*
X226942Y357592D02*
X226942Y365292D01*
X234642Y365292D01*
X234642Y357592D01*
X234642Y360727D02*
X226942Y360727D01*
X226942Y363862D02*
X234642Y363862D01*
X246942Y357592D02*
X254642Y357592D01*
X246942Y357592D02*
X246942Y365292D01*
X254642Y365292D01*
X254642Y357592D01*
X254642Y360727D02*
X246942Y360727D01*
X246942Y363862D02*
X254642Y363862D01*
D12*
X51513Y235258D02*
X51513Y222458D01*
X51513Y235258D02*
X66343Y235258D01*
X66343Y222458D01*
X51513Y222458D01*
X51513Y225498D02*
X66343Y225498D01*
X66343Y228538D02*
X51513Y228538D01*
X51513Y231578D02*
X66343Y231578D01*
X66343Y234618D02*
X51513Y234618D01*
X51513Y250898D02*
X51513Y263698D01*
X66343Y263698D01*
X66343Y250898D01*
X51513Y250898D01*
X51513Y253938D02*
X66343Y253938D01*
X66343Y256978D02*
X51513Y256978D01*
X51513Y260018D02*
X66343Y260018D01*
X66343Y263058D02*
X51513Y263058D01*
D13*
X75774Y225268D02*
X99074Y225268D01*
X75774Y225268D02*
X75774Y240568D01*
X99074Y240568D01*
X99074Y225268D01*
X99074Y226883D02*
X75774Y226883D01*
X75774Y228498D02*
X99074Y228498D01*
X99074Y230113D02*
X75774Y230113D01*
X75774Y231728D02*
X99074Y231728D01*
X99074Y233343D02*
X75774Y233343D01*
X75774Y234958D02*
X99074Y234958D01*
X99074Y236573D02*
X75774Y236573D01*
X75774Y238188D02*
X99074Y238188D01*
X99074Y239803D02*
X75774Y239803D01*
X119874Y225268D02*
X143174Y225268D01*
X119874Y225268D02*
X119874Y240568D01*
X143174Y240568D01*
X143174Y225268D01*
X143174Y226883D02*
X119874Y226883D01*
X119874Y228498D02*
X143174Y228498D01*
X143174Y230113D02*
X119874Y230113D01*
X119874Y231728D02*
X143174Y231728D01*
X143174Y233343D02*
X119874Y233343D01*
X119874Y234958D02*
X143174Y234958D01*
X143174Y236573D02*
X119874Y236573D01*
X119874Y238188D02*
X143174Y238188D01*
X143174Y239803D02*
X119874Y239803D01*
D14*
X51316Y398102D02*
X44176Y398102D01*
X51316Y398102D02*
X51316Y394262D01*
X44176Y394262D01*
X44176Y398102D01*
X44176Y379102D02*
X51316Y379102D01*
X51316Y375262D01*
X44176Y375262D01*
X44176Y379102D01*
X63376Y384762D02*
X70516Y384762D01*
X63376Y384762D02*
X63376Y388602D01*
X70516Y388602D01*
X70516Y384762D01*
D13*
X176754Y79166D02*
X176754Y55866D01*
X176754Y79166D02*
X192054Y79166D01*
X192054Y55866D01*
X176754Y55866D01*
X176754Y57481D02*
X192054Y57481D01*
X192054Y59096D02*
X176754Y59096D01*
X176754Y60711D02*
X192054Y60711D01*
X192054Y62326D02*
X176754Y62326D01*
X176754Y63941D02*
X192054Y63941D01*
X192054Y65556D02*
X176754Y65556D01*
X176754Y67171D02*
X192054Y67171D01*
X192054Y68786D02*
X176754Y68786D01*
X176754Y70401D02*
X192054Y70401D01*
X192054Y72016D02*
X176754Y72016D01*
X176754Y73631D02*
X192054Y73631D01*
X192054Y75246D02*
X176754Y75246D01*
X176754Y76861D02*
X192054Y76861D01*
X192054Y78476D02*
X176754Y78476D01*
X176754Y35066D02*
X176754Y11766D01*
X176754Y35066D02*
X192054Y35066D01*
X192054Y11766D01*
X176754Y11766D01*
X176754Y13381D02*
X192054Y13381D01*
X192054Y14996D02*
X176754Y14996D01*
X176754Y16611D02*
X192054Y16611D01*
X192054Y18226D02*
X176754Y18226D01*
X176754Y19841D02*
X192054Y19841D01*
X192054Y21456D02*
X176754Y21456D01*
X176754Y23071D02*
X192054Y23071D01*
X192054Y24686D02*
X176754Y24686D01*
X176754Y26301D02*
X192054Y26301D01*
X192054Y27916D02*
X176754Y27916D01*
X176754Y29531D02*
X192054Y29531D01*
X192054Y31146D02*
X176754Y31146D01*
X176754Y32761D02*
X192054Y32761D01*
X192054Y34376D02*
X176754Y34376D01*
D15*
X181182Y416464D03*
X181182Y393464D03*
D16*
X200060Y293330D03*
X200060Y337330D03*
D17*
X51184Y414096D02*
X51184Y429296D01*
X51184Y414096D02*
X45484Y414096D01*
X45484Y429296D01*
X51184Y429296D01*
X51184Y414381D02*
X45484Y414381D01*
X45484Y414666D02*
X51184Y414666D01*
X51184Y414951D02*
X45484Y414951D01*
X45484Y415236D02*
X51184Y415236D01*
X51184Y415521D02*
X45484Y415521D01*
X45484Y415806D02*
X51184Y415806D01*
X51184Y416091D02*
X45484Y416091D01*
X45484Y416376D02*
X51184Y416376D01*
X51184Y416661D02*
X45484Y416661D01*
X45484Y416946D02*
X51184Y416946D01*
X51184Y417231D02*
X45484Y417231D01*
X45484Y417516D02*
X51184Y417516D01*
X51184Y417801D02*
X45484Y417801D01*
X45484Y418086D02*
X51184Y418086D01*
X51184Y418371D02*
X45484Y418371D01*
X45484Y418656D02*
X51184Y418656D01*
X51184Y418941D02*
X45484Y418941D01*
X45484Y419226D02*
X51184Y419226D01*
X51184Y419511D02*
X45484Y419511D01*
X45484Y419796D02*
X51184Y419796D01*
X51184Y420081D02*
X45484Y420081D01*
X45484Y420366D02*
X51184Y420366D01*
X51184Y420651D02*
X45484Y420651D01*
X45484Y420936D02*
X51184Y420936D01*
X51184Y421221D02*
X45484Y421221D01*
X45484Y421506D02*
X51184Y421506D01*
X51184Y421791D02*
X45484Y421791D01*
X45484Y422076D02*
X51184Y422076D01*
X51184Y422361D02*
X45484Y422361D01*
X45484Y422646D02*
X51184Y422646D01*
X51184Y422931D02*
X45484Y422931D01*
X45484Y423216D02*
X51184Y423216D01*
X51184Y423501D02*
X45484Y423501D01*
X45484Y423786D02*
X51184Y423786D01*
X51184Y424071D02*
X45484Y424071D01*
X45484Y424356D02*
X51184Y424356D01*
X51184Y424641D02*
X45484Y424641D01*
X45484Y424926D02*
X51184Y424926D01*
X51184Y425211D02*
X45484Y425211D01*
X45484Y425496D02*
X51184Y425496D01*
X51184Y425781D02*
X45484Y425781D01*
X45484Y426066D02*
X51184Y426066D01*
X51184Y426351D02*
X45484Y426351D01*
X45484Y426636D02*
X51184Y426636D01*
X51184Y426921D02*
X45484Y426921D01*
X45484Y427206D02*
X51184Y427206D01*
X51184Y427491D02*
X45484Y427491D01*
X45484Y427776D02*
X51184Y427776D01*
X51184Y428061D02*
X45484Y428061D01*
X45484Y428346D02*
X51184Y428346D01*
X51184Y428631D02*
X45484Y428631D01*
X45484Y428916D02*
X51184Y428916D01*
X51184Y429201D02*
X45484Y429201D01*
X63884Y429296D02*
X63884Y414096D01*
X58184Y414096D01*
X58184Y429296D01*
X63884Y429296D01*
X63884Y414381D02*
X58184Y414381D01*
X58184Y414666D02*
X63884Y414666D01*
X63884Y414951D02*
X58184Y414951D01*
X58184Y415236D02*
X63884Y415236D01*
X63884Y415521D02*
X58184Y415521D01*
X58184Y415806D02*
X63884Y415806D01*
X63884Y416091D02*
X58184Y416091D01*
X58184Y416376D02*
X63884Y416376D01*
X63884Y416661D02*
X58184Y416661D01*
X58184Y416946D02*
X63884Y416946D01*
X63884Y417231D02*
X58184Y417231D01*
X58184Y417516D02*
X63884Y417516D01*
X63884Y417801D02*
X58184Y417801D01*
X58184Y418086D02*
X63884Y418086D01*
X63884Y418371D02*
X58184Y418371D01*
X58184Y418656D02*
X63884Y418656D01*
X63884Y418941D02*
X58184Y418941D01*
X58184Y419226D02*
X63884Y419226D01*
X63884Y419511D02*
X58184Y419511D01*
X58184Y419796D02*
X63884Y419796D01*
X63884Y420081D02*
X58184Y420081D01*
X58184Y420366D02*
X63884Y420366D01*
X63884Y420651D02*
X58184Y420651D01*
X58184Y420936D02*
X63884Y420936D01*
X63884Y421221D02*
X58184Y421221D01*
X58184Y421506D02*
X63884Y421506D01*
X63884Y421791D02*
X58184Y421791D01*
X58184Y422076D02*
X63884Y422076D01*
X63884Y422361D02*
X58184Y422361D01*
X58184Y422646D02*
X63884Y422646D01*
X63884Y422931D02*
X58184Y422931D01*
X58184Y423216D02*
X63884Y423216D01*
X63884Y423501D02*
X58184Y423501D01*
X58184Y423786D02*
X63884Y423786D01*
X63884Y424071D02*
X58184Y424071D01*
X58184Y424356D02*
X63884Y424356D01*
X63884Y424641D02*
X58184Y424641D01*
X58184Y424926D02*
X63884Y424926D01*
X63884Y425211D02*
X58184Y425211D01*
X58184Y425496D02*
X63884Y425496D01*
X63884Y425781D02*
X58184Y425781D01*
X58184Y426066D02*
X63884Y426066D01*
X63884Y426351D02*
X58184Y426351D01*
X58184Y426636D02*
X63884Y426636D01*
X63884Y426921D02*
X58184Y426921D01*
X58184Y427206D02*
X63884Y427206D01*
X63884Y427491D02*
X58184Y427491D01*
X58184Y427776D02*
X63884Y427776D01*
X63884Y428061D02*
X58184Y428061D01*
X58184Y428346D02*
X63884Y428346D01*
X63884Y428631D02*
X58184Y428631D01*
X58184Y428916D02*
X63884Y428916D01*
X63884Y429201D02*
X58184Y429201D01*
X76584Y429296D02*
X76584Y414096D01*
X70884Y414096D01*
X70884Y429296D01*
X76584Y429296D01*
X76584Y414381D02*
X70884Y414381D01*
X70884Y414666D02*
X76584Y414666D01*
X76584Y414951D02*
X70884Y414951D01*
X70884Y415236D02*
X76584Y415236D01*
X76584Y415521D02*
X70884Y415521D01*
X70884Y415806D02*
X76584Y415806D01*
X76584Y416091D02*
X70884Y416091D01*
X70884Y416376D02*
X76584Y416376D01*
X76584Y416661D02*
X70884Y416661D01*
X70884Y416946D02*
X76584Y416946D01*
X76584Y417231D02*
X70884Y417231D01*
X70884Y417516D02*
X76584Y417516D01*
X76584Y417801D02*
X70884Y417801D01*
X70884Y418086D02*
X76584Y418086D01*
X76584Y418371D02*
X70884Y418371D01*
X70884Y418656D02*
X76584Y418656D01*
X76584Y418941D02*
X70884Y418941D01*
X70884Y419226D02*
X76584Y419226D01*
X76584Y419511D02*
X70884Y419511D01*
X70884Y419796D02*
X76584Y419796D01*
X76584Y420081D02*
X70884Y420081D01*
X70884Y420366D02*
X76584Y420366D01*
X76584Y420651D02*
X70884Y420651D01*
X70884Y420936D02*
X76584Y420936D01*
X76584Y421221D02*
X70884Y421221D01*
X70884Y421506D02*
X76584Y421506D01*
X76584Y421791D02*
X70884Y421791D01*
X70884Y422076D02*
X76584Y422076D01*
X76584Y422361D02*
X70884Y422361D01*
X70884Y422646D02*
X76584Y422646D01*
X76584Y422931D02*
X70884Y422931D01*
X70884Y423216D02*
X76584Y423216D01*
X76584Y423501D02*
X70884Y423501D01*
X70884Y423786D02*
X76584Y423786D01*
X76584Y424071D02*
X70884Y424071D01*
X70884Y424356D02*
X76584Y424356D01*
X76584Y424641D02*
X70884Y424641D01*
X70884Y424926D02*
X76584Y424926D01*
X76584Y425211D02*
X70884Y425211D01*
X70884Y425496D02*
X76584Y425496D01*
X76584Y425781D02*
X70884Y425781D01*
X70884Y426066D02*
X76584Y426066D01*
X76584Y426351D02*
X70884Y426351D01*
X70884Y426636D02*
X76584Y426636D01*
X76584Y426921D02*
X70884Y426921D01*
X70884Y427206D02*
X76584Y427206D01*
X76584Y427491D02*
X70884Y427491D01*
X70884Y427776D02*
X76584Y427776D01*
X76584Y428061D02*
X70884Y428061D01*
X70884Y428346D02*
X76584Y428346D01*
X76584Y428631D02*
X70884Y428631D01*
X70884Y428916D02*
X76584Y428916D01*
X76584Y429201D02*
X70884Y429201D01*
X89284Y429296D02*
X89284Y414096D01*
X83584Y414096D01*
X83584Y429296D01*
X89284Y429296D01*
X89284Y414381D02*
X83584Y414381D01*
X83584Y414666D02*
X89284Y414666D01*
X89284Y414951D02*
X83584Y414951D01*
X83584Y415236D02*
X89284Y415236D01*
X89284Y415521D02*
X83584Y415521D01*
X83584Y415806D02*
X89284Y415806D01*
X89284Y416091D02*
X83584Y416091D01*
X83584Y416376D02*
X89284Y416376D01*
X89284Y416661D02*
X83584Y416661D01*
X83584Y416946D02*
X89284Y416946D01*
X89284Y417231D02*
X83584Y417231D01*
X83584Y417516D02*
X89284Y417516D01*
X89284Y417801D02*
X83584Y417801D01*
X83584Y418086D02*
X89284Y418086D01*
X89284Y418371D02*
X83584Y418371D01*
X83584Y418656D02*
X89284Y418656D01*
X89284Y418941D02*
X83584Y418941D01*
X83584Y419226D02*
X89284Y419226D01*
X89284Y419511D02*
X83584Y419511D01*
X83584Y419796D02*
X89284Y419796D01*
X89284Y420081D02*
X83584Y420081D01*
X83584Y420366D02*
X89284Y420366D01*
X89284Y420651D02*
X83584Y420651D01*
X83584Y420936D02*
X89284Y420936D01*
X89284Y421221D02*
X83584Y421221D01*
X83584Y421506D02*
X89284Y421506D01*
X89284Y421791D02*
X83584Y421791D01*
X83584Y422076D02*
X89284Y422076D01*
X89284Y422361D02*
X83584Y422361D01*
X83584Y422646D02*
X89284Y422646D01*
X89284Y422931D02*
X83584Y422931D01*
X83584Y423216D02*
X89284Y423216D01*
X89284Y423501D02*
X83584Y423501D01*
X83584Y423786D02*
X89284Y423786D01*
X89284Y424071D02*
X83584Y424071D01*
X83584Y424356D02*
X89284Y424356D01*
X89284Y424641D02*
X83584Y424641D01*
X83584Y424926D02*
X89284Y424926D01*
X89284Y425211D02*
X83584Y425211D01*
X83584Y425496D02*
X89284Y425496D01*
X89284Y425781D02*
X83584Y425781D01*
X83584Y426066D02*
X89284Y426066D01*
X89284Y426351D02*
X83584Y426351D01*
X83584Y426636D02*
X89284Y426636D01*
X89284Y426921D02*
X83584Y426921D01*
X83584Y427206D02*
X89284Y427206D01*
X89284Y427491D02*
X83584Y427491D01*
X83584Y427776D02*
X89284Y427776D01*
X89284Y428061D02*
X83584Y428061D01*
X83584Y428346D02*
X89284Y428346D01*
X89284Y428631D02*
X83584Y428631D01*
X83584Y428916D02*
X89284Y428916D01*
X89284Y429201D02*
X83584Y429201D01*
X89284Y468096D02*
X89284Y483296D01*
X89284Y468096D02*
X83584Y468096D01*
X83584Y483296D01*
X89284Y483296D01*
X89284Y468381D02*
X83584Y468381D01*
X83584Y468666D02*
X89284Y468666D01*
X89284Y468951D02*
X83584Y468951D01*
X83584Y469236D02*
X89284Y469236D01*
X89284Y469521D02*
X83584Y469521D01*
X83584Y469806D02*
X89284Y469806D01*
X89284Y470091D02*
X83584Y470091D01*
X83584Y470376D02*
X89284Y470376D01*
X89284Y470661D02*
X83584Y470661D01*
X83584Y470946D02*
X89284Y470946D01*
X89284Y471231D02*
X83584Y471231D01*
X83584Y471516D02*
X89284Y471516D01*
X89284Y471801D02*
X83584Y471801D01*
X83584Y472086D02*
X89284Y472086D01*
X89284Y472371D02*
X83584Y472371D01*
X83584Y472656D02*
X89284Y472656D01*
X89284Y472941D02*
X83584Y472941D01*
X83584Y473226D02*
X89284Y473226D01*
X89284Y473511D02*
X83584Y473511D01*
X83584Y473796D02*
X89284Y473796D01*
X89284Y474081D02*
X83584Y474081D01*
X83584Y474366D02*
X89284Y474366D01*
X89284Y474651D02*
X83584Y474651D01*
X83584Y474936D02*
X89284Y474936D01*
X89284Y475221D02*
X83584Y475221D01*
X83584Y475506D02*
X89284Y475506D01*
X89284Y475791D02*
X83584Y475791D01*
X83584Y476076D02*
X89284Y476076D01*
X89284Y476361D02*
X83584Y476361D01*
X83584Y476646D02*
X89284Y476646D01*
X89284Y476931D02*
X83584Y476931D01*
X83584Y477216D02*
X89284Y477216D01*
X89284Y477501D02*
X83584Y477501D01*
X83584Y477786D02*
X89284Y477786D01*
X89284Y478071D02*
X83584Y478071D01*
X83584Y478356D02*
X89284Y478356D01*
X89284Y478641D02*
X83584Y478641D01*
X83584Y478926D02*
X89284Y478926D01*
X89284Y479211D02*
X83584Y479211D01*
X83584Y479496D02*
X89284Y479496D01*
X89284Y479781D02*
X83584Y479781D01*
X83584Y480066D02*
X89284Y480066D01*
X89284Y480351D02*
X83584Y480351D01*
X83584Y480636D02*
X89284Y480636D01*
X89284Y480921D02*
X83584Y480921D01*
X83584Y481206D02*
X89284Y481206D01*
X89284Y481491D02*
X83584Y481491D01*
X83584Y481776D02*
X89284Y481776D01*
X89284Y482061D02*
X83584Y482061D01*
X83584Y482346D02*
X89284Y482346D01*
X89284Y482631D02*
X83584Y482631D01*
X83584Y482916D02*
X89284Y482916D01*
X89284Y483201D02*
X83584Y483201D01*
X76584Y483296D02*
X76584Y468096D01*
X70884Y468096D01*
X70884Y483296D01*
X76584Y483296D01*
X76584Y468381D02*
X70884Y468381D01*
X70884Y468666D02*
X76584Y468666D01*
X76584Y468951D02*
X70884Y468951D01*
X70884Y469236D02*
X76584Y469236D01*
X76584Y469521D02*
X70884Y469521D01*
X70884Y469806D02*
X76584Y469806D01*
X76584Y470091D02*
X70884Y470091D01*
X70884Y470376D02*
X76584Y470376D01*
X76584Y470661D02*
X70884Y470661D01*
X70884Y470946D02*
X76584Y470946D01*
X76584Y471231D02*
X70884Y471231D01*
X70884Y471516D02*
X76584Y471516D01*
X76584Y471801D02*
X70884Y471801D01*
X70884Y472086D02*
X76584Y472086D01*
X76584Y472371D02*
X70884Y472371D01*
X70884Y472656D02*
X76584Y472656D01*
X76584Y472941D02*
X70884Y472941D01*
X70884Y473226D02*
X76584Y473226D01*
X76584Y473511D02*
X70884Y473511D01*
X70884Y473796D02*
X76584Y473796D01*
X76584Y474081D02*
X70884Y474081D01*
X70884Y474366D02*
X76584Y474366D01*
X76584Y474651D02*
X70884Y474651D01*
X70884Y474936D02*
X76584Y474936D01*
X76584Y475221D02*
X70884Y475221D01*
X70884Y475506D02*
X76584Y475506D01*
X76584Y475791D02*
X70884Y475791D01*
X70884Y476076D02*
X76584Y476076D01*
X76584Y476361D02*
X70884Y476361D01*
X70884Y476646D02*
X76584Y476646D01*
X76584Y476931D02*
X70884Y476931D01*
X70884Y477216D02*
X76584Y477216D01*
X76584Y477501D02*
X70884Y477501D01*
X70884Y477786D02*
X76584Y477786D01*
X76584Y478071D02*
X70884Y478071D01*
X70884Y478356D02*
X76584Y478356D01*
X76584Y478641D02*
X70884Y478641D01*
X70884Y478926D02*
X76584Y478926D01*
X76584Y479211D02*
X70884Y479211D01*
X70884Y479496D02*
X76584Y479496D01*
X76584Y479781D02*
X70884Y479781D01*
X70884Y480066D02*
X76584Y480066D01*
X76584Y480351D02*
X70884Y480351D01*
X70884Y480636D02*
X76584Y480636D01*
X76584Y480921D02*
X70884Y480921D01*
X70884Y481206D02*
X76584Y481206D01*
X76584Y481491D02*
X70884Y481491D01*
X70884Y481776D02*
X76584Y481776D01*
X76584Y482061D02*
X70884Y482061D01*
X70884Y482346D02*
X76584Y482346D01*
X76584Y482631D02*
X70884Y482631D01*
X70884Y482916D02*
X76584Y482916D01*
X76584Y483201D02*
X70884Y483201D01*
X63884Y483296D02*
X63884Y468096D01*
X58184Y468096D01*
X58184Y483296D01*
X63884Y483296D01*
X63884Y468381D02*
X58184Y468381D01*
X58184Y468666D02*
X63884Y468666D01*
X63884Y468951D02*
X58184Y468951D01*
X58184Y469236D02*
X63884Y469236D01*
X63884Y469521D02*
X58184Y469521D01*
X58184Y469806D02*
X63884Y469806D01*
X63884Y470091D02*
X58184Y470091D01*
X58184Y470376D02*
X63884Y470376D01*
X63884Y470661D02*
X58184Y470661D01*
X58184Y470946D02*
X63884Y470946D01*
X63884Y471231D02*
X58184Y471231D01*
X58184Y471516D02*
X63884Y471516D01*
X63884Y471801D02*
X58184Y471801D01*
X58184Y472086D02*
X63884Y472086D01*
X63884Y472371D02*
X58184Y472371D01*
X58184Y472656D02*
X63884Y472656D01*
X63884Y472941D02*
X58184Y472941D01*
X58184Y473226D02*
X63884Y473226D01*
X63884Y473511D02*
X58184Y473511D01*
X58184Y473796D02*
X63884Y473796D01*
X63884Y474081D02*
X58184Y474081D01*
X58184Y474366D02*
X63884Y474366D01*
X63884Y474651D02*
X58184Y474651D01*
X58184Y474936D02*
X63884Y474936D01*
X63884Y475221D02*
X58184Y475221D01*
X58184Y475506D02*
X63884Y475506D01*
X63884Y475791D02*
X58184Y475791D01*
X58184Y476076D02*
X63884Y476076D01*
X63884Y476361D02*
X58184Y476361D01*
X58184Y476646D02*
X63884Y476646D01*
X63884Y476931D02*
X58184Y476931D01*
X58184Y477216D02*
X63884Y477216D01*
X63884Y477501D02*
X58184Y477501D01*
X58184Y477786D02*
X63884Y477786D01*
X63884Y478071D02*
X58184Y478071D01*
X58184Y478356D02*
X63884Y478356D01*
X63884Y478641D02*
X58184Y478641D01*
X58184Y478926D02*
X63884Y478926D01*
X63884Y479211D02*
X58184Y479211D01*
X58184Y479496D02*
X63884Y479496D01*
X63884Y479781D02*
X58184Y479781D01*
X58184Y480066D02*
X63884Y480066D01*
X63884Y480351D02*
X58184Y480351D01*
X58184Y480636D02*
X63884Y480636D01*
X63884Y480921D02*
X58184Y480921D01*
X58184Y481206D02*
X63884Y481206D01*
X63884Y481491D02*
X58184Y481491D01*
X58184Y481776D02*
X63884Y481776D01*
X63884Y482061D02*
X58184Y482061D01*
X58184Y482346D02*
X63884Y482346D01*
X63884Y482631D02*
X58184Y482631D01*
X58184Y482916D02*
X63884Y482916D01*
X63884Y483201D02*
X58184Y483201D01*
X51184Y483296D02*
X51184Y468096D01*
X45484Y468096D01*
X45484Y483296D01*
X51184Y483296D01*
X51184Y468381D02*
X45484Y468381D01*
X45484Y468666D02*
X51184Y468666D01*
X51184Y468951D02*
X45484Y468951D01*
X45484Y469236D02*
X51184Y469236D01*
X51184Y469521D02*
X45484Y469521D01*
X45484Y469806D02*
X51184Y469806D01*
X51184Y470091D02*
X45484Y470091D01*
X45484Y470376D02*
X51184Y470376D01*
X51184Y470661D02*
X45484Y470661D01*
X45484Y470946D02*
X51184Y470946D01*
X51184Y471231D02*
X45484Y471231D01*
X45484Y471516D02*
X51184Y471516D01*
X51184Y471801D02*
X45484Y471801D01*
X45484Y472086D02*
X51184Y472086D01*
X51184Y472371D02*
X45484Y472371D01*
X45484Y472656D02*
X51184Y472656D01*
X51184Y472941D02*
X45484Y472941D01*
X45484Y473226D02*
X51184Y473226D01*
X51184Y473511D02*
X45484Y473511D01*
X45484Y473796D02*
X51184Y473796D01*
X51184Y474081D02*
X45484Y474081D01*
X45484Y474366D02*
X51184Y474366D01*
X51184Y474651D02*
X45484Y474651D01*
X45484Y474936D02*
X51184Y474936D01*
X51184Y475221D02*
X45484Y475221D01*
X45484Y475506D02*
X51184Y475506D01*
X51184Y475791D02*
X45484Y475791D01*
X45484Y476076D02*
X51184Y476076D01*
X51184Y476361D02*
X45484Y476361D01*
X45484Y476646D02*
X51184Y476646D01*
X51184Y476931D02*
X45484Y476931D01*
X45484Y477216D02*
X51184Y477216D01*
X51184Y477501D02*
X45484Y477501D01*
X45484Y477786D02*
X51184Y477786D01*
X51184Y478071D02*
X45484Y478071D01*
X45484Y478356D02*
X51184Y478356D01*
X51184Y478641D02*
X45484Y478641D01*
X45484Y478926D02*
X51184Y478926D01*
X51184Y479211D02*
X45484Y479211D01*
X45484Y479496D02*
X51184Y479496D01*
X51184Y479781D02*
X45484Y479781D01*
X45484Y480066D02*
X51184Y480066D01*
X51184Y480351D02*
X45484Y480351D01*
X45484Y480636D02*
X51184Y480636D01*
X51184Y480921D02*
X45484Y480921D01*
X45484Y481206D02*
X51184Y481206D01*
X51184Y481491D02*
X45484Y481491D01*
X45484Y481776D02*
X51184Y481776D01*
X51184Y482061D02*
X45484Y482061D01*
X45484Y482346D02*
X51184Y482346D01*
X51184Y482631D02*
X45484Y482631D01*
X45484Y482916D02*
X51184Y482916D01*
X51184Y483201D02*
X45484Y483201D01*
D18*
X67384Y448696D03*
D19*
X47884Y442196D03*
X47884Y455196D03*
X60884Y442196D03*
X60884Y455196D03*
X73884Y442196D03*
X73884Y455196D03*
X86884Y442196D03*
X86884Y455196D03*
D20*
X117630Y403406D02*
X117630Y392906D01*
X117630Y403406D02*
X122130Y403406D01*
X122130Y392906D01*
X117630Y392906D01*
X117630Y394331D02*
X122130Y394331D01*
X122130Y395756D02*
X117630Y395756D01*
X117630Y397181D02*
X122130Y397181D01*
X122130Y398606D02*
X117630Y398606D01*
X117630Y400031D02*
X122130Y400031D01*
X122130Y401456D02*
X117630Y401456D01*
X117630Y402881D02*
X122130Y402881D01*
X108130Y403406D02*
X108130Y392906D01*
X108130Y403406D02*
X112630Y403406D01*
X112630Y392906D01*
X108130Y392906D01*
X108130Y394331D02*
X112630Y394331D01*
X112630Y395756D02*
X108130Y395756D01*
X108130Y397181D02*
X112630Y397181D01*
X112630Y398606D02*
X108130Y398606D01*
X108130Y400031D02*
X112630Y400031D01*
X112630Y401456D02*
X108130Y401456D01*
X108130Y402881D02*
X112630Y402881D01*
X98630Y403406D02*
X98630Y392906D01*
X98630Y403406D02*
X103130Y403406D01*
X103130Y392906D01*
X98630Y392906D01*
X98630Y394331D02*
X103130Y394331D01*
X103130Y395756D02*
X98630Y395756D01*
X98630Y397181D02*
X103130Y397181D01*
X103130Y398606D02*
X98630Y398606D01*
X98630Y400031D02*
X103130Y400031D01*
X103130Y401456D02*
X98630Y401456D01*
X98630Y402881D02*
X103130Y402881D01*
X98630Y377406D02*
X98630Y366906D01*
X98630Y377406D02*
X103130Y377406D01*
X103130Y366906D01*
X98630Y366906D01*
X98630Y368331D02*
X103130Y368331D01*
X103130Y369756D02*
X98630Y369756D01*
X98630Y371181D02*
X103130Y371181D01*
X103130Y372606D02*
X98630Y372606D01*
X98630Y374031D02*
X103130Y374031D01*
X103130Y375456D02*
X98630Y375456D01*
X98630Y376881D02*
X103130Y376881D01*
X108130Y377406D02*
X108130Y366906D01*
X108130Y377406D02*
X112630Y377406D01*
X112630Y366906D01*
X108130Y366906D01*
X108130Y368331D02*
X112630Y368331D01*
X112630Y369756D02*
X108130Y369756D01*
X108130Y371181D02*
X112630Y371181D01*
X112630Y372606D02*
X108130Y372606D01*
X108130Y374031D02*
X112630Y374031D01*
X112630Y375456D02*
X108130Y375456D01*
X108130Y376881D02*
X112630Y376881D01*
X117630Y377406D02*
X117630Y366906D01*
X117630Y377406D02*
X122130Y377406D01*
X122130Y366906D01*
X117630Y366906D01*
X117630Y368331D02*
X122130Y368331D01*
X122130Y369756D02*
X117630Y369756D01*
X117630Y371181D02*
X122130Y371181D01*
X122130Y372606D02*
X117630Y372606D01*
X117630Y374031D02*
X122130Y374031D01*
X122130Y375456D02*
X117630Y375456D01*
X117630Y376881D02*
X122130Y376881D01*
X79872Y270888D02*
X79872Y260388D01*
X75372Y260388D01*
X75372Y270888D01*
X79872Y270888D01*
X79872Y261813D02*
X75372Y261813D01*
X75372Y263238D02*
X79872Y263238D01*
X79872Y264663D02*
X75372Y264663D01*
X75372Y266088D02*
X79872Y266088D01*
X79872Y267513D02*
X75372Y267513D01*
X75372Y268938D02*
X79872Y268938D01*
X79872Y270363D02*
X75372Y270363D01*
X89372Y270888D02*
X89372Y260388D01*
X84872Y260388D01*
X84872Y270888D01*
X89372Y270888D01*
X89372Y261813D02*
X84872Y261813D01*
X84872Y263238D02*
X89372Y263238D01*
X89372Y264663D02*
X84872Y264663D01*
X84872Y266088D02*
X89372Y266088D01*
X89372Y267513D02*
X84872Y267513D01*
X84872Y268938D02*
X89372Y268938D01*
X89372Y270363D02*
X84872Y270363D01*
X98872Y270888D02*
X98872Y260388D01*
X94372Y260388D01*
X94372Y270888D01*
X98872Y270888D01*
X98872Y261813D02*
X94372Y261813D01*
X94372Y263238D02*
X98872Y263238D01*
X98872Y264663D02*
X94372Y264663D01*
X94372Y266088D02*
X98872Y266088D01*
X98872Y267513D02*
X94372Y267513D01*
X94372Y268938D02*
X98872Y268938D01*
X98872Y270363D02*
X94372Y270363D01*
X98872Y286388D02*
X98872Y296888D01*
X98872Y286388D02*
X94372Y286388D01*
X94372Y296888D01*
X98872Y296888D01*
X98872Y287813D02*
X94372Y287813D01*
X94372Y289238D02*
X98872Y289238D01*
X98872Y290663D02*
X94372Y290663D01*
X94372Y292088D02*
X98872Y292088D01*
X98872Y293513D02*
X94372Y293513D01*
X94372Y294938D02*
X98872Y294938D01*
X98872Y296363D02*
X94372Y296363D01*
X89372Y296888D02*
X89372Y286388D01*
X84872Y286388D01*
X84872Y296888D01*
X89372Y296888D01*
X89372Y287813D02*
X84872Y287813D01*
X84872Y289238D02*
X89372Y289238D01*
X89372Y290663D02*
X84872Y290663D01*
X84872Y292088D02*
X89372Y292088D01*
X89372Y293513D02*
X84872Y293513D01*
X84872Y294938D02*
X89372Y294938D01*
X89372Y296363D02*
X84872Y296363D01*
X79872Y296888D02*
X79872Y286388D01*
X75372Y286388D01*
X75372Y296888D01*
X79872Y296888D01*
X79872Y287813D02*
X75372Y287813D01*
X75372Y289238D02*
X79872Y289238D01*
X79872Y290663D02*
X75372Y290663D01*
X75372Y292088D02*
X79872Y292088D01*
X79872Y293513D02*
X75372Y293513D01*
X75372Y294938D02*
X79872Y294938D01*
X79872Y296363D02*
X75372Y296363D01*
D17*
X68448Y113898D02*
X83648Y113898D01*
X68448Y113898D02*
X68448Y119598D01*
X83648Y119598D01*
X83648Y113898D01*
X83648Y114183D02*
X68448Y114183D01*
X68448Y114468D02*
X83648Y114468D01*
X83648Y114753D02*
X68448Y114753D01*
X68448Y115038D02*
X83648Y115038D01*
X83648Y115323D02*
X68448Y115323D01*
X68448Y115608D02*
X83648Y115608D01*
X83648Y115893D02*
X68448Y115893D01*
X68448Y116178D02*
X83648Y116178D01*
X83648Y116463D02*
X68448Y116463D01*
X68448Y116748D02*
X83648Y116748D01*
X83648Y117033D02*
X68448Y117033D01*
X68448Y117318D02*
X83648Y117318D01*
X83648Y117603D02*
X68448Y117603D01*
X68448Y117888D02*
X83648Y117888D01*
X83648Y118173D02*
X68448Y118173D01*
X68448Y118458D02*
X83648Y118458D01*
X83648Y118743D02*
X68448Y118743D01*
X68448Y119028D02*
X83648Y119028D01*
X83648Y119313D02*
X68448Y119313D01*
X68448Y119598D02*
X83648Y119598D01*
X83648Y101198D02*
X68448Y101198D01*
X68448Y106898D01*
X83648Y106898D01*
X83648Y101198D01*
X83648Y101483D02*
X68448Y101483D01*
X68448Y101768D02*
X83648Y101768D01*
X83648Y102053D02*
X68448Y102053D01*
X68448Y102338D02*
X83648Y102338D01*
X83648Y102623D02*
X68448Y102623D01*
X68448Y102908D02*
X83648Y102908D01*
X83648Y103193D02*
X68448Y103193D01*
X68448Y103478D02*
X83648Y103478D01*
X83648Y103763D02*
X68448Y103763D01*
X68448Y104048D02*
X83648Y104048D01*
X83648Y104333D02*
X68448Y104333D01*
X68448Y104618D02*
X83648Y104618D01*
X83648Y104903D02*
X68448Y104903D01*
X68448Y105188D02*
X83648Y105188D01*
X83648Y105473D02*
X68448Y105473D01*
X68448Y105758D02*
X83648Y105758D01*
X83648Y106043D02*
X68448Y106043D01*
X68448Y106328D02*
X83648Y106328D01*
X83648Y106613D02*
X68448Y106613D01*
X68448Y106898D02*
X83648Y106898D01*
X83648Y88498D02*
X68448Y88498D01*
X68448Y94198D01*
X83648Y94198D01*
X83648Y88498D01*
X83648Y88783D02*
X68448Y88783D01*
X68448Y89068D02*
X83648Y89068D01*
X83648Y89353D02*
X68448Y89353D01*
X68448Y89638D02*
X83648Y89638D01*
X83648Y89923D02*
X68448Y89923D01*
X68448Y90208D02*
X83648Y90208D01*
X83648Y90493D02*
X68448Y90493D01*
X68448Y90778D02*
X83648Y90778D01*
X83648Y91063D02*
X68448Y91063D01*
X68448Y91348D02*
X83648Y91348D01*
X83648Y91633D02*
X68448Y91633D01*
X68448Y91918D02*
X83648Y91918D01*
X83648Y92203D02*
X68448Y92203D01*
X68448Y92488D02*
X83648Y92488D01*
X83648Y92773D02*
X68448Y92773D01*
X68448Y93058D02*
X83648Y93058D01*
X83648Y93343D02*
X68448Y93343D01*
X68448Y93628D02*
X83648Y93628D01*
X83648Y93913D02*
X68448Y93913D01*
X68448Y94198D02*
X83648Y94198D01*
X83648Y75798D02*
X68448Y75798D01*
X68448Y81498D01*
X83648Y81498D01*
X83648Y75798D01*
X83648Y76083D02*
X68448Y76083D01*
X68448Y76368D02*
X83648Y76368D01*
X83648Y76653D02*
X68448Y76653D01*
X68448Y76938D02*
X83648Y76938D01*
X83648Y77223D02*
X68448Y77223D01*
X68448Y77508D02*
X83648Y77508D01*
X83648Y77793D02*
X68448Y77793D01*
X68448Y78078D02*
X83648Y78078D01*
X83648Y78363D02*
X68448Y78363D01*
X68448Y78648D02*
X83648Y78648D01*
X83648Y78933D02*
X68448Y78933D01*
X68448Y79218D02*
X83648Y79218D01*
X83648Y79503D02*
X68448Y79503D01*
X68448Y79788D02*
X83648Y79788D01*
X83648Y80073D02*
X68448Y80073D01*
X68448Y80358D02*
X83648Y80358D01*
X83648Y80643D02*
X68448Y80643D01*
X68448Y80928D02*
X83648Y80928D01*
X83648Y81213D02*
X68448Y81213D01*
X68448Y81498D02*
X83648Y81498D01*
X122448Y75798D02*
X137648Y75798D01*
X122448Y75798D02*
X122448Y81498D01*
X137648Y81498D01*
X137648Y75798D01*
X137648Y76083D02*
X122448Y76083D01*
X122448Y76368D02*
X137648Y76368D01*
X137648Y76653D02*
X122448Y76653D01*
X122448Y76938D02*
X137648Y76938D01*
X137648Y77223D02*
X122448Y77223D01*
X122448Y77508D02*
X137648Y77508D01*
X137648Y77793D02*
X122448Y77793D01*
X122448Y78078D02*
X137648Y78078D01*
X137648Y78363D02*
X122448Y78363D01*
X122448Y78648D02*
X137648Y78648D01*
X137648Y78933D02*
X122448Y78933D01*
X122448Y79218D02*
X137648Y79218D01*
X137648Y79503D02*
X122448Y79503D01*
X122448Y79788D02*
X137648Y79788D01*
X137648Y80073D02*
X122448Y80073D01*
X122448Y80358D02*
X137648Y80358D01*
X137648Y80643D02*
X122448Y80643D01*
X122448Y80928D02*
X137648Y80928D01*
X137648Y81213D02*
X122448Y81213D01*
X122448Y81498D02*
X137648Y81498D01*
X137648Y88498D02*
X122448Y88498D01*
X122448Y94198D01*
X137648Y94198D01*
X137648Y88498D01*
X137648Y88783D02*
X122448Y88783D01*
X122448Y89068D02*
X137648Y89068D01*
X137648Y89353D02*
X122448Y89353D01*
X122448Y89638D02*
X137648Y89638D01*
X137648Y89923D02*
X122448Y89923D01*
X122448Y90208D02*
X137648Y90208D01*
X137648Y90493D02*
X122448Y90493D01*
X122448Y90778D02*
X137648Y90778D01*
X137648Y91063D02*
X122448Y91063D01*
X122448Y91348D02*
X137648Y91348D01*
X137648Y91633D02*
X122448Y91633D01*
X122448Y91918D02*
X137648Y91918D01*
X137648Y92203D02*
X122448Y92203D01*
X122448Y92488D02*
X137648Y92488D01*
X137648Y92773D02*
X122448Y92773D01*
X122448Y93058D02*
X137648Y93058D01*
X137648Y93343D02*
X122448Y93343D01*
X122448Y93628D02*
X137648Y93628D01*
X137648Y93913D02*
X122448Y93913D01*
X122448Y94198D02*
X137648Y94198D01*
X137648Y101198D02*
X122448Y101198D01*
X122448Y106898D01*
X137648Y106898D01*
X137648Y101198D01*
X137648Y101483D02*
X122448Y101483D01*
X122448Y101768D02*
X137648Y101768D01*
X137648Y102053D02*
X122448Y102053D01*
X122448Y102338D02*
X137648Y102338D01*
X137648Y102623D02*
X122448Y102623D01*
X122448Y102908D02*
X137648Y102908D01*
X137648Y103193D02*
X122448Y103193D01*
X122448Y103478D02*
X137648Y103478D01*
X137648Y103763D02*
X122448Y103763D01*
X122448Y104048D02*
X137648Y104048D01*
X137648Y104333D02*
X122448Y104333D01*
X122448Y104618D02*
X137648Y104618D01*
X137648Y104903D02*
X122448Y104903D01*
X122448Y105188D02*
X137648Y105188D01*
X137648Y105473D02*
X122448Y105473D01*
X122448Y105758D02*
X137648Y105758D01*
X137648Y106043D02*
X122448Y106043D01*
X122448Y106328D02*
X137648Y106328D01*
X137648Y106613D02*
X122448Y106613D01*
X122448Y106898D02*
X137648Y106898D01*
X137648Y113898D02*
X122448Y113898D01*
X122448Y119598D01*
X137648Y119598D01*
X137648Y113898D01*
X137648Y114183D02*
X122448Y114183D01*
X122448Y114468D02*
X137648Y114468D01*
X137648Y114753D02*
X122448Y114753D01*
X122448Y115038D02*
X137648Y115038D01*
X137648Y115323D02*
X122448Y115323D01*
X122448Y115608D02*
X137648Y115608D01*
X137648Y115893D02*
X122448Y115893D01*
X122448Y116178D02*
X137648Y116178D01*
X137648Y116463D02*
X122448Y116463D01*
X122448Y116748D02*
X137648Y116748D01*
X137648Y117033D02*
X122448Y117033D01*
X122448Y117318D02*
X137648Y117318D01*
X137648Y117603D02*
X122448Y117603D01*
X122448Y117888D02*
X137648Y117888D01*
X137648Y118173D02*
X122448Y118173D01*
X122448Y118458D02*
X137648Y118458D01*
X137648Y118743D02*
X122448Y118743D01*
X122448Y119028D02*
X137648Y119028D01*
X137648Y119313D02*
X122448Y119313D01*
X122448Y119598D02*
X137648Y119598D01*
D21*
X103048Y97698D03*
D19*
X96548Y117198D03*
X109548Y117198D03*
X96548Y104198D03*
X109548Y104198D03*
X96548Y91198D03*
X109548Y91198D03*
X96548Y78198D03*
X109548Y78198D03*
D20*
X225922Y312966D02*
X225922Y323466D01*
X225922Y312966D02*
X221422Y312966D01*
X221422Y323466D01*
X225922Y323466D01*
X225922Y314391D02*
X221422Y314391D01*
X221422Y315816D02*
X225922Y315816D01*
X225922Y317241D02*
X221422Y317241D01*
X221422Y318666D02*
X225922Y318666D01*
X225922Y320091D02*
X221422Y320091D01*
X221422Y321516D02*
X225922Y321516D01*
X225922Y322941D02*
X221422Y322941D01*
X235422Y323466D02*
X235422Y312966D01*
X230922Y312966D01*
X230922Y323466D01*
X235422Y323466D01*
X235422Y314391D02*
X230922Y314391D01*
X230922Y315816D02*
X235422Y315816D01*
X235422Y317241D02*
X230922Y317241D01*
X230922Y318666D02*
X235422Y318666D01*
X235422Y320091D02*
X230922Y320091D01*
X230922Y321516D02*
X235422Y321516D01*
X235422Y322941D02*
X230922Y322941D01*
X244922Y323466D02*
X244922Y312966D01*
X240422Y312966D01*
X240422Y323466D01*
X244922Y323466D01*
X244922Y314391D02*
X240422Y314391D01*
X240422Y315816D02*
X244922Y315816D01*
X244922Y317241D02*
X240422Y317241D01*
X240422Y318666D02*
X244922Y318666D01*
X244922Y320091D02*
X240422Y320091D01*
X240422Y321516D02*
X244922Y321516D01*
X244922Y322941D02*
X240422Y322941D01*
X244922Y338966D02*
X244922Y349466D01*
X244922Y338966D02*
X240422Y338966D01*
X240422Y349466D01*
X244922Y349466D01*
X244922Y340391D02*
X240422Y340391D01*
X240422Y341816D02*
X244922Y341816D01*
X244922Y343241D02*
X240422Y343241D01*
X240422Y344666D02*
X244922Y344666D01*
X244922Y346091D02*
X240422Y346091D01*
X240422Y347516D02*
X244922Y347516D01*
X244922Y348941D02*
X240422Y348941D01*
X225922Y349466D02*
X225922Y338966D01*
X221422Y338966D01*
X221422Y349466D01*
X225922Y349466D01*
X225922Y340391D02*
X221422Y340391D01*
X221422Y341816D02*
X225922Y341816D01*
X225922Y343241D02*
X221422Y343241D01*
X221422Y344666D02*
X225922Y344666D01*
X225922Y346091D02*
X221422Y346091D01*
X221422Y347516D02*
X225922Y347516D01*
X225922Y348941D02*
X221422Y348941D01*
D22*
X146304Y324100D03*
X146304Y260100D03*
D12*
X63800Y28145D02*
X51000Y28145D01*
X51000Y42975D01*
X63800Y42975D01*
X63800Y28145D01*
X63800Y31185D02*
X51000Y31185D01*
X51000Y34225D02*
X63800Y34225D01*
X63800Y37265D02*
X51000Y37265D01*
X51000Y40305D02*
X63800Y40305D01*
X35360Y28145D02*
X22560Y28145D01*
X22560Y42975D01*
X35360Y42975D01*
X35360Y28145D01*
X35360Y31185D02*
X22560Y31185D01*
X22560Y34225D02*
X35360Y34225D01*
X35360Y37265D02*
X22560Y37265D01*
X22560Y40305D02*
X35360Y40305D01*
D10*
X84284Y346754D02*
X91984Y346754D01*
X84284Y346754D02*
X84284Y354454D01*
X91984Y354454D01*
X91984Y346754D01*
X91984Y349889D02*
X84284Y349889D01*
X84284Y353024D02*
X91984Y353024D01*
X104284Y346754D02*
X111984Y346754D01*
X104284Y346754D02*
X104284Y354454D01*
X111984Y354454D01*
X111984Y346754D01*
X111984Y349889D02*
X104284Y349889D01*
X104284Y353024D02*
X111984Y353024D01*
X103202Y492820D02*
X103202Y500520D01*
X103202Y492820D02*
X95502Y492820D01*
X95502Y500520D01*
X103202Y500520D01*
X103202Y495955D02*
X95502Y495955D01*
X95502Y499090D02*
X103202Y499090D01*
X103202Y512820D02*
X103202Y520520D01*
X103202Y512820D02*
X95502Y512820D01*
X95502Y520520D01*
X103202Y520520D01*
X103202Y515955D02*
X95502Y515955D01*
X95502Y519090D02*
X103202Y519090D01*
X163870Y354530D02*
X163870Y346830D01*
X156170Y346830D01*
X156170Y354530D01*
X163870Y354530D01*
X163870Y349965D02*
X156170Y349965D01*
X156170Y353100D02*
X163870Y353100D01*
X163870Y366830D02*
X163870Y374530D01*
X163870Y366830D02*
X156170Y366830D01*
X156170Y374530D01*
X163870Y374530D01*
X163870Y369965D02*
X156170Y369965D01*
X156170Y373100D02*
X163870Y373100D01*
X161158Y426164D02*
X161158Y433864D01*
X161158Y426164D02*
X153458Y426164D01*
X153458Y433864D01*
X161158Y433864D01*
X161158Y429299D02*
X153458Y429299D01*
X153458Y432434D02*
X161158Y432434D01*
X161158Y446164D02*
X161158Y453864D01*
X161158Y446164D02*
X153458Y446164D01*
X153458Y453864D01*
X161158Y453864D01*
X161158Y449299D02*
X153458Y449299D01*
X153458Y452434D02*
X161158Y452434D01*
X19722Y287930D02*
X12022Y287930D01*
X12022Y295630D01*
X19722Y295630D01*
X19722Y287930D01*
X19722Y291065D02*
X12022Y291065D01*
X12022Y294200D02*
X19722Y294200D01*
X32022Y287930D02*
X39722Y287930D01*
X32022Y287930D02*
X32022Y295630D01*
X39722Y295630D01*
X39722Y287930D01*
X39722Y291065D02*
X32022Y291065D01*
X32022Y294200D02*
X39722Y294200D01*
X40046Y332942D02*
X32346Y332942D01*
X40046Y332942D02*
X40046Y325242D01*
X32346Y325242D01*
X32346Y332942D01*
X32346Y328377D02*
X40046Y328377D01*
X40046Y331512D02*
X32346Y331512D01*
X20046Y332942D02*
X12346Y332942D01*
X20046Y332942D02*
X20046Y325242D01*
X12346Y325242D01*
X12346Y332942D01*
X12346Y328377D02*
X20046Y328377D01*
X20046Y331512D02*
X12346Y331512D01*
X91908Y161170D02*
X91908Y153470D01*
X91908Y161170D02*
X99608Y161170D01*
X99608Y153470D01*
X91908Y153470D01*
X91908Y156605D02*
X99608Y156605D01*
X99608Y159740D02*
X91908Y159740D01*
X91908Y141170D02*
X91908Y133470D01*
X91908Y141170D02*
X99608Y141170D01*
X99608Y133470D01*
X91908Y133470D01*
X91908Y136605D02*
X99608Y136605D01*
X99608Y139740D02*
X91908Y139740D01*
X30694Y186998D02*
X30694Y194698D01*
X38394Y194698D01*
X38394Y186998D01*
X30694Y186998D01*
X30694Y190133D02*
X38394Y190133D01*
X38394Y193268D02*
X30694Y193268D01*
X30694Y174698D02*
X30694Y166998D01*
X30694Y174698D02*
X38394Y174698D01*
X38394Y166998D01*
X30694Y166998D01*
X30694Y170133D02*
X38394Y170133D01*
X38394Y173268D02*
X30694Y173268D01*
X30694Y224844D02*
X30694Y232544D01*
X38394Y232544D01*
X38394Y224844D01*
X30694Y224844D01*
X30694Y227979D02*
X38394Y227979D01*
X38394Y231114D02*
X30694Y231114D01*
X30694Y212544D02*
X30694Y204844D01*
X30694Y212544D02*
X38394Y212544D01*
X38394Y204844D01*
X30694Y204844D01*
X30694Y207979D02*
X38394Y207979D01*
X38394Y211114D02*
X30694Y211114D01*
X130864Y160822D02*
X138564Y160822D01*
X138564Y153122D01*
X130864Y153122D01*
X130864Y160822D01*
X130864Y156257D02*
X138564Y156257D01*
X138564Y159392D02*
X130864Y159392D01*
X118564Y160822D02*
X110864Y160822D01*
X118564Y160822D02*
X118564Y153122D01*
X110864Y153122D01*
X110864Y160822D01*
X110864Y156257D02*
X118564Y156257D01*
X118564Y159392D02*
X110864Y159392D01*
D23*
X193294Y226568D03*
X167894Y201168D03*
X193294Y175768D03*
D10*
X122882Y134326D02*
X115182Y134326D01*
X115182Y142026D01*
X122882Y142026D01*
X122882Y134326D01*
X122882Y137461D02*
X115182Y137461D01*
X115182Y140596D02*
X122882Y140596D01*
X135182Y134326D02*
X142882Y134326D01*
X135182Y134326D02*
X135182Y142026D01*
X142882Y142026D01*
X142882Y134326D01*
X142882Y137461D02*
X135182Y137461D01*
X135182Y140596D02*
X142882Y140596D01*
X173028Y142788D02*
X180728Y142788D01*
X180728Y135088D01*
X173028Y135088D01*
X173028Y142788D01*
X173028Y138223D02*
X180728Y138223D01*
X180728Y141358D02*
X173028Y141358D01*
X160728Y142788D02*
X153028Y142788D01*
X160728Y142788D02*
X160728Y135088D01*
X153028Y135088D01*
X153028Y142788D01*
X153028Y138223D02*
X160728Y138223D01*
X160728Y141358D02*
X153028Y141358D01*
X189604Y135596D02*
X197304Y135596D01*
X189604Y135596D02*
X189604Y143296D01*
X197304Y143296D01*
X197304Y135596D01*
X197304Y138731D02*
X189604Y138731D01*
X189604Y141866D02*
X197304Y141866D01*
X209604Y135596D02*
X217304Y135596D01*
X209604Y135596D02*
X209604Y143296D01*
X217304Y143296D01*
X217304Y135596D01*
X217304Y138731D02*
X209604Y138731D01*
X209604Y141866D02*
X217304Y141866D01*
X102656Y20774D02*
X102656Y13074D01*
X94956Y13074D01*
X94956Y20774D01*
X102656Y20774D01*
X102656Y16209D02*
X94956Y16209D01*
X94956Y19344D02*
X102656Y19344D01*
X102656Y33074D02*
X102656Y40774D01*
X102656Y33074D02*
X94956Y33074D01*
X94956Y40774D01*
X102656Y40774D01*
X102656Y36209D02*
X94956Y36209D01*
X94956Y39344D02*
X102656Y39344D01*
X42110Y12660D02*
X34410Y12660D01*
X34410Y20360D01*
X42110Y20360D01*
X42110Y12660D01*
X42110Y15795D02*
X34410Y15795D01*
X34410Y18930D02*
X42110Y18930D01*
X54410Y12660D02*
X62110Y12660D01*
X54410Y12660D02*
X54410Y20360D01*
X62110Y20360D01*
X62110Y12660D01*
X62110Y15795D02*
X54410Y15795D01*
X54410Y18930D02*
X62110Y18930D01*
X248452Y420490D02*
X248452Y428190D01*
X248452Y420490D02*
X240752Y420490D01*
X240752Y428190D01*
X248452Y428190D01*
X248452Y423625D02*
X240752Y423625D01*
X240752Y426760D02*
X248452Y426760D01*
X248452Y440490D02*
X248452Y448190D01*
X248452Y440490D02*
X240752Y440490D01*
X240752Y448190D01*
X248452Y448190D01*
X248452Y443625D02*
X240752Y443625D01*
X240752Y446760D02*
X248452Y446760D01*
X231688Y428190D02*
X231688Y420490D01*
X223988Y420490D01*
X223988Y428190D01*
X231688Y428190D01*
X231688Y423625D02*
X223988Y423625D01*
X223988Y426760D02*
X231688Y426760D01*
X231688Y440490D02*
X231688Y448190D01*
X231688Y440490D02*
X223988Y440490D01*
X223988Y448190D01*
X231688Y448190D01*
X231688Y443625D02*
X223988Y443625D01*
X223988Y446760D02*
X231688Y446760D01*
D23*
X22914Y443020D03*
X22914Y403020D03*
X22914Y383020D03*
X22914Y463020D03*
D20*
X138320Y461646D02*
X138320Y451146D01*
X138320Y461646D02*
X142820Y461646D01*
X142820Y451146D01*
X138320Y451146D01*
X138320Y452571D02*
X142820Y452571D01*
X142820Y453996D02*
X138320Y453996D01*
X138320Y455421D02*
X142820Y455421D01*
X142820Y456846D02*
X138320Y456846D01*
X138320Y458271D02*
X142820Y458271D01*
X142820Y459696D02*
X138320Y459696D01*
X138320Y461121D02*
X142820Y461121D01*
X128820Y461646D02*
X128820Y451146D01*
X128820Y461646D02*
X133320Y461646D01*
X133320Y451146D01*
X128820Y451146D01*
X128820Y452571D02*
X133320Y452571D01*
X133320Y453996D02*
X128820Y453996D01*
X128820Y455421D02*
X133320Y455421D01*
X133320Y456846D02*
X128820Y456846D01*
X128820Y458271D02*
X133320Y458271D01*
X133320Y459696D02*
X128820Y459696D01*
X128820Y461121D02*
X133320Y461121D01*
X119320Y461646D02*
X119320Y451146D01*
X119320Y461646D02*
X123820Y461646D01*
X123820Y451146D01*
X119320Y451146D01*
X119320Y452571D02*
X123820Y452571D01*
X123820Y453996D02*
X119320Y453996D01*
X119320Y455421D02*
X123820Y455421D01*
X123820Y456846D02*
X119320Y456846D01*
X119320Y458271D02*
X123820Y458271D01*
X123820Y459696D02*
X119320Y459696D01*
X119320Y461121D02*
X123820Y461121D01*
X119320Y435646D02*
X119320Y425146D01*
X119320Y435646D02*
X123820Y435646D01*
X123820Y425146D01*
X119320Y425146D01*
X119320Y426571D02*
X123820Y426571D01*
X123820Y427996D02*
X119320Y427996D01*
X119320Y429421D02*
X123820Y429421D01*
X123820Y430846D02*
X119320Y430846D01*
X119320Y432271D02*
X123820Y432271D01*
X123820Y433696D02*
X119320Y433696D01*
X119320Y435121D02*
X123820Y435121D01*
X128820Y435646D02*
X128820Y425146D01*
X128820Y435646D02*
X133320Y435646D01*
X133320Y425146D01*
X128820Y425146D01*
X128820Y426571D02*
X133320Y426571D01*
X133320Y427996D02*
X128820Y427996D01*
X128820Y429421D02*
X133320Y429421D01*
X133320Y430846D02*
X128820Y430846D01*
X128820Y432271D02*
X133320Y432271D01*
X133320Y433696D02*
X128820Y433696D01*
X128820Y435121D02*
X133320Y435121D01*
X138320Y435646D02*
X138320Y425146D01*
X138320Y435646D02*
X142820Y435646D01*
X142820Y425146D01*
X138320Y425146D01*
X138320Y426571D02*
X142820Y426571D01*
X142820Y427996D02*
X138320Y427996D01*
X138320Y429421D02*
X142820Y429421D01*
X142820Y430846D02*
X138320Y430846D01*
X138320Y432271D02*
X142820Y432271D01*
X142820Y433696D02*
X138320Y433696D01*
X138320Y435121D02*
X142820Y435121D01*
D14*
X158124Y392338D02*
X165264Y392338D01*
X158124Y392338D02*
X158124Y396178D01*
X165264Y396178D01*
X165264Y392338D01*
X165264Y411338D02*
X158124Y411338D01*
X158124Y415178D01*
X165264Y415178D01*
X165264Y411338D01*
X146064Y405678D02*
X138924Y405678D01*
X146064Y405678D02*
X146064Y401838D01*
X138924Y401838D01*
X138924Y405678D01*
D24*
X276860Y355600D03*
X276860Y177800D03*
X276860Y330200D03*
X276860Y203200D03*
X276860Y304800D03*
X276860Y406400D03*
X276860Y279400D03*
D10*
X20008Y342368D02*
X12308Y342368D01*
X12308Y350068D01*
X20008Y350068D01*
X20008Y342368D01*
X20008Y345503D02*
X12308Y345503D01*
X12308Y348638D02*
X20008Y348638D01*
X32308Y342368D02*
X40008Y342368D01*
X32308Y342368D02*
X32308Y350068D01*
X40008Y350068D01*
X40008Y342368D01*
X40008Y345503D02*
X32308Y345503D01*
X32308Y348638D02*
X40008Y348638D01*
D25*
X233698Y471604D03*
D26*
X213498Y471604D03*
D27*
X201198Y471604D03*
D25*
X223698Y471604D03*
D26*
X243898Y471604D03*
D27*
X256198Y471604D03*
D28*
X271898Y466864D02*
X271898Y477944D01*
X185498Y477944D02*
X185498Y466864D01*
X185498Y504864D02*
X185498Y515944D01*
X271898Y515944D02*
X271898Y504864D01*
D10*
X43314Y123738D02*
X35614Y123738D01*
X43314Y123738D02*
X43314Y116038D01*
X35614Y116038D01*
X35614Y123738D01*
X35614Y119173D02*
X43314Y119173D01*
X43314Y122308D02*
X35614Y122308D01*
X23314Y123738D02*
X15614Y123738D01*
X23314Y123738D02*
X23314Y116038D01*
X15614Y116038D01*
X15614Y123738D01*
X15614Y119173D02*
X23314Y119173D01*
X23314Y122308D02*
X15614Y122308D01*
D11*
X22352Y88646D03*
X22352Y63246D03*
D29*
X165100Y116078D03*
X190500Y116078D03*
X215900Y116078D03*
D10*
X38314Y96908D02*
X38314Y89208D01*
X38314Y96908D02*
X46014Y96908D01*
X46014Y89208D01*
X38314Y89208D01*
X38314Y92343D02*
X46014Y92343D01*
X46014Y95478D02*
X38314Y95478D01*
X38314Y76908D02*
X38314Y69208D01*
X38314Y76908D02*
X46014Y76908D01*
X46014Y69208D01*
X38314Y69208D01*
X38314Y72343D02*
X46014Y72343D01*
X46014Y75478D02*
X38314Y75478D01*
X54062Y80572D02*
X54062Y88272D01*
X61762Y88272D01*
X61762Y80572D01*
X54062Y80572D01*
X54062Y83707D02*
X61762Y83707D01*
X61762Y86842D02*
X54062Y86842D01*
X54062Y68272D02*
X54062Y60572D01*
X54062Y68272D02*
X61762Y68272D01*
X61762Y60572D01*
X54062Y60572D01*
X54062Y63707D02*
X61762Y63707D01*
X61762Y66842D02*
X54062Y66842D01*
D13*
X34558Y134082D02*
X11258Y134082D01*
X11258Y149382D01*
X34558Y149382D01*
X34558Y134082D01*
X34558Y135697D02*
X11258Y135697D01*
X11258Y137312D02*
X34558Y137312D01*
X34558Y138927D02*
X11258Y138927D01*
X11258Y140542D02*
X34558Y140542D01*
X34558Y142157D02*
X11258Y142157D01*
X11258Y143772D02*
X34558Y143772D01*
X34558Y145387D02*
X11258Y145387D01*
X11258Y147002D02*
X34558Y147002D01*
X34558Y148617D02*
X11258Y148617D01*
X55358Y134082D02*
X78658Y134082D01*
X55358Y134082D02*
X55358Y149382D01*
X78658Y149382D01*
X78658Y134082D01*
X78658Y135697D02*
X55358Y135697D01*
X55358Y137312D02*
X78658Y137312D01*
X78658Y138927D02*
X55358Y138927D01*
X55358Y140542D02*
X78658Y140542D01*
X78658Y142157D02*
X55358Y142157D01*
X55358Y143772D02*
X78658Y143772D01*
X78658Y145387D02*
X55358Y145387D01*
X55358Y147002D02*
X78658Y147002D01*
X78658Y148617D02*
X55358Y148617D01*
D30*
X241046Y77578D03*
X241046Y27578D03*
D24*
X276860Y381000D03*
D10*
X263438Y109674D02*
X263438Y101974D01*
X255738Y101974D01*
X255738Y109674D01*
X263438Y109674D01*
X263438Y105109D02*
X255738Y105109D01*
X255738Y108244D02*
X263438Y108244D01*
X263438Y121974D02*
X263438Y129674D01*
X263438Y121974D02*
X255738Y121974D01*
X255738Y129674D01*
X263438Y129674D01*
X263438Y125109D02*
X255738Y125109D01*
X255738Y128244D02*
X263438Y128244D01*
X263438Y137534D02*
X263438Y145234D01*
X263438Y137534D02*
X255738Y137534D01*
X255738Y145234D01*
X263438Y145234D01*
X263438Y140669D02*
X255738Y140669D01*
X255738Y143804D02*
X263438Y143804D01*
X263438Y157534D02*
X263438Y165234D01*
X263438Y157534D02*
X255738Y157534D01*
X255738Y165234D01*
X263438Y165234D01*
X263438Y160669D02*
X255738Y160669D01*
X255738Y163804D02*
X263438Y163804D01*
X40012Y273852D02*
X32312Y273852D01*
X40012Y273852D02*
X40012Y266152D01*
X32312Y266152D01*
X32312Y273852D01*
X32312Y269287D02*
X40012Y269287D01*
X40012Y272422D02*
X32312Y272422D01*
X20012Y273852D02*
X12312Y273852D01*
X20012Y273852D02*
X20012Y266152D01*
X12312Y266152D01*
X12312Y273852D01*
X12312Y269287D02*
X20012Y269287D01*
X20012Y272422D02*
X12312Y272422D01*
X12312Y249134D02*
X20012Y249134D01*
X12312Y249134D02*
X12312Y256834D01*
X20012Y256834D01*
X20012Y249134D01*
X20012Y252269D02*
X12312Y252269D01*
X12312Y255404D02*
X20012Y255404D01*
X32312Y249134D02*
X40012Y249134D01*
X32312Y249134D02*
X32312Y256834D01*
X40012Y256834D01*
X40012Y249134D01*
X40012Y252269D02*
X32312Y252269D01*
X32312Y255404D02*
X40012Y255404D01*
D24*
X276860Y431800D03*
D11*
X465582Y488950D03*
X490982Y488950D03*
X516382Y488950D03*
X541782Y488950D03*
D12*
X481384Y521511D02*
X468584Y521511D01*
X481384Y521511D02*
X481384Y506681D01*
X468584Y506681D01*
X468584Y521511D01*
X468584Y509721D02*
X481384Y509721D01*
X481384Y512761D02*
X468584Y512761D01*
X468584Y515801D02*
X481384Y515801D01*
X481384Y518841D02*
X468584Y518841D01*
X497024Y521511D02*
X509824Y521511D01*
X509824Y506681D01*
X497024Y506681D01*
X497024Y521511D01*
X497024Y509721D02*
X509824Y509721D01*
X509824Y512761D02*
X497024Y512761D01*
X497024Y515801D02*
X509824Y515801D01*
X509824Y518841D02*
X497024Y518841D01*
D10*
X542598Y470702D02*
X550298Y470702D01*
X550298Y463002D01*
X542598Y463002D01*
X542598Y470702D01*
X542598Y466137D02*
X550298Y466137D01*
X550298Y469272D02*
X542598Y469272D01*
X530298Y470702D02*
X522598Y470702D01*
X530298Y470702D02*
X530298Y463002D01*
X522598Y463002D01*
X522598Y470702D01*
X522598Y466137D02*
X530298Y466137D01*
X530298Y469272D02*
X522598Y469272D01*
X527612Y449112D02*
X535312Y449112D01*
X535312Y441412D01*
X527612Y441412D01*
X527612Y449112D01*
X527612Y444547D02*
X535312Y444547D01*
X535312Y447682D02*
X527612Y447682D01*
X515312Y449112D02*
X507612Y449112D01*
X515312Y449112D02*
X515312Y441412D01*
X507612Y441412D01*
X507612Y449112D01*
X507612Y444547D02*
X515312Y444547D01*
X515312Y447682D02*
X507612Y447682D01*
X592382Y519470D02*
X600082Y519470D01*
X600082Y511770D01*
X592382Y511770D01*
X592382Y519470D01*
X592382Y514905D02*
X600082Y514905D01*
X600082Y518040D02*
X592382Y518040D01*
X580082Y519470D02*
X572382Y519470D01*
X580082Y519470D02*
X580082Y511770D01*
X572382Y511770D01*
X572382Y519470D01*
X572382Y514905D02*
X580082Y514905D01*
X580082Y518040D02*
X572382Y518040D01*
X592382Y502960D02*
X600082Y502960D01*
X600082Y495260D01*
X592382Y495260D01*
X592382Y502960D01*
X592382Y498395D02*
X600082Y498395D01*
X600082Y501530D02*
X592382Y501530D01*
X580082Y502960D02*
X572382Y502960D01*
X580082Y502960D02*
X580082Y495260D01*
X572382Y495260D01*
X572382Y502960D01*
X572382Y498395D02*
X580082Y498395D01*
X580082Y501530D02*
X572382Y501530D01*
X492960Y462748D02*
X485260Y462748D01*
X485260Y470448D01*
X492960Y470448D01*
X492960Y462748D01*
X492960Y465883D02*
X485260Y465883D01*
X485260Y469018D02*
X492960Y469018D01*
X505260Y462748D02*
X512960Y462748D01*
X505260Y462748D02*
X505260Y470448D01*
X512960Y470448D01*
X512960Y462748D01*
X512960Y465883D02*
X505260Y465883D01*
X505260Y469018D02*
X512960Y469018D01*
D24*
X276860Y254000D03*
D31*
X574024Y425196D03*
X622824Y425196D03*
D10*
X601940Y476558D02*
X601940Y484258D01*
X609640Y484258D01*
X609640Y476558D01*
X601940Y476558D01*
X601940Y479693D02*
X609640Y479693D01*
X609640Y482828D02*
X601940Y482828D01*
X601940Y464258D02*
X601940Y456558D01*
X601940Y464258D02*
X609640Y464258D01*
X609640Y456558D01*
X601940Y456558D01*
X601940Y459693D02*
X609640Y459693D01*
X609640Y462828D02*
X601940Y462828D01*
X582382Y476558D02*
X582382Y484258D01*
X590082Y484258D01*
X590082Y476558D01*
X582382Y476558D01*
X582382Y479693D02*
X590082Y479693D01*
X590082Y482828D02*
X582382Y482828D01*
X582382Y464258D02*
X582382Y456558D01*
X582382Y464258D02*
X590082Y464258D01*
X590082Y456558D01*
X582382Y456558D01*
X582382Y459693D02*
X590082Y459693D01*
X590082Y462828D02*
X582382Y462828D01*
X421680Y332178D02*
X421680Y324478D01*
X413980Y324478D01*
X413980Y332178D01*
X421680Y332178D01*
X421680Y327613D02*
X413980Y327613D01*
X413980Y330748D02*
X421680Y330748D01*
X421680Y344478D02*
X421680Y352178D01*
X421680Y344478D02*
X413980Y344478D01*
X413980Y352178D01*
X421680Y352178D01*
X421680Y347613D02*
X413980Y347613D01*
X413980Y350748D02*
X421680Y350748D01*
X567396Y342018D02*
X567396Y334318D01*
X567396Y342018D02*
X575096Y342018D01*
X575096Y334318D01*
X567396Y334318D01*
X567396Y337453D02*
X575096Y337453D01*
X575096Y340588D02*
X567396Y340588D01*
X567396Y322018D02*
X567396Y314318D01*
X567396Y322018D02*
X575096Y322018D01*
X575096Y314318D01*
X567396Y314318D01*
X567396Y317453D02*
X575096Y317453D01*
X575096Y320588D02*
X567396Y320588D01*
X496450Y445810D02*
X488750Y445810D01*
X496450Y445810D02*
X496450Y438110D01*
X488750Y438110D01*
X488750Y445810D01*
X488750Y441245D02*
X496450Y441245D01*
X496450Y444380D02*
X488750Y444380D01*
X476450Y445810D02*
X468750Y445810D01*
X476450Y445810D02*
X476450Y438110D01*
X468750Y438110D01*
X468750Y445810D01*
X468750Y441245D02*
X476450Y441245D01*
X476450Y444380D02*
X468750Y444380D01*
X361134Y281138D02*
X353434Y281138D01*
X353434Y288838D01*
X361134Y288838D01*
X361134Y281138D01*
X361134Y284273D02*
X353434Y284273D01*
X353434Y287408D02*
X361134Y287408D01*
X373434Y281138D02*
X381134Y281138D01*
X373434Y281138D02*
X373434Y288838D01*
X381134Y288838D01*
X381134Y281138D01*
X381134Y284273D02*
X373434Y284273D01*
X373434Y287408D02*
X381134Y287408D01*
X371482Y262676D02*
X363782Y262676D01*
X371482Y262676D02*
X371482Y254976D01*
X363782Y254976D01*
X363782Y262676D01*
X363782Y258111D02*
X371482Y258111D01*
X371482Y261246D02*
X363782Y261246D01*
X351482Y262676D02*
X343782Y262676D01*
X351482Y262676D02*
X351482Y254976D01*
X343782Y254976D01*
X343782Y262676D01*
X343782Y258111D02*
X351482Y258111D01*
X351482Y261246D02*
X343782Y261246D01*
X429982Y333048D02*
X429982Y340748D01*
X437682Y340748D01*
X437682Y333048D01*
X429982Y333048D01*
X429982Y336183D02*
X437682Y336183D01*
X437682Y339318D02*
X429982Y339318D01*
X429982Y320748D02*
X429982Y313048D01*
X429982Y320748D02*
X437682Y320748D01*
X437682Y313048D01*
X429982Y313048D01*
X429982Y316183D02*
X437682Y316183D01*
X437682Y319318D02*
X429982Y319318D01*
D32*
X531397Y376023D02*
X535523Y376023D01*
X535523Y362697D01*
X531397Y362697D01*
X531397Y376023D01*
X531397Y364003D02*
X535523Y364003D01*
X535523Y365309D02*
X531397Y365309D01*
X531397Y366615D02*
X535523Y366615D01*
X535523Y367921D02*
X531397Y367921D01*
X531397Y369227D02*
X535523Y369227D01*
X535523Y370533D02*
X531397Y370533D01*
X531397Y371839D02*
X535523Y371839D01*
X535523Y373145D02*
X531397Y373145D01*
X531397Y374451D02*
X535523Y374451D01*
X535523Y375757D02*
X531397Y375757D01*
X527523Y376023D02*
X523397Y376023D01*
X527523Y376023D02*
X527523Y362697D01*
X523397Y362697D01*
X523397Y376023D01*
X523397Y364003D02*
X527523Y364003D01*
X527523Y365309D02*
X523397Y365309D01*
X523397Y366615D02*
X527523Y366615D01*
X527523Y367921D02*
X523397Y367921D01*
X523397Y369227D02*
X527523Y369227D01*
X527523Y370533D02*
X523397Y370533D01*
X523397Y371839D02*
X527523Y371839D01*
X527523Y373145D02*
X523397Y373145D01*
X523397Y374451D02*
X527523Y374451D01*
X527523Y375757D02*
X523397Y375757D01*
X519523Y376023D02*
X515397Y376023D01*
X519523Y376023D02*
X519523Y362697D01*
X515397Y362697D01*
X515397Y376023D01*
X515397Y364003D02*
X519523Y364003D01*
X519523Y365309D02*
X515397Y365309D01*
X515397Y366615D02*
X519523Y366615D01*
X519523Y367921D02*
X515397Y367921D01*
X515397Y369227D02*
X519523Y369227D01*
X519523Y370533D02*
X515397Y370533D01*
X515397Y371839D02*
X519523Y371839D01*
X519523Y373145D02*
X515397Y373145D01*
X515397Y374451D02*
X519523Y374451D01*
X519523Y375757D02*
X515397Y375757D01*
X511523Y376023D02*
X507397Y376023D01*
X511523Y376023D02*
X511523Y362697D01*
X507397Y362697D01*
X507397Y376023D01*
X507397Y364003D02*
X511523Y364003D01*
X511523Y365309D02*
X507397Y365309D01*
X507397Y366615D02*
X511523Y366615D01*
X511523Y367921D02*
X507397Y367921D01*
X507397Y369227D02*
X511523Y369227D01*
X511523Y370533D02*
X507397Y370533D01*
X507397Y371839D02*
X511523Y371839D01*
X511523Y373145D02*
X507397Y373145D01*
X507397Y374451D02*
X511523Y374451D01*
X511523Y375757D02*
X507397Y375757D01*
X503523Y376023D02*
X499397Y376023D01*
X503523Y376023D02*
X503523Y362697D01*
X499397Y362697D01*
X499397Y376023D01*
X499397Y364003D02*
X503523Y364003D01*
X503523Y365309D02*
X499397Y365309D01*
X499397Y366615D02*
X503523Y366615D01*
X503523Y367921D02*
X499397Y367921D01*
X499397Y369227D02*
X503523Y369227D01*
X503523Y370533D02*
X499397Y370533D01*
X499397Y371839D02*
X503523Y371839D01*
X503523Y373145D02*
X499397Y373145D01*
X499397Y374451D02*
X503523Y374451D01*
X503523Y375757D02*
X499397Y375757D01*
X495523Y376023D02*
X491397Y376023D01*
X495523Y376023D02*
X495523Y362697D01*
X491397Y362697D01*
X491397Y376023D01*
X491397Y364003D02*
X495523Y364003D01*
X495523Y365309D02*
X491397Y365309D01*
X491397Y366615D02*
X495523Y366615D01*
X495523Y367921D02*
X491397Y367921D01*
X491397Y369227D02*
X495523Y369227D01*
X495523Y370533D02*
X491397Y370533D01*
X491397Y371839D02*
X495523Y371839D01*
X495523Y373145D02*
X491397Y373145D01*
X491397Y374451D02*
X495523Y374451D01*
X495523Y375757D02*
X491397Y375757D01*
X487523Y376023D02*
X483397Y376023D01*
X487523Y376023D02*
X487523Y362697D01*
X483397Y362697D01*
X483397Y376023D01*
X483397Y364003D02*
X487523Y364003D01*
X487523Y365309D02*
X483397Y365309D01*
X483397Y366615D02*
X487523Y366615D01*
X487523Y367921D02*
X483397Y367921D01*
X483397Y369227D02*
X487523Y369227D01*
X487523Y370533D02*
X483397Y370533D01*
X483397Y371839D02*
X487523Y371839D01*
X487523Y373145D02*
X483397Y373145D01*
X483397Y374451D02*
X487523Y374451D01*
X487523Y375757D02*
X483397Y375757D01*
X479523Y376023D02*
X475397Y376023D01*
X479523Y376023D02*
X479523Y362697D01*
X475397Y362697D01*
X475397Y376023D01*
X475397Y364003D02*
X479523Y364003D01*
X479523Y365309D02*
X475397Y365309D01*
X475397Y366615D02*
X479523Y366615D01*
X479523Y367921D02*
X475397Y367921D01*
X475397Y369227D02*
X479523Y369227D01*
X479523Y370533D02*
X475397Y370533D01*
X475397Y371839D02*
X479523Y371839D01*
X479523Y373145D02*
X475397Y373145D01*
X475397Y374451D02*
X479523Y374451D01*
X479523Y375757D02*
X475397Y375757D01*
X475397Y292623D02*
X479523Y292623D01*
X479523Y279297D01*
X475397Y279297D01*
X475397Y292623D01*
X475397Y280603D02*
X479523Y280603D01*
X479523Y281909D02*
X475397Y281909D01*
X475397Y283215D02*
X479523Y283215D01*
X479523Y284521D02*
X475397Y284521D01*
X475397Y285827D02*
X479523Y285827D01*
X479523Y287133D02*
X475397Y287133D01*
X475397Y288439D02*
X479523Y288439D01*
X479523Y289745D02*
X475397Y289745D01*
X475397Y291051D02*
X479523Y291051D01*
X479523Y292357D02*
X475397Y292357D01*
X483397Y292623D02*
X487523Y292623D01*
X487523Y279297D01*
X483397Y279297D01*
X483397Y292623D01*
X483397Y280603D02*
X487523Y280603D01*
X487523Y281909D02*
X483397Y281909D01*
X483397Y283215D02*
X487523Y283215D01*
X487523Y284521D02*
X483397Y284521D01*
X483397Y285827D02*
X487523Y285827D01*
X487523Y287133D02*
X483397Y287133D01*
X483397Y288439D02*
X487523Y288439D01*
X487523Y289745D02*
X483397Y289745D01*
X483397Y291051D02*
X487523Y291051D01*
X487523Y292357D02*
X483397Y292357D01*
X491397Y292623D02*
X495523Y292623D01*
X495523Y279297D01*
X491397Y279297D01*
X491397Y292623D01*
X491397Y280603D02*
X495523Y280603D01*
X495523Y281909D02*
X491397Y281909D01*
X491397Y283215D02*
X495523Y283215D01*
X495523Y284521D02*
X491397Y284521D01*
X491397Y285827D02*
X495523Y285827D01*
X495523Y287133D02*
X491397Y287133D01*
X491397Y288439D02*
X495523Y288439D01*
X495523Y289745D02*
X491397Y289745D01*
X491397Y291051D02*
X495523Y291051D01*
X495523Y292357D02*
X491397Y292357D01*
X499397Y292623D02*
X503523Y292623D01*
X503523Y279297D01*
X499397Y279297D01*
X499397Y292623D01*
X499397Y280603D02*
X503523Y280603D01*
X503523Y281909D02*
X499397Y281909D01*
X499397Y283215D02*
X503523Y283215D01*
X503523Y284521D02*
X499397Y284521D01*
X499397Y285827D02*
X503523Y285827D01*
X503523Y287133D02*
X499397Y287133D01*
X499397Y288439D02*
X503523Y288439D01*
X503523Y289745D02*
X499397Y289745D01*
X499397Y291051D02*
X503523Y291051D01*
X503523Y292357D02*
X499397Y292357D01*
X507397Y292623D02*
X511523Y292623D01*
X511523Y279297D01*
X507397Y279297D01*
X507397Y292623D01*
X507397Y280603D02*
X511523Y280603D01*
X511523Y281909D02*
X507397Y281909D01*
X507397Y283215D02*
X511523Y283215D01*
X511523Y284521D02*
X507397Y284521D01*
X507397Y285827D02*
X511523Y285827D01*
X511523Y287133D02*
X507397Y287133D01*
X507397Y288439D02*
X511523Y288439D01*
X511523Y289745D02*
X507397Y289745D01*
X507397Y291051D02*
X511523Y291051D01*
X511523Y292357D02*
X507397Y292357D01*
X515397Y292623D02*
X519523Y292623D01*
X519523Y279297D01*
X515397Y279297D01*
X515397Y292623D01*
X515397Y280603D02*
X519523Y280603D01*
X519523Y281909D02*
X515397Y281909D01*
X515397Y283215D02*
X519523Y283215D01*
X519523Y284521D02*
X515397Y284521D01*
X515397Y285827D02*
X519523Y285827D01*
X519523Y287133D02*
X515397Y287133D01*
X515397Y288439D02*
X519523Y288439D01*
X519523Y289745D02*
X515397Y289745D01*
X515397Y291051D02*
X519523Y291051D01*
X519523Y292357D02*
X515397Y292357D01*
X523397Y292623D02*
X527523Y292623D01*
X527523Y279297D01*
X523397Y279297D01*
X523397Y292623D01*
X523397Y280603D02*
X527523Y280603D01*
X527523Y281909D02*
X523397Y281909D01*
X523397Y283215D02*
X527523Y283215D01*
X527523Y284521D02*
X523397Y284521D01*
X523397Y285827D02*
X527523Y285827D01*
X527523Y287133D02*
X523397Y287133D01*
X523397Y288439D02*
X527523Y288439D01*
X527523Y289745D02*
X523397Y289745D01*
X523397Y291051D02*
X527523Y291051D01*
X527523Y292357D02*
X523397Y292357D01*
X531397Y292623D02*
X535523Y292623D01*
X535523Y279297D01*
X531397Y279297D01*
X531397Y292623D01*
X531397Y280603D02*
X535523Y280603D01*
X535523Y281909D02*
X531397Y281909D01*
X531397Y283215D02*
X535523Y283215D01*
X535523Y284521D02*
X531397Y284521D01*
X531397Y285827D02*
X535523Y285827D01*
X535523Y287133D02*
X531397Y287133D01*
X531397Y288439D02*
X535523Y288439D01*
X535523Y289745D02*
X531397Y289745D01*
X531397Y291051D02*
X535523Y291051D01*
X535523Y292357D02*
X531397Y292357D01*
X540497Y301723D02*
X553823Y301723D01*
X553823Y297597D01*
X540497Y297597D01*
X540497Y301723D01*
X540497Y298903D02*
X553823Y298903D01*
X553823Y300209D02*
X540497Y300209D01*
X540497Y301515D02*
X553823Y301515D01*
X553823Y309723D02*
X540497Y309723D01*
X553823Y309723D02*
X553823Y305597D01*
X540497Y305597D01*
X540497Y309723D01*
X540497Y306903D02*
X553823Y306903D01*
X553823Y308209D02*
X540497Y308209D01*
X540497Y309515D02*
X553823Y309515D01*
X553823Y317723D02*
X540497Y317723D01*
X553823Y317723D02*
X553823Y313597D01*
X540497Y313597D01*
X540497Y317723D01*
X540497Y314903D02*
X553823Y314903D01*
X553823Y316209D02*
X540497Y316209D01*
X540497Y317515D02*
X553823Y317515D01*
X553823Y325723D02*
X540497Y325723D01*
X553823Y325723D02*
X553823Y321597D01*
X540497Y321597D01*
X540497Y325723D01*
X540497Y322903D02*
X553823Y322903D01*
X553823Y324209D02*
X540497Y324209D01*
X540497Y325515D02*
X553823Y325515D01*
X553823Y333723D02*
X540497Y333723D01*
X553823Y333723D02*
X553823Y329597D01*
X540497Y329597D01*
X540497Y333723D01*
X540497Y330903D02*
X553823Y330903D01*
X553823Y332209D02*
X540497Y332209D01*
X540497Y333515D02*
X553823Y333515D01*
X553823Y341723D02*
X540497Y341723D01*
X553823Y341723D02*
X553823Y337597D01*
X540497Y337597D01*
X540497Y341723D01*
X540497Y338903D02*
X553823Y338903D01*
X553823Y340209D02*
X540497Y340209D01*
X540497Y341515D02*
X553823Y341515D01*
X553823Y349723D02*
X540497Y349723D01*
X553823Y349723D02*
X553823Y345597D01*
X540497Y345597D01*
X540497Y349723D01*
X540497Y346903D02*
X553823Y346903D01*
X553823Y348209D02*
X540497Y348209D01*
X540497Y349515D02*
X553823Y349515D01*
X553823Y357723D02*
X540497Y357723D01*
X553823Y357723D02*
X553823Y353597D01*
X540497Y353597D01*
X540497Y357723D01*
X540497Y354903D02*
X553823Y354903D01*
X553823Y356209D02*
X540497Y356209D01*
X540497Y357515D02*
X553823Y357515D01*
X470423Y357723D02*
X457097Y357723D01*
X470423Y357723D02*
X470423Y353597D01*
X457097Y353597D01*
X457097Y357723D01*
X457097Y354903D02*
X470423Y354903D01*
X470423Y356209D02*
X457097Y356209D01*
X457097Y357515D02*
X470423Y357515D01*
X470423Y349723D02*
X457097Y349723D01*
X470423Y349723D02*
X470423Y345597D01*
X457097Y345597D01*
X457097Y349723D01*
X457097Y346903D02*
X470423Y346903D01*
X470423Y348209D02*
X457097Y348209D01*
X457097Y349515D02*
X470423Y349515D01*
X470423Y341723D02*
X457097Y341723D01*
X470423Y341723D02*
X470423Y337597D01*
X457097Y337597D01*
X457097Y341723D01*
X457097Y338903D02*
X470423Y338903D01*
X470423Y340209D02*
X457097Y340209D01*
X457097Y341515D02*
X470423Y341515D01*
X470423Y333723D02*
X457097Y333723D01*
X470423Y333723D02*
X470423Y329597D01*
X457097Y329597D01*
X457097Y333723D01*
X457097Y330903D02*
X470423Y330903D01*
X470423Y332209D02*
X457097Y332209D01*
X457097Y333515D02*
X470423Y333515D01*
X470423Y325723D02*
X457097Y325723D01*
X470423Y325723D02*
X470423Y321597D01*
X457097Y321597D01*
X457097Y325723D01*
X457097Y322903D02*
X470423Y322903D01*
X470423Y324209D02*
X457097Y324209D01*
X457097Y325515D02*
X470423Y325515D01*
X470423Y317723D02*
X457097Y317723D01*
X470423Y317723D02*
X470423Y313597D01*
X457097Y313597D01*
X457097Y317723D01*
X457097Y314903D02*
X470423Y314903D01*
X470423Y316209D02*
X457097Y316209D01*
X457097Y317515D02*
X470423Y317515D01*
X470423Y309723D02*
X457097Y309723D01*
X470423Y309723D02*
X470423Y305597D01*
X457097Y305597D01*
X457097Y309723D01*
X457097Y306903D02*
X470423Y306903D01*
X470423Y308209D02*
X457097Y308209D01*
X457097Y309515D02*
X470423Y309515D01*
X470423Y301723D02*
X457097Y301723D01*
X470423Y301723D02*
X470423Y297597D01*
X457097Y297597D01*
X457097Y301723D01*
X457097Y298903D02*
X470423Y298903D01*
X470423Y300209D02*
X457097Y300209D01*
X457097Y301515D02*
X470423Y301515D01*
D11*
X582500Y288651D03*
X557500Y245349D03*
D14*
X641360Y289090D02*
X641360Y296230D01*
X645200Y296230D01*
X645200Y289090D01*
X641360Y289090D01*
X641360Y293042D02*
X645200Y293042D01*
X660360Y296230D02*
X660360Y289090D01*
X660360Y296230D02*
X664200Y296230D01*
X664200Y289090D01*
X660360Y289090D01*
X660360Y293042D02*
X664200Y293042D01*
X654700Y308290D02*
X654700Y315430D01*
X654700Y308290D02*
X650860Y308290D01*
X650860Y315430D01*
X654700Y315430D01*
X654700Y312242D02*
X650860Y312242D01*
D10*
X620990Y333810D02*
X620990Y341510D01*
X628690Y341510D01*
X628690Y333810D01*
X620990Y333810D01*
X620990Y336945D02*
X628690Y336945D01*
X628690Y340080D02*
X620990Y340080D01*
X620990Y321510D02*
X620990Y313810D01*
X620990Y321510D02*
X628690Y321510D01*
X628690Y313810D01*
X620990Y313810D01*
X620990Y316945D02*
X628690Y316945D01*
X628690Y320080D02*
X620990Y320080D01*
D11*
X398018Y514096D03*
X448818Y514096D03*
D14*
X420332Y468894D02*
X413192Y468894D01*
X413192Y472734D01*
X420332Y472734D01*
X420332Y468894D01*
X420332Y487894D02*
X413192Y487894D01*
X413192Y491734D01*
X420332Y491734D01*
X420332Y487894D01*
X401132Y482234D02*
X393992Y482234D01*
X401132Y482234D02*
X401132Y478394D01*
X393992Y478394D01*
X393992Y482234D01*
D12*
X374699Y468168D02*
X374699Y455368D01*
X359869Y455368D01*
X359869Y468168D01*
X374699Y468168D01*
X374699Y458408D02*
X359869Y458408D01*
X359869Y461448D02*
X374699Y461448D01*
X374699Y464488D02*
X359869Y464488D01*
X359869Y467528D02*
X374699Y467528D01*
X374699Y439728D02*
X374699Y426928D01*
X359869Y426928D01*
X359869Y439728D01*
X374699Y439728D01*
X374699Y429968D02*
X359869Y429968D01*
X359869Y433008D02*
X374699Y433008D01*
X374699Y436048D02*
X359869Y436048D01*
X359869Y439088D02*
X374699Y439088D01*
D10*
X445810Y468750D02*
X445810Y476450D01*
X445810Y468750D02*
X438110Y468750D01*
X438110Y476450D01*
X445810Y476450D01*
X445810Y471885D02*
X438110Y471885D01*
X438110Y475020D02*
X445810Y475020D01*
X445810Y488750D02*
X445810Y496450D01*
X445810Y488750D02*
X438110Y488750D01*
X438110Y496450D01*
X445810Y496450D01*
X445810Y491885D02*
X438110Y491885D01*
X438110Y495020D02*
X445810Y495020D01*
X356816Y407630D02*
X349116Y407630D01*
X349116Y415330D01*
X356816Y415330D01*
X356816Y407630D01*
X356816Y410765D02*
X349116Y410765D01*
X349116Y413900D02*
X356816Y413900D01*
X369116Y407630D02*
X376816Y407630D01*
X369116Y407630D02*
X369116Y415330D01*
X376816Y415330D01*
X376816Y407630D01*
X376816Y410765D02*
X369116Y410765D01*
X369116Y413900D02*
X376816Y413900D01*
X376816Y399074D02*
X369116Y399074D01*
X376816Y399074D02*
X376816Y391374D01*
X369116Y391374D01*
X369116Y399074D01*
X369116Y394509D02*
X376816Y394509D01*
X376816Y397644D02*
X369116Y397644D01*
X356816Y399074D02*
X349116Y399074D01*
X356816Y399074D02*
X356816Y391374D01*
X349116Y391374D01*
X349116Y399074D01*
X349116Y394509D02*
X356816Y394509D01*
X356816Y397644D02*
X349116Y397644D01*
X592796Y342272D02*
X592796Y334572D01*
X592796Y342272D02*
X600496Y342272D01*
X600496Y334572D01*
X592796Y334572D01*
X592796Y337707D02*
X600496Y337707D01*
X600496Y340842D02*
X592796Y340842D01*
X592796Y322272D02*
X592796Y314572D01*
X592796Y322272D02*
X600496Y322272D01*
X600496Y314572D01*
X592796Y314572D01*
X592796Y317707D02*
X600496Y317707D01*
X600496Y320842D02*
X592796Y320842D01*
D12*
X476146Y228567D02*
X467095Y219516D01*
X476146Y228567D02*
X486631Y218082D01*
X477580Y209031D01*
X467095Y219516D01*
X474540Y212071D02*
X480620Y212071D01*
X483660Y215111D02*
X471500Y215111D01*
X468460Y218151D02*
X486562Y218151D01*
X483522Y221191D02*
X468770Y221191D01*
X471810Y224231D02*
X480482Y224231D01*
X477442Y227271D02*
X474850Y227271D01*
X487205Y239626D02*
X496256Y248677D01*
X506741Y238192D01*
X497690Y229141D01*
X487205Y239626D01*
X494650Y232181D02*
X500730Y232181D01*
X503770Y235221D02*
X491610Y235221D01*
X488570Y238261D02*
X506672Y238261D01*
X503632Y241301D02*
X488880Y241301D01*
X491920Y244341D02*
X500592Y244341D01*
X497552Y247381D02*
X494960Y247381D01*
X431188Y232631D02*
X422137Y223580D01*
X431188Y232631D02*
X441673Y222146D01*
X432622Y213095D01*
X422137Y223580D01*
X429582Y216135D02*
X435662Y216135D01*
X438702Y219175D02*
X426542Y219175D01*
X423502Y222215D02*
X441604Y222215D01*
X438564Y225255D02*
X423812Y225255D01*
X426852Y228295D02*
X435524Y228295D01*
X432484Y231335D02*
X429892Y231335D01*
X442247Y243690D02*
X451298Y252741D01*
X461783Y242256D01*
X452732Y233205D01*
X442247Y243690D01*
X449692Y236245D02*
X455772Y236245D01*
X458812Y239285D02*
X446652Y239285D01*
X443612Y242325D02*
X461714Y242325D01*
X458674Y245365D02*
X443922Y245365D01*
X446962Y248405D02*
X455634Y248405D01*
X452594Y251445D02*
X450002Y251445D01*
X385722Y238219D02*
X376671Y229168D01*
X385722Y238219D02*
X396207Y227734D01*
X387156Y218683D01*
X376671Y229168D01*
X384116Y221723D02*
X390196Y221723D01*
X393236Y224763D02*
X381076Y224763D01*
X378036Y227803D02*
X396138Y227803D01*
X393098Y230843D02*
X378346Y230843D01*
X381386Y233883D02*
X390058Y233883D01*
X387018Y236923D02*
X384426Y236923D01*
X396781Y249278D02*
X405832Y258329D01*
X416317Y247844D01*
X407266Y238793D01*
X396781Y249278D01*
X404226Y241833D02*
X410306Y241833D01*
X413346Y244873D02*
X401186Y244873D01*
X398146Y247913D02*
X416248Y247913D01*
X413208Y250953D02*
X398456Y250953D01*
X401496Y253993D02*
X410168Y253993D01*
X407128Y257033D02*
X404536Y257033D01*
X435252Y188435D02*
X426201Y179384D01*
X435252Y188435D02*
X445737Y177950D01*
X436686Y168899D01*
X426201Y179384D01*
X433646Y171939D02*
X439726Y171939D01*
X442766Y174979D02*
X430606Y174979D01*
X427566Y178019D02*
X445668Y178019D01*
X442628Y181059D02*
X427876Y181059D01*
X430916Y184099D02*
X439588Y184099D01*
X436548Y187139D02*
X433956Y187139D01*
X446311Y199494D02*
X455362Y208545D01*
X465847Y198060D01*
X456796Y189009D01*
X446311Y199494D01*
X453756Y192049D02*
X459836Y192049D01*
X462876Y195089D02*
X450716Y195089D01*
X447676Y198129D02*
X465778Y198129D01*
X462738Y201169D02*
X447986Y201169D01*
X451026Y204209D02*
X459698Y204209D01*
X456658Y207249D02*
X454066Y207249D01*
X387500Y189705D02*
X378449Y180654D01*
X387500Y189705D02*
X397985Y179220D01*
X388934Y170169D01*
X378449Y180654D01*
X385894Y173209D02*
X391974Y173209D01*
X395014Y176249D02*
X382854Y176249D01*
X379814Y179289D02*
X397916Y179289D01*
X394876Y182329D02*
X380124Y182329D01*
X383164Y185369D02*
X391836Y185369D01*
X388796Y188409D02*
X386204Y188409D01*
X398559Y200764D02*
X407610Y209815D01*
X418095Y199330D01*
X409044Y190279D01*
X398559Y200764D01*
X406004Y193319D02*
X412084Y193319D01*
X415124Y196359D02*
X402964Y196359D01*
X399924Y199399D02*
X418026Y199399D01*
X414986Y202439D02*
X400234Y202439D01*
X403274Y205479D02*
X411946Y205479D01*
X408906Y208519D02*
X406314Y208519D01*
X342542Y195039D02*
X333491Y185988D01*
X342542Y195039D02*
X353027Y184554D01*
X343976Y175503D01*
X333491Y185988D01*
X340936Y178543D02*
X347016Y178543D01*
X350056Y181583D02*
X337896Y181583D01*
X334856Y184623D02*
X352958Y184623D01*
X349918Y187663D02*
X335166Y187663D01*
X338206Y190703D02*
X346878Y190703D01*
X343838Y193743D02*
X341246Y193743D01*
X353601Y206098D02*
X362652Y215149D01*
X373137Y204664D01*
X364086Y195613D01*
X353601Y206098D01*
X361046Y198653D02*
X367126Y198653D01*
X370166Y201693D02*
X358006Y201693D01*
X354966Y204733D02*
X373068Y204733D01*
X370028Y207773D02*
X355276Y207773D01*
X358316Y210813D02*
X366988Y210813D01*
X363948Y213853D02*
X361356Y213853D01*
D29*
X454660Y125121D03*
X441960Y103124D03*
X429260Y81127D03*
X398780Y132080D03*
X398780Y106680D03*
X398780Y81280D03*
X342900Y125121D03*
X355600Y103124D03*
X368300Y81127D03*
D10*
X470970Y78526D02*
X478670Y78526D01*
X478670Y70826D01*
X470970Y70826D01*
X470970Y78526D01*
X470970Y73961D02*
X478670Y73961D01*
X478670Y77096D02*
X470970Y77096D01*
X458670Y78526D02*
X450970Y78526D01*
X458670Y78526D02*
X458670Y70826D01*
X450970Y70826D01*
X450970Y78526D01*
X450970Y73961D02*
X458670Y73961D01*
X458670Y77096D02*
X450970Y77096D01*
X466384Y42110D02*
X466384Y34410D01*
X458684Y34410D01*
X458684Y42110D01*
X466384Y42110D01*
X466384Y37545D02*
X458684Y37545D01*
X458684Y40680D02*
X466384Y40680D01*
X466384Y54410D02*
X466384Y62110D01*
X466384Y54410D02*
X458684Y54410D01*
X458684Y62110D01*
X466384Y62110D01*
X466384Y57545D02*
X458684Y57545D01*
X458684Y60680D02*
X466384Y60680D01*
D11*
X411480Y43180D03*
X436880Y43180D03*
D33*
X393954Y409194D03*
X419354Y409194D03*
X444754Y409194D03*
X393954Y434594D03*
X419354Y434594D03*
X444754Y434594D03*
D10*
X651310Y265470D02*
X659010Y265470D01*
X659010Y257770D01*
X651310Y257770D01*
X651310Y265470D01*
X651310Y260905D02*
X659010Y260905D01*
X659010Y264040D02*
X651310Y264040D01*
X639010Y265470D02*
X631310Y265470D01*
X639010Y265470D02*
X639010Y257770D01*
X631310Y257770D01*
X631310Y265470D01*
X631310Y260905D02*
X639010Y260905D01*
X639010Y264040D02*
X631310Y264040D01*
X613450Y224482D02*
X613450Y216782D01*
X605750Y216782D01*
X605750Y224482D01*
X613450Y224482D01*
X613450Y219917D02*
X605750Y219917D01*
X605750Y223052D02*
X613450Y223052D01*
X613450Y236782D02*
X613450Y244482D01*
X613450Y236782D02*
X605750Y236782D01*
X605750Y244482D01*
X613450Y244482D01*
X613450Y239917D02*
X605750Y239917D01*
X605750Y243052D02*
X613450Y243052D01*
X580176Y224482D02*
X580176Y216782D01*
X572476Y216782D01*
X572476Y224482D01*
X580176Y224482D01*
X580176Y219917D02*
X572476Y219917D01*
X572476Y223052D02*
X580176Y223052D01*
X580176Y236782D02*
X580176Y244482D01*
X580176Y236782D02*
X572476Y236782D01*
X572476Y244482D01*
X580176Y244482D01*
X580176Y239917D02*
X572476Y239917D01*
X572476Y243052D02*
X580176Y243052D01*
X562236Y225084D02*
X554536Y225084D01*
X562236Y225084D02*
X562236Y217384D01*
X554536Y217384D01*
X554536Y225084D01*
X554536Y220519D02*
X562236Y220519D01*
X562236Y223654D02*
X554536Y223654D01*
X542236Y225084D02*
X534536Y225084D01*
X542236Y225084D02*
X542236Y217384D01*
X534536Y217384D01*
X534536Y225084D01*
X534536Y220519D02*
X542236Y220519D01*
X542236Y223654D02*
X534536Y223654D01*
X596686Y224482D02*
X596686Y216782D01*
X588986Y216782D01*
X588986Y224482D01*
X596686Y224482D01*
X596686Y219917D02*
X588986Y219917D01*
X588986Y223052D02*
X596686Y223052D01*
X596686Y236782D02*
X596686Y244482D01*
X596686Y236782D02*
X588986Y236782D01*
X588986Y244482D01*
X596686Y244482D01*
X596686Y239917D02*
X588986Y239917D01*
X588986Y243052D02*
X596686Y243052D01*
X641310Y134754D02*
X641310Y127054D01*
X641310Y134754D02*
X649010Y134754D01*
X649010Y127054D01*
X641310Y127054D01*
X641310Y130189D02*
X649010Y130189D01*
X649010Y133324D02*
X641310Y133324D01*
X641310Y114754D02*
X641310Y107054D01*
X641310Y114754D02*
X649010Y114754D01*
X649010Y107054D01*
X641310Y107054D01*
X641310Y110189D02*
X649010Y110189D01*
X649010Y113324D02*
X641310Y113324D01*
D14*
X644154Y150914D02*
X644154Y158054D01*
X647994Y158054D01*
X647994Y150914D01*
X644154Y150914D01*
X644154Y154866D02*
X647994Y154866D01*
X663154Y158054D02*
X663154Y150914D01*
X663154Y158054D02*
X666994Y158054D01*
X666994Y150914D01*
X663154Y150914D01*
X663154Y154866D02*
X666994Y154866D01*
X657494Y170114D02*
X657494Y177254D01*
X657494Y170114D02*
X653654Y170114D01*
X653654Y177254D01*
X657494Y177254D01*
X657494Y174066D02*
X653654Y174066D01*
D10*
X661884Y134754D02*
X661884Y127054D01*
X661884Y134754D02*
X669584Y134754D01*
X669584Y127054D01*
X661884Y127054D01*
X661884Y130189D02*
X669584Y130189D01*
X669584Y133324D02*
X661884Y133324D01*
X661884Y114754D02*
X661884Y107054D01*
X661884Y114754D02*
X669584Y114754D01*
X669584Y107054D01*
X661884Y107054D01*
X661884Y110189D02*
X669584Y110189D01*
X669584Y113324D02*
X661884Y113324D01*
X512786Y186490D02*
X512786Y194190D01*
X520486Y194190D01*
X520486Y186490D01*
X512786Y186490D01*
X512786Y189625D02*
X520486Y189625D01*
X520486Y192760D02*
X512786Y192760D01*
X512786Y174190D02*
X512786Y166490D01*
X512786Y174190D02*
X520486Y174190D01*
X520486Y166490D01*
X512786Y166490D01*
X512786Y169625D02*
X520486Y169625D01*
X520486Y172760D02*
X512786Y172760D01*
X611084Y188522D02*
X611084Y196222D01*
X618784Y196222D01*
X618784Y188522D01*
X611084Y188522D01*
X611084Y191657D02*
X618784Y191657D01*
X618784Y194792D02*
X611084Y194792D01*
X611084Y176222D02*
X611084Y168522D01*
X611084Y176222D02*
X618784Y176222D01*
X618784Y168522D01*
X611084Y168522D01*
X611084Y171657D02*
X618784Y171657D01*
X618784Y174792D02*
X611084Y174792D01*
D11*
X586994Y18378D03*
X536194Y18378D03*
X586994Y188378D03*
X561594Y188378D03*
X536194Y188378D03*
D14*
X509260Y41110D02*
X509260Y33970D01*
X505420Y33970D01*
X505420Y41110D01*
X509260Y41110D01*
X509260Y37922D02*
X505420Y37922D01*
X490260Y41110D02*
X490260Y33970D01*
X486420Y33970D01*
X486420Y41110D01*
X490260Y41110D01*
X490260Y37922D02*
X486420Y37922D01*
X495920Y21910D02*
X495920Y14770D01*
X495920Y21910D02*
X499760Y21910D01*
X499760Y14770D01*
X495920Y14770D01*
X495920Y18722D02*
X499760Y18722D01*
D10*
X394930Y346510D02*
X394930Y354210D01*
X402630Y354210D01*
X402630Y346510D01*
X394930Y346510D01*
X394930Y349645D02*
X402630Y349645D01*
X402630Y352780D02*
X394930Y352780D01*
X394930Y334210D02*
X394930Y326510D01*
X394930Y334210D02*
X402630Y334210D01*
X402630Y326510D01*
X394930Y326510D01*
X394930Y329645D02*
X402630Y329645D01*
X402630Y332780D02*
X394930Y332780D01*
D24*
X327660Y330200D03*
X327660Y355600D03*
X327660Y304800D03*
X327660Y406400D03*
X327660Y203200D03*
X327660Y431800D03*
D34*
X360566Y367650D02*
X360566Y350774D01*
X360566Y367650D02*
X376542Y367650D01*
X376542Y350774D01*
X360566Y350774D01*
X360566Y355833D02*
X376542Y355833D01*
X376542Y360892D02*
X360566Y360892D01*
X360566Y365951D02*
X376542Y365951D01*
X360566Y323850D02*
X360566Y306974D01*
X360566Y323850D02*
X376542Y323850D01*
X376542Y306974D01*
X360566Y306974D01*
X360566Y312033D02*
X376542Y312033D01*
X376542Y317092D02*
X360566Y317092D01*
X360566Y322151D02*
X376542Y322151D01*
D10*
X338274Y15962D02*
X330574Y15962D01*
X330574Y23662D01*
X338274Y23662D01*
X338274Y15962D01*
X338274Y19097D02*
X330574Y19097D01*
X330574Y22232D02*
X338274Y22232D01*
X350574Y15962D02*
X358274Y15962D01*
X350574Y15962D02*
X350574Y23662D01*
X358274Y23662D01*
X358274Y15962D01*
X358274Y19097D02*
X350574Y19097D01*
X350574Y22232D02*
X358274Y22232D01*
D20*
X365128Y37708D02*
X375628Y37708D01*
X375628Y33208D01*
X365128Y33208D01*
X365128Y37708D01*
X365128Y34633D02*
X375628Y34633D01*
X375628Y36058D02*
X365128Y36058D01*
X365128Y37483D02*
X375628Y37483D01*
X375628Y47208D02*
X365128Y47208D01*
X375628Y47208D02*
X375628Y42708D01*
X365128Y42708D01*
X365128Y47208D01*
X365128Y44133D02*
X375628Y44133D01*
X375628Y45558D02*
X365128Y45558D01*
X365128Y46983D02*
X375628Y46983D01*
X375628Y56708D02*
X365128Y56708D01*
X375628Y56708D02*
X375628Y52208D01*
X365128Y52208D01*
X365128Y56708D01*
X365128Y53633D02*
X375628Y53633D01*
X375628Y55058D02*
X365128Y55058D01*
X365128Y56483D02*
X375628Y56483D01*
X349628Y56708D02*
X339128Y56708D01*
X349628Y56708D02*
X349628Y52208D01*
X339128Y52208D01*
X339128Y56708D01*
X339128Y53633D02*
X349628Y53633D01*
X349628Y55058D02*
X339128Y55058D01*
X339128Y56483D02*
X349628Y56483D01*
X349628Y47208D02*
X339128Y47208D01*
X349628Y47208D02*
X349628Y42708D01*
X339128Y42708D01*
X339128Y47208D01*
X339128Y44133D02*
X349628Y44133D01*
X349628Y45558D02*
X339128Y45558D01*
X339128Y46983D02*
X349628Y46983D01*
X349628Y37708D02*
X339128Y37708D01*
X349628Y37708D02*
X349628Y33208D01*
X339128Y33208D01*
X339128Y37708D01*
X339128Y34633D02*
X349628Y34633D01*
X349628Y36058D02*
X339128Y36058D01*
X339128Y37483D02*
X349628Y37483D01*
D29*
X65278Y196342D03*
X90678Y196342D03*
X116078Y196342D03*
D11*
X227330Y267462D03*
X201930Y267462D03*
X642366Y502920D03*
X642366Y477520D03*
D10*
X110530Y435810D02*
X110530Y428110D01*
X102830Y428110D01*
X102830Y435810D01*
X110530Y435810D01*
X110530Y431245D02*
X102830Y431245D01*
X102830Y434380D02*
X110530Y434380D01*
X110530Y448110D02*
X110530Y455810D01*
X110530Y448110D02*
X102830Y448110D01*
X102830Y455810D01*
X110530Y455810D01*
X110530Y451245D02*
X102830Y451245D01*
X102830Y454380D02*
X110530Y454380D01*
D35*
X22914Y443020D02*
X22914Y431746D01*
X32964Y421696D02*
X48334Y421696D01*
X32964Y421696D02*
X22914Y431746D01*
D36*
X48334Y421696D02*
X61034Y421696D01*
X73734Y421696D01*
X86434Y421696D01*
D37*
X110380Y372156D02*
X110380Y352850D01*
X108302Y350772D01*
D38*
X84402Y419664D02*
X86434Y421696D01*
X84402Y419664D02*
X84402Y373962D01*
X65536Y355096D02*
X65536Y314706D01*
X65536Y355096D02*
X84402Y373962D01*
X65536Y332236D02*
X65536Y314706D01*
D39*
X65536Y332236D02*
X68072Y334772D01*
D40*
X37212Y330108D02*
X36196Y329092D01*
X37212Y330108D02*
X62072Y330108D01*
X65536Y326644D02*
X65536Y314706D01*
X65536Y326644D02*
X62072Y330108D01*
D37*
X87122Y253746D02*
X83820Y250444D01*
X87122Y253746D02*
X87122Y265638D01*
D41*
X65024Y286512D03*
D42*
X103048Y97698D02*
X96548Y91198D01*
X103048Y84698D02*
X96548Y78198D01*
D41*
X185420Y151638D03*
D37*
X242156Y300482D02*
X233172Y309466D01*
X233172Y318216D01*
X233172Y331216D01*
D41*
X61722Y271018D03*
X58928Y280416D03*
X25400Y15240D03*
X122428Y351028D03*
X109728Y338328D03*
X122428Y338328D03*
D38*
X65536Y314706D02*
X65536Y306328D01*
D36*
X108134Y350604D02*
X108302Y350772D01*
X109728Y338328D02*
X106172Y334772D01*
X68072Y334772D01*
X108302Y339754D02*
X109728Y338328D01*
X108302Y339754D02*
X108302Y350772D01*
D37*
X262128Y321560D02*
X262128Y262890D01*
X271018Y254000D02*
X276860Y254000D01*
X271018Y254000D02*
X262128Y262890D01*
D40*
X474984Y510892D02*
X474984Y514096D01*
X474984Y510892D02*
X468282Y504190D01*
X468282Y496730D01*
X465582Y494030D01*
X465582Y488950D01*
X596232Y499110D02*
X596232Y515620D01*
X439174Y489814D02*
X416762Y489814D01*
X439174Y489814D02*
X441960Y492600D01*
X461932Y492600D01*
X465582Y488950D01*
D43*
X463760Y323660D02*
X445580Y323660D01*
X463760Y323660D02*
X522160Y323660D01*
X530160Y315660D02*
X547160Y315660D01*
X530160Y315660D02*
X522160Y323660D01*
X547160Y331660D02*
X557754Y331660D01*
X571246Y318168D01*
X596392Y318168D01*
D35*
X596646Y318422D01*
D40*
X660248Y301090D02*
X660248Y294692D01*
X662280Y292660D01*
X660248Y301090D02*
X652780Y308558D01*
X652780Y311860D01*
X561594Y188378D02*
X561676Y188296D01*
X577600Y172372D01*
X614934Y172372D01*
D44*
X603250Y318422D02*
X612488Y327660D01*
X603250Y318422D02*
X596646Y318422D01*
X633932Y327660D02*
X649732Y311860D01*
X652780Y311860D01*
X633932Y327660D02*
X612488Y327660D01*
D41*
X383540Y332740D03*
D43*
X547160Y315660D02*
X568738Y315660D01*
D35*
X571246Y318168D01*
D45*
X353766Y330200D02*
X327660Y330200D01*
D40*
X370378Y44958D02*
X388620Y44958D01*
X403860Y29718D01*
D41*
X377952Y379828D03*
X502920Y55880D03*
D35*
X503174Y129608D02*
X516636Y143070D01*
X516636Y170340D01*
X503174Y56134D02*
X502920Y55880D01*
X503174Y56134D02*
X503174Y129608D01*
X516636Y170340D02*
X543720Y170340D01*
X561676Y188296D01*
D40*
X423418Y29718D02*
X403860Y29718D01*
X423418Y29718D02*
X436880Y43180D01*
X441800Y38260D01*
X462534Y38260D01*
D41*
X358394Y297942D03*
D36*
X122428Y351028D02*
X108558Y351028D01*
X108302Y350772D01*
D44*
X362947Y44958D02*
X370378Y44958D01*
X362947Y44958D02*
X361882Y44594D01*
X355168Y21094D01*
X354424Y19812D01*
D37*
X262128Y321560D02*
X252472Y331216D01*
X185420Y147480D02*
X176878Y138938D01*
X185420Y147480D02*
X185420Y151638D01*
X185420Y147480D02*
X193454Y139446D01*
D38*
X153692Y59180D02*
X173480Y39392D01*
X173480Y34340D01*
X184404Y23416D01*
X111000Y59180D02*
X103048Y67132D01*
X111000Y59180D02*
X153692Y59180D01*
X184404Y23416D02*
X236884Y23416D01*
X241046Y27578D01*
D41*
X71374Y155956D03*
D46*
X85344Y145542D03*
D41*
X79756Y155702D03*
D40*
X28960Y35560D02*
X28960Y25810D01*
X38260Y16510D01*
X26670Y16510D01*
X25400Y15240D01*
D42*
X111000Y59180D02*
X112616Y57564D01*
X148336Y57564D01*
X149952Y59180D01*
X153692Y59180D01*
D40*
X352966Y386174D02*
X352966Y395224D01*
X359312Y379828D02*
X377952Y379828D01*
X359312Y379828D02*
X352966Y386174D01*
D38*
X282296Y177800D02*
X282296Y20705D01*
X282296Y177800D02*
X276860Y177800D01*
X282296Y20705D02*
X247919Y20705D01*
X241046Y27578D01*
X62738Y284226D02*
X62738Y303530D01*
X62738Y284226D02*
X58928Y280416D01*
X62738Y303530D02*
X65536Y306328D01*
X61722Y271018D02*
X59182Y268478D01*
X59182Y257552D01*
X58928Y257298D01*
D37*
X64516Y250444D02*
X83820Y250444D01*
D35*
X58928Y256032D02*
X58928Y257298D01*
D37*
X58928Y256032D02*
X64516Y250444D01*
D45*
X383540Y332740D02*
X385920Y330360D01*
X398780Y330360D01*
X400812Y328328D01*
X417830Y328328D01*
X429260Y316898D01*
X433832Y316898D01*
D43*
X438818Y316898D02*
X445580Y323660D01*
X438818Y316898D02*
X433832Y316898D01*
D38*
X61722Y277622D02*
X58928Y280416D01*
X61722Y277622D02*
X61722Y271018D01*
D40*
X48514Y270002D02*
X36162Y270002D01*
X48514Y270002D02*
X58928Y280416D01*
D37*
X233172Y331216D02*
X252472Y331216D01*
X278384Y331216D01*
X276860Y330200D01*
D35*
X157308Y468910D02*
X153308Y472910D01*
D45*
X276860Y381000D02*
X277114Y381000D01*
X261874Y396240D02*
X258572Y396240D01*
X261874Y396240D02*
X277114Y381000D01*
X258572Y424340D02*
X258572Y455168D01*
X258572Y424340D02*
X258572Y396240D01*
D35*
X258572Y424340D02*
X244602Y424340D01*
X227838Y424340D01*
D45*
X258572Y455168D02*
X256198Y457542D01*
X256198Y471604D01*
X256198Y495642D01*
X241300Y510540D01*
X215900Y510540D01*
X213360Y510540D01*
X201198Y498378D01*
X201198Y471604D01*
X201198Y463580D01*
D42*
X122428Y338328D02*
X109728Y338328D01*
X122428Y338328D02*
X122428Y351028D01*
X141460Y351028D01*
X141716Y350772D01*
X159928Y350772D01*
X160020Y350680D01*
D45*
X161290Y350680D02*
X206850Y396240D01*
X161290Y350680D02*
X160020Y350680D01*
X206850Y396240D02*
X258572Y396240D01*
D37*
X157308Y450014D02*
X157308Y468910D01*
X233172Y359062D02*
X233172Y331216D01*
X233172Y359062D02*
X230792Y361442D01*
X214470Y361442D01*
D44*
X665074Y159131D02*
X665074Y154484D01*
X665074Y159131D02*
X651256Y164338D01*
X616157Y171149D01*
X614934Y172372D01*
D40*
X665734Y153824D02*
X665734Y130904D01*
X665734Y153824D02*
X665074Y154484D01*
D41*
X314960Y148082D03*
X337820Y167640D03*
X375920Y144780D03*
X431800Y144780D03*
X464820Y144780D03*
X487680Y144780D03*
D45*
X79756Y155702D02*
X71374Y155956D01*
X79756Y155702D02*
X79756Y151130D01*
X85344Y145542D01*
X93566Y137320D01*
X95758Y137320D01*
X118176Y137320D02*
X119032Y138176D01*
X118176Y137320D02*
X95758Y137320D01*
X109548Y128692D02*
X119032Y138176D01*
X109548Y128692D02*
X109548Y117198D01*
X57056Y119888D02*
X39464Y119888D01*
X57056Y119888D02*
X57912Y120744D01*
X72052Y120744D01*
X76048Y116748D01*
X96098Y116748D01*
X96548Y117198D01*
X67008Y129840D02*
X57912Y120744D01*
X67008Y129840D02*
X67008Y141732D01*
X67008Y151590D01*
X71374Y155956D01*
D38*
X103048Y84698D02*
X103048Y67132D01*
X103048Y84698D02*
X109548Y91198D01*
D35*
X357284Y284988D02*
X357284Y296832D01*
X358394Y297942D01*
X358394Y305252D01*
X368554Y315412D01*
D45*
X353766Y330200D01*
X368554Y315412D02*
X383540Y330398D01*
X383540Y332740D01*
D35*
X586232Y480408D02*
X605790Y480408D01*
X596232Y490408D02*
X586232Y480408D01*
X596232Y490408D02*
X596232Y499110D01*
X565992Y460168D02*
X566420Y459740D01*
D41*
X566420Y459740D03*
D35*
X565992Y460168D02*
X586232Y480408D01*
D41*
X215900Y510540D03*
X241300Y510540D03*
X200660Y497840D03*
X256540Y492760D03*
X259080Y424180D03*
D35*
X258920Y424340D02*
X244602Y424340D01*
X258920Y424340D02*
X259080Y424180D01*
D45*
X276860Y330200D02*
X327660Y330200D01*
X96416Y421696D02*
X86434Y421696D01*
X96416Y421696D02*
X106680Y431960D01*
D47*
X112428Y431960D01*
X148492Y443484D02*
X155022Y450014D01*
X157308Y450014D01*
X123952Y443484D02*
X112428Y431960D01*
X123952Y443484D02*
X148492Y443484D01*
D45*
X189738Y452120D02*
X201198Y463580D01*
X159414Y452120D02*
X157308Y450014D01*
X159414Y452120D02*
X189738Y452120D01*
D37*
X121570Y430396D02*
X120006Y431960D01*
X106680Y431960D01*
X109060Y431960D01*
X114300Y426720D01*
X117894Y426720D01*
X121570Y430396D01*
D40*
X511462Y445262D02*
X511462Y449072D01*
X526448Y464058D02*
X526448Y466852D01*
X526448Y464058D02*
X511462Y449072D01*
X511462Y464246D02*
X509110Y466598D01*
X511462Y464246D02*
X511462Y445262D01*
D43*
X446692Y353408D02*
X422910Y353408D01*
X417830Y348328D01*
X452440Y347660D02*
X463760Y347660D01*
X452440Y347660D02*
X446692Y353408D01*
X535494Y339660D02*
X547160Y339660D01*
X473456Y347660D02*
X463760Y347660D01*
X547160Y339660D02*
X569754Y339660D01*
X571246Y338168D01*
X596392Y338168D01*
D35*
X596646Y338422D01*
X624078Y338422D01*
X624840Y337660D01*
D40*
X511462Y445262D02*
X502064Y454660D01*
X406400Y454660D01*
X576326Y240632D02*
X592836Y240632D01*
X624840Y337660D02*
X638470Y337660D01*
X648722Y327408D01*
X658112Y327408D01*
X673100Y312420D01*
X673100Y279560D01*
X655160Y261620D01*
X576326Y246126D02*
X576326Y240632D01*
X576326Y246126D02*
X584200Y254000D01*
D41*
X584200Y254000D03*
X667740Y256032D03*
D40*
X660748Y256032D01*
X655160Y261620D01*
X492600Y441960D02*
X495902Y445262D01*
X511462Y445262D01*
D45*
X415798Y350360D02*
X398780Y350360D01*
X415798Y350360D02*
X417830Y348328D01*
D40*
X393954Y434594D02*
X393954Y442214D01*
X406400Y454660D01*
D41*
X350520Y431800D03*
D45*
X364942Y355600D02*
X327660Y355600D01*
X364942Y355600D02*
X368554Y359212D01*
X389928Y359212D01*
X398780Y350360D01*
D41*
X334792Y140908D03*
D40*
X322580Y128696D02*
X322580Y51562D01*
X322580Y128696D02*
X334792Y140908D01*
D45*
X276860Y355600D02*
X279400Y356362D01*
X257810Y377952D01*
X194470Y364396D02*
X194470Y361442D01*
X194470Y364396D02*
X208026Y377952D01*
X257810Y377952D01*
X200060Y337330D02*
X194978Y342412D01*
D42*
X194978Y360934D01*
X194470Y361442D01*
D35*
X205630Y342900D02*
X200060Y337330D01*
D37*
X205630Y342900D02*
X223672Y342900D01*
D35*
X223672Y344216D01*
X220878Y347010D01*
D37*
X199852Y347010D01*
D35*
X194470Y352392D02*
X194470Y361442D01*
D37*
X194470Y352392D02*
X199852Y347010D01*
D35*
X350520Y431800D02*
X352048Y433328D01*
X367284Y433328D01*
X368550Y434594D01*
X393954Y434594D01*
D40*
X344378Y44958D02*
X329184Y44958D01*
X322580Y51562D01*
X329184Y25052D02*
X334424Y19812D01*
X329184Y25052D02*
X329184Y44958D01*
D43*
X487233Y333883D02*
X473456Y347660D01*
X487233Y333883D02*
X525780Y333883D01*
X529717Y333883D01*
X535494Y339660D01*
X525780Y333883D02*
X536003Y323660D01*
X547160Y323660D01*
D45*
X327660Y355600D02*
X276860Y355600D01*
D37*
X131070Y415036D02*
X128527Y412493D01*
X112017Y412493D02*
X110380Y410856D01*
X110380Y398156D01*
X131070Y415036D02*
X131070Y430396D01*
D41*
X138684Y413766D03*
D40*
X35872Y289494D02*
X28448Y282070D01*
X28448Y281686D01*
X35872Y289494D02*
X35872Y291780D01*
D41*
X28448Y281686D03*
D42*
X142494Y403758D02*
X138684Y407568D01*
X138684Y413766D01*
X137411Y412493D01*
X133759Y412493D01*
X128527Y412493D01*
X112017Y412493D01*
X133759Y412493D02*
X142494Y403758D01*
X142494Y409956D02*
X138684Y413766D01*
X142494Y409956D02*
X142494Y403758D01*
D37*
X131070Y413766D02*
X131070Y430396D01*
X131070Y413766D02*
X138684Y413766D01*
D42*
X60654Y498518D02*
X60372Y498800D01*
X60654Y498518D02*
X57098Y494962D01*
X57098Y479632D01*
X61034Y475696D01*
X54430Y468076D02*
X48334Y474172D01*
X48334Y475696D01*
X54430Y468076D02*
X61034Y474680D01*
X61034Y475696D01*
X61034Y452582D02*
X65936Y452582D01*
X61034Y452582D02*
X61034Y455346D01*
X61034Y475696D01*
X61034Y455346D02*
X60884Y455196D01*
X48334Y455646D02*
X47884Y455196D01*
X48334Y475696D02*
X48334Y498800D01*
X86434Y475696D02*
X86434Y455646D01*
X86884Y455196D01*
X48334Y455646D02*
X48334Y475696D01*
X71270Y452582D02*
X67384Y448696D01*
D40*
X67384Y448996D01*
X61034Y455346D01*
X67384Y448696D02*
X74334Y455646D01*
X86434Y455646D01*
D38*
X48334Y498800D02*
X40840Y498800D01*
D42*
X48334Y498800D02*
X60654Y498518D01*
D36*
X40840Y498800D02*
X48334Y455646D01*
D41*
X92202Y217170D03*
X81788Y217932D03*
X72898Y215900D03*
D38*
X59940Y228858D02*
X58928Y228858D01*
X59940Y228858D02*
X83364Y228858D01*
X87424Y232918D01*
D42*
X87424Y221948D01*
X92202Y217170D01*
X82550Y217170D01*
X81788Y217932D01*
X81280Y218440D02*
X75438Y218440D01*
X72898Y215900D01*
X81280Y218440D02*
X81788Y217932D01*
X72898Y215900D02*
X59940Y228858D01*
D37*
X59776Y228694D01*
X34544Y228694D01*
D38*
X58764Y228694D02*
X58928Y228858D01*
X58764Y228694D02*
X34544Y228694D01*
D48*
X17874Y228694D01*
X17780Y228600D01*
X17780Y146860D02*
X22908Y141732D01*
X17780Y146860D02*
X17780Y228600D01*
D38*
X22908Y141732D02*
X19464Y138288D01*
D48*
X19464Y119888D01*
X19304Y91694D02*
X22352Y88646D01*
X19304Y119728D02*
X19464Y119888D01*
X19304Y119728D02*
X19304Y91694D01*
D42*
X92202Y217170D02*
X92202Y231902D01*
X93980Y233680D01*
X88186Y233680D01*
X83364Y228858D01*
D40*
X157308Y430014D02*
X156926Y430396D01*
X140570Y430396D01*
D37*
X88134Y352294D02*
X88134Y350604D01*
X100880Y365040D02*
X100880Y372156D01*
X100880Y365040D02*
X88134Y352294D01*
D40*
X100880Y388578D02*
X100880Y398156D01*
X100880Y388578D02*
X104140Y385318D01*
D41*
X138430Y384556D03*
D40*
X40990Y308368D02*
X35910Y308368D01*
X46228Y313606D02*
X46228Y315976D01*
X46228Y313606D02*
X40990Y308368D01*
D41*
X46228Y315976D03*
D40*
X104140Y385318D02*
X124460Y385318D01*
X126034Y383744D01*
X137618Y383744D01*
X138430Y384556D01*
X15910Y308368D02*
X15872Y308330D01*
X15872Y291780D01*
D37*
X119880Y372156D02*
X120248Y371788D01*
X121920Y371788D01*
D36*
X122936Y370772D02*
X141716Y370772D01*
D42*
X122936Y370772D02*
X121920Y371788D01*
D40*
X36316Y364410D02*
X36316Y346376D01*
X36158Y346218D01*
X47746Y375840D02*
X47746Y377182D01*
X47746Y375840D02*
X36316Y364410D01*
X48260Y346710D02*
X47768Y346218D01*
X36158Y346218D01*
D41*
X48260Y346710D03*
X162560Y384302D03*
D39*
X213498Y471604D02*
X213498Y490358D01*
X218440Y495300D01*
X224028Y495300D02*
X233680Y495300D01*
X238760Y495300D01*
X243898Y490162D02*
X243898Y471604D01*
X243898Y490162D02*
X238760Y495300D01*
X213498Y471604D02*
X213498Y456184D01*
X212228Y454914D01*
D36*
X203708Y443484D02*
X203708Y415798D01*
X181374Y393464D01*
X181182Y393464D01*
D42*
X209042Y448818D02*
X212228Y452004D01*
X209042Y448818D02*
X207010Y448818D01*
D39*
X180388Y394258D02*
X161694Y394258D01*
D36*
X180388Y394258D02*
X181182Y393464D01*
D38*
X160020Y372302D01*
D39*
X160020Y370680D01*
D36*
X141808Y370680D01*
X141716Y370772D01*
D39*
X160020Y370680D02*
X162560Y373220D01*
X162560Y384302D01*
X164234Y385976D02*
X164234Y391718D01*
X164234Y385976D02*
X162560Y384302D01*
X164234Y391718D02*
X161694Y394258D01*
D42*
X212228Y452004D02*
X212228Y454914D01*
D41*
X212228Y454914D03*
X207010Y448818D03*
X233680Y495300D03*
D45*
X224028Y495300D02*
X218440Y495300D01*
D41*
X224028Y495300D03*
D42*
X210196Y452004D02*
X207010Y448818D01*
X210196Y452004D02*
X212228Y452004D01*
X207010Y448818D02*
X207010Y446786D01*
X203708Y443484D01*
X202184Y441960D01*
X202184Y443992D01*
X207010Y448818D01*
D40*
X223698Y457022D02*
X223698Y471604D01*
X223698Y457022D02*
X228600Y452120D01*
X228600Y445102D01*
X227838Y444340D01*
X233698Y463278D02*
X233698Y471604D01*
X244602Y452374D02*
X244602Y444340D01*
X244602Y452374D02*
X233698Y463278D01*
X126608Y398156D02*
X119880Y398156D01*
X130302Y394462D02*
X131572Y394462D01*
D41*
X131572Y394462D03*
D40*
X130302Y394462D02*
X126608Y398156D01*
D37*
X80654Y495978D02*
X80654Y498518D01*
X80654Y495978D02*
X73734Y489058D01*
X73734Y475696D01*
D45*
X82502Y496670D02*
X99352Y496670D01*
X82502Y496670D02*
X80654Y498518D01*
D36*
X96516Y317246D02*
X139450Y317246D01*
X96516Y317246D02*
X93976Y314706D01*
X139450Y317246D02*
X146304Y324100D01*
D41*
X177038Y429260D03*
D46*
X165862Y329692D03*
D42*
X165862Y320040D02*
X165608Y320040D01*
D36*
X165862Y320040D02*
X165862Y329692D01*
X165608Y320040D02*
X150364Y320040D01*
D42*
X146304Y324100D01*
D41*
X185420Y429260D03*
D46*
X165608Y320040D03*
D36*
X165862Y329692D02*
X151896Y329692D01*
X146304Y324100D01*
D40*
X157988Y289306D02*
X175514Y271780D01*
X165608Y320040D02*
X160528Y320040D01*
X157988Y317500D01*
X157988Y289306D01*
X175514Y271780D02*
X175514Y264668D01*
X193548Y246634D01*
D41*
X181102Y436372D03*
D40*
X209550Y236220D02*
X209550Y188468D01*
D41*
X209550Y188468D03*
D40*
X199136Y246634D02*
X193548Y246634D01*
X199136Y246634D02*
X209550Y236220D01*
D37*
X87122Y291638D02*
X87122Y303788D01*
X93976Y310642D02*
X93976Y314706D01*
X93976Y310642D02*
X87122Y303788D01*
X96622Y291638D02*
X97074Y291638D01*
X94234Y288798D01*
X89962Y288798D01*
X87122Y291638D01*
X96114Y291638D02*
X96622Y291638D01*
D39*
X96114Y291638D02*
X94992Y292760D01*
D36*
X94992Y313690D02*
X93976Y314706D01*
X94992Y313690D02*
X94992Y292760D01*
D40*
X332740Y411480D02*
X352966Y411480D01*
X332740Y411480D02*
X327660Y406400D01*
X259588Y173990D02*
X259588Y161384D01*
X259588Y173990D02*
X259334Y174244D01*
D41*
X259334Y174244D03*
X106680Y303784D03*
X29464Y242316D03*
D40*
X29464Y246286D01*
X36162Y252984D01*
X96774Y313690D02*
X106680Y303784D01*
X96774Y313690D02*
X94992Y313690D01*
D42*
X161694Y413258D02*
X177976Y413258D01*
X181182Y416464D01*
X185420Y420702D01*
X185420Y429260D01*
X185928Y429768D01*
X181102Y434594D01*
X181102Y436372D01*
X181102Y433324D01*
X177038Y429260D01*
X185420Y429260D01*
X181182Y425116D02*
X177038Y429260D01*
X181182Y425116D02*
X181182Y416464D01*
X168298Y413258D02*
X161694Y413258D01*
X168298Y413258D02*
X177038Y421998D01*
X177038Y429260D01*
D35*
X276860Y406400D02*
X327660Y406400D01*
D37*
X77622Y276052D02*
X77622Y265638D01*
X80208Y278638D02*
X127766Y278638D01*
D36*
X146304Y260100D01*
D37*
X80208Y278638D02*
X77622Y276052D01*
D36*
X131524Y245320D02*
X131524Y232918D01*
X131524Y245320D02*
X146304Y260100D01*
D40*
X109728Y251460D02*
X109728Y215392D01*
D35*
X95758Y191262D02*
X95758Y157320D01*
X95758Y191262D02*
X90678Y196342D01*
X109728Y215392D01*
X109728Y252532D02*
X96622Y265638D01*
X109728Y252532D02*
X109728Y251460D01*
D40*
X327660Y203200D02*
X347632Y223172D01*
X347632Y258826D01*
D38*
X241046Y185932D02*
X241046Y77578D01*
X241046Y185932D02*
X241046Y193044D01*
X251202Y203200D01*
X276860Y203200D01*
D42*
X243840Y188726D02*
X241046Y185932D01*
X243840Y250952D02*
X227330Y267462D01*
X243840Y250952D02*
X243840Y188726D01*
D35*
X276860Y203200D02*
X327660Y203200D01*
D38*
X20586Y499054D02*
X20586Y510032D01*
X20586Y499054D02*
X20840Y498800D01*
X20586Y510032D02*
X20586Y510806D01*
D36*
X24384Y514604D01*
X27521Y514604D01*
X28380Y516636D02*
X35062Y516636D01*
X99318Y516636D01*
D42*
X99352Y516670D01*
D36*
X109694Y516670D01*
X118366Y507998D01*
X118366Y487852D02*
X133308Y472910D01*
X118366Y487852D02*
X118366Y507998D01*
D35*
X20840Y498800D02*
X20840Y465094D01*
X22914Y463020D01*
D42*
X20586Y510032D02*
X35062Y516636D01*
X27521Y514604D02*
X20840Y498800D01*
X27521Y514604D02*
X28380Y516636D01*
D35*
X276860Y431800D02*
X327660Y431800D01*
D37*
X131070Y456396D02*
X131070Y470672D01*
X133308Y472910D01*
X136356Y472910D02*
X136864Y472402D01*
X136356Y472910D02*
X133308Y472910D01*
X136864Y472402D02*
X136864Y458512D01*
X138980Y456396D02*
X140570Y456396D01*
X138980Y456396D02*
X136864Y458512D01*
X133054Y472656D02*
X133308Y472910D01*
X133054Y472656D02*
X133054Y453644D01*
X139850Y453644D01*
X140570Y454364D02*
X140570Y456396D01*
X140570Y454364D02*
X139850Y453644D01*
D40*
X66946Y386682D02*
X66946Y379824D01*
X48768Y361646D01*
X48768Y360172D01*
D41*
X48768Y360172D03*
X104140Y464312D03*
D40*
X111116Y456396D02*
X106680Y451960D01*
X111116Y456396D02*
X121570Y456396D01*
X104140Y454500D02*
X104140Y464312D01*
X104140Y454500D02*
X106680Y451960D01*
D35*
X34544Y208694D02*
X34544Y190848D01*
X213454Y139446D02*
X213454Y118524D01*
X215900Y116078D01*
D40*
X61216Y104048D02*
X57912Y100744D01*
X61216Y104048D02*
X76048Y104048D01*
X58260Y34700D02*
X58260Y16510D01*
X58260Y34700D02*
X57400Y35560D01*
X58260Y16510D02*
X98392Y16510D01*
X98806Y16924D01*
X191008Y97790D02*
X191262Y97790D01*
D41*
X191262Y97790D03*
X259588Y93218D03*
D40*
X184566Y91348D02*
X130048Y91348D01*
X184566Y91348D02*
X191008Y97790D01*
X259588Y93218D02*
X259588Y105824D01*
D37*
X242672Y344216D02*
X250792Y352336D01*
X250792Y361442D01*
D35*
X114714Y194978D02*
X114714Y156972D01*
X114714Y194978D02*
X116078Y196342D01*
D40*
X174244Y179832D02*
X193294Y198882D01*
X174244Y179832D02*
X157574Y179832D01*
X134714Y156972D01*
X193294Y198882D02*
X193294Y226568D01*
X47746Y396182D02*
X42666Y401262D01*
X24672Y401262D01*
X22914Y403020D01*
X16158Y346218D02*
X16196Y346180D01*
X16196Y329092D01*
D35*
X34544Y170848D02*
X37864Y170960D01*
X63246Y196342D02*
X65278Y196342D01*
X63246Y196342D02*
X37864Y170960D01*
D42*
X57912Y64422D02*
X58420Y64422D01*
D35*
X76140Y78740D02*
X78740Y78740D01*
X76140Y78740D02*
X76048Y78648D01*
D36*
X22860Y62738D02*
X22352Y63246D01*
X22860Y62738D02*
X22860Y55880D01*
X60960Y55880D01*
X60960Y61882D01*
X58420Y64422D01*
D40*
X71308Y64422D02*
X98806Y36924D01*
X71308Y64422D02*
X58420Y64422D01*
D35*
X57912Y64422D02*
X61822Y64422D01*
X76048Y78648D01*
X156878Y124300D02*
X165100Y116078D01*
X156878Y124300D02*
X156878Y138938D01*
X39370Y104394D02*
X39370Y95852D01*
X42164Y93058D01*
D41*
X39370Y104394D03*
X135128Y125984D03*
D35*
X130048Y120904D02*
X130048Y116748D01*
X130048Y120904D02*
X135128Y125984D01*
X139032Y129888D01*
X139032Y138176D01*
D40*
X42164Y93058D02*
X42164Y93058D01*
X57912Y84422D02*
X58514Y84422D01*
X65440Y91348D02*
X76048Y91348D01*
X65440Y91348D02*
X58514Y84422D01*
X54864Y84422D02*
X43500Y73058D01*
X42164Y73058D01*
X54864Y84422D02*
X57912Y84422D01*
X259588Y125824D02*
X259588Y141384D01*
X16162Y252984D02*
X16162Y270002D01*
X489110Y466598D02*
X489110Y483776D01*
X490982Y485648D02*
X490982Y488950D01*
X490982Y485648D02*
X489110Y483776D01*
X498348Y509020D02*
X503424Y514096D01*
X498348Y509020D02*
X498348Y498856D01*
X490982Y491490D01*
X490982Y488950D01*
X541782Y488950D02*
X546448Y484284D01*
X546448Y466852D01*
X551942Y499110D02*
X576232Y499110D01*
X551942Y499110D02*
X541782Y488950D01*
X525460Y403540D02*
X525460Y369360D01*
X554068Y432148D02*
X554068Y459232D01*
X546448Y466852D01*
X554068Y432148D02*
X525460Y403540D01*
D44*
X536194Y474218D02*
X521462Y488950D01*
D40*
X516382Y488950D01*
D44*
X536194Y474218D02*
X536194Y449994D01*
D40*
X531462Y445262D01*
X516382Y488950D02*
X516382Y496062D01*
X535940Y515620D02*
X576232Y515620D01*
X535940Y515620D02*
X516382Y496062D01*
X517460Y408240D02*
X517460Y369360D01*
X528922Y442722D02*
X531462Y445262D01*
X528922Y442722D02*
X528922Y419702D01*
X517460Y408240D01*
D35*
X574024Y448200D02*
X586232Y460408D01*
X574024Y382524D02*
X547160Y355660D01*
X574024Y382524D02*
X574024Y425196D01*
X574024Y448200D01*
D40*
X622824Y425196D02*
X622824Y424180D01*
D35*
X622824Y425196D02*
X622824Y443374D01*
X605790Y460408D01*
X558480Y347660D02*
X547160Y347660D01*
X558480Y347660D02*
X622824Y412004D01*
X622824Y424180D01*
D40*
X472600Y437040D02*
X444754Y409194D01*
X472600Y437040D02*
X472600Y441960D01*
X472600Y439420D02*
X482760Y429260D01*
X472600Y439420D02*
X472600Y441960D01*
X482760Y429260D02*
X515620Y429260D01*
X518160Y426720D01*
D41*
X518160Y426720D03*
X513080Y307340D03*
D40*
X509460Y303720D01*
X509460Y285960D01*
X463760Y331660D02*
X441356Y331660D01*
X436118Y336898D01*
X433832Y336898D01*
X614934Y193642D02*
X621030Y199738D01*
X614934Y193642D02*
X614934Y192372D01*
X621030Y199738D02*
X621030Y235458D01*
X615856Y240632D01*
X609600Y240632D01*
X609600Y254000D02*
X599440Y264160D01*
X609600Y254000D02*
X609600Y240632D01*
X555260Y264160D02*
X533460Y285960D01*
X555260Y264160D02*
X599440Y264160D01*
X453390Y263144D02*
X452015Y261769D01*
X452015Y242973D01*
D41*
X453390Y263144D03*
X467360Y408940D03*
D40*
X477520Y408940D02*
X493460Y393000D01*
X477520Y408940D02*
X467360Y408940D01*
X493460Y393000D02*
X493460Y369360D01*
X480060Y260748D02*
X480060Y221996D01*
X476863Y218799D01*
X485460Y266148D02*
X485460Y285960D01*
X485460Y266148D02*
X480060Y260748D01*
X476863Y218799D02*
X482197Y213465D01*
D35*
X441960Y103124D02*
X429260Y81127D01*
X441960Y103124D02*
X454660Y125121D01*
D40*
X482197Y186033D02*
X482197Y213465D01*
X429260Y81127D02*
X421487Y81127D01*
X370480Y54356D02*
X370378Y54458D01*
X370480Y54356D02*
X394716Y54356D01*
X421487Y81127D01*
D35*
X435969Y178667D02*
X441093Y178667D01*
X444500Y175260D01*
X454660Y165100D01*
X454660Y125121D01*
D40*
X471424Y175260D02*
X482197Y186033D01*
X471424Y175260D02*
X444500Y175260D01*
X439525Y215243D02*
X431905Y222863D01*
X439525Y215243D02*
X439525Y206607D01*
X471424Y238506D01*
X471424Y279924D01*
X477460Y285960D01*
D35*
X398780Y106680D02*
X398780Y81280D01*
X398780Y106680D02*
X398780Y132080D01*
X398780Y165862D01*
D44*
X383794Y66294D02*
X362458Y66294D01*
D40*
X383794Y66294D02*
X398780Y81280D01*
D44*
X362458Y66294D02*
X358509Y62962D01*
X353408Y35458D02*
X344378Y35458D01*
X353408Y35458D02*
X358509Y62962D01*
D40*
X398780Y165862D02*
X439525Y206607D01*
D35*
X398780Y169374D02*
X398780Y165862D01*
X398780Y169374D02*
X388217Y179937D01*
D40*
X394821Y220069D02*
X386439Y228451D01*
X394821Y220069D02*
X394821Y211433D01*
X432816Y249428D01*
X432816Y266446D01*
X463760Y297390D02*
X463760Y299660D01*
X463760Y297390D02*
X432816Y266446D01*
D35*
X355600Y172212D02*
X355600Y137821D01*
X342900Y125121D01*
X355600Y103124D01*
X368300Y81127D01*
D40*
X344378Y65994D02*
X344378Y54458D01*
X359511Y81127D02*
X368300Y81127D01*
X359511Y81127D02*
X344378Y65994D01*
D35*
X355600Y172212D02*
X355600Y172930D01*
X343259Y185271D01*
D40*
X355600Y172212D02*
X394821Y211433D01*
X525460Y277180D02*
X525460Y285960D01*
X543306Y259334D02*
X543306Y233012D01*
X543306Y259334D02*
X525460Y277180D01*
X538386Y228092D02*
X538386Y221234D01*
X538386Y228092D02*
X543306Y233012D01*
X516636Y194056D02*
X516636Y190340D01*
X538386Y215806D02*
X538386Y221234D01*
X538386Y215806D02*
X516636Y194056D01*
X572500Y274320D02*
X547160Y299660D01*
X622460Y274320D02*
X635160Y261620D01*
X622460Y274320D02*
X572500Y274320D01*
X635160Y261620D02*
X635160Y236723D01*
X628636Y230199D01*
X628636Y200622D02*
X655574Y173684D01*
X628636Y200622D02*
X628636Y230199D01*
X643280Y295918D02*
X624840Y314358D01*
X624840Y317660D01*
X643280Y295918D02*
X643280Y292660D01*
X501460Y285960D02*
X501460Y273748D01*
X506730Y268478D02*
X510032Y268478D01*
X524991Y253519D02*
X524991Y252449D01*
D41*
X524991Y252449D03*
X638302Y278384D03*
D40*
X638302Y287682D01*
X643280Y292660D01*
X506730Y268478D02*
X501460Y273748D01*
X510032Y268478D02*
X524991Y253519D01*
D35*
X547480Y307340D02*
X547160Y307660D01*
X547480Y307340D02*
X558800Y307340D01*
X577489Y288651D01*
X582500Y288651D01*
D40*
X475234Y393954D02*
X436880Y393954D01*
X475234Y393954D02*
X485460Y383728D01*
X485460Y369360D01*
X432054Y421894D02*
X419354Y434594D01*
X432054Y421894D02*
X432054Y398780D01*
D41*
X422148Y205740D03*
D40*
X422148Y205232D01*
X416963Y200047D01*
X408327Y200047D01*
X436880Y393954D02*
X432054Y398780D01*
X493460Y285960D02*
X493460Y268540D01*
X502158Y259842D02*
X507238Y259842D01*
X491744Y199644D02*
X491744Y176784D01*
X477360Y162400D02*
X477360Y77216D01*
X474820Y74676D01*
X502158Y259842D02*
X493460Y268540D01*
X517144Y225044D02*
X491744Y199644D01*
X491744Y176784D02*
X477360Y162400D01*
X474820Y70546D02*
X462534Y58260D01*
X474820Y70546D02*
X474820Y74676D01*
X515112Y251968D02*
X507238Y259842D01*
X515112Y251968D02*
X515112Y245055D01*
X517144Y243023D01*
X517144Y225044D01*
X464566Y58260D02*
X476250Y46576D01*
X464566Y58260D02*
X462534Y58260D01*
X476250Y46576D02*
X476250Y26162D01*
X393961Y21826D02*
X380329Y35458D01*
X370378Y35458D01*
X471914Y21826D02*
X476250Y26162D01*
X471914Y21826D02*
X393961Y21826D01*
X416762Y470814D02*
X440174Y470814D01*
X441960Y472600D01*
X444500Y470060D01*
X467200Y470060D01*
X471514Y465746D01*
D41*
X471514Y465746D03*
X484222Y350110D03*
D44*
X533400Y358140D02*
X533460Y358200D01*
D40*
X521462Y346202D02*
X488129Y346202D01*
X484222Y350110D01*
X521462Y346202D02*
X533400Y358140D01*
X533460Y358200D02*
X533460Y369360D01*
D35*
X377792Y284480D02*
X377284Y284988D01*
X377792Y284480D02*
X377792Y268986D01*
X367632Y258826D01*
D40*
X377284Y284988D02*
X387698Y295402D01*
X449646Y307660D02*
X463760Y307660D01*
X437388Y295402D02*
X387698Y295402D01*
X437388Y295402D02*
X449646Y307660D01*
D35*
X397562Y480314D02*
X397562Y490272D01*
X421386Y514096D01*
X448818Y514096D01*
X382792Y498870D02*
X382792Y489922D01*
X382792Y498870D02*
X398018Y514096D01*
X367284Y474414D02*
X367284Y461768D01*
X367284Y474414D02*
X382792Y489922D01*
D40*
X431800Y63500D02*
X411480Y43180D01*
X443644Y63500D02*
X454820Y74676D01*
X443644Y63500D02*
X431800Y63500D01*
X586994Y188378D02*
X592836Y194220D01*
X592836Y220632D01*
X609600Y220632D01*
X536194Y193294D02*
X536194Y188378D01*
X558386Y215486D02*
X558386Y221234D01*
X558386Y215486D02*
X536194Y193294D01*
X558988Y220632D02*
X558386Y221234D01*
X558988Y220632D02*
X576326Y220632D01*
D44*
X489966Y37540D02*
X502666Y27686D01*
X489966Y37540D02*
X488340Y37540D01*
X502666Y27686D02*
X514028Y23554D01*
D35*
X586994Y27940D02*
X586994Y18378D01*
X623316Y64262D02*
X623316Y90678D01*
X643542Y110904D01*
X645160Y110904D01*
X623316Y64262D02*
X586994Y27940D01*
X645160Y110904D02*
X665734Y110904D01*
X586994Y25236D02*
X586994Y18378D01*
X586994Y25236D02*
X576670Y35560D01*
X526034Y35560D01*
X514028Y23554D01*
D40*
X645160Y130904D02*
X645160Y153570D01*
X646074Y154484D01*
X494538Y15038D02*
X494538Y14450D01*
X484378Y14450D01*
X494538Y15038D02*
X497840Y18340D01*
D41*
X484378Y14450D03*
D35*
X327660Y304800D02*
X276860Y304800D01*
D41*
X447802Y375412D03*
D40*
X414274Y375412D01*
X394462Y395224D01*
X372966Y395224D01*
X372966Y411480D01*
X448248Y339660D02*
X463760Y339660D01*
X448248Y339660D02*
X447548Y340360D01*
X447724Y340536D01*
D41*
X447724Y340536D03*
D40*
X504698Y246634D02*
X496973Y238909D01*
X504698Y246634D02*
X504698Y251460D01*
D41*
X504698Y251460D03*
X502920Y419100D03*
D40*
X509460Y412560D01*
X509460Y369360D01*
X456079Y198777D02*
X466896Y187960D01*
X470154Y187960D01*
D41*
X470154Y187960D03*
X490474Y413512D03*
D40*
X501460Y402526D01*
X501460Y369360D01*
X477460Y369360D02*
X462220Y384600D01*
X418548Y384600D01*
X393954Y409194D01*
D41*
X394208Y277876D03*
D40*
X415544Y283210D02*
X420773Y277981D01*
X415544Y283210D02*
X399542Y283210D01*
X394208Y277876D01*
X420773Y277981D02*
X420773Y262785D01*
X406549Y248561D01*
D41*
X408940Y271780D03*
D40*
X362861Y231035D02*
X362861Y205889D01*
X363369Y205381D01*
X403606Y271780D02*
X408940Y271780D01*
X403606Y271780D02*
X362861Y231035D01*
X460458Y355660D02*
X463760Y355660D01*
X460458Y355660D02*
X451628Y364490D01*
X410464Y364490D02*
X409194Y365760D01*
X410464Y364490D02*
X451628Y364490D01*
D41*
X409194Y365760D03*
D40*
X517460Y285960D02*
X517460Y272480D01*
X490220Y54660D02*
X507340Y37540D01*
X534924Y255016D02*
X517460Y272480D01*
X534924Y255016D02*
X534924Y246380D01*
X526034Y218186D02*
X500634Y192786D01*
X526034Y237490D02*
X534924Y246380D01*
X526034Y237490D02*
X526034Y218186D01*
X500634Y192786D02*
X500634Y142494D01*
X490220Y132080D01*
X490220Y54660D01*
D37*
X248204Y318216D02*
X242672Y318216D01*
X250952Y315468D02*
X251714Y315468D01*
D41*
X251714Y315468D03*
X214630Y314706D03*
D37*
X248204Y318216D02*
X250952Y315468D01*
X223672Y318216D02*
X223672Y301998D01*
X222156Y300482D01*
X222156Y307180D02*
X214630Y314706D01*
X222156Y307180D02*
X222156Y300482D01*
D42*
X207212Y300482D02*
X200060Y293330D01*
X207212Y300482D02*
X222156Y300482D01*
D37*
X216408Y312928D02*
X214630Y314706D01*
X216408Y312928D02*
X216408Y306230D01*
X222156Y300482D01*
D42*
X200060Y293330D02*
X200060Y269332D01*
X201930Y267462D01*
D35*
X176946Y102524D02*
X149606Y102524D01*
X148082Y104048D01*
X176946Y102524D02*
X190500Y116078D01*
X148082Y104048D02*
X130048Y104048D01*
D40*
X463760Y315660D02*
X517460Y315660D01*
X525780Y307340D01*
D41*
X525780Y307340D03*
M02*
