G04 EAGLE Gerber RS-274X export*
G75*
%MOMM*%
%FSLAX34Y34*%
%LPD*%
%IN*%
%IPPOS*%
%AMOC8*
5,1,8,0,0,1.08239X$1,22.5*%
G01*
%ADD10C,0.254000*%


D10*
X0Y0D02*
X685800Y0D01*
X685800Y533400D01*
X0Y533400D01*
X0Y0D01*
X155700Y24876D02*
X155632Y23831D01*
X155495Y22792D01*
X155290Y21765D01*
X155019Y20753D01*
X154683Y19761D01*
X154282Y18793D01*
X153818Y17854D01*
X153295Y16946D01*
X152713Y16075D01*
X152075Y15244D01*
X151384Y14457D01*
X150643Y13716D01*
X149856Y13025D01*
X149025Y12388D01*
X148154Y11806D01*
X147246Y11282D01*
X146307Y10818D01*
X145339Y10417D01*
X144347Y10081D01*
X143335Y9810D01*
X142308Y9605D01*
X141269Y9469D01*
X140224Y9400D01*
X139176Y9400D01*
X138131Y9469D01*
X137092Y9605D01*
X136065Y9810D01*
X135053Y10081D01*
X134061Y10417D01*
X133093Y10818D01*
X132154Y11282D01*
X131246Y11806D01*
X130375Y12388D01*
X129544Y13025D01*
X128757Y13716D01*
X128016Y14457D01*
X127325Y15244D01*
X126688Y16075D01*
X126106Y16946D01*
X125582Y17854D01*
X125118Y18793D01*
X124717Y19761D01*
X124381Y20753D01*
X124110Y21765D01*
X123905Y22792D01*
X123769Y23831D01*
X123700Y24876D01*
X123700Y25924D01*
X123769Y26969D01*
X123905Y28008D01*
X124110Y29035D01*
X124381Y30047D01*
X124717Y31039D01*
X125118Y32007D01*
X125582Y32946D01*
X126106Y33854D01*
X126688Y34725D01*
X127325Y35556D01*
X128016Y36343D01*
X128757Y37084D01*
X129544Y37775D01*
X130375Y38413D01*
X131246Y38995D01*
X132154Y39518D01*
X133093Y39982D01*
X134061Y40383D01*
X135053Y40719D01*
X136065Y40990D01*
X137092Y41195D01*
X138131Y41332D01*
X139176Y41400D01*
X140224Y41400D01*
X141269Y41332D01*
X142308Y41195D01*
X143335Y40990D01*
X144347Y40719D01*
X145339Y40383D01*
X146307Y39982D01*
X147246Y39518D01*
X148154Y38995D01*
X149025Y38413D01*
X149856Y37775D01*
X150643Y37084D01*
X151384Y36343D01*
X152075Y35556D01*
X152713Y34725D01*
X153295Y33854D01*
X153818Y32946D01*
X154282Y32007D01*
X154683Y31039D01*
X155019Y30047D01*
X155290Y29035D01*
X155495Y28008D01*
X155632Y26969D01*
X155700Y25924D01*
X155700Y24876D01*
X676400Y75676D02*
X676332Y74631D01*
X676195Y73592D01*
X675990Y72565D01*
X675719Y71553D01*
X675383Y70561D01*
X674982Y69593D01*
X674518Y68654D01*
X673995Y67746D01*
X673413Y66875D01*
X672775Y66044D01*
X672084Y65257D01*
X671343Y64516D01*
X670556Y63825D01*
X669725Y63188D01*
X668854Y62606D01*
X667946Y62082D01*
X667007Y61618D01*
X666039Y61217D01*
X665047Y60881D01*
X664035Y60610D01*
X663008Y60405D01*
X661969Y60269D01*
X660924Y60200D01*
X659876Y60200D01*
X658831Y60269D01*
X657792Y60405D01*
X656765Y60610D01*
X655753Y60881D01*
X654761Y61217D01*
X653793Y61618D01*
X652854Y62082D01*
X651946Y62606D01*
X651075Y63188D01*
X650244Y63825D01*
X649457Y64516D01*
X648716Y65257D01*
X648025Y66044D01*
X647388Y66875D01*
X646806Y67746D01*
X646282Y68654D01*
X645818Y69593D01*
X645417Y70561D01*
X645081Y71553D01*
X644810Y72565D01*
X644605Y73592D01*
X644469Y74631D01*
X644400Y75676D01*
X644400Y76724D01*
X644469Y77769D01*
X644605Y78808D01*
X644810Y79835D01*
X645081Y80847D01*
X645417Y81839D01*
X645818Y82807D01*
X646282Y83746D01*
X646806Y84654D01*
X647388Y85525D01*
X648025Y86356D01*
X648716Y87143D01*
X649457Y87884D01*
X650244Y88575D01*
X651075Y89213D01*
X651946Y89795D01*
X652854Y90318D01*
X653793Y90782D01*
X654761Y91183D01*
X655753Y91519D01*
X656765Y91790D01*
X657792Y91995D01*
X658831Y92132D01*
X659876Y92200D01*
X660924Y92200D01*
X661969Y92132D01*
X663008Y91995D01*
X664035Y91790D01*
X665047Y91519D01*
X666039Y91183D01*
X667007Y90782D01*
X667946Y90318D01*
X668854Y89795D01*
X669725Y89213D01*
X670556Y88575D01*
X671343Y87884D01*
X672084Y87143D01*
X672775Y86356D01*
X673413Y85525D01*
X673995Y84654D01*
X674518Y83746D01*
X674982Y82807D01*
X675383Y81839D01*
X675719Y80847D01*
X675990Y79835D01*
X676195Y78808D01*
X676332Y77769D01*
X676400Y76724D01*
X676400Y75676D01*
X674400Y340076D02*
X674332Y339031D01*
X674195Y337992D01*
X673990Y336965D01*
X673719Y335953D01*
X673383Y334961D01*
X672982Y333993D01*
X672518Y333054D01*
X671995Y332146D01*
X671413Y331275D01*
X670775Y330444D01*
X670084Y329657D01*
X669343Y328916D01*
X668556Y328225D01*
X667725Y327588D01*
X666854Y327006D01*
X665946Y326482D01*
X665007Y326018D01*
X664039Y325617D01*
X663047Y325281D01*
X662035Y325010D01*
X661008Y324805D01*
X659969Y324669D01*
X658924Y324600D01*
X657876Y324600D01*
X656831Y324669D01*
X655792Y324805D01*
X654765Y325010D01*
X653753Y325281D01*
X652761Y325617D01*
X651793Y326018D01*
X650854Y326482D01*
X649946Y327006D01*
X649075Y327588D01*
X648244Y328225D01*
X647457Y328916D01*
X646716Y329657D01*
X646025Y330444D01*
X645388Y331275D01*
X644806Y332146D01*
X644282Y333054D01*
X643818Y333993D01*
X643417Y334961D01*
X643081Y335953D01*
X642810Y336965D01*
X642605Y337992D01*
X642469Y339031D01*
X642400Y340076D01*
X642400Y341124D01*
X642469Y342169D01*
X642605Y343208D01*
X642810Y344235D01*
X643081Y345247D01*
X643417Y346239D01*
X643818Y347207D01*
X644282Y348146D01*
X644806Y349054D01*
X645388Y349925D01*
X646025Y350756D01*
X646716Y351543D01*
X647457Y352284D01*
X648244Y352975D01*
X649075Y353613D01*
X649946Y354195D01*
X650854Y354718D01*
X651793Y355182D01*
X652761Y355583D01*
X653753Y355919D01*
X654765Y356190D01*
X655792Y356395D01*
X656831Y356532D01*
X657876Y356600D01*
X658924Y356600D01*
X659969Y356532D01*
X661008Y356395D01*
X662035Y356190D01*
X663047Y355919D01*
X664039Y355583D01*
X665007Y355182D01*
X665946Y354718D01*
X666854Y354195D01*
X667725Y353613D01*
X668556Y352975D01*
X669343Y352284D01*
X670084Y351543D01*
X670775Y350756D01*
X671413Y349925D01*
X671995Y349054D01*
X672518Y348146D01*
X672982Y347207D01*
X673383Y346239D01*
X673719Y345247D01*
X673990Y344235D01*
X674195Y343208D01*
X674332Y342169D01*
X674400Y341124D01*
X674400Y340076D01*
X168400Y507476D02*
X168332Y506431D01*
X168195Y505392D01*
X167990Y504365D01*
X167719Y503353D01*
X167383Y502361D01*
X166982Y501393D01*
X166518Y500454D01*
X165995Y499546D01*
X165413Y498675D01*
X164775Y497844D01*
X164084Y497057D01*
X163343Y496316D01*
X162556Y495625D01*
X161725Y494988D01*
X160854Y494406D01*
X159946Y493882D01*
X159007Y493418D01*
X158039Y493017D01*
X157047Y492681D01*
X156035Y492410D01*
X155008Y492205D01*
X153969Y492069D01*
X152924Y492000D01*
X151876Y492000D01*
X150831Y492069D01*
X149792Y492205D01*
X148765Y492410D01*
X147753Y492681D01*
X146761Y493017D01*
X145793Y493418D01*
X144854Y493882D01*
X143946Y494406D01*
X143075Y494988D01*
X142244Y495625D01*
X141457Y496316D01*
X140716Y497057D01*
X140025Y497844D01*
X139388Y498675D01*
X138806Y499546D01*
X138282Y500454D01*
X137818Y501393D01*
X137417Y502361D01*
X137081Y503353D01*
X136810Y504365D01*
X136605Y505392D01*
X136469Y506431D01*
X136400Y507476D01*
X136400Y508524D01*
X136469Y509569D01*
X136605Y510608D01*
X136810Y511635D01*
X137081Y512647D01*
X137417Y513639D01*
X137818Y514607D01*
X138282Y515546D01*
X138806Y516454D01*
X139388Y517325D01*
X140025Y518156D01*
X140716Y518943D01*
X141457Y519684D01*
X142244Y520375D01*
X143075Y521013D01*
X143946Y521595D01*
X144854Y522118D01*
X145793Y522582D01*
X146761Y522983D01*
X147753Y523319D01*
X148765Y523590D01*
X149792Y523795D01*
X150831Y523932D01*
X151876Y524000D01*
X152924Y524000D01*
X153969Y523932D01*
X155008Y523795D01*
X156035Y523590D01*
X157047Y523319D01*
X158039Y522983D01*
X159007Y522582D01*
X159946Y522118D01*
X160854Y521595D01*
X161725Y521013D01*
X162556Y520375D01*
X163343Y519684D01*
X164084Y518943D01*
X164775Y518156D01*
X165413Y517325D01*
X165995Y516454D01*
X166518Y515546D01*
X166982Y514607D01*
X167383Y513639D01*
X167719Y512647D01*
X167990Y511635D01*
X168195Y510608D01*
X168332Y509569D01*
X168400Y508524D01*
X168400Y507476D01*
X526965Y133100D02*
X528854Y133022D01*
X530737Y132866D01*
X532613Y132632D01*
X534477Y132321D01*
X536327Y131933D01*
X538160Y131469D01*
X539971Y130930D01*
X541759Y130316D01*
X543520Y129629D01*
X545251Y128870D01*
X546949Y128039D01*
X548612Y127140D01*
X550235Y126172D01*
X551818Y125138D01*
X553356Y124040D01*
X554848Y122879D01*
X556290Y121657D01*
X557681Y120377D01*
X559017Y119041D01*
X560297Y117650D01*
X561519Y116208D01*
X562680Y114716D01*
X563778Y113178D01*
X564812Y111595D01*
X565780Y109972D01*
X566679Y108309D01*
X567510Y106611D01*
X568269Y104880D01*
X568956Y103119D01*
X569570Y101331D01*
X570109Y99520D01*
X570573Y97687D01*
X570961Y95837D01*
X571272Y93973D01*
X571506Y92097D01*
X571662Y90214D01*
X571740Y88325D01*
X571740Y86435D01*
X571662Y84546D01*
X571506Y82663D01*
X571272Y80787D01*
X570961Y78923D01*
X570573Y77073D01*
X570109Y75240D01*
X569570Y73429D01*
X568956Y71641D01*
X568269Y69880D01*
X567510Y68149D01*
X566679Y66451D01*
X565780Y64789D01*
X564812Y63165D01*
X563778Y61582D01*
X562680Y60044D01*
X561519Y58552D01*
X560297Y57110D01*
X559017Y55719D01*
X557681Y54383D01*
X556290Y53103D01*
X554848Y51881D01*
X553356Y50720D01*
X551818Y49622D01*
X550235Y48588D01*
X548612Y47620D01*
X546949Y46721D01*
X545251Y45890D01*
X543520Y45131D01*
X541759Y44444D01*
X539971Y43830D01*
X538160Y43291D01*
X536327Y42827D01*
X534477Y42439D01*
X532613Y42128D01*
X530737Y41894D01*
X528854Y41738D01*
X526965Y41660D01*
X525075Y41660D01*
X523186Y41738D01*
X521303Y41894D01*
X519427Y42128D01*
X517563Y42439D01*
X515713Y42827D01*
X513880Y43291D01*
X512069Y43830D01*
X510281Y44444D01*
X508520Y45131D01*
X506789Y45890D01*
X505091Y46721D01*
X503429Y47620D01*
X501805Y48588D01*
X500222Y49622D01*
X498684Y50720D01*
X497192Y51881D01*
X495750Y53103D01*
X494359Y54383D01*
X493023Y55719D01*
X491743Y57110D01*
X490521Y58552D01*
X489360Y60044D01*
X488262Y61582D01*
X487228Y63165D01*
X486260Y64789D01*
X485361Y66451D01*
X484530Y68149D01*
X483771Y69880D01*
X483084Y71641D01*
X482470Y73429D01*
X481931Y75240D01*
X481467Y77073D01*
X481079Y78923D01*
X480768Y80787D01*
X480534Y82663D01*
X480378Y84546D01*
X480300Y86435D01*
X480300Y88325D01*
X480378Y90214D01*
X480534Y92097D01*
X480768Y93973D01*
X481079Y95837D01*
X481467Y97687D01*
X481931Y99520D01*
X482470Y101331D01*
X483084Y103119D01*
X483771Y104880D01*
X484530Y106611D01*
X485361Y108309D01*
X486260Y109972D01*
X487228Y111595D01*
X488262Y113178D01*
X489360Y114716D01*
X490521Y116208D01*
X491743Y117650D01*
X493023Y119041D01*
X494359Y120377D01*
X495750Y121657D01*
X497192Y122879D01*
X498684Y124040D01*
X500222Y125138D01*
X501805Y126172D01*
X503429Y127140D01*
X505091Y128039D01*
X506789Y128870D01*
X508520Y129629D01*
X510281Y130316D01*
X512069Y130930D01*
X513880Y131469D01*
X515713Y131933D01*
X517563Y132321D01*
X519427Y132632D01*
X521303Y132866D01*
X523186Y133022D01*
X525075Y133100D01*
X526965Y133100D01*
X99000Y502064D02*
X98924Y500996D01*
X98771Y499935D01*
X98543Y498888D01*
X98241Y497860D01*
X97867Y496856D01*
X97422Y495881D01*
X96908Y494941D01*
X96329Y494040D01*
X95687Y493182D01*
X94985Y492372D01*
X94228Y491615D01*
X93418Y490913D01*
X92560Y490271D01*
X91659Y489692D01*
X90719Y489178D01*
X89744Y488733D01*
X88740Y488359D01*
X87712Y488057D01*
X86665Y487829D01*
X85604Y487676D01*
X84536Y487600D01*
X83464Y487600D01*
X82396Y487676D01*
X81335Y487829D01*
X80288Y488057D01*
X79260Y488359D01*
X78256Y488733D01*
X77281Y489178D01*
X76341Y489692D01*
X75440Y490271D01*
X74582Y490913D01*
X73772Y491615D01*
X73015Y492372D01*
X72313Y493182D01*
X71671Y494040D01*
X71092Y494941D01*
X70578Y495881D01*
X70133Y496856D01*
X69759Y497860D01*
X69457Y498888D01*
X69229Y499935D01*
X69076Y500996D01*
X69000Y502064D01*
X69000Y503136D01*
X69076Y504204D01*
X69229Y505265D01*
X69457Y506312D01*
X69759Y507340D01*
X70133Y508344D01*
X70578Y509319D01*
X71092Y510259D01*
X71671Y511160D01*
X72313Y512018D01*
X73015Y512828D01*
X73772Y513585D01*
X74582Y514287D01*
X75440Y514929D01*
X76341Y515508D01*
X77281Y516022D01*
X78256Y516467D01*
X79260Y516841D01*
X80288Y517143D01*
X81335Y517371D01*
X82396Y517524D01*
X83464Y517600D01*
X84536Y517600D01*
X85604Y517524D01*
X86665Y517371D01*
X87712Y517143D01*
X88740Y516841D01*
X89744Y516467D01*
X90719Y516022D01*
X91659Y515508D01*
X92560Y514929D01*
X93418Y514287D01*
X94228Y513585D01*
X94985Y512828D01*
X95687Y512018D01*
X96329Y511160D01*
X96908Y510259D01*
X97422Y509319D01*
X97867Y508344D01*
X98241Y507340D01*
X98543Y506312D01*
X98771Y505265D01*
X98924Y504204D01*
X99000Y503136D01*
X99000Y502064D01*
X99000Y217064D02*
X98924Y215996D01*
X98771Y214935D01*
X98543Y213888D01*
X98241Y212860D01*
X97867Y211856D01*
X97422Y210881D01*
X96908Y209941D01*
X96329Y209040D01*
X95687Y208182D01*
X94985Y207372D01*
X94228Y206615D01*
X93418Y205913D01*
X92560Y205271D01*
X91659Y204692D01*
X90719Y204178D01*
X89744Y203733D01*
X88740Y203359D01*
X87712Y203057D01*
X86665Y202829D01*
X85604Y202676D01*
X84536Y202600D01*
X83464Y202600D01*
X82396Y202676D01*
X81335Y202829D01*
X80288Y203057D01*
X79260Y203359D01*
X78256Y203733D01*
X77281Y204178D01*
X76341Y204692D01*
X75440Y205271D01*
X74582Y205913D01*
X73772Y206615D01*
X73015Y207372D01*
X72313Y208182D01*
X71671Y209040D01*
X71092Y209941D01*
X70578Y210881D01*
X70133Y211856D01*
X69759Y212860D01*
X69457Y213888D01*
X69229Y214935D01*
X69076Y215996D01*
X69000Y217064D01*
X69000Y218136D01*
X69076Y219204D01*
X69229Y220265D01*
X69457Y221312D01*
X69759Y222340D01*
X70133Y223344D01*
X70578Y224319D01*
X71092Y225259D01*
X71671Y226160D01*
X72313Y227018D01*
X73015Y227828D01*
X73772Y228585D01*
X74582Y229287D01*
X75440Y229929D01*
X76341Y230508D01*
X77281Y231022D01*
X78256Y231467D01*
X79260Y231841D01*
X80288Y232143D01*
X81335Y232371D01*
X82396Y232524D01*
X83464Y232600D01*
X84536Y232600D01*
X85604Y232524D01*
X86665Y232371D01*
X87712Y232143D01*
X88740Y231841D01*
X89744Y231467D01*
X90719Y231022D01*
X91659Y230508D01*
X92560Y229929D01*
X93418Y229287D01*
X94228Y228585D01*
X94985Y227828D01*
X95687Y227018D01*
X96329Y226160D01*
X96908Y225259D01*
X97422Y224319D01*
X97867Y223344D01*
X98241Y222340D01*
X98543Y221312D01*
X98771Y220265D01*
X98924Y219204D01*
X99000Y218136D01*
X99000Y217064D01*
X414000Y502064D02*
X413924Y500996D01*
X413771Y499935D01*
X413543Y498888D01*
X413241Y497860D01*
X412867Y496856D01*
X412422Y495881D01*
X411908Y494941D01*
X411329Y494040D01*
X410687Y493182D01*
X409985Y492372D01*
X409228Y491615D01*
X408418Y490913D01*
X407560Y490271D01*
X406659Y489692D01*
X405719Y489178D01*
X404744Y488733D01*
X403740Y488359D01*
X402712Y488057D01*
X401665Y487829D01*
X400604Y487676D01*
X399536Y487600D01*
X398464Y487600D01*
X397396Y487676D01*
X396335Y487829D01*
X395288Y488057D01*
X394260Y488359D01*
X393256Y488733D01*
X392281Y489178D01*
X391341Y489692D01*
X390440Y490271D01*
X389582Y490913D01*
X388772Y491615D01*
X388015Y492372D01*
X387313Y493182D01*
X386671Y494040D01*
X386092Y494941D01*
X385578Y495881D01*
X385133Y496856D01*
X384759Y497860D01*
X384457Y498888D01*
X384229Y499935D01*
X384076Y500996D01*
X384000Y502064D01*
X384000Y503136D01*
X384076Y504204D01*
X384229Y505265D01*
X384457Y506312D01*
X384759Y507340D01*
X385133Y508344D01*
X385578Y509319D01*
X386092Y510259D01*
X386671Y511160D01*
X387313Y512018D01*
X388015Y512828D01*
X388772Y513585D01*
X389582Y514287D01*
X390440Y514929D01*
X391341Y515508D01*
X392281Y516022D01*
X393256Y516467D01*
X394260Y516841D01*
X395288Y517143D01*
X396335Y517371D01*
X397396Y517524D01*
X398464Y517600D01*
X399536Y517600D01*
X400604Y517524D01*
X401665Y517371D01*
X402712Y517143D01*
X403740Y516841D01*
X404744Y516467D01*
X405719Y516022D01*
X406659Y515508D01*
X407560Y514929D01*
X408418Y514287D01*
X409228Y513585D01*
X409985Y512828D01*
X410687Y512018D01*
X411329Y511160D01*
X411908Y510259D01*
X412422Y509319D01*
X412867Y508344D01*
X413241Y507340D01*
X413543Y506312D01*
X413771Y505265D01*
X413924Y504204D01*
X414000Y503136D01*
X414000Y502064D01*
X414000Y217064D02*
X413924Y215996D01*
X413771Y214935D01*
X413543Y213888D01*
X413241Y212860D01*
X412867Y211856D01*
X412422Y210881D01*
X411908Y209941D01*
X411329Y209040D01*
X410687Y208182D01*
X409985Y207372D01*
X409228Y206615D01*
X408418Y205913D01*
X407560Y205271D01*
X406659Y204692D01*
X405719Y204178D01*
X404744Y203733D01*
X403740Y203359D01*
X402712Y203057D01*
X401665Y202829D01*
X400604Y202676D01*
X399536Y202600D01*
X398464Y202600D01*
X397396Y202676D01*
X396335Y202829D01*
X395288Y203057D01*
X394260Y203359D01*
X393256Y203733D01*
X392281Y204178D01*
X391341Y204692D01*
X390440Y205271D01*
X389582Y205913D01*
X388772Y206615D01*
X388015Y207372D01*
X387313Y208182D01*
X386671Y209040D01*
X386092Y209941D01*
X385578Y210881D01*
X385133Y211856D01*
X384759Y212860D01*
X384457Y213888D01*
X384229Y214935D01*
X384076Y215996D01*
X384000Y217064D01*
X384000Y218136D01*
X384076Y219204D01*
X384229Y220265D01*
X384457Y221312D01*
X384759Y222340D01*
X385133Y223344D01*
X385578Y224319D01*
X386092Y225259D01*
X386671Y226160D01*
X387313Y227018D01*
X388015Y227828D01*
X388772Y228585D01*
X389582Y229287D01*
X390440Y229929D01*
X391341Y230508D01*
X392281Y231022D01*
X393256Y231467D01*
X394260Y231841D01*
X395288Y232143D01*
X396335Y232371D01*
X397396Y232524D01*
X398464Y232600D01*
X399536Y232600D01*
X400604Y232524D01*
X401665Y232371D01*
X402712Y232143D01*
X403740Y231841D01*
X404744Y231467D01*
X405719Y231022D01*
X406659Y230508D01*
X407560Y229929D01*
X408418Y229287D01*
X409228Y228585D01*
X409985Y227828D01*
X410687Y227018D01*
X411329Y226160D01*
X411908Y225259D01*
X412422Y224319D01*
X412867Y223344D01*
X413241Y222340D01*
X413543Y221312D01*
X413771Y220265D01*
X413924Y219204D01*
X414000Y218136D01*
X414000Y217064D01*
M02*
