G04 EAGLE Gerber RS-274X export*
G75*
%MOMM*%
%FSLAX34Y34*%
%LPD*%
%INSoldermask Bottom*%
%IPPOS*%
%AMOC8*
5,1,8,0,0,1.08239X$1,22.5*%
G01*
%ADD10C,3.403200*%
%ADD11C,1.711200*%
%ADD12C,0.534309*%
%ADD13C,0.409087*%
%ADD14C,9.347200*%
%ADD15R,1.711200X1.711200*%
%ADD16C,1.727200*%
%ADD17P,1.869504X8X22.500000*%
%ADD18C,0.522925*%
%ADD19C,0.621981*%
%ADD20C,3.203200*%
%ADD21R,0.761200X1.512800*%
%ADD22C,0.746622*%
%ADD23C,0.499716*%
%ADD24C,1.411200*%
%ADD25C,1.703200*%
%ADD26C,1.209600*%
%ADD27C,0.959600*%


D10*
X139700Y25400D03*
X660400Y76200D03*
X658400Y340600D03*
X152400Y508000D03*
D11*
X328200Y446600D03*
X328200Y495400D03*
D12*
X648755Y286545D02*
X656445Y286545D01*
X656445Y278855D01*
X648755Y278855D01*
X648755Y286545D01*
X648755Y283931D02*
X656445Y283931D01*
X636445Y286545D02*
X628755Y286545D01*
X636445Y286545D02*
X636445Y278855D01*
X628755Y278855D01*
X628755Y286545D01*
X628755Y283931D02*
X636445Y283931D01*
X231829Y512997D02*
X224139Y512997D01*
X224139Y520687D01*
X231829Y520687D01*
X231829Y512997D01*
X231829Y518073D02*
X224139Y518073D01*
X244139Y512997D02*
X251829Y512997D01*
X244139Y512997D02*
X244139Y520687D01*
X251829Y520687D01*
X251829Y512997D01*
X251829Y518073D02*
X244139Y518073D01*
X288281Y520611D02*
X295971Y520611D01*
X295971Y512921D01*
X288281Y512921D01*
X288281Y520611D01*
X288281Y517997D02*
X295971Y517997D01*
X275971Y520611D02*
X268281Y520611D01*
X275971Y520611D02*
X275971Y512921D01*
X268281Y512921D01*
X268281Y520611D01*
X268281Y517997D02*
X275971Y517997D01*
X56165Y341195D02*
X48475Y341195D01*
X48475Y348885D01*
X56165Y348885D01*
X56165Y341195D01*
X56165Y346271D02*
X48475Y346271D01*
X68475Y341195D02*
X76165Y341195D01*
X68475Y341195D02*
X68475Y348885D01*
X76165Y348885D01*
X76165Y341195D01*
X76165Y346271D02*
X68475Y346271D01*
X216645Y445075D02*
X216645Y452765D01*
X216645Y445075D02*
X208955Y445075D01*
X208955Y452765D01*
X216645Y452765D01*
X216645Y450151D02*
X208955Y450151D01*
X216645Y465075D02*
X216645Y472765D01*
X216645Y465075D02*
X208955Y465075D01*
X208955Y472765D01*
X216645Y472765D01*
X216645Y470151D02*
X208955Y470151D01*
X349775Y519345D02*
X357465Y519345D01*
X357465Y511655D01*
X349775Y511655D01*
X349775Y519345D01*
X349775Y516731D02*
X357465Y516731D01*
X337465Y519345D02*
X329775Y519345D01*
X337465Y519345D02*
X337465Y511655D01*
X329775Y511655D01*
X329775Y519345D01*
X329775Y516731D02*
X337465Y516731D01*
X262165Y414895D02*
X254475Y414895D01*
X254475Y422585D01*
X262165Y422585D01*
X262165Y414895D01*
X262165Y419971D02*
X254475Y419971D01*
X274475Y414895D02*
X282165Y414895D01*
X274475Y414895D02*
X274475Y422585D01*
X282165Y422585D01*
X282165Y414895D01*
X282165Y419971D02*
X274475Y419971D01*
D13*
X303551Y135931D02*
X303551Y125989D01*
X295609Y125989D01*
X295609Y135931D01*
X303551Y135931D01*
X303551Y129875D02*
X295609Y129875D01*
X295609Y133761D02*
X303551Y133761D01*
X279551Y135931D02*
X279551Y125989D01*
X271609Y125989D01*
X271609Y135931D01*
X279551Y135931D01*
X279551Y129875D02*
X271609Y129875D01*
X271609Y133761D02*
X279551Y133761D01*
X207249Y163049D02*
X207249Y172991D01*
X215191Y172991D01*
X215191Y163049D01*
X207249Y163049D01*
X207249Y166935D02*
X215191Y166935D01*
X215191Y170821D02*
X207249Y170821D01*
X231249Y172991D02*
X231249Y163049D01*
X231249Y172991D02*
X239191Y172991D01*
X239191Y163049D01*
X231249Y163049D01*
X231249Y166935D02*
X239191Y166935D01*
X239191Y170821D02*
X231249Y170821D01*
D14*
X526020Y87380D03*
D15*
X437120Y61980D03*
X437120Y112780D03*
X620000Y61980D03*
X620000Y87380D03*
X620000Y112780D03*
D16*
X296360Y174380D03*
D17*
X321760Y174380D03*
X347160Y174380D03*
X296360Y199780D03*
X321760Y199780D03*
X347160Y199780D03*
D11*
X537400Y488700D03*
X588200Y488700D03*
X97700Y101340D03*
X97700Y121340D03*
X212060Y130460D03*
X212060Y105060D03*
X212060Y79660D03*
X212060Y54260D03*
D18*
X498392Y392489D02*
X511196Y392489D01*
X498392Y392489D02*
X498392Y407323D01*
X511196Y407323D01*
X511196Y392489D01*
X511196Y397457D02*
X498392Y397457D01*
X498392Y402425D02*
X511196Y402425D01*
X482756Y392489D02*
X469952Y392489D01*
X469952Y407323D01*
X482756Y407323D01*
X482756Y392489D01*
X482756Y397457D02*
X469952Y397457D01*
X469952Y402425D02*
X482756Y402425D01*
D12*
X627285Y230005D02*
X627285Y222315D01*
X619595Y222315D01*
X619595Y230005D01*
X627285Y230005D01*
X627285Y227391D02*
X619595Y227391D01*
X627285Y242315D02*
X627285Y250005D01*
X627285Y242315D02*
X619595Y242315D01*
X619595Y250005D01*
X627285Y250005D01*
X627285Y247391D02*
X619595Y247391D01*
X566985Y197965D02*
X566985Y190275D01*
X559295Y190275D01*
X559295Y197965D01*
X566985Y197965D01*
X566985Y195351D02*
X559295Y195351D01*
X566985Y210275D02*
X566985Y217965D01*
X566985Y210275D02*
X559295Y210275D01*
X559295Y217965D01*
X566985Y217965D01*
X566985Y215351D02*
X559295Y215351D01*
X614395Y193015D02*
X622085Y193015D01*
X614395Y193015D02*
X614395Y200705D01*
X622085Y200705D01*
X622085Y193015D01*
X622085Y198091D02*
X614395Y198091D01*
X634395Y193015D02*
X642085Y193015D01*
X634395Y193015D02*
X634395Y200705D01*
X642085Y200705D01*
X642085Y193015D01*
X642085Y198091D02*
X634395Y198091D01*
X633565Y162795D02*
X625875Y162795D01*
X625875Y170485D01*
X633565Y170485D01*
X633565Y162795D01*
X633565Y167871D02*
X625875Y167871D01*
X645875Y162795D02*
X653565Y162795D01*
X645875Y162795D02*
X645875Y170485D01*
X653565Y170485D01*
X653565Y162795D01*
X653565Y167871D02*
X645875Y167871D01*
X361885Y124835D02*
X354195Y124835D01*
X354195Y132525D01*
X361885Y132525D01*
X361885Y124835D01*
X361885Y129911D02*
X354195Y129911D01*
X374195Y124835D02*
X381885Y124835D01*
X374195Y124835D02*
X374195Y132525D01*
X381885Y132525D01*
X381885Y124835D01*
X381885Y129911D02*
X374195Y129911D01*
X379501Y62505D02*
X387191Y62505D01*
X379501Y62505D02*
X379501Y70195D01*
X387191Y70195D01*
X387191Y62505D01*
X387191Y67581D02*
X379501Y67581D01*
X399501Y62505D02*
X407191Y62505D01*
X399501Y62505D02*
X399501Y70195D01*
X407191Y70195D01*
X407191Y62505D01*
X407191Y67581D02*
X399501Y67581D01*
X383405Y38061D02*
X375715Y38061D01*
X375715Y45751D01*
X383405Y45751D01*
X383405Y38061D01*
X383405Y43137D02*
X375715Y43137D01*
X395715Y38061D02*
X403405Y38061D01*
X395715Y38061D02*
X395715Y45751D01*
X403405Y45751D01*
X403405Y38061D01*
X403405Y43137D02*
X395715Y43137D01*
D18*
X501694Y312677D02*
X514498Y312677D01*
X501694Y312677D02*
X501694Y327511D01*
X514498Y327511D01*
X514498Y312677D01*
X514498Y317645D02*
X501694Y317645D01*
X501694Y322613D02*
X514498Y322613D01*
X486058Y312677D02*
X473254Y312677D01*
X473254Y327511D01*
X486058Y327511D01*
X486058Y312677D01*
X486058Y317645D02*
X473254Y317645D01*
X473254Y322613D02*
X486058Y322613D01*
D12*
X389725Y158125D02*
X389725Y150435D01*
X382035Y150435D01*
X382035Y158125D01*
X389725Y158125D01*
X389725Y155511D02*
X382035Y155511D01*
X389725Y170435D02*
X389725Y178125D01*
X389725Y170435D02*
X382035Y170435D01*
X382035Y178125D01*
X389725Y178125D01*
X389725Y175511D02*
X382035Y175511D01*
X275895Y85065D02*
X275895Y77375D01*
X275895Y85065D02*
X283585Y85065D01*
X283585Y77375D01*
X275895Y77375D01*
X275895Y82451D02*
X283585Y82451D01*
X275895Y65065D02*
X275895Y57375D01*
X275895Y65065D02*
X283585Y65065D01*
X283585Y57375D01*
X275895Y57375D01*
X275895Y62451D02*
X283585Y62451D01*
X323915Y95665D02*
X331605Y95665D01*
X331605Y87975D01*
X323915Y87975D01*
X323915Y95665D01*
X323915Y93051D02*
X331605Y93051D01*
X311605Y95665D02*
X303915Y95665D01*
X311605Y95665D02*
X311605Y87975D01*
X303915Y87975D01*
X303915Y95665D01*
X303915Y93051D02*
X311605Y93051D01*
X246435Y457615D02*
X246435Y465305D01*
X254125Y465305D01*
X254125Y457615D01*
X246435Y457615D01*
X246435Y462691D02*
X254125Y462691D01*
X246435Y445305D02*
X246435Y437615D01*
X246435Y445305D02*
X254125Y445305D01*
X254125Y437615D01*
X246435Y437615D01*
X246435Y442691D02*
X254125Y442691D01*
X277238Y458621D02*
X277238Y466311D01*
X284928Y466311D01*
X284928Y458621D01*
X277238Y458621D01*
X277238Y463697D02*
X284928Y463697D01*
X277238Y446311D02*
X277238Y438621D01*
X277238Y446311D02*
X284928Y446311D01*
X284928Y438621D01*
X277238Y438621D01*
X277238Y443697D02*
X284928Y443697D01*
D18*
X499662Y251661D02*
X512466Y251661D01*
X499662Y251661D02*
X499662Y266495D01*
X512466Y266495D01*
X512466Y251661D01*
X512466Y256629D02*
X499662Y256629D01*
X499662Y261597D02*
X512466Y261597D01*
X484026Y251661D02*
X471222Y251661D01*
X471222Y266495D01*
X484026Y266495D01*
X484026Y251661D01*
X484026Y256629D02*
X471222Y256629D01*
X471222Y261597D02*
X484026Y261597D01*
X490264Y422743D02*
X503068Y422743D01*
X490264Y422743D02*
X490264Y437577D01*
X503068Y437577D01*
X503068Y422743D01*
X503068Y427711D02*
X490264Y427711D01*
X490264Y432679D02*
X503068Y432679D01*
X474628Y422743D02*
X461824Y422743D01*
X461824Y437577D01*
X474628Y437577D01*
X474628Y422743D01*
X474628Y427711D02*
X461824Y427711D01*
X461824Y432679D02*
X474628Y432679D01*
X500424Y361219D02*
X513228Y361219D01*
X500424Y361219D02*
X500424Y376053D01*
X513228Y376053D01*
X513228Y361219D01*
X513228Y366187D02*
X500424Y366187D01*
X500424Y371155D02*
X513228Y371155D01*
X484788Y361219D02*
X471984Y361219D01*
X471984Y376053D01*
X484788Y376053D01*
X484788Y361219D01*
X484788Y366187D02*
X471984Y366187D01*
X471984Y371155D02*
X484788Y371155D01*
X502202Y282423D02*
X515006Y282423D01*
X502202Y282423D02*
X502202Y297257D01*
X515006Y297257D01*
X515006Y282423D01*
X515006Y287391D02*
X502202Y287391D01*
X502202Y292359D02*
X515006Y292359D01*
X486566Y282423D02*
X473762Y282423D01*
X473762Y297257D01*
X486566Y297257D01*
X486566Y282423D01*
X486566Y287391D02*
X473762Y287391D01*
X473762Y292359D02*
X486566Y292359D01*
D11*
X324770Y132292D03*
X26140Y54920D03*
X26140Y80320D03*
X26140Y105720D03*
D19*
X380174Y94176D02*
X380174Y87064D01*
X380174Y94176D02*
X383986Y94176D01*
X383986Y87064D01*
X380174Y87064D01*
X380174Y92973D02*
X383986Y92973D01*
X361174Y94176D02*
X361174Y87064D01*
X361174Y94176D02*
X364986Y94176D01*
X364986Y87064D01*
X361174Y87064D01*
X361174Y92973D02*
X364986Y92973D01*
X374486Y106264D02*
X374486Y113376D01*
X374486Y106264D02*
X370674Y106264D01*
X370674Y113376D01*
X374486Y113376D01*
X374486Y112173D02*
X370674Y112173D01*
D11*
X203400Y492500D03*
X228800Y492500D03*
X254200Y492500D03*
X279600Y492500D03*
D20*
X84000Y502600D03*
X84000Y217600D03*
X399000Y502600D03*
X399000Y217600D03*
D11*
X397760Y124820D03*
X597996Y314050D03*
X575999Y301350D03*
X554001Y288650D03*
X532004Y275950D03*
X596100Y345000D03*
X570700Y345000D03*
X545300Y345000D03*
X519900Y345000D03*
X597996Y375950D03*
X575999Y388650D03*
X554001Y401350D03*
X532004Y414050D03*
X281560Y101420D03*
D21*
X617228Y440784D03*
X627728Y440784D03*
X638228Y440784D03*
X638228Y416908D03*
X627728Y416908D03*
X617228Y416908D03*
D22*
X458783Y482467D02*
X442017Y482467D01*
X442017Y498333D01*
X458783Y498333D01*
X458783Y482467D01*
X458783Y489560D02*
X442017Y489560D01*
X442017Y496653D02*
X458783Y496653D01*
X485817Y482467D02*
X502583Y482467D01*
X485817Y482467D02*
X485817Y498333D01*
X502583Y498333D01*
X502583Y482467D01*
X502583Y489560D02*
X485817Y489560D01*
X485817Y496653D02*
X502583Y496653D01*
D11*
X21700Y284820D03*
X21700Y324820D03*
X169700Y256820D03*
X169700Y341820D03*
X169700Y381820D03*
X169700Y466820D03*
X217020Y285800D03*
X167020Y285800D03*
D12*
X535155Y217765D02*
X535155Y210075D01*
X535155Y217765D02*
X542845Y217765D01*
X542845Y210075D01*
X535155Y210075D01*
X535155Y215151D02*
X542845Y215151D01*
X535155Y197765D02*
X535155Y190075D01*
X535155Y197765D02*
X542845Y197765D01*
X542845Y190075D01*
X535155Y190075D01*
X535155Y195151D02*
X542845Y195151D01*
X597265Y224675D02*
X597265Y232365D01*
X597265Y224675D02*
X589575Y224675D01*
X589575Y232365D01*
X597265Y232365D01*
X597265Y229751D02*
X589575Y229751D01*
X597265Y244675D02*
X597265Y252365D01*
X597265Y244675D02*
X589575Y244675D01*
X589575Y252365D01*
X597265Y252365D01*
X597265Y249751D02*
X589575Y249751D01*
D23*
X70972Y416772D02*
X70972Y425908D01*
X73908Y425908D01*
X73908Y416772D01*
X70972Y416772D01*
X70972Y421519D02*
X73908Y421519D01*
X80472Y425908D02*
X80472Y416772D01*
X80472Y425908D02*
X83408Y425908D01*
X83408Y416772D01*
X80472Y416772D01*
X80472Y421519D02*
X83408Y421519D01*
X89972Y425908D02*
X89972Y416772D01*
X89972Y425908D02*
X92908Y425908D01*
X92908Y416772D01*
X89972Y416772D01*
X89972Y421519D02*
X92908Y421519D01*
X89972Y400808D02*
X89972Y391672D01*
X89972Y400808D02*
X92908Y400808D01*
X92908Y391672D01*
X89972Y391672D01*
X89972Y396419D02*
X92908Y396419D01*
X70972Y400808D02*
X70972Y391672D01*
X70972Y400808D02*
X73908Y400808D01*
X73908Y391672D01*
X70972Y391672D01*
X70972Y396419D02*
X73908Y396419D01*
D18*
X60762Y454457D02*
X47958Y454457D01*
X60762Y454457D02*
X60762Y439623D01*
X47958Y439623D01*
X47958Y454457D01*
X47958Y444591D02*
X60762Y444591D01*
X60762Y449559D02*
X47958Y449559D01*
X76398Y454457D02*
X89202Y454457D01*
X89202Y439623D01*
X76398Y439623D01*
X76398Y454457D01*
X76398Y444591D02*
X89202Y444591D01*
X89202Y449559D02*
X76398Y449559D01*
X55682Y380797D02*
X42878Y380797D01*
X55682Y380797D02*
X55682Y365963D01*
X42878Y365963D01*
X42878Y380797D01*
X42878Y370931D02*
X55682Y370931D01*
X55682Y375899D02*
X42878Y375899D01*
X71318Y380797D02*
X84122Y380797D01*
X84122Y365963D01*
X71318Y365963D01*
X71318Y380797D01*
X71318Y370931D02*
X84122Y370931D01*
X84122Y375899D02*
X71318Y375899D01*
D12*
X118075Y377225D02*
X125765Y377225D01*
X125765Y369535D01*
X118075Y369535D01*
X118075Y377225D01*
X118075Y374611D02*
X125765Y374611D01*
X105765Y377225D02*
X98075Y377225D01*
X105765Y377225D02*
X105765Y369535D01*
X98075Y369535D01*
X98075Y377225D01*
X98075Y374611D02*
X105765Y374611D01*
D24*
X171960Y218570D03*
X187960Y218570D03*
X203960Y218570D03*
D12*
X234985Y214825D02*
X234985Y207135D01*
X227295Y207135D01*
X227295Y214825D01*
X234985Y214825D01*
X234985Y212211D02*
X227295Y212211D01*
X234985Y227135D02*
X234985Y234825D01*
X234985Y227135D02*
X227295Y227135D01*
X227295Y234825D01*
X234985Y234825D01*
X234985Y232211D02*
X227295Y232211D01*
D11*
X581660Y439420D03*
D12*
X191735Y438025D02*
X191735Y430335D01*
X191735Y438025D02*
X199425Y438025D01*
X199425Y430335D01*
X191735Y430335D01*
X191735Y435411D02*
X199425Y435411D01*
X191735Y418025D02*
X191735Y410335D01*
X191735Y418025D02*
X199425Y418025D01*
X199425Y410335D01*
X191735Y410335D01*
X191735Y415411D02*
X199425Y415411D01*
D25*
X216660Y392380D03*
X590000Y270000D03*
X492700Y182220D03*
D26*
X99060Y340360D03*
X125984Y158496D03*
X127000Y210820D03*
X419100Y447040D03*
D27*
X360680Y492760D03*
X304800Y497840D03*
X175260Y20320D03*
X33020Y22860D03*
X182880Y63500D03*
X296164Y406654D03*
X217424Y429514D03*
X537464Y373634D03*
X534924Y312674D03*
X593344Y416814D03*
X436880Y515620D03*
X266954Y398780D03*
X380492Y417322D03*
X259334Y300228D03*
X265684Y475234D03*
X411734Y297180D03*
X376936Y351536D03*
X58674Y163068D03*
X424180Y20320D03*
X420624Y178054D03*
X368808Y370078D03*
X288036Y268478D03*
X435864Y226314D03*
X296202Y384462D03*
X448996Y413982D03*
X398092Y399794D03*
X409856Y393636D03*
X421756Y383038D03*
X423366Y369462D03*
X423158Y356252D03*
X451104Y262382D03*
X426720Y198120D03*
X268224Y349504D03*
X308550Y301812D03*
X368208Y327222D03*
X246432Y369306D03*
X648000Y460000D03*
X647000Y404000D03*
X497300Y453380D03*
D26*
X350520Y480060D03*
D27*
X311000Y392000D03*
X330300Y373540D03*
X334936Y357286D03*
X614680Y170180D03*
X584200Y187960D03*
X280162Y338582D03*
X293624Y302260D03*
X279146Y257048D03*
X256540Y271780D03*
X269240Y147320D03*
X378442Y243316D03*
X328426Y342458D03*
X307340Y60960D03*
X14732Y138176D03*
X42418Y121412D03*
X198120Y162560D03*
D26*
X25400Y254000D03*
X180086Y93472D03*
X181610Y139700D03*
D27*
X346170Y324962D03*
X262636Y317246D03*
X284480Y363220D03*
X242824Y347472D03*
M02*
