G04 EAGLE Gerber RS-274X export*
G75*
%MOMM*%
%FSLAX34Y34*%
%LPD*%
%IN*%
%IPPOS*%
%AMOC8*
5,1,8,0,0,1.08239X$1,22.5*%
G01*
%ADD10C,0.254000*%


D10*
X0Y10160D02*
X39Y9275D01*
X154Y8396D01*
X346Y7530D01*
X613Y6685D01*
X952Y5866D01*
X1361Y5080D01*
X1837Y4332D01*
X2377Y3629D01*
X2976Y2976D01*
X3629Y2377D01*
X4332Y1837D01*
X5080Y1361D01*
X5866Y952D01*
X6685Y613D01*
X7530Y346D01*
X8396Y154D01*
X9275Y39D01*
X10160Y0D01*
X650240Y0D01*
X651126Y39D01*
X652004Y154D01*
X652870Y346D01*
X653715Y613D01*
X654534Y952D01*
X655320Y1361D01*
X656068Y1837D01*
X656771Y2377D01*
X657424Y2976D01*
X658023Y3629D01*
X658563Y4332D01*
X659039Y5080D01*
X659448Y5866D01*
X659787Y6685D01*
X660054Y7530D01*
X660246Y8396D01*
X660361Y9275D01*
X660400Y10160D01*
X660400Y25400D01*
X685800Y50800D01*
X685800Y378460D01*
X660400Y403860D01*
X660400Y518160D01*
X645160Y533400D01*
X10160Y533400D01*
X9275Y533361D01*
X8396Y533246D01*
X7530Y533054D01*
X6685Y532787D01*
X5866Y532448D01*
X5080Y532039D01*
X4332Y531563D01*
X3629Y531023D01*
X2976Y530424D01*
X2377Y529771D01*
X1837Y529068D01*
X1361Y528320D01*
X952Y527534D01*
X613Y526715D01*
X346Y525870D01*
X154Y525004D01*
X39Y524126D01*
X0Y523240D01*
X0Y10160D01*
X182444Y504904D02*
X182456Y504631D01*
X182492Y504361D01*
X182551Y504095D01*
X182633Y503835D01*
X182737Y503582D01*
X182863Y503341D01*
X183010Y503110D01*
X183176Y502894D01*
X183360Y502693D01*
X183561Y502509D01*
X183777Y502343D01*
X184008Y502196D01*
X184249Y502070D01*
X184502Y501966D01*
X184762Y501884D01*
X185028Y501825D01*
X185298Y501789D01*
X185571Y501777D01*
X185844Y501789D01*
X186114Y501825D01*
X186380Y501884D01*
X186641Y501966D01*
X186893Y502070D01*
X187135Y502196D01*
X187365Y502343D01*
X187581Y502509D01*
X187782Y502693D01*
X187966Y502894D01*
X188133Y503110D01*
X188279Y503341D01*
X188405Y503582D01*
X188509Y503835D01*
X188591Y504095D01*
X188651Y504361D01*
X188686Y504631D01*
X188698Y504904D01*
X188698Y515904D01*
X188686Y516177D01*
X188651Y516447D01*
X188591Y516713D01*
X188509Y516974D01*
X188405Y517226D01*
X188279Y517468D01*
X188133Y517698D01*
X187966Y517914D01*
X187782Y518115D01*
X187581Y518299D01*
X187365Y518466D01*
X187135Y518612D01*
X186893Y518738D01*
X186641Y518842D01*
X186380Y518924D01*
X186114Y518984D01*
X185844Y519019D01*
X185571Y519031D01*
X185298Y519019D01*
X185028Y518984D01*
X184762Y518924D01*
X184502Y518842D01*
X184249Y518738D01*
X184008Y518612D01*
X183777Y518466D01*
X183561Y518299D01*
X183360Y518115D01*
X183176Y517914D01*
X183010Y517698D01*
X182863Y517468D01*
X182737Y517226D01*
X182633Y516974D01*
X182551Y516713D01*
X182492Y516447D01*
X182456Y516177D01*
X182444Y515904D01*
X182444Y504904D01*
X268698Y504904D02*
X268710Y504631D01*
X268746Y504361D01*
X268805Y504095D01*
X268887Y503835D01*
X268991Y503582D01*
X269117Y503341D01*
X269264Y503110D01*
X269430Y502894D01*
X269614Y502693D01*
X269815Y502509D01*
X270031Y502343D01*
X270262Y502196D01*
X270503Y502070D01*
X270756Y501966D01*
X271016Y501884D01*
X271282Y501825D01*
X271552Y501789D01*
X271825Y501777D01*
X272098Y501789D01*
X272368Y501825D01*
X272634Y501884D01*
X272895Y501966D01*
X273147Y502070D01*
X273389Y502196D01*
X273619Y502343D01*
X273835Y502509D01*
X274036Y502693D01*
X274220Y502894D01*
X274387Y503110D01*
X274533Y503341D01*
X274659Y503582D01*
X274763Y503835D01*
X274845Y504095D01*
X274905Y504361D01*
X274940Y504631D01*
X274952Y504904D01*
X274952Y515904D01*
X274940Y516177D01*
X274905Y516447D01*
X274845Y516713D01*
X274763Y516974D01*
X274659Y517226D01*
X274533Y517468D01*
X274387Y517698D01*
X274220Y517914D01*
X274036Y518115D01*
X273835Y518299D01*
X273619Y518466D01*
X273389Y518612D01*
X273147Y518738D01*
X272895Y518842D01*
X272634Y518924D01*
X272368Y518984D01*
X272098Y519019D01*
X271825Y519031D01*
X271552Y519019D01*
X271282Y518984D01*
X271016Y518924D01*
X270756Y518842D01*
X270503Y518738D01*
X270262Y518612D01*
X270031Y518466D01*
X269815Y518299D01*
X269614Y518115D01*
X269430Y517914D01*
X269264Y517698D01*
X269117Y517468D01*
X268991Y517226D01*
X268887Y516974D01*
X268805Y516713D01*
X268746Y516447D01*
X268710Y516177D01*
X268698Y515904D01*
X268698Y504904D01*
X182444Y466904D02*
X182456Y466631D01*
X182492Y466361D01*
X182551Y466095D01*
X182633Y465835D01*
X182737Y465582D01*
X182863Y465341D01*
X183010Y465110D01*
X183176Y464894D01*
X183360Y464693D01*
X183561Y464509D01*
X183777Y464343D01*
X184008Y464196D01*
X184249Y464070D01*
X184502Y463966D01*
X184762Y463884D01*
X185028Y463825D01*
X185298Y463789D01*
X185571Y463777D01*
X185844Y463789D01*
X186114Y463825D01*
X186380Y463884D01*
X186641Y463966D01*
X186893Y464070D01*
X187135Y464196D01*
X187365Y464343D01*
X187581Y464509D01*
X187782Y464693D01*
X187966Y464894D01*
X188133Y465110D01*
X188279Y465341D01*
X188405Y465582D01*
X188509Y465835D01*
X188591Y466095D01*
X188651Y466361D01*
X188686Y466631D01*
X188698Y466904D01*
X188698Y477904D01*
X188686Y478177D01*
X188651Y478447D01*
X188591Y478713D01*
X188509Y478974D01*
X188405Y479226D01*
X188279Y479468D01*
X188133Y479698D01*
X187966Y479914D01*
X187782Y480115D01*
X187581Y480299D01*
X187365Y480466D01*
X187135Y480612D01*
X186893Y480738D01*
X186641Y480842D01*
X186380Y480924D01*
X186114Y480984D01*
X185844Y481019D01*
X185571Y481031D01*
X185298Y481019D01*
X185028Y480984D01*
X184762Y480924D01*
X184502Y480842D01*
X184249Y480738D01*
X184008Y480612D01*
X183777Y480466D01*
X183561Y480299D01*
X183360Y480115D01*
X183176Y479914D01*
X183010Y479698D01*
X182863Y479468D01*
X182737Y479226D01*
X182633Y478974D01*
X182551Y478713D01*
X182492Y478447D01*
X182456Y478177D01*
X182444Y477904D01*
X182444Y466904D01*
X268698Y466904D02*
X268710Y466631D01*
X268746Y466361D01*
X268805Y466095D01*
X268887Y465835D01*
X268991Y465582D01*
X269117Y465341D01*
X269264Y465110D01*
X269430Y464894D01*
X269614Y464693D01*
X269815Y464509D01*
X270031Y464343D01*
X270262Y464196D01*
X270503Y464070D01*
X270756Y463966D01*
X271016Y463884D01*
X271282Y463825D01*
X271552Y463789D01*
X271825Y463777D01*
X272098Y463789D01*
X272368Y463825D01*
X272634Y463884D01*
X272895Y463966D01*
X273147Y464070D01*
X273389Y464196D01*
X273619Y464343D01*
X273835Y464509D01*
X274036Y464693D01*
X274220Y464894D01*
X274387Y465110D01*
X274533Y465341D01*
X274659Y465582D01*
X274763Y465835D01*
X274845Y466095D01*
X274905Y466361D01*
X274940Y466631D01*
X274952Y466904D01*
X274952Y477904D01*
X274940Y478177D01*
X274905Y478447D01*
X274845Y478713D01*
X274763Y478974D01*
X274659Y479226D01*
X274533Y479468D01*
X274387Y479698D01*
X274220Y479914D01*
X274036Y480115D01*
X273835Y480299D01*
X273619Y480466D01*
X273389Y480612D01*
X273147Y480738D01*
X272895Y480842D01*
X272634Y480924D01*
X272368Y480984D01*
X272098Y481019D01*
X271825Y481031D01*
X271552Y481019D01*
X271282Y480984D01*
X271016Y480924D01*
X270756Y480842D01*
X270503Y480738D01*
X270262Y480612D01*
X270031Y480466D01*
X269815Y480299D01*
X269614Y480115D01*
X269430Y479914D01*
X269264Y479698D01*
X269117Y479468D01*
X268991Y479226D01*
X268887Y478974D01*
X268805Y478713D01*
X268746Y478447D01*
X268710Y478177D01*
X268698Y477904D01*
X268698Y466904D01*
X297180Y370840D02*
X297199Y370397D01*
X297257Y369958D01*
X297353Y369525D01*
X297486Y369103D01*
X297656Y368693D01*
X297861Y368300D01*
X298099Y367926D01*
X298369Y367575D01*
X298668Y367248D01*
X298995Y366949D01*
X299346Y366679D01*
X299720Y366441D01*
X300113Y366236D01*
X300523Y366066D01*
X300945Y365933D01*
X301378Y365837D01*
X301817Y365779D01*
X302260Y365760D01*
X302703Y365779D01*
X303142Y365837D01*
X303575Y365933D01*
X303997Y366066D01*
X304407Y366236D01*
X304800Y366441D01*
X305174Y366679D01*
X305525Y366949D01*
X305852Y367248D01*
X306152Y367575D01*
X306421Y367926D01*
X306659Y368300D01*
X306864Y368693D01*
X307034Y369103D01*
X307167Y369525D01*
X307263Y369958D01*
X307321Y370397D01*
X307340Y370840D01*
X307340Y393446D01*
X307321Y393889D01*
X307263Y394328D01*
X307167Y394761D01*
X307034Y395183D01*
X306864Y395593D01*
X306659Y395986D01*
X306421Y396360D01*
X306152Y396711D01*
X305852Y397038D01*
X305525Y397338D01*
X305174Y397607D01*
X304800Y397845D01*
X304407Y398050D01*
X303997Y398220D01*
X303575Y398353D01*
X303142Y398449D01*
X302703Y398507D01*
X302260Y398526D01*
X301807Y398495D01*
X301358Y398425D01*
X300917Y398316D01*
X300487Y398169D01*
X300071Y397984D01*
X299674Y397765D01*
X299296Y397511D01*
X298943Y397226D01*
X298615Y396911D01*
X298317Y396569D01*
X298049Y396202D01*
X297814Y395813D01*
X297614Y395404D01*
X297451Y394981D01*
X297325Y394544D01*
X297237Y394098D01*
X297189Y393646D01*
X297180Y393192D01*
X297180Y370840D01*
X297180Y215900D02*
X297210Y215469D01*
X297277Y215042D01*
X297382Y214622D01*
X297522Y214214D01*
X297698Y213819D01*
X297907Y213441D01*
X298149Y213082D01*
X298420Y212746D01*
X298721Y212435D01*
X299047Y212151D01*
X299396Y211897D01*
X299767Y211674D01*
X300155Y211484D01*
X300558Y211329D01*
X300974Y211210D01*
X301398Y211127D01*
X301828Y211082D01*
X302260Y211074D01*
X302692Y211082D01*
X303122Y211127D01*
X303546Y211210D01*
X303962Y211329D01*
X304365Y211484D01*
X304754Y211674D01*
X305124Y211897D01*
X305473Y212151D01*
X305800Y212435D01*
X306100Y212746D01*
X306371Y213082D01*
X306613Y213441D01*
X306822Y213819D01*
X306998Y214214D01*
X307138Y214622D01*
X307243Y215042D01*
X307310Y215469D01*
X307340Y215900D01*
X307340Y292608D01*
X307310Y293039D01*
X307243Y293466D01*
X307138Y293886D01*
X306998Y294294D01*
X306822Y294689D01*
X306613Y295068D01*
X306371Y295426D01*
X306100Y295762D01*
X305800Y296073D01*
X305473Y296357D01*
X305124Y296611D01*
X304754Y296834D01*
X304365Y297024D01*
X303962Y297179D01*
X303546Y297298D01*
X303122Y297381D01*
X302692Y297426D01*
X302260Y297434D01*
X301817Y297415D01*
X301378Y297357D01*
X300945Y297261D01*
X300523Y297128D01*
X300113Y296958D01*
X299720Y296753D01*
X299346Y296515D01*
X298995Y296246D01*
X298668Y295946D01*
X298369Y295619D01*
X298099Y295268D01*
X297861Y294894D01*
X297656Y294501D01*
X297486Y294091D01*
X297353Y293669D01*
X297257Y293236D01*
X297199Y292797D01*
X297180Y292354D01*
X297180Y215900D01*
X297180Y445008D02*
X297199Y444565D01*
X297257Y444126D01*
X297353Y443693D01*
X297486Y443271D01*
X297656Y442861D01*
X297861Y442468D01*
X298099Y442094D01*
X298369Y441743D01*
X298668Y441416D01*
X298995Y441117D01*
X299346Y440847D01*
X299720Y440609D01*
X300113Y440404D01*
X300523Y440234D01*
X300945Y440101D01*
X301378Y440005D01*
X301817Y439947D01*
X302260Y439928D01*
X302703Y439947D01*
X303142Y440005D01*
X303575Y440101D01*
X303997Y440234D01*
X304407Y440404D01*
X304800Y440609D01*
X305174Y440847D01*
X305525Y441117D01*
X305852Y441416D01*
X306152Y441743D01*
X306421Y442094D01*
X306659Y442468D01*
X306864Y442861D01*
X307034Y443271D01*
X307167Y443693D01*
X307263Y444126D01*
X307321Y444565D01*
X307340Y445008D01*
X307340Y518668D01*
X307321Y519111D01*
X307263Y519550D01*
X307167Y519983D01*
X307034Y520405D01*
X306864Y520815D01*
X306659Y521208D01*
X306421Y521582D01*
X306152Y521933D01*
X305852Y522260D01*
X305525Y522560D01*
X305174Y522829D01*
X304800Y523067D01*
X304407Y523272D01*
X303997Y523442D01*
X303575Y523575D01*
X303142Y523671D01*
X302703Y523729D01*
X302260Y523748D01*
X301817Y523729D01*
X301378Y523671D01*
X300945Y523575D01*
X300523Y523442D01*
X300113Y523272D01*
X299720Y523067D01*
X299346Y522829D01*
X298995Y522560D01*
X298668Y522260D01*
X298369Y521933D01*
X298099Y521582D01*
X297861Y521208D01*
X297656Y520815D01*
X297486Y520405D01*
X297353Y519983D01*
X297257Y519550D01*
X297199Y519111D01*
X297180Y518668D01*
X297180Y445008D01*
X297180Y119888D02*
X297199Y119445D01*
X297257Y119006D01*
X297353Y118573D01*
X297486Y118151D01*
X297656Y117741D01*
X297861Y117348D01*
X298099Y116974D01*
X298369Y116623D01*
X298668Y116296D01*
X298995Y115997D01*
X299346Y115727D01*
X299720Y115489D01*
X300113Y115284D01*
X300523Y115114D01*
X300945Y114981D01*
X301378Y114885D01*
X301817Y114827D01*
X302260Y114808D01*
X302703Y114827D01*
X303142Y114885D01*
X303575Y114981D01*
X303997Y115114D01*
X304407Y115284D01*
X304800Y115489D01*
X305174Y115727D01*
X305525Y115997D01*
X305852Y116296D01*
X306152Y116623D01*
X306421Y116974D01*
X306659Y117348D01*
X306864Y117741D01*
X307034Y118151D01*
X307167Y118573D01*
X307263Y119006D01*
X307321Y119445D01*
X307340Y119888D01*
X307340Y189992D01*
X307321Y190435D01*
X307263Y190874D01*
X307167Y191307D01*
X307034Y191729D01*
X306864Y192139D01*
X306659Y192532D01*
X306421Y192906D01*
X306152Y193257D01*
X305852Y193584D01*
X305525Y193884D01*
X305174Y194153D01*
X304800Y194391D01*
X304407Y194596D01*
X303997Y194766D01*
X303575Y194899D01*
X303142Y194995D01*
X302703Y195053D01*
X302260Y195072D01*
X301807Y195041D01*
X301358Y194971D01*
X300917Y194862D01*
X300487Y194715D01*
X300071Y194530D01*
X299674Y194311D01*
X299296Y194057D01*
X298943Y193772D01*
X298615Y193457D01*
X298317Y193115D01*
X298049Y192748D01*
X297814Y192359D01*
X297614Y191950D01*
X297451Y191527D01*
X297325Y191090D01*
X297237Y190644D01*
X297189Y190192D01*
X297180Y189738D01*
X297180Y119888D01*
X297180Y15240D02*
X297199Y14797D01*
X297257Y14358D01*
X297353Y13925D01*
X297486Y13503D01*
X297656Y13093D01*
X297861Y12700D01*
X298099Y12326D01*
X298369Y11975D01*
X298668Y11648D01*
X298995Y11349D01*
X299346Y11079D01*
X299720Y10841D01*
X300113Y10636D01*
X300523Y10466D01*
X300945Y10333D01*
X301378Y10237D01*
X301817Y10179D01*
X302260Y10160D01*
X302703Y10179D01*
X303142Y10237D01*
X303575Y10333D01*
X303997Y10466D01*
X304407Y10636D01*
X304800Y10841D01*
X305174Y11079D01*
X305525Y11349D01*
X305852Y11648D01*
X306152Y11975D01*
X306421Y12326D01*
X306659Y12700D01*
X306864Y13093D01*
X307034Y13503D01*
X307167Y13925D01*
X307263Y14358D01*
X307321Y14797D01*
X307340Y15240D01*
X307340Y104140D01*
X307321Y104583D01*
X307263Y105022D01*
X307167Y105455D01*
X307034Y105877D01*
X306864Y106287D01*
X306659Y106680D01*
X306421Y107054D01*
X306152Y107405D01*
X305852Y107732D01*
X305525Y108032D01*
X305174Y108301D01*
X304800Y108539D01*
X304407Y108744D01*
X303997Y108914D01*
X303575Y109047D01*
X303142Y109143D01*
X302703Y109201D01*
X302260Y109220D01*
X301817Y109201D01*
X301378Y109143D01*
X300945Y109047D01*
X300523Y108914D01*
X300113Y108744D01*
X299720Y108539D01*
X299346Y108301D01*
X298995Y108032D01*
X298668Y107732D01*
X298369Y107405D01*
X298099Y107054D01*
X297861Y106680D01*
X297656Y106287D01*
X297486Y105877D01*
X297353Y105455D01*
X297257Y105022D01*
X297199Y104583D01*
X297180Y104140D01*
X297180Y15240D01*
X307340Y342869D02*
X307340Y343439D01*
X307276Y344006D01*
X307149Y344563D01*
X306961Y345101D01*
X306713Y345615D01*
X306410Y346098D01*
X306054Y346544D01*
X305650Y346948D01*
X305204Y347304D01*
X304721Y347607D01*
X304207Y347855D01*
X303669Y348043D01*
X303112Y348170D01*
X302545Y348234D01*
X301975Y348234D01*
X301408Y348170D01*
X300851Y348043D01*
X300313Y347855D01*
X299799Y347607D01*
X299316Y347304D01*
X298870Y346948D01*
X298466Y346544D01*
X298110Y346098D01*
X297807Y345615D01*
X297559Y345101D01*
X297371Y344563D01*
X297244Y344006D01*
X297180Y343439D01*
X297180Y342869D01*
X297244Y342302D01*
X297371Y341745D01*
X297559Y341207D01*
X297807Y340693D01*
X298110Y340210D01*
X298466Y339764D01*
X298870Y339360D01*
X299316Y339004D01*
X299799Y338701D01*
X300313Y338453D01*
X300851Y338265D01*
X301408Y338138D01*
X301975Y338074D01*
X302545Y338074D01*
X303112Y338138D01*
X303669Y338265D01*
X304207Y338453D01*
X304721Y338701D01*
X305204Y339004D01*
X305650Y339360D01*
X306054Y339764D01*
X306410Y340210D01*
X306713Y340693D01*
X306961Y341207D01*
X307149Y341745D01*
X307276Y342302D01*
X307340Y342869D01*
X307340Y316453D02*
X307340Y317023D01*
X307276Y317590D01*
X307149Y318147D01*
X306961Y318685D01*
X306713Y319199D01*
X306410Y319682D01*
X306054Y320128D01*
X305650Y320532D01*
X305204Y320888D01*
X304721Y321191D01*
X304207Y321439D01*
X303669Y321627D01*
X303112Y321754D01*
X302545Y321818D01*
X301975Y321818D01*
X301408Y321754D01*
X300851Y321627D01*
X300313Y321439D01*
X299799Y321191D01*
X299316Y320888D01*
X298870Y320532D01*
X298466Y320128D01*
X298110Y319682D01*
X297807Y319199D01*
X297559Y318685D01*
X297371Y318147D01*
X297244Y317590D01*
X297180Y317023D01*
X297180Y316453D01*
X297244Y315886D01*
X297371Y315329D01*
X297559Y314791D01*
X297807Y314277D01*
X298110Y313794D01*
X298466Y313348D01*
X298870Y312944D01*
X299316Y312588D01*
X299799Y312285D01*
X300313Y312037D01*
X300851Y311849D01*
X301408Y311722D01*
X301975Y311658D01*
X302545Y311658D01*
X303112Y311722D01*
X303669Y311849D01*
X304207Y312037D01*
X304721Y312285D01*
X305204Y312588D01*
X305650Y312944D01*
X306054Y313348D01*
X306410Y313794D01*
X306713Y314277D01*
X306961Y314791D01*
X307149Y315329D01*
X307276Y315886D01*
X307340Y316453D01*
X307340Y418815D02*
X307340Y419385D01*
X307276Y419952D01*
X307149Y420509D01*
X306961Y421047D01*
X306713Y421561D01*
X306410Y422044D01*
X306054Y422490D01*
X305650Y422894D01*
X305204Y423250D01*
X304721Y423553D01*
X304207Y423801D01*
X303669Y423989D01*
X303112Y424116D01*
X302545Y424180D01*
X301975Y424180D01*
X301408Y424116D01*
X300851Y423989D01*
X300313Y423801D01*
X299799Y423553D01*
X299316Y423250D01*
X298870Y422894D01*
X298466Y422490D01*
X298110Y422044D01*
X297807Y421561D01*
X297559Y421047D01*
X297371Y420509D01*
X297244Y419952D01*
X297180Y419385D01*
X297180Y418815D01*
X297244Y418248D01*
X297371Y417691D01*
X297559Y417153D01*
X297807Y416639D01*
X298110Y416156D01*
X298466Y415710D01*
X298870Y415306D01*
X299316Y414950D01*
X299799Y414647D01*
X300313Y414399D01*
X300851Y414211D01*
X301408Y414084D01*
X301975Y414020D01*
X302545Y414020D01*
X303112Y414084D01*
X303669Y414211D01*
X304207Y414399D01*
X304721Y414647D01*
X305204Y414950D01*
X305650Y415306D01*
X306054Y415710D01*
X306410Y416156D01*
X306713Y416639D01*
X306961Y417153D01*
X307149Y417691D01*
X307276Y418248D01*
X307340Y418815D01*
X168400Y507476D02*
X168332Y506431D01*
X168195Y505392D01*
X167990Y504365D01*
X167719Y503353D01*
X167383Y502361D01*
X166982Y501393D01*
X166518Y500454D01*
X165995Y499546D01*
X165413Y498675D01*
X164775Y497844D01*
X164084Y497057D01*
X163343Y496316D01*
X162556Y495625D01*
X161725Y494988D01*
X160854Y494406D01*
X159946Y493882D01*
X159007Y493418D01*
X158039Y493017D01*
X157047Y492681D01*
X156035Y492410D01*
X155008Y492205D01*
X153969Y492069D01*
X152924Y492000D01*
X151876Y492000D01*
X150831Y492069D01*
X149792Y492205D01*
X148765Y492410D01*
X147753Y492681D01*
X146761Y493017D01*
X145793Y493418D01*
X144854Y493882D01*
X143946Y494406D01*
X143075Y494988D01*
X142244Y495625D01*
X141457Y496316D01*
X140716Y497057D01*
X140025Y497844D01*
X139388Y498675D01*
X138806Y499546D01*
X138282Y500454D01*
X137818Y501393D01*
X137417Y502361D01*
X137081Y503353D01*
X136810Y504365D01*
X136605Y505392D01*
X136469Y506431D01*
X136400Y507476D01*
X136400Y508524D01*
X136469Y509569D01*
X136605Y510608D01*
X136810Y511635D01*
X137081Y512647D01*
X137417Y513639D01*
X137818Y514607D01*
X138282Y515546D01*
X138806Y516454D01*
X139388Y517325D01*
X140025Y518156D01*
X140716Y518943D01*
X141457Y519684D01*
X142244Y520375D01*
X143075Y521013D01*
X143946Y521595D01*
X144854Y522118D01*
X145793Y522582D01*
X146761Y522983D01*
X147753Y523319D01*
X148765Y523590D01*
X149792Y523795D01*
X150831Y523932D01*
X151876Y524000D01*
X152924Y524000D01*
X153969Y523932D01*
X155008Y523795D01*
X156035Y523590D01*
X157047Y523319D01*
X158039Y522983D01*
X159007Y522582D01*
X159946Y522118D01*
X160854Y521595D01*
X161725Y521013D01*
X162556Y520375D01*
X163343Y519684D01*
X164084Y518943D01*
X164775Y518156D01*
X165413Y517325D01*
X165995Y516454D01*
X166518Y515546D01*
X166982Y514607D01*
X167383Y513639D01*
X167719Y512647D01*
X167990Y511635D01*
X168195Y510608D01*
X168332Y509569D01*
X168400Y508524D01*
X168400Y507476D01*
X155700Y24876D02*
X155632Y23831D01*
X155495Y22792D01*
X155290Y21765D01*
X155019Y20753D01*
X154683Y19761D01*
X154282Y18793D01*
X153818Y17854D01*
X153295Y16946D01*
X152713Y16075D01*
X152075Y15244D01*
X151384Y14457D01*
X150643Y13716D01*
X149856Y13025D01*
X149025Y12388D01*
X148154Y11806D01*
X147246Y11282D01*
X146307Y10818D01*
X145339Y10417D01*
X144347Y10081D01*
X143335Y9810D01*
X142308Y9605D01*
X141269Y9469D01*
X140224Y9400D01*
X139176Y9400D01*
X138131Y9469D01*
X137092Y9605D01*
X136065Y9810D01*
X135053Y10081D01*
X134061Y10417D01*
X133093Y10818D01*
X132154Y11282D01*
X131246Y11806D01*
X130375Y12388D01*
X129544Y13025D01*
X128757Y13716D01*
X128016Y14457D01*
X127325Y15244D01*
X126688Y16075D01*
X126106Y16946D01*
X125582Y17854D01*
X125118Y18793D01*
X124717Y19761D01*
X124381Y20753D01*
X124110Y21765D01*
X123905Y22792D01*
X123769Y23831D01*
X123700Y24876D01*
X123700Y25924D01*
X123769Y26969D01*
X123905Y28008D01*
X124110Y29035D01*
X124381Y30047D01*
X124717Y31039D01*
X125118Y32007D01*
X125582Y32946D01*
X126106Y33854D01*
X126688Y34725D01*
X127325Y35556D01*
X128016Y36343D01*
X128757Y37084D01*
X129544Y37775D01*
X130375Y38413D01*
X131246Y38995D01*
X132154Y39518D01*
X133093Y39982D01*
X134061Y40383D01*
X135053Y40719D01*
X136065Y40990D01*
X137092Y41195D01*
X138131Y41332D01*
X139176Y41400D01*
X140224Y41400D01*
X141269Y41332D01*
X142308Y41195D01*
X143335Y40990D01*
X144347Y40719D01*
X145339Y40383D01*
X146307Y39982D01*
X147246Y39518D01*
X148154Y38995D01*
X149025Y38413D01*
X149856Y37775D01*
X150643Y37084D01*
X151384Y36343D01*
X152075Y35556D01*
X152713Y34725D01*
X153295Y33854D01*
X153818Y32946D01*
X154282Y32007D01*
X154683Y31039D01*
X155019Y30047D01*
X155290Y29035D01*
X155495Y28008D01*
X155632Y26969D01*
X155700Y25924D01*
X155700Y24876D01*
X676400Y75676D02*
X676332Y74631D01*
X676195Y73592D01*
X675990Y72565D01*
X675719Y71553D01*
X675383Y70561D01*
X674982Y69593D01*
X674518Y68654D01*
X673995Y67746D01*
X673413Y66875D01*
X672775Y66044D01*
X672084Y65257D01*
X671343Y64516D01*
X670556Y63825D01*
X669725Y63188D01*
X668854Y62606D01*
X667946Y62082D01*
X667007Y61618D01*
X666039Y61217D01*
X665047Y60881D01*
X664035Y60610D01*
X663008Y60405D01*
X661969Y60269D01*
X660924Y60200D01*
X659876Y60200D01*
X658831Y60269D01*
X657792Y60405D01*
X656765Y60610D01*
X655753Y60881D01*
X654761Y61217D01*
X653793Y61618D01*
X652854Y62082D01*
X651946Y62606D01*
X651075Y63188D01*
X650244Y63825D01*
X649457Y64516D01*
X648716Y65257D01*
X648025Y66044D01*
X647388Y66875D01*
X646806Y67746D01*
X646282Y68654D01*
X645818Y69593D01*
X645417Y70561D01*
X645081Y71553D01*
X644810Y72565D01*
X644605Y73592D01*
X644469Y74631D01*
X644400Y75676D01*
X644400Y76724D01*
X644469Y77769D01*
X644605Y78808D01*
X644810Y79835D01*
X645081Y80847D01*
X645417Y81839D01*
X645818Y82807D01*
X646282Y83746D01*
X646806Y84654D01*
X647388Y85525D01*
X648025Y86356D01*
X648716Y87143D01*
X649457Y87884D01*
X650244Y88575D01*
X651075Y89213D01*
X651946Y89795D01*
X652854Y90318D01*
X653793Y90782D01*
X654761Y91183D01*
X655753Y91519D01*
X656765Y91790D01*
X657792Y91995D01*
X658831Y92132D01*
X659876Y92200D01*
X660924Y92200D01*
X661969Y92132D01*
X663008Y91995D01*
X664035Y91790D01*
X665047Y91519D01*
X666039Y91183D01*
X667007Y90782D01*
X667946Y90318D01*
X668854Y89795D01*
X669725Y89213D01*
X670556Y88575D01*
X671343Y87884D01*
X672084Y87143D01*
X672775Y86356D01*
X673413Y85525D01*
X673995Y84654D01*
X674518Y83746D01*
X674982Y82807D01*
X675383Y81839D01*
X675719Y80847D01*
X675990Y79835D01*
X676195Y78808D01*
X676332Y77769D01*
X676400Y76724D01*
X676400Y75676D01*
X676400Y355076D02*
X676332Y354031D01*
X676195Y352992D01*
X675990Y351965D01*
X675719Y350953D01*
X675383Y349961D01*
X674982Y348993D01*
X674518Y348054D01*
X673995Y347146D01*
X673413Y346275D01*
X672775Y345444D01*
X672084Y344657D01*
X671343Y343916D01*
X670556Y343225D01*
X669725Y342588D01*
X668854Y342006D01*
X667946Y341482D01*
X667007Y341018D01*
X666039Y340617D01*
X665047Y340281D01*
X664035Y340010D01*
X663008Y339805D01*
X661969Y339669D01*
X660924Y339600D01*
X659876Y339600D01*
X658831Y339669D01*
X657792Y339805D01*
X656765Y340010D01*
X655753Y340281D01*
X654761Y340617D01*
X653793Y341018D01*
X652854Y341482D01*
X651946Y342006D01*
X651075Y342588D01*
X650244Y343225D01*
X649457Y343916D01*
X648716Y344657D01*
X648025Y345444D01*
X647388Y346275D01*
X646806Y347146D01*
X646282Y348054D01*
X645818Y348993D01*
X645417Y349961D01*
X645081Y350953D01*
X644810Y351965D01*
X644605Y352992D01*
X644469Y354031D01*
X644400Y355076D01*
X644400Y356124D01*
X644469Y357169D01*
X644605Y358208D01*
X644810Y359235D01*
X645081Y360247D01*
X645417Y361239D01*
X645818Y362207D01*
X646282Y363146D01*
X646806Y364054D01*
X647388Y364925D01*
X648025Y365756D01*
X648716Y366543D01*
X649457Y367284D01*
X650244Y367975D01*
X651075Y368613D01*
X651946Y369195D01*
X652854Y369718D01*
X653793Y370182D01*
X654761Y370583D01*
X655753Y370919D01*
X656765Y371190D01*
X657792Y371395D01*
X658831Y371532D01*
X659876Y371600D01*
X660924Y371600D01*
X661969Y371532D01*
X663008Y371395D01*
X664035Y371190D01*
X665047Y370919D01*
X666039Y370583D01*
X667007Y370182D01*
X667946Y369718D01*
X668854Y369195D01*
X669725Y368613D01*
X670556Y367975D01*
X671343Y367284D01*
X672084Y366543D01*
X672775Y365756D01*
X673413Y364925D01*
X673995Y364054D01*
X674518Y363146D01*
X674982Y362207D01*
X675383Y361239D01*
X675719Y360247D01*
X675990Y359235D01*
X676195Y358208D01*
X676332Y357169D01*
X676400Y356124D01*
X676400Y355076D01*
X366282Y501114D02*
X366206Y500046D01*
X366053Y498985D01*
X365825Y497938D01*
X365523Y496910D01*
X365149Y495906D01*
X364704Y494931D01*
X364190Y493991D01*
X363611Y493090D01*
X362969Y492232D01*
X362267Y491422D01*
X361510Y490665D01*
X360700Y489963D01*
X359842Y489321D01*
X358941Y488742D01*
X358001Y488228D01*
X357026Y487783D01*
X356022Y487409D01*
X354994Y487107D01*
X353947Y486879D01*
X352886Y486726D01*
X351818Y486650D01*
X350746Y486650D01*
X349678Y486726D01*
X348617Y486879D01*
X347570Y487107D01*
X346542Y487409D01*
X345538Y487783D01*
X344563Y488228D01*
X343623Y488742D01*
X342722Y489321D01*
X341864Y489963D01*
X341054Y490665D01*
X340297Y491422D01*
X339595Y492232D01*
X338953Y493090D01*
X338374Y493991D01*
X337860Y494931D01*
X337415Y495906D01*
X337041Y496910D01*
X336739Y497938D01*
X336511Y498985D01*
X336358Y500046D01*
X336282Y501114D01*
X336282Y502186D01*
X336358Y503254D01*
X336511Y504315D01*
X336739Y505362D01*
X337041Y506390D01*
X337415Y507394D01*
X337860Y508369D01*
X338374Y509309D01*
X338953Y510210D01*
X339595Y511068D01*
X340297Y511878D01*
X341054Y512635D01*
X341864Y513337D01*
X342722Y513979D01*
X343623Y514558D01*
X344563Y515072D01*
X345538Y515517D01*
X346542Y515891D01*
X347570Y516193D01*
X348617Y516421D01*
X349678Y516574D01*
X350746Y516650D01*
X351818Y516650D01*
X352886Y516574D01*
X353947Y516421D01*
X354994Y516193D01*
X356022Y515891D01*
X357026Y515517D01*
X358001Y515072D01*
X358941Y514558D01*
X359842Y513979D01*
X360700Y513337D01*
X361510Y512635D01*
X362267Y511878D01*
X362969Y511068D01*
X363611Y510210D01*
X364190Y509309D01*
X364704Y508369D01*
X365149Y507394D01*
X365523Y506390D01*
X365825Y505362D01*
X366053Y504315D01*
X366206Y503254D01*
X366282Y502186D01*
X366282Y501114D01*
X671082Y216114D02*
X671006Y215046D01*
X670853Y213985D01*
X670625Y212938D01*
X670323Y211910D01*
X669949Y210906D01*
X669504Y209931D01*
X668990Y208991D01*
X668411Y208090D01*
X667769Y207232D01*
X667067Y206422D01*
X666310Y205665D01*
X665500Y204963D01*
X664642Y204321D01*
X663741Y203742D01*
X662801Y203228D01*
X661826Y202783D01*
X660822Y202409D01*
X659794Y202107D01*
X658747Y201879D01*
X657686Y201726D01*
X656618Y201650D01*
X655546Y201650D01*
X654478Y201726D01*
X653417Y201879D01*
X652370Y202107D01*
X651342Y202409D01*
X650338Y202783D01*
X649363Y203228D01*
X648423Y203742D01*
X647522Y204321D01*
X646664Y204963D01*
X645854Y205665D01*
X645097Y206422D01*
X644395Y207232D01*
X643753Y208090D01*
X643174Y208991D01*
X642660Y209931D01*
X642215Y210906D01*
X641841Y211910D01*
X641539Y212938D01*
X641311Y213985D01*
X641158Y215046D01*
X641082Y216114D01*
X641082Y217186D01*
X641158Y218254D01*
X641311Y219315D01*
X641539Y220362D01*
X641841Y221390D01*
X642215Y222394D01*
X642660Y223369D01*
X643174Y224309D01*
X643753Y225210D01*
X644395Y226068D01*
X645097Y226878D01*
X645854Y227635D01*
X646664Y228337D01*
X647522Y228979D01*
X648423Y229558D01*
X649363Y230072D01*
X650338Y230517D01*
X651342Y230891D01*
X652370Y231193D01*
X653417Y231421D01*
X654478Y231574D01*
X655546Y231650D01*
X656618Y231650D01*
X657686Y231574D01*
X658747Y231421D01*
X659794Y231193D01*
X660822Y230891D01*
X661826Y230517D01*
X662801Y230072D01*
X663741Y229558D01*
X664642Y228979D01*
X665500Y228337D01*
X666310Y227635D01*
X667067Y226878D01*
X667769Y226068D01*
X668411Y225210D01*
X668990Y224309D01*
X669504Y223369D01*
X669949Y222394D01*
X670323Y221390D01*
X670625Y220362D01*
X670853Y219315D01*
X671006Y218254D01*
X671082Y217186D01*
X671082Y216114D01*
X515874Y104323D02*
X515952Y106212D01*
X516108Y108095D01*
X516342Y109971D01*
X516653Y111835D01*
X517041Y113685D01*
X517505Y115518D01*
X518044Y117329D01*
X518658Y119117D01*
X519345Y120878D01*
X520104Y122609D01*
X520935Y124307D01*
X521834Y125970D01*
X522802Y127593D01*
X523836Y129176D01*
X524934Y130714D01*
X526095Y132206D01*
X527317Y133648D01*
X528597Y135039D01*
X529933Y136375D01*
X531324Y137655D01*
X532766Y138877D01*
X534258Y140038D01*
X535796Y141136D01*
X537379Y142170D01*
X539003Y143138D01*
X540665Y144037D01*
X542363Y144868D01*
X544094Y145627D01*
X545855Y146314D01*
X547643Y146928D01*
X549454Y147467D01*
X551287Y147931D01*
X553137Y148319D01*
X555001Y148630D01*
X556877Y148864D01*
X558760Y149020D01*
X560649Y149098D01*
X562539Y149098D01*
X564428Y149020D01*
X566311Y148864D01*
X568187Y148630D01*
X570051Y148319D01*
X571901Y147931D01*
X573734Y147467D01*
X575545Y146928D01*
X577333Y146314D01*
X579094Y145627D01*
X580825Y144868D01*
X582523Y144037D01*
X584186Y143138D01*
X585809Y142170D01*
X587392Y141136D01*
X588930Y140038D01*
X590422Y138877D01*
X591864Y137655D01*
X593255Y136375D01*
X594591Y135039D01*
X595871Y133648D01*
X597093Y132206D01*
X598254Y130714D01*
X599352Y129176D01*
X600386Y127593D01*
X601354Y125970D01*
X602253Y124307D01*
X603084Y122609D01*
X603843Y120878D01*
X604530Y119117D01*
X605144Y117329D01*
X605683Y115518D01*
X606147Y113685D01*
X606535Y111835D01*
X606846Y109971D01*
X607080Y108095D01*
X607236Y106212D01*
X607314Y104323D01*
X607314Y102433D01*
X607236Y100544D01*
X607080Y98661D01*
X606846Y96785D01*
X606535Y94921D01*
X606147Y93071D01*
X605683Y91238D01*
X605144Y89427D01*
X604530Y87639D01*
X603843Y85878D01*
X603084Y84147D01*
X602253Y82449D01*
X601354Y80787D01*
X600386Y79163D01*
X599352Y77580D01*
X598254Y76042D01*
X597093Y74550D01*
X595871Y73108D01*
X594591Y71717D01*
X593255Y70381D01*
X591864Y69101D01*
X590422Y67879D01*
X588930Y66718D01*
X587392Y65620D01*
X585809Y64586D01*
X584186Y63618D01*
X582523Y62719D01*
X580825Y61888D01*
X579094Y61129D01*
X577333Y60442D01*
X575545Y59828D01*
X573734Y59289D01*
X571901Y58825D01*
X570051Y58437D01*
X568187Y58126D01*
X566311Y57892D01*
X564428Y57736D01*
X562539Y57658D01*
X560649Y57658D01*
X558760Y57736D01*
X556877Y57892D01*
X555001Y58126D01*
X553137Y58437D01*
X551287Y58825D01*
X549454Y59289D01*
X547643Y59828D01*
X545855Y60442D01*
X544094Y61129D01*
X542363Y61888D01*
X540665Y62719D01*
X539003Y63618D01*
X537379Y64586D01*
X535796Y65620D01*
X534258Y66718D01*
X532766Y67879D01*
X531324Y69101D01*
X529933Y70381D01*
X528597Y71717D01*
X527317Y73108D01*
X526095Y74550D01*
X524934Y76042D01*
X523836Y77580D01*
X522802Y79163D01*
X521834Y80787D01*
X520935Y82449D01*
X520104Y84147D01*
X519345Y85878D01*
X518658Y87639D01*
X518044Y89427D01*
X517505Y91238D01*
X517041Y93071D01*
X516653Y94921D01*
X516342Y96785D01*
X516108Y98661D01*
X515952Y100544D01*
X515874Y102433D01*
X515874Y104323D01*
M02*
