G04 EAGLE Gerber RS-274X export*
G75*
%MOMM*%
%FSLAX34Y34*%
%LPD*%
%INSoldermask Top*%
%IPPOS*%
%AMOC8*
5,1,8,0,0,1.08239X$1,22.5*%
G01*
%ADD10C,3.403200*%
%ADD11R,0.016762X0.050294*%
%ADD12R,0.016762X0.083819*%
%ADD13R,0.016762X0.100581*%
%ADD14R,0.016762X0.117344*%
%ADD15R,0.016762X0.050288*%
%ADD16R,0.016762X0.134112*%
%ADD17R,0.016762X0.134106*%
%ADD18R,0.016762X0.150875*%
%ADD19R,0.016762X0.167637*%
%ADD20R,0.016762X0.184400*%
%ADD21R,0.016762X0.117350*%
%ADD22R,0.016762X0.217931*%
%ADD23R,0.016762X0.234694*%
%ADD24R,0.016762X0.067056*%
%ADD25R,0.016762X0.385569*%
%ADD26R,0.016762X0.284988*%
%ADD27R,0.016762X0.301750*%
%ADD28R,0.016762X0.067050*%
%ADD29R,0.016762X0.318513*%
%ADD30R,0.016762X0.352044*%
%ADD31R,0.016762X0.335281*%
%ADD32R,0.016762X0.368806*%
%ADD33R,0.016762X0.268225*%
%ADD34R,0.016762X0.251456*%
%ADD35R,0.016762X0.335275*%
%ADD36R,0.016762X0.201169*%
%ADD37R,0.016762X0.419100*%
%ADD38R,0.016762X0.184406*%
%ADD39R,0.016762X0.402338*%
%ADD40R,0.016762X0.201163*%
%ADD41R,0.016762X0.251463*%
%ADD42R,0.016762X0.452625*%
%ADD43R,0.016762X0.435863*%
%ADD44R,0.016762X0.502919*%
%ADD45R,0.016762X0.402331*%
%ADD46R,0.016762X0.318519*%
%ADD47R,0.016762X0.519681*%
%ADD48R,0.016762X0.268219*%
%ADD49R,0.045719X0.015238*%
%ADD50R,0.076200X0.015238*%
%ADD51R,0.091438X0.015238*%
%ADD52R,0.106681X0.015238*%
%ADD53R,0.106675X0.015238*%
%ADD54R,0.121919X0.015238*%
%ADD55R,0.137156X0.015238*%
%ADD56R,0.137162X0.015238*%
%ADD57R,0.152400X0.015238*%
%ADD58R,0.167637X0.015238*%
%ADD59R,0.182881X0.015238*%
%ADD60R,0.182875X0.015238*%
%ADD61R,0.198119X0.015238*%
%ADD62R,0.213356X0.015238*%
%ADD63R,0.060963X0.015238*%
%ADD64R,0.060956X0.015238*%
%ADD65R,0.304800X0.015238*%
%ADD66R,0.274319X0.015238*%
%ADD67R,0.350519X0.015238*%
%ADD68R,0.213363X0.015238*%
%ADD69R,0.320038X0.015238*%
%ADD70R,0.701037X0.015238*%
%ADD71R,0.716275X0.015238*%
%ADD72R,0.381000X0.015238*%
%ADD73R,0.716281X0.015238*%
%ADD74R,0.228600X0.015238*%
%ADD75R,0.365756X0.015238*%
%ADD76R,0.411481X0.015238*%
%ADD77R,0.441956X0.015238*%
%ADD78R,0.243838X0.015238*%
%ADD79R,0.457200X0.015238*%
%ADD80R,0.472438X0.015238*%
%ADD81R,0.289563X0.015238*%
%ADD82R,0.502919X0.015238*%
%ADD83R,0.685800X0.015238*%
%ADD84R,0.259075X0.015238*%
%ADD85R,0.259081X0.015238*%
%ADD86R,0.289556X0.015238*%
%ADD87R,0.487681X0.015238*%
%ADD88R,0.853438X0.015238*%
%ADD89R,0.822956X0.015238*%
%ADD90R,0.335275X0.015238*%
%ADD91R,0.335281X0.015238*%
%ADD92R,0.807719X0.015238*%
%ADD93R,0.396238X0.015238*%
%ADD94R,0.411475X0.015238*%
%ADD95R,0.548638X0.015238*%
%ADD96R,0.426719X0.015238*%
%ADD97R,0.365762X0.015238*%
%ADD98R,0.441963X0.015238*%
%ADD99R,0.487675X0.015238*%
%ADD100R,1.005837X0.015238*%
%ADD101R,0.533400X0.015238*%
%ADD102R,0.518162X0.015238*%
%ADD103R,0.518156X0.015238*%
%ADD104R,0.990600X0.015238*%
%ADD105C,0.534309*%
%ADD106C,1.711200*%
%ADD107C,0.522925*%
%ADD108C,0.380638*%
%ADD109C,0.621981*%
%ADD110R,1.103200X1.003200*%
%ADD111R,2.303200X1.603200*%
%ADD112R,3.400000X2.710000*%
%ADD113C,1.011200*%
%ADD114C,0.353406*%
%ADD115R,2.710000X3.400000*%
%ADD116R,2.403200X1.803200*%
%ADD117C,1.461200*%
%ADD118C,1.611200*%
%ADD119R,0.903200X1.403200*%
%ADD120R,0.963200X1.403200*%
%ADD121R,1.003200X1.403200*%
%ADD122C,1.311200*%
%ADD123C,1.511200*%
%ADD124R,1.803200X3.403200*%
%ADD125C,3.203200*%
%ADD126C,1.341200*%
%ADD127C,0.338938*%
%ADD128C,1.727200*%
%ADD129C,9.347200*%
%ADD130C,0.746622*%
%ADD131C,0.909600*%
%ADD132C,0.959600*%

G36*
X84004Y113003D02*
X84004Y113003D01*
X84008Y113000D01*
X84199Y113038D01*
X84208Y113048D01*
X84217Y113045D01*
X84379Y113154D01*
X84383Y113167D01*
X84393Y113167D01*
X84501Y113329D01*
X84500Y113343D01*
X84508Y113347D01*
X84546Y113538D01*
X84543Y113545D01*
X84547Y113548D01*
X84547Y119948D01*
X84543Y119954D01*
X84546Y119958D01*
X84508Y120149D01*
X84498Y120158D01*
X84501Y120167D01*
X84393Y120329D01*
X84379Y120333D01*
X84379Y120343D01*
X84217Y120451D01*
X84203Y120450D01*
X84199Y120458D01*
X84008Y120496D01*
X84001Y120493D01*
X83998Y120497D01*
X68098Y120497D01*
X68092Y120493D01*
X68088Y120496D01*
X67897Y120458D01*
X67888Y120448D01*
X67879Y120451D01*
X67717Y120343D01*
X67713Y120329D01*
X67704Y120329D01*
X67595Y120167D01*
X67596Y120158D01*
X67589Y120153D01*
X67591Y120151D01*
X67588Y120149D01*
X67550Y119958D01*
X67553Y119951D01*
X67549Y119948D01*
X67549Y113548D01*
X67553Y113542D01*
X67550Y113538D01*
X67588Y113347D01*
X67598Y113338D01*
X67595Y113329D01*
X67704Y113167D01*
X67717Y113163D01*
X67717Y113154D01*
X67879Y113045D01*
X67893Y113046D01*
X67897Y113038D01*
X68088Y113000D01*
X68095Y113003D01*
X68098Y112999D01*
X83998Y112999D01*
X84004Y113003D01*
G37*
G36*
X138004Y113003D02*
X138004Y113003D01*
X138008Y113000D01*
X138199Y113038D01*
X138208Y113048D01*
X138217Y113045D01*
X138379Y113154D01*
X138383Y113167D01*
X138393Y113167D01*
X138501Y113329D01*
X138500Y113343D01*
X138508Y113347D01*
X138546Y113538D01*
X138543Y113545D01*
X138547Y113548D01*
X138547Y119948D01*
X138543Y119954D01*
X138546Y119958D01*
X138508Y120149D01*
X138498Y120158D01*
X138501Y120167D01*
X138393Y120329D01*
X138379Y120333D01*
X138379Y120343D01*
X138217Y120451D01*
X138203Y120450D01*
X138199Y120458D01*
X138008Y120496D01*
X138001Y120493D01*
X137998Y120497D01*
X122098Y120497D01*
X122092Y120493D01*
X122088Y120496D01*
X121897Y120458D01*
X121888Y120448D01*
X121879Y120451D01*
X121717Y120343D01*
X121713Y120329D01*
X121704Y120329D01*
X121595Y120167D01*
X121596Y120158D01*
X121589Y120153D01*
X121591Y120151D01*
X121588Y120149D01*
X121550Y119958D01*
X121553Y119951D01*
X121549Y119948D01*
X121549Y113548D01*
X121553Y113542D01*
X121550Y113538D01*
X121588Y113347D01*
X121598Y113338D01*
X121595Y113329D01*
X121704Y113167D01*
X121717Y113163D01*
X121717Y113154D01*
X121879Y113045D01*
X121893Y113046D01*
X121897Y113038D01*
X122088Y113000D01*
X122095Y113003D01*
X122098Y112999D01*
X137998Y112999D01*
X138004Y113003D01*
G37*
G36*
X84004Y100303D02*
X84004Y100303D01*
X84008Y100300D01*
X84199Y100338D01*
X84208Y100348D01*
X84217Y100345D01*
X84379Y100454D01*
X84383Y100467D01*
X84393Y100467D01*
X84501Y100629D01*
X84500Y100643D01*
X84508Y100647D01*
X84546Y100838D01*
X84543Y100845D01*
X84547Y100848D01*
X84547Y107248D01*
X84543Y107254D01*
X84546Y107258D01*
X84508Y107449D01*
X84498Y107458D01*
X84501Y107467D01*
X84393Y107629D01*
X84379Y107633D01*
X84379Y107643D01*
X84217Y107751D01*
X84203Y107750D01*
X84199Y107758D01*
X84008Y107796D01*
X84001Y107793D01*
X83998Y107797D01*
X68098Y107797D01*
X68092Y107793D01*
X68088Y107796D01*
X67897Y107758D01*
X67888Y107748D01*
X67879Y107751D01*
X67717Y107643D01*
X67713Y107629D01*
X67704Y107629D01*
X67595Y107467D01*
X67596Y107458D01*
X67589Y107453D01*
X67591Y107451D01*
X67588Y107449D01*
X67550Y107258D01*
X67553Y107251D01*
X67549Y107248D01*
X67549Y100848D01*
X67553Y100842D01*
X67550Y100838D01*
X67588Y100647D01*
X67598Y100638D01*
X67595Y100629D01*
X67704Y100467D01*
X67717Y100463D01*
X67717Y100454D01*
X67879Y100345D01*
X67893Y100346D01*
X67897Y100338D01*
X68088Y100300D01*
X68095Y100303D01*
X68098Y100299D01*
X83998Y100299D01*
X84004Y100303D01*
G37*
G36*
X138004Y100303D02*
X138004Y100303D01*
X138008Y100300D01*
X138199Y100338D01*
X138208Y100348D01*
X138217Y100345D01*
X138379Y100454D01*
X138383Y100467D01*
X138393Y100467D01*
X138501Y100629D01*
X138500Y100643D01*
X138508Y100647D01*
X138546Y100838D01*
X138543Y100845D01*
X138547Y100848D01*
X138547Y107248D01*
X138543Y107254D01*
X138546Y107258D01*
X138508Y107449D01*
X138498Y107458D01*
X138501Y107467D01*
X138393Y107629D01*
X138379Y107633D01*
X138379Y107643D01*
X138217Y107751D01*
X138203Y107750D01*
X138199Y107758D01*
X138008Y107796D01*
X138001Y107793D01*
X137998Y107797D01*
X122098Y107797D01*
X122092Y107793D01*
X122088Y107796D01*
X121897Y107758D01*
X121888Y107748D01*
X121879Y107751D01*
X121717Y107643D01*
X121713Y107629D01*
X121704Y107629D01*
X121595Y107467D01*
X121596Y107458D01*
X121589Y107453D01*
X121591Y107451D01*
X121588Y107449D01*
X121550Y107258D01*
X121553Y107251D01*
X121549Y107248D01*
X121549Y100848D01*
X121553Y100842D01*
X121550Y100838D01*
X121588Y100647D01*
X121598Y100638D01*
X121595Y100629D01*
X121704Y100467D01*
X121717Y100463D01*
X121717Y100454D01*
X121879Y100345D01*
X121893Y100346D01*
X121897Y100338D01*
X122088Y100300D01*
X122095Y100303D01*
X122098Y100299D01*
X137998Y100299D01*
X138004Y100303D01*
G37*
G36*
X84004Y87603D02*
X84004Y87603D01*
X84008Y87600D01*
X84199Y87638D01*
X84208Y87648D01*
X84217Y87645D01*
X84379Y87754D01*
X84383Y87767D01*
X84393Y87767D01*
X84501Y87929D01*
X84500Y87943D01*
X84508Y87947D01*
X84546Y88138D01*
X84543Y88145D01*
X84547Y88148D01*
X84547Y94548D01*
X84543Y94554D01*
X84546Y94558D01*
X84508Y94749D01*
X84498Y94758D01*
X84501Y94767D01*
X84393Y94929D01*
X84379Y94933D01*
X84379Y94943D01*
X84217Y95051D01*
X84203Y95050D01*
X84199Y95058D01*
X84008Y95096D01*
X84001Y95093D01*
X83998Y95097D01*
X68098Y95097D01*
X68092Y95093D01*
X68088Y95096D01*
X67897Y95058D01*
X67888Y95048D01*
X67879Y95051D01*
X67717Y94943D01*
X67713Y94929D01*
X67704Y94929D01*
X67595Y94767D01*
X67596Y94758D01*
X67589Y94753D01*
X67591Y94751D01*
X67588Y94749D01*
X67550Y94558D01*
X67553Y94551D01*
X67549Y94548D01*
X67549Y88148D01*
X67553Y88142D01*
X67550Y88138D01*
X67588Y87947D01*
X67598Y87938D01*
X67595Y87929D01*
X67704Y87767D01*
X67717Y87763D01*
X67717Y87754D01*
X67879Y87645D01*
X67893Y87646D01*
X67897Y87638D01*
X68088Y87600D01*
X68095Y87603D01*
X68098Y87599D01*
X83998Y87599D01*
X84004Y87603D01*
G37*
G36*
X138004Y87603D02*
X138004Y87603D01*
X138008Y87600D01*
X138199Y87638D01*
X138208Y87648D01*
X138217Y87645D01*
X138379Y87754D01*
X138383Y87767D01*
X138393Y87767D01*
X138501Y87929D01*
X138500Y87943D01*
X138508Y87947D01*
X138546Y88138D01*
X138543Y88145D01*
X138547Y88148D01*
X138547Y94548D01*
X138543Y94554D01*
X138546Y94558D01*
X138508Y94749D01*
X138498Y94758D01*
X138501Y94767D01*
X138393Y94929D01*
X138379Y94933D01*
X138379Y94943D01*
X138217Y95051D01*
X138203Y95050D01*
X138199Y95058D01*
X138008Y95096D01*
X138001Y95093D01*
X137998Y95097D01*
X122098Y95097D01*
X122092Y95093D01*
X122088Y95096D01*
X121897Y95058D01*
X121888Y95048D01*
X121879Y95051D01*
X121717Y94943D01*
X121713Y94929D01*
X121704Y94929D01*
X121595Y94767D01*
X121596Y94758D01*
X121589Y94753D01*
X121591Y94751D01*
X121588Y94749D01*
X121550Y94558D01*
X121553Y94551D01*
X121549Y94548D01*
X121549Y88148D01*
X121553Y88142D01*
X121550Y88138D01*
X121588Y87947D01*
X121598Y87938D01*
X121595Y87929D01*
X121704Y87767D01*
X121717Y87763D01*
X121717Y87754D01*
X121879Y87645D01*
X121893Y87646D01*
X121897Y87638D01*
X122088Y87600D01*
X122095Y87603D01*
X122098Y87599D01*
X137998Y87599D01*
X138004Y87603D01*
G37*
G36*
X138004Y74903D02*
X138004Y74903D01*
X138008Y74900D01*
X138199Y74938D01*
X138208Y74948D01*
X138217Y74945D01*
X138379Y75054D01*
X138383Y75067D01*
X138393Y75067D01*
X138501Y75229D01*
X138500Y75243D01*
X138508Y75247D01*
X138546Y75438D01*
X138543Y75445D01*
X138547Y75448D01*
X138547Y81848D01*
X138543Y81854D01*
X138546Y81858D01*
X138508Y82049D01*
X138498Y82058D01*
X138501Y82067D01*
X138393Y82229D01*
X138379Y82233D01*
X138379Y82243D01*
X138217Y82351D01*
X138203Y82350D01*
X138199Y82358D01*
X138008Y82396D01*
X138001Y82393D01*
X137998Y82397D01*
X122098Y82397D01*
X122092Y82393D01*
X122088Y82396D01*
X121897Y82358D01*
X121888Y82348D01*
X121879Y82351D01*
X121717Y82243D01*
X121713Y82229D01*
X121704Y82229D01*
X121595Y82067D01*
X121596Y82058D01*
X121589Y82053D01*
X121591Y82051D01*
X121588Y82049D01*
X121550Y81858D01*
X121553Y81851D01*
X121549Y81848D01*
X121549Y75448D01*
X121553Y75442D01*
X121550Y75438D01*
X121588Y75247D01*
X121598Y75238D01*
X121595Y75229D01*
X121704Y75067D01*
X121717Y75063D01*
X121717Y75054D01*
X121879Y74945D01*
X121893Y74946D01*
X121897Y74938D01*
X122088Y74900D01*
X122095Y74903D01*
X122098Y74899D01*
X137998Y74899D01*
X138004Y74903D01*
G37*
G36*
X84004Y74903D02*
X84004Y74903D01*
X84008Y74900D01*
X84199Y74938D01*
X84208Y74948D01*
X84217Y74945D01*
X84379Y75054D01*
X84383Y75067D01*
X84393Y75067D01*
X84501Y75229D01*
X84500Y75243D01*
X84508Y75247D01*
X84546Y75438D01*
X84543Y75445D01*
X84547Y75448D01*
X84547Y81848D01*
X84543Y81854D01*
X84546Y81858D01*
X84508Y82049D01*
X84498Y82058D01*
X84501Y82067D01*
X84393Y82229D01*
X84379Y82233D01*
X84379Y82243D01*
X84217Y82351D01*
X84203Y82350D01*
X84199Y82358D01*
X84008Y82396D01*
X84001Y82393D01*
X83998Y82397D01*
X68098Y82397D01*
X68092Y82393D01*
X68088Y82396D01*
X67897Y82358D01*
X67888Y82348D01*
X67879Y82351D01*
X67717Y82243D01*
X67713Y82229D01*
X67704Y82229D01*
X67595Y82067D01*
X67596Y82058D01*
X67589Y82053D01*
X67591Y82051D01*
X67588Y82049D01*
X67550Y81858D01*
X67553Y81851D01*
X67549Y81848D01*
X67549Y75448D01*
X67553Y75442D01*
X67550Y75438D01*
X67588Y75247D01*
X67598Y75238D01*
X67595Y75229D01*
X67704Y75067D01*
X67717Y75063D01*
X67717Y75054D01*
X67879Y74945D01*
X67893Y74946D01*
X67897Y74938D01*
X68088Y74900D01*
X68095Y74903D01*
X68098Y74899D01*
X83998Y74899D01*
X84004Y74903D01*
G37*
G36*
X89640Y413201D02*
X89640Y413201D01*
X89644Y413198D01*
X89835Y413236D01*
X89844Y413246D01*
X89853Y413243D01*
X90015Y413352D01*
X90019Y413365D01*
X90029Y413365D01*
X90137Y413527D01*
X90136Y413541D01*
X90144Y413545D01*
X90182Y413736D01*
X90179Y413743D01*
X90183Y413746D01*
X90183Y429646D01*
X90179Y429652D01*
X90182Y429656D01*
X90144Y429847D01*
X90134Y429856D01*
X90137Y429865D01*
X90029Y430027D01*
X90015Y430031D01*
X90015Y430041D01*
X89853Y430149D01*
X89839Y430148D01*
X89835Y430156D01*
X89644Y430194D01*
X89637Y430191D01*
X89634Y430195D01*
X83234Y430195D01*
X83228Y430191D01*
X83224Y430194D01*
X83033Y430156D01*
X83024Y430146D01*
X83015Y430149D01*
X82853Y430041D01*
X82849Y430027D01*
X82840Y430027D01*
X82731Y429865D01*
X82731Y429859D01*
X82729Y429857D01*
X82732Y429852D01*
X82732Y429851D01*
X82724Y429847D01*
X82686Y429656D01*
X82689Y429649D01*
X82685Y429646D01*
X82685Y413746D01*
X82689Y413740D01*
X82686Y413736D01*
X82724Y413545D01*
X82734Y413536D01*
X82731Y413527D01*
X82840Y413365D01*
X82853Y413361D01*
X82853Y413352D01*
X83015Y413243D01*
X83029Y413244D01*
X83033Y413236D01*
X83224Y413198D01*
X83231Y413201D01*
X83234Y413197D01*
X89634Y413197D01*
X89640Y413201D01*
G37*
G36*
X76940Y413201D02*
X76940Y413201D01*
X76944Y413198D01*
X77135Y413236D01*
X77144Y413246D01*
X77153Y413243D01*
X77315Y413352D01*
X77319Y413365D01*
X77329Y413365D01*
X77437Y413527D01*
X77436Y413541D01*
X77444Y413545D01*
X77482Y413736D01*
X77479Y413743D01*
X77483Y413746D01*
X77483Y429646D01*
X77479Y429652D01*
X77482Y429656D01*
X77444Y429847D01*
X77434Y429856D01*
X77437Y429865D01*
X77329Y430027D01*
X77315Y430031D01*
X77315Y430041D01*
X77153Y430149D01*
X77139Y430148D01*
X77135Y430156D01*
X76944Y430194D01*
X76937Y430191D01*
X76934Y430195D01*
X70534Y430195D01*
X70528Y430191D01*
X70524Y430194D01*
X70333Y430156D01*
X70324Y430146D01*
X70315Y430149D01*
X70153Y430041D01*
X70149Y430027D01*
X70140Y430027D01*
X70031Y429865D01*
X70031Y429859D01*
X70029Y429857D01*
X70032Y429852D01*
X70032Y429851D01*
X70024Y429847D01*
X69986Y429656D01*
X69989Y429649D01*
X69985Y429646D01*
X69985Y413746D01*
X69989Y413740D01*
X69986Y413736D01*
X70024Y413545D01*
X70034Y413536D01*
X70031Y413527D01*
X70140Y413365D01*
X70153Y413361D01*
X70153Y413352D01*
X70315Y413243D01*
X70329Y413244D01*
X70333Y413236D01*
X70524Y413198D01*
X70531Y413201D01*
X70534Y413197D01*
X76934Y413197D01*
X76940Y413201D01*
G37*
G36*
X64240Y413201D02*
X64240Y413201D01*
X64244Y413198D01*
X64435Y413236D01*
X64444Y413246D01*
X64453Y413243D01*
X64615Y413352D01*
X64619Y413365D01*
X64629Y413365D01*
X64737Y413527D01*
X64736Y413541D01*
X64744Y413545D01*
X64782Y413736D01*
X64779Y413743D01*
X64783Y413746D01*
X64783Y429646D01*
X64779Y429652D01*
X64782Y429656D01*
X64744Y429847D01*
X64734Y429856D01*
X64737Y429865D01*
X64629Y430027D01*
X64615Y430031D01*
X64615Y430041D01*
X64453Y430149D01*
X64439Y430148D01*
X64435Y430156D01*
X64244Y430194D01*
X64237Y430191D01*
X64234Y430195D01*
X57834Y430195D01*
X57828Y430191D01*
X57824Y430194D01*
X57633Y430156D01*
X57624Y430146D01*
X57615Y430149D01*
X57453Y430041D01*
X57449Y430027D01*
X57440Y430027D01*
X57331Y429865D01*
X57331Y429859D01*
X57329Y429857D01*
X57332Y429852D01*
X57332Y429851D01*
X57324Y429847D01*
X57286Y429656D01*
X57289Y429649D01*
X57285Y429646D01*
X57285Y413746D01*
X57289Y413740D01*
X57286Y413736D01*
X57324Y413545D01*
X57334Y413536D01*
X57331Y413527D01*
X57440Y413365D01*
X57453Y413361D01*
X57453Y413352D01*
X57615Y413243D01*
X57629Y413244D01*
X57633Y413236D01*
X57824Y413198D01*
X57831Y413201D01*
X57834Y413197D01*
X64234Y413197D01*
X64240Y413201D01*
G37*
G36*
X51540Y413201D02*
X51540Y413201D01*
X51544Y413198D01*
X51735Y413236D01*
X51744Y413246D01*
X51753Y413243D01*
X51915Y413352D01*
X51919Y413365D01*
X51929Y413365D01*
X52037Y413527D01*
X52036Y413541D01*
X52044Y413545D01*
X52082Y413736D01*
X52079Y413743D01*
X52083Y413746D01*
X52083Y429646D01*
X52079Y429652D01*
X52082Y429656D01*
X52044Y429847D01*
X52034Y429856D01*
X52037Y429865D01*
X51929Y430027D01*
X51915Y430031D01*
X51915Y430041D01*
X51753Y430149D01*
X51739Y430148D01*
X51735Y430156D01*
X51544Y430194D01*
X51537Y430191D01*
X51534Y430195D01*
X45134Y430195D01*
X45128Y430191D01*
X45124Y430194D01*
X44933Y430156D01*
X44924Y430146D01*
X44915Y430149D01*
X44753Y430041D01*
X44749Y430027D01*
X44740Y430027D01*
X44631Y429865D01*
X44631Y429859D01*
X44629Y429857D01*
X44632Y429852D01*
X44632Y429851D01*
X44624Y429847D01*
X44586Y429656D01*
X44589Y429649D01*
X44585Y429646D01*
X44585Y413746D01*
X44589Y413740D01*
X44586Y413736D01*
X44624Y413545D01*
X44634Y413536D01*
X44631Y413527D01*
X44740Y413365D01*
X44753Y413361D01*
X44753Y413352D01*
X44915Y413243D01*
X44929Y413244D01*
X44933Y413236D01*
X45124Y413198D01*
X45131Y413201D01*
X45134Y413197D01*
X51534Y413197D01*
X51540Y413201D01*
G37*
G36*
X76940Y467201D02*
X76940Y467201D01*
X76944Y467198D01*
X77135Y467236D01*
X77144Y467246D01*
X77153Y467243D01*
X77315Y467352D01*
X77319Y467365D01*
X77329Y467365D01*
X77437Y467527D01*
X77436Y467541D01*
X77444Y467545D01*
X77482Y467736D01*
X77479Y467743D01*
X77483Y467746D01*
X77483Y483646D01*
X77479Y483652D01*
X77482Y483656D01*
X77444Y483847D01*
X77434Y483856D01*
X77437Y483865D01*
X77329Y484027D01*
X77315Y484031D01*
X77315Y484041D01*
X77153Y484149D01*
X77139Y484148D01*
X77135Y484156D01*
X76944Y484194D01*
X76937Y484191D01*
X76934Y484195D01*
X70534Y484195D01*
X70528Y484191D01*
X70524Y484194D01*
X70333Y484156D01*
X70324Y484146D01*
X70315Y484149D01*
X70153Y484041D01*
X70149Y484027D01*
X70140Y484027D01*
X70031Y483865D01*
X70031Y483859D01*
X70029Y483857D01*
X70032Y483852D01*
X70032Y483851D01*
X70024Y483847D01*
X69986Y483656D01*
X69989Y483649D01*
X69985Y483646D01*
X69985Y467746D01*
X69989Y467740D01*
X69986Y467736D01*
X70024Y467545D01*
X70034Y467536D01*
X70031Y467527D01*
X70140Y467365D01*
X70153Y467361D01*
X70153Y467352D01*
X70315Y467243D01*
X70329Y467244D01*
X70333Y467236D01*
X70524Y467198D01*
X70531Y467201D01*
X70534Y467197D01*
X76934Y467197D01*
X76940Y467201D01*
G37*
G36*
X64240Y467201D02*
X64240Y467201D01*
X64244Y467198D01*
X64435Y467236D01*
X64444Y467246D01*
X64453Y467243D01*
X64615Y467352D01*
X64619Y467365D01*
X64629Y467365D01*
X64737Y467527D01*
X64736Y467541D01*
X64744Y467545D01*
X64782Y467736D01*
X64779Y467743D01*
X64783Y467746D01*
X64783Y483646D01*
X64779Y483652D01*
X64782Y483656D01*
X64744Y483847D01*
X64734Y483856D01*
X64737Y483865D01*
X64629Y484027D01*
X64615Y484031D01*
X64615Y484041D01*
X64453Y484149D01*
X64439Y484148D01*
X64435Y484156D01*
X64244Y484194D01*
X64237Y484191D01*
X64234Y484195D01*
X57834Y484195D01*
X57828Y484191D01*
X57824Y484194D01*
X57633Y484156D01*
X57624Y484146D01*
X57615Y484149D01*
X57453Y484041D01*
X57449Y484027D01*
X57440Y484027D01*
X57331Y483865D01*
X57331Y483859D01*
X57329Y483857D01*
X57332Y483852D01*
X57332Y483851D01*
X57324Y483847D01*
X57286Y483656D01*
X57289Y483649D01*
X57285Y483646D01*
X57285Y467746D01*
X57289Y467740D01*
X57286Y467736D01*
X57324Y467545D01*
X57334Y467536D01*
X57331Y467527D01*
X57440Y467365D01*
X57453Y467361D01*
X57453Y467352D01*
X57615Y467243D01*
X57629Y467244D01*
X57633Y467236D01*
X57824Y467198D01*
X57831Y467201D01*
X57834Y467197D01*
X64234Y467197D01*
X64240Y467201D01*
G37*
G36*
X89640Y467201D02*
X89640Y467201D01*
X89644Y467198D01*
X89835Y467236D01*
X89844Y467246D01*
X89853Y467243D01*
X90015Y467352D01*
X90019Y467365D01*
X90029Y467365D01*
X90137Y467527D01*
X90136Y467541D01*
X90144Y467545D01*
X90182Y467736D01*
X90179Y467743D01*
X90183Y467746D01*
X90183Y483646D01*
X90179Y483652D01*
X90182Y483656D01*
X90144Y483847D01*
X90134Y483856D01*
X90137Y483865D01*
X90029Y484027D01*
X90015Y484031D01*
X90015Y484041D01*
X89853Y484149D01*
X89839Y484148D01*
X89835Y484156D01*
X89644Y484194D01*
X89637Y484191D01*
X89634Y484195D01*
X83234Y484195D01*
X83228Y484191D01*
X83224Y484194D01*
X83033Y484156D01*
X83024Y484146D01*
X83015Y484149D01*
X82853Y484041D01*
X82849Y484027D01*
X82840Y484027D01*
X82731Y483865D01*
X82731Y483859D01*
X82729Y483857D01*
X82732Y483852D01*
X82732Y483851D01*
X82724Y483847D01*
X82686Y483656D01*
X82689Y483649D01*
X82685Y483646D01*
X82685Y467746D01*
X82689Y467740D01*
X82686Y467736D01*
X82724Y467545D01*
X82734Y467536D01*
X82731Y467527D01*
X82840Y467365D01*
X82853Y467361D01*
X82853Y467352D01*
X83015Y467243D01*
X83029Y467244D01*
X83033Y467236D01*
X83224Y467198D01*
X83231Y467201D01*
X83234Y467197D01*
X89634Y467197D01*
X89640Y467201D01*
G37*
G36*
X51540Y467201D02*
X51540Y467201D01*
X51544Y467198D01*
X51735Y467236D01*
X51744Y467246D01*
X51753Y467243D01*
X51915Y467352D01*
X51919Y467365D01*
X51929Y467365D01*
X52037Y467527D01*
X52036Y467541D01*
X52044Y467545D01*
X52082Y467736D01*
X52079Y467743D01*
X52083Y467746D01*
X52083Y483646D01*
X52079Y483652D01*
X52082Y483656D01*
X52044Y483847D01*
X52034Y483856D01*
X52037Y483865D01*
X51929Y484027D01*
X51915Y484031D01*
X51915Y484041D01*
X51753Y484149D01*
X51739Y484148D01*
X51735Y484156D01*
X51544Y484194D01*
X51537Y484191D01*
X51534Y484195D01*
X45134Y484195D01*
X45128Y484191D01*
X45124Y484194D01*
X44933Y484156D01*
X44924Y484146D01*
X44915Y484149D01*
X44753Y484041D01*
X44749Y484027D01*
X44740Y484027D01*
X44631Y483865D01*
X44631Y483859D01*
X44629Y483857D01*
X44632Y483852D01*
X44632Y483851D01*
X44624Y483847D01*
X44586Y483656D01*
X44589Y483649D01*
X44585Y483646D01*
X44585Y467746D01*
X44589Y467740D01*
X44586Y467736D01*
X44624Y467545D01*
X44634Y467536D01*
X44631Y467527D01*
X44740Y467365D01*
X44753Y467361D01*
X44753Y467352D01*
X44915Y467243D01*
X44929Y467244D01*
X44933Y467236D01*
X45124Y467198D01*
X45131Y467201D01*
X45134Y467197D01*
X51534Y467197D01*
X51540Y467201D01*
G37*
D10*
X152400Y508000D03*
X139700Y25400D03*
X660400Y76200D03*
X660400Y355600D03*
D11*
X288585Y21199D03*
D12*
X288417Y21199D03*
D13*
X288249Y21115D03*
X288082Y21115D03*
X287914Y20947D03*
D14*
X287746Y20864D03*
D15*
X287746Y158831D03*
D16*
X287579Y20780D03*
D12*
X287579Y158831D03*
D17*
X287411Y20612D03*
D13*
X287411Y158915D03*
D17*
X287244Y20612D03*
D13*
X287244Y158915D03*
D18*
X287076Y20528D03*
D13*
X287076Y159083D03*
D18*
X286908Y20361D03*
D14*
X286908Y159167D03*
D19*
X286741Y20277D03*
D17*
X286741Y159250D03*
D20*
X286573Y20193D03*
D21*
X286573Y50871D03*
D12*
X286573Y59421D03*
D13*
X286573Y106947D03*
D14*
X286573Y151287D03*
D16*
X286573Y159418D03*
D19*
X286405Y20109D03*
D13*
X286405Y23630D03*
X286405Y26480D03*
X286405Y28491D03*
D12*
X286405Y30754D03*
D22*
X286405Y37963D03*
D23*
X286405Y50284D03*
D13*
X286405Y53302D03*
D12*
X286405Y57241D03*
D21*
X286405Y59253D03*
D15*
X286405Y64618D03*
D12*
X286405Y66965D03*
D18*
X286405Y75179D03*
D15*
X286405Y76520D03*
D24*
X286405Y78783D03*
D16*
X286405Y81633D03*
D18*
X286405Y88590D03*
D22*
X286405Y95128D03*
X286405Y102169D03*
D20*
X286405Y107198D03*
D12*
X286405Y120106D03*
X286405Y125303D03*
D22*
X286405Y132847D03*
D24*
X286405Y142654D03*
D16*
X286405Y145504D03*
D23*
X286405Y150701D03*
D16*
X286405Y159418D03*
D20*
X286238Y20025D03*
D25*
X286238Y25055D03*
D21*
X286238Y28407D03*
X286238Y30922D03*
D26*
X286238Y37963D03*
D27*
X286238Y49949D03*
D21*
X286238Y53218D03*
X286238Y57409D03*
D16*
X286238Y59337D03*
D13*
X286238Y64869D03*
X286238Y67048D03*
D28*
X286238Y70904D03*
D29*
X286238Y75179D03*
D25*
X286238Y80376D03*
D23*
X286238Y89009D03*
D26*
X286238Y95128D03*
X286238Y102169D03*
D22*
X286238Y107366D03*
D13*
X286238Y112311D03*
D21*
X286238Y120274D03*
D13*
X286238Y125387D03*
D24*
X286238Y129243D03*
D26*
X286238Y132847D03*
D13*
X286238Y139134D03*
D25*
X286238Y144247D03*
D27*
X286238Y150365D03*
D13*
X286238Y154724D03*
D18*
X286238Y159502D03*
D20*
X286070Y19858D03*
D25*
X286070Y25055D03*
D21*
X286070Y28407D03*
D13*
X286070Y31006D03*
D30*
X286070Y37963D03*
D31*
X286070Y49781D03*
D21*
X286070Y53218D03*
X286070Y57409D03*
D14*
X286070Y59421D03*
D13*
X286070Y64869D03*
X286070Y67048D03*
X286070Y70904D03*
D32*
X286070Y75095D03*
D25*
X286070Y80376D03*
D33*
X286070Y89177D03*
D30*
X286070Y95128D03*
X286070Y102169D03*
D34*
X286070Y107533D03*
D14*
X286070Y112395D03*
D13*
X286070Y120358D03*
X286070Y125387D03*
X286070Y129243D03*
D30*
X286070Y132847D03*
D21*
X286070Y139217D03*
D25*
X286070Y144247D03*
D35*
X286070Y150198D03*
D14*
X286070Y154808D03*
D18*
X286070Y159670D03*
D36*
X285902Y19774D03*
D25*
X285902Y25055D03*
D21*
X285902Y28407D03*
D13*
X285902Y31006D03*
D37*
X285902Y37963D03*
D38*
X285902Y48692D03*
D24*
X285902Y51123D03*
D21*
X285902Y53218D03*
X285902Y57409D03*
D13*
X285902Y59505D03*
X285902Y64869D03*
X285902Y67048D03*
D14*
X285902Y70820D03*
D39*
X285902Y74927D03*
D25*
X285902Y80376D03*
D27*
X285902Y89345D03*
D37*
X285902Y95128D03*
X285902Y102169D03*
D24*
X285902Y106611D03*
D18*
X285902Y108204D03*
D14*
X285902Y112395D03*
D13*
X285902Y120358D03*
X285902Y125387D03*
D14*
X285902Y129159D03*
D37*
X285902Y132847D03*
D21*
X285902Y139217D03*
D25*
X285902Y144247D03*
D20*
X285902Y149108D03*
D24*
X285902Y151539D03*
D14*
X285902Y154808D03*
D19*
X285902Y159753D03*
D22*
X285735Y19690D03*
D32*
X285735Y25138D03*
D21*
X285735Y28407D03*
D13*
X285735Y31006D03*
D40*
X285735Y36706D03*
D18*
X285735Y39472D03*
D19*
X285735Y48273D03*
D21*
X285735Y53218D03*
D12*
X285735Y57409D03*
D21*
X285735Y59588D03*
X285735Y64785D03*
D13*
X285735Y67048D03*
D16*
X285735Y70736D03*
D22*
X285735Y73838D03*
D20*
X285735Y76017D03*
D25*
X285735Y80376D03*
D13*
X285735Y88339D03*
D16*
X285735Y90350D03*
D36*
X285735Y93871D03*
D18*
X285735Y96637D03*
D40*
X285735Y100912D03*
D18*
X285735Y103678D03*
D14*
X285735Y108539D03*
X285735Y112395D03*
D13*
X285735Y120358D03*
X285735Y125387D03*
D16*
X285735Y129075D03*
D36*
X285735Y131590D03*
D18*
X285735Y134356D03*
D21*
X285735Y139217D03*
D25*
X285735Y144247D03*
D19*
X285735Y148689D03*
D14*
X285735Y154808D03*
D20*
X285735Y159837D03*
D36*
X285567Y19606D03*
D16*
X285567Y23965D03*
D21*
X285567Y26396D03*
D12*
X285567Y28407D03*
X285567Y31090D03*
D19*
X285567Y36370D03*
D14*
X285567Y39807D03*
D16*
X285567Y47937D03*
D13*
X285567Y53134D03*
D12*
X285567Y57409D03*
D13*
X285567Y59672D03*
X285567Y64701D03*
D12*
X285567Y67132D03*
D14*
X285567Y70485D03*
D19*
X285567Y73419D03*
D13*
X285567Y76436D03*
D12*
X285567Y79035D03*
D16*
X285567Y81633D03*
D12*
X285567Y88422D03*
D21*
X285567Y90602D03*
D19*
X285567Y93536D03*
D21*
X285567Y96972D03*
D19*
X285567Y100576D03*
D14*
X285567Y104013D03*
X285567Y108707D03*
X285567Y112395D03*
D12*
X285567Y120442D03*
X285567Y125471D03*
D14*
X285567Y128824D03*
D19*
X285567Y131255D03*
D21*
X285567Y134691D03*
X285567Y139217D03*
D12*
X285567Y142905D03*
D16*
X285567Y145504D03*
X285567Y148354D03*
D14*
X285567Y154808D03*
D19*
X285567Y159921D03*
D36*
X285399Y19606D03*
D12*
X285399Y23713D03*
X285399Y28407D03*
X285399Y31090D03*
D18*
X285399Y36119D03*
D13*
X285399Y40058D03*
D16*
X285399Y47770D03*
D12*
X285399Y53218D03*
X285399Y57409D03*
X285399Y59756D03*
D13*
X285399Y64701D03*
D12*
X285399Y67132D03*
D16*
X285399Y70234D03*
D19*
X285399Y73083D03*
D12*
X285399Y76352D03*
X285399Y79035D03*
D15*
X285399Y82052D03*
D12*
X285399Y88422D03*
D13*
X285399Y90686D03*
D18*
X285399Y93284D03*
D13*
X285399Y97224D03*
D18*
X285399Y100325D03*
D13*
X285399Y104264D03*
X285399Y108791D03*
X285399Y112311D03*
D12*
X285399Y120442D03*
X285399Y125471D03*
D16*
X285399Y128572D03*
D18*
X285399Y131003D03*
D13*
X285399Y134943D03*
X285399Y139134D03*
D12*
X285399Y142905D03*
D15*
X285399Y145923D03*
D16*
X285399Y148186D03*
D13*
X285399Y154724D03*
D20*
X285399Y160005D03*
D36*
X285232Y19606D03*
D12*
X285232Y23713D03*
X285232Y28407D03*
X285232Y31090D03*
D14*
X285232Y35951D03*
D13*
X285232Y40058D03*
D14*
X285232Y47518D03*
D12*
X285232Y53218D03*
X285232Y57409D03*
D13*
X285232Y59840D03*
X285232Y64534D03*
D12*
X285232Y67132D03*
D21*
X285232Y69982D03*
D18*
X285232Y72832D03*
D12*
X285232Y76352D03*
X285232Y79035D03*
X285232Y88422D03*
D13*
X285232Y90853D03*
D21*
X285232Y93116D03*
D13*
X285232Y97224D03*
D14*
X285232Y100157D03*
D13*
X285232Y104264D03*
D12*
X285232Y108875D03*
D13*
X285232Y112311D03*
D12*
X285232Y120442D03*
X285232Y125471D03*
D21*
X285232Y128321D03*
X285232Y130835D03*
D13*
X285232Y134943D03*
X285232Y139134D03*
D12*
X285232Y142905D03*
D21*
X285232Y147935D03*
D13*
X285232Y154724D03*
D38*
X285232Y160172D03*
D19*
X285064Y19606D03*
D12*
X285064Y23713D03*
X285064Y28407D03*
X285064Y31090D03*
D21*
X285064Y35784D03*
D12*
X285064Y40310D03*
D21*
X285064Y47351D03*
D12*
X285064Y53218D03*
X285064Y57409D03*
X285064Y59924D03*
D13*
X285064Y64534D03*
D12*
X285064Y67132D03*
D16*
X285064Y69731D03*
X285064Y72748D03*
D12*
X285064Y76352D03*
X285064Y79035D03*
X285064Y88422D03*
X285064Y90937D03*
D14*
X285064Y92949D03*
D12*
X285064Y97475D03*
D14*
X285064Y99990D03*
D12*
X285064Y104516D03*
D13*
X285064Y108958D03*
D12*
X285064Y112395D03*
X285064Y120442D03*
X285064Y125471D03*
D16*
X285064Y128069D03*
D14*
X285064Y130668D03*
D12*
X285064Y135194D03*
X285064Y139217D03*
X285064Y142905D03*
D14*
X285064Y147767D03*
D12*
X285064Y154808D03*
D36*
X285064Y160256D03*
D19*
X284897Y19606D03*
D12*
X284897Y23713D03*
X284897Y28407D03*
X284897Y31090D03*
D21*
X284897Y35784D03*
D24*
X284897Y40394D03*
D13*
X284897Y47267D03*
D12*
X284897Y53218D03*
X284897Y57409D03*
D13*
X284897Y60008D03*
D12*
X284897Y64450D03*
X284897Y67132D03*
D14*
X284897Y69479D03*
D21*
X284897Y72497D03*
D12*
X284897Y76352D03*
X284897Y79035D03*
X284897Y88422D03*
D13*
X284897Y91021D03*
D14*
X284897Y92949D03*
D24*
X284897Y97559D03*
D14*
X284897Y99990D03*
D24*
X284897Y104600D03*
D12*
X284897Y109042D03*
X284897Y112395D03*
X284897Y120442D03*
X284897Y125471D03*
D14*
X284897Y127818D03*
X284897Y130668D03*
D24*
X284897Y135278D03*
D12*
X284897Y139217D03*
X284897Y142905D03*
D13*
X284897Y147683D03*
D12*
X284897Y154808D03*
D22*
X284897Y160340D03*
D20*
X284729Y19522D03*
D12*
X284729Y23713D03*
X284729Y28407D03*
X284729Y31090D03*
D13*
X284729Y35700D03*
D12*
X284729Y40477D03*
D24*
X284729Y42573D03*
X284729Y45255D03*
D14*
X284729Y47183D03*
D12*
X284729Y53218D03*
X284729Y57409D03*
X284729Y60091D03*
D13*
X284729Y64366D03*
D12*
X284729Y67132D03*
D16*
X284729Y69228D03*
D14*
X284729Y72329D03*
D12*
X284729Y76352D03*
X284729Y79035D03*
D28*
X284729Y83477D03*
D24*
X284729Y86159D03*
D12*
X284729Y88422D03*
X284729Y91105D03*
D13*
X284729Y92865D03*
D12*
X284729Y97643D03*
D13*
X284729Y99906D03*
D12*
X284729Y104684D03*
X284729Y109042D03*
X284729Y112395D03*
D24*
X284729Y115496D03*
X284729Y118179D03*
D12*
X284729Y120442D03*
X284729Y125471D03*
D16*
X284729Y127566D03*
D13*
X284729Y130584D03*
D12*
X284729Y135362D03*
X284729Y139217D03*
X284729Y142905D03*
D21*
X284729Y147599D03*
D12*
X284729Y154808D03*
D36*
X284729Y160424D03*
X284561Y19439D03*
D12*
X284561Y23713D03*
X284561Y28407D03*
D14*
X284561Y31090D03*
D13*
X284561Y35532D03*
D24*
X284561Y40561D03*
D30*
X284561Y43998D03*
D13*
X284561Y47099D03*
D12*
X284561Y53218D03*
X284561Y57409D03*
X284561Y60091D03*
X284561Y64282D03*
X284561Y67132D03*
D21*
X284561Y68976D03*
D14*
X284561Y72329D03*
D12*
X284561Y76352D03*
X284561Y79035D03*
D30*
X284561Y84902D03*
D12*
X284561Y88422D03*
X284561Y91105D03*
D13*
X284561Y92697D03*
D24*
X284561Y97727D03*
D13*
X284561Y99738D03*
D28*
X284561Y104767D03*
D12*
X284561Y109042D03*
X284561Y112395D03*
D30*
X284561Y116921D03*
D14*
X284561Y120442D03*
D12*
X284561Y125471D03*
D21*
X284561Y127315D03*
D13*
X284561Y130416D03*
D24*
X284561Y135446D03*
D12*
X284561Y139217D03*
X284561Y142905D03*
D13*
X284561Y147516D03*
D12*
X284561Y154808D03*
D36*
X284561Y160424D03*
D22*
X284394Y19522D03*
D12*
X284394Y23713D03*
X284394Y28407D03*
D20*
X284394Y31425D03*
D13*
X284394Y35532D03*
D12*
X284394Y40645D03*
D32*
X284394Y44082D03*
D12*
X284394Y47015D03*
X284394Y53218D03*
X284394Y57409D03*
X284394Y60259D03*
D13*
X284394Y64199D03*
D12*
X284394Y67132D03*
D16*
X284394Y68725D03*
D13*
X284394Y72245D03*
D12*
X284394Y76352D03*
X284394Y79035D03*
D32*
X284394Y84986D03*
D12*
X284394Y88422D03*
X284394Y91105D03*
D13*
X284394Y92697D03*
D12*
X284394Y97810D03*
D13*
X284394Y99738D03*
D12*
X284394Y104851D03*
X284394Y109042D03*
X284394Y112395D03*
D32*
X284394Y117005D03*
D20*
X284394Y120777D03*
D12*
X284394Y125471D03*
D16*
X284394Y127064D03*
D13*
X284394Y130416D03*
D12*
X284394Y135529D03*
X284394Y139217D03*
X284394Y142905D03*
X284394Y147432D03*
X284394Y154808D03*
D36*
X284394Y160424D03*
D23*
X284226Y19439D03*
D12*
X284226Y23713D03*
X284226Y28407D03*
D23*
X284226Y31676D03*
D12*
X284226Y35448D03*
X284226Y40645D03*
D30*
X284226Y44166D03*
D13*
X284226Y46932D03*
D12*
X284226Y53218D03*
X284226Y57409D03*
D21*
X284226Y60594D03*
D16*
X284226Y63863D03*
D12*
X284226Y67132D03*
D16*
X284226Y68557D03*
D13*
X284226Y72078D03*
D12*
X284226Y76352D03*
X284226Y79035D03*
D30*
X284226Y85070D03*
D12*
X284226Y88422D03*
X284226Y91105D03*
X284226Y92613D03*
X284226Y97810D03*
X284226Y99654D03*
X284226Y104851D03*
D13*
X284226Y108958D03*
D12*
X284226Y112395D03*
D30*
X284226Y117089D03*
D23*
X284226Y121028D03*
D12*
X284226Y125471D03*
D16*
X284226Y126896D03*
D12*
X284226Y130332D03*
X284226Y135529D03*
X284226Y139217D03*
X284226Y142905D03*
D13*
X284226Y147348D03*
D12*
X284226Y154808D03*
D19*
X284226Y160424D03*
D41*
X284058Y19355D03*
D12*
X284058Y23713D03*
X284058Y28407D03*
D41*
X284058Y31928D03*
D12*
X284058Y35448D03*
X284058Y40813D03*
D31*
X284058Y44249D03*
D13*
X284058Y46932D03*
D12*
X284058Y53218D03*
X284058Y57409D03*
D42*
X284058Y62271D03*
D12*
X284058Y67132D03*
D21*
X284058Y68306D03*
D13*
X284058Y72078D03*
D12*
X284058Y76352D03*
X284058Y79035D03*
D35*
X284058Y85154D03*
D12*
X284058Y88422D03*
D13*
X284058Y91021D03*
D12*
X284058Y92613D03*
X284058Y97978D03*
X284058Y99654D03*
X284058Y105019D03*
D13*
X284058Y108958D03*
D12*
X284058Y112395D03*
D31*
X284058Y117173D03*
D34*
X284058Y121280D03*
D12*
X284058Y125471D03*
D21*
X284058Y126644D03*
D12*
X284058Y130332D03*
X284058Y135697D03*
X284058Y139217D03*
X284058Y142905D03*
D13*
X284058Y147348D03*
D12*
X284058Y154808D03*
D19*
X284058Y160424D03*
D34*
X283891Y19187D03*
D12*
X283891Y23713D03*
X283891Y28407D03*
D33*
X283891Y32012D03*
D12*
X283891Y35448D03*
X283891Y40813D03*
D24*
X283891Y45590D03*
D12*
X283891Y46848D03*
D13*
X283891Y53302D03*
D12*
X283891Y57409D03*
D43*
X283891Y62187D03*
D40*
X283891Y67719D03*
D12*
X283891Y71994D03*
D21*
X283891Y76352D03*
D12*
X283891Y79035D03*
D24*
X283891Y86495D03*
D12*
X283891Y88422D03*
D13*
X283891Y91021D03*
D12*
X283891Y92613D03*
X283891Y97978D03*
X283891Y99654D03*
X283891Y105019D03*
D13*
X283891Y108791D03*
D12*
X283891Y112395D03*
D24*
X283891Y118514D03*
D33*
X283891Y121364D03*
D40*
X283891Y126058D03*
D12*
X283891Y130332D03*
X283891Y135697D03*
X283891Y139217D03*
X283891Y142905D03*
X283891Y147264D03*
X283891Y154808D03*
D38*
X283891Y160508D03*
D33*
X283723Y19103D03*
D12*
X283723Y23713D03*
X283723Y28407D03*
X283723Y31090D03*
D36*
X283723Y32682D03*
D12*
X283723Y35448D03*
X283723Y40813D03*
X283723Y46848D03*
D44*
X283723Y55314D03*
D37*
X283723Y62271D03*
D20*
X283723Y67635D03*
D12*
X283723Y71994D03*
D21*
X283723Y76352D03*
D12*
X283723Y79035D03*
X283723Y88422D03*
D21*
X283723Y90937D03*
D12*
X283723Y92613D03*
X283723Y97978D03*
X283723Y99654D03*
X283723Y105019D03*
D14*
X283723Y108707D03*
D12*
X283723Y112395D03*
X283723Y120442D03*
D36*
X283723Y122034D03*
D20*
X283723Y125974D03*
D12*
X283723Y130332D03*
X283723Y135697D03*
X283723Y139217D03*
X283723Y142905D03*
X283723Y147264D03*
X283723Y154808D03*
D36*
X283723Y160592D03*
D41*
X283555Y19020D03*
D12*
X283555Y23713D03*
X283555Y28407D03*
X283555Y31090D03*
D18*
X283555Y33101D03*
D12*
X283555Y35448D03*
X283555Y40980D03*
X283555Y46848D03*
D44*
X283555Y55314D03*
D45*
X283555Y62187D03*
D40*
X283555Y67719D03*
D12*
X283555Y71994D03*
D21*
X283555Y76352D03*
D13*
X283555Y79118D03*
D12*
X283555Y81046D03*
X283555Y88422D03*
D16*
X283555Y90686D03*
D12*
X283555Y92613D03*
X283555Y98146D03*
X283555Y99654D03*
X283555Y105186D03*
D16*
X283555Y108455D03*
D12*
X283555Y112395D03*
X283555Y120442D03*
D18*
X283555Y122453D03*
D40*
X283555Y126058D03*
D12*
X283555Y130332D03*
X283555Y135865D03*
X283555Y139217D03*
D13*
X283555Y142989D03*
D12*
X283555Y144917D03*
X283555Y147264D03*
X283555Y154808D03*
D22*
X283555Y160508D03*
D33*
X283388Y18936D03*
D12*
X283388Y23713D03*
X283388Y28407D03*
X283388Y31090D03*
D14*
X283388Y33269D03*
D12*
X283388Y35448D03*
X283388Y40980D03*
X283388Y46848D03*
D44*
X283388Y55314D03*
D12*
X283388Y60762D03*
X283388Y63779D03*
X283388Y67132D03*
D14*
X283388Y68473D03*
D12*
X283388Y71994D03*
D26*
X283388Y80041D03*
D12*
X283388Y88422D03*
D23*
X283388Y90183D03*
D12*
X283388Y92613D03*
X283388Y98146D03*
X283388Y99654D03*
X283388Y105186D03*
D18*
X283388Y108372D03*
D12*
X283388Y112395D03*
X283388Y120442D03*
D14*
X283388Y122621D03*
D12*
X283388Y125471D03*
D14*
X283388Y126812D03*
D12*
X283388Y130332D03*
X283388Y135865D03*
X283388Y139217D03*
D26*
X283388Y143911D03*
D12*
X283388Y147264D03*
X283388Y154808D03*
D23*
X283388Y160592D03*
D33*
X283220Y18936D03*
D12*
X283220Y23713D03*
X283220Y28407D03*
X283220Y31090D03*
D13*
X283220Y33520D03*
D12*
X283220Y35448D03*
X283220Y40980D03*
X283220Y46848D03*
D44*
X283220Y55314D03*
D24*
X283220Y60846D03*
D13*
X283220Y63696D03*
D12*
X283220Y67132D03*
D13*
X283220Y68892D03*
D12*
X283220Y71994D03*
D26*
X283220Y80041D03*
D46*
X283220Y89596D03*
D12*
X283220Y92613D03*
X283220Y98146D03*
X283220Y99654D03*
X283220Y105186D03*
D19*
X283220Y108120D03*
D12*
X283220Y112395D03*
X283220Y120442D03*
D13*
X283220Y122873D03*
D12*
X283220Y125471D03*
D13*
X283220Y127231D03*
D12*
X283220Y130332D03*
X283220Y135865D03*
X283220Y139217D03*
D26*
X283220Y143911D03*
D12*
X283220Y147264D03*
X283220Y154808D03*
D34*
X283220Y160675D03*
D23*
X283053Y18936D03*
D12*
X283053Y23713D03*
X283053Y28407D03*
X283053Y31090D03*
D13*
X283053Y33688D03*
D12*
X283053Y35448D03*
X283053Y40980D03*
X283053Y46848D03*
D13*
X283053Y53302D03*
X283053Y57325D03*
D12*
X283053Y60930D03*
X283053Y63612D03*
X283053Y67132D03*
X283053Y69144D03*
X283053Y71994D03*
D26*
X283053Y80041D03*
D27*
X283053Y89512D03*
D12*
X283053Y92613D03*
X283053Y98146D03*
X283053Y99654D03*
X283053Y105186D03*
D20*
X283053Y107869D03*
D12*
X283053Y112395D03*
X283053Y120442D03*
D13*
X283053Y123040D03*
D12*
X283053Y125471D03*
X283053Y127483D03*
X283053Y130332D03*
X283053Y135865D03*
X283053Y139217D03*
D26*
X283053Y143911D03*
D12*
X283053Y147264D03*
X283053Y154808D03*
D41*
X283053Y160843D03*
D23*
X282885Y18936D03*
D12*
X282885Y23713D03*
X282885Y28407D03*
X282885Y31090D03*
X282885Y33772D03*
X282885Y35616D03*
X282885Y40980D03*
X282885Y47015D03*
X282885Y53218D03*
X282885Y57409D03*
D24*
X282885Y61013D03*
D12*
X282885Y63612D03*
X282885Y67132D03*
X282885Y69312D03*
X282885Y71994D03*
D26*
X282885Y80041D03*
D33*
X282885Y89345D03*
D12*
X282885Y92781D03*
X282885Y98146D03*
X282885Y99822D03*
X282885Y105186D03*
D18*
X282885Y107533D03*
D12*
X282885Y112395D03*
X282885Y120442D03*
X282885Y123124D03*
X282885Y125471D03*
X282885Y127650D03*
X282885Y130500D03*
X282885Y135865D03*
X282885Y139217D03*
D26*
X282885Y143911D03*
D12*
X282885Y147432D03*
X282885Y154808D03*
D33*
X282885Y160927D03*
D36*
X282717Y18936D03*
D12*
X282717Y23713D03*
X282717Y28407D03*
X282717Y31090D03*
X282717Y33939D03*
X282717Y35616D03*
X282717Y40980D03*
X282717Y47015D03*
X282717Y53218D03*
X282717Y57409D03*
X282717Y61097D03*
X282717Y63444D03*
X282717Y67132D03*
X282717Y69479D03*
X282717Y72161D03*
D13*
X282717Y79118D03*
X282717Y80963D03*
D23*
X282717Y89177D03*
D12*
X282717Y92781D03*
X282717Y98146D03*
X282717Y99822D03*
X282717Y105186D03*
D16*
X282717Y107282D03*
D12*
X282717Y112395D03*
X282717Y120442D03*
X282717Y123292D03*
X282717Y125471D03*
X282717Y127818D03*
X282717Y130500D03*
X282717Y135865D03*
X282717Y139217D03*
D13*
X282717Y142989D03*
X282717Y144833D03*
D12*
X282717Y147432D03*
X282717Y154808D03*
D34*
X282717Y161011D03*
D22*
X282550Y18852D03*
D12*
X282550Y23713D03*
X282550Y28407D03*
X282550Y31090D03*
X282550Y33939D03*
X282550Y35616D03*
X282550Y40980D03*
X282550Y47015D03*
X282550Y53218D03*
X282550Y57409D03*
X282550Y61265D03*
X282550Y63444D03*
X282550Y67132D03*
X282550Y69479D03*
X282550Y72161D03*
D13*
X282550Y79118D03*
D12*
X282550Y88422D03*
D16*
X282550Y89847D03*
D12*
X282550Y92781D03*
X282550Y98146D03*
X282550Y99822D03*
X282550Y105186D03*
D13*
X282550Y107114D03*
D12*
X282550Y112395D03*
X282550Y120442D03*
X282550Y123292D03*
X282550Y125471D03*
X282550Y127818D03*
X282550Y130500D03*
X282550Y135865D03*
X282550Y139217D03*
D13*
X282550Y142989D03*
D12*
X282550Y147432D03*
X282550Y154808D03*
D33*
X282550Y161094D03*
D22*
X282382Y18684D03*
D12*
X282382Y23713D03*
X282382Y28407D03*
X282382Y31090D03*
X282382Y34107D03*
X282382Y35784D03*
D13*
X282382Y40897D03*
D12*
X282382Y47183D03*
X282382Y53218D03*
X282382Y57409D03*
X282382Y61265D03*
X282382Y63276D03*
X282382Y67132D03*
X282382Y69647D03*
D13*
X282382Y72245D03*
D12*
X282382Y79035D03*
X282382Y88422D03*
D13*
X282382Y90183D03*
D12*
X282382Y92949D03*
D13*
X282382Y98062D03*
D12*
X282382Y99990D03*
D13*
X282382Y105103D03*
X282382Y106947D03*
D12*
X282382Y112395D03*
X282382Y120442D03*
X282382Y123459D03*
X282382Y125471D03*
X282382Y127986D03*
X282382Y130668D03*
D13*
X282382Y135781D03*
D12*
X282382Y139217D03*
X282382Y142905D03*
X282382Y147599D03*
X282382Y154808D03*
D33*
X282382Y161094D03*
D22*
X282214Y18684D03*
D12*
X282214Y23713D03*
X282214Y28407D03*
X282214Y31090D03*
X282214Y34107D03*
X282214Y35784D03*
D13*
X282214Y40897D03*
D12*
X282214Y47183D03*
X282214Y53218D03*
X282214Y57409D03*
X282214Y61432D03*
X282214Y63276D03*
X282214Y67132D03*
X282214Y69647D03*
D13*
X282214Y72245D03*
D12*
X282214Y79035D03*
X282214Y88422D03*
X282214Y90267D03*
X282214Y92949D03*
D13*
X282214Y98062D03*
D12*
X282214Y99990D03*
D13*
X282214Y105103D03*
D12*
X282214Y106863D03*
X282214Y112395D03*
X282214Y120442D03*
X282214Y123459D03*
X282214Y125471D03*
X282214Y127986D03*
X282214Y130668D03*
D13*
X282214Y135781D03*
D12*
X282214Y139217D03*
X282214Y142905D03*
X282214Y147599D03*
X282214Y154808D03*
D23*
X282214Y161094D03*
X282047Y18600D03*
D12*
X282047Y23713D03*
X282047Y28407D03*
X282047Y31090D03*
X282047Y34107D03*
D13*
X282047Y35867D03*
X282047Y40897D03*
X282047Y47267D03*
D12*
X282047Y53218D03*
X282047Y57409D03*
D13*
X282047Y61516D03*
D12*
X282047Y63109D03*
X282047Y67132D03*
X282047Y69647D03*
D13*
X282047Y72413D03*
D12*
X282047Y79035D03*
X282047Y88422D03*
X282047Y90434D03*
D13*
X282047Y93033D03*
X282047Y98062D03*
X282047Y100073D03*
X282047Y105103D03*
D12*
X282047Y106863D03*
X282047Y112395D03*
X282047Y120442D03*
X282047Y123459D03*
X282047Y125471D03*
X282047Y127986D03*
D13*
X282047Y130752D03*
X282047Y135781D03*
D12*
X282047Y139217D03*
X282047Y142905D03*
D13*
X282047Y147683D03*
D12*
X282047Y154808D03*
D23*
X282047Y161094D03*
D33*
X281879Y18600D03*
D12*
X281879Y23713D03*
X281879Y28407D03*
X281879Y31090D03*
X281879Y34107D03*
D13*
X281879Y36035D03*
X281879Y40729D03*
D12*
X281879Y47351D03*
X281879Y53218D03*
X281879Y57409D03*
X281879Y61600D03*
X281879Y63109D03*
X281879Y67132D03*
X281879Y69647D03*
D13*
X281879Y72413D03*
D12*
X281879Y79035D03*
X281879Y88422D03*
X281879Y90602D03*
D13*
X281879Y93200D03*
X281879Y97894D03*
X281879Y100241D03*
X281879Y104935D03*
D12*
X281879Y106863D03*
X281879Y112395D03*
X281879Y120442D03*
X281879Y123459D03*
X281879Y125471D03*
X281879Y127986D03*
D13*
X281879Y130919D03*
X281879Y135613D03*
D12*
X281879Y139217D03*
X281879Y142905D03*
X281879Y147767D03*
X281879Y154808D03*
D36*
X281879Y161094D03*
D26*
X281711Y18517D03*
D12*
X281711Y23713D03*
X281711Y28407D03*
X281711Y31090D03*
X281711Y34107D03*
D13*
X281711Y36035D03*
X281711Y40729D03*
X281711Y47435D03*
D12*
X281711Y53218D03*
X281711Y57409D03*
D13*
X281711Y61684D03*
X281711Y63025D03*
D12*
X281711Y67132D03*
X281711Y69647D03*
D13*
X281711Y72581D03*
D12*
X281711Y79035D03*
X281711Y88422D03*
X281711Y90602D03*
D13*
X281711Y93200D03*
X281711Y97894D03*
X281711Y100241D03*
X281711Y104935D03*
D12*
X281711Y106863D03*
X281711Y112395D03*
X281711Y120442D03*
X281711Y123459D03*
X281711Y125471D03*
X281711Y127986D03*
D13*
X281711Y130919D03*
X281711Y135613D03*
D12*
X281711Y139217D03*
X281711Y142905D03*
D13*
X281711Y147851D03*
D12*
X281711Y154808D03*
D22*
X281711Y161178D03*
D27*
X281544Y18433D03*
D12*
X281544Y23713D03*
X281544Y28407D03*
X281544Y31090D03*
D13*
X281544Y34023D03*
X281544Y36203D03*
D21*
X281544Y40645D03*
D13*
X281544Y47602D03*
D12*
X281544Y53218D03*
X281544Y57409D03*
X281544Y61768D03*
X281544Y62941D03*
X281544Y67132D03*
D13*
X281544Y69563D03*
D14*
X281544Y72664D03*
D12*
X281544Y79035D03*
X281544Y88422D03*
X281544Y90602D03*
D13*
X281544Y93368D03*
D14*
X281544Y97810D03*
D13*
X281544Y100409D03*
D14*
X281544Y104851D03*
D13*
X281544Y106947D03*
D12*
X281544Y112395D03*
X281544Y120442D03*
D13*
X281544Y123375D03*
D12*
X281544Y125471D03*
D13*
X281544Y127902D03*
X281544Y131087D03*
D14*
X281544Y135529D03*
D12*
X281544Y139217D03*
X281544Y142905D03*
D13*
X281544Y148019D03*
D12*
X281544Y154808D03*
D22*
X281544Y161346D03*
D27*
X281376Y18265D03*
D12*
X281376Y23713D03*
D13*
X281376Y28491D03*
D12*
X281376Y31090D03*
D13*
X281376Y34023D03*
X281376Y36370D03*
D14*
X281376Y40477D03*
D13*
X281376Y47770D03*
D12*
X281376Y53218D03*
X281376Y57409D03*
D20*
X281376Y62438D03*
D12*
X281376Y67132D03*
D13*
X281376Y69563D03*
D21*
X281376Y72832D03*
D13*
X281376Y79118D03*
D12*
X281376Y88422D03*
D13*
X281376Y90518D03*
X281376Y93536D03*
D21*
X281376Y97643D03*
D13*
X281376Y100576D03*
D14*
X281376Y104684D03*
D12*
X281376Y107031D03*
D13*
X281376Y112479D03*
D12*
X281376Y120442D03*
D13*
X281376Y123375D03*
D12*
X281376Y125471D03*
D13*
X281376Y127902D03*
X281376Y131255D03*
D21*
X281376Y135362D03*
D13*
X281376Y139301D03*
X281376Y142989D03*
X281376Y148186D03*
X281376Y154892D03*
D22*
X281376Y161346D03*
D27*
X281208Y18265D03*
D12*
X281208Y23713D03*
D13*
X281208Y28491D03*
D12*
X281208Y31090D03*
D17*
X281208Y33856D03*
D14*
X281208Y36622D03*
D16*
X281208Y40394D03*
D13*
X281208Y47937D03*
X281208Y53302D03*
D12*
X281208Y57409D03*
D19*
X281208Y62354D03*
D12*
X281208Y67132D03*
D13*
X281208Y69395D03*
D16*
X281208Y73083D03*
D24*
X281208Y76939D03*
D13*
X281208Y79118D03*
D12*
X281208Y88422D03*
D13*
X281208Y90518D03*
D21*
X281208Y93787D03*
D16*
X281208Y97559D03*
D14*
X281208Y100828D03*
D16*
X281208Y104600D03*
D14*
X281208Y107198D03*
D15*
X281208Y108875D03*
D13*
X281208Y112479D03*
D12*
X281208Y120442D03*
D16*
X281208Y123208D03*
D12*
X281208Y125471D03*
D13*
X281208Y127734D03*
D21*
X281208Y131506D03*
D16*
X281208Y135278D03*
D13*
X281208Y139301D03*
X281208Y142989D03*
X281208Y148354D03*
X281208Y154892D03*
D23*
X281208Y161430D03*
D29*
X281041Y18181D03*
D13*
X281041Y23797D03*
D21*
X281041Y28407D03*
D12*
X281041Y31090D03*
D16*
X281041Y33688D03*
D18*
X281041Y36957D03*
X281041Y40142D03*
D14*
X281041Y48189D03*
D24*
X281041Y50955D03*
D13*
X281041Y53302D03*
D12*
X281041Y57409D03*
D18*
X281041Y62438D03*
D12*
X281041Y67132D03*
D21*
X281041Y69312D03*
D16*
X281041Y73251D03*
D13*
X281041Y76772D03*
X281041Y79118D03*
X281041Y81633D03*
D12*
X281041Y88422D03*
D14*
X281041Y90434D03*
D18*
X281041Y94122D03*
X281041Y97307D03*
X281041Y101163D03*
X281041Y104348D03*
D16*
X281041Y107450D03*
D28*
X281041Y108958D03*
D14*
X281041Y110719D03*
D13*
X281041Y112479D03*
D16*
X281041Y114658D03*
D12*
X281041Y120442D03*
D16*
X281041Y123040D03*
D12*
X281041Y125471D03*
D21*
X281041Y127650D03*
D18*
X281041Y131841D03*
X281041Y135026D03*
D14*
X281041Y137541D03*
D13*
X281041Y139301D03*
D16*
X281041Y141481D03*
D13*
X281041Y142989D03*
X281041Y145504D03*
D21*
X281041Y148605D03*
D24*
X281041Y151371D03*
D21*
X281041Y153132D03*
D13*
X281041Y154892D03*
D16*
X281041Y157071D03*
D33*
X281041Y161430D03*
D27*
X280873Y18098D03*
D14*
X280873Y23713D03*
D21*
X280873Y28407D03*
D13*
X280873Y31173D03*
D19*
X280873Y33520D03*
D40*
X280873Y37376D03*
D20*
X280873Y39807D03*
D18*
X280873Y48524D03*
D14*
X280873Y50703D03*
D13*
X280873Y53302D03*
X280873Y57325D03*
D17*
X280873Y62522D03*
D12*
X280873Y67132D03*
D16*
X280873Y69060D03*
D20*
X280873Y73670D03*
D19*
X280873Y76436D03*
D32*
X280873Y80460D03*
D13*
X280873Y88506D03*
D18*
X280873Y90099D03*
D36*
X280873Y94541D03*
D20*
X280873Y96972D03*
D36*
X280873Y101582D03*
D20*
X280873Y104013D03*
D23*
X280873Y108120D03*
D47*
X280873Y112730D03*
D13*
X280873Y120526D03*
D19*
X280873Y122873D03*
D12*
X280873Y125471D03*
D16*
X280873Y127399D03*
D36*
X280873Y132260D03*
D20*
X280873Y134691D03*
D47*
X280873Y139553D03*
D32*
X280873Y144330D03*
D18*
X280873Y148941D03*
D14*
X280873Y151120D03*
D47*
X280873Y155143D03*
D26*
X280873Y161514D03*
X280706Y18181D03*
D14*
X280706Y23713D03*
D13*
X280706Y28491D03*
D30*
X280706Y32431D03*
D45*
X280706Y38717D03*
D30*
X280706Y49698D03*
D21*
X280706Y53218D03*
X280706Y57409D03*
D14*
X280706Y62438D03*
D27*
X280706Y68222D03*
D37*
X280706Y75179D03*
D32*
X280706Y80460D03*
D26*
X280706Y89428D03*
D39*
X280706Y95882D03*
X280706Y102923D03*
D22*
X280706Y108204D03*
D47*
X280706Y112730D03*
D30*
X280706Y121783D03*
D27*
X280706Y126561D03*
D39*
X280706Y133601D03*
D47*
X280706Y139553D03*
D32*
X280706Y144330D03*
D30*
X280706Y150114D03*
D47*
X280706Y155143D03*
D27*
X280706Y161597D03*
D26*
X280538Y18181D03*
D14*
X280538Y23713D03*
D24*
X280538Y28491D03*
D29*
X280538Y32263D03*
D30*
X280538Y38633D03*
D29*
X280538Y49865D03*
D21*
X280538Y53218D03*
X280538Y57409D03*
D13*
X280538Y62522D03*
D48*
X280538Y68054D03*
D25*
X280538Y75347D03*
D32*
X280538Y80460D03*
D33*
X280538Y89345D03*
D30*
X280538Y95799D03*
X280538Y102840D03*
D40*
X280538Y108288D03*
D47*
X280538Y112730D03*
D29*
X280538Y121615D03*
D48*
X280538Y126393D03*
D30*
X280538Y133518D03*
D47*
X280538Y139553D03*
D32*
X280538Y144330D03*
D29*
X280538Y150282D03*
D47*
X280538Y155143D03*
D27*
X280538Y161765D03*
D34*
X280370Y18181D03*
D13*
X280370Y23630D03*
D27*
X280370Y32179D03*
D26*
X280370Y38633D03*
X280370Y50033D03*
D21*
X280370Y53218D03*
D12*
X280370Y57577D03*
D13*
X280370Y62522D03*
D34*
X280370Y67970D03*
D27*
X280370Y75263D03*
D30*
X280370Y80543D03*
D41*
X280370Y89261D03*
D26*
X280370Y95799D03*
X280370Y102840D03*
D18*
X280370Y108539D03*
D47*
X280370Y112730D03*
D27*
X280370Y121531D03*
D34*
X280370Y126309D03*
D26*
X280370Y133518D03*
D47*
X280370Y139553D03*
D30*
X280370Y144414D03*
D26*
X280370Y150449D03*
D47*
X280370Y155143D03*
D27*
X280370Y161765D03*
D23*
X280203Y18265D03*
D22*
X280203Y31928D03*
D16*
X280203Y38550D03*
D18*
X280203Y50033D03*
D21*
X280203Y53218D03*
D28*
X280203Y62522D03*
D40*
X280203Y67719D03*
D19*
X280203Y75263D03*
D38*
X280203Y88925D03*
D17*
X280203Y95715D03*
D16*
X280203Y102756D03*
D12*
X280203Y110551D03*
D24*
X280203Y112646D03*
D22*
X280203Y121280D03*
D40*
X280203Y126058D03*
D17*
X280203Y133434D03*
D12*
X280203Y137373D03*
D24*
X280203Y139469D03*
D18*
X280203Y150449D03*
D12*
X280203Y152964D03*
D28*
X280203Y155059D03*
D29*
X280203Y161849D03*
D22*
X280035Y18349D03*
D12*
X280035Y53218D03*
D15*
X280035Y62606D03*
D11*
X280035Y88590D03*
D27*
X280035Y161933D03*
D38*
X279867Y18349D03*
D26*
X279867Y161849D03*
D19*
X279700Y18433D03*
D26*
X279700Y161849D03*
D18*
X279532Y18517D03*
D41*
X279532Y161849D03*
D14*
X279364Y18517D03*
D23*
X279364Y161765D03*
D13*
X279197Y18600D03*
D22*
X279197Y161681D03*
D24*
X279029Y18600D03*
D20*
X279029Y161681D03*
D11*
X278862Y18684D03*
D19*
X278862Y161597D03*
D18*
X278694Y161514D03*
D21*
X278526Y161514D03*
D13*
X278359Y161430D03*
D24*
X278191Y161430D03*
D15*
X278023Y161346D03*
D49*
X480670Y147218D03*
X331470Y147371D03*
D50*
X480670Y147371D03*
X331470Y147523D03*
D51*
X480746Y147523D03*
X331394Y147676D03*
D52*
X480822Y147676D03*
D53*
X331318Y147828D03*
D51*
X480898Y147828D03*
X331241Y147980D03*
D52*
X480974Y147980D03*
D53*
X331165Y148133D03*
D54*
X481051Y148133D03*
X331089Y148285D03*
X481203Y148285D03*
X330937Y148438D03*
D55*
X481279Y148438D03*
D56*
X330860Y148590D03*
D55*
X481279Y148590D03*
D56*
X330860Y148742D03*
D55*
X481432Y148742D03*
X330708Y148895D03*
D57*
X481508Y148895D03*
X330632Y149047D03*
X481660Y149047D03*
X330479Y149200D03*
D58*
X481736Y149200D03*
X330403Y149352D03*
X481736Y149352D03*
X330403Y149504D03*
X481889Y149504D03*
X330251Y149657D03*
D59*
X481965Y149657D03*
D60*
X330175Y149809D03*
D61*
X482041Y149809D03*
X330098Y149962D03*
D50*
X383896Y149962D03*
D58*
X439826Y149962D03*
D61*
X482194Y149962D03*
X329946Y150114D03*
D57*
X383667Y150114D03*
D62*
X439903Y150114D03*
D50*
X477469Y150114D03*
D62*
X482270Y150114D03*
X329870Y150266D03*
D63*
X345719Y150266D03*
D64*
X346786Y150266D03*
D53*
X351739Y150266D03*
D61*
X383438Y150266D03*
D50*
X407365Y150266D03*
D61*
X413004Y150266D03*
D50*
X430835Y150266D03*
D61*
X436474Y150266D03*
D65*
X440207Y150266D03*
D50*
X457048Y150266D03*
D61*
X462686Y150266D03*
D55*
X477469Y150266D03*
D62*
X482270Y150266D03*
X329870Y150419D03*
D59*
X335966Y150419D03*
X346329Y150419D03*
D58*
X351587Y150419D03*
D51*
X364769Y150419D03*
X368884Y150419D03*
X380314Y150419D03*
D62*
X383515Y150419D03*
D50*
X393649Y150419D03*
D53*
X407518Y150419D03*
D66*
X412775Y150419D03*
D53*
X430987Y150419D03*
D66*
X436245Y150419D03*
D67*
X440436Y150419D03*
D52*
X457200Y150419D03*
D66*
X462458Y150419D03*
D53*
X466801Y150419D03*
D57*
X477393Y150419D03*
D62*
X482422Y150419D03*
D68*
X329717Y150571D03*
D69*
X336347Y150571D03*
D70*
X348920Y150571D03*
D64*
X356235Y150571D03*
X356997Y150571D03*
D59*
X364617Y150571D03*
D56*
X368960Y150571D03*
D55*
X380543Y150571D03*
D62*
X383515Y150571D03*
D54*
X393878Y150571D03*
D64*
X399669Y150571D03*
X400431Y150571D03*
D71*
X410566Y150571D03*
D64*
X423139Y150571D03*
X423901Y150571D03*
D71*
X434035Y150571D03*
D72*
X440588Y150571D03*
D63*
X449351Y150571D03*
X450113Y150571D03*
D73*
X460248Y150571D03*
D57*
X467030Y150571D03*
D51*
X474193Y150571D03*
D58*
X477469Y150571D03*
D74*
X482498Y150571D03*
X329641Y150724D03*
D75*
X336271Y150724D03*
D70*
X348920Y150724D03*
D58*
X356768Y150724D03*
D61*
X364541Y150724D03*
D58*
X368960Y150724D03*
D57*
X380619Y150724D03*
D74*
X383591Y150724D03*
D58*
X394106Y150724D03*
X400202Y150724D03*
D71*
X410566Y150724D03*
D58*
X423672Y150724D03*
D71*
X434035Y150724D03*
D76*
X440741Y150724D03*
D58*
X449885Y150724D03*
D73*
X460248Y150724D03*
D59*
X467030Y150724D03*
D54*
X474193Y150724D03*
D58*
X477469Y150724D03*
D74*
X482651Y150724D03*
X329489Y150876D03*
D76*
X336347Y150876D03*
D70*
X348920Y150876D03*
D61*
X356921Y150876D03*
X364541Y150876D03*
D60*
X369037Y150876D03*
D59*
X380771Y150876D03*
D74*
X383591Y150876D03*
D60*
X394183Y150876D03*
D61*
X400355Y150876D03*
D71*
X410566Y150876D03*
D61*
X423824Y150876D03*
D71*
X434035Y150876D03*
D77*
X440893Y150876D03*
D61*
X450037Y150876D03*
D73*
X460248Y150876D03*
D59*
X467030Y150876D03*
D56*
X474116Y150876D03*
D59*
X477545Y150876D03*
D78*
X482727Y150876D03*
X329413Y151028D03*
D77*
X336347Y151028D03*
D70*
X348920Y151028D03*
D61*
X357073Y151028D03*
X364541Y151028D03*
D60*
X369037Y151028D03*
D59*
X380771Y151028D03*
D62*
X383667Y151028D03*
D60*
X394183Y151028D03*
D61*
X400507Y151028D03*
D71*
X410566Y151028D03*
D61*
X423977Y151028D03*
D71*
X434035Y151028D03*
D79*
X440969Y151028D03*
D61*
X450190Y151028D03*
D73*
X460248Y151028D03*
D59*
X467030Y151028D03*
D57*
X474193Y151028D03*
D59*
X477545Y151028D03*
D78*
X482727Y151028D03*
X329413Y151181D03*
D80*
X336347Y151181D03*
D70*
X348920Y151181D03*
D61*
X357073Y151181D03*
X364541Y151181D03*
D58*
X369113Y151181D03*
D61*
X380695Y151181D03*
X383743Y151181D03*
D60*
X394183Y151181D03*
D61*
X400507Y151181D03*
D70*
X410642Y151181D03*
D61*
X423977Y151181D03*
D70*
X434111Y151181D03*
D54*
X439293Y151181D03*
D81*
X442112Y151181D03*
D61*
X450190Y151181D03*
D70*
X460324Y151181D03*
D59*
X467030Y151181D03*
D60*
X474193Y151181D03*
D59*
X477545Y151181D03*
D78*
X482879Y151181D03*
X329260Y151333D03*
D82*
X336347Y151333D03*
D83*
X348996Y151333D03*
D61*
X357073Y151333D03*
X364541Y151333D03*
D58*
X369113Y151333D03*
D61*
X380695Y151333D03*
D59*
X383819Y151333D03*
D60*
X394183Y151333D03*
D61*
X400507Y151333D03*
D70*
X410642Y151333D03*
D61*
X423977Y151333D03*
D70*
X434111Y151333D03*
D51*
X439141Y151333D03*
D78*
X442493Y151333D03*
D61*
X450190Y151333D03*
D70*
X460324Y151333D03*
D59*
X467030Y151333D03*
D61*
X474116Y151333D03*
D59*
X477545Y151333D03*
D84*
X482956Y151333D03*
D85*
X329184Y151486D03*
D66*
X335051Y151486D03*
D74*
X338023Y151486D03*
D86*
X347015Y151486D03*
D78*
X351206Y151486D03*
D61*
X357073Y151486D03*
D59*
X364617Y151486D03*
D57*
X369189Y151486D03*
D59*
X380619Y151486D03*
X383972Y151486D03*
D60*
X394183Y151486D03*
D61*
X400507Y151486D03*
D58*
X407975Y151486D03*
D72*
X412242Y151486D03*
D61*
X423977Y151486D03*
D58*
X431444Y151486D03*
D72*
X435712Y151486D03*
D62*
X442798Y151486D03*
D61*
X450190Y151486D03*
D58*
X457657Y151486D03*
D72*
X461924Y151486D03*
D59*
X467030Y151486D03*
D62*
X474040Y151486D03*
D58*
X477622Y151486D03*
D66*
X483032Y151486D03*
X329108Y151638D03*
D84*
X334975Y151638D03*
D61*
X338328Y151638D03*
D62*
X346634Y151638D03*
D60*
X351358Y151638D03*
D61*
X357073Y151638D03*
D58*
X364541Y151638D03*
D57*
X369189Y151638D03*
D59*
X380619Y151638D03*
X383972Y151638D03*
D61*
X394106Y151638D03*
X400507Y151638D03*
D57*
X407899Y151638D03*
X413385Y151638D03*
D61*
X423977Y151638D03*
D57*
X431368Y151638D03*
X436855Y151638D03*
D61*
X443027Y151638D03*
X450190Y151638D03*
D57*
X457581Y151638D03*
X463067Y151638D03*
D58*
X467106Y151638D03*
D74*
X473964Y151638D03*
D55*
X477469Y151638D03*
D66*
X483184Y151638D03*
X328955Y151790D03*
D62*
X334594Y151790D03*
D60*
X338557Y151790D03*
D57*
X346329Y151790D03*
D59*
X356997Y151790D03*
D58*
X364541Y151790D03*
D57*
X369189Y151790D03*
D58*
X380543Y151790D03*
D60*
X384124Y151790D03*
X394030Y151790D03*
D59*
X400431Y151790D03*
D57*
X407899Y151790D03*
D50*
X413766Y151790D03*
D60*
X423901Y151790D03*
D57*
X431368Y151790D03*
D50*
X437236Y151790D03*
D59*
X443255Y151790D03*
X450113Y151790D03*
D57*
X457581Y151790D03*
D50*
X463448Y151790D03*
D58*
X467106Y151790D03*
D78*
X473888Y151790D03*
D51*
X477545Y151790D03*
D66*
X483184Y151790D03*
X328955Y151943D03*
D61*
X334518Y151943D03*
D58*
X338785Y151943D03*
D57*
X346329Y151943D03*
D59*
X356997Y151943D03*
D58*
X364541Y151943D03*
D55*
X369265Y151943D03*
D58*
X380543Y151943D03*
X384200Y151943D03*
D60*
X394030Y151943D03*
D59*
X400431Y151943D03*
D57*
X407899Y151943D03*
D60*
X423901Y151943D03*
D57*
X431368Y151943D03*
D59*
X443408Y151943D03*
X450113Y151943D03*
D57*
X457581Y151943D03*
D58*
X467106Y151943D03*
D84*
X473812Y151943D03*
D66*
X483337Y151943D03*
X328803Y152095D03*
D61*
X334366Y152095D03*
D58*
X338938Y152095D03*
D57*
X346329Y152095D03*
D59*
X356997Y152095D03*
D58*
X364541Y152095D03*
D55*
X369265Y152095D03*
D58*
X380543Y152095D03*
X384200Y152095D03*
D59*
X393878Y152095D03*
X400431Y152095D03*
D57*
X407899Y152095D03*
D60*
X423901Y152095D03*
D57*
X431368Y152095D03*
D58*
X443484Y152095D03*
D59*
X450113Y152095D03*
D57*
X457581Y152095D03*
D58*
X467106Y152095D03*
D86*
X473659Y152095D03*
X483413Y152095D03*
X328727Y152248D03*
D59*
X334289Y152248D03*
D58*
X339090Y152248D03*
D55*
X346253Y152248D03*
D58*
X357073Y152248D03*
D57*
X364465Y152248D03*
D55*
X369265Y152248D03*
D50*
X374904Y152248D03*
D58*
X380543Y152248D03*
X384353Y152248D03*
D59*
X393878Y152248D03*
D58*
X400507Y152248D03*
D57*
X407899Y152248D03*
D58*
X423977Y152248D03*
D57*
X431368Y152248D03*
D58*
X443636Y152248D03*
X450190Y152248D03*
D57*
X457581Y152248D03*
D58*
X467106Y152248D03*
D85*
X473354Y152248D03*
D65*
X483489Y152248D03*
X328651Y152400D03*
D58*
X334213Y152400D03*
D57*
X339166Y152400D03*
D55*
X346253Y152400D03*
D58*
X357073Y152400D03*
D57*
X364465Y152400D03*
D54*
X369341Y152400D03*
D53*
X374752Y152400D03*
D58*
X380543Y152400D03*
D57*
X384429Y152400D03*
D58*
X393802Y152400D03*
X400507Y152400D03*
D57*
X407899Y152400D03*
D58*
X423977Y152400D03*
D57*
X431368Y152400D03*
X443713Y152400D03*
D58*
X450190Y152400D03*
D57*
X457581Y152400D03*
X467182Y152400D03*
D84*
X473050Y152400D03*
D65*
X483641Y152400D03*
X328498Y152552D03*
D59*
X334137Y152552D03*
D57*
X339319Y152552D03*
D55*
X346253Y152552D03*
D58*
X357073Y152552D03*
D57*
X364465Y152552D03*
D54*
X369341Y152552D03*
D55*
X374752Y152552D03*
D57*
X380467Y152552D03*
X384581Y152552D03*
D59*
X393725Y152552D03*
D58*
X400507Y152552D03*
D57*
X407899Y152552D03*
D58*
X423977Y152552D03*
D57*
X431368Y152552D03*
D55*
X443789Y152552D03*
D58*
X450190Y152552D03*
D57*
X457581Y152552D03*
X467182Y152552D03*
D84*
X472897Y152552D03*
D65*
X483641Y152552D03*
X328498Y152705D03*
D58*
X334061Y152705D03*
D57*
X339471Y152705D03*
D54*
X346329Y152705D03*
D58*
X357073Y152705D03*
D57*
X364465Y152705D03*
D55*
X369418Y152705D03*
D57*
X374675Y152705D03*
X380467Y152705D03*
X384581Y152705D03*
D58*
X393649Y152705D03*
X400507Y152705D03*
D55*
X407975Y152705D03*
D58*
X423977Y152705D03*
D56*
X431444Y152705D03*
D57*
X443865Y152705D03*
D58*
X450190Y152705D03*
D55*
X457657Y152705D03*
D57*
X467182Y152705D03*
D85*
X472592Y152705D03*
D69*
X483718Y152705D03*
X328422Y152857D03*
D58*
X334061Y152857D03*
X339547Y152857D03*
D54*
X346329Y152857D03*
D58*
X357073Y152857D03*
D57*
X364465Y152857D03*
D55*
X369418Y152857D03*
D58*
X374752Y152857D03*
D57*
X380467Y152857D03*
X384734Y152857D03*
D58*
X393649Y152857D03*
X400507Y152857D03*
D55*
X407975Y152857D03*
D58*
X423977Y152857D03*
D56*
X431444Y152857D03*
D55*
X443941Y152857D03*
D58*
X450190Y152857D03*
D55*
X457657Y152857D03*
D57*
X467182Y152857D03*
D84*
X472288Y152857D03*
D65*
X483794Y152857D03*
X328346Y153010D03*
D58*
X334061Y153010D03*
X339700Y153010D03*
D54*
X346329Y153010D03*
D58*
X357073Y153010D03*
D57*
X364465Y153010D03*
D54*
X369494Y153010D03*
D59*
X374828Y153010D03*
D57*
X380467Y153010D03*
D55*
X384810Y153010D03*
D58*
X393497Y153010D03*
X400507Y153010D03*
D55*
X407975Y153010D03*
D58*
X423977Y153010D03*
D56*
X431444Y153010D03*
D55*
X443941Y153010D03*
D58*
X450190Y153010D03*
D55*
X457657Y153010D03*
X467106Y153010D03*
D84*
X472135Y153010D03*
D65*
X483794Y153010D03*
X328346Y153162D03*
D57*
X333985Y153162D03*
D58*
X339700Y153162D03*
D54*
X346329Y153162D03*
D58*
X357073Y153162D03*
D57*
X364465Y153162D03*
D54*
X369494Y153162D03*
D62*
X374828Y153162D03*
D57*
X380467Y153162D03*
X384886Y153162D03*
D58*
X393497Y153162D03*
X400507Y153162D03*
D55*
X407975Y153162D03*
D58*
X423977Y153162D03*
D56*
X431444Y153162D03*
D55*
X444094Y153162D03*
D58*
X450190Y153162D03*
D55*
X457657Y153162D03*
X467106Y153162D03*
D85*
X471830Y153162D03*
D65*
X483794Y153162D03*
X328346Y153314D03*
D58*
X333908Y153314D03*
X339852Y153314D03*
D54*
X346329Y153314D03*
D57*
X356997Y153314D03*
X364465Y153314D03*
D54*
X369494Y153314D03*
D74*
X374752Y153314D03*
D57*
X380467Y153314D03*
D56*
X384962Y153314D03*
D58*
X393344Y153314D03*
D57*
X400431Y153314D03*
D55*
X407975Y153314D03*
D57*
X423901Y153314D03*
D56*
X431444Y153314D03*
D55*
X444094Y153314D03*
D57*
X450113Y153314D03*
D55*
X457657Y153314D03*
X467106Y153314D03*
D85*
X471678Y153314D03*
D66*
X483794Y153314D03*
X328346Y153467D03*
D58*
X333908Y153467D03*
D57*
X339928Y153467D03*
D55*
X346405Y153467D03*
D57*
X356997Y153467D03*
D55*
X364541Y153467D03*
D54*
X369494Y153467D03*
D74*
X374752Y153467D03*
D57*
X380314Y153467D03*
X385039Y153467D03*
D58*
X393344Y153467D03*
D57*
X400431Y153467D03*
D55*
X407975Y153467D03*
D57*
X423901Y153467D03*
D56*
X431444Y153467D03*
D55*
X444094Y153467D03*
D57*
X450113Y153467D03*
D55*
X457657Y153467D03*
X467106Y153467D03*
D84*
X471373Y153467D03*
X483718Y153467D03*
D85*
X328422Y153619D03*
D58*
X333908Y153619D03*
X340004Y153619D03*
D55*
X346405Y153619D03*
X357073Y153619D03*
X364541Y153619D03*
D52*
X369570Y153619D03*
D78*
X374675Y153619D03*
D57*
X380314Y153619D03*
D55*
X385115Y153619D03*
D60*
X393268Y153619D03*
D55*
X400507Y153619D03*
X407975Y153619D03*
X423977Y153619D03*
D56*
X431444Y153619D03*
D55*
X444094Y153619D03*
X450190Y153619D03*
X457657Y153619D03*
X467106Y153619D03*
D78*
X471145Y153619D03*
D50*
X477622Y153619D03*
D74*
X483718Y153619D03*
X328422Y153772D03*
D57*
X333832Y153772D03*
X340081Y153772D03*
D55*
X346405Y153772D03*
X357073Y153772D03*
X364541Y153772D03*
D52*
X369570Y153772D03*
D78*
X374675Y153772D03*
D57*
X380314Y153772D03*
X385191Y153772D03*
D58*
X393192Y153772D03*
D55*
X400507Y153772D03*
X407975Y153772D03*
X423977Y153772D03*
D56*
X431444Y153772D03*
D55*
X444094Y153772D03*
X450190Y153772D03*
X457657Y153772D03*
X467106Y153772D03*
D85*
X470916Y153772D03*
D53*
X477622Y153772D03*
D74*
X483718Y153772D03*
X328422Y153924D03*
D57*
X333832Y153924D03*
X340081Y153924D03*
D55*
X346405Y153924D03*
X357073Y153924D03*
X364541Y153924D03*
D52*
X369570Y153924D03*
D78*
X374675Y153924D03*
D57*
X380314Y153924D03*
D55*
X385267Y153924D03*
D59*
X393116Y153924D03*
D55*
X400507Y153924D03*
X407975Y153924D03*
X423977Y153924D03*
D56*
X431444Y153924D03*
D55*
X444094Y153924D03*
X450190Y153924D03*
X457657Y153924D03*
X467106Y153924D03*
D84*
X470611Y153924D03*
D54*
X477698Y153924D03*
D74*
X483718Y153924D03*
X328422Y154076D03*
D57*
X333832Y154076D03*
X340233Y154076D03*
D55*
X346405Y154076D03*
X357073Y154076D03*
X364541Y154076D03*
D54*
X369646Y154076D03*
D84*
X374752Y154076D03*
D57*
X380314Y154076D03*
X385496Y154076D03*
D58*
X393040Y154076D03*
D55*
X400507Y154076D03*
X407975Y154076D03*
X423977Y154076D03*
D56*
X431444Y154076D03*
D57*
X444017Y154076D03*
D55*
X450190Y154076D03*
X457657Y154076D03*
X467106Y154076D03*
D85*
X470459Y154076D03*
D54*
X477698Y154076D03*
D74*
X483870Y154076D03*
X328270Y154229D03*
D57*
X333832Y154229D03*
X340233Y154229D03*
D55*
X346405Y154229D03*
X357073Y154229D03*
X364541Y154229D03*
D54*
X369646Y154229D03*
D66*
X374675Y154229D03*
D57*
X380314Y154229D03*
D60*
X385648Y154229D03*
D59*
X392963Y154229D03*
D55*
X400507Y154229D03*
X407975Y154229D03*
X423977Y154229D03*
D56*
X431444Y154229D03*
D57*
X444017Y154229D03*
D55*
X450190Y154229D03*
X457657Y154229D03*
X467106Y154229D03*
D85*
X470306Y154229D03*
D54*
X477698Y154229D03*
D78*
X483946Y154229D03*
X328193Y154381D03*
D57*
X333680Y154381D03*
X340385Y154381D03*
D55*
X346405Y154381D03*
X357073Y154381D03*
X364541Y154381D03*
D52*
X369722Y154381D03*
D86*
X374752Y154381D03*
D55*
X380238Y154381D03*
D74*
X386029Y154381D03*
D58*
X392887Y154381D03*
D55*
X400507Y154381D03*
X407975Y154381D03*
X423977Y154381D03*
D56*
X431444Y154381D03*
D57*
X444017Y154381D03*
D55*
X450190Y154381D03*
X457657Y154381D03*
X467106Y154381D03*
D84*
X470002Y154381D03*
D54*
X477698Y154381D03*
D85*
X484022Y154381D03*
D84*
X328117Y154534D03*
D57*
X333680Y154534D03*
X340538Y154534D03*
D55*
X346405Y154534D03*
X357073Y154534D03*
X364541Y154534D03*
D52*
X369722Y154534D03*
D65*
X374675Y154534D03*
D55*
X380238Y154534D03*
D87*
X387477Y154534D03*
D66*
X392354Y154534D03*
D55*
X400507Y154534D03*
X407975Y154534D03*
X423977Y154534D03*
D56*
X431444Y154534D03*
D58*
X443941Y154534D03*
D55*
X450190Y154534D03*
X457657Y154534D03*
X467106Y154534D03*
D78*
X469773Y154534D03*
D55*
X477774Y154534D03*
D78*
X484099Y154534D03*
X328041Y154686D03*
D57*
X333680Y154686D03*
X340538Y154686D03*
D55*
X346405Y154686D03*
X357073Y154686D03*
X364541Y154686D03*
D52*
X369722Y154686D03*
D59*
X374066Y154686D03*
D54*
X375742Y154686D03*
D57*
X380162Y154686D03*
D88*
X389306Y154686D03*
D55*
X400507Y154686D03*
X407975Y154686D03*
X423977Y154686D03*
D56*
X431444Y154686D03*
D58*
X443941Y154686D03*
D55*
X450190Y154686D03*
X457657Y154686D03*
X467106Y154686D03*
D85*
X469544Y154686D03*
D54*
X477850Y154686D03*
D66*
X484099Y154686D03*
X328041Y154838D03*
D57*
X333680Y154838D03*
X340690Y154838D03*
D55*
X346405Y154838D03*
X357073Y154838D03*
X364541Y154838D03*
D52*
X369722Y154838D03*
D59*
X373913Y154838D03*
D52*
X375818Y154838D03*
D57*
X380162Y154838D03*
D88*
X389306Y154838D03*
D55*
X400507Y154838D03*
X407975Y154838D03*
X423977Y154838D03*
D56*
X431444Y154838D03*
D59*
X443865Y154838D03*
D55*
X450190Y154838D03*
X457657Y154838D03*
X467106Y154838D03*
D78*
X469316Y154838D03*
D54*
X477850Y154838D03*
D65*
X484099Y154838D03*
X328041Y154991D03*
D57*
X333680Y154991D03*
X340690Y154991D03*
D55*
X346405Y154991D03*
X357073Y154991D03*
X364541Y154991D03*
D54*
X369799Y154991D03*
D58*
X373837Y154991D03*
D54*
X375895Y154991D03*
D57*
X380162Y154991D03*
D89*
X389306Y154991D03*
D55*
X400507Y154991D03*
X407975Y154991D03*
X423977Y154991D03*
D56*
X431444Y154991D03*
D60*
X443713Y154991D03*
D55*
X450190Y154991D03*
X457657Y154991D03*
X467106Y154991D03*
D78*
X469163Y154991D03*
D54*
X477850Y154991D03*
D90*
X484099Y154991D03*
D91*
X328041Y155143D03*
D57*
X333680Y155143D03*
X340843Y155143D03*
D55*
X346405Y155143D03*
X357073Y155143D03*
X364541Y155143D03*
D52*
X369875Y155143D03*
D59*
X373761Y155143D03*
D52*
X375971Y155143D03*
D57*
X380162Y155143D03*
D89*
X389306Y155143D03*
D55*
X400507Y155143D03*
X407975Y155143D03*
X423977Y155143D03*
D56*
X431444Y155143D03*
D61*
X443636Y155143D03*
D55*
X450190Y155143D03*
X457657Y155143D03*
D72*
X468325Y155143D03*
D54*
X477850Y155143D03*
D75*
X484099Y155143D03*
X328041Y155296D03*
D55*
X333604Y155296D03*
D57*
X340843Y155296D03*
D55*
X346405Y155296D03*
X357073Y155296D03*
X364541Y155296D03*
D52*
X369875Y155296D03*
D58*
X373685Y155296D03*
D53*
X376123Y155296D03*
D55*
X380086Y155296D03*
D92*
X389382Y155296D03*
D55*
X400507Y155296D03*
D57*
X408051Y155296D03*
D55*
X423977Y155296D03*
D57*
X431521Y155296D03*
D62*
X443560Y155296D03*
D55*
X450190Y155296D03*
D57*
X457733Y155296D03*
D67*
X468173Y155296D03*
D52*
X477926Y155296D03*
D75*
X484099Y155296D03*
X328041Y155448D03*
D55*
X333604Y155448D03*
X340919Y155448D03*
X346405Y155448D03*
X357073Y155448D03*
X364541Y155448D03*
D52*
X369875Y155448D03*
D60*
X373609Y155448D03*
D53*
X376123Y155448D03*
D55*
X380086Y155448D03*
D78*
X386563Y155448D03*
D87*
X390830Y155448D03*
D55*
X400507Y155448D03*
D57*
X408051Y155448D03*
D55*
X423977Y155448D03*
D57*
X431521Y155448D03*
D62*
X443408Y155448D03*
D55*
X450190Y155448D03*
D57*
X457733Y155448D03*
D90*
X468097Y155448D03*
D52*
X477926Y155448D03*
D72*
X484175Y155448D03*
X327965Y155600D03*
D55*
X333604Y155600D03*
D57*
X340995Y155600D03*
D55*
X346405Y155600D03*
X357073Y155600D03*
X364541Y155600D03*
D54*
X369951Y155600D03*
D58*
X373532Y155600D03*
D53*
X376276Y155600D03*
D55*
X380086Y155600D03*
D57*
X386258Y155600D03*
D74*
X392125Y155600D03*
D55*
X400507Y155600D03*
D57*
X408051Y155600D03*
D55*
X423977Y155600D03*
D57*
X431521Y155600D03*
D84*
X443179Y155600D03*
D55*
X450190Y155600D03*
D57*
X457733Y155600D03*
D90*
X468097Y155600D03*
D52*
X477926Y155600D03*
D93*
X484251Y155600D03*
X327889Y155753D03*
D55*
X333604Y155753D03*
X341071Y155753D03*
X346405Y155753D03*
X357073Y155753D03*
X364541Y155753D03*
D54*
X369951Y155753D03*
D58*
X373532Y155753D03*
D53*
X376276Y155753D03*
D57*
X380009Y155753D03*
X386258Y155753D03*
D58*
X392278Y155753D03*
D55*
X400507Y155753D03*
D57*
X408051Y155753D03*
D55*
X423977Y155753D03*
D57*
X431521Y155753D03*
D78*
X443103Y155753D03*
D55*
X450190Y155753D03*
D57*
X457733Y155753D03*
D75*
X468249Y155753D03*
D52*
X477926Y155753D03*
D93*
X484403Y155753D03*
X327736Y155905D03*
D55*
X333604Y155905D03*
X341071Y155905D03*
X346405Y155905D03*
D57*
X357149Y155905D03*
D55*
X364541Y155905D03*
D54*
X369951Y155905D03*
D58*
X373380Y155905D03*
D54*
X376352Y155905D03*
D57*
X380009Y155905D03*
D55*
X386334Y155905D03*
D59*
X392201Y155905D03*
D57*
X400583Y155905D03*
D58*
X408127Y155905D03*
D54*
X412013Y155905D03*
D57*
X424053Y155905D03*
D58*
X431597Y155905D03*
D54*
X435483Y155905D03*
D78*
X442951Y155905D03*
D57*
X450266Y155905D03*
D58*
X457810Y155905D03*
D54*
X461696Y155905D03*
D93*
X468401Y155905D03*
D52*
X477926Y155905D03*
D94*
X484480Y155905D03*
D76*
X327660Y156058D03*
D55*
X333604Y156058D03*
D57*
X341147Y156058D03*
D55*
X346405Y156058D03*
D57*
X357149Y156058D03*
D55*
X364541Y156058D03*
D53*
X370027Y156058D03*
D58*
X373380Y156058D03*
D52*
X376428Y156058D03*
D57*
X380009Y156058D03*
D56*
X386486Y156058D03*
D58*
X392125Y156058D03*
D57*
X400583Y156058D03*
D59*
X408203Y156058D03*
D66*
X411404Y156058D03*
D57*
X424053Y156058D03*
D59*
X431673Y156058D03*
D66*
X434873Y156058D03*
X442798Y156058D03*
D57*
X450266Y156058D03*
D59*
X457886Y156058D03*
D66*
X461086Y156058D03*
D57*
X467182Y156058D03*
D85*
X469392Y156058D03*
D52*
X477926Y156058D03*
D93*
X484556Y156058D03*
X327584Y156210D03*
D57*
X333527Y156210D03*
D55*
X341224Y156210D03*
X346405Y156210D03*
D57*
X357149Y156210D03*
D55*
X364541Y156210D03*
D53*
X370027Y156210D03*
D58*
X373228Y156210D03*
D54*
X376504Y156210D03*
D55*
X379933Y156210D03*
D56*
X386486Y156210D03*
D58*
X392125Y156210D03*
D57*
X400583Y156210D03*
D95*
X410032Y156210D03*
D57*
X424053Y156210D03*
D95*
X433502Y156210D03*
D86*
X442570Y156210D03*
D57*
X450266Y156210D03*
D95*
X459715Y156210D03*
D57*
X467182Y156210D03*
D78*
X469773Y156210D03*
D52*
X477926Y156210D03*
D76*
X484632Y156210D03*
D94*
X327508Y156362D03*
D57*
X333527Y156362D03*
D55*
X341224Y156362D03*
X346405Y156362D03*
D57*
X357149Y156362D03*
D55*
X364541Y156362D03*
D54*
X370103Y156362D03*
D58*
X373228Y156362D03*
D52*
X376580Y156362D03*
D55*
X379933Y156362D03*
X386639Y156362D03*
D58*
X391973Y156362D03*
D57*
X400583Y156362D03*
D95*
X410032Y156362D03*
D57*
X424053Y156362D03*
D95*
X433502Y156362D03*
D65*
X442341Y156362D03*
D57*
X450266Y156362D03*
D95*
X459715Y156362D03*
D57*
X467182Y156362D03*
D62*
X470078Y156362D03*
D52*
X477926Y156362D03*
D76*
X484784Y156362D03*
D94*
X327355Y156515D03*
D57*
X333527Y156515D03*
X341300Y156515D03*
D55*
X346405Y156515D03*
D57*
X357149Y156515D03*
D55*
X364541Y156515D03*
D54*
X370103Y156515D03*
D58*
X373075Y156515D03*
D54*
X376657Y156515D03*
D55*
X379933Y156515D03*
X386639Y156515D03*
D58*
X391973Y156515D03*
D57*
X400583Y156515D03*
D95*
X410032Y156515D03*
D57*
X424053Y156515D03*
D95*
X433502Y156515D03*
D65*
X442189Y156515D03*
D57*
X450266Y156515D03*
D95*
X459715Y156515D03*
D55*
X467106Y156515D03*
D62*
X470383Y156515D03*
D52*
X477926Y156515D03*
D96*
X484861Y156515D03*
X327279Y156667D03*
D57*
X333527Y156667D03*
D55*
X341376Y156667D03*
X346405Y156667D03*
D57*
X357149Y156667D03*
D55*
X364541Y156667D03*
D54*
X370103Y156667D03*
D58*
X373075Y156667D03*
D52*
X376733Y156667D03*
D55*
X379933Y156667D03*
X386791Y156667D03*
D58*
X391973Y156667D03*
D57*
X400583Y156667D03*
D95*
X410032Y156667D03*
D57*
X424053Y156667D03*
D95*
X433502Y156667D03*
D69*
X441960Y156667D03*
D57*
X450266Y156667D03*
D95*
X459715Y156667D03*
D55*
X467106Y156667D03*
D61*
X470611Y156667D03*
D52*
X477926Y156667D03*
D96*
X485013Y156667D03*
X327127Y156820D03*
D57*
X333527Y156820D03*
D55*
X341376Y156820D03*
X346405Y156820D03*
D57*
X357149Y156820D03*
D55*
X364541Y156820D03*
D54*
X370103Y156820D03*
D57*
X372999Y156820D03*
D54*
X376809Y156820D03*
D55*
X379933Y156820D03*
X386944Y156820D03*
D58*
X391820Y156820D03*
D57*
X400583Y156820D03*
D95*
X410032Y156820D03*
D57*
X424053Y156820D03*
D95*
X433502Y156820D03*
D69*
X441808Y156820D03*
D57*
X450266Y156820D03*
D95*
X459715Y156820D03*
D55*
X467106Y156820D03*
D59*
X470840Y156820D03*
D52*
X477926Y156820D03*
D96*
X485013Y156820D03*
X327127Y156972D03*
D55*
X333451Y156972D03*
D57*
X341452Y156972D03*
D55*
X346405Y156972D03*
D57*
X357149Y156972D03*
D55*
X364541Y156972D03*
D54*
X370103Y156972D03*
D58*
X372923Y156972D03*
D53*
X376885Y156972D03*
D55*
X379933Y156972D03*
X386944Y156972D03*
D58*
X391820Y156972D03*
D57*
X400583Y156972D03*
D95*
X410032Y156972D03*
D57*
X424053Y156972D03*
D95*
X433502Y156972D03*
D69*
X441503Y156972D03*
D57*
X450266Y156972D03*
D95*
X459715Y156972D03*
D55*
X467106Y156972D03*
D60*
X470992Y156972D03*
D52*
X477926Y156972D03*
D96*
X485165Y156972D03*
X326974Y157124D03*
D55*
X333451Y157124D03*
D56*
X341528Y157124D03*
D55*
X346405Y157124D03*
D57*
X357149Y157124D03*
D55*
X364541Y157124D03*
D54*
X370256Y157124D03*
D57*
X372847Y157124D03*
D54*
X376961Y157124D03*
D57*
X379857Y157124D03*
D55*
X387096Y157124D03*
D58*
X391668Y157124D03*
D57*
X400583Y157124D03*
D74*
X408432Y157124D03*
D85*
X411480Y157124D03*
D57*
X424053Y157124D03*
D74*
X431902Y157124D03*
D84*
X434950Y157124D03*
D66*
X441122Y157124D03*
D57*
X450266Y157124D03*
D74*
X458114Y157124D03*
D85*
X461162Y157124D03*
D55*
X467106Y157124D03*
D58*
X471221Y157124D03*
D52*
X477926Y157124D03*
D96*
X485165Y157124D03*
X326974Y157277D03*
D55*
X333451Y157277D03*
D56*
X341528Y157277D03*
D55*
X346405Y157277D03*
D57*
X357149Y157277D03*
D55*
X364541Y157277D03*
D54*
X370256Y157277D03*
D58*
X372770Y157277D03*
D53*
X377038Y157277D03*
D55*
X379781Y157277D03*
X387096Y157277D03*
D58*
X391668Y157277D03*
D57*
X400583Y157277D03*
D58*
X408127Y157277D03*
D52*
X412242Y157277D03*
D57*
X424053Y157277D03*
D58*
X431597Y157277D03*
D53*
X435712Y157277D03*
D66*
X440969Y157277D03*
D57*
X450266Y157277D03*
D58*
X457810Y157277D03*
D52*
X461924Y157277D03*
D55*
X467106Y157277D03*
D58*
X471373Y157277D03*
D54*
X478003Y157277D03*
D93*
X485165Y157277D03*
X326974Y157429D03*
D55*
X333451Y157429D03*
D57*
X341605Y157429D03*
D55*
X346405Y157429D03*
D57*
X357149Y157429D03*
D55*
X364541Y157429D03*
D54*
X370256Y157429D03*
D57*
X372694Y157429D03*
D54*
X377114Y157429D03*
D55*
X379781Y157429D03*
D56*
X387248Y157429D03*
D57*
X391592Y157429D03*
X400583Y157429D03*
D58*
X408127Y157429D03*
D57*
X424053Y157429D03*
D58*
X431597Y157429D03*
D85*
X440741Y157429D03*
D57*
X450266Y157429D03*
D58*
X457810Y157429D03*
D55*
X467106Y157429D03*
D57*
X471449Y157429D03*
D54*
X478003Y157429D03*
D93*
X485165Y157429D03*
X326974Y157582D03*
D55*
X333451Y157582D03*
D57*
X341605Y157582D03*
D55*
X346405Y157582D03*
D57*
X357149Y157582D03*
D55*
X364541Y157582D03*
D54*
X370256Y157582D03*
D58*
X372618Y157582D03*
D52*
X377190Y157582D03*
D55*
X379781Y157582D03*
X387401Y157582D03*
D58*
X391516Y157582D03*
D57*
X400583Y157582D03*
X408051Y157582D03*
X424053Y157582D03*
X431521Y157582D03*
D74*
X440588Y157582D03*
D57*
X450266Y157582D03*
X457733Y157582D03*
D55*
X467106Y157582D03*
D58*
X471526Y157582D03*
D54*
X478003Y157582D03*
D97*
X485165Y157582D03*
D75*
X326974Y157734D03*
D55*
X333451Y157734D03*
X341681Y157734D03*
X346405Y157734D03*
D57*
X357149Y157734D03*
D55*
X364541Y157734D03*
D54*
X370256Y157734D03*
D58*
X372618Y157734D03*
D54*
X377266Y157734D03*
D55*
X379781Y157734D03*
X387401Y157734D03*
D57*
X391439Y157734D03*
X400583Y157734D03*
X408051Y157734D03*
X424053Y157734D03*
X431521Y157734D03*
D74*
X440436Y157734D03*
D57*
X450266Y157734D03*
X457733Y157734D03*
D55*
X467106Y157734D03*
D57*
X471602Y157734D03*
D56*
X477926Y157734D03*
D67*
X485089Y157734D03*
X327050Y157886D03*
D55*
X333451Y157886D03*
X341681Y157886D03*
X346405Y157886D03*
D57*
X357149Y157886D03*
D55*
X364541Y157886D03*
D54*
X370408Y157886D03*
D57*
X372542Y157886D03*
D52*
X377342Y157886D03*
D55*
X379781Y157886D03*
X387553Y157886D03*
D58*
X391363Y157886D03*
D57*
X400583Y157886D03*
X408051Y157886D03*
X424053Y157886D03*
X431521Y157886D03*
D68*
X440207Y157886D03*
D57*
X450266Y157886D03*
X457733Y157886D03*
D55*
X467106Y157886D03*
D58*
X471678Y157886D03*
D56*
X477926Y157886D03*
D69*
X485089Y157886D03*
X327050Y158039D03*
D55*
X333451Y158039D03*
D57*
X341757Y158039D03*
D55*
X346405Y158039D03*
D57*
X357149Y158039D03*
D55*
X364541Y158039D03*
D54*
X370408Y158039D03*
D58*
X372466Y158039D03*
D54*
X377419Y158039D03*
D55*
X379781Y158039D03*
X387553Y158039D03*
D58*
X391363Y158039D03*
D57*
X400583Y158039D03*
X408051Y158039D03*
X424053Y158039D03*
X431521Y158039D03*
D61*
X440131Y158039D03*
D57*
X450266Y158039D03*
X457733Y158039D03*
D55*
X467106Y158039D03*
D57*
X471754Y158039D03*
D56*
X477926Y158039D03*
D65*
X485013Y158039D03*
X327127Y158191D03*
D57*
X333375Y158191D03*
X341757Y158191D03*
D55*
X346405Y158191D03*
D57*
X357149Y158191D03*
D55*
X364541Y158191D03*
D54*
X370408Y158191D03*
D58*
X372466Y158191D03*
D52*
X377495Y158191D03*
D55*
X379781Y158191D03*
X387706Y158191D03*
D57*
X391287Y158191D03*
X400583Y158191D03*
D55*
X407975Y158191D03*
D57*
X424053Y158191D03*
D56*
X431444Y158191D03*
D59*
X440055Y158191D03*
D57*
X450266Y158191D03*
D55*
X457657Y158191D03*
D57*
X467182Y158191D03*
X471754Y158191D03*
D56*
X477926Y158191D03*
D86*
X485089Y158191D03*
D81*
X327050Y158344D03*
D57*
X333375Y158344D03*
X341757Y158344D03*
D55*
X346405Y158344D03*
D57*
X357149Y158344D03*
D55*
X364541Y158344D03*
D54*
X370408Y158344D03*
D59*
X372389Y158344D03*
D54*
X377571Y158344D03*
D55*
X379781Y158344D03*
X387706Y158344D03*
D58*
X391211Y158344D03*
D57*
X400583Y158344D03*
D55*
X407975Y158344D03*
D57*
X424053Y158344D03*
D56*
X431444Y158344D03*
D60*
X439903Y158344D03*
D57*
X450266Y158344D03*
D55*
X457657Y158344D03*
D57*
X467182Y158344D03*
D58*
X471830Y158344D03*
D56*
X477926Y158344D03*
D65*
X485165Y158344D03*
X326974Y158496D03*
D57*
X333375Y158496D03*
D58*
X341833Y158496D03*
D55*
X346405Y158496D03*
D57*
X357149Y158496D03*
D55*
X364541Y158496D03*
D54*
X370408Y158496D03*
D58*
X372313Y158496D03*
D53*
X377647Y158496D03*
D56*
X379628Y158496D03*
D55*
X387858Y158496D03*
D57*
X391135Y158496D03*
X400583Y158496D03*
D55*
X407975Y158496D03*
D57*
X424053Y158496D03*
D56*
X431444Y158496D03*
D58*
X439826Y158496D03*
D57*
X450266Y158496D03*
D55*
X457657Y158496D03*
D57*
X467182Y158496D03*
X471907Y158496D03*
D56*
X477926Y158496D03*
D65*
X485318Y158496D03*
X326822Y158648D03*
D57*
X333375Y158648D03*
X341909Y158648D03*
D55*
X346405Y158648D03*
D57*
X357149Y158648D03*
D55*
X364541Y158648D03*
D54*
X370561Y158648D03*
D59*
X372237Y158648D03*
D54*
X377723Y158648D03*
D56*
X379628Y158648D03*
D57*
X387934Y158648D03*
D58*
X391058Y158648D03*
D57*
X400583Y158648D03*
D55*
X407975Y158648D03*
D57*
X424053Y158648D03*
D56*
X431444Y158648D03*
D57*
X439750Y158648D03*
X450266Y158648D03*
D55*
X457657Y158648D03*
D57*
X467182Y158648D03*
X471907Y158648D03*
D56*
X477926Y158648D03*
D69*
X485394Y158648D03*
X326746Y158801D03*
D57*
X333375Y158801D03*
X341909Y158801D03*
X346481Y158801D03*
X357149Y158801D03*
D55*
X364541Y158801D03*
D54*
X370561Y158801D03*
D58*
X372161Y158801D03*
D54*
X377723Y158801D03*
D56*
X379628Y158801D03*
X388010Y158801D03*
D57*
X390982Y158801D03*
X400583Y158801D03*
D55*
X407975Y158801D03*
D57*
X424053Y158801D03*
D56*
X431444Y158801D03*
D57*
X439750Y158801D03*
X450266Y158801D03*
D55*
X457657Y158801D03*
D57*
X467182Y158801D03*
X471907Y158801D03*
D56*
X477926Y158801D03*
D69*
X485546Y158801D03*
X326593Y158953D03*
D57*
X333375Y158953D03*
D55*
X341986Y158953D03*
D57*
X346481Y158953D03*
X357149Y158953D03*
D55*
X364541Y158953D03*
D65*
X371475Y158953D03*
D54*
X377876Y158953D03*
D56*
X379628Y158953D03*
D57*
X388087Y158953D03*
X390982Y158953D03*
X400583Y158953D03*
D55*
X407975Y158953D03*
D57*
X424053Y158953D03*
D56*
X431444Y158953D03*
D55*
X439674Y158953D03*
D57*
X450266Y158953D03*
D55*
X457657Y158953D03*
D57*
X467182Y158953D03*
X471907Y158953D03*
D56*
X477926Y158953D03*
D69*
X485546Y158953D03*
X326593Y159106D03*
D57*
X333375Y159106D03*
X342062Y159106D03*
X346481Y159106D03*
X357149Y159106D03*
D55*
X364541Y159106D03*
D86*
X371399Y159106D03*
D54*
X377876Y159106D03*
D56*
X379628Y159106D03*
D55*
X388163Y159106D03*
D58*
X390906Y159106D03*
D57*
X400583Y159106D03*
D55*
X407975Y159106D03*
D57*
X424053Y159106D03*
D56*
X431444Y159106D03*
D55*
X439674Y159106D03*
D57*
X450266Y159106D03*
D55*
X457657Y159106D03*
D57*
X467182Y159106D03*
X471907Y159106D03*
D56*
X477926Y159106D03*
D69*
X485699Y159106D03*
X326441Y159258D03*
D57*
X333375Y159258D03*
X342062Y159258D03*
X346481Y159258D03*
D58*
X357226Y159258D03*
D55*
X364541Y159258D03*
D86*
X371399Y159258D03*
D54*
X378028Y159258D03*
D56*
X379628Y159258D03*
D55*
X388315Y159258D03*
D57*
X390830Y159258D03*
D58*
X400660Y159258D03*
D55*
X407975Y159258D03*
D58*
X424129Y159258D03*
D56*
X431444Y159258D03*
D55*
X439674Y159258D03*
D58*
X450342Y159258D03*
D55*
X457657Y159258D03*
D57*
X467182Y159258D03*
X471907Y159258D03*
D56*
X477926Y159258D03*
D91*
X485775Y159258D03*
D90*
X326365Y159410D03*
D57*
X333375Y159410D03*
X342062Y159410D03*
X346481Y159410D03*
D58*
X357226Y159410D03*
D55*
X364541Y159410D03*
D85*
X371399Y159410D03*
D54*
X378028Y159410D03*
D57*
X379552Y159410D03*
D55*
X388315Y159410D03*
D58*
X390754Y159410D03*
X400660Y159410D03*
D57*
X408051Y159410D03*
D58*
X424129Y159410D03*
D57*
X431521Y159410D03*
D55*
X439674Y159410D03*
D58*
X450342Y159410D03*
D57*
X457733Y159410D03*
X467182Y159410D03*
X471907Y159410D03*
D56*
X477926Y159410D03*
D67*
X485851Y159410D03*
X326288Y159563D03*
D58*
X333299Y159563D03*
D55*
X342138Y159563D03*
D57*
X346481Y159563D03*
D58*
X357226Y159563D03*
D57*
X364465Y159563D03*
D85*
X371399Y159563D03*
D81*
X378866Y159563D03*
D55*
X388468Y159563D03*
D57*
X390677Y159563D03*
D58*
X400660Y159563D03*
D57*
X408051Y159563D03*
D58*
X424129Y159563D03*
D57*
X431521Y159563D03*
D55*
X439674Y159563D03*
D58*
X450342Y159563D03*
D57*
X457733Y159563D03*
X467182Y159563D03*
D58*
X471830Y159563D03*
D56*
X477926Y159563D03*
D72*
X485851Y159563D03*
X326288Y159715D03*
D58*
X333299Y159715D03*
D57*
X342214Y159715D03*
X346481Y159715D03*
D58*
X357226Y159715D03*
X364541Y159715D03*
D78*
X371323Y159715D03*
D66*
X378943Y159715D03*
D54*
X388544Y159715D03*
D58*
X390601Y159715D03*
X400660Y159715D03*
D57*
X408051Y159715D03*
D58*
X424129Y159715D03*
D57*
X431521Y159715D03*
X439750Y159715D03*
D58*
X450342Y159715D03*
D57*
X457733Y159715D03*
X467182Y159715D03*
D58*
X471830Y159715D03*
D56*
X477926Y159715D03*
D94*
X485851Y159715D03*
D76*
X326288Y159868D03*
D58*
X333299Y159868D03*
D57*
X342214Y159868D03*
X346481Y159868D03*
D58*
X357226Y159868D03*
X364541Y159868D03*
D78*
X371323Y159868D03*
D85*
X378866Y159868D03*
D55*
X388620Y159868D03*
D58*
X390601Y159868D03*
X400660Y159868D03*
D57*
X408051Y159868D03*
D58*
X424129Y159868D03*
D57*
X431521Y159868D03*
D56*
X439826Y159868D03*
D58*
X450342Y159868D03*
D57*
X457733Y159868D03*
X467182Y159868D03*
X471754Y159868D03*
D56*
X477926Y159868D03*
D96*
X485775Y159868D03*
X326365Y160020D03*
D58*
X333299Y160020D03*
D57*
X342214Y160020D03*
X346481Y160020D03*
D58*
X357226Y160020D03*
X364541Y160020D03*
D74*
X371246Y160020D03*
D78*
X378943Y160020D03*
D56*
X388772Y160020D03*
D58*
X390449Y160020D03*
X400660Y160020D03*
D57*
X408051Y160020D03*
D58*
X424129Y160020D03*
D57*
X431521Y160020D03*
X439903Y160020D03*
D58*
X450342Y160020D03*
D57*
X457733Y160020D03*
X467182Y160020D03*
D58*
X471678Y160020D03*
D56*
X477926Y160020D03*
D77*
X485851Y160020D03*
D98*
X326288Y160172D03*
D58*
X333299Y160172D03*
D57*
X342214Y160172D03*
X346481Y160172D03*
D58*
X357226Y160172D03*
X364541Y160172D03*
D74*
X371246Y160172D03*
D78*
X378943Y160172D03*
D54*
X388849Y160172D03*
D58*
X390449Y160172D03*
X400660Y160172D03*
D57*
X408051Y160172D03*
D58*
X424129Y160172D03*
D57*
X431521Y160172D03*
X439903Y160172D03*
D58*
X450342Y160172D03*
D57*
X457733Y160172D03*
X467182Y160172D03*
D58*
X471678Y160172D03*
D56*
X477926Y160172D03*
D79*
X485927Y160172D03*
X326212Y160325D03*
D58*
X333299Y160325D03*
D57*
X342367Y160325D03*
X346481Y160325D03*
D58*
X357226Y160325D03*
X364541Y160325D03*
D74*
X371246Y160325D03*
X379019Y160325D03*
D86*
X389687Y160325D03*
D58*
X400660Y160325D03*
D57*
X408051Y160325D03*
D58*
X424129Y160325D03*
D57*
X431521Y160325D03*
X440055Y160325D03*
D58*
X450342Y160325D03*
D57*
X457733Y160325D03*
X467182Y160325D03*
D58*
X471526Y160325D03*
X477926Y160325D03*
D79*
X486080Y160325D03*
X326060Y160477D03*
D58*
X333299Y160477D03*
D57*
X342367Y160477D03*
D58*
X346405Y160477D03*
D59*
X357149Y160477D03*
D58*
X364541Y160477D03*
D62*
X371170Y160477D03*
D74*
X379019Y160477D03*
D66*
X389763Y160477D03*
D59*
X400583Y160477D03*
D57*
X408051Y160477D03*
D59*
X424053Y160477D03*
D57*
X431521Y160477D03*
D58*
X440131Y160477D03*
D59*
X450266Y160477D03*
D57*
X457733Y160477D03*
X467182Y160477D03*
D58*
X471526Y160477D03*
X477926Y160477D03*
D80*
X486156Y160477D03*
X325984Y160630D03*
D60*
X333223Y160630D03*
D57*
X342367Y160630D03*
D58*
X346405Y160630D03*
D59*
X357149Y160630D03*
D58*
X364541Y160630D03*
D62*
X371170Y160630D03*
X379095Y160630D03*
D84*
X389839Y160630D03*
D59*
X400583Y160630D03*
D58*
X408127Y160630D03*
D59*
X424053Y160630D03*
D58*
X431597Y160630D03*
X440284Y160630D03*
D59*
X450266Y160630D03*
D58*
X457810Y160630D03*
D57*
X467182Y160630D03*
D58*
X471373Y160630D03*
X477926Y160630D03*
D80*
X486156Y160630D03*
X325984Y160782D03*
D61*
X333146Y160782D03*
D57*
X342367Y160782D03*
D58*
X346405Y160782D03*
D61*
X357226Y160782D03*
D58*
X364541Y160782D03*
D62*
X371170Y160782D03*
X379095Y160782D03*
D78*
X389763Y160782D03*
D61*
X400660Y160782D03*
D58*
X408127Y160782D03*
D61*
X424129Y160782D03*
D58*
X431597Y160782D03*
D60*
X440512Y160782D03*
D51*
X443865Y160782D03*
D61*
X450342Y160782D03*
D58*
X457810Y160782D03*
X467106Y160782D03*
D61*
X471221Y160782D03*
D58*
X477926Y160782D03*
D80*
X486308Y160782D03*
X325831Y160934D03*
D61*
X333146Y160934D03*
D57*
X342367Y160934D03*
D58*
X346405Y160934D03*
D61*
X353873Y160934D03*
X357226Y160934D03*
D62*
X361569Y160934D03*
D61*
X364541Y160934D03*
X371094Y160934D03*
X379171Y160934D03*
D74*
X389839Y160934D03*
D61*
X397307Y160934D03*
X400660Y160934D03*
D62*
X405003Y160934D03*
D58*
X408127Y160934D03*
D55*
X413309Y160934D03*
D61*
X420776Y160934D03*
X424129Y160934D03*
D62*
X428473Y160934D03*
D58*
X431597Y160934D03*
D56*
X436778Y160934D03*
D61*
X440741Y160934D03*
D52*
X443789Y160934D03*
D61*
X446989Y160934D03*
X450342Y160934D03*
D68*
X454685Y160934D03*
D58*
X457810Y160934D03*
D55*
X462991Y160934D03*
D58*
X467106Y160934D03*
D61*
X471068Y160934D03*
D58*
X477926Y160934D03*
D99*
X486385Y160934D03*
D87*
X325755Y161087D03*
D62*
X333223Y161087D03*
D60*
X342367Y161087D03*
D59*
X346481Y161087D03*
D74*
X353873Y161087D03*
X357226Y161087D03*
D78*
X361417Y161087D03*
D61*
X364541Y161087D03*
X371094Y161087D03*
X379171Y161087D03*
D74*
X389839Y161087D03*
X397307Y161087D03*
X400660Y161087D03*
D78*
X404851Y161087D03*
D61*
X408127Y161087D03*
D74*
X413004Y161087D03*
X420776Y161087D03*
X424129Y161087D03*
D78*
X428320Y161087D03*
D61*
X431597Y161087D03*
D74*
X436474Y161087D03*
D84*
X441046Y161087D03*
D55*
X443789Y161087D03*
D74*
X446989Y161087D03*
X450342Y161087D03*
D78*
X454533Y161087D03*
D61*
X457810Y161087D03*
D74*
X462686Y161087D03*
D60*
X467182Y161087D03*
D74*
X470764Y161087D03*
D58*
X477926Y161087D03*
D82*
X486461Y161087D03*
X325679Y161239D03*
D62*
X333223Y161239D03*
D61*
X342443Y161239D03*
X346405Y161239D03*
D100*
X357759Y161239D03*
D61*
X364541Y161239D03*
X371094Y161239D03*
X379171Y161239D03*
X389839Y161239D03*
D100*
X401193Y161239D03*
D70*
X410642Y161239D03*
D100*
X424663Y161239D03*
D70*
X434111Y161239D03*
D77*
X442265Y161239D03*
D100*
X450875Y161239D03*
D70*
X460324Y161239D03*
D61*
X467258Y161239D03*
D85*
X470459Y161239D03*
D58*
X477926Y161239D03*
D82*
X486613Y161239D03*
X325526Y161392D03*
D62*
X333223Y161392D03*
D61*
X342443Y161392D03*
X346405Y161392D03*
D100*
X357759Y161392D03*
D61*
X364541Y161392D03*
X371094Y161392D03*
D59*
X379247Y161392D03*
D61*
X389839Y161392D03*
D100*
X401193Y161392D03*
D73*
X410718Y161392D03*
D100*
X424663Y161392D03*
D71*
X434188Y161392D03*
D96*
X442341Y161392D03*
D100*
X450875Y161392D03*
D73*
X460400Y161392D03*
D101*
X468935Y161392D03*
D58*
X477926Y161392D03*
D82*
X486613Y161392D03*
X325526Y161544D03*
D62*
X333223Y161544D03*
D61*
X342443Y161544D03*
X346405Y161544D03*
D100*
X357759Y161544D03*
D61*
X364541Y161544D03*
D59*
X371018Y161544D03*
X379247Y161544D03*
X389763Y161544D03*
D100*
X401193Y161544D03*
D73*
X410718Y161544D03*
D100*
X424663Y161544D03*
D71*
X434188Y161544D03*
D93*
X442493Y161544D03*
D100*
X450875Y161544D03*
D73*
X460400Y161544D03*
D82*
X468782Y161544D03*
D58*
X477926Y161544D03*
D102*
X486689Y161544D03*
D103*
X325450Y161696D03*
D62*
X333223Y161696D03*
D61*
X342443Y161696D03*
X346405Y161696D03*
D100*
X357759Y161696D03*
D59*
X364617Y161696D03*
D57*
X371018Y161696D03*
D59*
X379247Y161696D03*
D57*
X389915Y161696D03*
D100*
X401193Y161696D03*
D73*
X410718Y161696D03*
D100*
X424663Y161696D03*
D71*
X434188Y161696D03*
D72*
X442570Y161696D03*
D100*
X450875Y161696D03*
D73*
X460400Y161696D03*
D80*
X468630Y161696D03*
D58*
X477926Y161696D03*
D82*
X486766Y161696D03*
X325374Y161849D03*
D60*
X333223Y161849D03*
D61*
X342443Y161849D03*
D59*
X346329Y161849D03*
D100*
X357759Y161849D03*
D58*
X364693Y161849D03*
D57*
X371018Y161849D03*
D58*
X379324Y161849D03*
D57*
X389915Y161849D03*
D100*
X401193Y161849D03*
D73*
X410718Y161849D03*
D100*
X424663Y161849D03*
D71*
X434188Y161849D03*
D90*
X442798Y161849D03*
D100*
X450875Y161849D03*
D73*
X460400Y161849D03*
D77*
X468478Y161849D03*
D58*
X477926Y161849D03*
D87*
X486689Y161849D03*
D99*
X325450Y162001D03*
D54*
X333375Y162001D03*
D58*
X342290Y162001D03*
X346253Y162001D03*
D104*
X357835Y162001D03*
D55*
X364693Y162001D03*
D57*
X371018Y162001D03*
D58*
X379324Y162001D03*
D55*
X389839Y162001D03*
D104*
X401269Y162001D03*
D70*
X410794Y162001D03*
D104*
X424739Y162001D03*
D70*
X434264Y162001D03*
D86*
X443027Y162001D03*
D104*
X450952Y162001D03*
D70*
X460477Y162001D03*
D93*
X468249Y162001D03*
D60*
X478003Y162001D03*
D80*
X486613Y162001D03*
X325526Y162154D03*
D63*
X333527Y162154D03*
D52*
X342443Y162154D03*
D55*
X346253Y162154D03*
D60*
X353797Y162154D03*
D54*
X357607Y162154D03*
D57*
X361874Y162154D03*
D51*
X364769Y162154D03*
D54*
X371018Y162154D03*
D57*
X379400Y162154D03*
D55*
X389839Y162154D03*
D60*
X397231Y162154D03*
D54*
X401041Y162154D03*
D57*
X405308Y162154D03*
D54*
X408508Y162154D03*
D57*
X413385Y162154D03*
D60*
X420700Y162154D03*
D54*
X424510Y162154D03*
D57*
X428777Y162154D03*
D54*
X431978Y162154D03*
D57*
X436855Y162154D03*
D62*
X443103Y162154D03*
D59*
X446913Y162154D03*
D54*
X450723Y162154D03*
D57*
X454990Y162154D03*
D54*
X458191Y162154D03*
D57*
X463067Y162154D03*
D85*
X468173Y162154D03*
D60*
X478003Y162154D03*
D77*
X486613Y162154D03*
D98*
X325526Y162306D03*
D53*
X353416Y162306D03*
D51*
X357607Y162306D03*
X371018Y162306D03*
D57*
X379400Y162306D03*
D54*
X389915Y162306D03*
D53*
X396850Y162306D03*
D51*
X401041Y162306D03*
D53*
X420319Y162306D03*
D51*
X424510Y162306D03*
D64*
X442646Y162306D03*
D52*
X446532Y162306D03*
D51*
X450723Y162306D03*
D60*
X478003Y162306D03*
D96*
X486537Y162306D03*
X325603Y162458D03*
D54*
X379400Y162458D03*
D53*
X389992Y162458D03*
D58*
X478079Y162458D03*
D76*
X486461Y162458D03*
X325679Y162611D03*
D51*
X379552Y162611D03*
D50*
X390144Y162611D03*
D58*
X478079Y162611D03*
D72*
X486461Y162611D03*
X325679Y162763D03*
D55*
X478231Y162763D03*
D75*
X486385Y162763D03*
X325755Y162916D03*
D53*
X478384Y162916D03*
D67*
X486308Y162916D03*
X325831Y163068D03*
D90*
X486385Y163068D03*
D91*
X325755Y163220D03*
D69*
X486308Y163220D03*
X325831Y163373D03*
D65*
X486232Y163373D03*
X325907Y163525D03*
D66*
X486232Y163525D03*
X325907Y163678D03*
D85*
X486156Y163678D03*
D84*
X325984Y163830D03*
D78*
X486080Y163830D03*
X326060Y163982D03*
D62*
X486080Y163982D03*
X326060Y164135D03*
D61*
X486004Y164135D03*
X326136Y164287D03*
D59*
X485927Y164287D03*
D60*
X326212Y164440D03*
D57*
X485927Y164440D03*
X326212Y164592D03*
D55*
X485851Y164592D03*
D56*
X326288Y164744D03*
D54*
X485775Y164744D03*
X326365Y164897D03*
D51*
X485775Y164897D03*
X326365Y165049D03*
D50*
X485699Y165049D03*
X326441Y165202D03*
D49*
X485699Y165202D03*
X326441Y165354D03*
D105*
X39755Y312213D02*
X32065Y312213D01*
X39755Y312213D02*
X39755Y304523D01*
X32065Y304523D01*
X32065Y312213D01*
X32065Y309599D02*
X39755Y309599D01*
X19755Y312213D02*
X12065Y312213D01*
X19755Y312213D02*
X19755Y304523D01*
X12065Y304523D01*
X12065Y312213D01*
X12065Y309599D02*
X19755Y309599D01*
D106*
X20840Y498800D03*
X40840Y498800D03*
D105*
X76809Y502363D02*
X84499Y502363D01*
X84499Y494673D01*
X76809Y494673D01*
X76809Y502363D01*
X76809Y499749D02*
X84499Y499749D01*
X64499Y502363D02*
X56809Y502363D01*
X64499Y502363D02*
X64499Y494673D01*
X56809Y494673D01*
X56809Y502363D01*
X56809Y499749D02*
X64499Y499749D01*
X149463Y476755D02*
X157153Y476755D01*
X157153Y469065D01*
X149463Y469065D01*
X149463Y476755D01*
X149463Y474141D02*
X157153Y474141D01*
X137153Y476755D02*
X129463Y476755D01*
X137153Y476755D02*
X137153Y469065D01*
X129463Y469065D01*
X129463Y476755D01*
X129463Y474141D02*
X137153Y474141D01*
X145561Y354617D02*
X145561Y346927D01*
X137871Y346927D01*
X137871Y354617D01*
X145561Y354617D01*
X145561Y352003D02*
X137871Y352003D01*
X145561Y366927D02*
X145561Y374617D01*
X145561Y366927D02*
X137871Y366927D01*
X137871Y374617D01*
X145561Y374617D01*
X145561Y372003D02*
X137871Y372003D01*
X152181Y61409D02*
X152181Y53719D01*
X144491Y53719D01*
X144491Y61409D01*
X152181Y61409D01*
X152181Y58795D02*
X144491Y58795D01*
X152181Y73719D02*
X152181Y81409D01*
X152181Y73719D02*
X144491Y73719D01*
X144491Y81409D01*
X152181Y81409D01*
X152181Y78795D02*
X144491Y78795D01*
D107*
X100378Y307289D02*
X87574Y307289D01*
X87574Y322123D01*
X100378Y322123D01*
X100378Y307289D01*
X100378Y312257D02*
X87574Y312257D01*
X87574Y317225D02*
X100378Y317225D01*
X71938Y307289D02*
X59134Y307289D01*
X59134Y322123D01*
X71938Y322123D01*
X71938Y307289D01*
X71938Y312257D02*
X59134Y312257D01*
X59134Y317225D02*
X71938Y317225D01*
D105*
X54067Y124589D02*
X54067Y116899D01*
X54067Y124589D02*
X61757Y124589D01*
X61757Y116899D01*
X54067Y116899D01*
X54067Y121975D02*
X61757Y121975D01*
X54067Y104589D02*
X54067Y96899D01*
X54067Y104589D02*
X61757Y104589D01*
X61757Y96899D01*
X54067Y96899D01*
X54067Y101975D02*
X61757Y101975D01*
X238311Y304327D02*
X246001Y304327D01*
X246001Y296637D01*
X238311Y296637D01*
X238311Y304327D01*
X238311Y301713D02*
X246001Y301713D01*
X226001Y304327D02*
X218311Y304327D01*
X226001Y304327D02*
X226001Y296637D01*
X218311Y296637D01*
X218311Y304327D01*
X218311Y301713D02*
X226001Y301713D01*
X218315Y365287D02*
X210625Y365287D01*
X218315Y365287D02*
X218315Y357597D01*
X210625Y357597D01*
X210625Y365287D01*
X210625Y362673D02*
X218315Y362673D01*
X198315Y365287D02*
X190625Y365287D01*
X198315Y365287D02*
X198315Y357597D01*
X190625Y357597D01*
X190625Y365287D01*
X190625Y362673D02*
X198315Y362673D01*
X226947Y357597D02*
X234637Y357597D01*
X226947Y357597D02*
X226947Y365287D01*
X234637Y365287D01*
X234637Y357597D01*
X234637Y362673D02*
X226947Y362673D01*
X246947Y357597D02*
X254637Y357597D01*
X246947Y357597D02*
X246947Y365287D01*
X254637Y365287D01*
X254637Y357597D01*
X254637Y362673D02*
X246947Y362673D01*
D107*
X51511Y235260D02*
X51511Y222456D01*
X51511Y235260D02*
X66345Y235260D01*
X66345Y222456D01*
X51511Y222456D01*
X51511Y227424D02*
X66345Y227424D01*
X66345Y232392D02*
X51511Y232392D01*
X51511Y250896D02*
X51511Y263700D01*
X66345Y263700D01*
X66345Y250896D01*
X51511Y250896D01*
X51511Y255864D02*
X66345Y255864D01*
X66345Y260832D02*
X51511Y260832D01*
D108*
X75811Y225305D02*
X99037Y225305D01*
X75811Y225305D02*
X75811Y240531D01*
X99037Y240531D01*
X99037Y225305D01*
X99037Y228921D02*
X75811Y228921D01*
X75811Y232537D02*
X99037Y232537D01*
X99037Y236153D02*
X75811Y236153D01*
X75811Y239769D02*
X99037Y239769D01*
X119911Y225305D02*
X143137Y225305D01*
X119911Y225305D02*
X119911Y240531D01*
X143137Y240531D01*
X143137Y225305D01*
X143137Y228921D02*
X119911Y228921D01*
X119911Y232537D02*
X143137Y232537D01*
X143137Y236153D02*
X119911Y236153D01*
X119911Y239769D02*
X143137Y239769D01*
D109*
X51302Y398088D02*
X44190Y398088D01*
X51302Y398088D02*
X51302Y394276D01*
X44190Y394276D01*
X44190Y398088D01*
X44190Y379088D02*
X51302Y379088D01*
X51302Y375276D01*
X44190Y375276D01*
X44190Y379088D01*
X63390Y384776D02*
X70502Y384776D01*
X63390Y384776D02*
X63390Y388588D01*
X70502Y388588D01*
X70502Y384776D01*
D108*
X176791Y79129D02*
X176791Y55903D01*
X176791Y79129D02*
X192017Y79129D01*
X192017Y55903D01*
X176791Y55903D01*
X176791Y59519D02*
X192017Y59519D01*
X192017Y63135D02*
X176791Y63135D01*
X176791Y66751D02*
X192017Y66751D01*
X192017Y70367D02*
X176791Y70367D01*
X176791Y73983D02*
X192017Y73983D01*
X192017Y77599D02*
X176791Y77599D01*
X176791Y35029D02*
X176791Y11803D01*
X176791Y35029D02*
X192017Y35029D01*
X192017Y11803D01*
X176791Y11803D01*
X176791Y15419D02*
X192017Y15419D01*
X192017Y19035D02*
X176791Y19035D01*
X176791Y22651D02*
X192017Y22651D01*
X192017Y26267D02*
X176791Y26267D01*
X176791Y29883D02*
X192017Y29883D01*
X192017Y33499D02*
X176791Y33499D01*
D110*
X181182Y416464D03*
X181182Y393464D03*
D111*
X200060Y293330D03*
X200060Y337330D03*
D112*
X67384Y448696D03*
D113*
X47884Y442196D03*
X47884Y455196D03*
X60884Y442196D03*
X60884Y455196D03*
X73884Y442196D03*
X73884Y455196D03*
X86884Y442196D03*
X86884Y455196D03*
D114*
X117631Y403405D02*
X117631Y392907D01*
X117631Y403405D02*
X122129Y403405D01*
X122129Y392907D01*
X117631Y392907D01*
X117631Y396264D02*
X122129Y396264D01*
X122129Y399621D02*
X117631Y399621D01*
X117631Y402978D02*
X122129Y402978D01*
X108131Y403405D02*
X108131Y392907D01*
X108131Y403405D02*
X112629Y403405D01*
X112629Y392907D01*
X108131Y392907D01*
X108131Y396264D02*
X112629Y396264D01*
X112629Y399621D02*
X108131Y399621D01*
X108131Y402978D02*
X112629Y402978D01*
X98631Y403405D02*
X98631Y392907D01*
X98631Y403405D02*
X103129Y403405D01*
X103129Y392907D01*
X98631Y392907D01*
X98631Y396264D02*
X103129Y396264D01*
X103129Y399621D02*
X98631Y399621D01*
X98631Y402978D02*
X103129Y402978D01*
X98631Y377405D02*
X98631Y366907D01*
X98631Y377405D02*
X103129Y377405D01*
X103129Y366907D01*
X98631Y366907D01*
X98631Y370264D02*
X103129Y370264D01*
X103129Y373621D02*
X98631Y373621D01*
X98631Y376978D02*
X103129Y376978D01*
X108131Y377405D02*
X108131Y366907D01*
X108131Y377405D02*
X112629Y377405D01*
X112629Y366907D01*
X108131Y366907D01*
X108131Y370264D02*
X112629Y370264D01*
X112629Y373621D02*
X108131Y373621D01*
X108131Y376978D02*
X112629Y376978D01*
X117631Y377405D02*
X117631Y366907D01*
X117631Y377405D02*
X122129Y377405D01*
X122129Y366907D01*
X117631Y366907D01*
X117631Y370264D02*
X122129Y370264D01*
X122129Y373621D02*
X117631Y373621D01*
X117631Y376978D02*
X122129Y376978D01*
X79871Y270887D02*
X79871Y260389D01*
X75373Y260389D01*
X75373Y270887D01*
X79871Y270887D01*
X79871Y263746D02*
X75373Y263746D01*
X75373Y267103D02*
X79871Y267103D01*
X79871Y270460D02*
X75373Y270460D01*
X89371Y270887D02*
X89371Y260389D01*
X84873Y260389D01*
X84873Y270887D01*
X89371Y270887D01*
X89371Y263746D02*
X84873Y263746D01*
X84873Y267103D02*
X89371Y267103D01*
X89371Y270460D02*
X84873Y270460D01*
X98871Y270887D02*
X98871Y260389D01*
X94373Y260389D01*
X94373Y270887D01*
X98871Y270887D01*
X98871Y263746D02*
X94373Y263746D01*
X94373Y267103D02*
X98871Y267103D01*
X98871Y270460D02*
X94373Y270460D01*
X98871Y286389D02*
X98871Y296887D01*
X98871Y286389D02*
X94373Y286389D01*
X94373Y296887D01*
X98871Y296887D01*
X98871Y289746D02*
X94373Y289746D01*
X94373Y293103D02*
X98871Y293103D01*
X98871Y296460D02*
X94373Y296460D01*
X89371Y296887D02*
X89371Y286389D01*
X84873Y286389D01*
X84873Y296887D01*
X89371Y296887D01*
X89371Y289746D02*
X84873Y289746D01*
X84873Y293103D02*
X89371Y293103D01*
X89371Y296460D02*
X84873Y296460D01*
X79871Y296887D02*
X79871Y286389D01*
X75373Y286389D01*
X75373Y296887D01*
X79871Y296887D01*
X79871Y289746D02*
X75373Y289746D01*
X75373Y293103D02*
X79871Y293103D01*
X79871Y296460D02*
X75373Y296460D01*
D115*
X103048Y97698D03*
D113*
X96548Y117198D03*
X109548Y117198D03*
X96548Y104198D03*
X109548Y104198D03*
X96548Y91198D03*
X109548Y91198D03*
X96548Y78198D03*
X109548Y78198D03*
D114*
X225921Y312967D02*
X225921Y323465D01*
X225921Y312967D02*
X221423Y312967D01*
X221423Y323465D01*
X225921Y323465D01*
X225921Y316324D02*
X221423Y316324D01*
X221423Y319681D02*
X225921Y319681D01*
X225921Y323038D02*
X221423Y323038D01*
X235421Y323465D02*
X235421Y312967D01*
X230923Y312967D01*
X230923Y323465D01*
X235421Y323465D01*
X235421Y316324D02*
X230923Y316324D01*
X230923Y319681D02*
X235421Y319681D01*
X235421Y323038D02*
X230923Y323038D01*
X244921Y323465D02*
X244921Y312967D01*
X240423Y312967D01*
X240423Y323465D01*
X244921Y323465D01*
X244921Y316324D02*
X240423Y316324D01*
X240423Y319681D02*
X244921Y319681D01*
X244921Y323038D02*
X240423Y323038D01*
X244921Y338967D02*
X244921Y349465D01*
X244921Y338967D02*
X240423Y338967D01*
X240423Y349465D01*
X244921Y349465D01*
X244921Y342324D02*
X240423Y342324D01*
X240423Y345681D02*
X244921Y345681D01*
X244921Y349038D02*
X240423Y349038D01*
X225921Y349465D02*
X225921Y338967D01*
X221423Y338967D01*
X221423Y349465D01*
X225921Y349465D01*
X225921Y342324D02*
X221423Y342324D01*
X221423Y345681D02*
X225921Y345681D01*
X225921Y349038D02*
X221423Y349038D01*
D116*
X146304Y324100D03*
X146304Y260100D03*
D107*
X63802Y28143D02*
X50998Y28143D01*
X50998Y42977D01*
X63802Y42977D01*
X63802Y28143D01*
X63802Y33111D02*
X50998Y33111D01*
X50998Y38079D02*
X63802Y38079D01*
X35362Y28143D02*
X22558Y28143D01*
X22558Y42977D01*
X35362Y42977D01*
X35362Y28143D01*
X35362Y33111D02*
X22558Y33111D01*
X22558Y38079D02*
X35362Y38079D01*
D105*
X84289Y346759D02*
X91979Y346759D01*
X84289Y346759D02*
X84289Y354449D01*
X91979Y354449D01*
X91979Y346759D01*
X91979Y351835D02*
X84289Y351835D01*
X104289Y346759D02*
X111979Y346759D01*
X104289Y346759D02*
X104289Y354449D01*
X111979Y354449D01*
X111979Y346759D01*
X111979Y351835D02*
X104289Y351835D01*
X103197Y492825D02*
X103197Y500515D01*
X103197Y492825D02*
X95507Y492825D01*
X95507Y500515D01*
X103197Y500515D01*
X103197Y497901D02*
X95507Y497901D01*
X103197Y512825D02*
X103197Y520515D01*
X103197Y512825D02*
X95507Y512825D01*
X95507Y520515D01*
X103197Y520515D01*
X103197Y517901D02*
X95507Y517901D01*
X163865Y354525D02*
X163865Y346835D01*
X156175Y346835D01*
X156175Y354525D01*
X163865Y354525D01*
X163865Y351911D02*
X156175Y351911D01*
X163865Y366835D02*
X163865Y374525D01*
X163865Y366835D02*
X156175Y366835D01*
X156175Y374525D01*
X163865Y374525D01*
X163865Y371911D02*
X156175Y371911D01*
X161153Y426169D02*
X161153Y433859D01*
X161153Y426169D02*
X153463Y426169D01*
X153463Y433859D01*
X161153Y433859D01*
X161153Y431245D02*
X153463Y431245D01*
X161153Y446169D02*
X161153Y453859D01*
X161153Y446169D02*
X153463Y446169D01*
X153463Y453859D01*
X161153Y453859D01*
X161153Y451245D02*
X153463Y451245D01*
X19717Y287935D02*
X12027Y287935D01*
X12027Y295625D01*
X19717Y295625D01*
X19717Y287935D01*
X19717Y293011D02*
X12027Y293011D01*
X32027Y287935D02*
X39717Y287935D01*
X32027Y287935D02*
X32027Y295625D01*
X39717Y295625D01*
X39717Y287935D01*
X39717Y293011D02*
X32027Y293011D01*
X32351Y332937D02*
X40041Y332937D01*
X40041Y325247D01*
X32351Y325247D01*
X32351Y332937D01*
X32351Y330323D02*
X40041Y330323D01*
X20041Y332937D02*
X12351Y332937D01*
X20041Y332937D02*
X20041Y325247D01*
X12351Y325247D01*
X12351Y332937D01*
X12351Y330323D02*
X20041Y330323D01*
X91913Y161165D02*
X91913Y153475D01*
X91913Y161165D02*
X99603Y161165D01*
X99603Y153475D01*
X91913Y153475D01*
X91913Y158551D02*
X99603Y158551D01*
X91913Y141165D02*
X91913Y133475D01*
X91913Y141165D02*
X99603Y141165D01*
X99603Y133475D01*
X91913Y133475D01*
X91913Y138551D02*
X99603Y138551D01*
X30699Y187003D02*
X30699Y194693D01*
X38389Y194693D01*
X38389Y187003D01*
X30699Y187003D01*
X30699Y192079D02*
X38389Y192079D01*
X30699Y174693D02*
X30699Y167003D01*
X30699Y174693D02*
X38389Y174693D01*
X38389Y167003D01*
X30699Y167003D01*
X30699Y172079D02*
X38389Y172079D01*
X30699Y224849D02*
X30699Y232539D01*
X38389Y232539D01*
X38389Y224849D01*
X30699Y224849D01*
X30699Y229925D02*
X38389Y229925D01*
X30699Y212539D02*
X30699Y204849D01*
X30699Y212539D02*
X38389Y212539D01*
X38389Y204849D01*
X30699Y204849D01*
X30699Y209925D02*
X38389Y209925D01*
X130869Y160817D02*
X138559Y160817D01*
X138559Y153127D01*
X130869Y153127D01*
X130869Y160817D01*
X130869Y158203D02*
X138559Y158203D01*
X118559Y160817D02*
X110869Y160817D01*
X118559Y160817D02*
X118559Y153127D01*
X110869Y153127D01*
X110869Y160817D01*
X110869Y158203D02*
X118559Y158203D01*
D117*
X193294Y226568D03*
X167894Y201168D03*
X193294Y175768D03*
D105*
X122877Y134331D02*
X115187Y134331D01*
X115187Y142021D01*
X122877Y142021D01*
X122877Y134331D01*
X122877Y139407D02*
X115187Y139407D01*
X135187Y134331D02*
X142877Y134331D01*
X135187Y134331D02*
X135187Y142021D01*
X142877Y142021D01*
X142877Y134331D01*
X142877Y139407D02*
X135187Y139407D01*
X173033Y142783D02*
X180723Y142783D01*
X180723Y135093D01*
X173033Y135093D01*
X173033Y142783D01*
X173033Y140169D02*
X180723Y140169D01*
X160723Y142783D02*
X153033Y142783D01*
X160723Y142783D02*
X160723Y135093D01*
X153033Y135093D01*
X153033Y142783D01*
X153033Y140169D02*
X160723Y140169D01*
X189609Y135601D02*
X197299Y135601D01*
X189609Y135601D02*
X189609Y143291D01*
X197299Y143291D01*
X197299Y135601D01*
X197299Y140677D02*
X189609Y140677D01*
X209609Y135601D02*
X217299Y135601D01*
X209609Y135601D02*
X209609Y143291D01*
X217299Y143291D01*
X217299Y135601D01*
X217299Y140677D02*
X209609Y140677D01*
X102651Y20769D02*
X102651Y13079D01*
X94961Y13079D01*
X94961Y20769D01*
X102651Y20769D01*
X102651Y18155D02*
X94961Y18155D01*
X102651Y33079D02*
X102651Y40769D01*
X102651Y33079D02*
X94961Y33079D01*
X94961Y40769D01*
X102651Y40769D01*
X102651Y38155D02*
X94961Y38155D01*
X42105Y12665D02*
X34415Y12665D01*
X34415Y20355D01*
X42105Y20355D01*
X42105Y12665D01*
X42105Y17741D02*
X34415Y17741D01*
X54415Y12665D02*
X62105Y12665D01*
X54415Y12665D02*
X54415Y20355D01*
X62105Y20355D01*
X62105Y12665D01*
X62105Y17741D02*
X54415Y17741D01*
X248447Y420495D02*
X248447Y428185D01*
X248447Y420495D02*
X240757Y420495D01*
X240757Y428185D01*
X248447Y428185D01*
X248447Y425571D02*
X240757Y425571D01*
X248447Y440495D02*
X248447Y448185D01*
X248447Y440495D02*
X240757Y440495D01*
X240757Y448185D01*
X248447Y448185D01*
X248447Y445571D02*
X240757Y445571D01*
X231683Y428185D02*
X231683Y420495D01*
X223993Y420495D01*
X223993Y428185D01*
X231683Y428185D01*
X231683Y425571D02*
X223993Y425571D01*
X231683Y440495D02*
X231683Y448185D01*
X231683Y440495D02*
X223993Y440495D01*
X223993Y448185D01*
X231683Y448185D01*
X231683Y445571D02*
X223993Y445571D01*
D117*
X22914Y443020D03*
X22914Y403020D03*
X22914Y383020D03*
X22914Y463020D03*
D114*
X138321Y461645D02*
X138321Y451147D01*
X138321Y461645D02*
X142819Y461645D01*
X142819Y451147D01*
X138321Y451147D01*
X138321Y454504D02*
X142819Y454504D01*
X142819Y457861D02*
X138321Y457861D01*
X138321Y461218D02*
X142819Y461218D01*
X128821Y461645D02*
X128821Y451147D01*
X128821Y461645D02*
X133319Y461645D01*
X133319Y451147D01*
X128821Y451147D01*
X128821Y454504D02*
X133319Y454504D01*
X133319Y457861D02*
X128821Y457861D01*
X128821Y461218D02*
X133319Y461218D01*
X119321Y461645D02*
X119321Y451147D01*
X119321Y461645D02*
X123819Y461645D01*
X123819Y451147D01*
X119321Y451147D01*
X119321Y454504D02*
X123819Y454504D01*
X123819Y457861D02*
X119321Y457861D01*
X119321Y461218D02*
X123819Y461218D01*
X119321Y435645D02*
X119321Y425147D01*
X119321Y435645D02*
X123819Y435645D01*
X123819Y425147D01*
X119321Y425147D01*
X119321Y428504D02*
X123819Y428504D01*
X123819Y431861D02*
X119321Y431861D01*
X119321Y435218D02*
X123819Y435218D01*
X128821Y435645D02*
X128821Y425147D01*
X128821Y435645D02*
X133319Y435645D01*
X133319Y425147D01*
X128821Y425147D01*
X128821Y428504D02*
X133319Y428504D01*
X133319Y431861D02*
X128821Y431861D01*
X128821Y435218D02*
X133319Y435218D01*
X138321Y435645D02*
X138321Y425147D01*
X138321Y435645D02*
X142819Y435645D01*
X142819Y425147D01*
X138321Y425147D01*
X138321Y428504D02*
X142819Y428504D01*
X142819Y431861D02*
X138321Y431861D01*
X138321Y435218D02*
X142819Y435218D01*
D109*
X158138Y392352D02*
X165250Y392352D01*
X158138Y392352D02*
X158138Y396164D01*
X165250Y396164D01*
X165250Y392352D01*
X165250Y411352D02*
X158138Y411352D01*
X158138Y415164D01*
X165250Y415164D01*
X165250Y411352D01*
X146050Y405664D02*
X138938Y405664D01*
X146050Y405664D02*
X146050Y401852D01*
X138938Y401852D01*
X138938Y405664D01*
D118*
X276860Y355600D03*
X276860Y177800D03*
X276860Y330200D03*
X276860Y203200D03*
X276860Y304800D03*
X276860Y406400D03*
X276860Y279400D03*
D105*
X20003Y342373D02*
X12313Y342373D01*
X12313Y350063D01*
X20003Y350063D01*
X20003Y342373D01*
X20003Y347449D02*
X12313Y347449D01*
X32313Y342373D02*
X40003Y342373D01*
X32313Y342373D02*
X32313Y350063D01*
X40003Y350063D01*
X40003Y342373D01*
X40003Y347449D02*
X32313Y347449D01*
D119*
X233698Y471604D03*
D120*
X213498Y471604D03*
D121*
X201198Y471604D03*
D119*
X223698Y471604D03*
D120*
X243898Y471604D03*
D121*
X256198Y471604D03*
D122*
X271898Y466864D02*
X271898Y477944D01*
X185498Y477944D02*
X185498Y466864D01*
X185498Y504864D02*
X185498Y515944D01*
X271898Y515944D02*
X271898Y504864D01*
D105*
X43309Y123733D02*
X35619Y123733D01*
X43309Y123733D02*
X43309Y116043D01*
X35619Y116043D01*
X35619Y123733D01*
X35619Y121119D02*
X43309Y121119D01*
X23309Y123733D02*
X15619Y123733D01*
X23309Y123733D02*
X23309Y116043D01*
X15619Y116043D01*
X15619Y123733D01*
X15619Y121119D02*
X23309Y121119D01*
D106*
X22352Y88646D03*
X22352Y63246D03*
D123*
X165100Y116078D03*
X190500Y116078D03*
X215900Y116078D03*
D105*
X38319Y96903D02*
X38319Y89213D01*
X38319Y96903D02*
X46009Y96903D01*
X46009Y89213D01*
X38319Y89213D01*
X38319Y94289D02*
X46009Y94289D01*
X38319Y76903D02*
X38319Y69213D01*
X38319Y76903D02*
X46009Y76903D01*
X46009Y69213D01*
X38319Y69213D01*
X38319Y74289D02*
X46009Y74289D01*
X54067Y80577D02*
X54067Y88267D01*
X61757Y88267D01*
X61757Y80577D01*
X54067Y80577D01*
X54067Y85653D02*
X61757Y85653D01*
X54067Y68267D02*
X54067Y60577D01*
X54067Y68267D02*
X61757Y68267D01*
X61757Y60577D01*
X54067Y60577D01*
X54067Y65653D02*
X61757Y65653D01*
D108*
X34521Y134119D02*
X11295Y134119D01*
X11295Y149345D01*
X34521Y149345D01*
X34521Y134119D01*
X34521Y137735D02*
X11295Y137735D01*
X11295Y141351D02*
X34521Y141351D01*
X34521Y144967D02*
X11295Y144967D01*
X11295Y148583D02*
X34521Y148583D01*
X55395Y134119D02*
X78621Y134119D01*
X55395Y134119D02*
X55395Y149345D01*
X78621Y149345D01*
X78621Y134119D01*
X78621Y137735D02*
X55395Y137735D01*
X55395Y141351D02*
X78621Y141351D01*
X78621Y144967D02*
X55395Y144967D01*
X55395Y148583D02*
X78621Y148583D01*
D124*
X241046Y77578D03*
X241046Y27578D03*
D118*
X276860Y381000D03*
D105*
X263433Y109669D02*
X263433Y101979D01*
X255743Y101979D01*
X255743Y109669D01*
X263433Y109669D01*
X263433Y107055D02*
X255743Y107055D01*
X263433Y121979D02*
X263433Y129669D01*
X263433Y121979D02*
X255743Y121979D01*
X255743Y129669D01*
X263433Y129669D01*
X263433Y127055D02*
X255743Y127055D01*
X263433Y137539D02*
X263433Y145229D01*
X263433Y137539D02*
X255743Y137539D01*
X255743Y145229D01*
X263433Y145229D01*
X263433Y142615D02*
X255743Y142615D01*
X263433Y157539D02*
X263433Y165229D01*
X263433Y157539D02*
X255743Y157539D01*
X255743Y165229D01*
X263433Y165229D01*
X263433Y162615D02*
X255743Y162615D01*
X40007Y273847D02*
X32317Y273847D01*
X40007Y273847D02*
X40007Y266157D01*
X32317Y266157D01*
X32317Y273847D01*
X32317Y271233D02*
X40007Y271233D01*
X20007Y273847D02*
X12317Y273847D01*
X20007Y273847D02*
X20007Y266157D01*
X12317Y266157D01*
X12317Y273847D01*
X12317Y271233D02*
X20007Y271233D01*
X20007Y249139D02*
X12317Y249139D01*
X12317Y256829D01*
X20007Y256829D01*
X20007Y249139D01*
X20007Y254215D02*
X12317Y254215D01*
X32317Y249139D02*
X40007Y249139D01*
X32317Y249139D02*
X32317Y256829D01*
X40007Y256829D01*
X40007Y249139D01*
X40007Y254215D02*
X32317Y254215D01*
D118*
X276860Y431800D03*
D106*
X465582Y488950D03*
X490982Y488950D03*
X516382Y488950D03*
X541782Y488950D03*
D125*
X351282Y501650D03*
X656082Y216650D03*
D107*
X481386Y521513D02*
X468582Y521513D01*
X481386Y521513D02*
X481386Y506679D01*
X468582Y506679D01*
X468582Y521513D01*
X468582Y511647D02*
X481386Y511647D01*
X481386Y516615D02*
X468582Y516615D01*
X497022Y521513D02*
X509826Y521513D01*
X509826Y506679D01*
X497022Y506679D01*
X497022Y521513D01*
X497022Y511647D02*
X509826Y511647D01*
X509826Y516615D02*
X497022Y516615D01*
D105*
X542603Y470697D02*
X550293Y470697D01*
X550293Y463007D01*
X542603Y463007D01*
X542603Y470697D01*
X542603Y468083D02*
X550293Y468083D01*
X530293Y470697D02*
X522603Y470697D01*
X530293Y470697D02*
X530293Y463007D01*
X522603Y463007D01*
X522603Y470697D01*
X522603Y468083D02*
X530293Y468083D01*
X527617Y449107D02*
X535307Y449107D01*
X535307Y441417D01*
X527617Y441417D01*
X527617Y449107D01*
X527617Y446493D02*
X535307Y446493D01*
X515307Y449107D02*
X507617Y449107D01*
X515307Y449107D02*
X515307Y441417D01*
X507617Y441417D01*
X507617Y449107D01*
X507617Y446493D02*
X515307Y446493D01*
X592387Y519465D02*
X600077Y519465D01*
X600077Y511775D01*
X592387Y511775D01*
X592387Y519465D01*
X592387Y516851D02*
X600077Y516851D01*
X580077Y519465D02*
X572387Y519465D01*
X580077Y519465D02*
X580077Y511775D01*
X572387Y511775D01*
X572387Y519465D01*
X572387Y516851D02*
X580077Y516851D01*
X592387Y502955D02*
X600077Y502955D01*
X600077Y495265D01*
X592387Y495265D01*
X592387Y502955D01*
X592387Y500341D02*
X600077Y500341D01*
X580077Y502955D02*
X572387Y502955D01*
X580077Y502955D02*
X580077Y495265D01*
X572387Y495265D01*
X572387Y502955D01*
X572387Y500341D02*
X580077Y500341D01*
X492955Y462753D02*
X485265Y462753D01*
X485265Y470443D01*
X492955Y470443D01*
X492955Y462753D01*
X492955Y467829D02*
X485265Y467829D01*
X505265Y462753D02*
X512955Y462753D01*
X505265Y462753D02*
X505265Y470443D01*
X512955Y470443D01*
X512955Y462753D01*
X512955Y467829D02*
X505265Y467829D01*
D118*
X276860Y254000D03*
D126*
X574024Y425196D03*
X622824Y425196D03*
D105*
X601945Y476563D02*
X601945Y484253D01*
X609635Y484253D01*
X609635Y476563D01*
X601945Y476563D01*
X601945Y481639D02*
X609635Y481639D01*
X601945Y464253D02*
X601945Y456563D01*
X601945Y464253D02*
X609635Y464253D01*
X609635Y456563D01*
X601945Y456563D01*
X601945Y461639D02*
X609635Y461639D01*
X582387Y476563D02*
X582387Y484253D01*
X590077Y484253D01*
X590077Y476563D01*
X582387Y476563D01*
X582387Y481639D02*
X590077Y481639D01*
X582387Y464253D02*
X582387Y456563D01*
X582387Y464253D02*
X590077Y464253D01*
X590077Y456563D01*
X582387Y456563D01*
X582387Y461639D02*
X590077Y461639D01*
X421675Y332173D02*
X421675Y324483D01*
X413985Y324483D01*
X413985Y332173D01*
X421675Y332173D01*
X421675Y329559D02*
X413985Y329559D01*
X421675Y344483D02*
X421675Y352173D01*
X421675Y344483D02*
X413985Y344483D01*
X413985Y352173D01*
X421675Y352173D01*
X421675Y349559D02*
X413985Y349559D01*
X567401Y342013D02*
X567401Y334323D01*
X567401Y342013D02*
X575091Y342013D01*
X575091Y334323D01*
X567401Y334323D01*
X567401Y339399D02*
X575091Y339399D01*
X567401Y322013D02*
X567401Y314323D01*
X567401Y322013D02*
X575091Y322013D01*
X575091Y314323D01*
X567401Y314323D01*
X567401Y319399D02*
X575091Y319399D01*
X496445Y445805D02*
X488755Y445805D01*
X496445Y445805D02*
X496445Y438115D01*
X488755Y438115D01*
X488755Y445805D01*
X488755Y443191D02*
X496445Y443191D01*
X476445Y445805D02*
X468755Y445805D01*
X476445Y445805D02*
X476445Y438115D01*
X468755Y438115D01*
X468755Y445805D01*
X468755Y443191D02*
X476445Y443191D01*
X361129Y281143D02*
X353439Y281143D01*
X353439Y288833D01*
X361129Y288833D01*
X361129Y281143D01*
X361129Y286219D02*
X353439Y286219D01*
X373439Y281143D02*
X381129Y281143D01*
X373439Y281143D02*
X373439Y288833D01*
X381129Y288833D01*
X381129Y281143D01*
X381129Y286219D02*
X373439Y286219D01*
X371477Y262671D02*
X363787Y262671D01*
X371477Y262671D02*
X371477Y254981D01*
X363787Y254981D01*
X363787Y262671D01*
X363787Y260057D02*
X371477Y260057D01*
X351477Y262671D02*
X343787Y262671D01*
X351477Y262671D02*
X351477Y254981D01*
X343787Y254981D01*
X343787Y262671D01*
X343787Y260057D02*
X351477Y260057D01*
X429987Y333053D02*
X429987Y340743D01*
X437677Y340743D01*
X437677Y333053D01*
X429987Y333053D01*
X429987Y338129D02*
X437677Y338129D01*
X429987Y320743D02*
X429987Y313053D01*
X429987Y320743D02*
X437677Y320743D01*
X437677Y313053D01*
X429987Y313053D01*
X429987Y318129D02*
X437677Y318129D01*
D127*
X531388Y376032D02*
X535532Y376032D01*
X535532Y362688D01*
X531388Y362688D01*
X531388Y376032D01*
X531388Y365908D02*
X535532Y365908D01*
X535532Y369128D02*
X531388Y369128D01*
X531388Y372348D02*
X535532Y372348D01*
X535532Y375568D02*
X531388Y375568D01*
X527532Y376032D02*
X523388Y376032D01*
X527532Y376032D02*
X527532Y362688D01*
X523388Y362688D01*
X523388Y376032D01*
X523388Y365908D02*
X527532Y365908D01*
X527532Y369128D02*
X523388Y369128D01*
X523388Y372348D02*
X527532Y372348D01*
X527532Y375568D02*
X523388Y375568D01*
X519532Y376032D02*
X515388Y376032D01*
X519532Y376032D02*
X519532Y362688D01*
X515388Y362688D01*
X515388Y376032D01*
X515388Y365908D02*
X519532Y365908D01*
X519532Y369128D02*
X515388Y369128D01*
X515388Y372348D02*
X519532Y372348D01*
X519532Y375568D02*
X515388Y375568D01*
X511532Y376032D02*
X507388Y376032D01*
X511532Y376032D02*
X511532Y362688D01*
X507388Y362688D01*
X507388Y376032D01*
X507388Y365908D02*
X511532Y365908D01*
X511532Y369128D02*
X507388Y369128D01*
X507388Y372348D02*
X511532Y372348D01*
X511532Y375568D02*
X507388Y375568D01*
X503532Y376032D02*
X499388Y376032D01*
X503532Y376032D02*
X503532Y362688D01*
X499388Y362688D01*
X499388Y376032D01*
X499388Y365908D02*
X503532Y365908D01*
X503532Y369128D02*
X499388Y369128D01*
X499388Y372348D02*
X503532Y372348D01*
X503532Y375568D02*
X499388Y375568D01*
X495532Y376032D02*
X491388Y376032D01*
X495532Y376032D02*
X495532Y362688D01*
X491388Y362688D01*
X491388Y376032D01*
X491388Y365908D02*
X495532Y365908D01*
X495532Y369128D02*
X491388Y369128D01*
X491388Y372348D02*
X495532Y372348D01*
X495532Y375568D02*
X491388Y375568D01*
X487532Y376032D02*
X483388Y376032D01*
X487532Y376032D02*
X487532Y362688D01*
X483388Y362688D01*
X483388Y376032D01*
X483388Y365908D02*
X487532Y365908D01*
X487532Y369128D02*
X483388Y369128D01*
X483388Y372348D02*
X487532Y372348D01*
X487532Y375568D02*
X483388Y375568D01*
X479532Y376032D02*
X475388Y376032D01*
X479532Y376032D02*
X479532Y362688D01*
X475388Y362688D01*
X475388Y376032D01*
X475388Y365908D02*
X479532Y365908D01*
X479532Y369128D02*
X475388Y369128D01*
X475388Y372348D02*
X479532Y372348D01*
X479532Y375568D02*
X475388Y375568D01*
X475388Y292632D02*
X479532Y292632D01*
X479532Y279288D01*
X475388Y279288D01*
X475388Y292632D01*
X475388Y282508D02*
X479532Y282508D01*
X479532Y285728D02*
X475388Y285728D01*
X475388Y288948D02*
X479532Y288948D01*
X479532Y292168D02*
X475388Y292168D01*
X483388Y292632D02*
X487532Y292632D01*
X487532Y279288D01*
X483388Y279288D01*
X483388Y292632D01*
X483388Y282508D02*
X487532Y282508D01*
X487532Y285728D02*
X483388Y285728D01*
X483388Y288948D02*
X487532Y288948D01*
X487532Y292168D02*
X483388Y292168D01*
X491388Y292632D02*
X495532Y292632D01*
X495532Y279288D01*
X491388Y279288D01*
X491388Y292632D01*
X491388Y282508D02*
X495532Y282508D01*
X495532Y285728D02*
X491388Y285728D01*
X491388Y288948D02*
X495532Y288948D01*
X495532Y292168D02*
X491388Y292168D01*
X499388Y292632D02*
X503532Y292632D01*
X503532Y279288D01*
X499388Y279288D01*
X499388Y292632D01*
X499388Y282508D02*
X503532Y282508D01*
X503532Y285728D02*
X499388Y285728D01*
X499388Y288948D02*
X503532Y288948D01*
X503532Y292168D02*
X499388Y292168D01*
X507388Y292632D02*
X511532Y292632D01*
X511532Y279288D01*
X507388Y279288D01*
X507388Y292632D01*
X507388Y282508D02*
X511532Y282508D01*
X511532Y285728D02*
X507388Y285728D01*
X507388Y288948D02*
X511532Y288948D01*
X511532Y292168D02*
X507388Y292168D01*
X515388Y292632D02*
X519532Y292632D01*
X519532Y279288D01*
X515388Y279288D01*
X515388Y292632D01*
X515388Y282508D02*
X519532Y282508D01*
X519532Y285728D02*
X515388Y285728D01*
X515388Y288948D02*
X519532Y288948D01*
X519532Y292168D02*
X515388Y292168D01*
X523388Y292632D02*
X527532Y292632D01*
X527532Y279288D01*
X523388Y279288D01*
X523388Y292632D01*
X523388Y282508D02*
X527532Y282508D01*
X527532Y285728D02*
X523388Y285728D01*
X523388Y288948D02*
X527532Y288948D01*
X527532Y292168D02*
X523388Y292168D01*
X531388Y292632D02*
X535532Y292632D01*
X535532Y279288D01*
X531388Y279288D01*
X531388Y292632D01*
X531388Y282508D02*
X535532Y282508D01*
X535532Y285728D02*
X531388Y285728D01*
X531388Y288948D02*
X535532Y288948D01*
X535532Y292168D02*
X531388Y292168D01*
X540488Y301732D02*
X553832Y301732D01*
X553832Y297588D01*
X540488Y297588D01*
X540488Y301732D01*
X540488Y300808D02*
X553832Y300808D01*
X553832Y309732D02*
X540488Y309732D01*
X553832Y309732D02*
X553832Y305588D01*
X540488Y305588D01*
X540488Y309732D01*
X540488Y308808D02*
X553832Y308808D01*
X553832Y317732D02*
X540488Y317732D01*
X553832Y317732D02*
X553832Y313588D01*
X540488Y313588D01*
X540488Y317732D01*
X540488Y316808D02*
X553832Y316808D01*
X553832Y325732D02*
X540488Y325732D01*
X553832Y325732D02*
X553832Y321588D01*
X540488Y321588D01*
X540488Y325732D01*
X540488Y324808D02*
X553832Y324808D01*
X553832Y333732D02*
X540488Y333732D01*
X553832Y333732D02*
X553832Y329588D01*
X540488Y329588D01*
X540488Y333732D01*
X540488Y332808D02*
X553832Y332808D01*
X553832Y341732D02*
X540488Y341732D01*
X553832Y341732D02*
X553832Y337588D01*
X540488Y337588D01*
X540488Y341732D01*
X540488Y340808D02*
X553832Y340808D01*
X553832Y349732D02*
X540488Y349732D01*
X553832Y349732D02*
X553832Y345588D01*
X540488Y345588D01*
X540488Y349732D01*
X540488Y348808D02*
X553832Y348808D01*
X553832Y357732D02*
X540488Y357732D01*
X553832Y357732D02*
X553832Y353588D01*
X540488Y353588D01*
X540488Y357732D01*
X540488Y356808D02*
X553832Y356808D01*
X470432Y357732D02*
X457088Y357732D01*
X470432Y357732D02*
X470432Y353588D01*
X457088Y353588D01*
X457088Y357732D01*
X457088Y356808D02*
X470432Y356808D01*
X470432Y349732D02*
X457088Y349732D01*
X470432Y349732D02*
X470432Y345588D01*
X457088Y345588D01*
X457088Y349732D01*
X457088Y348808D02*
X470432Y348808D01*
X470432Y341732D02*
X457088Y341732D01*
X470432Y341732D02*
X470432Y337588D01*
X457088Y337588D01*
X457088Y341732D01*
X457088Y340808D02*
X470432Y340808D01*
X470432Y333732D02*
X457088Y333732D01*
X470432Y333732D02*
X470432Y329588D01*
X457088Y329588D01*
X457088Y333732D01*
X457088Y332808D02*
X470432Y332808D01*
X470432Y325732D02*
X457088Y325732D01*
X470432Y325732D02*
X470432Y321588D01*
X457088Y321588D01*
X457088Y325732D01*
X457088Y324808D02*
X470432Y324808D01*
X470432Y317732D02*
X457088Y317732D01*
X470432Y317732D02*
X470432Y313588D01*
X457088Y313588D01*
X457088Y317732D01*
X457088Y316808D02*
X470432Y316808D01*
X470432Y309732D02*
X457088Y309732D01*
X470432Y309732D02*
X470432Y305588D01*
X457088Y305588D01*
X457088Y309732D01*
X457088Y308808D02*
X470432Y308808D01*
X470432Y301732D02*
X457088Y301732D01*
X470432Y301732D02*
X470432Y297588D01*
X457088Y297588D01*
X457088Y301732D01*
X457088Y300808D02*
X470432Y300808D01*
D106*
X582500Y288651D03*
X557500Y245349D03*
D109*
X641374Y289104D02*
X641374Y296216D01*
X645186Y296216D01*
X645186Y289104D01*
X641374Y289104D01*
X641374Y295013D02*
X645186Y295013D01*
X660374Y296216D02*
X660374Y289104D01*
X660374Y296216D02*
X664186Y296216D01*
X664186Y289104D01*
X660374Y289104D01*
X660374Y295013D02*
X664186Y295013D01*
X654686Y308304D02*
X654686Y315416D01*
X654686Y308304D02*
X650874Y308304D01*
X650874Y315416D01*
X654686Y315416D01*
X654686Y314213D02*
X650874Y314213D01*
D105*
X620995Y333815D02*
X620995Y341505D01*
X628685Y341505D01*
X628685Y333815D01*
X620995Y333815D01*
X620995Y338891D02*
X628685Y338891D01*
X620995Y321505D02*
X620995Y313815D01*
X620995Y321505D02*
X628685Y321505D01*
X628685Y313815D01*
X620995Y313815D01*
X620995Y318891D02*
X628685Y318891D01*
D106*
X398018Y514096D03*
X448818Y514096D03*
D109*
X420318Y468908D02*
X413206Y468908D01*
X413206Y472720D01*
X420318Y472720D01*
X420318Y468908D01*
X420318Y487908D02*
X413206Y487908D01*
X413206Y491720D01*
X420318Y491720D01*
X420318Y487908D01*
X401118Y482220D02*
X394006Y482220D01*
X401118Y482220D02*
X401118Y478408D01*
X394006Y478408D01*
X394006Y482220D01*
D107*
X374701Y468170D02*
X374701Y455366D01*
X359867Y455366D01*
X359867Y468170D01*
X374701Y468170D01*
X374701Y460334D02*
X359867Y460334D01*
X359867Y465302D02*
X374701Y465302D01*
X374701Y439730D02*
X374701Y426926D01*
X359867Y426926D01*
X359867Y439730D01*
X374701Y439730D01*
X374701Y431894D02*
X359867Y431894D01*
X359867Y436862D02*
X374701Y436862D01*
D105*
X445805Y468755D02*
X445805Y476445D01*
X445805Y468755D02*
X438115Y468755D01*
X438115Y476445D01*
X445805Y476445D01*
X445805Y473831D02*
X438115Y473831D01*
X445805Y488755D02*
X445805Y496445D01*
X445805Y488755D02*
X438115Y488755D01*
X438115Y496445D01*
X445805Y496445D01*
X445805Y493831D02*
X438115Y493831D01*
X356811Y407635D02*
X349121Y407635D01*
X349121Y415325D01*
X356811Y415325D01*
X356811Y407635D01*
X356811Y412711D02*
X349121Y412711D01*
X369121Y407635D02*
X376811Y407635D01*
X369121Y407635D02*
X369121Y415325D01*
X376811Y415325D01*
X376811Y407635D01*
X376811Y412711D02*
X369121Y412711D01*
X369121Y399069D02*
X376811Y399069D01*
X376811Y391379D01*
X369121Y391379D01*
X369121Y399069D01*
X369121Y396455D02*
X376811Y396455D01*
X356811Y399069D02*
X349121Y399069D01*
X356811Y399069D02*
X356811Y391379D01*
X349121Y391379D01*
X349121Y399069D01*
X349121Y396455D02*
X356811Y396455D01*
X592801Y342267D02*
X592801Y334577D01*
X592801Y342267D02*
X600491Y342267D01*
X600491Y334577D01*
X592801Y334577D01*
X592801Y339653D02*
X600491Y339653D01*
X592801Y322267D02*
X592801Y314577D01*
X592801Y322267D02*
X600491Y322267D01*
X600491Y314577D01*
X592801Y314577D01*
X592801Y319653D02*
X600491Y319653D01*
D107*
X476146Y228570D02*
X467092Y219516D01*
X476146Y228570D02*
X486634Y218082D01*
X477580Y209028D01*
X467092Y219516D01*
X472612Y213996D02*
X482548Y213996D01*
X485752Y218964D02*
X467644Y218964D01*
X471508Y223932D02*
X480784Y223932D01*
X487202Y239626D02*
X496256Y248680D01*
X506744Y238192D01*
X497690Y229138D01*
X487202Y239626D01*
X492722Y234106D02*
X502658Y234106D01*
X505862Y239074D02*
X487754Y239074D01*
X491618Y244042D02*
X500894Y244042D01*
X431188Y232634D02*
X422134Y223580D01*
X431188Y232634D02*
X441676Y222146D01*
X432622Y213092D01*
X422134Y223580D01*
X427654Y218060D02*
X437590Y218060D01*
X440794Y223028D02*
X422686Y223028D01*
X426550Y227996D02*
X435826Y227996D01*
X442244Y243690D02*
X451298Y252744D01*
X461786Y242256D01*
X452732Y233202D01*
X442244Y243690D01*
X447764Y238170D02*
X457700Y238170D01*
X460904Y243138D02*
X442796Y243138D01*
X446660Y248106D02*
X455936Y248106D01*
X385722Y238222D02*
X376668Y229168D01*
X385722Y238222D02*
X396210Y227734D01*
X387156Y218680D01*
X376668Y229168D01*
X382188Y223648D02*
X392124Y223648D01*
X395328Y228616D02*
X377220Y228616D01*
X381084Y233584D02*
X390360Y233584D01*
X396778Y249278D02*
X405832Y258332D01*
X416320Y247844D01*
X407266Y238790D01*
X396778Y249278D01*
X402298Y243758D02*
X412234Y243758D01*
X415438Y248726D02*
X397330Y248726D01*
X401194Y253694D02*
X410470Y253694D01*
X435252Y188438D02*
X426198Y179384D01*
X435252Y188438D02*
X445740Y177950D01*
X436686Y168896D01*
X426198Y179384D01*
X431718Y173864D02*
X441654Y173864D01*
X444858Y178832D02*
X426750Y178832D01*
X430614Y183800D02*
X439890Y183800D01*
X446308Y199494D02*
X455362Y208548D01*
X465850Y198060D01*
X456796Y189006D01*
X446308Y199494D01*
X451828Y193974D02*
X461764Y193974D01*
X464968Y198942D02*
X446860Y198942D01*
X450724Y203910D02*
X460000Y203910D01*
X387500Y189708D02*
X378446Y180654D01*
X387500Y189708D02*
X397988Y179220D01*
X388934Y170166D01*
X378446Y180654D01*
X383966Y175134D02*
X393902Y175134D01*
X397106Y180102D02*
X378998Y180102D01*
X382862Y185070D02*
X392138Y185070D01*
X398556Y200764D02*
X407610Y209818D01*
X418098Y199330D01*
X409044Y190276D01*
X398556Y200764D01*
X404076Y195244D02*
X414012Y195244D01*
X417216Y200212D02*
X399108Y200212D01*
X402972Y205180D02*
X412248Y205180D01*
X342542Y195042D02*
X333488Y185988D01*
X342542Y195042D02*
X353030Y184554D01*
X343976Y175500D01*
X333488Y185988D01*
X339008Y180468D02*
X348944Y180468D01*
X352148Y185436D02*
X334040Y185436D01*
X337904Y190404D02*
X347180Y190404D01*
X353598Y206098D02*
X362652Y215152D01*
X373140Y204664D01*
X364086Y195610D01*
X353598Y206098D01*
X359118Y200578D02*
X369054Y200578D01*
X372258Y205546D02*
X354150Y205546D01*
X358014Y210514D02*
X367290Y210514D01*
D123*
X454660Y125121D03*
X441960Y103124D03*
X429260Y81127D03*
X398780Y132080D03*
X398780Y106680D03*
X398780Y81280D03*
X342900Y125121D03*
X355600Y103124D03*
X368300Y81127D03*
D105*
X470975Y78521D02*
X478665Y78521D01*
X478665Y70831D01*
X470975Y70831D01*
X470975Y78521D01*
X470975Y75907D02*
X478665Y75907D01*
X458665Y78521D02*
X450975Y78521D01*
X458665Y78521D02*
X458665Y70831D01*
X450975Y70831D01*
X450975Y78521D01*
X450975Y75907D02*
X458665Y75907D01*
X466379Y42105D02*
X466379Y34415D01*
X458689Y34415D01*
X458689Y42105D01*
X466379Y42105D01*
X466379Y39491D02*
X458689Y39491D01*
X466379Y54415D02*
X466379Y62105D01*
X466379Y54415D02*
X458689Y54415D01*
X458689Y62105D01*
X466379Y62105D01*
X466379Y59491D02*
X458689Y59491D01*
D106*
X411480Y43180D03*
X436880Y43180D03*
D128*
X393954Y409194D03*
X419354Y409194D03*
X444754Y409194D03*
X393954Y434594D03*
X419354Y434594D03*
X444754Y434594D03*
D105*
X651315Y265465D02*
X659005Y265465D01*
X659005Y257775D01*
X651315Y257775D01*
X651315Y265465D01*
X651315Y262851D02*
X659005Y262851D01*
X639005Y265465D02*
X631315Y265465D01*
X639005Y265465D02*
X639005Y257775D01*
X631315Y257775D01*
X631315Y265465D01*
X631315Y262851D02*
X639005Y262851D01*
X613445Y224477D02*
X613445Y216787D01*
X605755Y216787D01*
X605755Y224477D01*
X613445Y224477D01*
X613445Y221863D02*
X605755Y221863D01*
X613445Y236787D02*
X613445Y244477D01*
X613445Y236787D02*
X605755Y236787D01*
X605755Y244477D01*
X613445Y244477D01*
X613445Y241863D02*
X605755Y241863D01*
X580171Y224477D02*
X580171Y216787D01*
X572481Y216787D01*
X572481Y224477D01*
X580171Y224477D01*
X580171Y221863D02*
X572481Y221863D01*
X580171Y236787D02*
X580171Y244477D01*
X580171Y236787D02*
X572481Y236787D01*
X572481Y244477D01*
X580171Y244477D01*
X580171Y241863D02*
X572481Y241863D01*
X562231Y225079D02*
X554541Y225079D01*
X562231Y225079D02*
X562231Y217389D01*
X554541Y217389D01*
X554541Y225079D01*
X554541Y222465D02*
X562231Y222465D01*
X542231Y225079D02*
X534541Y225079D01*
X542231Y225079D02*
X542231Y217389D01*
X534541Y217389D01*
X534541Y225079D01*
X534541Y222465D02*
X542231Y222465D01*
X596681Y224477D02*
X596681Y216787D01*
X588991Y216787D01*
X588991Y224477D01*
X596681Y224477D01*
X596681Y221863D02*
X588991Y221863D01*
X596681Y236787D02*
X596681Y244477D01*
X596681Y236787D02*
X588991Y236787D01*
X588991Y244477D01*
X596681Y244477D01*
X596681Y241863D02*
X588991Y241863D01*
X641315Y134749D02*
X641315Y127059D01*
X641315Y134749D02*
X649005Y134749D01*
X649005Y127059D01*
X641315Y127059D01*
X641315Y132135D02*
X649005Y132135D01*
X641315Y114749D02*
X641315Y107059D01*
X641315Y114749D02*
X649005Y114749D01*
X649005Y107059D01*
X641315Y107059D01*
X641315Y112135D02*
X649005Y112135D01*
D109*
X644168Y150928D02*
X644168Y158040D01*
X647980Y158040D01*
X647980Y150928D01*
X644168Y150928D01*
X644168Y156837D02*
X647980Y156837D01*
X663168Y158040D02*
X663168Y150928D01*
X663168Y158040D02*
X666980Y158040D01*
X666980Y150928D01*
X663168Y150928D01*
X663168Y156837D02*
X666980Y156837D01*
X657480Y170128D02*
X657480Y177240D01*
X657480Y170128D02*
X653668Y170128D01*
X653668Y177240D01*
X657480Y177240D01*
X657480Y176037D02*
X653668Y176037D01*
D105*
X661889Y134749D02*
X661889Y127059D01*
X661889Y134749D02*
X669579Y134749D01*
X669579Y127059D01*
X661889Y127059D01*
X661889Y132135D02*
X669579Y132135D01*
X661889Y114749D02*
X661889Y107059D01*
X661889Y114749D02*
X669579Y114749D01*
X669579Y107059D01*
X661889Y107059D01*
X661889Y112135D02*
X669579Y112135D01*
X512791Y186495D02*
X512791Y194185D01*
X520481Y194185D01*
X520481Y186495D01*
X512791Y186495D01*
X512791Y191571D02*
X520481Y191571D01*
X512791Y174185D02*
X512791Y166495D01*
X512791Y174185D02*
X520481Y174185D01*
X520481Y166495D01*
X512791Y166495D01*
X512791Y171571D02*
X520481Y171571D01*
X611089Y188527D02*
X611089Y196217D01*
X618779Y196217D01*
X618779Y188527D01*
X611089Y188527D01*
X611089Y193603D02*
X618779Y193603D01*
X611089Y176217D02*
X611089Y168527D01*
X611089Y176217D02*
X618779Y176217D01*
X618779Y168527D01*
X611089Y168527D01*
X611089Y173603D02*
X618779Y173603D01*
D129*
X561594Y103378D03*
D106*
X586994Y18378D03*
X536194Y18378D03*
X586994Y188378D03*
X561594Y188378D03*
X536194Y188378D03*
D109*
X509246Y41096D02*
X509246Y33984D01*
X505434Y33984D01*
X505434Y41096D01*
X509246Y41096D01*
X509246Y39893D02*
X505434Y39893D01*
X490246Y41096D02*
X490246Y33984D01*
X486434Y33984D01*
X486434Y41096D01*
X490246Y41096D01*
X490246Y39893D02*
X486434Y39893D01*
X495934Y21896D02*
X495934Y14784D01*
X495934Y21896D02*
X499746Y21896D01*
X499746Y14784D01*
X495934Y14784D01*
X495934Y20693D02*
X499746Y20693D01*
D105*
X394935Y346515D02*
X394935Y354205D01*
X402625Y354205D01*
X402625Y346515D01*
X394935Y346515D01*
X394935Y351591D02*
X402625Y351591D01*
X394935Y334205D02*
X394935Y326515D01*
X394935Y334205D02*
X402625Y334205D01*
X402625Y326515D01*
X394935Y326515D01*
X394935Y331591D02*
X402625Y331591D01*
D118*
X327660Y330200D03*
X327660Y355600D03*
X327660Y304800D03*
X327660Y406400D03*
X327660Y203200D03*
X327660Y431800D03*
D130*
X360621Y367595D02*
X360621Y350829D01*
X360621Y367595D02*
X376487Y367595D01*
X376487Y350829D01*
X360621Y350829D01*
X360621Y357922D02*
X376487Y357922D01*
X376487Y365015D02*
X360621Y365015D01*
X360621Y323795D02*
X360621Y307029D01*
X360621Y323795D02*
X376487Y323795D01*
X376487Y307029D01*
X360621Y307029D01*
X360621Y314122D02*
X376487Y314122D01*
X376487Y321215D02*
X360621Y321215D01*
D105*
X338269Y15967D02*
X330579Y15967D01*
X330579Y23657D01*
X338269Y23657D01*
X338269Y15967D01*
X338269Y21043D02*
X330579Y21043D01*
X350579Y15967D02*
X358269Y15967D01*
X350579Y15967D02*
X350579Y23657D01*
X358269Y23657D01*
X358269Y15967D01*
X358269Y21043D02*
X350579Y21043D01*
D114*
X365129Y37707D02*
X375627Y37707D01*
X375627Y33209D01*
X365129Y33209D01*
X365129Y37707D01*
X365129Y36566D02*
X375627Y36566D01*
X375627Y47207D02*
X365129Y47207D01*
X375627Y47207D02*
X375627Y42709D01*
X365129Y42709D01*
X365129Y47207D01*
X365129Y46066D02*
X375627Y46066D01*
X375627Y56707D02*
X365129Y56707D01*
X375627Y56707D02*
X375627Y52209D01*
X365129Y52209D01*
X365129Y56707D01*
X365129Y55566D02*
X375627Y55566D01*
X349627Y56707D02*
X339129Y56707D01*
X349627Y56707D02*
X349627Y52209D01*
X339129Y52209D01*
X339129Y56707D01*
X339129Y55566D02*
X349627Y55566D01*
X349627Y47207D02*
X339129Y47207D01*
X349627Y47207D02*
X349627Y42709D01*
X339129Y42709D01*
X339129Y47207D01*
X339129Y46066D02*
X349627Y46066D01*
X349627Y37707D02*
X339129Y37707D01*
X349627Y37707D02*
X349627Y33209D01*
X339129Y33209D01*
X339129Y37707D01*
X339129Y36566D02*
X349627Y36566D01*
D123*
X65278Y196342D03*
X90678Y196342D03*
X116078Y196342D03*
D106*
X227330Y267462D03*
X201930Y267462D03*
X642366Y502920D03*
X642366Y477520D03*
D105*
X110525Y435805D02*
X110525Y428115D01*
X102835Y428115D01*
X102835Y435805D01*
X110525Y435805D01*
X110525Y433191D02*
X102835Y433191D01*
X110525Y448115D02*
X110525Y455805D01*
X110525Y448115D02*
X102835Y448115D01*
X102835Y455805D01*
X110525Y455805D01*
X110525Y453191D02*
X102835Y453191D01*
D131*
X65024Y286512D03*
X185420Y151638D03*
X61722Y271018D03*
X58928Y280416D03*
X25400Y15240D03*
X122428Y351028D03*
X109728Y338328D03*
X122428Y338328D03*
X383540Y332740D03*
X377952Y379828D03*
X502920Y55880D03*
X358394Y297942D03*
X71374Y155956D03*
D132*
X85344Y145542D03*
D131*
X79756Y155702D03*
X314960Y148082D03*
X337820Y167640D03*
X375920Y144780D03*
X431800Y144780D03*
X464820Y144780D03*
X487680Y144780D03*
X566420Y459740D03*
X215900Y510540D03*
X241300Y510540D03*
X200660Y497840D03*
X256540Y492760D03*
X259080Y424180D03*
X584200Y254000D03*
X667740Y256032D03*
X350520Y431800D03*
X334792Y140908D03*
X138684Y413766D03*
X28448Y281686D03*
X92202Y217170D03*
X81788Y217932D03*
X72898Y215900D03*
X138430Y384556D03*
X46228Y315976D03*
X48260Y346710D03*
X162560Y384302D03*
X212228Y454914D03*
X207010Y448818D03*
X233680Y495300D03*
X224028Y495300D03*
X131572Y394462D03*
X177038Y429260D03*
D132*
X165862Y329692D03*
D131*
X185420Y429260D03*
D132*
X165608Y320040D03*
D131*
X181102Y436372D03*
X209550Y188468D03*
X259334Y174244D03*
X106680Y303784D03*
X29464Y242316D03*
X48768Y360172D03*
X104140Y464312D03*
X191262Y97790D03*
X259588Y93218D03*
X39370Y104394D03*
X135128Y125984D03*
X518160Y426720D03*
X513080Y307340D03*
X453390Y263144D03*
X467360Y408940D03*
X524991Y252449D03*
X638302Y278384D03*
X422148Y205740D03*
X471514Y465746D03*
X484222Y350110D03*
X484378Y14450D03*
X447802Y375412D03*
X447724Y340536D03*
X504698Y251460D03*
X502920Y419100D03*
X470154Y187960D03*
X490474Y413512D03*
X394208Y277876D03*
X408940Y271780D03*
X409194Y365760D03*
X251714Y315468D03*
X214630Y314706D03*
X525780Y307340D03*
M02*
