G04 EAGLE Gerber RS-274X export*
G75*
%MOMM*%
%FSLAX34Y34*%
%LPD*%
%INSolderpaste Bottom*%
%IPPOS*%
%AMOC8*
5,1,8,0,0,1.08239X$1,22.5*%
G01*
%ADD10C,0.030000*%


D10*
X617316Y512120D02*
X632516Y512120D01*
X632516Y506420D01*
X617316Y506420D01*
X617316Y512120D01*
X617316Y506705D02*
X632516Y506705D01*
X632516Y506990D02*
X617316Y506990D01*
X617316Y507275D02*
X632516Y507275D01*
X632516Y507560D02*
X617316Y507560D01*
X617316Y507845D02*
X632516Y507845D01*
X632516Y508130D02*
X617316Y508130D01*
X617316Y508415D02*
X632516Y508415D01*
X632516Y508700D02*
X617316Y508700D01*
X617316Y508985D02*
X632516Y508985D01*
X632516Y509270D02*
X617316Y509270D01*
X617316Y509555D02*
X632516Y509555D01*
X632516Y509840D02*
X617316Y509840D01*
X617316Y510125D02*
X632516Y510125D01*
X632516Y510410D02*
X617316Y510410D01*
X617316Y510695D02*
X632516Y510695D01*
X632516Y510980D02*
X617316Y510980D01*
X617316Y511265D02*
X632516Y511265D01*
X632516Y511550D02*
X617316Y511550D01*
X617316Y511835D02*
X632516Y511835D01*
X632516Y512120D02*
X617316Y512120D01*
X617316Y499420D02*
X632516Y499420D01*
X632516Y493720D01*
X617316Y493720D01*
X617316Y499420D01*
X617316Y494005D02*
X632516Y494005D01*
X632516Y494290D02*
X617316Y494290D01*
X617316Y494575D02*
X632516Y494575D01*
X632516Y494860D02*
X617316Y494860D01*
X617316Y495145D02*
X632516Y495145D01*
X632516Y495430D02*
X617316Y495430D01*
X617316Y495715D02*
X632516Y495715D01*
X632516Y496000D02*
X617316Y496000D01*
X617316Y496285D02*
X632516Y496285D01*
X632516Y496570D02*
X617316Y496570D01*
X617316Y496855D02*
X632516Y496855D01*
X632516Y497140D02*
X617316Y497140D01*
X617316Y497425D02*
X632516Y497425D01*
X632516Y497710D02*
X617316Y497710D01*
X617316Y497995D02*
X632516Y497995D01*
X632516Y498280D02*
X617316Y498280D01*
X617316Y498565D02*
X632516Y498565D01*
X632516Y498850D02*
X617316Y498850D01*
X617316Y499135D02*
X632516Y499135D01*
X632516Y499420D02*
X617316Y499420D01*
X617316Y486720D02*
X632516Y486720D01*
X632516Y481020D01*
X617316Y481020D01*
X617316Y486720D01*
X617316Y481305D02*
X632516Y481305D01*
X632516Y481590D02*
X617316Y481590D01*
X617316Y481875D02*
X632516Y481875D01*
X632516Y482160D02*
X617316Y482160D01*
X617316Y482445D02*
X632516Y482445D01*
X632516Y482730D02*
X617316Y482730D01*
X617316Y483015D02*
X632516Y483015D01*
X632516Y483300D02*
X617316Y483300D01*
X617316Y483585D02*
X632516Y483585D01*
X632516Y483870D02*
X617316Y483870D01*
X617316Y484155D02*
X632516Y484155D01*
X632516Y484440D02*
X617316Y484440D01*
X617316Y484725D02*
X632516Y484725D01*
X632516Y485010D02*
X617316Y485010D01*
X617316Y485295D02*
X632516Y485295D01*
X632516Y485580D02*
X617316Y485580D01*
X617316Y485865D02*
X632516Y485865D01*
X632516Y486150D02*
X617316Y486150D01*
X617316Y486435D02*
X632516Y486435D01*
X632516Y486720D02*
X617316Y486720D01*
X617316Y474020D02*
X632516Y474020D01*
X632516Y468320D01*
X617316Y468320D01*
X617316Y474020D01*
X617316Y468605D02*
X632516Y468605D01*
X632516Y468890D02*
X617316Y468890D01*
X617316Y469175D02*
X632516Y469175D01*
X632516Y469460D02*
X617316Y469460D01*
X617316Y469745D02*
X632516Y469745D01*
X632516Y470030D02*
X617316Y470030D01*
X617316Y470315D02*
X632516Y470315D01*
X632516Y470600D02*
X617316Y470600D01*
X617316Y470885D02*
X632516Y470885D01*
X632516Y471170D02*
X617316Y471170D01*
X617316Y471455D02*
X632516Y471455D01*
X632516Y471740D02*
X617316Y471740D01*
X617316Y472025D02*
X632516Y472025D01*
X632516Y472310D02*
X617316Y472310D01*
X617316Y472595D02*
X632516Y472595D01*
X632516Y472880D02*
X617316Y472880D01*
X617316Y473165D02*
X632516Y473165D01*
X632516Y473450D02*
X617316Y473450D01*
X617316Y473735D02*
X632516Y473735D01*
X632516Y474020D02*
X617316Y474020D01*
X578516Y474020D02*
X563316Y474020D01*
X578516Y474020D02*
X578516Y468320D01*
X563316Y468320D01*
X563316Y474020D01*
X563316Y468605D02*
X578516Y468605D01*
X578516Y468890D02*
X563316Y468890D01*
X563316Y469175D02*
X578516Y469175D01*
X578516Y469460D02*
X563316Y469460D01*
X563316Y469745D02*
X578516Y469745D01*
X578516Y470030D02*
X563316Y470030D01*
X563316Y470315D02*
X578516Y470315D01*
X578516Y470600D02*
X563316Y470600D01*
X563316Y470885D02*
X578516Y470885D01*
X578516Y471170D02*
X563316Y471170D01*
X563316Y471455D02*
X578516Y471455D01*
X578516Y471740D02*
X563316Y471740D01*
X563316Y472025D02*
X578516Y472025D01*
X578516Y472310D02*
X563316Y472310D01*
X563316Y472595D02*
X578516Y472595D01*
X578516Y472880D02*
X563316Y472880D01*
X563316Y473165D02*
X578516Y473165D01*
X578516Y473450D02*
X563316Y473450D01*
X563316Y473735D02*
X578516Y473735D01*
X578516Y474020D02*
X563316Y474020D01*
X563316Y486720D02*
X578516Y486720D01*
X578516Y481020D01*
X563316Y481020D01*
X563316Y486720D01*
X563316Y481305D02*
X578516Y481305D01*
X578516Y481590D02*
X563316Y481590D01*
X563316Y481875D02*
X578516Y481875D01*
X578516Y482160D02*
X563316Y482160D01*
X563316Y482445D02*
X578516Y482445D01*
X578516Y482730D02*
X563316Y482730D01*
X563316Y483015D02*
X578516Y483015D01*
X578516Y483300D02*
X563316Y483300D01*
X563316Y483585D02*
X578516Y483585D01*
X578516Y483870D02*
X563316Y483870D01*
X563316Y484155D02*
X578516Y484155D01*
X578516Y484440D02*
X563316Y484440D01*
X563316Y484725D02*
X578516Y484725D01*
X578516Y485010D02*
X563316Y485010D01*
X563316Y485295D02*
X578516Y485295D01*
X578516Y485580D02*
X563316Y485580D01*
X563316Y485865D02*
X578516Y485865D01*
X578516Y486150D02*
X563316Y486150D01*
X563316Y486435D02*
X578516Y486435D01*
X578516Y486720D02*
X563316Y486720D01*
X563316Y499420D02*
X578516Y499420D01*
X578516Y493720D01*
X563316Y493720D01*
X563316Y499420D01*
X563316Y494005D02*
X578516Y494005D01*
X578516Y494290D02*
X563316Y494290D01*
X563316Y494575D02*
X578516Y494575D01*
X578516Y494860D02*
X563316Y494860D01*
X563316Y495145D02*
X578516Y495145D01*
X578516Y495430D02*
X563316Y495430D01*
X563316Y495715D02*
X578516Y495715D01*
X578516Y496000D02*
X563316Y496000D01*
X563316Y496285D02*
X578516Y496285D01*
X578516Y496570D02*
X563316Y496570D01*
X563316Y496855D02*
X578516Y496855D01*
X578516Y497140D02*
X563316Y497140D01*
X563316Y497425D02*
X578516Y497425D01*
X578516Y497710D02*
X563316Y497710D01*
X563316Y497995D02*
X578516Y497995D01*
X578516Y498280D02*
X563316Y498280D01*
X563316Y498565D02*
X578516Y498565D01*
X578516Y498850D02*
X563316Y498850D01*
X563316Y499135D02*
X578516Y499135D01*
X578516Y499420D02*
X563316Y499420D01*
X563316Y512120D02*
X578516Y512120D01*
X578516Y506420D01*
X563316Y506420D01*
X563316Y512120D01*
X563316Y506705D02*
X578516Y506705D01*
X578516Y506990D02*
X563316Y506990D01*
X563316Y507275D02*
X578516Y507275D01*
X578516Y507560D02*
X563316Y507560D01*
X563316Y507845D02*
X578516Y507845D01*
X578516Y508130D02*
X563316Y508130D01*
X563316Y508415D02*
X578516Y508415D01*
X578516Y508700D02*
X563316Y508700D01*
X563316Y508985D02*
X578516Y508985D01*
X578516Y509270D02*
X563316Y509270D01*
X563316Y509555D02*
X578516Y509555D01*
X578516Y509840D02*
X563316Y509840D01*
X563316Y510125D02*
X578516Y510125D01*
X578516Y510410D02*
X563316Y510410D01*
X563316Y510695D02*
X578516Y510695D01*
X578516Y510980D02*
X563316Y510980D01*
X563316Y511265D02*
X578516Y511265D01*
X578516Y511550D02*
X563316Y511550D01*
X563316Y511835D02*
X578516Y511835D01*
X578516Y512120D02*
X563316Y512120D01*
M02*
