G04 EAGLE Gerber RS-274X export*
G75*
%MOMM*%
%FSLAX34Y34*%
%LPD*%
%INBottom Copper*%
%IPPOS*%
%AMOC8*
5,1,8,0,0,1.08239X$1,22.5*%
G01*
%ADD10C,1.508000*%
%ADD11C,0.708000*%
%ADD12C,1.258000*%
%ADD13C,1.408000*%
%ADD14C,1.108000*%
%ADD15C,1.308000*%
%ADD16C,1.138000*%
%ADD17C,1.524000*%
%ADD18C,0.756400*%
%ADD19C,0.508000*%
%ADD20C,0.609600*%
%ADD21C,0.406400*%
%ADD22C,0.606400*%
%ADD23C,1.524000*%
%ADD24C,1.270000*%
%ADD25C,0.609600*%
%ADD26C,1.016000*%
%ADD27C,0.812800*%

G36*
X342194Y10288D02*
X342194Y10288D01*
X342197Y10288D01*
X342291Y10308D01*
X342388Y10327D01*
X342390Y10329D01*
X342393Y10329D01*
X342473Y10385D01*
X342554Y10440D01*
X342555Y10442D01*
X342557Y10444D01*
X342611Y10527D01*
X342663Y10608D01*
X342663Y10611D01*
X342665Y10613D01*
X342681Y10709D01*
X342699Y10805D01*
X342698Y10808D01*
X342698Y10810D01*
X342676Y10904D01*
X342655Y11001D01*
X342653Y11003D01*
X342653Y11006D01*
X342550Y11154D01*
X326117Y27586D01*
X323577Y30126D01*
X323577Y177713D01*
X340447Y194583D01*
X340451Y194589D01*
X340457Y194594D01*
X340506Y194672D01*
X340558Y194750D01*
X340559Y194757D01*
X340563Y194764D01*
X340595Y194941D01*
X340595Y260481D01*
X340594Y260489D01*
X340595Y260496D01*
X340574Y260586D01*
X340556Y260677D01*
X340551Y260684D01*
X340549Y260691D01*
X340447Y260839D01*
X329165Y272121D01*
X326625Y274661D01*
X326625Y295202D01*
X326624Y295207D01*
X326625Y295212D01*
X326604Y295305D01*
X326586Y295399D01*
X326583Y295403D01*
X326582Y295408D01*
X326526Y295486D01*
X326473Y295564D01*
X326469Y295567D01*
X326466Y295571D01*
X326384Y295622D01*
X326305Y295674D01*
X326300Y295674D01*
X326295Y295677D01*
X326118Y295709D01*
X325852Y295709D01*
X322511Y297093D01*
X319953Y299651D01*
X318569Y302992D01*
X318569Y306608D01*
X319953Y309949D01*
X322511Y312507D01*
X322852Y312648D01*
X324077Y313156D01*
X325301Y313663D01*
X325302Y313663D01*
X325852Y313891D01*
X329468Y313891D01*
X332809Y312507D01*
X335367Y309949D01*
X336751Y306608D01*
X336751Y302992D01*
X335367Y299651D01*
X334939Y299223D01*
X334935Y299217D01*
X334929Y299212D01*
X334880Y299133D01*
X334828Y299056D01*
X334827Y299048D01*
X334823Y299042D01*
X334791Y298864D01*
X334791Y278253D01*
X334792Y278245D01*
X334791Y278238D01*
X334812Y278148D01*
X334830Y278057D01*
X334835Y278050D01*
X334837Y278043D01*
X334939Y277895D01*
X346221Y266613D01*
X348761Y264073D01*
X348761Y191349D01*
X331891Y174479D01*
X331887Y174473D01*
X331881Y174468D01*
X331832Y174390D01*
X331780Y174312D01*
X331779Y174305D01*
X331775Y174298D01*
X331743Y174121D01*
X331743Y170401D01*
X331743Y170399D01*
X331743Y170396D01*
X331763Y170301D01*
X331782Y170205D01*
X331784Y170203D01*
X331784Y170200D01*
X331840Y170119D01*
X331895Y170039D01*
X331897Y170038D01*
X331899Y170035D01*
X331982Y169982D01*
X332063Y169930D01*
X332066Y169929D01*
X332068Y169928D01*
X332164Y169912D01*
X332260Y169894D01*
X332263Y169895D01*
X332265Y169894D01*
X332359Y169916D01*
X332456Y169938D01*
X332458Y169939D01*
X332461Y169940D01*
X332609Y170043D01*
X335226Y172660D01*
X336431Y172660D01*
X336438Y172662D01*
X336446Y172661D01*
X336536Y172682D01*
X336627Y172700D01*
X336634Y172705D01*
X336641Y172706D01*
X336789Y172809D01*
X356449Y192469D01*
X356453Y192475D01*
X356459Y192480D01*
X356508Y192558D01*
X356560Y192635D01*
X356561Y192643D01*
X356565Y192650D01*
X356597Y192827D01*
X356597Y266831D01*
X356596Y266839D01*
X356597Y266846D01*
X356576Y266936D01*
X356558Y267027D01*
X356553Y267034D01*
X356551Y267041D01*
X356449Y267189D01*
X345167Y278471D01*
X345167Y347349D01*
X345166Y347357D01*
X345167Y347364D01*
X345146Y347454D01*
X345128Y347545D01*
X345123Y347552D01*
X345121Y347559D01*
X345019Y347707D01*
X341865Y350861D01*
X341859Y350865D01*
X341854Y350871D01*
X341776Y350920D01*
X341698Y350972D01*
X341691Y350973D01*
X341684Y350977D01*
X341507Y351009D01*
X335937Y351009D01*
X335931Y351008D01*
X335924Y351009D01*
X335833Y350988D01*
X335741Y350970D01*
X335735Y350966D01*
X335729Y350965D01*
X335652Y350910D01*
X335575Y350857D01*
X335571Y350852D01*
X335566Y350848D01*
X335468Y350696D01*
X335367Y350451D01*
X332809Y347893D01*
X332028Y347569D01*
X332027Y347569D01*
X330803Y347062D01*
X329578Y346555D01*
X329468Y346509D01*
X325852Y346509D01*
X322511Y347893D01*
X319953Y350451D01*
X318569Y353792D01*
X318569Y357408D01*
X319953Y360749D01*
X322511Y363307D01*
X322671Y363373D01*
X323896Y363881D01*
X325120Y364388D01*
X325121Y364388D01*
X325852Y364691D01*
X329468Y364691D01*
X332809Y363307D01*
X335367Y360749D01*
X335468Y360504D01*
X335472Y360498D01*
X335474Y360492D01*
X335528Y360416D01*
X335580Y360337D01*
X335586Y360334D01*
X335590Y360329D01*
X335669Y360279D01*
X335748Y360227D01*
X335754Y360226D01*
X335760Y360223D01*
X335937Y360191D01*
X343328Y360191D01*
X343336Y360192D01*
X343344Y360191D01*
X343434Y360212D01*
X343525Y360230D01*
X343531Y360235D01*
X343539Y360237D01*
X343687Y360339D01*
X345781Y362433D01*
X345785Y362440D01*
X345791Y362444D01*
X345840Y362523D01*
X345892Y362600D01*
X345893Y362608D01*
X345897Y362614D01*
X345929Y362792D01*
X345929Y428993D01*
X345928Y429000D01*
X345929Y429008D01*
X345908Y429098D01*
X345890Y429189D01*
X345885Y429196D01*
X345883Y429203D01*
X345781Y429351D01*
X345437Y429695D01*
X345437Y433905D01*
X348415Y436883D01*
X352625Y436883D01*
X355603Y433905D01*
X355603Y429695D01*
X355259Y429351D01*
X355255Y429345D01*
X355249Y429340D01*
X355200Y429261D01*
X355148Y429184D01*
X355147Y429177D01*
X355143Y429170D01*
X355111Y428993D01*
X355111Y358778D01*
X350662Y354329D01*
X350659Y354325D01*
X350655Y354322D01*
X350603Y354242D01*
X350551Y354163D01*
X350550Y354157D01*
X350547Y354153D01*
X350531Y354059D01*
X350513Y353966D01*
X350514Y353960D01*
X350513Y353955D01*
X350535Y353863D01*
X350555Y353770D01*
X350558Y353765D01*
X350559Y353760D01*
X350662Y353612D01*
X353333Y350941D01*
X353333Y282063D01*
X353334Y282055D01*
X353333Y282048D01*
X353354Y281958D01*
X353372Y281867D01*
X353377Y281860D01*
X353379Y281853D01*
X353481Y281705D01*
X364763Y270423D01*
X364763Y189235D01*
X342563Y167035D01*
X342559Y167029D01*
X342552Y167024D01*
X342503Y166945D01*
X342452Y166868D01*
X342451Y166861D01*
X342447Y166854D01*
X342415Y166677D01*
X342415Y165472D01*
X339437Y162495D01*
X335226Y162495D01*
X332609Y165113D01*
X332606Y165114D01*
X332605Y165116D01*
X332524Y165169D01*
X332442Y165224D01*
X332439Y165224D01*
X332437Y165226D01*
X332341Y165243D01*
X332245Y165261D01*
X332242Y165261D01*
X332240Y165261D01*
X332143Y165240D01*
X332049Y165220D01*
X332047Y165218D01*
X332044Y165218D01*
X331964Y165161D01*
X331884Y165105D01*
X331883Y165103D01*
X331881Y165102D01*
X331829Y165019D01*
X331777Y164936D01*
X331776Y164934D01*
X331775Y164931D01*
X331743Y164754D01*
X331743Y33719D01*
X331744Y33711D01*
X331743Y33703D01*
X331764Y33613D01*
X331782Y33522D01*
X331787Y33516D01*
X331789Y33508D01*
X331891Y33360D01*
X348602Y16649D01*
X348609Y16645D01*
X348613Y16639D01*
X348692Y16590D01*
X348769Y16538D01*
X348777Y16537D01*
X348783Y16533D01*
X348961Y16501D01*
X479031Y16501D01*
X479038Y16502D01*
X479046Y16501D01*
X479136Y16522D01*
X479227Y16540D01*
X479234Y16545D01*
X479241Y16547D01*
X479389Y16649D01*
X482273Y19533D01*
X486483Y19533D01*
X489461Y16555D01*
X489461Y12345D01*
X488270Y11154D01*
X488268Y11151D01*
X488266Y11150D01*
X488214Y11070D01*
X488159Y10987D01*
X488158Y10984D01*
X488157Y10982D01*
X488140Y10886D01*
X488121Y10790D01*
X488122Y10787D01*
X488121Y10785D01*
X488143Y10688D01*
X488163Y10594D01*
X488164Y10592D01*
X488165Y10589D01*
X488221Y10509D01*
X488277Y10429D01*
X488279Y10428D01*
X488281Y10426D01*
X488365Y10373D01*
X488446Y10322D01*
X488449Y10321D01*
X488451Y10320D01*
X488628Y10288D01*
X529496Y10288D01*
X529499Y10288D01*
X529501Y10288D01*
X529596Y10308D01*
X529693Y10327D01*
X529695Y10329D01*
X529698Y10329D01*
X529778Y10385D01*
X529859Y10440D01*
X529860Y10442D01*
X529862Y10444D01*
X529915Y10527D01*
X529968Y10608D01*
X529968Y10611D01*
X529970Y10613D01*
X529986Y10709D01*
X530003Y10805D01*
X530003Y10808D01*
X530003Y10810D01*
X529981Y10905D01*
X529960Y11001D01*
X529958Y11003D01*
X529958Y11006D01*
X529855Y11154D01*
X528063Y12945D01*
X526603Y16470D01*
X526603Y20286D01*
X528063Y23811D01*
X530761Y26509D01*
X530884Y26559D01*
X531798Y26938D01*
X531804Y26942D01*
X531810Y26943D01*
X531887Y26998D01*
X531965Y27050D01*
X531968Y27055D01*
X531973Y27059D01*
X532023Y27139D01*
X532075Y27217D01*
X532076Y27224D01*
X532079Y27229D01*
X532111Y27407D01*
X532111Y37523D01*
X532110Y37531D01*
X532111Y37539D01*
X532090Y37629D01*
X532072Y37720D01*
X532067Y37726D01*
X532065Y37734D01*
X531963Y37882D01*
X493812Y76033D01*
X493805Y76037D01*
X493801Y76043D01*
X493722Y76092D01*
X493645Y76144D01*
X493637Y76145D01*
X493631Y76149D01*
X493453Y76181D01*
X454447Y76181D01*
X454396Y76171D01*
X454327Y76167D01*
X453218Y75898D01*
X452874Y76107D01*
X452828Y76124D01*
X452787Y76149D01*
X452729Y76160D01*
X452685Y76176D01*
X452651Y76174D01*
X452610Y76181D01*
X452207Y76181D01*
X451399Y76989D01*
X451356Y77017D01*
X451305Y77063D01*
X437834Y85272D01*
X437795Y85286D01*
X437759Y85309D01*
X437701Y85320D01*
X437646Y85340D01*
X437604Y85338D01*
X437562Y85346D01*
X437504Y85333D01*
X437445Y85330D01*
X437408Y85312D01*
X437366Y85303D01*
X437318Y85269D01*
X437265Y85244D01*
X437237Y85212D01*
X437202Y85188D01*
X437171Y85138D01*
X437132Y85094D01*
X437118Y85054D01*
X437096Y85018D01*
X437086Y84960D01*
X437067Y84904D01*
X437070Y84862D01*
X437063Y84821D01*
X437077Y84755D01*
X437081Y84704D01*
X437094Y84678D01*
X437101Y84645D01*
X437851Y82836D01*
X437851Y79418D01*
X436543Y76261D01*
X434126Y73844D01*
X433668Y73654D01*
X432444Y73147D01*
X431219Y72640D01*
X430969Y72536D01*
X427551Y72536D01*
X424394Y73844D01*
X421977Y76261D01*
X420669Y79418D01*
X420669Y82836D01*
X421977Y85993D01*
X424394Y88410D01*
X424476Y88444D01*
X425700Y88951D01*
X425701Y88951D01*
X426925Y89458D01*
X427551Y89718D01*
X428731Y89718D01*
X428793Y89730D01*
X428856Y89733D01*
X428890Y89750D01*
X428928Y89757D01*
X428980Y89793D01*
X429037Y89820D01*
X429062Y89848D01*
X429094Y89870D01*
X429128Y89923D01*
X429170Y89970D01*
X429182Y90006D01*
X429203Y90038D01*
X429214Y90100D01*
X429234Y90160D01*
X429232Y90198D01*
X429238Y90235D01*
X429225Y90297D01*
X429220Y90360D01*
X429203Y90394D01*
X429195Y90431D01*
X429158Y90482D01*
X429130Y90538D01*
X429099Y90566D01*
X429079Y90594D01*
X429039Y90619D01*
X428995Y90658D01*
X420362Y95919D01*
X420316Y95936D01*
X420275Y95961D01*
X420217Y95972D01*
X420173Y95988D01*
X420139Y95986D01*
X420098Y95993D01*
X419695Y95993D01*
X418887Y96801D01*
X418844Y96829D01*
X418793Y96875D01*
X417817Y97470D01*
X417722Y97861D01*
X417702Y97905D01*
X417691Y97952D01*
X417657Y98001D01*
X417637Y98043D01*
X417612Y98066D01*
X417588Y98100D01*
X417303Y98385D01*
X417303Y99527D01*
X417294Y99573D01*
X417294Y99574D01*
X417293Y99580D01*
X417289Y99647D01*
X417020Y100756D01*
X417229Y101100D01*
X417246Y101146D01*
X417271Y101187D01*
X417282Y101245D01*
X417298Y101289D01*
X417296Y101323D01*
X417303Y101364D01*
X417303Y132973D01*
X417302Y132981D01*
X417303Y132988D01*
X417282Y133078D01*
X417264Y133169D01*
X417259Y133176D01*
X417257Y133183D01*
X417155Y133331D01*
X376155Y174331D01*
X376155Y310265D01*
X376154Y310273D01*
X376155Y310280D01*
X376134Y310370D01*
X376116Y310461D01*
X376111Y310468D01*
X376109Y310475D01*
X376007Y310623D01*
X363201Y323429D01*
X363201Y438535D01*
X363200Y438543D01*
X363201Y438550D01*
X363180Y438640D01*
X363162Y438731D01*
X363157Y438738D01*
X363155Y438745D01*
X363053Y438893D01*
X355327Y446619D01*
X355321Y446623D01*
X355316Y446629D01*
X355238Y446678D01*
X355160Y446730D01*
X355153Y446731D01*
X355146Y446735D01*
X354969Y446767D01*
X340991Y446767D01*
X340983Y446766D01*
X340976Y446767D01*
X340886Y446746D01*
X340795Y446728D01*
X340788Y446723D01*
X340781Y446721D01*
X340633Y446619D01*
X333524Y439510D01*
X333521Y439505D01*
X333516Y439502D01*
X333465Y439422D01*
X333413Y439343D01*
X333412Y439338D01*
X333409Y439333D01*
X333393Y439240D01*
X333375Y439146D01*
X333376Y439141D01*
X333375Y439136D01*
X333397Y439042D01*
X333417Y438950D01*
X333420Y438946D01*
X333421Y438940D01*
X333524Y438792D01*
X335367Y436949D01*
X336751Y433608D01*
X336751Y429992D01*
X335367Y426651D01*
X332809Y424093D01*
X331756Y423657D01*
X330531Y423150D01*
X329468Y422709D01*
X325852Y422709D01*
X322511Y424093D01*
X319953Y426651D01*
X318569Y429992D01*
X318569Y433608D01*
X319953Y436949D01*
X322511Y439507D01*
X323264Y439819D01*
X323270Y439823D01*
X323276Y439824D01*
X323353Y439878D01*
X323431Y439931D01*
X323434Y439936D01*
X323439Y439940D01*
X323489Y440020D01*
X323541Y440098D01*
X323542Y440105D01*
X323545Y440110D01*
X323577Y440288D01*
X323577Y441111D01*
X337399Y454933D01*
X358561Y454933D01*
X371367Y442127D01*
X371367Y327021D01*
X371368Y327013D01*
X371367Y327006D01*
X371388Y326916D01*
X371406Y326825D01*
X371411Y326818D01*
X371413Y326811D01*
X371515Y326663D01*
X384321Y313857D01*
X384321Y177923D01*
X384322Y177915D01*
X384321Y177908D01*
X384342Y177818D01*
X384360Y177727D01*
X384365Y177720D01*
X384367Y177713D01*
X384469Y177565D01*
X425469Y136565D01*
X425469Y102654D01*
X425482Y102587D01*
X425487Y102519D01*
X425502Y102490D01*
X425508Y102458D01*
X425547Y102401D01*
X425577Y102340D01*
X425604Y102317D01*
X425621Y102292D01*
X425663Y102265D01*
X425712Y102221D01*
X434896Y96624D01*
X434934Y96610D01*
X434968Y96588D01*
X435028Y96577D01*
X435084Y96556D01*
X435125Y96558D01*
X435165Y96550D01*
X435224Y96563D01*
X435285Y96566D01*
X435321Y96583D01*
X435361Y96592D01*
X435411Y96626D01*
X435465Y96653D01*
X435492Y96683D01*
X435526Y96706D01*
X435558Y96757D01*
X435598Y96802D01*
X435612Y96841D01*
X435633Y96875D01*
X435644Y96935D01*
X435663Y96992D01*
X435660Y97033D01*
X435667Y97073D01*
X435653Y97132D01*
X435649Y97192D01*
X435631Y97228D01*
X435621Y97268D01*
X435582Y97325D01*
X435559Y97371D01*
X435536Y97391D01*
X435519Y97416D01*
X434677Y98258D01*
X433369Y101415D01*
X433369Y104833D01*
X434677Y107990D01*
X437094Y110407D01*
X437953Y110763D01*
X439178Y111270D01*
X440251Y111715D01*
X443669Y111715D01*
X446826Y110407D01*
X449243Y107990D01*
X450551Y104833D01*
X450551Y101415D01*
X449243Y98258D01*
X446826Y95841D01*
X445921Y95466D01*
X444696Y94959D01*
X443669Y94533D01*
X440217Y94533D01*
X440177Y94548D01*
X440138Y94546D01*
X440099Y94553D01*
X440039Y94541D01*
X439977Y94538D01*
X439942Y94521D01*
X439903Y94513D01*
X439852Y94478D01*
X439796Y94451D01*
X439770Y94422D01*
X439738Y94399D01*
X439704Y94347D01*
X439663Y94301D01*
X439651Y94264D01*
X439629Y94231D01*
X439619Y94170D01*
X439599Y94111D01*
X439601Y94072D01*
X439595Y94033D01*
X439608Y93973D01*
X439613Y93912D01*
X439630Y93876D01*
X439639Y93838D01*
X439675Y93788D01*
X439703Y93733D01*
X439735Y93704D01*
X439756Y93675D01*
X439799Y93647D01*
X439838Y93613D01*
X454922Y84421D01*
X454968Y84404D01*
X455009Y84379D01*
X455067Y84368D01*
X455111Y84352D01*
X455145Y84354D01*
X455186Y84347D01*
X497046Y84347D01*
X540277Y41116D01*
X540277Y27407D01*
X540278Y27400D01*
X540277Y27394D01*
X540298Y27302D01*
X540316Y27210D01*
X540320Y27205D01*
X540321Y27198D01*
X540376Y27122D01*
X540429Y27044D01*
X540434Y27041D01*
X540438Y27036D01*
X540590Y26938D01*
X541627Y26509D01*
X544325Y23811D01*
X545785Y20286D01*
X545785Y16470D01*
X544325Y12945D01*
X542533Y11154D01*
X542532Y11151D01*
X542529Y11150D01*
X542477Y11069D01*
X542422Y10987D01*
X542422Y10984D01*
X542420Y10982D01*
X542403Y10886D01*
X542384Y10790D01*
X542385Y10787D01*
X542385Y10785D01*
X542406Y10688D01*
X542426Y10594D01*
X542428Y10592D01*
X542428Y10589D01*
X542485Y10509D01*
X542540Y10429D01*
X542543Y10428D01*
X542544Y10426D01*
X542627Y10374D01*
X542710Y10322D01*
X542712Y10321D01*
X542714Y10320D01*
X542892Y10288D01*
X580296Y10288D01*
X580299Y10288D01*
X580301Y10288D01*
X580396Y10308D01*
X580493Y10327D01*
X580495Y10329D01*
X580498Y10329D01*
X580578Y10385D01*
X580659Y10440D01*
X580660Y10442D01*
X580662Y10444D01*
X580715Y10527D01*
X580768Y10608D01*
X580768Y10611D01*
X580770Y10613D01*
X580786Y10709D01*
X580803Y10805D01*
X580803Y10808D01*
X580803Y10810D01*
X580781Y10905D01*
X580760Y11001D01*
X580758Y11003D01*
X580758Y11006D01*
X580655Y11154D01*
X578863Y12945D01*
X577403Y16470D01*
X577403Y20286D01*
X578863Y23811D01*
X581561Y26509D01*
X581684Y26559D01*
X582908Y27067D01*
X584133Y27574D01*
X585086Y27969D01*
X588902Y27969D01*
X592427Y26509D01*
X595125Y23811D01*
X596585Y20286D01*
X596585Y16470D01*
X595125Y12945D01*
X593333Y11154D01*
X593332Y11151D01*
X593329Y11150D01*
X593277Y11069D01*
X593222Y10987D01*
X593222Y10984D01*
X593220Y10982D01*
X593203Y10886D01*
X593184Y10790D01*
X593185Y10787D01*
X593185Y10785D01*
X593206Y10688D01*
X593226Y10594D01*
X593228Y10592D01*
X593228Y10589D01*
X593285Y10509D01*
X593340Y10429D01*
X593343Y10428D01*
X593344Y10426D01*
X593427Y10374D01*
X593510Y10322D01*
X593512Y10321D01*
X593514Y10320D01*
X593692Y10288D01*
X649605Y10288D01*
X649610Y10289D01*
X649615Y10288D01*
X649708Y10309D01*
X649802Y10327D01*
X649806Y10330D01*
X649811Y10331D01*
X649889Y10387D01*
X649967Y10440D01*
X649970Y10444D01*
X649974Y10447D01*
X650025Y10529D01*
X650077Y10608D01*
X650077Y10613D01*
X650080Y10618D01*
X650112Y10795D01*
X650112Y27446D01*
X651678Y31227D01*
X654644Y34193D01*
X671974Y51523D01*
X671993Y51552D01*
X672019Y51575D01*
X672048Y51635D01*
X672085Y51690D01*
X672091Y51724D01*
X672106Y51755D01*
X672110Y51822D01*
X672122Y51887D01*
X672115Y51921D01*
X672117Y51955D01*
X672095Y52018D01*
X672081Y52083D01*
X672061Y52111D01*
X672049Y52144D01*
X672004Y52193D01*
X671967Y52247D01*
X671937Y52266D01*
X671914Y52292D01*
X671853Y52319D01*
X671797Y52355D01*
X671763Y52361D01*
X671731Y52375D01*
X671665Y52377D01*
X671600Y52389D01*
X671566Y52381D01*
X671531Y52382D01*
X671458Y52355D01*
X671405Y52343D01*
X671384Y52329D01*
X671362Y52321D01*
X670498Y51822D01*
X663844Y50039D01*
X656956Y50039D01*
X650302Y51822D01*
X644337Y55266D01*
X639466Y60137D01*
X636022Y66102D01*
X634239Y72756D01*
X634239Y79644D01*
X636022Y86298D01*
X639466Y92263D01*
X644337Y97134D01*
X650302Y100578D01*
X656956Y102361D01*
X663844Y102361D01*
X670498Y100578D01*
X674751Y98122D01*
X674787Y98110D01*
X674818Y98090D01*
X674881Y98078D01*
X674941Y98058D01*
X674979Y98061D01*
X675015Y98054D01*
X675078Y98068D01*
X675141Y98073D01*
X675174Y98090D01*
X675211Y98098D01*
X675263Y98135D01*
X675320Y98164D01*
X675344Y98192D01*
X675374Y98214D01*
X675408Y98268D01*
X675449Y98317D01*
X675461Y98352D01*
X675480Y98384D01*
X675493Y98457D01*
X675509Y98508D01*
X675507Y98533D01*
X675512Y98561D01*
X675512Y199273D01*
X675512Y199276D01*
X675512Y199278D01*
X675492Y199373D01*
X675473Y199470D01*
X675471Y199472D01*
X675471Y199474D01*
X675415Y199555D01*
X675360Y199635D01*
X675358Y199637D01*
X675356Y199639D01*
X675273Y199692D01*
X675192Y199745D01*
X675189Y199745D01*
X675187Y199746D01*
X675091Y199763D01*
X674995Y199780D01*
X674992Y199780D01*
X674990Y199780D01*
X674896Y199758D01*
X674799Y199737D01*
X674797Y199735D01*
X674794Y199734D01*
X674646Y199632D01*
X671531Y196516D01*
X665794Y193204D01*
X659394Y191489D01*
X652770Y191489D01*
X646370Y193204D01*
X640633Y196516D01*
X635948Y201201D01*
X632636Y206938D01*
X630921Y213338D01*
X630921Y219962D01*
X632636Y226362D01*
X635948Y232099D01*
X640633Y236784D01*
X646370Y240096D01*
X652770Y241811D01*
X659394Y241811D01*
X665794Y240096D01*
X671531Y236784D01*
X674646Y233668D01*
X674649Y233667D01*
X674650Y233665D01*
X674731Y233612D01*
X674813Y233557D01*
X674816Y233557D01*
X674818Y233555D01*
X674914Y233538D01*
X675010Y233520D01*
X675013Y233520D01*
X675015Y233520D01*
X675112Y233541D01*
X675206Y233561D01*
X675208Y233563D01*
X675211Y233563D01*
X675291Y233620D01*
X675371Y233676D01*
X675372Y233678D01*
X675374Y233679D01*
X675426Y233762D01*
X675478Y233845D01*
X675479Y233847D01*
X675480Y233850D01*
X675512Y234027D01*
X675512Y333239D01*
X675505Y333275D01*
X675507Y333313D01*
X675485Y333373D01*
X675473Y333435D01*
X675452Y333466D01*
X675439Y333501D01*
X675396Y333548D01*
X675360Y333601D01*
X675329Y333621D01*
X675303Y333649D01*
X675245Y333676D01*
X675192Y333710D01*
X675155Y333717D01*
X675121Y333732D01*
X675058Y333735D01*
X674995Y333746D01*
X674958Y333738D01*
X674921Y333739D01*
X674851Y333714D01*
X674799Y333702D01*
X674779Y333688D01*
X674751Y333678D01*
X670498Y331222D01*
X663844Y329439D01*
X656956Y329439D01*
X650302Y331222D01*
X644337Y334666D01*
X639466Y339537D01*
X636022Y345502D01*
X634239Y352156D01*
X634239Y359044D01*
X636022Y365698D01*
X639466Y371663D01*
X644337Y376534D01*
X650302Y379978D01*
X656956Y381761D01*
X663844Y381761D01*
X667625Y380748D01*
X667693Y380743D01*
X667761Y380730D01*
X667793Y380737D01*
X667825Y380735D01*
X667890Y380758D01*
X667957Y380772D01*
X667984Y380790D01*
X668014Y380801D01*
X668065Y380847D01*
X668122Y380886D01*
X668139Y380914D01*
X668163Y380935D01*
X668192Y380997D01*
X668229Y381056D01*
X668235Y381087D01*
X668248Y381116D01*
X668251Y381185D01*
X668263Y381253D01*
X668256Y381284D01*
X668257Y381317D01*
X668233Y381381D01*
X668217Y381448D01*
X668197Y381477D01*
X668187Y381505D01*
X668153Y381541D01*
X668115Y381596D01*
X651678Y398033D01*
X650112Y401814D01*
X650112Y513689D01*
X650111Y513696D01*
X650112Y513704D01*
X650091Y513794D01*
X650073Y513885D01*
X650068Y513892D01*
X650066Y513899D01*
X649964Y514047D01*
X641047Y522964D01*
X641041Y522968D01*
X641036Y522974D01*
X640957Y523023D01*
X640880Y523075D01*
X640873Y523076D01*
X640866Y523080D01*
X640689Y523112D01*
X455606Y523112D01*
X455603Y523112D01*
X455601Y523112D01*
X455506Y523092D01*
X455409Y523073D01*
X455407Y523071D01*
X455404Y523071D01*
X455324Y523015D01*
X455243Y522960D01*
X455242Y522958D01*
X455240Y522956D01*
X455187Y522873D01*
X455134Y522792D01*
X455134Y522789D01*
X455132Y522787D01*
X455116Y522691D01*
X455099Y522595D01*
X455099Y522592D01*
X455099Y522590D01*
X455121Y522496D01*
X455142Y522399D01*
X455144Y522397D01*
X455144Y522394D01*
X455247Y522246D01*
X457711Y519783D01*
X459171Y516258D01*
X459171Y512442D01*
X457711Y508917D01*
X455013Y506219D01*
X454076Y505831D01*
X452852Y505324D01*
X452851Y505324D01*
X451627Y504817D01*
X451488Y504759D01*
X447672Y504759D01*
X444147Y506219D01*
X441449Y508917D01*
X439989Y512442D01*
X439989Y516258D01*
X441449Y519783D01*
X443913Y522246D01*
X443914Y522249D01*
X443917Y522250D01*
X443969Y522331D01*
X444024Y522413D01*
X444024Y522416D01*
X444026Y522418D01*
X444043Y522512D01*
X444062Y522610D01*
X444061Y522613D01*
X444061Y522615D01*
X444040Y522712D01*
X444020Y522806D01*
X444018Y522808D01*
X444018Y522811D01*
X443961Y522891D01*
X443906Y522971D01*
X443903Y522972D01*
X443902Y522974D01*
X443819Y523026D01*
X443736Y523078D01*
X443734Y523079D01*
X443732Y523080D01*
X443554Y523112D01*
X404806Y523112D01*
X404803Y523112D01*
X404801Y523112D01*
X404706Y523092D01*
X404609Y523073D01*
X404607Y523071D01*
X404604Y523071D01*
X404524Y523015D01*
X404443Y522960D01*
X404442Y522958D01*
X404440Y522956D01*
X404387Y522873D01*
X404334Y522792D01*
X404334Y522789D01*
X404332Y522787D01*
X404316Y522691D01*
X404299Y522595D01*
X404299Y522592D01*
X404299Y522590D01*
X404321Y522496D01*
X404342Y522399D01*
X404344Y522397D01*
X404344Y522394D01*
X404447Y522246D01*
X406911Y519783D01*
X408371Y516258D01*
X408371Y512442D01*
X406911Y508917D01*
X404213Y506219D01*
X403276Y505831D01*
X402052Y505324D01*
X402051Y505324D01*
X400827Y504817D01*
X400688Y504759D01*
X396872Y504759D01*
X393347Y506219D01*
X390649Y508917D01*
X389189Y512442D01*
X389189Y516258D01*
X390649Y519783D01*
X393113Y522246D01*
X393114Y522249D01*
X393117Y522250D01*
X393169Y522331D01*
X393224Y522413D01*
X393224Y522416D01*
X393226Y522418D01*
X393243Y522512D01*
X393262Y522610D01*
X393261Y522613D01*
X393261Y522615D01*
X393240Y522712D01*
X393220Y522806D01*
X393218Y522808D01*
X393218Y522811D01*
X393161Y522891D01*
X393106Y522971D01*
X393103Y522972D01*
X393102Y522974D01*
X393019Y523026D01*
X392936Y523078D01*
X392934Y523079D01*
X392932Y523080D01*
X392754Y523112D01*
X366323Y523112D01*
X366255Y523099D01*
X366187Y523094D01*
X366158Y523079D01*
X366126Y523073D01*
X366069Y523034D01*
X366008Y523003D01*
X365987Y522978D01*
X365961Y522960D01*
X365923Y522902D01*
X365878Y522850D01*
X365869Y522819D01*
X365851Y522792D01*
X365839Y522724D01*
X365818Y522658D01*
X365821Y522626D01*
X365816Y522595D01*
X365831Y522527D01*
X365837Y522459D01*
X365852Y522431D01*
X365859Y522399D01*
X365899Y522343D01*
X365932Y522282D01*
X365958Y522260D01*
X365975Y522236D01*
X366018Y522209D01*
X366069Y522166D01*
X366731Y521784D01*
X371416Y517099D01*
X374728Y511362D01*
X376443Y504962D01*
X376443Y498338D01*
X374728Y491938D01*
X371416Y486201D01*
X366731Y481516D01*
X360994Y478204D01*
X354594Y476489D01*
X347970Y476489D01*
X341570Y478204D01*
X335833Y481516D01*
X331148Y486201D01*
X327836Y491938D01*
X326121Y498338D01*
X326121Y504962D01*
X327836Y511362D01*
X331148Y517099D01*
X335833Y521784D01*
X336495Y522166D01*
X336546Y522211D01*
X336603Y522250D01*
X336621Y522277D01*
X336645Y522298D01*
X336675Y522360D01*
X336713Y522418D01*
X336718Y522450D01*
X336732Y522479D01*
X336736Y522548D01*
X336748Y522615D01*
X336741Y522647D01*
X336743Y522679D01*
X336720Y522744D01*
X336705Y522811D01*
X336686Y522837D01*
X336675Y522868D01*
X336629Y522918D01*
X336589Y522974D01*
X336561Y522991D01*
X336540Y523015D01*
X336477Y523044D01*
X336418Y523080D01*
X336384Y523086D01*
X336357Y523099D01*
X336307Y523100D01*
X336241Y523112D01*
X311658Y523112D01*
X311653Y523111D01*
X311648Y523112D01*
X311555Y523091D01*
X311462Y523073D01*
X311457Y523070D01*
X311452Y523069D01*
X311374Y523013D01*
X311296Y522960D01*
X311293Y522956D01*
X311289Y522953D01*
X311238Y522871D01*
X311186Y522792D01*
X311186Y522787D01*
X311183Y522782D01*
X311151Y522605D01*
X311151Y10795D01*
X311152Y10790D01*
X311151Y10785D01*
X311172Y10692D01*
X311190Y10598D01*
X311193Y10594D01*
X311194Y10589D01*
X311250Y10511D01*
X311303Y10433D01*
X311307Y10430D01*
X311310Y10426D01*
X311392Y10375D01*
X311471Y10323D01*
X311476Y10323D01*
X311481Y10320D01*
X311658Y10288D01*
X342191Y10288D01*
X342194Y10288D01*
G37*
G36*
X117375Y10295D02*
X117375Y10295D01*
X117413Y10293D01*
X117473Y10315D01*
X117535Y10327D01*
X117566Y10348D01*
X117601Y10361D01*
X117648Y10404D01*
X117701Y10440D01*
X117721Y10471D01*
X117749Y10497D01*
X117776Y10555D01*
X117810Y10608D01*
X117817Y10645D01*
X117832Y10679D01*
X117835Y10742D01*
X117846Y10805D01*
X117838Y10842D01*
X117839Y10879D01*
X117814Y10949D01*
X117802Y11001D01*
X117788Y11021D01*
X117778Y11049D01*
X115322Y15302D01*
X113539Y21956D01*
X113539Y28844D01*
X115322Y35498D01*
X118766Y41463D01*
X123637Y46334D01*
X129602Y49778D01*
X136256Y51561D01*
X143144Y51561D01*
X149798Y49778D01*
X155763Y46334D01*
X160634Y41463D01*
X164078Y35498D01*
X165861Y28844D01*
X165861Y21956D01*
X164078Y15302D01*
X161622Y11049D01*
X161610Y11013D01*
X161590Y10982D01*
X161578Y10919D01*
X161558Y10859D01*
X161561Y10821D01*
X161554Y10785D01*
X161568Y10722D01*
X161573Y10659D01*
X161590Y10626D01*
X161598Y10589D01*
X161635Y10537D01*
X161664Y10480D01*
X161692Y10456D01*
X161714Y10426D01*
X161768Y10392D01*
X161817Y10351D01*
X161852Y10339D01*
X161884Y10320D01*
X161957Y10307D01*
X162008Y10291D01*
X162033Y10293D01*
X162061Y10288D01*
X292100Y10288D01*
X292105Y10289D01*
X292110Y10288D01*
X292203Y10309D01*
X292297Y10327D01*
X292301Y10330D01*
X292306Y10331D01*
X292384Y10387D01*
X292462Y10440D01*
X292465Y10444D01*
X292469Y10447D01*
X292520Y10529D01*
X292572Y10608D01*
X292572Y10613D01*
X292575Y10618D01*
X292607Y10795D01*
X292607Y522605D01*
X292606Y522610D01*
X292607Y522615D01*
X292586Y522708D01*
X292568Y522802D01*
X292565Y522806D01*
X292564Y522811D01*
X292508Y522889D01*
X292455Y522967D01*
X292451Y522970D01*
X292448Y522974D01*
X292366Y523025D01*
X292287Y523077D01*
X292282Y523077D01*
X292277Y523080D01*
X292100Y523112D01*
X276689Y523112D01*
X276687Y523112D01*
X276684Y523112D01*
X276589Y523092D01*
X276493Y523073D01*
X276491Y523071D01*
X276488Y523071D01*
X276407Y523015D01*
X276327Y522960D01*
X276326Y522958D01*
X276323Y522956D01*
X276270Y522873D01*
X276218Y522792D01*
X276217Y522789D01*
X276216Y522787D01*
X276199Y522691D01*
X276182Y522595D01*
X276183Y522592D01*
X276182Y522590D01*
X276204Y522495D01*
X276226Y522399D01*
X276227Y522397D01*
X276228Y522394D01*
X276331Y522246D01*
X278333Y520244D01*
X279489Y517454D01*
X279489Y503354D01*
X278333Y500564D01*
X276198Y498429D01*
X275700Y498223D01*
X274475Y497715D01*
X273408Y497273D01*
X270388Y497273D01*
X267598Y498429D01*
X265463Y500564D01*
X264307Y503354D01*
X264307Y517454D01*
X265463Y520244D01*
X267465Y522246D01*
X267467Y522249D01*
X267469Y522250D01*
X267522Y522331D01*
X267576Y522413D01*
X267577Y522416D01*
X267578Y522418D01*
X267596Y522514D01*
X267614Y522610D01*
X267613Y522613D01*
X267614Y522615D01*
X267592Y522712D01*
X267572Y522806D01*
X267571Y522808D01*
X267570Y522811D01*
X267514Y522891D01*
X267458Y522971D01*
X267456Y522972D01*
X267454Y522974D01*
X267372Y523026D01*
X267289Y523078D01*
X267286Y523079D01*
X267284Y523080D01*
X267107Y523112D01*
X190289Y523112D01*
X190287Y523112D01*
X190284Y523112D01*
X190189Y523092D01*
X190093Y523073D01*
X190091Y523071D01*
X190088Y523071D01*
X190007Y523015D01*
X189927Y522960D01*
X189926Y522958D01*
X189923Y522956D01*
X189870Y522873D01*
X189818Y522792D01*
X189817Y522789D01*
X189816Y522787D01*
X189799Y522691D01*
X189782Y522595D01*
X189783Y522592D01*
X189782Y522590D01*
X189804Y522495D01*
X189826Y522399D01*
X189827Y522397D01*
X189828Y522394D01*
X189931Y522246D01*
X191933Y520244D01*
X193089Y517454D01*
X193089Y503354D01*
X191933Y500564D01*
X189798Y498429D01*
X189300Y498223D01*
X188075Y497715D01*
X187008Y497273D01*
X183988Y497273D01*
X181198Y498429D01*
X179063Y500564D01*
X178680Y501488D01*
X178660Y501518D01*
X178648Y501552D01*
X178605Y501600D01*
X178569Y501654D01*
X178538Y501674D01*
X178514Y501701D01*
X178455Y501728D01*
X178401Y501764D01*
X178366Y501771D01*
X178333Y501786D01*
X178268Y501789D01*
X178204Y501801D01*
X178169Y501793D01*
X178133Y501795D01*
X178072Y501772D01*
X178008Y501758D01*
X177979Y501737D01*
X177945Y501725D01*
X177897Y501680D01*
X177844Y501643D01*
X177825Y501612D01*
X177799Y501588D01*
X177766Y501519D01*
X177737Y501473D01*
X177734Y501450D01*
X177722Y501425D01*
X176778Y497902D01*
X173334Y491937D01*
X168463Y487066D01*
X162498Y483622D01*
X155844Y481839D01*
X148956Y481839D01*
X144650Y482993D01*
X144581Y482997D01*
X144513Y483010D01*
X144482Y483004D01*
X144450Y483006D01*
X144385Y482983D01*
X144317Y482969D01*
X144291Y482950D01*
X144260Y482940D01*
X144209Y482894D01*
X144153Y482854D01*
X144135Y482827D01*
X144111Y482806D01*
X144082Y482743D01*
X144045Y482685D01*
X144040Y482653D01*
X144026Y482624D01*
X144023Y482556D01*
X144012Y482488D01*
X144019Y482456D01*
X144018Y482424D01*
X144041Y482360D01*
X144057Y482292D01*
X144077Y482264D01*
X144087Y482236D01*
X144122Y482199D01*
X144160Y482144D01*
X168173Y458131D01*
X168180Y458127D01*
X168184Y458121D01*
X168263Y458072D01*
X168340Y458020D01*
X168348Y458019D01*
X168354Y458015D01*
X168532Y457983D01*
X182496Y457983D01*
X183233Y457246D01*
X183233Y457245D01*
X183234Y457244D01*
X183314Y457192D01*
X183400Y457135D01*
X183401Y457135D01*
X183401Y457134D01*
X183578Y457097D01*
X188493Y456966D01*
X188404Y452295D01*
X188406Y452282D01*
X188404Y452269D01*
X188424Y452184D01*
X188439Y452097D01*
X188446Y452087D01*
X188449Y452074D01*
X188535Y451952D01*
X188549Y451929D01*
X188551Y451928D01*
X188552Y451926D01*
X203939Y436539D01*
X203946Y436535D01*
X203950Y436529D01*
X204029Y436480D01*
X204106Y436428D01*
X204114Y436427D01*
X204120Y436423D01*
X204298Y436391D01*
X268583Y436391D01*
X268589Y436392D01*
X268596Y436391D01*
X268687Y436412D01*
X268779Y436430D01*
X268785Y436434D01*
X268791Y436435D01*
X268868Y436490D01*
X268945Y436543D01*
X268949Y436548D01*
X268954Y436552D01*
X269052Y436704D01*
X269153Y436949D01*
X271711Y439507D01*
X272824Y439968D01*
X274049Y440475D01*
X275052Y440891D01*
X278668Y440891D01*
X282009Y439507D01*
X284567Y436949D01*
X285951Y433608D01*
X285951Y429992D01*
X284567Y426651D01*
X282009Y424093D01*
X280956Y423657D01*
X279731Y423150D01*
X278668Y422709D01*
X275052Y422709D01*
X271711Y424093D01*
X269153Y426651D01*
X269052Y426896D01*
X269048Y426902D01*
X269046Y426908D01*
X268992Y426984D01*
X268940Y427063D01*
X268934Y427066D01*
X268930Y427071D01*
X268851Y427121D01*
X268772Y427173D01*
X268766Y427174D01*
X268760Y427177D01*
X268583Y427209D01*
X200284Y427209D01*
X197447Y430047D01*
X188997Y438496D01*
X188914Y438552D01*
X188835Y438605D01*
X188832Y438606D01*
X188830Y438607D01*
X188734Y438626D01*
X188638Y438645D01*
X188636Y438644D01*
X188634Y438645D01*
X188538Y438624D01*
X188442Y438605D01*
X188440Y438604D01*
X188437Y438603D01*
X188356Y438547D01*
X188276Y438492D01*
X188275Y438490D01*
X188273Y438489D01*
X188221Y438407D01*
X188167Y438324D01*
X188166Y438322D01*
X188165Y438320D01*
X188161Y438293D01*
X188132Y438147D01*
X188126Y437874D01*
X188129Y437861D01*
X188126Y437849D01*
X188146Y437763D01*
X188162Y437677D01*
X188169Y437666D01*
X188172Y437654D01*
X188257Y437531D01*
X188272Y437509D01*
X188273Y437508D01*
X188275Y437506D01*
X189388Y436392D01*
X191465Y434315D01*
X192299Y432302D01*
X192304Y432294D01*
X192306Y432285D01*
X192409Y432137D01*
X193618Y430928D01*
X195091Y427374D01*
X195091Y416578D01*
X195092Y416573D01*
X195091Y416568D01*
X195112Y416475D01*
X195130Y416381D01*
X195133Y416377D01*
X195134Y416372D01*
X195190Y416294D01*
X195243Y416216D01*
X195247Y416213D01*
X195250Y416209D01*
X195332Y416158D01*
X195411Y416106D01*
X195416Y416106D01*
X195421Y416103D01*
X195598Y416071D01*
X278784Y416071D01*
X282338Y414598D01*
X285058Y411878D01*
X286531Y408324D01*
X286531Y404476D01*
X285058Y400922D01*
X282338Y398202D01*
X281338Y397787D01*
X281337Y397787D01*
X280113Y397280D01*
X278888Y396773D01*
X278784Y396729D01*
X195598Y396729D01*
X195593Y396728D01*
X195588Y396729D01*
X195495Y396708D01*
X195401Y396690D01*
X195397Y396687D01*
X195392Y396686D01*
X195314Y396630D01*
X195236Y396577D01*
X195233Y396573D01*
X195229Y396570D01*
X195178Y396488D01*
X195126Y396409D01*
X195126Y396404D01*
X195123Y396399D01*
X195091Y396222D01*
X195091Y373996D01*
X193618Y370442D01*
X190827Y367650D01*
X175681Y352505D01*
X175677Y352498D01*
X175671Y352494D01*
X175622Y352415D01*
X175570Y352338D01*
X175569Y352330D01*
X175565Y352323D01*
X175533Y352146D01*
X175533Y347580D01*
X174301Y344608D01*
X174300Y344599D01*
X174295Y344591D01*
X174263Y344413D01*
X174263Y338970D01*
X174264Y338962D01*
X174263Y338954D01*
X174284Y338864D01*
X174302Y338773D01*
X174307Y338767D01*
X174309Y338759D01*
X174411Y338611D01*
X177302Y335721D01*
X178581Y332633D01*
X178581Y329291D01*
X177986Y327854D01*
X177984Y327846D01*
X177980Y327840D01*
X177965Y327748D01*
X177947Y327657D01*
X177949Y327650D01*
X177947Y327642D01*
X177986Y327466D01*
X178581Y326029D01*
X178581Y322687D01*
X177302Y319599D01*
X170621Y312918D01*
X169778Y312569D01*
X168553Y312062D01*
X167533Y311639D01*
X164191Y311639D01*
X161103Y312918D01*
X158740Y315281D01*
X158183Y316627D01*
X158178Y316634D01*
X158177Y316642D01*
X158122Y316717D01*
X158071Y316794D01*
X158064Y316798D01*
X158060Y316804D01*
X157908Y316902D01*
X155261Y317998D01*
X152898Y320361D01*
X151619Y323449D01*
X151619Y326791D01*
X151741Y327085D01*
X151743Y327093D01*
X151747Y327099D01*
X151762Y327191D01*
X151780Y327282D01*
X151778Y327289D01*
X151779Y327297D01*
X151741Y327473D01*
X151619Y327767D01*
X151619Y331109D01*
X152898Y334197D01*
X157313Y338611D01*
X157317Y338618D01*
X157323Y338622D01*
X157372Y338701D01*
X157424Y338778D01*
X157425Y338786D01*
X157429Y338793D01*
X157461Y338970D01*
X157461Y344413D01*
X157459Y344422D01*
X157461Y344431D01*
X157423Y344608D01*
X156191Y347580D01*
X156191Y358286D01*
X157664Y361840D01*
X160455Y364632D01*
X175601Y379777D01*
X175605Y379784D01*
X175611Y379788D01*
X175660Y379867D01*
X175712Y379944D01*
X175713Y379952D01*
X175717Y379959D01*
X175749Y380136D01*
X175749Y421234D01*
X175748Y421242D01*
X175749Y421250D01*
X175728Y421339D01*
X175710Y421431D01*
X175705Y421437D01*
X175703Y421445D01*
X175601Y421593D01*
X175467Y421727D01*
X175460Y421731D01*
X175456Y421737D01*
X175377Y421786D01*
X175300Y421838D01*
X175292Y421839D01*
X175285Y421843D01*
X175108Y421875D01*
X171810Y421875D01*
X169407Y422871D01*
X169398Y422872D01*
X169390Y422877D01*
X169212Y422909D01*
X160669Y422909D01*
X160667Y422909D01*
X160664Y422909D01*
X160569Y422889D01*
X160473Y422870D01*
X160471Y422868D01*
X160468Y422868D01*
X160387Y422812D01*
X160307Y422757D01*
X160305Y422755D01*
X160303Y422753D01*
X160250Y422670D01*
X160198Y422589D01*
X160197Y422586D01*
X160196Y422584D01*
X160179Y422488D01*
X160162Y422392D01*
X160163Y422389D01*
X160162Y422387D01*
X160184Y422293D01*
X160206Y422196D01*
X160207Y422194D01*
X160208Y422191D01*
X160311Y422043D01*
X166643Y415711D01*
X166643Y388148D01*
X166644Y388140D01*
X166643Y388133D01*
X166664Y388043D01*
X166682Y387952D01*
X166687Y387945D01*
X166689Y387937D01*
X166791Y387789D01*
X167659Y386922D01*
X167659Y382698D01*
X164672Y379711D01*
X160448Y379711D01*
X157461Y382698D01*
X157461Y386922D01*
X158329Y387789D01*
X158333Y387796D01*
X158339Y387801D01*
X158388Y387879D01*
X158440Y387956D01*
X158441Y387964D01*
X158445Y387971D01*
X158477Y388148D01*
X158477Y412119D01*
X158476Y412127D01*
X158477Y412134D01*
X158456Y412224D01*
X158438Y412315D01*
X158433Y412322D01*
X158431Y412329D01*
X158329Y412477D01*
X150857Y419949D01*
X150851Y419953D01*
X150846Y419959D01*
X150768Y420008D01*
X150690Y420060D01*
X150683Y420061D01*
X150676Y420065D01*
X150499Y420097D01*
X123821Y420097D01*
X123813Y420096D01*
X123806Y420097D01*
X123716Y420076D01*
X123625Y420058D01*
X123618Y420053D01*
X123611Y420051D01*
X123463Y419949D01*
X65191Y361677D01*
X65187Y361671D01*
X65181Y361666D01*
X65132Y361588D01*
X65080Y361510D01*
X65079Y361503D01*
X65075Y361496D01*
X65043Y361319D01*
X65043Y354671D01*
X52999Y342627D01*
X51598Y342627D01*
X51590Y342626D01*
X51583Y342627D01*
X51493Y342606D01*
X51402Y342588D01*
X51395Y342583D01*
X51387Y342581D01*
X51239Y342479D01*
X50372Y341611D01*
X46148Y341611D01*
X43161Y344598D01*
X43161Y348822D01*
X46148Y351809D01*
X50423Y351809D01*
X50431Y351810D01*
X50438Y351809D01*
X50528Y351830D01*
X50619Y351848D01*
X50626Y351853D01*
X50633Y351855D01*
X50781Y351957D01*
X56729Y357905D01*
X56729Y357906D01*
X56730Y357906D01*
X56734Y357912D01*
X56739Y357916D01*
X56788Y357994D01*
X56840Y358072D01*
X56841Y358079D01*
X56845Y358086D01*
X56877Y358263D01*
X56877Y364911D01*
X114009Y422043D01*
X114011Y422046D01*
X114013Y422047D01*
X114066Y422128D01*
X114120Y422210D01*
X114121Y422213D01*
X114122Y422215D01*
X114140Y422311D01*
X114158Y422407D01*
X114157Y422410D01*
X114158Y422412D01*
X114136Y422509D01*
X114116Y422603D01*
X114115Y422605D01*
X114114Y422608D01*
X114058Y422688D01*
X114002Y422768D01*
X114000Y422769D01*
X113998Y422771D01*
X113916Y422823D01*
X113833Y422875D01*
X113830Y422876D01*
X113828Y422877D01*
X113651Y422909D01*
X111139Y422909D01*
X111131Y422908D01*
X111124Y422909D01*
X111034Y422888D01*
X110943Y422870D01*
X110936Y422865D01*
X110929Y422863D01*
X110781Y422761D01*
X52999Y364979D01*
X52995Y364973D01*
X52989Y364968D01*
X52940Y364890D01*
X52888Y364812D01*
X52887Y364805D01*
X52883Y364798D01*
X52851Y364621D01*
X52851Y363510D01*
X52852Y363502D01*
X52851Y363495D01*
X52872Y363405D01*
X52890Y363314D01*
X52895Y363307D01*
X52897Y363299D01*
X52999Y363151D01*
X53867Y362284D01*
X53867Y358060D01*
X50880Y355073D01*
X46656Y355073D01*
X43669Y358060D01*
X43669Y358743D01*
X43668Y358748D01*
X43669Y358754D01*
X43648Y358847D01*
X43630Y358940D01*
X43627Y358944D01*
X43626Y358949D01*
X43570Y359027D01*
X43517Y359106D01*
X43513Y359108D01*
X43510Y359113D01*
X43428Y359163D01*
X43349Y359215D01*
X43344Y359216D01*
X43339Y359219D01*
X43162Y359251D01*
X18052Y359251D01*
X18047Y359249D01*
X18042Y359250D01*
X17949Y359230D01*
X17855Y359211D01*
X17851Y359208D01*
X17846Y359207D01*
X17768Y359152D01*
X17690Y359098D01*
X17687Y359094D01*
X17683Y359091D01*
X17632Y359009D01*
X17580Y358930D01*
X17580Y358925D01*
X17577Y358921D01*
X17545Y358743D01*
X17545Y284306D01*
X17546Y284298D01*
X17545Y284290D01*
X17566Y284200D01*
X17584Y284109D01*
X17589Y284103D01*
X17591Y284095D01*
X17693Y283947D01*
X23089Y278551D01*
X23096Y278547D01*
X23100Y278541D01*
X23179Y278492D01*
X23256Y278440D01*
X23264Y278439D01*
X23270Y278435D01*
X23448Y278403D01*
X31162Y278403D01*
X31170Y278404D01*
X31178Y278403D01*
X31268Y278424D01*
X31359Y278442D01*
X31365Y278447D01*
X31373Y278449D01*
X31521Y278551D01*
X33869Y280899D01*
X33873Y280906D01*
X33879Y280910D01*
X33928Y280989D01*
X33980Y281066D01*
X33981Y281074D01*
X33985Y281080D01*
X34017Y281258D01*
X34017Y281868D01*
X34017Y281871D01*
X34017Y281873D01*
X33997Y281968D01*
X33978Y282064D01*
X33976Y282067D01*
X33976Y282069D01*
X33920Y282150D01*
X33865Y282230D01*
X33863Y282232D01*
X33861Y282234D01*
X33778Y282287D01*
X33697Y282340D01*
X33694Y282340D01*
X33692Y282341D01*
X33596Y282358D01*
X33500Y282375D01*
X33497Y282375D01*
X33495Y282375D01*
X33401Y282353D01*
X33304Y282332D01*
X33302Y282330D01*
X33299Y282329D01*
X33151Y282227D01*
X30814Y279889D01*
X26590Y279889D01*
X23603Y282876D01*
X23603Y284103D01*
X23602Y284111D01*
X23603Y284118D01*
X23582Y284208D01*
X23564Y284299D01*
X23559Y284306D01*
X23557Y284313D01*
X23455Y284461D01*
X21317Y286599D01*
X21317Y324271D01*
X23857Y326811D01*
X36409Y339363D01*
X52455Y339363D01*
X52463Y339364D01*
X52470Y339363D01*
X52560Y339384D01*
X52651Y339402D01*
X52658Y339407D01*
X52665Y339409D01*
X52813Y339511D01*
X70699Y357397D01*
X70700Y357398D01*
X70701Y357399D01*
X70704Y357404D01*
X70709Y357408D01*
X70758Y357486D01*
X70810Y357564D01*
X70811Y357571D01*
X70815Y357578D01*
X70847Y357755D01*
X70847Y362625D01*
X73387Y365165D01*
X123023Y414801D01*
X125563Y417341D01*
X135115Y417341D01*
X135122Y417342D01*
X135130Y417341D01*
X135220Y417362D01*
X135311Y417380D01*
X135318Y417385D01*
X135325Y417387D01*
X135473Y417489D01*
X136325Y418341D01*
X140535Y418341D01*
X143513Y415363D01*
X143513Y411153D01*
X140535Y408175D01*
X136325Y408175D01*
X135473Y409027D01*
X135467Y409031D01*
X135462Y409037D01*
X135384Y409086D01*
X135306Y409138D01*
X135299Y409139D01*
X135292Y409143D01*
X135115Y409175D01*
X129155Y409175D01*
X129147Y409174D01*
X129140Y409175D01*
X129050Y409154D01*
X128959Y409136D01*
X128952Y409131D01*
X128945Y409129D01*
X128797Y409027D01*
X79161Y359391D01*
X79157Y359385D01*
X79151Y359380D01*
X79102Y359302D01*
X79050Y359225D01*
X79049Y359217D01*
X79045Y359210D01*
X79013Y359033D01*
X79013Y354163D01*
X56047Y331197D01*
X40001Y331197D01*
X39993Y331196D01*
X39986Y331197D01*
X39896Y331176D01*
X39805Y331158D01*
X39798Y331153D01*
X39791Y331151D01*
X39643Y331049D01*
X29631Y321037D01*
X29627Y321031D01*
X29621Y321026D01*
X29572Y320948D01*
X29520Y320871D01*
X29519Y320863D01*
X29515Y320856D01*
X29483Y320679D01*
X29483Y290594D01*
X29484Y290589D01*
X29483Y290584D01*
X29504Y290491D01*
X29522Y290397D01*
X29525Y290393D01*
X29526Y290388D01*
X29582Y290310D01*
X29635Y290232D01*
X29639Y290229D01*
X29642Y290225D01*
X29724Y290174D01*
X29803Y290122D01*
X29808Y290122D01*
X29813Y290119D01*
X29990Y290087D01*
X30814Y290087D01*
X33151Y287749D01*
X33154Y287748D01*
X33155Y287746D01*
X33236Y287693D01*
X33318Y287638D01*
X33321Y287638D01*
X33323Y287636D01*
X33419Y287619D01*
X33515Y287601D01*
X33518Y287601D01*
X33520Y287601D01*
X33617Y287622D01*
X33711Y287642D01*
X33713Y287644D01*
X33716Y287644D01*
X33796Y287701D01*
X33876Y287757D01*
X33877Y287759D01*
X33879Y287760D01*
X33931Y287843D01*
X33983Y287926D01*
X33984Y287928D01*
X33985Y287931D01*
X34017Y288108D01*
X34017Y298066D01*
X48503Y312551D01*
X48505Y312554D01*
X48507Y312555D01*
X48559Y312636D01*
X48614Y312718D01*
X48615Y312721D01*
X48616Y312723D01*
X48633Y312819D01*
X48652Y312915D01*
X48651Y312918D01*
X48652Y312920D01*
X48630Y313017D01*
X48610Y313111D01*
X48609Y313113D01*
X48608Y313116D01*
X48551Y313196D01*
X48496Y313276D01*
X48493Y313277D01*
X48492Y313279D01*
X48409Y313331D01*
X48327Y313383D01*
X48324Y313384D01*
X48322Y313385D01*
X48144Y313417D01*
X44624Y313417D01*
X41637Y316404D01*
X41637Y320628D01*
X44624Y323615D01*
X45851Y323615D01*
X45859Y323616D01*
X45866Y323615D01*
X45956Y323636D01*
X46047Y323654D01*
X46054Y323659D01*
X46061Y323661D01*
X46209Y323763D01*
X47331Y324885D01*
X51439Y324885D01*
X51447Y324886D01*
X51454Y324885D01*
X51544Y324906D01*
X51635Y324924D01*
X51642Y324929D01*
X51649Y324931D01*
X51797Y325033D01*
X115403Y388639D01*
X128960Y388639D01*
X128963Y388639D01*
X128965Y388639D01*
X129060Y388659D01*
X129156Y388678D01*
X129159Y388680D01*
X129161Y388680D01*
X129242Y388736D01*
X129322Y388791D01*
X129324Y388793D01*
X129326Y388795D01*
X129379Y388878D01*
X129432Y388959D01*
X129432Y388962D01*
X129433Y388964D01*
X129450Y389060D01*
X129467Y389156D01*
X129467Y389159D01*
X129467Y389161D01*
X129445Y389255D01*
X129424Y389352D01*
X129422Y389354D01*
X129421Y389357D01*
X129319Y389505D01*
X126473Y392350D01*
X126473Y396574D01*
X129460Y399561D01*
X133684Y399561D01*
X136671Y396574D01*
X136671Y392350D01*
X133825Y389505D01*
X133824Y389502D01*
X133822Y389501D01*
X133769Y389420D01*
X133714Y389338D01*
X133714Y389335D01*
X133712Y389333D01*
X133695Y389237D01*
X133677Y389141D01*
X133677Y389138D01*
X133677Y389136D01*
X133698Y389039D01*
X133718Y388945D01*
X133720Y388943D01*
X133720Y388940D01*
X133777Y388860D01*
X133833Y388780D01*
X133835Y388779D01*
X133836Y388777D01*
X133919Y388725D01*
X134002Y388673D01*
X134004Y388672D01*
X134007Y388671D01*
X134184Y388639D01*
X135092Y388639D01*
X135100Y388640D01*
X135107Y388639D01*
X135197Y388660D01*
X135288Y388678D01*
X135295Y388683D01*
X135303Y388685D01*
X135451Y388787D01*
X136318Y389655D01*
X140542Y389655D01*
X143529Y386668D01*
X143529Y382444D01*
X140542Y379457D01*
X136318Y379457D01*
X135451Y380325D01*
X135444Y380329D01*
X135439Y380335D01*
X135361Y380384D01*
X135284Y380436D01*
X135276Y380437D01*
X135269Y380441D01*
X135092Y380473D01*
X118995Y380473D01*
X118987Y380472D01*
X118980Y380473D01*
X118890Y380452D01*
X118799Y380434D01*
X118792Y380429D01*
X118785Y380427D01*
X118637Y380325D01*
X55031Y316719D01*
X52342Y316719D01*
X52337Y316718D01*
X52332Y316719D01*
X52239Y316698D01*
X52145Y316680D01*
X52141Y316677D01*
X52136Y316676D01*
X52058Y316620D01*
X51980Y316567D01*
X51977Y316563D01*
X51973Y316560D01*
X51943Y316513D01*
X50005Y314575D01*
X50004Y314572D01*
X50002Y314571D01*
X49949Y314490D01*
X49894Y314408D01*
X49894Y314405D01*
X49892Y314403D01*
X49875Y314307D01*
X49857Y314211D01*
X49857Y314208D01*
X49857Y314206D01*
X49878Y314109D01*
X49898Y314015D01*
X49900Y314013D01*
X49900Y314010D01*
X49958Y313929D01*
X50013Y313850D01*
X50015Y313849D01*
X50016Y313847D01*
X50099Y313795D01*
X50182Y313743D01*
X50184Y313742D01*
X50187Y313741D01*
X50364Y313709D01*
X60880Y313709D01*
X60888Y313710D01*
X60896Y313709D01*
X60986Y313730D01*
X61077Y313748D01*
X61083Y313753D01*
X61091Y313755D01*
X61239Y313857D01*
X117732Y370351D01*
X136522Y370351D01*
X146831Y360042D01*
X146831Y322152D01*
X146832Y322144D01*
X146831Y322136D01*
X146852Y322046D01*
X146870Y321955D01*
X146875Y321949D01*
X146877Y321941D01*
X146979Y321793D01*
X159233Y309539D01*
X159240Y309535D01*
X159244Y309529D01*
X159323Y309480D01*
X159400Y309428D01*
X159408Y309427D01*
X159414Y309423D01*
X159592Y309391D01*
X268583Y309391D01*
X268589Y309392D01*
X268596Y309391D01*
X268687Y309412D01*
X268779Y309430D01*
X268785Y309434D01*
X268791Y309435D01*
X268868Y309490D01*
X268945Y309543D01*
X268949Y309548D01*
X268954Y309552D01*
X269052Y309704D01*
X269153Y309949D01*
X271711Y312507D01*
X272052Y312648D01*
X273277Y313156D01*
X274501Y313663D01*
X274502Y313663D01*
X275052Y313891D01*
X278668Y313891D01*
X282009Y312507D01*
X284567Y309949D01*
X285951Y306608D01*
X285951Y302992D01*
X284567Y299651D01*
X282009Y297093D01*
X281409Y296844D01*
X280184Y296337D01*
X278960Y295830D01*
X278959Y295830D01*
X278668Y295709D01*
X275052Y295709D01*
X271711Y297093D01*
X269153Y299651D01*
X269052Y299896D01*
X269048Y299902D01*
X269046Y299908D01*
X268992Y299984D01*
X268940Y300063D01*
X268934Y300066D01*
X268930Y300071D01*
X268851Y300121D01*
X268772Y300173D01*
X268766Y300174D01*
X268760Y300177D01*
X268583Y300209D01*
X155578Y300209D01*
X137649Y318138D01*
X137649Y356028D01*
X137648Y356036D01*
X137649Y356044D01*
X137628Y356134D01*
X137610Y356225D01*
X137605Y356231D01*
X137603Y356239D01*
X137501Y356387D01*
X132867Y361021D01*
X132860Y361025D01*
X132856Y361031D01*
X132777Y361080D01*
X132700Y361132D01*
X132692Y361133D01*
X132686Y361137D01*
X132508Y361169D01*
X121746Y361169D01*
X121738Y361168D01*
X121730Y361169D01*
X121640Y361148D01*
X121549Y361130D01*
X121543Y361125D01*
X121535Y361123D01*
X121387Y361021D01*
X64894Y304527D01*
X53674Y304527D01*
X53666Y304526D01*
X53658Y304527D01*
X53568Y304506D01*
X53477Y304488D01*
X53471Y304483D01*
X53463Y304481D01*
X53315Y304379D01*
X43347Y294411D01*
X43343Y294404D01*
X43337Y294400D01*
X43288Y294321D01*
X43236Y294244D01*
X43235Y294236D01*
X43231Y294230D01*
X43199Y294052D01*
X43199Y289973D01*
X43199Y289971D01*
X43199Y289968D01*
X43219Y289873D01*
X43238Y289777D01*
X43240Y289774D01*
X43240Y289772D01*
X43296Y289691D01*
X43351Y289611D01*
X43353Y289609D01*
X43355Y289607D01*
X43438Y289554D01*
X43519Y289502D01*
X43522Y289501D01*
X43524Y289500D01*
X43620Y289483D01*
X43716Y289466D01*
X43719Y289467D01*
X43721Y289466D01*
X43815Y289488D01*
X43912Y289510D01*
X43914Y289511D01*
X43917Y289512D01*
X44065Y289614D01*
X46717Y292267D01*
X57237Y302787D01*
X68203Y302787D01*
X68211Y302788D01*
X68218Y302787D01*
X68308Y302808D01*
X68399Y302826D01*
X68406Y302831D01*
X68413Y302833D01*
X68561Y302935D01*
X73493Y307867D01*
X102834Y307867D01*
X102842Y307868D01*
X102849Y307867D01*
X102939Y307888D01*
X103030Y307906D01*
X103037Y307911D01*
X103045Y307913D01*
X103193Y308015D01*
X104060Y308883D01*
X108284Y308883D01*
X111271Y305896D01*
X111271Y301672D01*
X108284Y298685D01*
X104060Y298685D01*
X103193Y299553D01*
X103186Y299557D01*
X103181Y299563D01*
X103103Y299612D01*
X103026Y299664D01*
X103018Y299665D01*
X103011Y299669D01*
X102834Y299701D01*
X77085Y299701D01*
X77077Y299700D01*
X77070Y299701D01*
X76980Y299680D01*
X76889Y299662D01*
X76882Y299657D01*
X76875Y299655D01*
X76727Y299553D01*
X71795Y294621D01*
X60829Y294621D01*
X60821Y294620D01*
X60814Y294621D01*
X60724Y294600D01*
X60633Y294582D01*
X60626Y294577D01*
X60619Y294575D01*
X60471Y294473D01*
X52491Y286493D01*
X52487Y286487D01*
X52481Y286482D01*
X52432Y286404D01*
X52380Y286326D01*
X52379Y286319D01*
X52375Y286312D01*
X52343Y286135D01*
X52343Y268565D01*
X36489Y252711D01*
X36485Y252705D01*
X36479Y252700D01*
X36430Y252622D01*
X36378Y252544D01*
X36377Y252537D01*
X36373Y252530D01*
X36341Y252353D01*
X36341Y247940D01*
X36342Y247932D01*
X36341Y247925D01*
X36362Y247835D01*
X36380Y247744D01*
X36385Y247737D01*
X36387Y247729D01*
X36489Y247581D01*
X38119Y245952D01*
X38119Y241728D01*
X35132Y238741D01*
X30908Y238741D01*
X27921Y241728D01*
X27921Y241982D01*
X27920Y241990D01*
X27921Y241998D01*
X27900Y242088D01*
X27882Y242179D01*
X27877Y242185D01*
X27875Y242193D01*
X27773Y242341D01*
X27667Y242446D01*
X27667Y246250D01*
X28027Y246609D01*
X28031Y246616D01*
X28037Y246620D01*
X28086Y246698D01*
X28138Y246776D01*
X28139Y246784D01*
X28143Y246790D01*
X28175Y246968D01*
X28175Y255945D01*
X44029Y271799D01*
X44033Y271805D01*
X44039Y271810D01*
X44088Y271888D01*
X44140Y271966D01*
X44141Y271973D01*
X44145Y271980D01*
X44177Y272157D01*
X44177Y276998D01*
X44177Y277001D01*
X44177Y277004D01*
X44157Y277098D01*
X44138Y277195D01*
X44136Y277197D01*
X44136Y277200D01*
X44080Y277280D01*
X44025Y277361D01*
X44023Y277362D01*
X44021Y277364D01*
X43938Y277418D01*
X43857Y277470D01*
X43854Y277470D01*
X43852Y277472D01*
X43756Y277488D01*
X43660Y277506D01*
X43657Y277505D01*
X43655Y277505D01*
X43561Y277484D01*
X43464Y277462D01*
X43462Y277460D01*
X43459Y277460D01*
X43311Y277357D01*
X40361Y274407D01*
X35176Y269221D01*
X19434Y269221D01*
X16597Y272059D01*
X11154Y277502D01*
X11151Y277504D01*
X11150Y277506D01*
X11069Y277558D01*
X10987Y277613D01*
X10984Y277614D01*
X10982Y277615D01*
X10886Y277632D01*
X10790Y277651D01*
X10787Y277650D01*
X10785Y277651D01*
X10688Y277629D01*
X10594Y277609D01*
X10592Y277608D01*
X10589Y277607D01*
X10509Y277550D01*
X10429Y277495D01*
X10428Y277492D01*
X10426Y277491D01*
X10374Y277408D01*
X10322Y277326D01*
X10321Y277323D01*
X10320Y277321D01*
X10288Y277143D01*
X10288Y93877D01*
X10288Y93876D01*
X10288Y93875D01*
X10308Y93779D01*
X10327Y93681D01*
X10328Y93680D01*
X10328Y93679D01*
X10385Y93597D01*
X10440Y93515D01*
X10441Y93514D01*
X10442Y93513D01*
X10527Y93458D01*
X10608Y93406D01*
X10609Y93406D01*
X10610Y93405D01*
X10709Y93388D01*
X10805Y93370D01*
X10807Y93371D01*
X10808Y93370D01*
X10905Y93392D01*
X11001Y93414D01*
X11002Y93415D01*
X11003Y93415D01*
X11083Y93472D01*
X11164Y93530D01*
X11165Y93531D01*
X11166Y93532D01*
X11264Y93683D01*
X11427Y94079D01*
X14125Y96777D01*
X14826Y97067D01*
X14827Y97067D01*
X16051Y97574D01*
X17276Y98082D01*
X17650Y98237D01*
X21466Y98237D01*
X24991Y96777D01*
X27689Y94079D01*
X29149Y90554D01*
X29149Y86738D01*
X27689Y83213D01*
X24991Y80515D01*
X24347Y80249D01*
X23122Y79741D01*
X21898Y79234D01*
X21897Y79234D01*
X21466Y79055D01*
X17650Y79055D01*
X14125Y80515D01*
X11427Y83213D01*
X11264Y83609D01*
X11263Y83610D01*
X11263Y83611D01*
X11207Y83693D01*
X11152Y83775D01*
X11151Y83776D01*
X11150Y83777D01*
X11068Y83830D01*
X10984Y83885D01*
X10983Y83885D01*
X10982Y83886D01*
X10885Y83903D01*
X10787Y83922D01*
X10786Y83921D01*
X10785Y83922D01*
X10685Y83900D01*
X10591Y83879D01*
X10590Y83878D01*
X10589Y83878D01*
X10507Y83820D01*
X10427Y83764D01*
X10427Y83763D01*
X10426Y83762D01*
X10373Y83678D01*
X10321Y83594D01*
X10320Y83593D01*
X10320Y83592D01*
X10288Y83415D01*
X10288Y68477D01*
X10288Y68476D01*
X10288Y68475D01*
X10308Y68379D01*
X10327Y68281D01*
X10328Y68280D01*
X10328Y68279D01*
X10385Y68197D01*
X10440Y68115D01*
X10441Y68114D01*
X10442Y68113D01*
X10527Y68058D01*
X10608Y68006D01*
X10609Y68006D01*
X10610Y68005D01*
X10709Y67988D01*
X10805Y67970D01*
X10807Y67971D01*
X10808Y67970D01*
X10905Y67992D01*
X11001Y68014D01*
X11002Y68015D01*
X11003Y68015D01*
X11083Y68072D01*
X11164Y68130D01*
X11165Y68131D01*
X11166Y68132D01*
X11264Y68283D01*
X11427Y68679D01*
X14125Y71377D01*
X14917Y71705D01*
X16142Y72212D01*
X17366Y72719D01*
X17650Y72837D01*
X21466Y72837D01*
X24991Y71377D01*
X27689Y68679D01*
X29149Y65154D01*
X29149Y61338D01*
X27689Y57813D01*
X24991Y55115D01*
X24437Y54886D01*
X23213Y54379D01*
X21988Y53872D01*
X21466Y53655D01*
X17650Y53655D01*
X14125Y55115D01*
X11427Y57813D01*
X11264Y58209D01*
X11263Y58210D01*
X11263Y58211D01*
X11207Y58293D01*
X11152Y58375D01*
X11151Y58376D01*
X11150Y58377D01*
X11068Y58430D01*
X10984Y58485D01*
X10983Y58485D01*
X10982Y58486D01*
X10885Y58503D01*
X10787Y58522D01*
X10786Y58521D01*
X10785Y58522D01*
X10685Y58500D01*
X10591Y58479D01*
X10590Y58478D01*
X10589Y58478D01*
X10507Y58420D01*
X10427Y58364D01*
X10427Y58363D01*
X10426Y58362D01*
X10373Y58278D01*
X10321Y58194D01*
X10320Y58193D01*
X10320Y58192D01*
X10288Y58015D01*
X10288Y10795D01*
X10289Y10790D01*
X10288Y10785D01*
X10309Y10692D01*
X10327Y10598D01*
X10330Y10594D01*
X10331Y10589D01*
X10387Y10511D01*
X10440Y10433D01*
X10444Y10430D01*
X10447Y10426D01*
X10529Y10375D01*
X10608Y10323D01*
X10613Y10323D01*
X10618Y10320D01*
X10795Y10288D01*
X117339Y10288D01*
X117375Y10295D01*
G37*
G36*
X42746Y362095D02*
X42746Y362095D01*
X42821Y362108D01*
X42831Y362115D01*
X42841Y362117D01*
X42870Y362141D01*
X42941Y362189D01*
X44574Y363822D01*
X44614Y363887D01*
X44658Y363949D01*
X44660Y363961D01*
X44665Y363969D01*
X44669Y364006D01*
X44685Y364091D01*
X44685Y368213D01*
X110868Y434396D01*
X110908Y434460D01*
X110952Y434522D01*
X110954Y434534D01*
X110959Y434543D01*
X110963Y434580D01*
X110979Y434665D01*
X110979Y451541D01*
X110962Y451615D01*
X110949Y451690D01*
X110942Y451700D01*
X110940Y451710D01*
X110916Y451739D01*
X110868Y451810D01*
X103576Y459102D01*
X103512Y459142D01*
X103450Y459186D01*
X103438Y459188D01*
X103429Y459193D01*
X103392Y459197D01*
X103307Y459213D01*
X102028Y459213D01*
X99041Y462200D01*
X99041Y466424D01*
X102028Y469411D01*
X106252Y469411D01*
X109239Y466424D01*
X109239Y465145D01*
X109256Y465071D01*
X109269Y464996D01*
X109276Y464986D01*
X109278Y464976D01*
X109302Y464947D01*
X109350Y464876D01*
X119145Y455081D01*
X119145Y431125D01*
X115771Y427751D01*
X115757Y427729D01*
X115737Y427713D01*
X115712Y427656D01*
X115679Y427604D01*
X115677Y427578D01*
X115666Y427554D01*
X115669Y427493D01*
X115663Y427431D01*
X115672Y427407D01*
X115673Y427381D01*
X115702Y427327D01*
X115724Y427269D01*
X115743Y427252D01*
X115756Y427229D01*
X115806Y427194D01*
X115852Y427152D01*
X115876Y427144D01*
X115897Y427129D01*
X115982Y427113D01*
X116018Y427102D01*
X116028Y427104D01*
X116040Y427102D01*
X118910Y427102D01*
X118984Y427119D01*
X119059Y427132D01*
X119069Y427139D01*
X119079Y427141D01*
X119108Y427165D01*
X119179Y427213D01*
X120229Y428263D01*
X154091Y428263D01*
X155141Y427213D01*
X155205Y427173D01*
X155267Y427129D01*
X155279Y427127D01*
X155288Y427122D01*
X155325Y427118D01*
X155410Y427102D01*
X165729Y427102D01*
X165767Y427111D01*
X165806Y427109D01*
X165850Y427130D01*
X165898Y427141D01*
X165928Y427166D01*
X165963Y427182D01*
X165994Y427220D01*
X166032Y427251D01*
X166048Y427287D01*
X166072Y427317D01*
X166083Y427365D01*
X166103Y427410D01*
X166101Y427448D01*
X166110Y427486D01*
X166098Y427545D01*
X166097Y427553D01*
X166097Y430424D01*
X167183Y433045D01*
X171574Y437436D01*
X171614Y437501D01*
X171658Y437563D01*
X171660Y437575D01*
X171665Y437584D01*
X171669Y437621D01*
X171685Y437705D01*
X171685Y438298D01*
X172771Y440919D01*
X174777Y442925D01*
X177398Y444011D01*
X180234Y444011D01*
X180448Y443922D01*
X180486Y443916D01*
X180522Y443900D01*
X180571Y443902D01*
X180619Y443894D01*
X180656Y443905D01*
X180695Y443907D01*
X180738Y443930D01*
X180785Y443945D01*
X180813Y443971D01*
X180847Y443989D01*
X180875Y444030D01*
X180911Y444064D01*
X180924Y444100D01*
X180947Y444131D01*
X180958Y444191D01*
X180971Y444226D01*
X180969Y444247D01*
X180974Y444273D01*
X180974Y446362D01*
X180957Y446436D01*
X180944Y446511D01*
X180937Y446521D01*
X180935Y446531D01*
X180911Y446560D01*
X180863Y446631D01*
X178804Y448690D01*
X178739Y448730D01*
X178677Y448774D01*
X178665Y448776D01*
X178657Y448781D01*
X178620Y448785D01*
X178535Y448801D01*
X164519Y448801D01*
X119109Y494211D01*
X119109Y507301D01*
X119092Y507375D01*
X119079Y507450D01*
X119072Y507460D01*
X119070Y507470D01*
X119046Y507498D01*
X118998Y507570D01*
X111240Y515328D01*
X111175Y515368D01*
X111113Y515412D01*
X111101Y515414D01*
X111093Y515419D01*
X111056Y515423D01*
X110971Y515439D01*
X28729Y515439D01*
X28655Y515422D01*
X28580Y515409D01*
X28570Y515402D01*
X28560Y515400D01*
X28532Y515376D01*
X28460Y515328D01*
X25542Y512410D01*
X25502Y512345D01*
X25458Y512283D01*
X25456Y512271D01*
X25451Y512263D01*
X25447Y512226D01*
X25431Y512141D01*
X25431Y507533D01*
X25445Y507472D01*
X25452Y507408D01*
X25465Y507388D01*
X25470Y507365D01*
X25511Y507316D01*
X25545Y507262D01*
X25567Y507247D01*
X25580Y507231D01*
X25615Y507216D01*
X25665Y507182D01*
X26273Y506931D01*
X28971Y504233D01*
X30431Y500708D01*
X30431Y496892D01*
X28971Y493367D01*
X26273Y490669D01*
X22748Y489209D01*
X18932Y489209D01*
X15407Y490669D01*
X12709Y493367D01*
X11249Y496892D01*
X11249Y500708D01*
X12709Y504233D01*
X15407Y506931D01*
X16015Y507182D01*
X16066Y507219D01*
X16122Y507250D01*
X16136Y507269D01*
X16155Y507283D01*
X16185Y507339D01*
X16222Y507391D01*
X16227Y507418D01*
X16237Y507436D01*
X16238Y507474D01*
X16249Y507533D01*
X16249Y516102D01*
X21968Y521820D01*
X22611Y522463D01*
X22624Y522485D01*
X22644Y522501D01*
X22670Y522558D01*
X22702Y522610D01*
X22705Y522636D01*
X22715Y522660D01*
X22713Y522721D01*
X22719Y522783D01*
X22710Y522807D01*
X22709Y522833D01*
X22679Y522887D01*
X22657Y522945D01*
X22638Y522962D01*
X22626Y522985D01*
X22576Y523020D01*
X22530Y523062D01*
X22505Y523070D01*
X22484Y523085D01*
X22400Y523101D01*
X22364Y523112D01*
X22354Y523110D01*
X22342Y523112D01*
X10668Y523112D01*
X10618Y523101D01*
X10567Y523099D01*
X10535Y523081D01*
X10499Y523073D01*
X10460Y523040D01*
X10415Y523016D01*
X10394Y522986D01*
X10366Y522963D01*
X10345Y522916D01*
X10315Y522874D01*
X10307Y522832D01*
X10295Y522804D01*
X10296Y522774D01*
X10288Y522732D01*
X10288Y377804D01*
X10294Y377779D01*
X10291Y377753D01*
X10313Y377695D01*
X10327Y377635D01*
X10344Y377615D01*
X10353Y377591D01*
X10398Y377549D01*
X10437Y377502D01*
X10461Y377491D01*
X10480Y377473D01*
X10539Y377456D01*
X10596Y377431D01*
X10621Y377432D01*
X10646Y377424D01*
X10707Y377435D01*
X10769Y377437D01*
X10791Y377450D01*
X10817Y377454D01*
X10888Y377502D01*
X10921Y377520D01*
X10927Y377528D01*
X10937Y377535D01*
X11164Y377762D01*
X14462Y381060D01*
X14502Y381125D01*
X14546Y381187D01*
X14548Y381199D01*
X14553Y381207D01*
X14557Y381244D01*
X14573Y381329D01*
X14573Y384679D01*
X15843Y387745D01*
X18189Y390091D01*
X21255Y391361D01*
X24573Y391361D01*
X27639Y390091D01*
X29985Y387745D01*
X31255Y384679D01*
X31255Y381361D01*
X29985Y378295D01*
X27639Y375949D01*
X24573Y374679D01*
X21223Y374679D01*
X21149Y374662D01*
X21074Y374649D01*
X21064Y374642D01*
X21054Y374640D01*
X21025Y374616D01*
X20954Y374568D01*
X17656Y371270D01*
X17616Y371205D01*
X17572Y371143D01*
X17570Y371131D01*
X17565Y371123D01*
X17561Y371086D01*
X17545Y371001D01*
X17545Y362458D01*
X17556Y362408D01*
X17558Y362357D01*
X17576Y362325D01*
X17584Y362289D01*
X17617Y362250D01*
X17641Y362205D01*
X17671Y362184D01*
X17694Y362156D01*
X17741Y362135D01*
X17783Y362105D01*
X17825Y362097D01*
X17853Y362085D01*
X17883Y362086D01*
X17925Y362078D01*
X42672Y362078D01*
X42746Y362095D01*
G37*
%LPC*%
G36*
X554237Y47497D02*
X554237Y47497D01*
X540025Y51305D01*
X527282Y58662D01*
X516878Y69066D01*
X509521Y81809D01*
X505713Y96021D01*
X505713Y110735D01*
X509521Y124947D01*
X516878Y137690D01*
X527282Y148094D01*
X540025Y155451D01*
X554237Y159259D01*
X568951Y159259D01*
X583163Y155451D01*
X595906Y148094D01*
X606310Y137690D01*
X613667Y124947D01*
X617475Y110735D01*
X617475Y96021D01*
X613667Y81809D01*
X606310Y69066D01*
X595906Y58662D01*
X583163Y51305D01*
X568951Y47497D01*
X554237Y47497D01*
G37*
%LPD*%
%LPC*%
G36*
X166235Y192827D02*
X166235Y192827D01*
X163169Y194097D01*
X160823Y196443D01*
X159553Y199509D01*
X159553Y202806D01*
X159552Y202814D01*
X159553Y202822D01*
X159532Y202912D01*
X159514Y203003D01*
X159509Y203009D01*
X159507Y203017D01*
X159405Y203165D01*
X146837Y215733D01*
X146830Y215737D01*
X146826Y215743D01*
X146747Y215792D01*
X146670Y215844D01*
X146662Y215845D01*
X146656Y215849D01*
X146478Y215881D01*
X133458Y215881D01*
X133450Y215880D01*
X133442Y215881D01*
X133353Y215860D01*
X133261Y215842D01*
X133255Y215837D01*
X133247Y215835D01*
X133099Y215733D01*
X129640Y212274D01*
X129302Y212134D01*
X128078Y211626D01*
X126853Y211119D01*
X126086Y210801D01*
X102724Y210801D01*
X101591Y211271D01*
X101582Y211272D01*
X101574Y211277D01*
X101397Y211309D01*
X100228Y211309D01*
X100220Y211308D01*
X100212Y211309D01*
X100123Y211288D01*
X100031Y211270D01*
X100025Y211265D01*
X100017Y211263D01*
X99869Y211161D01*
X97680Y208972D01*
X96742Y208583D01*
X95517Y208076D01*
X94293Y207568D01*
X94292Y207568D01*
X94126Y207499D01*
X90278Y207499D01*
X86724Y208972D01*
X86584Y209112D01*
X86578Y209116D01*
X86574Y209121D01*
X86495Y209171D01*
X86417Y209223D01*
X86410Y209224D01*
X86405Y209228D01*
X86312Y209243D01*
X86220Y209260D01*
X86213Y209259D01*
X86207Y209260D01*
X86031Y209222D01*
X85713Y209090D01*
X84488Y208583D01*
X83712Y208261D01*
X79146Y208261D01*
X79138Y208260D01*
X79130Y208261D01*
X79041Y208240D01*
X78949Y208222D01*
X78943Y208217D01*
X78935Y208215D01*
X78787Y208113D01*
X78376Y207702D01*
X78055Y207568D01*
X78054Y207568D01*
X76830Y207061D01*
X75605Y206554D01*
X74822Y206229D01*
X70974Y206229D01*
X67420Y207702D01*
X64700Y210422D01*
X63227Y213976D01*
X63227Y217824D01*
X64700Y221378D01*
X69452Y226130D01*
X70141Y226416D01*
X71365Y226923D01*
X71366Y226923D01*
X72590Y227430D01*
X73006Y227603D01*
X77572Y227603D01*
X77580Y227604D01*
X77588Y227603D01*
X77677Y227624D01*
X77769Y227642D01*
X77775Y227647D01*
X77783Y227649D01*
X77931Y227751D01*
X78088Y227908D01*
X78158Y227938D01*
X79383Y228445D01*
X80607Y228952D01*
X80608Y228952D01*
X81642Y229381D01*
X90921Y229381D01*
X90930Y229383D01*
X90939Y229381D01*
X91116Y229419D01*
X91118Y229420D01*
X91212Y229459D01*
X92437Y229967D01*
X93661Y230474D01*
X94088Y230651D01*
X106064Y230651D01*
X107197Y230181D01*
X107206Y230180D01*
X107214Y230175D01*
X107391Y230143D01*
X119946Y230143D01*
X119954Y230144D01*
X119962Y230143D01*
X120051Y230164D01*
X120143Y230182D01*
X120149Y230187D01*
X120157Y230189D01*
X120305Y230291D01*
X184724Y294710D01*
X185168Y294895D01*
X185169Y294895D01*
X186393Y295402D01*
X187618Y295909D01*
X188278Y296183D01*
X250082Y296183D01*
X253636Y294710D01*
X259127Y289219D01*
X259134Y289215D01*
X259138Y289209D01*
X259217Y289160D01*
X259294Y289108D01*
X259302Y289107D01*
X259309Y289103D01*
X259486Y289071D01*
X278784Y289071D01*
X282338Y287598D01*
X285058Y284878D01*
X286531Y281324D01*
X286531Y277476D01*
X285058Y273922D01*
X282338Y271202D01*
X281790Y270975D01*
X280566Y270467D01*
X279341Y269960D01*
X278784Y269729D01*
X253346Y269729D01*
X249792Y271202D01*
X244301Y276693D01*
X244294Y276697D01*
X244290Y276703D01*
X244211Y276752D01*
X244134Y276804D01*
X244126Y276805D01*
X244119Y276809D01*
X243942Y276841D01*
X232298Y276841D01*
X232297Y276841D01*
X232296Y276841D01*
X232200Y276822D01*
X232102Y276802D01*
X232101Y276801D01*
X232099Y276801D01*
X232019Y276745D01*
X231936Y276689D01*
X231935Y276688D01*
X231934Y276687D01*
X231879Y276602D01*
X231827Y276521D01*
X231827Y276520D01*
X231826Y276519D01*
X231809Y276420D01*
X231791Y276324D01*
X231791Y276322D01*
X231791Y276321D01*
X231813Y276225D01*
X231835Y276128D01*
X231836Y276127D01*
X231836Y276126D01*
X231894Y276045D01*
X231951Y275965D01*
X231952Y275964D01*
X231953Y275963D01*
X232104Y275865D01*
X232763Y275593D01*
X235461Y272895D01*
X236921Y269370D01*
X236921Y265554D01*
X235461Y262029D01*
X232763Y259331D01*
X232706Y259308D01*
X231482Y258801D01*
X231481Y258801D01*
X230257Y258293D01*
X229238Y257871D01*
X225422Y257871D01*
X221897Y259331D01*
X219199Y262029D01*
X217739Y265554D01*
X217739Y269370D01*
X219199Y272895D01*
X221897Y275593D01*
X222556Y275865D01*
X222557Y275866D01*
X222558Y275866D01*
X222640Y275922D01*
X222722Y275977D01*
X222723Y275978D01*
X222724Y275979D01*
X222777Y276060D01*
X222832Y276145D01*
X222832Y276146D01*
X222833Y276147D01*
X222851Y276244D01*
X222869Y276342D01*
X222869Y276343D01*
X222869Y276344D01*
X222847Y276444D01*
X222826Y276538D01*
X222825Y276539D01*
X222825Y276540D01*
X222767Y276622D01*
X222711Y276702D01*
X222710Y276702D01*
X222709Y276703D01*
X222624Y276756D01*
X222541Y276808D01*
X222540Y276809D01*
X222539Y276809D01*
X222362Y276841D01*
X206898Y276841D01*
X206897Y276841D01*
X206896Y276841D01*
X206800Y276822D01*
X206702Y276802D01*
X206701Y276801D01*
X206699Y276801D01*
X206619Y276745D01*
X206536Y276689D01*
X206535Y276688D01*
X206534Y276687D01*
X206479Y276602D01*
X206427Y276521D01*
X206427Y276520D01*
X206426Y276519D01*
X206409Y276420D01*
X206391Y276324D01*
X206391Y276322D01*
X206391Y276321D01*
X206413Y276225D01*
X206435Y276128D01*
X206436Y276127D01*
X206436Y276126D01*
X206494Y276045D01*
X206551Y275965D01*
X206552Y275964D01*
X206553Y275963D01*
X206704Y275865D01*
X207363Y275593D01*
X210061Y272895D01*
X211521Y269370D01*
X211521Y265554D01*
X210061Y262029D01*
X207363Y259331D01*
X207306Y259308D01*
X206082Y258801D01*
X206081Y258801D01*
X204857Y258293D01*
X203838Y257871D01*
X200022Y257871D01*
X196497Y259331D01*
X193799Y262029D01*
X192339Y265554D01*
X192339Y269370D01*
X193799Y272895D01*
X196497Y275593D01*
X197156Y275865D01*
X197157Y275866D01*
X197158Y275866D01*
X197240Y275922D01*
X197322Y275977D01*
X197323Y275978D01*
X197324Y275979D01*
X197377Y276060D01*
X197432Y276145D01*
X197432Y276146D01*
X197433Y276147D01*
X197451Y276244D01*
X197469Y276342D01*
X197469Y276343D01*
X197469Y276344D01*
X197447Y276444D01*
X197426Y276538D01*
X197425Y276539D01*
X197425Y276540D01*
X197367Y276622D01*
X197311Y276702D01*
X197310Y276702D01*
X197309Y276703D01*
X197224Y276756D01*
X197141Y276808D01*
X197140Y276809D01*
X197139Y276809D01*
X196962Y276841D01*
X194418Y276841D01*
X194410Y276840D01*
X194402Y276841D01*
X194313Y276820D01*
X194221Y276802D01*
X194215Y276797D01*
X194207Y276795D01*
X194059Y276693D01*
X143295Y225929D01*
X143294Y225926D01*
X143291Y225925D01*
X143239Y225844D01*
X143184Y225762D01*
X143184Y225759D01*
X143182Y225757D01*
X143165Y225661D01*
X143147Y225565D01*
X143147Y225562D01*
X143147Y225560D01*
X143168Y225463D01*
X143188Y225369D01*
X143190Y225367D01*
X143190Y225364D01*
X143247Y225284D01*
X143302Y225204D01*
X143305Y225203D01*
X143306Y225201D01*
X143389Y225149D01*
X143472Y225097D01*
X143474Y225096D01*
X143476Y225095D01*
X143654Y225063D01*
X150492Y225063D01*
X165897Y209657D01*
X165904Y209653D01*
X165908Y209647D01*
X165987Y209598D01*
X166064Y209546D01*
X166072Y209545D01*
X166078Y209541D01*
X166256Y209509D01*
X169553Y209509D01*
X172619Y208239D01*
X174965Y205893D01*
X176235Y202827D01*
X176235Y199509D01*
X174965Y196443D01*
X172619Y194097D01*
X172077Y193873D01*
X170852Y193365D01*
X169628Y192858D01*
X169553Y192827D01*
X166235Y192827D01*
G37*
%LPD*%
%LPC*%
G36*
X419789Y200403D02*
X419789Y200403D01*
X416811Y203381D01*
X416811Y207591D01*
X419789Y210569D01*
X421755Y210569D01*
X421763Y210570D01*
X421770Y210569D01*
X421860Y210590D01*
X421951Y210608D01*
X421958Y210613D01*
X421965Y210615D01*
X422113Y210717D01*
X427823Y216427D01*
X427827Y216433D01*
X427833Y216438D01*
X427882Y216516D01*
X427934Y216594D01*
X427935Y216601D01*
X427939Y216608D01*
X427971Y216785D01*
X427971Y402910D01*
X427971Y402913D01*
X427971Y402915D01*
X427951Y403010D01*
X427932Y403107D01*
X427930Y403109D01*
X427930Y403111D01*
X427874Y403192D01*
X427819Y403273D01*
X427817Y403274D01*
X427815Y403276D01*
X427732Y403329D01*
X427651Y403382D01*
X427648Y403382D01*
X427646Y403384D01*
X427550Y403400D01*
X427454Y403417D01*
X427451Y403417D01*
X427449Y403417D01*
X427354Y403395D01*
X427258Y403374D01*
X427256Y403372D01*
X427253Y403372D01*
X427105Y403269D01*
X424832Y400996D01*
X424434Y400831D01*
X423209Y400323D01*
X421985Y399816D01*
X421278Y399523D01*
X417430Y399523D01*
X416348Y399972D01*
X416342Y399973D01*
X416336Y399976D01*
X416244Y399992D01*
X416152Y400010D01*
X416145Y400009D01*
X416139Y400010D01*
X416048Y399989D01*
X415955Y399970D01*
X415950Y399966D01*
X415943Y399964D01*
X415795Y399862D01*
X413425Y397491D01*
X413421Y397485D01*
X413415Y397480D01*
X413366Y397402D01*
X413314Y397324D01*
X413313Y397317D01*
X413309Y397310D01*
X413277Y397133D01*
X413277Y369075D01*
X413278Y369068D01*
X413277Y369060D01*
X413298Y368970D01*
X413316Y368879D01*
X413321Y368872D01*
X413323Y368865D01*
X413425Y368717D01*
X414277Y367865D01*
X414277Y363655D01*
X413425Y362803D01*
X413421Y362797D01*
X413415Y362792D01*
X413366Y362713D01*
X413314Y362636D01*
X413313Y362629D01*
X413309Y362622D01*
X413277Y362445D01*
X413277Y274841D01*
X413278Y274834D01*
X413277Y274826D01*
X413298Y274736D01*
X413316Y274645D01*
X413321Y274638D01*
X413323Y274631D01*
X413425Y274483D01*
X414023Y273885D01*
X414023Y269675D01*
X411045Y266697D01*
X406835Y266697D01*
X403857Y269675D01*
X403857Y273885D01*
X404963Y274991D01*
X404967Y274997D01*
X404973Y275002D01*
X405022Y275081D01*
X405074Y275158D01*
X405075Y275165D01*
X405079Y275172D01*
X405111Y275349D01*
X405111Y362445D01*
X405110Y362452D01*
X405111Y362460D01*
X405090Y362550D01*
X405072Y362641D01*
X405067Y362648D01*
X405065Y362655D01*
X404963Y362803D01*
X404111Y363655D01*
X404111Y367865D01*
X404963Y368717D01*
X404967Y368723D01*
X404973Y368728D01*
X405022Y368807D01*
X405074Y368884D01*
X405075Y368891D01*
X405079Y368898D01*
X405111Y369075D01*
X405111Y400725D01*
X407651Y403265D01*
X410022Y405635D01*
X410025Y405641D01*
X410031Y405645D01*
X410080Y405724D01*
X410133Y405802D01*
X410134Y405809D01*
X410137Y405814D01*
X410153Y405907D01*
X410170Y405999D01*
X410169Y406006D01*
X410170Y406012D01*
X410132Y406188D01*
X409683Y407270D01*
X409683Y411118D01*
X411156Y414672D01*
X413876Y417392D01*
X414495Y417649D01*
X414496Y417649D01*
X415720Y418156D01*
X416945Y418664D01*
X417430Y418865D01*
X421278Y418865D01*
X424832Y417392D01*
X427105Y415119D01*
X427108Y415118D01*
X427109Y415115D01*
X427190Y415063D01*
X427272Y415008D01*
X427275Y415008D01*
X427277Y415006D01*
X427373Y414989D01*
X427469Y414971D01*
X427472Y414971D01*
X427474Y414971D01*
X427571Y414992D01*
X427665Y415012D01*
X427667Y415014D01*
X427670Y415014D01*
X427750Y415071D01*
X427830Y415126D01*
X427831Y415129D01*
X427833Y415130D01*
X427885Y415213D01*
X427937Y415296D01*
X427938Y415298D01*
X427939Y415300D01*
X427971Y415478D01*
X427971Y419993D01*
X427970Y420001D01*
X427971Y420008D01*
X427950Y420098D01*
X427932Y420189D01*
X427927Y420196D01*
X427925Y420203D01*
X427823Y420351D01*
X422913Y425262D01*
X422907Y425265D01*
X422903Y425271D01*
X422824Y425320D01*
X422746Y425373D01*
X422739Y425374D01*
X422734Y425377D01*
X422641Y425393D01*
X422549Y425410D01*
X422542Y425409D01*
X422536Y425410D01*
X422360Y425372D01*
X421894Y425179D01*
X421278Y424923D01*
X417430Y424923D01*
X413876Y426396D01*
X411156Y429116D01*
X409683Y432670D01*
X409683Y436518D01*
X411156Y440072D01*
X413876Y442792D01*
X414405Y443012D01*
X415630Y443519D01*
X416854Y444026D01*
X417430Y444265D01*
X421278Y444265D01*
X424832Y442792D01*
X427552Y440072D01*
X429025Y436518D01*
X429025Y432670D01*
X428576Y431588D01*
X428575Y431582D01*
X428572Y431576D01*
X428556Y431484D01*
X428538Y431392D01*
X428539Y431385D01*
X428538Y431379D01*
X428559Y431288D01*
X428578Y431195D01*
X428582Y431190D01*
X428584Y431183D01*
X428686Y431035D01*
X433597Y426125D01*
X436137Y423585D01*
X436137Y415478D01*
X436137Y415475D01*
X436137Y415473D01*
X436157Y415378D01*
X436176Y415281D01*
X436178Y415279D01*
X436178Y415277D01*
X436234Y415196D01*
X436289Y415115D01*
X436291Y415114D01*
X436293Y415112D01*
X436376Y415059D01*
X436457Y415006D01*
X436460Y415006D01*
X436462Y415004D01*
X436558Y414988D01*
X436654Y414971D01*
X436657Y414971D01*
X436659Y414971D01*
X436754Y414993D01*
X436850Y415014D01*
X436852Y415016D01*
X436855Y415016D01*
X437003Y415119D01*
X439276Y417392D01*
X439895Y417649D01*
X439896Y417649D01*
X441120Y418156D01*
X442345Y418664D01*
X442830Y418865D01*
X446678Y418865D01*
X450232Y417392D01*
X452952Y414672D01*
X454425Y411118D01*
X454425Y407270D01*
X452952Y403716D01*
X450232Y400996D01*
X449834Y400831D01*
X448609Y400323D01*
X447385Y399816D01*
X446678Y399523D01*
X442830Y399523D01*
X439276Y400996D01*
X437003Y403269D01*
X437000Y403270D01*
X436999Y403273D01*
X436918Y403325D01*
X436836Y403380D01*
X436833Y403380D01*
X436831Y403382D01*
X436735Y403399D01*
X436639Y403417D01*
X436636Y403417D01*
X436634Y403417D01*
X436537Y403396D01*
X436443Y403376D01*
X436441Y403374D01*
X436438Y403374D01*
X436358Y403317D01*
X436278Y403262D01*
X436277Y403259D01*
X436275Y403258D01*
X436223Y403175D01*
X436171Y403092D01*
X436170Y403090D01*
X436169Y403088D01*
X436137Y402910D01*
X436137Y213193D01*
X427125Y204181D01*
X427121Y204175D01*
X427115Y204170D01*
X427066Y204092D01*
X427014Y204014D01*
X427013Y204007D01*
X427009Y204000D01*
X426977Y203823D01*
X426977Y203381D01*
X423999Y200403D01*
X419789Y200403D01*
G37*
%LPD*%
%LPC*%
G36*
X468049Y182877D02*
X468049Y182877D01*
X465071Y185855D01*
X465071Y190065D01*
X468049Y193043D01*
X469253Y193043D01*
X469261Y193044D01*
X469268Y193043D01*
X469358Y193064D01*
X469449Y193082D01*
X469456Y193087D01*
X469463Y193089D01*
X469611Y193191D01*
X488529Y212109D01*
X488533Y212115D01*
X488539Y212120D01*
X488588Y212198D01*
X488640Y212276D01*
X488641Y212283D01*
X488645Y212290D01*
X488677Y212467D01*
X488677Y409325D01*
X488676Y409333D01*
X488677Y409340D01*
X488656Y409430D01*
X488638Y409521D01*
X488633Y409528D01*
X488631Y409535D01*
X488529Y409683D01*
X487137Y411075D01*
X487131Y411079D01*
X487126Y411085D01*
X487048Y411134D01*
X486971Y411186D01*
X486963Y411187D01*
X486956Y411191D01*
X486779Y411223D01*
X485575Y411223D01*
X482597Y414201D01*
X482597Y418411D01*
X485575Y421389D01*
X489785Y421389D01*
X492763Y418411D01*
X492763Y417207D01*
X492764Y417199D01*
X492763Y417192D01*
X492784Y417102D01*
X492802Y417011D01*
X492807Y417004D01*
X492809Y416997D01*
X492911Y416849D01*
X496843Y412917D01*
X496843Y208875D01*
X475385Y187417D01*
X475381Y187411D01*
X475375Y187406D01*
X475326Y187328D01*
X475274Y187250D01*
X475273Y187243D01*
X475269Y187236D01*
X475237Y187059D01*
X475237Y185855D01*
X472259Y182877D01*
X468049Y182877D01*
G37*
%LPD*%
%LPC*%
G36*
X502593Y246377D02*
X502593Y246377D01*
X499615Y249355D01*
X499615Y253565D01*
X500467Y254417D01*
X500471Y254423D01*
X500477Y254428D01*
X500526Y254507D01*
X500578Y254584D01*
X500579Y254591D01*
X500583Y254598D01*
X500615Y254775D01*
X500615Y411467D01*
X500614Y411474D01*
X500615Y411482D01*
X500594Y411572D01*
X500576Y411663D01*
X500571Y411670D01*
X500569Y411677D01*
X500467Y411825D01*
X497837Y414455D01*
X497837Y418665D01*
X500815Y421643D01*
X505025Y421643D01*
X508003Y418665D01*
X508003Y417461D01*
X508004Y417453D01*
X508003Y417446D01*
X508024Y417356D01*
X508042Y417265D01*
X508047Y417258D01*
X508049Y417251D01*
X508151Y417103D01*
X508781Y416473D01*
X508781Y254775D01*
X508781Y254774D01*
X508781Y254772D01*
X508782Y254766D01*
X508781Y254760D01*
X508802Y254670D01*
X508820Y254579D01*
X508825Y254572D01*
X508827Y254565D01*
X508929Y254417D01*
X509781Y253565D01*
X509781Y249355D01*
X506803Y246377D01*
X502593Y246377D01*
G37*
%LPD*%
%LPC*%
G36*
X451285Y258061D02*
X451285Y258061D01*
X448307Y261039D01*
X448307Y265249D01*
X451285Y268227D01*
X452489Y268227D01*
X452497Y268228D01*
X452504Y268227D01*
X452594Y268248D01*
X452685Y268266D01*
X452692Y268271D01*
X452699Y268273D01*
X452847Y268375D01*
X463129Y278657D01*
X463133Y278663D01*
X463139Y278668D01*
X463188Y278746D01*
X463240Y278824D01*
X463241Y278831D01*
X463245Y278838D01*
X463277Y279015D01*
X463277Y404564D01*
X463276Y404572D01*
X463277Y404579D01*
X463256Y404669D01*
X463238Y404760D01*
X463233Y404767D01*
X463231Y404775D01*
X463129Y404923D01*
X462415Y405636D01*
X461527Y407780D01*
X461527Y410100D01*
X462415Y412244D01*
X464056Y413885D01*
X464572Y414098D01*
X465796Y414606D01*
X466200Y414773D01*
X468520Y414773D01*
X470664Y413885D01*
X472305Y412244D01*
X473193Y410100D01*
X473193Y407780D01*
X472305Y405636D01*
X471591Y404923D01*
X471587Y404916D01*
X471581Y404911D01*
X471532Y404833D01*
X471480Y404756D01*
X471479Y404748D01*
X471475Y404741D01*
X471443Y404564D01*
X471443Y275423D01*
X458621Y262601D01*
X458617Y262595D01*
X458611Y262590D01*
X458562Y262512D01*
X458510Y262434D01*
X458509Y262427D01*
X458505Y262420D01*
X458473Y262243D01*
X458473Y261039D01*
X455495Y258061D01*
X451285Y258061D01*
G37*
%LPD*%
%LPC*%
G36*
X391849Y276857D02*
X391849Y276857D01*
X388871Y279835D01*
X388871Y284045D01*
X389723Y284897D01*
X389727Y284903D01*
X389733Y284908D01*
X389782Y284987D01*
X389834Y285064D01*
X389835Y285071D01*
X389839Y285078D01*
X389871Y285255D01*
X389871Y400079D01*
X389870Y400085D01*
X389871Y400092D01*
X389850Y400183D01*
X389832Y400275D01*
X389828Y400281D01*
X389827Y400287D01*
X389772Y400364D01*
X389719Y400441D01*
X389714Y400445D01*
X389710Y400450D01*
X389558Y400547D01*
X388476Y400996D01*
X385756Y403716D01*
X384283Y407270D01*
X384283Y411118D01*
X385756Y414672D01*
X388476Y417392D01*
X389095Y417649D01*
X389096Y417649D01*
X390320Y418156D01*
X391545Y418664D01*
X392030Y418865D01*
X395878Y418865D01*
X399432Y417392D01*
X402152Y414672D01*
X403625Y411118D01*
X403625Y407270D01*
X402152Y403716D01*
X399432Y400996D01*
X399034Y400831D01*
X398350Y400547D01*
X398344Y400544D01*
X398338Y400542D01*
X398261Y400488D01*
X398183Y400436D01*
X398180Y400430D01*
X398175Y400426D01*
X398125Y400346D01*
X398073Y400268D01*
X398072Y400262D01*
X398069Y400256D01*
X398037Y400079D01*
X398037Y285255D01*
X398038Y285248D01*
X398037Y285240D01*
X398058Y285150D01*
X398076Y285059D01*
X398081Y285052D01*
X398083Y285045D01*
X398185Y284897D01*
X399037Y284045D01*
X399037Y279835D01*
X396059Y276857D01*
X391849Y276857D01*
G37*
%LPD*%
%LPC*%
G36*
X535867Y393951D02*
X535867Y393951D01*
X532889Y396929D01*
X532889Y401139D01*
X533741Y401991D01*
X533745Y401997D01*
X533751Y402002D01*
X533800Y402081D01*
X533852Y402158D01*
X533853Y402165D01*
X533857Y402172D01*
X533889Y402349D01*
X533889Y450727D01*
X533888Y450735D01*
X533889Y450742D01*
X533868Y450832D01*
X533850Y450923D01*
X533845Y450930D01*
X533843Y450937D01*
X533741Y451085D01*
X520771Y464055D01*
X520765Y464059D01*
X520760Y464065D01*
X520682Y464114D01*
X520604Y464166D01*
X520597Y464167D01*
X520590Y464171D01*
X520413Y464203D01*
X464669Y464203D01*
X464662Y464202D01*
X464654Y464203D01*
X464564Y464182D01*
X464473Y464164D01*
X464466Y464159D01*
X464459Y464157D01*
X464311Y464055D01*
X463459Y463203D01*
X459249Y463203D01*
X456271Y466181D01*
X456271Y470391D01*
X459249Y473369D01*
X463459Y473369D01*
X464311Y472517D01*
X464317Y472513D01*
X464322Y472507D01*
X464401Y472458D01*
X464478Y472406D01*
X464485Y472405D01*
X464492Y472401D01*
X464669Y472369D01*
X524005Y472369D01*
X539515Y456859D01*
X542055Y454319D01*
X542055Y402349D01*
X542056Y402342D01*
X542055Y402334D01*
X542076Y402244D01*
X542094Y402153D01*
X542099Y402146D01*
X542101Y402139D01*
X542203Y401991D01*
X543055Y401139D01*
X543055Y396929D01*
X540077Y393951D01*
X535867Y393951D01*
G37*
%LPD*%
%LPC*%
G36*
X522885Y247366D02*
X522885Y247366D01*
X519908Y250343D01*
X519908Y254554D01*
X522885Y257531D01*
X524089Y257531D01*
X524097Y257533D01*
X524105Y257532D01*
X524195Y257553D01*
X524286Y257571D01*
X524293Y257575D01*
X524300Y257577D01*
X524448Y257680D01*
X537551Y270783D01*
X624717Y270783D01*
X624725Y270784D01*
X624732Y270783D01*
X624822Y270804D01*
X624913Y270822D01*
X624920Y270827D01*
X624927Y270829D01*
X625075Y270931D01*
X633071Y278927D01*
X633075Y278933D01*
X633081Y278938D01*
X633130Y279016D01*
X633182Y279094D01*
X633183Y279101D01*
X633187Y279108D01*
X633219Y279285D01*
X633219Y280489D01*
X636197Y283467D01*
X640407Y283467D01*
X643385Y280489D01*
X643385Y276279D01*
X640407Y273301D01*
X639203Y273301D01*
X639195Y273300D01*
X639188Y273301D01*
X639098Y273280D01*
X639007Y273262D01*
X639000Y273257D01*
X638993Y273255D01*
X638845Y273153D01*
X628309Y262617D01*
X541143Y262617D01*
X541135Y262616D01*
X541128Y262617D01*
X541038Y262596D01*
X540947Y262578D01*
X540940Y262573D01*
X540933Y262571D01*
X540785Y262469D01*
X530222Y251906D01*
X530218Y251900D01*
X530211Y251895D01*
X530162Y251816D01*
X530111Y251739D01*
X530110Y251731D01*
X530105Y251725D01*
X530073Y251547D01*
X530073Y250343D01*
X527096Y247366D01*
X522885Y247366D01*
G37*
%LPD*%
%LPC*%
G36*
X29892Y98279D02*
X29892Y98279D01*
X26905Y101266D01*
X26905Y105490D01*
X29892Y108477D01*
X31119Y108477D01*
X31127Y108478D01*
X31134Y108477D01*
X31224Y108498D01*
X31315Y108516D01*
X31322Y108521D01*
X31329Y108523D01*
X31477Y108625D01*
X58761Y135909D01*
X128437Y135909D01*
X134147Y130199D01*
X134153Y130195D01*
X134158Y130189D01*
X134236Y130140D01*
X134314Y130088D01*
X134321Y130087D01*
X134328Y130083D01*
X134505Y130051D01*
X135709Y130051D01*
X138687Y127073D01*
X138687Y122863D01*
X135709Y119885D01*
X131499Y119885D01*
X128521Y122863D01*
X128521Y124067D01*
X128520Y124075D01*
X128521Y124082D01*
X128500Y124172D01*
X128482Y124263D01*
X128477Y124270D01*
X128475Y124277D01*
X128373Y124425D01*
X125203Y127595D01*
X125197Y127599D01*
X125192Y127605D01*
X125114Y127654D01*
X125036Y127706D01*
X125029Y127707D01*
X125022Y127711D01*
X124845Y127743D01*
X62353Y127743D01*
X62345Y127742D01*
X62338Y127743D01*
X62248Y127722D01*
X62157Y127704D01*
X62150Y127699D01*
X62143Y127697D01*
X61995Y127595D01*
X37251Y102851D01*
X37247Y102845D01*
X37241Y102840D01*
X37192Y102762D01*
X37140Y102684D01*
X37139Y102677D01*
X37135Y102670D01*
X37103Y102493D01*
X37103Y101266D01*
X34116Y98279D01*
X29892Y98279D01*
G37*
%LPD*%
%LPC*%
G36*
X516055Y307337D02*
X516055Y307337D01*
X513077Y310315D01*
X513077Y311519D01*
X513076Y311527D01*
X513077Y311534D01*
X513056Y311624D01*
X513038Y311715D01*
X513033Y311722D01*
X513031Y311729D01*
X512929Y311877D01*
X511537Y313269D01*
X511537Y423331D01*
X512929Y424723D01*
X512933Y424729D01*
X512939Y424734D01*
X512988Y424812D01*
X513040Y424890D01*
X513041Y424897D01*
X513045Y424904D01*
X513077Y425081D01*
X513077Y426285D01*
X516055Y429263D01*
X520265Y429263D01*
X523243Y426285D01*
X523243Y422075D01*
X520265Y419097D01*
X520210Y419097D01*
X520205Y419096D01*
X520200Y419097D01*
X520107Y419076D01*
X520013Y419058D01*
X520009Y419055D01*
X520004Y419054D01*
X519926Y418998D01*
X519848Y418945D01*
X519845Y418941D01*
X519841Y418938D01*
X519790Y418856D01*
X519738Y418777D01*
X519738Y418772D01*
X519735Y418767D01*
X519703Y418590D01*
X519703Y318010D01*
X519704Y318005D01*
X519703Y318000D01*
X519724Y317907D01*
X519742Y317813D01*
X519745Y317809D01*
X519746Y317804D01*
X519802Y317726D01*
X519855Y317648D01*
X519859Y317645D01*
X519862Y317641D01*
X519944Y317590D01*
X520023Y317538D01*
X520028Y317538D01*
X520033Y317535D01*
X520210Y317503D01*
X520265Y317503D01*
X523243Y314525D01*
X523243Y310315D01*
X520265Y307337D01*
X516055Y307337D01*
G37*
%LPD*%
%LPC*%
G36*
X205592Y441687D02*
X205592Y441687D01*
X202971Y442773D01*
X200965Y444779D01*
X199879Y447400D01*
X199879Y450236D01*
X200965Y452857D01*
X205491Y457383D01*
X205496Y457391D01*
X205503Y457396D01*
X205601Y457548D01*
X206183Y458953D01*
X208189Y460959D01*
X208945Y461273D01*
X208946Y461273D01*
X210170Y461780D01*
X210810Y462045D01*
X212649Y462045D01*
X212657Y462046D01*
X212665Y462045D01*
X212754Y462066D01*
X212846Y462084D01*
X212852Y462089D01*
X212860Y462091D01*
X213008Y462193D01*
X222337Y471522D01*
X222341Y471529D01*
X222347Y471533D01*
X222396Y471612D01*
X222448Y471689D01*
X222449Y471697D01*
X222453Y471704D01*
X222485Y471881D01*
X222485Y488982D01*
X222484Y488988D01*
X222485Y488994D01*
X222464Y489086D01*
X222446Y489178D01*
X222442Y489183D01*
X222441Y489190D01*
X222386Y489266D01*
X222333Y489344D01*
X222328Y489347D01*
X222324Y489353D01*
X222172Y489450D01*
X220564Y490116D01*
X218844Y491836D01*
X217913Y494084D01*
X217913Y496516D01*
X218844Y498764D01*
X220564Y500484D01*
X221419Y500838D01*
X221420Y500838D01*
X222644Y501345D01*
X222812Y501415D01*
X234896Y501415D01*
X237144Y500484D01*
X238864Y498764D01*
X239795Y496516D01*
X239795Y494084D01*
X238864Y491836D01*
X237144Y490116D01*
X237121Y490107D01*
X235896Y489599D01*
X235028Y489240D01*
X235022Y489236D01*
X235016Y489235D01*
X234939Y489180D01*
X234861Y489128D01*
X234858Y489123D01*
X234853Y489119D01*
X234803Y489039D01*
X234751Y488960D01*
X234750Y488954D01*
X234747Y488948D01*
X234715Y488771D01*
X234715Y467922D01*
X233784Y465674D01*
X231992Y463883D01*
X220393Y452284D01*
X218568Y450458D01*
X218558Y450451D01*
X218481Y450399D01*
X218476Y450393D01*
X218470Y450388D01*
X218372Y450236D01*
X218273Y449997D01*
X211049Y442773D01*
X210210Y442425D01*
X208985Y441918D01*
X208428Y441687D01*
X205592Y441687D01*
G37*
%LPD*%
%LPC*%
G36*
X582095Y248917D02*
X582095Y248917D01*
X579117Y251895D01*
X579117Y256105D01*
X582095Y259083D01*
X586305Y259083D01*
X587157Y258231D01*
X587163Y258227D01*
X587168Y258221D01*
X587247Y258172D01*
X587324Y258120D01*
X587331Y258119D01*
X587338Y258115D01*
X587515Y258083D01*
X659853Y258083D01*
X659860Y258084D01*
X659868Y258083D01*
X659958Y258104D01*
X660049Y258122D01*
X660056Y258127D01*
X660063Y258129D01*
X660211Y258231D01*
X663095Y261115D01*
X667305Y261115D01*
X670283Y258137D01*
X670283Y253927D01*
X667305Y250949D01*
X666101Y250949D01*
X666093Y250948D01*
X666086Y250949D01*
X665996Y250928D01*
X665905Y250910D01*
X665898Y250905D01*
X665891Y250903D01*
X665743Y250801D01*
X664859Y249917D01*
X587515Y249917D01*
X587508Y249916D01*
X587500Y249917D01*
X587410Y249896D01*
X587319Y249878D01*
X587312Y249873D01*
X587305Y249871D01*
X587157Y249769D01*
X586305Y248917D01*
X582095Y248917D01*
G37*
%LPD*%
%LPC*%
G36*
X188791Y107487D02*
X188791Y107487D01*
X185634Y108795D01*
X183217Y111212D01*
X181909Y114369D01*
X181909Y117787D01*
X183217Y120944D01*
X185634Y123361D01*
X185835Y123444D01*
X187059Y123951D01*
X188136Y124397D01*
X188142Y124401D01*
X188148Y124402D01*
X188225Y124457D01*
X188303Y124509D01*
X188306Y124515D01*
X188311Y124518D01*
X188361Y124598D01*
X188413Y124677D01*
X188414Y124683D01*
X188417Y124689D01*
X188449Y124866D01*
X188449Y131442D01*
X211161Y154153D01*
X211165Y154160D01*
X211171Y154164D01*
X211220Y154243D01*
X211272Y154320D01*
X211273Y154328D01*
X211277Y154334D01*
X211309Y154512D01*
X211309Y159730D01*
X211308Y159738D01*
X211309Y159745D01*
X211288Y159835D01*
X211270Y159926D01*
X211265Y159933D01*
X211263Y159941D01*
X211161Y160089D01*
X210801Y160448D01*
X210801Y164672D01*
X213788Y167659D01*
X218012Y167659D01*
X220999Y164672D01*
X220999Y160448D01*
X220639Y160089D01*
X220635Y160082D01*
X220629Y160077D01*
X220580Y159999D01*
X220528Y159922D01*
X220527Y159914D01*
X220523Y159907D01*
X220491Y159730D01*
X220491Y150498D01*
X197779Y127787D01*
X197775Y127780D01*
X197769Y127776D01*
X197720Y127697D01*
X197668Y127620D01*
X197667Y127612D01*
X197663Y127606D01*
X197631Y127428D01*
X197631Y121306D01*
X197632Y121299D01*
X197631Y121291D01*
X197652Y121201D01*
X197670Y121110D01*
X197675Y121103D01*
X197677Y121096D01*
X197779Y120948D01*
X197783Y120944D01*
X199091Y117787D01*
X199091Y114369D01*
X197783Y111212D01*
X195366Y108795D01*
X195027Y108655D01*
X193803Y108147D01*
X193802Y108147D01*
X192578Y107640D01*
X192209Y107487D01*
X188791Y107487D01*
G37*
%LPD*%
%LPC*%
G36*
X227758Y208261D02*
X227758Y208261D01*
X224771Y211248D01*
X224771Y215472D01*
X227758Y218459D01*
X231982Y218459D01*
X232341Y218099D01*
X232348Y218095D01*
X232353Y218089D01*
X232431Y218040D01*
X232508Y217988D01*
X232516Y217987D01*
X232523Y217983D01*
X232700Y217951D01*
X238680Y217951D01*
X238688Y217952D01*
X238696Y217951D01*
X238786Y217972D01*
X238877Y217990D01*
X238883Y217995D01*
X238891Y217997D01*
X239039Y218099D01*
X254130Y233191D01*
X268583Y233191D01*
X268589Y233192D01*
X268596Y233191D01*
X268687Y233212D01*
X268779Y233230D01*
X268785Y233234D01*
X268791Y233235D01*
X268868Y233290D01*
X268945Y233343D01*
X268949Y233348D01*
X268954Y233352D01*
X269052Y233504D01*
X269153Y233749D01*
X271711Y236307D01*
X272324Y236561D01*
X273548Y237068D01*
X273549Y237068D01*
X274773Y237575D01*
X275052Y237691D01*
X278668Y237691D01*
X282009Y236307D01*
X284567Y233749D01*
X285951Y230408D01*
X285951Y226792D01*
X284567Y223451D01*
X282009Y220893D01*
X281680Y220757D01*
X280456Y220250D01*
X279231Y219742D01*
X278668Y219509D01*
X275052Y219509D01*
X271711Y220893D01*
X269153Y223451D01*
X269052Y223696D01*
X269048Y223702D01*
X269046Y223708D01*
X268992Y223784D01*
X268940Y223863D01*
X268934Y223866D01*
X268930Y223871D01*
X268851Y223921D01*
X268772Y223973D01*
X268766Y223974D01*
X268760Y223977D01*
X268583Y224009D01*
X258144Y224009D01*
X258136Y224008D01*
X258128Y224009D01*
X258038Y223988D01*
X257947Y223970D01*
X257941Y223965D01*
X257933Y223963D01*
X257785Y223861D01*
X242694Y208769D01*
X232700Y208769D01*
X232692Y208768D01*
X232685Y208769D01*
X232595Y208748D01*
X232504Y208730D01*
X232497Y208725D01*
X232489Y208723D01*
X232341Y208621D01*
X231982Y208261D01*
X227758Y208261D01*
G37*
%LPD*%
%LPC*%
G36*
X257476Y90659D02*
X257476Y90659D01*
X254577Y93559D01*
X254570Y93563D01*
X254565Y93569D01*
X254487Y93618D01*
X254410Y93670D01*
X254402Y93671D01*
X254395Y93675D01*
X254218Y93707D01*
X194600Y93707D01*
X194592Y93706D01*
X194585Y93707D01*
X194495Y93686D01*
X194404Y93668D01*
X194397Y93663D01*
X194389Y93661D01*
X194241Y93559D01*
X193374Y92691D01*
X189150Y92691D01*
X186163Y95678D01*
X186163Y99902D01*
X189150Y102889D01*
X193374Y102889D01*
X194241Y102021D01*
X194248Y102017D01*
X194253Y102011D01*
X194331Y101962D01*
X194408Y101910D01*
X194416Y101909D01*
X194423Y101905D01*
X194600Y101873D01*
X259247Y101873D01*
X260115Y101005D01*
X260121Y101001D01*
X260126Y100995D01*
X260204Y100946D01*
X260282Y100894D01*
X260289Y100893D01*
X260296Y100889D01*
X260473Y100857D01*
X261700Y100857D01*
X264687Y97870D01*
X264687Y93646D01*
X261700Y90659D01*
X257476Y90659D01*
G37*
%LPD*%
%LPC*%
G36*
X257222Y166605D02*
X257222Y166605D01*
X256355Y167473D01*
X256348Y167477D01*
X256343Y167483D01*
X256265Y167532D01*
X256188Y167584D01*
X256180Y167585D01*
X256173Y167589D01*
X255996Y167621D01*
X225385Y167621D01*
X209785Y183221D01*
X209779Y183225D01*
X209774Y183231D01*
X209696Y183280D01*
X209618Y183332D01*
X209611Y183333D01*
X209604Y183337D01*
X209427Y183369D01*
X207438Y183369D01*
X204451Y186356D01*
X204451Y190580D01*
X207438Y193567D01*
X211662Y193567D01*
X214649Y190580D01*
X214649Y190115D01*
X214650Y190107D01*
X214649Y190100D01*
X214670Y190010D01*
X214688Y189919D01*
X214693Y189912D01*
X214695Y189905D01*
X214797Y189757D01*
X228619Y175935D01*
X228625Y175931D01*
X228630Y175925D01*
X228708Y175876D01*
X228786Y175824D01*
X228793Y175823D01*
X228800Y175819D01*
X228977Y175787D01*
X255996Y175787D01*
X256004Y175788D01*
X256011Y175787D01*
X256101Y175808D01*
X256192Y175826D01*
X256199Y175831D01*
X256207Y175833D01*
X256355Y175935D01*
X257222Y176803D01*
X261446Y176803D01*
X264433Y173816D01*
X264433Y169592D01*
X261446Y166605D01*
X257222Y166605D01*
G37*
%LPD*%
%LPC*%
G36*
X215312Y310877D02*
X215312Y310877D01*
X210801Y315388D01*
X210801Y319612D01*
X213788Y322599D01*
X218012Y322599D01*
X219387Y321223D01*
X219394Y321219D01*
X219399Y321213D01*
X219477Y321164D01*
X219554Y321112D01*
X219562Y321111D01*
X219569Y321107D01*
X219746Y321075D01*
X253064Y321075D01*
X256051Y318088D01*
X256051Y313864D01*
X253064Y310877D01*
X215312Y310877D01*
G37*
%LPD*%
%LPC*%
G36*
X445619Y335453D02*
X445619Y335453D01*
X442641Y338431D01*
X442641Y342641D01*
X443493Y343493D01*
X443497Y343499D01*
X443504Y343504D01*
X443552Y343583D01*
X443604Y343660D01*
X443605Y343668D01*
X443609Y343674D01*
X443641Y343852D01*
X443641Y372174D01*
X443640Y372182D01*
X443641Y372190D01*
X443620Y372280D01*
X443602Y372371D01*
X443597Y372377D01*
X443596Y372385D01*
X443493Y372533D01*
X442719Y373307D01*
X442719Y377517D01*
X445697Y380495D01*
X449907Y380495D01*
X452885Y377517D01*
X452885Y373307D01*
X451955Y372377D01*
X451951Y372371D01*
X451945Y372366D01*
X451896Y372288D01*
X451844Y372210D01*
X451843Y372203D01*
X451839Y372196D01*
X451807Y372019D01*
X451807Y343852D01*
X451808Y343844D01*
X451807Y343836D01*
X451828Y343746D01*
X451846Y343655D01*
X451851Y343649D01*
X451853Y343641D01*
X451955Y343493D01*
X452807Y342641D01*
X452807Y338431D01*
X449829Y335453D01*
X445619Y335453D01*
G37*
%LPD*%
%LPC*%
G36*
X270388Y459273D02*
X270388Y459273D01*
X267598Y460429D01*
X265463Y462564D01*
X264307Y465354D01*
X264307Y479454D01*
X265463Y482244D01*
X267598Y484379D01*
X268146Y484606D01*
X269371Y485113D01*
X270388Y485535D01*
X273408Y485535D01*
X276198Y484379D01*
X278333Y482244D01*
X279489Y479454D01*
X279489Y465354D01*
X278333Y462564D01*
X276198Y460429D01*
X275594Y460179D01*
X274370Y459672D01*
X273408Y459273D01*
X270388Y459273D01*
G37*
%LPD*%
%LPC*%
G36*
X183988Y459273D02*
X183988Y459273D01*
X181198Y460429D01*
X179063Y462564D01*
X177907Y465354D01*
X177907Y479454D01*
X179063Y482244D01*
X181198Y484379D01*
X181746Y484606D01*
X182971Y485113D01*
X183988Y485535D01*
X187008Y485535D01*
X189798Y484379D01*
X191933Y482244D01*
X193089Y479454D01*
X193089Y465354D01*
X191933Y462564D01*
X189798Y460429D01*
X189194Y460179D01*
X187970Y459672D01*
X187008Y459273D01*
X183988Y459273D01*
G37*
%LPD*%
%LPC*%
G36*
X392030Y424923D02*
X392030Y424923D01*
X388476Y426396D01*
X385756Y429116D01*
X384283Y432670D01*
X384283Y436518D01*
X385756Y440072D01*
X388476Y442792D01*
X389005Y443012D01*
X390230Y443519D01*
X391454Y444026D01*
X392030Y444265D01*
X395878Y444265D01*
X399432Y442792D01*
X402152Y440072D01*
X403625Y436518D01*
X403625Y432670D01*
X402152Y429116D01*
X399432Y426396D01*
X398943Y426193D01*
X397719Y425686D01*
X396494Y425179D01*
X395878Y424923D01*
X392030Y424923D01*
G37*
%LPD*%
%LPC*%
G36*
X585086Y178787D02*
X585086Y178787D01*
X581561Y180247D01*
X578863Y182945D01*
X577403Y186470D01*
X577403Y190286D01*
X578863Y193811D01*
X581561Y196509D01*
X582736Y196995D01*
X583961Y197503D01*
X585086Y197969D01*
X588902Y197969D01*
X592427Y196509D01*
X595125Y193811D01*
X596585Y190286D01*
X596585Y186470D01*
X595125Y182945D01*
X592427Y180247D01*
X592257Y180177D01*
X591032Y179670D01*
X589807Y179162D01*
X588902Y178787D01*
X585086Y178787D01*
G37*
%LPD*%
%LPC*%
G36*
X534286Y178787D02*
X534286Y178787D01*
X530761Y180247D01*
X528063Y182945D01*
X526603Y186470D01*
X526603Y190286D01*
X528063Y193811D01*
X530761Y196509D01*
X531936Y196995D01*
X533161Y197503D01*
X534286Y197969D01*
X538102Y197969D01*
X541627Y196509D01*
X544325Y193811D01*
X545785Y190286D01*
X545785Y186470D01*
X544325Y182945D01*
X541627Y180247D01*
X541457Y180177D01*
X540232Y179670D01*
X539007Y179162D01*
X538102Y178787D01*
X534286Y178787D01*
G37*
%LPD*%
%LPC*%
G36*
X409572Y33589D02*
X409572Y33589D01*
X406047Y35049D01*
X403349Y37747D01*
X401889Y41272D01*
X401889Y45088D01*
X403349Y48613D01*
X406047Y51311D01*
X406298Y51415D01*
X407523Y51922D01*
X408747Y52429D01*
X408748Y52429D01*
X409572Y52771D01*
X413388Y52771D01*
X416913Y51311D01*
X419611Y48613D01*
X421071Y45088D01*
X421071Y41272D01*
X419611Y37747D01*
X416913Y35049D01*
X415819Y34596D01*
X415818Y34596D01*
X414594Y34089D01*
X413388Y33589D01*
X409572Y33589D01*
G37*
%LPD*%
%LPC*%
G36*
X539874Y479359D02*
X539874Y479359D01*
X536349Y480819D01*
X533651Y483517D01*
X532191Y487042D01*
X532191Y490858D01*
X533651Y494383D01*
X536349Y497081D01*
X536848Y497287D01*
X538073Y497795D01*
X539297Y498302D01*
X539298Y498302D01*
X539874Y498541D01*
X543690Y498541D01*
X547215Y497081D01*
X549913Y494383D01*
X551373Y490858D01*
X551373Y487042D01*
X549913Y483517D01*
X547215Y480819D01*
X546369Y480469D01*
X546368Y480469D01*
X545144Y479962D01*
X543919Y479454D01*
X543690Y479359D01*
X539874Y479359D01*
G37*
%LPD*%
%LPC*%
G36*
X489074Y479359D02*
X489074Y479359D01*
X485549Y480819D01*
X482851Y483517D01*
X481391Y487042D01*
X481391Y490858D01*
X482851Y494383D01*
X485549Y497081D01*
X486048Y497287D01*
X487273Y497795D01*
X488497Y498302D01*
X488498Y498302D01*
X489074Y498541D01*
X492890Y498541D01*
X496415Y497081D01*
X499113Y494383D01*
X500573Y490858D01*
X500573Y487042D01*
X499113Y483517D01*
X496415Y480819D01*
X495569Y480469D01*
X495568Y480469D01*
X494344Y479962D01*
X493119Y479454D01*
X492890Y479359D01*
X489074Y479359D01*
G37*
%LPD*%
%LPC*%
G36*
X514474Y479359D02*
X514474Y479359D01*
X510949Y480819D01*
X508251Y483517D01*
X506791Y487042D01*
X506791Y490858D01*
X508251Y494383D01*
X510949Y497081D01*
X511448Y497287D01*
X512673Y497795D01*
X513897Y498302D01*
X513898Y498302D01*
X514474Y498541D01*
X518290Y498541D01*
X521815Y497081D01*
X524513Y494383D01*
X525973Y490858D01*
X525973Y487042D01*
X524513Y483517D01*
X521815Y480819D01*
X520969Y480469D01*
X520968Y480469D01*
X519744Y479962D01*
X518519Y479454D01*
X518290Y479359D01*
X514474Y479359D01*
G37*
%LPD*%
%LPC*%
G36*
X580592Y279060D02*
X580592Y279060D01*
X577067Y280520D01*
X574369Y283218D01*
X572909Y286743D01*
X572909Y290558D01*
X574369Y294083D01*
X577067Y296781D01*
X577411Y296924D01*
X578635Y297431D01*
X578636Y297431D01*
X579860Y297938D01*
X580592Y298241D01*
X584408Y298241D01*
X587933Y296781D01*
X590631Y294083D01*
X592091Y290558D01*
X592091Y286743D01*
X590631Y283218D01*
X587933Y280520D01*
X586931Y280105D01*
X585707Y279598D01*
X585706Y279598D01*
X584482Y279091D01*
X584408Y279060D01*
X580592Y279060D01*
G37*
%LPD*%
%LPC*%
G36*
X275052Y194109D02*
X275052Y194109D01*
X271711Y195493D01*
X269153Y198051D01*
X267769Y201392D01*
X267769Y205008D01*
X269153Y208349D01*
X271711Y210907D01*
X272414Y211198D01*
X272415Y211198D01*
X273639Y211706D01*
X274864Y212213D01*
X275052Y212291D01*
X278668Y212291D01*
X282009Y210907D01*
X284567Y208349D01*
X285951Y205008D01*
X285951Y201392D01*
X284567Y198051D01*
X282009Y195493D01*
X281771Y195394D01*
X280546Y194887D01*
X279322Y194380D01*
X279321Y194380D01*
X278668Y194109D01*
X275052Y194109D01*
G37*
%LPD*%
%LPC*%
G36*
X325852Y194109D02*
X325852Y194109D01*
X322511Y195493D01*
X319953Y198051D01*
X318569Y201392D01*
X318569Y205008D01*
X319953Y208349D01*
X322511Y210907D01*
X323214Y211198D01*
X323215Y211198D01*
X324439Y211706D01*
X325664Y212213D01*
X325852Y212291D01*
X329468Y212291D01*
X332809Y210907D01*
X335367Y208349D01*
X336751Y205008D01*
X336751Y201392D01*
X335367Y198051D01*
X332809Y195493D01*
X332571Y195394D01*
X331346Y194887D01*
X330122Y194380D01*
X330121Y194380D01*
X329468Y194109D01*
X325852Y194109D01*
G37*
%LPD*%
%LPC*%
G36*
X325852Y397309D02*
X325852Y397309D01*
X322511Y398693D01*
X319953Y401251D01*
X318569Y404592D01*
X318569Y408208D01*
X319953Y411549D01*
X322511Y414107D01*
X323715Y414606D01*
X324939Y415113D01*
X324940Y415113D01*
X325852Y415491D01*
X329468Y415491D01*
X332809Y414107D01*
X335367Y411549D01*
X336751Y408208D01*
X336751Y404592D01*
X335367Y401251D01*
X332809Y398693D01*
X331847Y398294D01*
X331846Y398294D01*
X330622Y397787D01*
X329468Y397309D01*
X325852Y397309D01*
G37*
%LPD*%
%LPC*%
G36*
X325852Y219509D02*
X325852Y219509D01*
X322511Y220893D01*
X319953Y223451D01*
X318569Y226792D01*
X318569Y230408D01*
X319953Y233749D01*
X322511Y236307D01*
X323124Y236561D01*
X324348Y237068D01*
X324349Y237068D01*
X325573Y237575D01*
X325852Y237691D01*
X329468Y237691D01*
X332809Y236307D01*
X335367Y233749D01*
X336751Y230408D01*
X336751Y226792D01*
X335367Y223451D01*
X332809Y220893D01*
X332480Y220757D01*
X331256Y220250D01*
X330031Y219742D01*
X329468Y219509D01*
X325852Y219509D01*
G37*
%LPD*%
%LPC*%
G36*
X275052Y346509D02*
X275052Y346509D01*
X271711Y347893D01*
X269153Y350451D01*
X267769Y353792D01*
X267769Y357408D01*
X269153Y360749D01*
X271711Y363307D01*
X271871Y363373D01*
X273096Y363881D01*
X274320Y364388D01*
X274321Y364388D01*
X275052Y364691D01*
X278668Y364691D01*
X282009Y363307D01*
X284567Y360749D01*
X285951Y357408D01*
X285951Y353792D01*
X284567Y350451D01*
X282009Y347893D01*
X281228Y347569D01*
X281227Y347569D01*
X280003Y347062D01*
X278778Y346555D01*
X278668Y346509D01*
X275052Y346509D01*
G37*
%LPD*%
%LPC*%
G36*
X88969Y187751D02*
X88969Y187751D01*
X85812Y189059D01*
X83395Y191476D01*
X82087Y194633D01*
X82087Y198051D01*
X83395Y201208D01*
X85812Y203625D01*
X86951Y204097D01*
X88176Y204604D01*
X88969Y204933D01*
X92387Y204933D01*
X95544Y203625D01*
X97961Y201208D01*
X99269Y198051D01*
X99269Y194633D01*
X97961Y191476D01*
X95544Y189059D01*
X94919Y188800D01*
X93694Y188293D01*
X92470Y187786D01*
X92387Y187751D01*
X88969Y187751D01*
G37*
%LPD*%
%LPC*%
G36*
X63569Y187751D02*
X63569Y187751D01*
X60412Y189059D01*
X57995Y191476D01*
X56687Y194633D01*
X56687Y198051D01*
X57995Y201208D01*
X60412Y203625D01*
X61551Y204097D01*
X62776Y204604D01*
X63569Y204933D01*
X66987Y204933D01*
X70144Y203625D01*
X72561Y201208D01*
X73869Y198051D01*
X73869Y194633D01*
X72561Y191476D01*
X70144Y189059D01*
X69519Y188800D01*
X68294Y188293D01*
X67070Y187786D01*
X66987Y187751D01*
X63569Y187751D01*
G37*
%LPD*%
%LPC*%
G36*
X114369Y187751D02*
X114369Y187751D01*
X111212Y189059D01*
X108795Y191476D01*
X107487Y194633D01*
X107487Y198051D01*
X108795Y201208D01*
X111212Y203625D01*
X112351Y204097D01*
X113576Y204604D01*
X114369Y204933D01*
X117787Y204933D01*
X120944Y203625D01*
X123361Y201208D01*
X124669Y198051D01*
X124669Y194633D01*
X123361Y191476D01*
X120944Y189059D01*
X120319Y188800D01*
X119094Y188293D01*
X117870Y187786D01*
X117787Y187751D01*
X114369Y187751D01*
G37*
%LPD*%
%LPC*%
G36*
X341191Y116530D02*
X341191Y116530D01*
X338034Y117838D01*
X335617Y120255D01*
X334309Y123412D01*
X334309Y126830D01*
X335617Y129987D01*
X338034Y132404D01*
X338446Y132575D01*
X339670Y133082D01*
X340895Y133589D01*
X341191Y133712D01*
X344609Y133712D01*
X347766Y132404D01*
X350183Y129987D01*
X351491Y126830D01*
X351491Y123412D01*
X350183Y120255D01*
X347766Y117838D01*
X347638Y117785D01*
X346414Y117278D01*
X345189Y116771D01*
X344609Y116530D01*
X341191Y116530D01*
G37*
%LPD*%
%LPC*%
G36*
X452951Y116530D02*
X452951Y116530D01*
X449794Y117838D01*
X447377Y120255D01*
X446069Y123412D01*
X446069Y126830D01*
X447377Y129987D01*
X449794Y132404D01*
X450206Y132575D01*
X451430Y133082D01*
X452655Y133589D01*
X452951Y133712D01*
X456369Y133712D01*
X459526Y132404D01*
X461943Y129987D01*
X463251Y126830D01*
X463251Y123412D01*
X461943Y120255D01*
X459526Y117838D01*
X459398Y117785D01*
X458174Y117278D01*
X456949Y116771D01*
X456369Y116530D01*
X452951Y116530D01*
G37*
%LPD*%
%LPC*%
G36*
X353891Y94533D02*
X353891Y94533D01*
X350734Y95841D01*
X348317Y98258D01*
X347009Y101415D01*
X347009Y104833D01*
X348317Y107990D01*
X350734Y110407D01*
X351593Y110763D01*
X352818Y111270D01*
X353891Y111715D01*
X357309Y111715D01*
X360466Y110407D01*
X362883Y107990D01*
X364191Y104833D01*
X364191Y101415D01*
X362883Y98258D01*
X360466Y95841D01*
X359561Y95466D01*
X358336Y94959D01*
X357309Y94533D01*
X353891Y94533D01*
G37*
%LPD*%
%LPC*%
G36*
X397071Y123489D02*
X397071Y123489D01*
X393914Y124797D01*
X391497Y127214D01*
X390189Y130371D01*
X390189Y133789D01*
X391497Y136946D01*
X393914Y139363D01*
X394670Y139676D01*
X395894Y140183D01*
X395895Y140183D01*
X397071Y140671D01*
X400489Y140671D01*
X403646Y139363D01*
X406063Y136946D01*
X407371Y133789D01*
X407371Y130371D01*
X406063Y127214D01*
X403646Y124797D01*
X402638Y124379D01*
X401413Y123872D01*
X400489Y123489D01*
X397071Y123489D01*
G37*
%LPD*%
%LPC*%
G36*
X366591Y72536D02*
X366591Y72536D01*
X363434Y73844D01*
X361017Y76261D01*
X359709Y79418D01*
X359709Y82836D01*
X361017Y85993D01*
X363434Y88410D01*
X363516Y88444D01*
X364740Y88951D01*
X364741Y88951D01*
X365965Y89458D01*
X366591Y89718D01*
X370009Y89718D01*
X373166Y88410D01*
X375583Y85993D01*
X376891Y82836D01*
X376891Y79418D01*
X375583Y76261D01*
X373166Y73844D01*
X372708Y73654D01*
X371484Y73147D01*
X370259Y72640D01*
X370009Y72536D01*
X366591Y72536D01*
G37*
%LPD*%
%LPC*%
G36*
X397071Y98089D02*
X397071Y98089D01*
X393914Y99397D01*
X391497Y101814D01*
X390189Y104971D01*
X390189Y108389D01*
X391497Y111546D01*
X393914Y113963D01*
X394760Y114314D01*
X394761Y114314D01*
X395985Y114821D01*
X397071Y115271D01*
X400489Y115271D01*
X403646Y113963D01*
X406063Y111546D01*
X407371Y108389D01*
X407371Y104971D01*
X406063Y101814D01*
X403646Y99397D01*
X402728Y99017D01*
X401504Y98510D01*
X400489Y98089D01*
X397071Y98089D01*
G37*
%LPD*%
%LPC*%
G36*
X397071Y72689D02*
X397071Y72689D01*
X393914Y73997D01*
X391497Y76414D01*
X390189Y79571D01*
X390189Y82989D01*
X391497Y86146D01*
X393914Y88563D01*
X394851Y88951D01*
X396076Y89458D01*
X397071Y89871D01*
X400489Y89871D01*
X403646Y88563D01*
X406063Y86146D01*
X407371Y82989D01*
X407371Y79571D01*
X406063Y76414D01*
X403646Y73997D01*
X402819Y73654D01*
X401594Y73147D01*
X400489Y72689D01*
X397071Y72689D01*
G37*
%LPD*%
%LPC*%
G36*
X214191Y107487D02*
X214191Y107487D01*
X211034Y108795D01*
X208617Y111212D01*
X207309Y114369D01*
X207309Y117787D01*
X208617Y120944D01*
X211034Y123361D01*
X211235Y123444D01*
X212459Y123951D01*
X213684Y124459D01*
X214191Y124669D01*
X217609Y124669D01*
X220766Y123361D01*
X223183Y120944D01*
X224491Y117787D01*
X224491Y114369D01*
X223183Y111212D01*
X220766Y108795D01*
X220427Y108655D01*
X219203Y108147D01*
X219202Y108147D01*
X217978Y107640D01*
X217609Y107487D01*
X214191Y107487D01*
G37*
%LPD*%
%LPC*%
G36*
X163391Y107487D02*
X163391Y107487D01*
X160234Y108795D01*
X157817Y111212D01*
X156509Y114369D01*
X156509Y117787D01*
X157817Y120944D01*
X160234Y123361D01*
X160435Y123444D01*
X161659Y123951D01*
X162884Y124459D01*
X163391Y124669D01*
X166809Y124669D01*
X169966Y123361D01*
X172383Y120944D01*
X173691Y117787D01*
X173691Y114369D01*
X172383Y111212D01*
X169966Y108795D01*
X169627Y108655D01*
X168403Y108147D01*
X168402Y108147D01*
X167178Y107640D01*
X166809Y107487D01*
X163391Y107487D01*
G37*
%LPD*%
%LPC*%
G36*
X21255Y434679D02*
X21255Y434679D01*
X18189Y435949D01*
X15843Y438295D01*
X14573Y441361D01*
X14573Y444679D01*
X15843Y447745D01*
X18189Y450091D01*
X21255Y451361D01*
X24573Y451361D01*
X27639Y450091D01*
X29985Y447745D01*
X31255Y444679D01*
X31255Y441361D01*
X29985Y438295D01*
X27639Y435949D01*
X24573Y434679D01*
X21255Y434679D01*
G37*
%LPD*%
%LPC*%
G36*
X21255Y394679D02*
X21255Y394679D01*
X18189Y395949D01*
X15843Y398295D01*
X14573Y401361D01*
X14573Y404679D01*
X15843Y407745D01*
X18189Y410091D01*
X21255Y411361D01*
X24573Y411361D01*
X27639Y410091D01*
X29985Y407745D01*
X31255Y404679D01*
X31255Y401361D01*
X29985Y398295D01*
X27639Y395949D01*
X24573Y394679D01*
X21255Y394679D01*
G37*
%LPD*%
%LPC*%
G36*
X21255Y454679D02*
X21255Y454679D01*
X18189Y455949D01*
X15843Y458295D01*
X14573Y461361D01*
X14573Y464679D01*
X15843Y467745D01*
X18189Y470091D01*
X21255Y471361D01*
X24573Y471361D01*
X27639Y470091D01*
X29985Y467745D01*
X31255Y464679D01*
X31255Y461361D01*
X29985Y458295D01*
X27639Y455949D01*
X24573Y454679D01*
X21255Y454679D01*
G37*
%LPD*%
%LPC*%
G36*
X191635Y167427D02*
X191635Y167427D01*
X188569Y168697D01*
X186223Y171043D01*
X184953Y174109D01*
X184953Y177427D01*
X186223Y180493D01*
X188569Y182839D01*
X189681Y183300D01*
X189682Y183300D01*
X190906Y183807D01*
X191635Y184109D01*
X194953Y184109D01*
X198019Y182839D01*
X200365Y180493D01*
X201635Y177427D01*
X201635Y174109D01*
X200365Y171043D01*
X198019Y168697D01*
X197567Y168510D01*
X196343Y168003D01*
X195118Y167496D01*
X194953Y167427D01*
X191635Y167427D01*
G37*
%LPD*%
%LPC*%
G36*
X191635Y218227D02*
X191635Y218227D01*
X188569Y219497D01*
X186223Y221843D01*
X184953Y224909D01*
X184953Y228227D01*
X186223Y231293D01*
X188569Y233639D01*
X189500Y234025D01*
X189501Y234025D01*
X190725Y234532D01*
X191635Y234909D01*
X194953Y234909D01*
X198019Y233639D01*
X200365Y231293D01*
X201635Y228227D01*
X201635Y224909D01*
X200365Y221843D01*
X198019Y219497D01*
X197386Y219235D01*
X196162Y218728D01*
X194953Y218227D01*
X191635Y218227D01*
G37*
%LPD*%
%LPC*%
G36*
X572484Y417455D02*
X572484Y417455D01*
X569639Y418634D01*
X567462Y420811D01*
X566283Y423656D01*
X566283Y426736D01*
X567462Y429581D01*
X569639Y431758D01*
X569866Y431852D01*
X571090Y432359D01*
X572315Y432867D01*
X572484Y432937D01*
X575564Y432937D01*
X578409Y431758D01*
X580586Y429581D01*
X581765Y426736D01*
X581765Y423656D01*
X580586Y420811D01*
X578409Y418634D01*
X578290Y418584D01*
X577065Y418077D01*
X575841Y417570D01*
X575840Y417570D01*
X575564Y417455D01*
X572484Y417455D01*
G37*
%LPD*%
%LPC*%
G36*
X621284Y417455D02*
X621284Y417455D01*
X618439Y418634D01*
X616262Y420811D01*
X615083Y423656D01*
X615083Y426736D01*
X616262Y429581D01*
X618439Y431758D01*
X618666Y431852D01*
X619890Y432359D01*
X621115Y432867D01*
X621284Y432937D01*
X624364Y432937D01*
X627209Y431758D01*
X629386Y429581D01*
X630565Y426736D01*
X630565Y423656D01*
X629386Y420811D01*
X627209Y418634D01*
X627090Y418584D01*
X625865Y418077D01*
X624641Y417570D01*
X624640Y417570D01*
X624364Y417455D01*
X621284Y417455D01*
G37*
%LPD*%
%LPC*%
G36*
X97055Y104705D02*
X97055Y104705D01*
X97055Y116691D01*
X109041Y116691D01*
X109041Y104705D01*
X97055Y104705D01*
G37*
%LPD*%
%LPC*%
G36*
X97055Y91705D02*
X97055Y91705D01*
X97055Y103691D01*
X109041Y103691D01*
X109041Y91705D01*
X97055Y91705D01*
G37*
%LPD*%
%LPC*%
G36*
X97055Y78705D02*
X97055Y78705D01*
X97055Y90691D01*
X109041Y90691D01*
X109041Y78705D01*
X97055Y78705D01*
G37*
%LPD*%
%LPC*%
G36*
X445769Y435609D02*
X445769Y435609D01*
X445769Y444721D01*
X447133Y444505D01*
X448654Y444010D01*
X450079Y443284D01*
X451373Y442344D01*
X452504Y441213D01*
X453444Y439919D01*
X454170Y438494D01*
X454665Y436973D01*
X454881Y435609D01*
X445769Y435609D01*
G37*
%LPD*%
%LPC*%
G36*
X445769Y433579D02*
X445769Y433579D01*
X454881Y433579D01*
X454665Y432215D01*
X454170Y430694D01*
X453444Y429269D01*
X452504Y427975D01*
X451373Y426844D01*
X450079Y425904D01*
X448654Y425178D01*
X447133Y424683D01*
X445769Y424467D01*
X445769Y433579D01*
G37*
%LPD*%
%LPC*%
G36*
X434627Y435609D02*
X434627Y435609D01*
X434843Y436973D01*
X435338Y438494D01*
X436064Y439919D01*
X437004Y441213D01*
X438135Y442344D01*
X439429Y443284D01*
X440854Y444010D01*
X442375Y444505D01*
X443739Y444721D01*
X443739Y435609D01*
X434627Y435609D01*
G37*
%LPD*%
%LPC*%
G36*
X442375Y424683D02*
X442375Y424683D01*
X440854Y425178D01*
X439429Y425904D01*
X438135Y426844D01*
X437004Y427975D01*
X436064Y429269D01*
X435338Y430694D01*
X434843Y432215D01*
X434627Y433579D01*
X443739Y433579D01*
X443739Y424467D01*
X442375Y424683D01*
G37*
%LPD*%
%LPC*%
G36*
X558887Y245721D02*
X558887Y245721D01*
X563394Y253528D01*
X564067Y253039D01*
X565189Y251916D01*
X566122Y250633D01*
X566842Y249219D01*
X567333Y247710D01*
X567581Y246143D01*
X567581Y244556D01*
X567333Y242989D01*
X566842Y241480D01*
X566704Y241208D01*
X558887Y245721D01*
G37*
%LPD*%
%LPC*%
G36*
X549322Y251243D02*
X549322Y251243D01*
X549811Y251916D01*
X550933Y253039D01*
X552217Y253971D01*
X553630Y254691D01*
X555140Y255182D01*
X556707Y255430D01*
X558293Y255430D01*
X559860Y255182D01*
X561370Y254691D01*
X561641Y254553D01*
X557128Y246736D01*
X549322Y251243D01*
G37*
%LPD*%
%LPC*%
G36*
X550933Y237660D02*
X550933Y237660D01*
X549811Y238782D01*
X548878Y240066D01*
X548158Y241480D01*
X547667Y242989D01*
X547419Y244556D01*
X547419Y246143D01*
X547667Y247710D01*
X548158Y249219D01*
X548296Y249491D01*
X556113Y244978D01*
X551606Y237171D01*
X550933Y237660D01*
G37*
%LPD*%
%LPC*%
G36*
X556707Y235269D02*
X556707Y235269D01*
X555140Y235517D01*
X553630Y236007D01*
X553359Y236146D01*
X557872Y243962D01*
X565678Y239455D01*
X565189Y238782D01*
X564067Y237660D01*
X562783Y236728D01*
X561370Y236007D01*
X559860Y235517D01*
X558293Y235269D01*
X556707Y235269D01*
G37*
%LPD*%
%LPC*%
G36*
X562609Y189393D02*
X562609Y189393D01*
X562609Y198424D01*
X563954Y198211D01*
X565464Y197720D01*
X566877Y197000D01*
X568161Y196067D01*
X569283Y194945D01*
X570216Y193661D01*
X570936Y192248D01*
X571427Y190738D01*
X571640Y189393D01*
X562609Y189393D01*
G37*
%LPD*%
%LPC*%
G36*
X466597Y489965D02*
X466597Y489965D01*
X466597Y498996D01*
X467942Y498783D01*
X469452Y498292D01*
X470865Y497572D01*
X472149Y496639D01*
X473271Y495517D01*
X474204Y494233D01*
X474924Y492820D01*
X475415Y491310D01*
X475628Y489965D01*
X466597Y489965D01*
G37*
%LPD*%
%LPC*%
G36*
X437895Y44195D02*
X437895Y44195D01*
X437895Y53226D01*
X439240Y53013D01*
X440750Y52522D01*
X442163Y51802D01*
X443447Y50869D01*
X444569Y49747D01*
X445502Y48463D01*
X446222Y47050D01*
X446713Y45540D01*
X446926Y44195D01*
X437895Y44195D01*
G37*
%LPD*%
%LPC*%
G36*
X455536Y489965D02*
X455536Y489965D01*
X455749Y491310D01*
X456240Y492820D01*
X456960Y494233D01*
X457893Y495517D01*
X459015Y496639D01*
X460299Y497572D01*
X461712Y498292D01*
X463222Y498783D01*
X464567Y498996D01*
X464567Y489965D01*
X455536Y489965D01*
G37*
%LPD*%
%LPC*%
G36*
X551548Y189393D02*
X551548Y189393D01*
X551761Y190738D01*
X552252Y192248D01*
X552972Y193661D01*
X553905Y194945D01*
X555027Y196067D01*
X556311Y197000D01*
X557724Y197720D01*
X559234Y198211D01*
X560579Y198424D01*
X560579Y189393D01*
X551548Y189393D01*
G37*
%LPD*%
%LPC*%
G36*
X466597Y487935D02*
X466597Y487935D01*
X475628Y487935D01*
X475415Y486590D01*
X474924Y485080D01*
X474204Y483667D01*
X473271Y482383D01*
X472149Y481261D01*
X470865Y480328D01*
X469452Y479608D01*
X467942Y479117D01*
X466597Y478904D01*
X466597Y487935D01*
G37*
%LPD*%
%LPC*%
G36*
X426834Y44195D02*
X426834Y44195D01*
X427047Y45540D01*
X427538Y47050D01*
X428258Y48463D01*
X429191Y49747D01*
X430313Y50869D01*
X431597Y51802D01*
X433010Y52522D01*
X434520Y53013D01*
X435865Y53226D01*
X435865Y44195D01*
X426834Y44195D01*
G37*
%LPD*%
%LPC*%
G36*
X562609Y187363D02*
X562609Y187363D01*
X571640Y187363D01*
X571427Y186018D01*
X570936Y184508D01*
X570216Y183095D01*
X569283Y181811D01*
X568161Y180689D01*
X566877Y179756D01*
X565464Y179036D01*
X563954Y178545D01*
X562609Y178332D01*
X562609Y187363D01*
G37*
%LPD*%
%LPC*%
G36*
X437895Y42165D02*
X437895Y42165D01*
X446926Y42165D01*
X446713Y40820D01*
X446222Y39310D01*
X445502Y37897D01*
X444569Y36613D01*
X443447Y35491D01*
X442163Y34558D01*
X440750Y33838D01*
X439240Y33347D01*
X437895Y33134D01*
X437895Y42165D01*
G37*
%LPD*%
%LPC*%
G36*
X434520Y33347D02*
X434520Y33347D01*
X433010Y33838D01*
X431597Y34558D01*
X430313Y35491D01*
X429191Y36613D01*
X428258Y37897D01*
X427538Y39310D01*
X427047Y40820D01*
X426834Y42165D01*
X435865Y42165D01*
X435865Y33134D01*
X434520Y33347D01*
G37*
%LPD*%
%LPC*%
G36*
X463222Y479117D02*
X463222Y479117D01*
X461712Y479608D01*
X460299Y480328D01*
X459015Y481261D01*
X457893Y482383D01*
X456960Y483667D01*
X456240Y485080D01*
X455749Y486590D01*
X455536Y487935D01*
X464567Y487935D01*
X464567Y478904D01*
X463222Y479117D01*
G37*
%LPD*%
%LPC*%
G36*
X559234Y178545D02*
X559234Y178545D01*
X557724Y179036D01*
X556311Y179756D01*
X555027Y180689D01*
X553905Y181811D01*
X552972Y183095D01*
X552252Y184508D01*
X551761Y186018D01*
X551548Y187363D01*
X560579Y187363D01*
X560579Y178332D01*
X559234Y178545D01*
G37*
%LPD*%
%LPC*%
G36*
X278161Y254607D02*
X278161Y254607D01*
X281079Y262623D01*
X281398Y262490D01*
X282967Y261442D01*
X284302Y260107D01*
X285350Y258538D01*
X286073Y256795D01*
X286441Y254944D01*
X286441Y253056D01*
X286169Y251692D01*
X278161Y254607D01*
G37*
%LPD*%
%LPC*%
G36*
X278161Y381607D02*
X278161Y381607D01*
X281079Y389623D01*
X281398Y389490D01*
X282967Y388442D01*
X284302Y387107D01*
X285350Y385538D01*
X286073Y383795D01*
X286441Y381944D01*
X286441Y380056D01*
X286169Y378692D01*
X278161Y381607D01*
G37*
%LPD*%
%LPC*%
G36*
X278161Y178407D02*
X278161Y178407D01*
X281079Y186423D01*
X281398Y186290D01*
X282967Y185242D01*
X284302Y183907D01*
X285350Y182338D01*
X286073Y180595D01*
X286441Y178744D01*
X286441Y176856D01*
X286169Y175492D01*
X278161Y178407D01*
G37*
%LPD*%
%LPC*%
G36*
X278161Y330807D02*
X278161Y330807D01*
X281079Y338823D01*
X281398Y338690D01*
X282967Y337642D01*
X284302Y336307D01*
X285350Y334738D01*
X286073Y332995D01*
X286441Y331144D01*
X286441Y329256D01*
X286169Y327892D01*
X278161Y330807D01*
G37*
%LPD*%
%LPC*%
G36*
X268237Y334419D02*
X268237Y334419D01*
X268370Y334738D01*
X269418Y336307D01*
X270753Y337642D01*
X272322Y338690D01*
X273130Y339025D01*
X273131Y339025D01*
X274065Y339413D01*
X275916Y339781D01*
X277804Y339781D01*
X279168Y339509D01*
X276253Y331501D01*
X268237Y334419D01*
G37*
%LPD*%
%LPC*%
G36*
X268237Y385219D02*
X268237Y385219D01*
X268370Y385538D01*
X269418Y387107D01*
X270753Y388442D01*
X272322Y389490D01*
X272949Y389750D01*
X272950Y389750D01*
X274065Y390213D01*
X275916Y390581D01*
X277804Y390581D01*
X279168Y390309D01*
X276253Y382301D01*
X268237Y385219D01*
G37*
%LPD*%
%LPC*%
G36*
X268237Y182019D02*
X268237Y182019D01*
X268370Y182338D01*
X269418Y183907D01*
X270753Y185242D01*
X272322Y186290D01*
X272449Y186343D01*
X273674Y186850D01*
X274065Y187013D01*
X275916Y187381D01*
X277804Y187381D01*
X279168Y187109D01*
X276253Y179101D01*
X268237Y182019D01*
G37*
%LPD*%
%LPC*%
G36*
X268237Y258219D02*
X268237Y258219D01*
X268370Y258538D01*
X269418Y260107D01*
X270753Y261442D01*
X272322Y262490D01*
X273402Y262938D01*
X274065Y263213D01*
X275916Y263581D01*
X277804Y263581D01*
X279168Y263309D01*
X276253Y255301D01*
X268237Y258219D01*
G37*
%LPD*%
%LPC*%
G36*
X275916Y168219D02*
X275916Y168219D01*
X274552Y168491D01*
X277467Y176499D01*
X285483Y173581D01*
X285350Y173262D01*
X284302Y171693D01*
X282967Y170358D01*
X281398Y169310D01*
X280693Y169017D01*
X280692Y169017D01*
X279655Y168587D01*
X277804Y168219D01*
X275916Y168219D01*
G37*
%LPD*%
%LPC*%
G36*
X275916Y371419D02*
X275916Y371419D01*
X274552Y371691D01*
X277467Y379699D01*
X285483Y376781D01*
X285350Y376462D01*
X284302Y374893D01*
X282967Y373558D01*
X281398Y372510D01*
X281193Y372425D01*
X279968Y371917D01*
X279655Y371787D01*
X277804Y371419D01*
X275916Y371419D01*
G37*
%LPD*%
%LPC*%
G36*
X275916Y320619D02*
X275916Y320619D01*
X274552Y320891D01*
X277467Y328899D01*
X285483Y325981D01*
X285350Y325662D01*
X284302Y324093D01*
X282967Y322758D01*
X281398Y321710D01*
X281374Y321700D01*
X280149Y321192D01*
X279655Y320987D01*
X277804Y320619D01*
X275916Y320619D01*
G37*
%LPD*%
%LPC*%
G36*
X275916Y244419D02*
X275916Y244419D01*
X274552Y244691D01*
X277467Y252699D01*
X285483Y249781D01*
X285350Y249462D01*
X284302Y247893D01*
X282967Y246558D01*
X281398Y245510D01*
X280421Y245105D01*
X279655Y244787D01*
X277804Y244419D01*
X275916Y244419D01*
G37*
%LPD*%
%LPC*%
G36*
X272322Y245510D02*
X272322Y245510D01*
X270753Y246558D01*
X269418Y247893D01*
X268370Y249462D01*
X267647Y251205D01*
X267279Y253056D01*
X267279Y254944D01*
X267551Y256308D01*
X275559Y253393D01*
X272641Y245377D01*
X272322Y245510D01*
G37*
%LPD*%
%LPC*%
G36*
X272322Y169310D02*
X272322Y169310D01*
X270753Y170358D01*
X269418Y171693D01*
X268370Y173262D01*
X267647Y175005D01*
X267279Y176856D01*
X267279Y178744D01*
X267551Y180108D01*
X275559Y177193D01*
X272641Y169177D01*
X272322Y169310D01*
G37*
%LPD*%
%LPC*%
G36*
X272322Y372510D02*
X272322Y372510D01*
X270753Y373558D01*
X269418Y374893D01*
X268370Y376462D01*
X267647Y378205D01*
X267279Y380056D01*
X267279Y381944D01*
X267551Y383308D01*
X275559Y380393D01*
X272641Y372377D01*
X272322Y372510D01*
G37*
%LPD*%
%LPC*%
G36*
X272322Y321710D02*
X272322Y321710D01*
X270753Y322758D01*
X269418Y324093D01*
X268370Y325662D01*
X267647Y327405D01*
X267279Y329256D01*
X267279Y331144D01*
X267551Y332508D01*
X275559Y329593D01*
X272641Y321577D01*
X272322Y321710D01*
G37*
%LPD*%
%LPC*%
G36*
X328675Y331215D02*
X328675Y331215D01*
X328675Y339767D01*
X330455Y339413D01*
X332198Y338690D01*
X333767Y337642D01*
X335102Y336307D01*
X336150Y334738D01*
X336873Y332995D01*
X337227Y331215D01*
X328675Y331215D01*
G37*
%LPD*%
%LPC*%
G36*
X328675Y329185D02*
X328675Y329185D01*
X337226Y329185D01*
X336873Y327405D01*
X336150Y325662D01*
X335102Y324093D01*
X333767Y322758D01*
X332198Y321710D01*
X332174Y321700D01*
X330949Y321192D01*
X330455Y320987D01*
X328675Y320633D01*
X328675Y329185D01*
G37*
%LPD*%
%LPC*%
G36*
X318093Y331215D02*
X318093Y331215D01*
X318447Y332995D01*
X319170Y334738D01*
X320218Y336307D01*
X321553Y337642D01*
X323122Y338690D01*
X323930Y339025D01*
X323931Y339025D01*
X324865Y339413D01*
X326645Y339766D01*
X326645Y331215D01*
X318093Y331215D01*
G37*
%LPD*%
%LPC*%
G36*
X324865Y320987D02*
X324865Y320987D01*
X323122Y321710D01*
X321553Y322758D01*
X320218Y324093D01*
X319170Y325662D01*
X318447Y327405D01*
X318094Y329185D01*
X326645Y329185D01*
X326645Y320634D01*
X324865Y320987D01*
G37*
%LPD*%
%LPC*%
G36*
X110055Y104705D02*
X110055Y104705D01*
X110055Y116691D01*
X115629Y116691D01*
X115629Y116599D01*
X115395Y115424D01*
X114937Y114318D01*
X114271Y113322D01*
X113424Y112475D01*
X112428Y111809D01*
X111322Y111351D01*
X110540Y111196D01*
X110539Y111195D01*
X110538Y111195D01*
X110446Y111156D01*
X110355Y111118D01*
X110354Y111117D01*
X110353Y111117D01*
X110282Y111044D01*
X110215Y110976D01*
X110214Y110974D01*
X110213Y110973D01*
X110178Y110884D01*
X110140Y110789D01*
X110140Y110788D01*
X110140Y110787D01*
X110142Y110690D01*
X110144Y110589D01*
X110144Y110588D01*
X110144Y110586D01*
X110184Y110498D01*
X110225Y110406D01*
X110226Y110405D01*
X110226Y110403D01*
X110298Y110336D01*
X110370Y110268D01*
X110371Y110267D01*
X110372Y110266D01*
X110540Y110201D01*
X111322Y110045D01*
X112428Y109587D01*
X113424Y108921D01*
X114271Y108074D01*
X114937Y107078D01*
X115395Y105972D01*
X115629Y104797D01*
X115629Y104705D01*
X110055Y104705D01*
G37*
%LPD*%
%LPC*%
G36*
X110055Y91705D02*
X110055Y91705D01*
X110055Y103691D01*
X115629Y103691D01*
X115629Y103599D01*
X115395Y102424D01*
X114937Y101318D01*
X114271Y100322D01*
X113424Y99475D01*
X112428Y98809D01*
X111322Y98351D01*
X110540Y98196D01*
X110539Y98195D01*
X110538Y98195D01*
X110446Y98156D01*
X110355Y98118D01*
X110354Y98117D01*
X110353Y98117D01*
X110283Y98045D01*
X110215Y97976D01*
X110214Y97974D01*
X110213Y97973D01*
X110178Y97884D01*
X110140Y97789D01*
X110140Y97788D01*
X110140Y97787D01*
X110142Y97687D01*
X110144Y97589D01*
X110144Y97588D01*
X110144Y97586D01*
X110184Y97498D01*
X110225Y97406D01*
X110226Y97405D01*
X110226Y97403D01*
X110298Y97336D01*
X110370Y97268D01*
X110371Y97267D01*
X110372Y97266D01*
X110540Y97201D01*
X111322Y97045D01*
X112428Y96587D01*
X113424Y95921D01*
X114271Y95074D01*
X114937Y94078D01*
X115395Y92972D01*
X115629Y91797D01*
X115629Y91705D01*
X110055Y91705D01*
G37*
%LPD*%
%LPC*%
G36*
X110055Y78705D02*
X110055Y78705D01*
X110055Y90691D01*
X115629Y90691D01*
X115629Y90599D01*
X115395Y89424D01*
X114937Y88318D01*
X114271Y87322D01*
X113424Y86475D01*
X112428Y85809D01*
X111322Y85351D01*
X110540Y85195D01*
X110539Y85195D01*
X110538Y85195D01*
X110445Y85156D01*
X110355Y85118D01*
X110354Y85117D01*
X110353Y85117D01*
X110283Y85046D01*
X110214Y84975D01*
X110214Y84974D01*
X110213Y84973D01*
X110177Y84882D01*
X110140Y84789D01*
X110140Y84788D01*
X110140Y84787D01*
X110142Y84690D01*
X110144Y84589D01*
X110144Y84588D01*
X110144Y84586D01*
X110185Y84496D01*
X110225Y84406D01*
X110226Y84405D01*
X110226Y84403D01*
X110297Y84337D01*
X110370Y84268D01*
X110372Y84267D01*
X110372Y84266D01*
X110540Y84200D01*
X111322Y84045D01*
X112428Y83587D01*
X113424Y82921D01*
X114271Y82074D01*
X114937Y81078D01*
X115395Y79972D01*
X115629Y78797D01*
X115629Y78705D01*
X110055Y78705D01*
G37*
%LPD*%
%LPC*%
G36*
X97055Y117705D02*
X97055Y117705D01*
X97055Y123279D01*
X97147Y123279D01*
X98322Y123045D01*
X99428Y122587D01*
X100424Y121921D01*
X101271Y121074D01*
X101937Y120078D01*
X102395Y118972D01*
X102550Y118190D01*
X102551Y118189D01*
X102551Y118188D01*
X102575Y118132D01*
X102576Y118126D01*
X102579Y118122D01*
X102590Y118096D01*
X102628Y118005D01*
X102629Y118004D01*
X102629Y118003D01*
X102699Y117935D01*
X102770Y117864D01*
X102772Y117864D01*
X102773Y117863D01*
X102861Y117828D01*
X102957Y117790D01*
X102958Y117790D01*
X102959Y117790D01*
X103056Y117792D01*
X103157Y117794D01*
X103158Y117794D01*
X103160Y117794D01*
X103249Y117834D01*
X103340Y117875D01*
X103341Y117876D01*
X103343Y117876D01*
X103412Y117950D01*
X103478Y118020D01*
X103479Y118021D01*
X103480Y118022D01*
X103527Y118144D01*
X103528Y118145D01*
X103528Y118147D01*
X103545Y118190D01*
X103701Y118972D01*
X104159Y120078D01*
X104825Y121074D01*
X105672Y121921D01*
X106668Y122587D01*
X107774Y123045D01*
X108949Y123279D01*
X109041Y123279D01*
X109041Y117705D01*
X97055Y117705D01*
G37*
%LPD*%
%LPC*%
G36*
X90467Y91705D02*
X90467Y91705D01*
X90467Y91797D01*
X90701Y92972D01*
X91159Y94078D01*
X91825Y95074D01*
X92672Y95921D01*
X93668Y96587D01*
X94774Y97045D01*
X95556Y97201D01*
X95557Y97201D01*
X95558Y97201D01*
X95651Y97240D01*
X95741Y97278D01*
X95742Y97279D01*
X95743Y97279D01*
X95813Y97350D01*
X95882Y97421D01*
X95882Y97422D01*
X95883Y97423D01*
X95919Y97514D01*
X95956Y97607D01*
X95956Y97608D01*
X95956Y97609D01*
X95954Y97706D01*
X95952Y97807D01*
X95952Y97808D01*
X95952Y97810D01*
X95912Y97898D01*
X95871Y97990D01*
X95870Y97991D01*
X95870Y97993D01*
X95799Y98059D01*
X95726Y98128D01*
X95724Y98129D01*
X95724Y98130D01*
X95556Y98196D01*
X94774Y98351D01*
X93668Y98809D01*
X92672Y99475D01*
X91825Y100322D01*
X91159Y101318D01*
X90701Y102424D01*
X90467Y103599D01*
X90467Y103691D01*
X96041Y103691D01*
X96041Y91705D01*
X90467Y91705D01*
G37*
%LPD*%
%LPC*%
G36*
X90467Y78705D02*
X90467Y78705D01*
X90467Y78797D01*
X90701Y79972D01*
X91159Y81078D01*
X91825Y82074D01*
X92672Y82921D01*
X93668Y83587D01*
X94774Y84045D01*
X95556Y84200D01*
X95557Y84201D01*
X95558Y84201D01*
X95650Y84240D01*
X95741Y84278D01*
X95742Y84279D01*
X95743Y84279D01*
X95811Y84349D01*
X95882Y84420D01*
X95882Y84422D01*
X95883Y84423D01*
X95918Y84511D01*
X95956Y84607D01*
X95956Y84608D01*
X95956Y84609D01*
X95954Y84701D01*
X95952Y84807D01*
X95952Y84808D01*
X95952Y84810D01*
X95912Y84899D01*
X95871Y84990D01*
X95870Y84991D01*
X95870Y84993D01*
X95798Y85059D01*
X95726Y85128D01*
X95725Y85129D01*
X95724Y85130D01*
X95556Y85195D01*
X94774Y85351D01*
X93668Y85809D01*
X92672Y86475D01*
X91825Y87322D01*
X91159Y88318D01*
X90701Y89424D01*
X90467Y90599D01*
X90467Y90691D01*
X96041Y90691D01*
X96041Y78705D01*
X90467Y78705D01*
G37*
%LPD*%
%LPC*%
G36*
X90467Y104705D02*
X90467Y104705D01*
X90467Y104797D01*
X90701Y105972D01*
X91159Y107078D01*
X91825Y108074D01*
X92672Y108921D01*
X93668Y109587D01*
X94774Y110045D01*
X95556Y110201D01*
X95557Y110201D01*
X95558Y110201D01*
X95651Y110240D01*
X95741Y110278D01*
X95742Y110279D01*
X95743Y110279D01*
X95813Y110350D01*
X95882Y110421D01*
X95882Y110422D01*
X95883Y110423D01*
X95919Y110514D01*
X95956Y110607D01*
X95956Y110608D01*
X95956Y110609D01*
X95954Y110706D01*
X95952Y110807D01*
X95952Y110808D01*
X95952Y110810D01*
X95912Y110899D01*
X95871Y110990D01*
X95870Y110991D01*
X95870Y110993D01*
X95799Y111059D01*
X95726Y111128D01*
X95724Y111129D01*
X95724Y111130D01*
X95556Y111196D01*
X94774Y111351D01*
X93668Y111809D01*
X92672Y112475D01*
X91825Y113322D01*
X91159Y114318D01*
X90701Y115424D01*
X90467Y116599D01*
X90467Y116691D01*
X96041Y116691D01*
X96041Y104705D01*
X90467Y104705D01*
G37*
%LPD*%
%LPC*%
G36*
X97055Y72117D02*
X97055Y72117D01*
X97055Y77691D01*
X109041Y77691D01*
X109041Y72117D01*
X108949Y72117D01*
X107774Y72351D01*
X106668Y72809D01*
X105672Y73475D01*
X104825Y74322D01*
X104159Y75318D01*
X103701Y76424D01*
X103545Y77206D01*
X103545Y77207D01*
X103545Y77208D01*
X103506Y77301D01*
X103468Y77391D01*
X103467Y77392D01*
X103467Y77393D01*
X103396Y77463D01*
X103325Y77532D01*
X103324Y77532D01*
X103323Y77533D01*
X103232Y77569D01*
X103139Y77606D01*
X103138Y77606D01*
X103137Y77606D01*
X103040Y77604D01*
X102939Y77602D01*
X102938Y77602D01*
X102936Y77602D01*
X102847Y77562D01*
X102756Y77521D01*
X102755Y77520D01*
X102753Y77520D01*
X102687Y77449D01*
X102618Y77376D01*
X102617Y77374D01*
X102616Y77374D01*
X102550Y77206D01*
X102395Y76424D01*
X101937Y75318D01*
X101271Y74322D01*
X100424Y73475D01*
X99428Y72809D01*
X98322Y72351D01*
X97147Y72117D01*
X97055Y72117D01*
G37*
%LPD*%
%LPC*%
G36*
X110055Y117705D02*
X110055Y117705D01*
X110055Y123279D01*
X110147Y123279D01*
X111322Y123045D01*
X112428Y122587D01*
X113424Y121921D01*
X114271Y121074D01*
X114937Y120078D01*
X115395Y118972D01*
X115629Y117797D01*
X115629Y117705D01*
X110055Y117705D01*
G37*
%LPD*%
%LPC*%
G36*
X110055Y72117D02*
X110055Y72117D01*
X110055Y77691D01*
X115629Y77691D01*
X115629Y77599D01*
X115395Y76424D01*
X114937Y75318D01*
X114271Y74322D01*
X113424Y73475D01*
X112428Y72809D01*
X111322Y72351D01*
X110147Y72117D01*
X110055Y72117D01*
G37*
%LPD*%
%LPC*%
G36*
X90467Y117705D02*
X90467Y117705D01*
X90467Y117797D01*
X90701Y118972D01*
X91159Y120078D01*
X91825Y121074D01*
X92672Y121921D01*
X93668Y122587D01*
X94774Y123045D01*
X95949Y123279D01*
X96041Y123279D01*
X96041Y117705D01*
X90467Y117705D01*
G37*
%LPD*%
%LPC*%
G36*
X95949Y72117D02*
X95949Y72117D01*
X94774Y72351D01*
X93668Y72809D01*
X92672Y73475D01*
X91825Y74322D01*
X91159Y75318D01*
X90701Y76424D01*
X90467Y77599D01*
X90467Y77691D01*
X96041Y77691D01*
X96041Y72117D01*
X95949Y72117D01*
G37*
%LPD*%
%LPC*%
G36*
X327659Y330199D02*
X327659Y330199D01*
X327659Y330201D01*
X327661Y330201D01*
X327661Y330199D01*
X327659Y330199D01*
G37*
%LPD*%
%LPC*%
G36*
X465581Y488949D02*
X465581Y488949D01*
X465581Y488951D01*
X465583Y488951D01*
X465583Y488949D01*
X465581Y488949D01*
G37*
%LPD*%
%LPC*%
G36*
X561593Y188377D02*
X561593Y188377D01*
X561593Y188379D01*
X561595Y188379D01*
X561595Y188377D01*
X561593Y188377D01*
G37*
%LPD*%
%LPC*%
G36*
X444753Y434593D02*
X444753Y434593D01*
X444753Y434595D01*
X444755Y434595D01*
X444755Y434593D01*
X444753Y434593D01*
G37*
%LPD*%
%LPC*%
G36*
X436879Y43179D02*
X436879Y43179D01*
X436879Y43181D01*
X436881Y43181D01*
X436881Y43179D01*
X436879Y43179D01*
G37*
%LPD*%
%LPC*%
G36*
X557499Y245349D02*
X557499Y245349D01*
X557500Y245351D01*
X557501Y245350D01*
X557500Y245348D01*
X557499Y245349D01*
G37*
%LPD*%
%LPC*%
G36*
X276859Y330199D02*
X276859Y330199D01*
X276859Y330201D01*
X276861Y330201D01*
X276861Y330199D01*
X276859Y330199D01*
G37*
%LPD*%
%LPC*%
G36*
X276859Y253999D02*
X276859Y253999D01*
X276859Y254001D01*
X276861Y254001D01*
X276861Y253999D01*
X276859Y253999D01*
G37*
%LPD*%
%LPC*%
G36*
X276859Y380999D02*
X276859Y380999D01*
X276859Y381001D01*
X276861Y381001D01*
X276861Y380999D01*
X276859Y380999D01*
G37*
%LPD*%
%LPC*%
G36*
X276859Y177799D02*
X276859Y177799D01*
X276859Y177801D01*
X276861Y177801D01*
X276861Y177799D01*
X276859Y177799D01*
G37*
%LPD*%
D10*
X20840Y498800D03*
X40840Y498800D03*
D11*
X47884Y442196D03*
X47884Y455196D03*
X60884Y442196D03*
X60884Y455196D03*
X73884Y442196D03*
X73884Y455196D03*
X86884Y442196D03*
X86884Y455196D03*
X96548Y117198D03*
X109548Y117198D03*
X96548Y104198D03*
X109548Y104198D03*
X96548Y91198D03*
X109548Y91198D03*
X96548Y78198D03*
X109548Y78198D03*
D12*
X193294Y226568D03*
X167894Y201168D03*
X193294Y175768D03*
X22914Y443020D03*
X22914Y403020D03*
X22914Y383020D03*
X22914Y463020D03*
D13*
X276860Y355600D03*
X276860Y177800D03*
X276860Y330200D03*
X276860Y203200D03*
X276860Y304800D03*
X276860Y406400D03*
X276860Y279400D03*
D14*
X271898Y466864D02*
X271898Y477944D01*
X185498Y477944D02*
X185498Y466864D01*
X185498Y504864D02*
X185498Y515944D01*
X271898Y515944D02*
X271898Y504864D01*
D10*
X19558Y88646D03*
X19558Y63246D03*
D15*
X165100Y116078D03*
X190500Y116078D03*
X215900Y116078D03*
D13*
X276860Y381000D03*
X276860Y431800D03*
D10*
X465582Y488950D03*
X490982Y488950D03*
X516382Y488950D03*
X541782Y488950D03*
D13*
X276860Y254000D03*
D16*
X574024Y425196D03*
X622824Y425196D03*
D10*
X582500Y288651D03*
X557500Y245349D03*
X398780Y514350D03*
X449580Y514350D03*
D13*
X327660Y228600D03*
D15*
X454660Y125121D03*
X441960Y103124D03*
X429260Y81127D03*
X398780Y132080D03*
X398780Y106680D03*
X398780Y81280D03*
X342900Y125121D03*
X355600Y103124D03*
X368300Y81127D03*
D10*
X411480Y43180D03*
X436880Y43180D03*
D17*
X393954Y409194D03*
X419354Y409194D03*
X444754Y409194D03*
X393954Y434594D03*
X419354Y434594D03*
X444754Y434594D03*
D10*
X586994Y18378D03*
X536194Y18378D03*
X586994Y188378D03*
X561594Y188378D03*
X536194Y188378D03*
D13*
X327660Y330200D03*
X327660Y355600D03*
X327660Y304800D03*
X327660Y406400D03*
X327660Y203200D03*
X327660Y431800D03*
D15*
X65278Y196342D03*
X90678Y196342D03*
X116078Y196342D03*
D13*
X276860Y228600D03*
D10*
X227330Y267462D03*
X201930Y267462D03*
D18*
X65024Y286512D03*
D19*
X111834Y114912D02*
X140312Y114912D01*
X111834Y114912D02*
X109548Y117198D01*
D20*
X185420Y151638D03*
D19*
X177038Y151638D02*
X140312Y114912D01*
X177038Y151638D02*
X185420Y151638D01*
D18*
X61722Y271018D03*
X58928Y280416D03*
D20*
X25400Y15240D03*
D21*
X40640Y15240D01*
X96548Y71148D01*
X96548Y78198D01*
D18*
X122428Y351028D03*
X109728Y338328D03*
X122428Y338328D03*
D19*
X444754Y482854D02*
X450850Y488950D01*
X465582Y488950D01*
X444754Y482854D02*
X444754Y434594D01*
X427228Y452120D01*
X383540Y452120D01*
X377952Y446532D01*
X377952Y338328D02*
X383540Y332740D01*
D22*
X383540Y332740D03*
D19*
X377952Y379828D02*
X377952Y446532D01*
X377952Y379828D02*
X377952Y338328D01*
X561594Y188378D02*
X561594Y188214D01*
X557500Y192308D02*
X557500Y245349D01*
X557500Y192308D02*
X561594Y188214D01*
D21*
X465582Y488950D02*
X465582Y496062D01*
X477520Y508000D01*
X576580Y508000D01*
X604520Y480060D01*
D22*
X604520Y480060D03*
X377952Y379828D03*
X502920Y55880D03*
X360172Y298704D03*
D19*
X368300Y292354D02*
X368300Y126333D01*
X377952Y101600D01*
X388593Y62230D01*
X420550Y62230D01*
X436880Y45900D02*
X436880Y43180D01*
X436880Y45900D02*
X420550Y62230D01*
X436880Y43180D02*
X449580Y55880D01*
X502920Y55880D01*
D23*
X71374Y155956D02*
X71078Y155744D01*
D18*
X71374Y155956D03*
D23*
X71078Y155744D02*
X46482Y180340D01*
D18*
X84836Y144526D03*
X79756Y155702D03*
D24*
X84836Y150622D01*
X84836Y145814D01*
X81516Y145814D01*
X71374Y155956D01*
D23*
X79756Y155702D02*
X89154Y165100D01*
X207137Y214503D02*
X246634Y254000D01*
X207137Y214503D02*
X157734Y165100D01*
X89154Y165100D01*
D25*
X360172Y298704D02*
X361950Y298704D01*
X368300Y292354D01*
D23*
X109548Y78198D02*
X96548Y78198D01*
X96548Y91198D01*
X109548Y91198D01*
X109548Y78198D01*
X109548Y91198D02*
X109548Y104198D01*
X109548Y117198D01*
X96548Y117198D01*
X96548Y104198D01*
X109548Y104198D01*
X96548Y104198D02*
X96548Y91198D01*
X246634Y254000D02*
X276860Y254000D01*
X63500Y243840D02*
X63500Y279400D01*
X114300Y281940D02*
X127000Y294640D01*
X127000Y309880D01*
X119380Y317500D01*
X119380Y335280D01*
X122428Y338328D01*
X46482Y226822D02*
X46482Y180340D01*
X46482Y226822D02*
X63500Y243840D01*
X66040Y281940D02*
X114300Y281940D01*
D26*
X66040Y285496D02*
X65024Y286512D01*
X66040Y285496D02*
X66040Y281940D01*
X66040Y276860D01*
X58928Y280416D02*
X65024Y286512D01*
X58928Y280416D02*
X61722Y277622D01*
X61722Y271018D01*
X66802Y276098D01*
X66040Y276860D01*
X63500Y279400D01*
X109728Y338328D02*
X116332Y338328D01*
X119380Y335280D01*
X109728Y338328D02*
X122428Y351028D01*
X122428Y338328D01*
X207137Y214503D02*
X232928Y188712D01*
X276098Y177800D02*
X276860Y177800D01*
X276098Y177800D02*
X265186Y188712D01*
X232928Y188712D01*
D20*
X314960Y148082D03*
X340360Y144780D03*
X375920Y144780D03*
X431800Y144780D03*
X464820Y144780D03*
X487680Y144780D03*
D22*
X584200Y254000D03*
D21*
X663168Y254000D02*
X665200Y256032D01*
X663168Y254000D02*
X584200Y254000D01*
D22*
X665200Y256032D03*
X350520Y431800D03*
D19*
X350520Y360680D01*
X345440Y355600D02*
X327660Y355600D01*
X345440Y355600D02*
X350520Y360680D01*
D21*
X342900Y355600D02*
X349250Y349250D01*
X342900Y355600D02*
X327660Y355600D01*
D22*
X337332Y167578D03*
D21*
X360680Y190926D02*
X360680Y268732D01*
X360680Y190926D02*
X337332Y167578D01*
X360680Y268732D02*
X349250Y280162D01*
X349250Y349250D01*
D22*
X138430Y413258D03*
D20*
X28702Y284988D03*
D21*
X74930Y360934D02*
X127254Y413258D01*
X138430Y413258D01*
X74930Y360934D02*
X74930Y355854D01*
X54356Y335280D02*
X38100Y335280D01*
X25400Y322580D01*
X25400Y288290D02*
X28702Y284988D01*
X54356Y335280D02*
X74930Y355854D01*
X25400Y322580D02*
X25400Y288290D01*
D26*
X47884Y491756D02*
X40840Y498800D01*
X47884Y491756D02*
X47884Y455196D01*
X60884Y455196D01*
X73884Y455196D01*
X86884Y455196D01*
X86884Y442196D01*
X73884Y442196D01*
X73884Y455196D01*
X73884Y442196D02*
X60884Y442196D01*
X47884Y442196D01*
X47884Y455196D01*
X60884Y455196D02*
X60884Y442196D01*
D18*
X92202Y217170D03*
X81788Y217932D03*
D23*
X124162Y220472D02*
X190202Y286512D01*
X255270Y279400D02*
X276860Y279400D01*
X255270Y279400D02*
X248158Y286512D01*
X190202Y286512D01*
D18*
X72898Y215900D03*
D23*
X104648Y220472D02*
X124162Y220472D01*
X104648Y220472D02*
X104140Y220980D01*
X96012Y220980D01*
X92202Y217170D01*
X89662Y219710D01*
X83566Y219710D01*
X81788Y217932D01*
X74930Y217932D01*
X72898Y215900D01*
D19*
X124162Y220472D02*
X148590Y220472D01*
X167894Y201168D01*
D20*
X138430Y384556D03*
X46736Y318516D03*
D21*
X117094Y384556D02*
X138430Y384556D01*
X117094Y384556D02*
X53340Y320802D01*
X49022Y320802D01*
X46736Y318516D01*
D20*
X48260Y346710D03*
D21*
X60960Y356362D02*
X60960Y363220D01*
X60960Y356362D02*
X51308Y346710D01*
X48260Y346710D01*
X60960Y363220D02*
X121920Y424180D01*
X152400Y424180D01*
X162560Y414020D01*
X162560Y384810D01*
D20*
X162560Y384810D03*
D18*
X212228Y454914D03*
X207010Y448818D03*
D27*
X213106Y454914D01*
X213868Y455676D01*
X215138Y455676D02*
X228600Y469138D01*
X228600Y495300D01*
X233680Y495300D01*
D18*
X233680Y495300D03*
X224028Y495300D03*
D27*
X228600Y495300D01*
X224028Y495300D02*
X233680Y495300D01*
X213106Y454914D02*
X212228Y454914D01*
X213868Y455676D02*
X215138Y455676D01*
D26*
X212228Y454914D02*
X212228Y454036D01*
X207010Y448818D01*
D20*
X131572Y394462D03*
D18*
X173228Y429006D03*
X165862Y329692D03*
D26*
X165862Y320040D01*
D18*
X182118Y428752D03*
D26*
X165862Y335280D02*
X165862Y329692D01*
D24*
X165862Y335280D02*
X165862Y349504D01*
D26*
X165862Y320040D02*
X165608Y320040D01*
D18*
X165608Y320040D03*
D26*
X165100Y320040D01*
X160020Y325120D01*
D24*
X164592Y329692D01*
D26*
X165862Y329692D01*
X170180Y325374D01*
D24*
X170180Y324358D02*
X165862Y320040D01*
D26*
X170180Y324358D02*
X170180Y325374D01*
X170180Y330962D01*
D24*
X165862Y335280D01*
D26*
X160020Y329438D02*
X160020Y325120D01*
D24*
X160020Y329438D02*
X165862Y335280D01*
D18*
X178816Y436880D03*
D20*
X209550Y188468D03*
X259334Y171704D03*
D21*
X227076Y171704D01*
X210312Y188468D01*
X209550Y188468D01*
D20*
X106172Y303784D03*
D21*
X75184Y303784D01*
X70104Y298704D02*
X58928Y298704D01*
X48260Y288036D01*
X32258Y254254D02*
X32258Y244348D01*
D19*
X32766Y243840D01*
X33020Y243840D01*
D20*
X33020Y243840D03*
D21*
X70104Y298704D02*
X75184Y303784D01*
X48260Y288036D02*
X48260Y270256D01*
X32258Y254254D01*
D23*
X165862Y349504D02*
X165862Y356362D01*
X185420Y375920D01*
X185420Y406400D01*
X185420Y425450D01*
X182118Y428752D01*
D26*
X181864Y429006D02*
X173228Y429006D01*
X181864Y429006D02*
X185420Y425450D01*
X182118Y428752D02*
X178816Y432054D01*
X178816Y436880D01*
X178816Y434594D01*
X173228Y429006D01*
X178816Y436880D02*
X185420Y430276D01*
X185420Y425450D01*
D23*
X185420Y406400D02*
X276860Y406400D01*
D19*
X20840Y498800D02*
X20840Y514200D01*
X26670Y520030D01*
X113030Y520030D01*
X123700Y496112D02*
X166420Y453392D01*
X123700Y509360D02*
X113030Y520030D01*
X123700Y509360D02*
X123700Y496112D01*
D21*
X327660Y439420D02*
X339090Y450850D01*
X327660Y439420D02*
X327660Y431800D01*
X339090Y450850D02*
X356870Y450850D01*
X367284Y440436D02*
X367284Y325120D01*
X367284Y440436D02*
X356870Y450850D01*
X367284Y325120D02*
X380238Y312166D01*
X380238Y176022D01*
X421386Y100076D02*
X453898Y80264D01*
X536194Y39425D02*
X536194Y18378D01*
X536194Y39425D02*
X495355Y80264D01*
X453898Y80264D01*
X421386Y134874D02*
X380238Y176022D01*
X421386Y134874D02*
X421386Y100076D01*
D19*
X180594Y453392D02*
X166420Y453392D01*
X180594Y453392D02*
X202186Y431800D01*
X276860Y431800D01*
D20*
X48768Y360172D03*
D21*
X115062Y453390D02*
X104140Y464312D01*
X115062Y453390D02*
X115062Y432816D01*
D20*
X104140Y464312D03*
D21*
X48768Y366522D02*
X48768Y360172D01*
X48768Y366522D02*
X115062Y432816D01*
D20*
X191262Y97790D03*
D21*
X257556Y97790D01*
X259588Y95758D01*
D20*
X259588Y95758D03*
X32004Y103378D03*
D21*
X60452Y131826D01*
X126746Y131826D01*
X133604Y124968D01*
D22*
X133604Y124968D03*
X518160Y424180D03*
D21*
X515620Y421640D01*
X515620Y314960D01*
X518160Y312420D01*
D22*
X518160Y312420D03*
X453390Y263144D03*
D21*
X467360Y277114D02*
X467360Y408940D01*
X467360Y277114D02*
X453390Y263144D01*
D18*
X467360Y408940D03*
D22*
X524991Y252449D03*
D21*
X539242Y266700D01*
X626618Y266700D02*
X638302Y278384D01*
X626618Y266700D02*
X539242Y266700D01*
D22*
X638302Y278384D03*
D21*
X432054Y421894D02*
X419354Y434594D01*
X432054Y421894D02*
X432054Y214884D01*
X422656Y205486D01*
X421894Y205486D01*
D22*
X421894Y205486D03*
X537972Y399034D03*
D21*
X537972Y452628D01*
D22*
X461354Y468286D03*
D21*
X522314Y468286D01*
X537972Y452628D01*
D19*
X22914Y383020D02*
X12954Y373060D01*
X12954Y282194D01*
X157480Y304800D02*
X276860Y304800D01*
D21*
X330708Y276352D02*
X344678Y262382D01*
X330708Y301752D02*
X327660Y304800D01*
X330708Y301752D02*
X330708Y276352D01*
X344678Y262382D02*
X344678Y193040D01*
X484378Y14450D02*
X482346Y12418D01*
X347060Y12418D01*
D22*
X484378Y14450D03*
D21*
X327660Y176022D02*
X344678Y193040D01*
X327660Y31818D02*
X347060Y12418D01*
X327660Y31818D02*
X327660Y176022D01*
D19*
X21336Y273812D02*
X12954Y282194D01*
X62992Y309118D02*
X119634Y365760D01*
X134620Y365760D02*
X142240Y358140D01*
X142240Y320040D02*
X157480Y304800D01*
X142240Y320040D02*
X142240Y358140D01*
X134620Y365760D02*
X119634Y365760D01*
X33274Y273812D02*
X21336Y273812D01*
X33274Y273812D02*
X38608Y279146D01*
X51562Y309118D02*
X62992Y309118D01*
X38608Y296164D02*
X38608Y279146D01*
X38608Y296164D02*
X51562Y309118D01*
D22*
X447802Y375412D03*
X447724Y340536D03*
D21*
X447724Y375334D01*
X447802Y375412D01*
D22*
X504698Y251460D03*
D21*
X504698Y414782D02*
X502920Y416560D01*
X504698Y414782D02*
X504698Y251460D01*
D22*
X502920Y416560D03*
X470154Y187960D03*
D21*
X492760Y210566D01*
X492760Y411226D01*
X487680Y416306D01*
D22*
X487680Y416306D03*
D21*
X393954Y409194D02*
X393954Y281940D01*
D22*
X393954Y281940D03*
D21*
X409194Y399034D02*
X419354Y409194D01*
X409194Y399034D02*
X409194Y365760D01*
X409194Y272034D01*
X408940Y271780D01*
D22*
X408940Y271780D03*
X409194Y365760D03*
D20*
X250952Y315976D03*
D25*
X217424Y315976D01*
X215900Y317500D01*
D20*
X215900Y317500D03*
X229870Y213360D03*
D19*
X240792Y213360D02*
X256032Y228600D01*
X240792Y213360D02*
X229870Y213360D01*
X256032Y228600D02*
X276860Y228600D01*
X215900Y162560D02*
X215900Y152400D01*
D20*
X215900Y162560D03*
D19*
X193040Y129540D02*
X193040Y118618D01*
X193040Y129540D02*
X215900Y152400D01*
X193040Y118618D02*
X190500Y116078D01*
M02*
