G04 EAGLE Gerber RS-274X export*
G75*
%MOMM*%
%FSLAX34Y34*%
%LPD*%
%INSolderpaste Top*%
%IPPOS*%
%AMOC8*
5,1,8,0,0,1.08239X$1,22.5*%
G01*
%ADD10C,0.330000*%
%ADD11C,0.320000*%
%ADD12C,0.170000*%
%ADD13C,0.416000*%
%ADD14R,0.900000X0.800000*%
%ADD15R,1.900000X1.200000*%
%ADD16R,3.400000X2.710000*%
%ADD17C,0.030000*%
%ADD18C,0.150000*%
%ADD19R,2.710000X3.400000*%
%ADD20R,2.200000X1.600000*%
%ADD21R,0.700000X1.200000*%
%ADD22R,0.760000X1.200000*%
%ADD23R,0.800000X1.200000*%
%ADD24R,1.600000X3.200000*%
%ADD25C,0.137500*%
%ADD26C,0.532500*%


D10*
X32314Y315774D02*
X40014Y315774D01*
X40014Y308074D01*
X32314Y308074D01*
X32314Y315774D01*
X32314Y311209D02*
X40014Y311209D01*
X40014Y314344D02*
X32314Y314344D01*
X20014Y315774D02*
X12314Y315774D01*
X20014Y315774D02*
X20014Y308074D01*
X12314Y308074D01*
X12314Y315774D01*
X12314Y311209D02*
X20014Y311209D01*
X20014Y314344D02*
X12314Y314344D01*
X76804Y502368D02*
X84504Y502368D01*
X84504Y494668D01*
X76804Y494668D01*
X76804Y502368D01*
X76804Y497803D02*
X84504Y497803D01*
X84504Y500938D02*
X76804Y500938D01*
X64504Y502368D02*
X56804Y502368D01*
X64504Y502368D02*
X64504Y494668D01*
X56804Y494668D01*
X56804Y502368D01*
X56804Y497803D02*
X64504Y497803D01*
X64504Y500938D02*
X56804Y500938D01*
X134726Y481332D02*
X142426Y481332D01*
X142426Y473632D01*
X134726Y473632D01*
X134726Y481332D01*
X134726Y476767D02*
X142426Y476767D01*
X142426Y479902D02*
X134726Y479902D01*
X122426Y481332D02*
X114726Y481332D01*
X122426Y481332D02*
X122426Y473632D01*
X114726Y473632D01*
X114726Y481332D01*
X114726Y476767D02*
X122426Y476767D01*
X122426Y479902D02*
X114726Y479902D01*
X145566Y354622D02*
X145566Y346922D01*
X137866Y346922D01*
X137866Y354622D01*
X145566Y354622D01*
X145566Y350057D02*
X137866Y350057D01*
X137866Y353192D02*
X145566Y353192D01*
X145566Y366922D02*
X145566Y374622D01*
X145566Y366922D02*
X137866Y366922D01*
X137866Y374622D01*
X145566Y374622D01*
X145566Y370057D02*
X137866Y370057D01*
X137866Y373192D02*
X145566Y373192D01*
X152186Y61414D02*
X152186Y53714D01*
X144486Y53714D01*
X144486Y61414D01*
X152186Y61414D01*
X152186Y56849D02*
X144486Y56849D01*
X144486Y59984D02*
X152186Y59984D01*
X152186Y73714D02*
X152186Y81414D01*
X152186Y73714D02*
X144486Y73714D01*
X144486Y81414D01*
X152186Y81414D01*
X152186Y76849D02*
X144486Y76849D01*
X144486Y79984D02*
X152186Y79984D01*
D11*
X100376Y307291D02*
X87576Y307291D01*
X87576Y322121D01*
X100376Y322121D01*
X100376Y307291D01*
X100376Y310331D02*
X87576Y310331D01*
X87576Y313371D02*
X100376Y313371D01*
X100376Y316411D02*
X87576Y316411D01*
X87576Y319451D02*
X100376Y319451D01*
X71936Y307291D02*
X59136Y307291D01*
X59136Y322121D01*
X71936Y322121D01*
X71936Y307291D01*
X71936Y310331D02*
X59136Y310331D01*
X59136Y313371D02*
X71936Y313371D01*
X71936Y316411D02*
X59136Y316411D01*
X59136Y319451D02*
X71936Y319451D01*
D10*
X54062Y124594D02*
X54062Y116894D01*
X54062Y124594D02*
X61762Y124594D01*
X61762Y116894D01*
X54062Y116894D01*
X54062Y120029D02*
X61762Y120029D01*
X61762Y123164D02*
X54062Y123164D01*
X54062Y104594D02*
X54062Y96894D01*
X54062Y104594D02*
X61762Y104594D01*
X61762Y96894D01*
X54062Y96894D01*
X54062Y100029D02*
X61762Y100029D01*
X61762Y103164D02*
X54062Y103164D01*
X238306Y304332D02*
X246006Y304332D01*
X246006Y296632D01*
X238306Y296632D01*
X238306Y304332D01*
X238306Y299767D02*
X246006Y299767D01*
X246006Y302902D02*
X238306Y302902D01*
X226006Y304332D02*
X218306Y304332D01*
X226006Y304332D02*
X226006Y296632D01*
X218306Y296632D01*
X218306Y304332D01*
X218306Y299767D02*
X226006Y299767D01*
X226006Y302902D02*
X218306Y302902D01*
X218320Y365292D02*
X210620Y365292D01*
X218320Y365292D02*
X218320Y357592D01*
X210620Y357592D01*
X210620Y365292D01*
X210620Y360727D02*
X218320Y360727D01*
X218320Y363862D02*
X210620Y363862D01*
X198320Y365292D02*
X190620Y365292D01*
X198320Y365292D02*
X198320Y357592D01*
X190620Y357592D01*
X190620Y365292D01*
X190620Y360727D02*
X198320Y360727D01*
X198320Y363862D02*
X190620Y363862D01*
X226942Y357592D02*
X234642Y357592D01*
X226942Y357592D02*
X226942Y365292D01*
X234642Y365292D01*
X234642Y357592D01*
X234642Y360727D02*
X226942Y360727D01*
X226942Y363862D02*
X234642Y363862D01*
X246942Y357592D02*
X254642Y357592D01*
X246942Y357592D02*
X246942Y365292D01*
X254642Y365292D01*
X254642Y357592D01*
X254642Y360727D02*
X246942Y360727D01*
X246942Y363862D02*
X254642Y363862D01*
D11*
X51513Y235258D02*
X51513Y222458D01*
X51513Y235258D02*
X66343Y235258D01*
X66343Y222458D01*
X51513Y222458D01*
X51513Y225498D02*
X66343Y225498D01*
X66343Y228538D02*
X51513Y228538D01*
X51513Y231578D02*
X66343Y231578D01*
X66343Y234618D02*
X51513Y234618D01*
X51513Y250898D02*
X51513Y263698D01*
X66343Y263698D01*
X66343Y250898D01*
X51513Y250898D01*
X51513Y253938D02*
X66343Y253938D01*
X66343Y256978D02*
X51513Y256978D01*
X51513Y260018D02*
X66343Y260018D01*
X66343Y263058D02*
X51513Y263058D01*
D12*
X75774Y225268D02*
X99074Y225268D01*
X75774Y225268D02*
X75774Y240568D01*
X99074Y240568D01*
X99074Y225268D01*
X99074Y226883D02*
X75774Y226883D01*
X75774Y228498D02*
X99074Y228498D01*
X99074Y230113D02*
X75774Y230113D01*
X75774Y231728D02*
X99074Y231728D01*
X99074Y233343D02*
X75774Y233343D01*
X75774Y234958D02*
X99074Y234958D01*
X99074Y236573D02*
X75774Y236573D01*
X75774Y238188D02*
X99074Y238188D01*
X99074Y239803D02*
X75774Y239803D01*
X119874Y225268D02*
X143174Y225268D01*
X119874Y225268D02*
X119874Y240568D01*
X143174Y240568D01*
X143174Y225268D01*
X143174Y226883D02*
X119874Y226883D01*
X119874Y228498D02*
X143174Y228498D01*
X143174Y230113D02*
X119874Y230113D01*
X119874Y231728D02*
X143174Y231728D01*
X143174Y233343D02*
X119874Y233343D01*
X119874Y234958D02*
X143174Y234958D01*
X143174Y236573D02*
X119874Y236573D01*
X119874Y238188D02*
X143174Y238188D01*
X143174Y239803D02*
X119874Y239803D01*
D13*
X51316Y398102D02*
X44176Y398102D01*
X51316Y398102D02*
X51316Y394262D01*
X44176Y394262D01*
X44176Y398102D01*
X44176Y379102D02*
X51316Y379102D01*
X51316Y375262D01*
X44176Y375262D01*
X44176Y379102D01*
X63376Y384762D02*
X70516Y384762D01*
X63376Y384762D02*
X63376Y388602D01*
X70516Y388602D01*
X70516Y384762D01*
D12*
X176754Y79166D02*
X176754Y55866D01*
X176754Y79166D02*
X192054Y79166D01*
X192054Y55866D01*
X176754Y55866D01*
X176754Y57481D02*
X192054Y57481D01*
X192054Y59096D02*
X176754Y59096D01*
X176754Y60711D02*
X192054Y60711D01*
X192054Y62326D02*
X176754Y62326D01*
X176754Y63941D02*
X192054Y63941D01*
X192054Y65556D02*
X176754Y65556D01*
X176754Y67171D02*
X192054Y67171D01*
X192054Y68786D02*
X176754Y68786D01*
X176754Y70401D02*
X192054Y70401D01*
X192054Y72016D02*
X176754Y72016D01*
X176754Y73631D02*
X192054Y73631D01*
X192054Y75246D02*
X176754Y75246D01*
X176754Y76861D02*
X192054Y76861D01*
X192054Y78476D02*
X176754Y78476D01*
X176754Y35066D02*
X176754Y11766D01*
X176754Y35066D02*
X192054Y35066D01*
X192054Y11766D01*
X176754Y11766D01*
X176754Y13381D02*
X192054Y13381D01*
X192054Y14996D02*
X176754Y14996D01*
X176754Y16611D02*
X192054Y16611D01*
X192054Y18226D02*
X176754Y18226D01*
X176754Y19841D02*
X192054Y19841D01*
X192054Y21456D02*
X176754Y21456D01*
X176754Y23071D02*
X192054Y23071D01*
X192054Y24686D02*
X176754Y24686D01*
X176754Y26301D02*
X192054Y26301D01*
X192054Y27916D02*
X176754Y27916D01*
X176754Y29531D02*
X192054Y29531D01*
X192054Y31146D02*
X176754Y31146D01*
X176754Y32761D02*
X192054Y32761D01*
X192054Y34376D02*
X176754Y34376D01*
D14*
X181182Y416464D03*
X181182Y393464D03*
D15*
X200060Y293330D03*
X200060Y337330D03*
D16*
X67384Y448696D03*
D17*
X51184Y429296D02*
X51184Y414096D01*
X45484Y414096D01*
X45484Y429296D01*
X51184Y429296D01*
X51184Y414381D02*
X45484Y414381D01*
X45484Y414666D02*
X51184Y414666D01*
X51184Y414951D02*
X45484Y414951D01*
X45484Y415236D02*
X51184Y415236D01*
X51184Y415521D02*
X45484Y415521D01*
X45484Y415806D02*
X51184Y415806D01*
X51184Y416091D02*
X45484Y416091D01*
X45484Y416376D02*
X51184Y416376D01*
X51184Y416661D02*
X45484Y416661D01*
X45484Y416946D02*
X51184Y416946D01*
X51184Y417231D02*
X45484Y417231D01*
X45484Y417516D02*
X51184Y417516D01*
X51184Y417801D02*
X45484Y417801D01*
X45484Y418086D02*
X51184Y418086D01*
X51184Y418371D02*
X45484Y418371D01*
X45484Y418656D02*
X51184Y418656D01*
X51184Y418941D02*
X45484Y418941D01*
X45484Y419226D02*
X51184Y419226D01*
X51184Y419511D02*
X45484Y419511D01*
X45484Y419796D02*
X51184Y419796D01*
X51184Y420081D02*
X45484Y420081D01*
X45484Y420366D02*
X51184Y420366D01*
X51184Y420651D02*
X45484Y420651D01*
X45484Y420936D02*
X51184Y420936D01*
X51184Y421221D02*
X45484Y421221D01*
X45484Y421506D02*
X51184Y421506D01*
X51184Y421791D02*
X45484Y421791D01*
X45484Y422076D02*
X51184Y422076D01*
X51184Y422361D02*
X45484Y422361D01*
X45484Y422646D02*
X51184Y422646D01*
X51184Y422931D02*
X45484Y422931D01*
X45484Y423216D02*
X51184Y423216D01*
X51184Y423501D02*
X45484Y423501D01*
X45484Y423786D02*
X51184Y423786D01*
X51184Y424071D02*
X45484Y424071D01*
X45484Y424356D02*
X51184Y424356D01*
X51184Y424641D02*
X45484Y424641D01*
X45484Y424926D02*
X51184Y424926D01*
X51184Y425211D02*
X45484Y425211D01*
X45484Y425496D02*
X51184Y425496D01*
X51184Y425781D02*
X45484Y425781D01*
X45484Y426066D02*
X51184Y426066D01*
X51184Y426351D02*
X45484Y426351D01*
X45484Y426636D02*
X51184Y426636D01*
X51184Y426921D02*
X45484Y426921D01*
X45484Y427206D02*
X51184Y427206D01*
X51184Y427491D02*
X45484Y427491D01*
X45484Y427776D02*
X51184Y427776D01*
X51184Y428061D02*
X45484Y428061D01*
X45484Y428346D02*
X51184Y428346D01*
X51184Y428631D02*
X45484Y428631D01*
X45484Y428916D02*
X51184Y428916D01*
X51184Y429201D02*
X45484Y429201D01*
X63884Y429296D02*
X63884Y414096D01*
X58184Y414096D01*
X58184Y429296D01*
X63884Y429296D01*
X63884Y414381D02*
X58184Y414381D01*
X58184Y414666D02*
X63884Y414666D01*
X63884Y414951D02*
X58184Y414951D01*
X58184Y415236D02*
X63884Y415236D01*
X63884Y415521D02*
X58184Y415521D01*
X58184Y415806D02*
X63884Y415806D01*
X63884Y416091D02*
X58184Y416091D01*
X58184Y416376D02*
X63884Y416376D01*
X63884Y416661D02*
X58184Y416661D01*
X58184Y416946D02*
X63884Y416946D01*
X63884Y417231D02*
X58184Y417231D01*
X58184Y417516D02*
X63884Y417516D01*
X63884Y417801D02*
X58184Y417801D01*
X58184Y418086D02*
X63884Y418086D01*
X63884Y418371D02*
X58184Y418371D01*
X58184Y418656D02*
X63884Y418656D01*
X63884Y418941D02*
X58184Y418941D01*
X58184Y419226D02*
X63884Y419226D01*
X63884Y419511D02*
X58184Y419511D01*
X58184Y419796D02*
X63884Y419796D01*
X63884Y420081D02*
X58184Y420081D01*
X58184Y420366D02*
X63884Y420366D01*
X63884Y420651D02*
X58184Y420651D01*
X58184Y420936D02*
X63884Y420936D01*
X63884Y421221D02*
X58184Y421221D01*
X58184Y421506D02*
X63884Y421506D01*
X63884Y421791D02*
X58184Y421791D01*
X58184Y422076D02*
X63884Y422076D01*
X63884Y422361D02*
X58184Y422361D01*
X58184Y422646D02*
X63884Y422646D01*
X63884Y422931D02*
X58184Y422931D01*
X58184Y423216D02*
X63884Y423216D01*
X63884Y423501D02*
X58184Y423501D01*
X58184Y423786D02*
X63884Y423786D01*
X63884Y424071D02*
X58184Y424071D01*
X58184Y424356D02*
X63884Y424356D01*
X63884Y424641D02*
X58184Y424641D01*
X58184Y424926D02*
X63884Y424926D01*
X63884Y425211D02*
X58184Y425211D01*
X58184Y425496D02*
X63884Y425496D01*
X63884Y425781D02*
X58184Y425781D01*
X58184Y426066D02*
X63884Y426066D01*
X63884Y426351D02*
X58184Y426351D01*
X58184Y426636D02*
X63884Y426636D01*
X63884Y426921D02*
X58184Y426921D01*
X58184Y427206D02*
X63884Y427206D01*
X63884Y427491D02*
X58184Y427491D01*
X58184Y427776D02*
X63884Y427776D01*
X63884Y428061D02*
X58184Y428061D01*
X58184Y428346D02*
X63884Y428346D01*
X63884Y428631D02*
X58184Y428631D01*
X58184Y428916D02*
X63884Y428916D01*
X63884Y429201D02*
X58184Y429201D01*
X76584Y429296D02*
X76584Y414096D01*
X70884Y414096D01*
X70884Y429296D01*
X76584Y429296D01*
X76584Y414381D02*
X70884Y414381D01*
X70884Y414666D02*
X76584Y414666D01*
X76584Y414951D02*
X70884Y414951D01*
X70884Y415236D02*
X76584Y415236D01*
X76584Y415521D02*
X70884Y415521D01*
X70884Y415806D02*
X76584Y415806D01*
X76584Y416091D02*
X70884Y416091D01*
X70884Y416376D02*
X76584Y416376D01*
X76584Y416661D02*
X70884Y416661D01*
X70884Y416946D02*
X76584Y416946D01*
X76584Y417231D02*
X70884Y417231D01*
X70884Y417516D02*
X76584Y417516D01*
X76584Y417801D02*
X70884Y417801D01*
X70884Y418086D02*
X76584Y418086D01*
X76584Y418371D02*
X70884Y418371D01*
X70884Y418656D02*
X76584Y418656D01*
X76584Y418941D02*
X70884Y418941D01*
X70884Y419226D02*
X76584Y419226D01*
X76584Y419511D02*
X70884Y419511D01*
X70884Y419796D02*
X76584Y419796D01*
X76584Y420081D02*
X70884Y420081D01*
X70884Y420366D02*
X76584Y420366D01*
X76584Y420651D02*
X70884Y420651D01*
X70884Y420936D02*
X76584Y420936D01*
X76584Y421221D02*
X70884Y421221D01*
X70884Y421506D02*
X76584Y421506D01*
X76584Y421791D02*
X70884Y421791D01*
X70884Y422076D02*
X76584Y422076D01*
X76584Y422361D02*
X70884Y422361D01*
X70884Y422646D02*
X76584Y422646D01*
X76584Y422931D02*
X70884Y422931D01*
X70884Y423216D02*
X76584Y423216D01*
X76584Y423501D02*
X70884Y423501D01*
X70884Y423786D02*
X76584Y423786D01*
X76584Y424071D02*
X70884Y424071D01*
X70884Y424356D02*
X76584Y424356D01*
X76584Y424641D02*
X70884Y424641D01*
X70884Y424926D02*
X76584Y424926D01*
X76584Y425211D02*
X70884Y425211D01*
X70884Y425496D02*
X76584Y425496D01*
X76584Y425781D02*
X70884Y425781D01*
X70884Y426066D02*
X76584Y426066D01*
X76584Y426351D02*
X70884Y426351D01*
X70884Y426636D02*
X76584Y426636D01*
X76584Y426921D02*
X70884Y426921D01*
X70884Y427206D02*
X76584Y427206D01*
X76584Y427491D02*
X70884Y427491D01*
X70884Y427776D02*
X76584Y427776D01*
X76584Y428061D02*
X70884Y428061D01*
X70884Y428346D02*
X76584Y428346D01*
X76584Y428631D02*
X70884Y428631D01*
X70884Y428916D02*
X76584Y428916D01*
X76584Y429201D02*
X70884Y429201D01*
X89284Y429296D02*
X89284Y414096D01*
X83584Y414096D01*
X83584Y429296D01*
X89284Y429296D01*
X89284Y414381D02*
X83584Y414381D01*
X83584Y414666D02*
X89284Y414666D01*
X89284Y414951D02*
X83584Y414951D01*
X83584Y415236D02*
X89284Y415236D01*
X89284Y415521D02*
X83584Y415521D01*
X83584Y415806D02*
X89284Y415806D01*
X89284Y416091D02*
X83584Y416091D01*
X83584Y416376D02*
X89284Y416376D01*
X89284Y416661D02*
X83584Y416661D01*
X83584Y416946D02*
X89284Y416946D01*
X89284Y417231D02*
X83584Y417231D01*
X83584Y417516D02*
X89284Y417516D01*
X89284Y417801D02*
X83584Y417801D01*
X83584Y418086D02*
X89284Y418086D01*
X89284Y418371D02*
X83584Y418371D01*
X83584Y418656D02*
X89284Y418656D01*
X89284Y418941D02*
X83584Y418941D01*
X83584Y419226D02*
X89284Y419226D01*
X89284Y419511D02*
X83584Y419511D01*
X83584Y419796D02*
X89284Y419796D01*
X89284Y420081D02*
X83584Y420081D01*
X83584Y420366D02*
X89284Y420366D01*
X89284Y420651D02*
X83584Y420651D01*
X83584Y420936D02*
X89284Y420936D01*
X89284Y421221D02*
X83584Y421221D01*
X83584Y421506D02*
X89284Y421506D01*
X89284Y421791D02*
X83584Y421791D01*
X83584Y422076D02*
X89284Y422076D01*
X89284Y422361D02*
X83584Y422361D01*
X83584Y422646D02*
X89284Y422646D01*
X89284Y422931D02*
X83584Y422931D01*
X83584Y423216D02*
X89284Y423216D01*
X89284Y423501D02*
X83584Y423501D01*
X83584Y423786D02*
X89284Y423786D01*
X89284Y424071D02*
X83584Y424071D01*
X83584Y424356D02*
X89284Y424356D01*
X89284Y424641D02*
X83584Y424641D01*
X83584Y424926D02*
X89284Y424926D01*
X89284Y425211D02*
X83584Y425211D01*
X83584Y425496D02*
X89284Y425496D01*
X89284Y425781D02*
X83584Y425781D01*
X83584Y426066D02*
X89284Y426066D01*
X89284Y426351D02*
X83584Y426351D01*
X83584Y426636D02*
X89284Y426636D01*
X89284Y426921D02*
X83584Y426921D01*
X83584Y427206D02*
X89284Y427206D01*
X89284Y427491D02*
X83584Y427491D01*
X83584Y427776D02*
X89284Y427776D01*
X89284Y428061D02*
X83584Y428061D01*
X83584Y428346D02*
X89284Y428346D01*
X89284Y428631D02*
X83584Y428631D01*
X83584Y428916D02*
X89284Y428916D01*
X89284Y429201D02*
X83584Y429201D01*
X89284Y468096D02*
X89284Y483296D01*
X89284Y468096D02*
X83584Y468096D01*
X83584Y483296D01*
X89284Y483296D01*
X89284Y468381D02*
X83584Y468381D01*
X83584Y468666D02*
X89284Y468666D01*
X89284Y468951D02*
X83584Y468951D01*
X83584Y469236D02*
X89284Y469236D01*
X89284Y469521D02*
X83584Y469521D01*
X83584Y469806D02*
X89284Y469806D01*
X89284Y470091D02*
X83584Y470091D01*
X83584Y470376D02*
X89284Y470376D01*
X89284Y470661D02*
X83584Y470661D01*
X83584Y470946D02*
X89284Y470946D01*
X89284Y471231D02*
X83584Y471231D01*
X83584Y471516D02*
X89284Y471516D01*
X89284Y471801D02*
X83584Y471801D01*
X83584Y472086D02*
X89284Y472086D01*
X89284Y472371D02*
X83584Y472371D01*
X83584Y472656D02*
X89284Y472656D01*
X89284Y472941D02*
X83584Y472941D01*
X83584Y473226D02*
X89284Y473226D01*
X89284Y473511D02*
X83584Y473511D01*
X83584Y473796D02*
X89284Y473796D01*
X89284Y474081D02*
X83584Y474081D01*
X83584Y474366D02*
X89284Y474366D01*
X89284Y474651D02*
X83584Y474651D01*
X83584Y474936D02*
X89284Y474936D01*
X89284Y475221D02*
X83584Y475221D01*
X83584Y475506D02*
X89284Y475506D01*
X89284Y475791D02*
X83584Y475791D01*
X83584Y476076D02*
X89284Y476076D01*
X89284Y476361D02*
X83584Y476361D01*
X83584Y476646D02*
X89284Y476646D01*
X89284Y476931D02*
X83584Y476931D01*
X83584Y477216D02*
X89284Y477216D01*
X89284Y477501D02*
X83584Y477501D01*
X83584Y477786D02*
X89284Y477786D01*
X89284Y478071D02*
X83584Y478071D01*
X83584Y478356D02*
X89284Y478356D01*
X89284Y478641D02*
X83584Y478641D01*
X83584Y478926D02*
X89284Y478926D01*
X89284Y479211D02*
X83584Y479211D01*
X83584Y479496D02*
X89284Y479496D01*
X89284Y479781D02*
X83584Y479781D01*
X83584Y480066D02*
X89284Y480066D01*
X89284Y480351D02*
X83584Y480351D01*
X83584Y480636D02*
X89284Y480636D01*
X89284Y480921D02*
X83584Y480921D01*
X83584Y481206D02*
X89284Y481206D01*
X89284Y481491D02*
X83584Y481491D01*
X83584Y481776D02*
X89284Y481776D01*
X89284Y482061D02*
X83584Y482061D01*
X83584Y482346D02*
X89284Y482346D01*
X89284Y482631D02*
X83584Y482631D01*
X83584Y482916D02*
X89284Y482916D01*
X89284Y483201D02*
X83584Y483201D01*
X76584Y483296D02*
X76584Y468096D01*
X70884Y468096D01*
X70884Y483296D01*
X76584Y483296D01*
X76584Y468381D02*
X70884Y468381D01*
X70884Y468666D02*
X76584Y468666D01*
X76584Y468951D02*
X70884Y468951D01*
X70884Y469236D02*
X76584Y469236D01*
X76584Y469521D02*
X70884Y469521D01*
X70884Y469806D02*
X76584Y469806D01*
X76584Y470091D02*
X70884Y470091D01*
X70884Y470376D02*
X76584Y470376D01*
X76584Y470661D02*
X70884Y470661D01*
X70884Y470946D02*
X76584Y470946D01*
X76584Y471231D02*
X70884Y471231D01*
X70884Y471516D02*
X76584Y471516D01*
X76584Y471801D02*
X70884Y471801D01*
X70884Y472086D02*
X76584Y472086D01*
X76584Y472371D02*
X70884Y472371D01*
X70884Y472656D02*
X76584Y472656D01*
X76584Y472941D02*
X70884Y472941D01*
X70884Y473226D02*
X76584Y473226D01*
X76584Y473511D02*
X70884Y473511D01*
X70884Y473796D02*
X76584Y473796D01*
X76584Y474081D02*
X70884Y474081D01*
X70884Y474366D02*
X76584Y474366D01*
X76584Y474651D02*
X70884Y474651D01*
X70884Y474936D02*
X76584Y474936D01*
X76584Y475221D02*
X70884Y475221D01*
X70884Y475506D02*
X76584Y475506D01*
X76584Y475791D02*
X70884Y475791D01*
X70884Y476076D02*
X76584Y476076D01*
X76584Y476361D02*
X70884Y476361D01*
X70884Y476646D02*
X76584Y476646D01*
X76584Y476931D02*
X70884Y476931D01*
X70884Y477216D02*
X76584Y477216D01*
X76584Y477501D02*
X70884Y477501D01*
X70884Y477786D02*
X76584Y477786D01*
X76584Y478071D02*
X70884Y478071D01*
X70884Y478356D02*
X76584Y478356D01*
X76584Y478641D02*
X70884Y478641D01*
X70884Y478926D02*
X76584Y478926D01*
X76584Y479211D02*
X70884Y479211D01*
X70884Y479496D02*
X76584Y479496D01*
X76584Y479781D02*
X70884Y479781D01*
X70884Y480066D02*
X76584Y480066D01*
X76584Y480351D02*
X70884Y480351D01*
X70884Y480636D02*
X76584Y480636D01*
X76584Y480921D02*
X70884Y480921D01*
X70884Y481206D02*
X76584Y481206D01*
X76584Y481491D02*
X70884Y481491D01*
X70884Y481776D02*
X76584Y481776D01*
X76584Y482061D02*
X70884Y482061D01*
X70884Y482346D02*
X76584Y482346D01*
X76584Y482631D02*
X70884Y482631D01*
X70884Y482916D02*
X76584Y482916D01*
X76584Y483201D02*
X70884Y483201D01*
X63884Y483296D02*
X63884Y468096D01*
X58184Y468096D01*
X58184Y483296D01*
X63884Y483296D01*
X63884Y468381D02*
X58184Y468381D01*
X58184Y468666D02*
X63884Y468666D01*
X63884Y468951D02*
X58184Y468951D01*
X58184Y469236D02*
X63884Y469236D01*
X63884Y469521D02*
X58184Y469521D01*
X58184Y469806D02*
X63884Y469806D01*
X63884Y470091D02*
X58184Y470091D01*
X58184Y470376D02*
X63884Y470376D01*
X63884Y470661D02*
X58184Y470661D01*
X58184Y470946D02*
X63884Y470946D01*
X63884Y471231D02*
X58184Y471231D01*
X58184Y471516D02*
X63884Y471516D01*
X63884Y471801D02*
X58184Y471801D01*
X58184Y472086D02*
X63884Y472086D01*
X63884Y472371D02*
X58184Y472371D01*
X58184Y472656D02*
X63884Y472656D01*
X63884Y472941D02*
X58184Y472941D01*
X58184Y473226D02*
X63884Y473226D01*
X63884Y473511D02*
X58184Y473511D01*
X58184Y473796D02*
X63884Y473796D01*
X63884Y474081D02*
X58184Y474081D01*
X58184Y474366D02*
X63884Y474366D01*
X63884Y474651D02*
X58184Y474651D01*
X58184Y474936D02*
X63884Y474936D01*
X63884Y475221D02*
X58184Y475221D01*
X58184Y475506D02*
X63884Y475506D01*
X63884Y475791D02*
X58184Y475791D01*
X58184Y476076D02*
X63884Y476076D01*
X63884Y476361D02*
X58184Y476361D01*
X58184Y476646D02*
X63884Y476646D01*
X63884Y476931D02*
X58184Y476931D01*
X58184Y477216D02*
X63884Y477216D01*
X63884Y477501D02*
X58184Y477501D01*
X58184Y477786D02*
X63884Y477786D01*
X63884Y478071D02*
X58184Y478071D01*
X58184Y478356D02*
X63884Y478356D01*
X63884Y478641D02*
X58184Y478641D01*
X58184Y478926D02*
X63884Y478926D01*
X63884Y479211D02*
X58184Y479211D01*
X58184Y479496D02*
X63884Y479496D01*
X63884Y479781D02*
X58184Y479781D01*
X58184Y480066D02*
X63884Y480066D01*
X63884Y480351D02*
X58184Y480351D01*
X58184Y480636D02*
X63884Y480636D01*
X63884Y480921D02*
X58184Y480921D01*
X58184Y481206D02*
X63884Y481206D01*
X63884Y481491D02*
X58184Y481491D01*
X58184Y481776D02*
X63884Y481776D01*
X63884Y482061D02*
X58184Y482061D01*
X58184Y482346D02*
X63884Y482346D01*
X63884Y482631D02*
X58184Y482631D01*
X58184Y482916D02*
X63884Y482916D01*
X63884Y483201D02*
X58184Y483201D01*
X51184Y483296D02*
X51184Y468096D01*
X45484Y468096D01*
X45484Y483296D01*
X51184Y483296D01*
X51184Y468381D02*
X45484Y468381D01*
X45484Y468666D02*
X51184Y468666D01*
X51184Y468951D02*
X45484Y468951D01*
X45484Y469236D02*
X51184Y469236D01*
X51184Y469521D02*
X45484Y469521D01*
X45484Y469806D02*
X51184Y469806D01*
X51184Y470091D02*
X45484Y470091D01*
X45484Y470376D02*
X51184Y470376D01*
X51184Y470661D02*
X45484Y470661D01*
X45484Y470946D02*
X51184Y470946D01*
X51184Y471231D02*
X45484Y471231D01*
X45484Y471516D02*
X51184Y471516D01*
X51184Y471801D02*
X45484Y471801D01*
X45484Y472086D02*
X51184Y472086D01*
X51184Y472371D02*
X45484Y472371D01*
X45484Y472656D02*
X51184Y472656D01*
X51184Y472941D02*
X45484Y472941D01*
X45484Y473226D02*
X51184Y473226D01*
X51184Y473511D02*
X45484Y473511D01*
X45484Y473796D02*
X51184Y473796D01*
X51184Y474081D02*
X45484Y474081D01*
X45484Y474366D02*
X51184Y474366D01*
X51184Y474651D02*
X45484Y474651D01*
X45484Y474936D02*
X51184Y474936D01*
X51184Y475221D02*
X45484Y475221D01*
X45484Y475506D02*
X51184Y475506D01*
X51184Y475791D02*
X45484Y475791D01*
X45484Y476076D02*
X51184Y476076D01*
X51184Y476361D02*
X45484Y476361D01*
X45484Y476646D02*
X51184Y476646D01*
X51184Y476931D02*
X45484Y476931D01*
X45484Y477216D02*
X51184Y477216D01*
X51184Y477501D02*
X45484Y477501D01*
X45484Y477786D02*
X51184Y477786D01*
X51184Y478071D02*
X45484Y478071D01*
X45484Y478356D02*
X51184Y478356D01*
X51184Y478641D02*
X45484Y478641D01*
X45484Y478926D02*
X51184Y478926D01*
X51184Y479211D02*
X45484Y479211D01*
X45484Y479496D02*
X51184Y479496D01*
X51184Y479781D02*
X45484Y479781D01*
X45484Y480066D02*
X51184Y480066D01*
X51184Y480351D02*
X45484Y480351D01*
X45484Y480636D02*
X51184Y480636D01*
X51184Y480921D02*
X45484Y480921D01*
X45484Y481206D02*
X51184Y481206D01*
X51184Y481491D02*
X45484Y481491D01*
X45484Y481776D02*
X51184Y481776D01*
X51184Y482061D02*
X45484Y482061D01*
X45484Y482346D02*
X51184Y482346D01*
X51184Y482631D02*
X45484Y482631D01*
X45484Y482916D02*
X51184Y482916D01*
X51184Y483201D02*
X45484Y483201D01*
D18*
X117630Y403406D02*
X117630Y392906D01*
X117630Y403406D02*
X122130Y403406D01*
X122130Y392906D01*
X117630Y392906D01*
X117630Y394331D02*
X122130Y394331D01*
X122130Y395756D02*
X117630Y395756D01*
X117630Y397181D02*
X122130Y397181D01*
X122130Y398606D02*
X117630Y398606D01*
X117630Y400031D02*
X122130Y400031D01*
X122130Y401456D02*
X117630Y401456D01*
X117630Y402881D02*
X122130Y402881D01*
X108130Y403406D02*
X108130Y392906D01*
X108130Y403406D02*
X112630Y403406D01*
X112630Y392906D01*
X108130Y392906D01*
X108130Y394331D02*
X112630Y394331D01*
X112630Y395756D02*
X108130Y395756D01*
X108130Y397181D02*
X112630Y397181D01*
X112630Y398606D02*
X108130Y398606D01*
X108130Y400031D02*
X112630Y400031D01*
X112630Y401456D02*
X108130Y401456D01*
X108130Y402881D02*
X112630Y402881D01*
X98630Y403406D02*
X98630Y392906D01*
X98630Y403406D02*
X103130Y403406D01*
X103130Y392906D01*
X98630Y392906D01*
X98630Y394331D02*
X103130Y394331D01*
X103130Y395756D02*
X98630Y395756D01*
X98630Y397181D02*
X103130Y397181D01*
X103130Y398606D02*
X98630Y398606D01*
X98630Y400031D02*
X103130Y400031D01*
X103130Y401456D02*
X98630Y401456D01*
X98630Y402881D02*
X103130Y402881D01*
X98630Y377406D02*
X98630Y366906D01*
X98630Y377406D02*
X103130Y377406D01*
X103130Y366906D01*
X98630Y366906D01*
X98630Y368331D02*
X103130Y368331D01*
X103130Y369756D02*
X98630Y369756D01*
X98630Y371181D02*
X103130Y371181D01*
X103130Y372606D02*
X98630Y372606D01*
X98630Y374031D02*
X103130Y374031D01*
X103130Y375456D02*
X98630Y375456D01*
X98630Y376881D02*
X103130Y376881D01*
X108130Y377406D02*
X108130Y366906D01*
X108130Y377406D02*
X112630Y377406D01*
X112630Y366906D01*
X108130Y366906D01*
X108130Y368331D02*
X112630Y368331D01*
X112630Y369756D02*
X108130Y369756D01*
X108130Y371181D02*
X112630Y371181D01*
X112630Y372606D02*
X108130Y372606D01*
X108130Y374031D02*
X112630Y374031D01*
X112630Y375456D02*
X108130Y375456D01*
X108130Y376881D02*
X112630Y376881D01*
X117630Y377406D02*
X117630Y366906D01*
X117630Y377406D02*
X122130Y377406D01*
X122130Y366906D01*
X117630Y366906D01*
X117630Y368331D02*
X122130Y368331D01*
X122130Y369756D02*
X117630Y369756D01*
X117630Y371181D02*
X122130Y371181D01*
X122130Y372606D02*
X117630Y372606D01*
X117630Y374031D02*
X122130Y374031D01*
X122130Y375456D02*
X117630Y375456D01*
X117630Y376881D02*
X122130Y376881D01*
X79872Y270888D02*
X79872Y260388D01*
X75372Y260388D01*
X75372Y270888D01*
X79872Y270888D01*
X79872Y261813D02*
X75372Y261813D01*
X75372Y263238D02*
X79872Y263238D01*
X79872Y264663D02*
X75372Y264663D01*
X75372Y266088D02*
X79872Y266088D01*
X79872Y267513D02*
X75372Y267513D01*
X75372Y268938D02*
X79872Y268938D01*
X79872Y270363D02*
X75372Y270363D01*
X89372Y270888D02*
X89372Y260388D01*
X84872Y260388D01*
X84872Y270888D01*
X89372Y270888D01*
X89372Y261813D02*
X84872Y261813D01*
X84872Y263238D02*
X89372Y263238D01*
X89372Y264663D02*
X84872Y264663D01*
X84872Y266088D02*
X89372Y266088D01*
X89372Y267513D02*
X84872Y267513D01*
X84872Y268938D02*
X89372Y268938D01*
X89372Y270363D02*
X84872Y270363D01*
X98872Y270888D02*
X98872Y260388D01*
X94372Y260388D01*
X94372Y270888D01*
X98872Y270888D01*
X98872Y261813D02*
X94372Y261813D01*
X94372Y263238D02*
X98872Y263238D01*
X98872Y264663D02*
X94372Y264663D01*
X94372Y266088D02*
X98872Y266088D01*
X98872Y267513D02*
X94372Y267513D01*
X94372Y268938D02*
X98872Y268938D01*
X98872Y270363D02*
X94372Y270363D01*
X98872Y286388D02*
X98872Y296888D01*
X98872Y286388D02*
X94372Y286388D01*
X94372Y296888D01*
X98872Y296888D01*
X98872Y287813D02*
X94372Y287813D01*
X94372Y289238D02*
X98872Y289238D01*
X98872Y290663D02*
X94372Y290663D01*
X94372Y292088D02*
X98872Y292088D01*
X98872Y293513D02*
X94372Y293513D01*
X94372Y294938D02*
X98872Y294938D01*
X98872Y296363D02*
X94372Y296363D01*
X89372Y296888D02*
X89372Y286388D01*
X84872Y286388D01*
X84872Y296888D01*
X89372Y296888D01*
X89372Y287813D02*
X84872Y287813D01*
X84872Y289238D02*
X89372Y289238D01*
X89372Y290663D02*
X84872Y290663D01*
X84872Y292088D02*
X89372Y292088D01*
X89372Y293513D02*
X84872Y293513D01*
X84872Y294938D02*
X89372Y294938D01*
X89372Y296363D02*
X84872Y296363D01*
X79872Y296888D02*
X79872Y286388D01*
X75372Y286388D01*
X75372Y296888D01*
X79872Y296888D01*
X79872Y287813D02*
X75372Y287813D01*
X75372Y289238D02*
X79872Y289238D01*
X79872Y290663D02*
X75372Y290663D01*
X75372Y292088D02*
X79872Y292088D01*
X79872Y293513D02*
X75372Y293513D01*
X75372Y294938D02*
X79872Y294938D01*
X79872Y296363D02*
X75372Y296363D01*
D19*
X103048Y97698D03*
D17*
X83648Y113898D02*
X68448Y113898D01*
X68448Y119598D01*
X83648Y119598D01*
X83648Y113898D01*
X83648Y114183D02*
X68448Y114183D01*
X68448Y114468D02*
X83648Y114468D01*
X83648Y114753D02*
X68448Y114753D01*
X68448Y115038D02*
X83648Y115038D01*
X83648Y115323D02*
X68448Y115323D01*
X68448Y115608D02*
X83648Y115608D01*
X83648Y115893D02*
X68448Y115893D01*
X68448Y116178D02*
X83648Y116178D01*
X83648Y116463D02*
X68448Y116463D01*
X68448Y116748D02*
X83648Y116748D01*
X83648Y117033D02*
X68448Y117033D01*
X68448Y117318D02*
X83648Y117318D01*
X83648Y117603D02*
X68448Y117603D01*
X68448Y117888D02*
X83648Y117888D01*
X83648Y118173D02*
X68448Y118173D01*
X68448Y118458D02*
X83648Y118458D01*
X83648Y118743D02*
X68448Y118743D01*
X68448Y119028D02*
X83648Y119028D01*
X83648Y119313D02*
X68448Y119313D01*
X68448Y119598D02*
X83648Y119598D01*
X83648Y101198D02*
X68448Y101198D01*
X68448Y106898D01*
X83648Y106898D01*
X83648Y101198D01*
X83648Y101483D02*
X68448Y101483D01*
X68448Y101768D02*
X83648Y101768D01*
X83648Y102053D02*
X68448Y102053D01*
X68448Y102338D02*
X83648Y102338D01*
X83648Y102623D02*
X68448Y102623D01*
X68448Y102908D02*
X83648Y102908D01*
X83648Y103193D02*
X68448Y103193D01*
X68448Y103478D02*
X83648Y103478D01*
X83648Y103763D02*
X68448Y103763D01*
X68448Y104048D02*
X83648Y104048D01*
X83648Y104333D02*
X68448Y104333D01*
X68448Y104618D02*
X83648Y104618D01*
X83648Y104903D02*
X68448Y104903D01*
X68448Y105188D02*
X83648Y105188D01*
X83648Y105473D02*
X68448Y105473D01*
X68448Y105758D02*
X83648Y105758D01*
X83648Y106043D02*
X68448Y106043D01*
X68448Y106328D02*
X83648Y106328D01*
X83648Y106613D02*
X68448Y106613D01*
X68448Y106898D02*
X83648Y106898D01*
X83648Y88498D02*
X68448Y88498D01*
X68448Y94198D01*
X83648Y94198D01*
X83648Y88498D01*
X83648Y88783D02*
X68448Y88783D01*
X68448Y89068D02*
X83648Y89068D01*
X83648Y89353D02*
X68448Y89353D01*
X68448Y89638D02*
X83648Y89638D01*
X83648Y89923D02*
X68448Y89923D01*
X68448Y90208D02*
X83648Y90208D01*
X83648Y90493D02*
X68448Y90493D01*
X68448Y90778D02*
X83648Y90778D01*
X83648Y91063D02*
X68448Y91063D01*
X68448Y91348D02*
X83648Y91348D01*
X83648Y91633D02*
X68448Y91633D01*
X68448Y91918D02*
X83648Y91918D01*
X83648Y92203D02*
X68448Y92203D01*
X68448Y92488D02*
X83648Y92488D01*
X83648Y92773D02*
X68448Y92773D01*
X68448Y93058D02*
X83648Y93058D01*
X83648Y93343D02*
X68448Y93343D01*
X68448Y93628D02*
X83648Y93628D01*
X83648Y93913D02*
X68448Y93913D01*
X68448Y94198D02*
X83648Y94198D01*
X83648Y75798D02*
X68448Y75798D01*
X68448Y81498D01*
X83648Y81498D01*
X83648Y75798D01*
X83648Y76083D02*
X68448Y76083D01*
X68448Y76368D02*
X83648Y76368D01*
X83648Y76653D02*
X68448Y76653D01*
X68448Y76938D02*
X83648Y76938D01*
X83648Y77223D02*
X68448Y77223D01*
X68448Y77508D02*
X83648Y77508D01*
X83648Y77793D02*
X68448Y77793D01*
X68448Y78078D02*
X83648Y78078D01*
X83648Y78363D02*
X68448Y78363D01*
X68448Y78648D02*
X83648Y78648D01*
X83648Y78933D02*
X68448Y78933D01*
X68448Y79218D02*
X83648Y79218D01*
X83648Y79503D02*
X68448Y79503D01*
X68448Y79788D02*
X83648Y79788D01*
X83648Y80073D02*
X68448Y80073D01*
X68448Y80358D02*
X83648Y80358D01*
X83648Y80643D02*
X68448Y80643D01*
X68448Y80928D02*
X83648Y80928D01*
X83648Y81213D02*
X68448Y81213D01*
X68448Y81498D02*
X83648Y81498D01*
X122448Y75798D02*
X137648Y75798D01*
X122448Y75798D02*
X122448Y81498D01*
X137648Y81498D01*
X137648Y75798D01*
X137648Y76083D02*
X122448Y76083D01*
X122448Y76368D02*
X137648Y76368D01*
X137648Y76653D02*
X122448Y76653D01*
X122448Y76938D02*
X137648Y76938D01*
X137648Y77223D02*
X122448Y77223D01*
X122448Y77508D02*
X137648Y77508D01*
X137648Y77793D02*
X122448Y77793D01*
X122448Y78078D02*
X137648Y78078D01*
X137648Y78363D02*
X122448Y78363D01*
X122448Y78648D02*
X137648Y78648D01*
X137648Y78933D02*
X122448Y78933D01*
X122448Y79218D02*
X137648Y79218D01*
X137648Y79503D02*
X122448Y79503D01*
X122448Y79788D02*
X137648Y79788D01*
X137648Y80073D02*
X122448Y80073D01*
X122448Y80358D02*
X137648Y80358D01*
X137648Y80643D02*
X122448Y80643D01*
X122448Y80928D02*
X137648Y80928D01*
X137648Y81213D02*
X122448Y81213D01*
X122448Y81498D02*
X137648Y81498D01*
X137648Y88498D02*
X122448Y88498D01*
X122448Y94198D01*
X137648Y94198D01*
X137648Y88498D01*
X137648Y88783D02*
X122448Y88783D01*
X122448Y89068D02*
X137648Y89068D01*
X137648Y89353D02*
X122448Y89353D01*
X122448Y89638D02*
X137648Y89638D01*
X137648Y89923D02*
X122448Y89923D01*
X122448Y90208D02*
X137648Y90208D01*
X137648Y90493D02*
X122448Y90493D01*
X122448Y90778D02*
X137648Y90778D01*
X137648Y91063D02*
X122448Y91063D01*
X122448Y91348D02*
X137648Y91348D01*
X137648Y91633D02*
X122448Y91633D01*
X122448Y91918D02*
X137648Y91918D01*
X137648Y92203D02*
X122448Y92203D01*
X122448Y92488D02*
X137648Y92488D01*
X137648Y92773D02*
X122448Y92773D01*
X122448Y93058D02*
X137648Y93058D01*
X137648Y93343D02*
X122448Y93343D01*
X122448Y93628D02*
X137648Y93628D01*
X137648Y93913D02*
X122448Y93913D01*
X122448Y94198D02*
X137648Y94198D01*
X137648Y101198D02*
X122448Y101198D01*
X122448Y106898D01*
X137648Y106898D01*
X137648Y101198D01*
X137648Y101483D02*
X122448Y101483D01*
X122448Y101768D02*
X137648Y101768D01*
X137648Y102053D02*
X122448Y102053D01*
X122448Y102338D02*
X137648Y102338D01*
X137648Y102623D02*
X122448Y102623D01*
X122448Y102908D02*
X137648Y102908D01*
X137648Y103193D02*
X122448Y103193D01*
X122448Y103478D02*
X137648Y103478D01*
X137648Y103763D02*
X122448Y103763D01*
X122448Y104048D02*
X137648Y104048D01*
X137648Y104333D02*
X122448Y104333D01*
X122448Y104618D02*
X137648Y104618D01*
X137648Y104903D02*
X122448Y104903D01*
X122448Y105188D02*
X137648Y105188D01*
X137648Y105473D02*
X122448Y105473D01*
X122448Y105758D02*
X137648Y105758D01*
X137648Y106043D02*
X122448Y106043D01*
X122448Y106328D02*
X137648Y106328D01*
X137648Y106613D02*
X122448Y106613D01*
X122448Y106898D02*
X137648Y106898D01*
X137648Y113898D02*
X122448Y113898D01*
X122448Y119598D01*
X137648Y119598D01*
X137648Y113898D01*
X137648Y114183D02*
X122448Y114183D01*
X122448Y114468D02*
X137648Y114468D01*
X137648Y114753D02*
X122448Y114753D01*
X122448Y115038D02*
X137648Y115038D01*
X137648Y115323D02*
X122448Y115323D01*
X122448Y115608D02*
X137648Y115608D01*
X137648Y115893D02*
X122448Y115893D01*
X122448Y116178D02*
X137648Y116178D01*
X137648Y116463D02*
X122448Y116463D01*
X122448Y116748D02*
X137648Y116748D01*
X137648Y117033D02*
X122448Y117033D01*
X122448Y117318D02*
X137648Y117318D01*
X137648Y117603D02*
X122448Y117603D01*
X122448Y117888D02*
X137648Y117888D01*
X137648Y118173D02*
X122448Y118173D01*
X122448Y118458D02*
X137648Y118458D01*
X137648Y118743D02*
X122448Y118743D01*
X122448Y119028D02*
X137648Y119028D01*
X137648Y119313D02*
X122448Y119313D01*
X122448Y119598D02*
X137648Y119598D01*
D18*
X225922Y312966D02*
X225922Y323466D01*
X225922Y312966D02*
X221422Y312966D01*
X221422Y323466D01*
X225922Y323466D01*
X225922Y314391D02*
X221422Y314391D01*
X221422Y315816D02*
X225922Y315816D01*
X225922Y317241D02*
X221422Y317241D01*
X221422Y318666D02*
X225922Y318666D01*
X225922Y320091D02*
X221422Y320091D01*
X221422Y321516D02*
X225922Y321516D01*
X225922Y322941D02*
X221422Y322941D01*
X235422Y323466D02*
X235422Y312966D01*
X230922Y312966D01*
X230922Y323466D01*
X235422Y323466D01*
X235422Y314391D02*
X230922Y314391D01*
X230922Y315816D02*
X235422Y315816D01*
X235422Y317241D02*
X230922Y317241D01*
X230922Y318666D02*
X235422Y318666D01*
X235422Y320091D02*
X230922Y320091D01*
X230922Y321516D02*
X235422Y321516D01*
X235422Y322941D02*
X230922Y322941D01*
X244922Y323466D02*
X244922Y312966D01*
X240422Y312966D01*
X240422Y323466D01*
X244922Y323466D01*
X244922Y314391D02*
X240422Y314391D01*
X240422Y315816D02*
X244922Y315816D01*
X244922Y317241D02*
X240422Y317241D01*
X240422Y318666D02*
X244922Y318666D01*
X244922Y320091D02*
X240422Y320091D01*
X240422Y321516D02*
X244922Y321516D01*
X244922Y322941D02*
X240422Y322941D01*
X244922Y338966D02*
X244922Y349466D01*
X244922Y338966D02*
X240422Y338966D01*
X240422Y349466D01*
X244922Y349466D01*
X244922Y340391D02*
X240422Y340391D01*
X240422Y341816D02*
X244922Y341816D01*
X244922Y343241D02*
X240422Y343241D01*
X240422Y344666D02*
X244922Y344666D01*
X244922Y346091D02*
X240422Y346091D01*
X240422Y347516D02*
X244922Y347516D01*
X244922Y348941D02*
X240422Y348941D01*
X225922Y349466D02*
X225922Y338966D01*
X221422Y338966D01*
X221422Y349466D01*
X225922Y349466D01*
X225922Y340391D02*
X221422Y340391D01*
X221422Y341816D02*
X225922Y341816D01*
X225922Y343241D02*
X221422Y343241D01*
X221422Y344666D02*
X225922Y344666D01*
X225922Y346091D02*
X221422Y346091D01*
X221422Y347516D02*
X225922Y347516D01*
X225922Y348941D02*
X221422Y348941D01*
D20*
X146304Y324100D03*
X146304Y260100D03*
D11*
X63800Y28145D02*
X51000Y28145D01*
X51000Y42975D01*
X63800Y42975D01*
X63800Y28145D01*
X63800Y31185D02*
X51000Y31185D01*
X51000Y34225D02*
X63800Y34225D01*
X63800Y37265D02*
X51000Y37265D01*
X51000Y40305D02*
X63800Y40305D01*
X35360Y28145D02*
X22560Y28145D01*
X22560Y42975D01*
X35360Y42975D01*
X35360Y28145D01*
X35360Y31185D02*
X22560Y31185D01*
X22560Y34225D02*
X35360Y34225D01*
X35360Y37265D02*
X22560Y37265D01*
X22560Y40305D02*
X35360Y40305D01*
D10*
X84284Y346754D02*
X91984Y346754D01*
X84284Y346754D02*
X84284Y354454D01*
X91984Y354454D01*
X91984Y346754D01*
X91984Y349889D02*
X84284Y349889D01*
X84284Y353024D02*
X91984Y353024D01*
X104284Y346754D02*
X111984Y346754D01*
X104284Y346754D02*
X104284Y354454D01*
X111984Y354454D01*
X111984Y346754D01*
X111984Y349889D02*
X104284Y349889D01*
X104284Y353024D02*
X111984Y353024D01*
X103202Y492820D02*
X103202Y500520D01*
X103202Y492820D02*
X95502Y492820D01*
X95502Y500520D01*
X103202Y500520D01*
X103202Y495955D02*
X95502Y495955D01*
X95502Y499090D02*
X103202Y499090D01*
X103202Y512820D02*
X103202Y520520D01*
X103202Y512820D02*
X95502Y512820D01*
X95502Y520520D01*
X103202Y520520D01*
X103202Y515955D02*
X95502Y515955D01*
X95502Y519090D02*
X103202Y519090D01*
X163870Y354530D02*
X163870Y346830D01*
X156170Y346830D01*
X156170Y354530D01*
X163870Y354530D01*
X163870Y349965D02*
X156170Y349965D01*
X156170Y353100D02*
X163870Y353100D01*
X163870Y366830D02*
X163870Y374530D01*
X163870Y366830D02*
X156170Y366830D01*
X156170Y374530D01*
X163870Y374530D01*
X163870Y369965D02*
X156170Y369965D01*
X156170Y373100D02*
X163870Y373100D01*
X152014Y426672D02*
X152014Y434372D01*
X152014Y426672D02*
X144314Y426672D01*
X144314Y434372D01*
X152014Y434372D01*
X152014Y429807D02*
X144314Y429807D01*
X144314Y432942D02*
X152014Y432942D01*
X152014Y446672D02*
X152014Y454372D01*
X152014Y446672D02*
X144314Y446672D01*
X144314Y454372D01*
X152014Y454372D01*
X152014Y449807D02*
X144314Y449807D01*
X144314Y452942D02*
X152014Y452942D01*
X19722Y290470D02*
X12022Y290470D01*
X12022Y298170D01*
X19722Y298170D01*
X19722Y290470D01*
X19722Y293605D02*
X12022Y293605D01*
X12022Y296740D02*
X19722Y296740D01*
X32022Y290470D02*
X39722Y290470D01*
X32022Y290470D02*
X32022Y298170D01*
X39722Y298170D01*
X39722Y290470D01*
X39722Y293605D02*
X32022Y293605D01*
X32022Y296740D02*
X39722Y296740D01*
X40046Y332942D02*
X32346Y332942D01*
X40046Y332942D02*
X40046Y325242D01*
X32346Y325242D01*
X32346Y332942D01*
X32346Y328377D02*
X40046Y328377D01*
X40046Y331512D02*
X32346Y331512D01*
X20046Y332942D02*
X12346Y332942D01*
X20046Y332942D02*
X20046Y325242D01*
X12346Y325242D01*
X12346Y332942D01*
X12346Y328377D02*
X20046Y328377D01*
X20046Y331512D02*
X12346Y331512D01*
X91908Y161170D02*
X91908Y153470D01*
X91908Y161170D02*
X99608Y161170D01*
X99608Y153470D01*
X91908Y153470D01*
X91908Y156605D02*
X99608Y156605D01*
X99608Y159740D02*
X91908Y159740D01*
X91908Y141170D02*
X91908Y133470D01*
X91908Y141170D02*
X99608Y141170D01*
X99608Y133470D01*
X91908Y133470D01*
X91908Y136605D02*
X99608Y136605D01*
X99608Y139740D02*
X91908Y139740D01*
X30694Y186998D02*
X30694Y194698D01*
X38394Y194698D01*
X38394Y186998D01*
X30694Y186998D01*
X30694Y190133D02*
X38394Y190133D01*
X38394Y193268D02*
X30694Y193268D01*
X30694Y174698D02*
X30694Y166998D01*
X30694Y174698D02*
X38394Y174698D01*
X38394Y166998D01*
X30694Y166998D01*
X30694Y170133D02*
X38394Y170133D01*
X38394Y173268D02*
X30694Y173268D01*
X30694Y224844D02*
X30694Y232544D01*
X38394Y232544D01*
X38394Y224844D01*
X30694Y224844D01*
X30694Y227979D02*
X38394Y227979D01*
X38394Y231114D02*
X30694Y231114D01*
X30694Y212544D02*
X30694Y204844D01*
X30694Y212544D02*
X38394Y212544D01*
X38394Y204844D01*
X30694Y204844D01*
X30694Y207979D02*
X38394Y207979D01*
X38394Y211114D02*
X30694Y211114D01*
X130864Y160822D02*
X138564Y160822D01*
X138564Y153122D01*
X130864Y153122D01*
X130864Y160822D01*
X130864Y156257D02*
X138564Y156257D01*
X138564Y159392D02*
X130864Y159392D01*
X118564Y160822D02*
X110864Y160822D01*
X118564Y160822D02*
X118564Y153122D01*
X110864Y153122D01*
X110864Y160822D01*
X110864Y156257D02*
X118564Y156257D01*
X118564Y159392D02*
X110864Y159392D01*
X116198Y132040D02*
X123898Y132040D01*
X116198Y132040D02*
X116198Y139740D01*
X123898Y139740D01*
X123898Y132040D01*
X123898Y135175D02*
X116198Y135175D01*
X116198Y138310D02*
X123898Y138310D01*
X136198Y132040D02*
X143898Y132040D01*
X136198Y132040D02*
X136198Y139740D01*
X143898Y139740D01*
X143898Y132040D01*
X143898Y135175D02*
X136198Y135175D01*
X136198Y138310D02*
X143898Y138310D01*
X173028Y142788D02*
X180728Y142788D01*
X180728Y135088D01*
X173028Y135088D01*
X173028Y142788D01*
X173028Y138223D02*
X180728Y138223D01*
X180728Y141358D02*
X173028Y141358D01*
X160728Y142788D02*
X153028Y142788D01*
X160728Y142788D02*
X160728Y135088D01*
X153028Y135088D01*
X153028Y142788D01*
X153028Y138223D02*
X160728Y138223D01*
X160728Y141358D02*
X153028Y141358D01*
X189604Y135596D02*
X197304Y135596D01*
X189604Y135596D02*
X189604Y143296D01*
X197304Y143296D01*
X197304Y135596D01*
X197304Y138731D02*
X189604Y138731D01*
X189604Y141866D02*
X197304Y141866D01*
X209604Y135596D02*
X217304Y135596D01*
X209604Y135596D02*
X209604Y143296D01*
X217304Y143296D01*
X217304Y135596D01*
X217304Y138731D02*
X209604Y138731D01*
X209604Y141866D02*
X217304Y141866D01*
X102656Y20774D02*
X102656Y13074D01*
X94956Y13074D01*
X94956Y20774D01*
X102656Y20774D01*
X102656Y16209D02*
X94956Y16209D01*
X94956Y19344D02*
X102656Y19344D01*
X102656Y33074D02*
X102656Y40774D01*
X102656Y33074D02*
X94956Y33074D01*
X94956Y40774D01*
X102656Y40774D01*
X102656Y36209D02*
X94956Y36209D01*
X94956Y39344D02*
X102656Y39344D01*
X42110Y12660D02*
X34410Y12660D01*
X34410Y20360D01*
X42110Y20360D01*
X42110Y12660D01*
X42110Y15795D02*
X34410Y15795D01*
X34410Y18930D02*
X42110Y18930D01*
X54410Y12660D02*
X62110Y12660D01*
X54410Y12660D02*
X54410Y20360D01*
X62110Y20360D01*
X62110Y12660D01*
X62110Y15795D02*
X54410Y15795D01*
X54410Y18930D02*
X62110Y18930D01*
X248452Y420490D02*
X248452Y428190D01*
X248452Y420490D02*
X240752Y420490D01*
X240752Y428190D01*
X248452Y428190D01*
X248452Y423625D02*
X240752Y423625D01*
X240752Y426760D02*
X248452Y426760D01*
X248452Y440490D02*
X248452Y448190D01*
X248452Y440490D02*
X240752Y440490D01*
X240752Y448190D01*
X248452Y448190D01*
X248452Y443625D02*
X240752Y443625D01*
X240752Y446760D02*
X248452Y446760D01*
X231688Y428190D02*
X231688Y420490D01*
X223988Y420490D01*
X223988Y428190D01*
X231688Y428190D01*
X231688Y423625D02*
X223988Y423625D01*
X223988Y426760D02*
X231688Y426760D01*
X231688Y440490D02*
X231688Y448190D01*
X231688Y440490D02*
X223988Y440490D01*
X223988Y448190D01*
X231688Y448190D01*
X231688Y443625D02*
X223988Y443625D01*
X223988Y446760D02*
X231688Y446760D01*
D18*
X128160Y447844D02*
X128160Y458344D01*
X132660Y458344D01*
X132660Y447844D01*
X128160Y447844D01*
X128160Y449269D02*
X132660Y449269D01*
X132660Y450694D02*
X128160Y450694D01*
X128160Y452119D02*
X132660Y452119D01*
X132660Y453544D02*
X128160Y453544D01*
X128160Y454969D02*
X132660Y454969D01*
X132660Y456394D02*
X128160Y456394D01*
X128160Y457819D02*
X132660Y457819D01*
X118660Y458344D02*
X118660Y447844D01*
X118660Y458344D02*
X123160Y458344D01*
X123160Y447844D01*
X118660Y447844D01*
X118660Y449269D02*
X123160Y449269D01*
X123160Y450694D02*
X118660Y450694D01*
X118660Y452119D02*
X123160Y452119D01*
X123160Y453544D02*
X118660Y453544D01*
X118660Y454969D02*
X123160Y454969D01*
X123160Y456394D02*
X118660Y456394D01*
X118660Y457819D02*
X123160Y457819D01*
X109160Y458344D02*
X109160Y447844D01*
X109160Y458344D02*
X113660Y458344D01*
X113660Y447844D01*
X109160Y447844D01*
X109160Y449269D02*
X113660Y449269D01*
X113660Y450694D02*
X109160Y450694D01*
X109160Y452119D02*
X113660Y452119D01*
X113660Y453544D02*
X109160Y453544D01*
X109160Y454969D02*
X113660Y454969D01*
X113660Y456394D02*
X109160Y456394D01*
X109160Y457819D02*
X113660Y457819D01*
X109160Y432344D02*
X109160Y421844D01*
X109160Y432344D02*
X113660Y432344D01*
X113660Y421844D01*
X109160Y421844D01*
X109160Y423269D02*
X113660Y423269D01*
X113660Y424694D02*
X109160Y424694D01*
X109160Y426119D02*
X113660Y426119D01*
X113660Y427544D02*
X109160Y427544D01*
X109160Y428969D02*
X113660Y428969D01*
X113660Y430394D02*
X109160Y430394D01*
X109160Y431819D02*
X113660Y431819D01*
X118660Y432344D02*
X118660Y421844D01*
X118660Y432344D02*
X123160Y432344D01*
X123160Y421844D01*
X118660Y421844D01*
X118660Y423269D02*
X123160Y423269D01*
X123160Y424694D02*
X118660Y424694D01*
X118660Y426119D02*
X123160Y426119D01*
X123160Y427544D02*
X118660Y427544D01*
X118660Y428969D02*
X123160Y428969D01*
X123160Y430394D02*
X118660Y430394D01*
X118660Y431819D02*
X123160Y431819D01*
X128160Y432344D02*
X128160Y421844D01*
X128160Y432344D02*
X132660Y432344D01*
X132660Y421844D01*
X128160Y421844D01*
X128160Y423269D02*
X132660Y423269D01*
X132660Y424694D02*
X128160Y424694D01*
X128160Y426119D02*
X132660Y426119D01*
X132660Y427544D02*
X128160Y427544D01*
X128160Y428969D02*
X132660Y428969D01*
X132660Y430394D02*
X128160Y430394D01*
X128160Y431819D02*
X132660Y431819D01*
D13*
X158124Y392338D02*
X165264Y392338D01*
X158124Y392338D02*
X158124Y396178D01*
X165264Y396178D01*
X165264Y392338D01*
X165264Y411338D02*
X158124Y411338D01*
X158124Y415178D01*
X165264Y415178D01*
X165264Y411338D01*
X146064Y405678D02*
X138924Y405678D01*
X146064Y405678D02*
X146064Y401838D01*
X138924Y401838D01*
X138924Y405678D01*
D10*
X20008Y342368D02*
X12308Y342368D01*
X12308Y350068D01*
X20008Y350068D01*
X20008Y342368D01*
X20008Y345503D02*
X12308Y345503D01*
X12308Y348638D02*
X20008Y348638D01*
X32308Y342368D02*
X40008Y342368D01*
X32308Y342368D02*
X32308Y350068D01*
X40008Y350068D01*
X40008Y342368D01*
X40008Y345503D02*
X32308Y345503D01*
X32308Y348638D02*
X40008Y348638D01*
D21*
X233698Y471604D03*
D22*
X213498Y471604D03*
D23*
X201198Y471604D03*
D21*
X223698Y471604D03*
D22*
X243898Y471604D03*
D23*
X256198Y471604D03*
D10*
X43060Y121198D02*
X35360Y121198D01*
X43060Y121198D02*
X43060Y113498D01*
X35360Y113498D01*
X35360Y121198D01*
X35360Y116633D02*
X43060Y116633D01*
X43060Y119768D02*
X35360Y119768D01*
X23060Y121198D02*
X15360Y121198D01*
X23060Y121198D02*
X23060Y113498D01*
X15360Y113498D01*
X15360Y121198D01*
X15360Y116633D02*
X23060Y116633D01*
X23060Y119768D02*
X15360Y119768D01*
X38314Y104528D02*
X38314Y96828D01*
X38314Y104528D02*
X46014Y104528D01*
X46014Y96828D01*
X38314Y96828D01*
X38314Y99963D02*
X46014Y99963D01*
X46014Y103098D02*
X38314Y103098D01*
X38314Y84528D02*
X38314Y76828D01*
X38314Y84528D02*
X46014Y84528D01*
X46014Y76828D01*
X38314Y76828D01*
X38314Y79963D02*
X46014Y79963D01*
X46014Y83098D02*
X38314Y83098D01*
X54062Y80572D02*
X54062Y88272D01*
X61762Y88272D01*
X61762Y80572D01*
X54062Y80572D01*
X54062Y83707D02*
X61762Y83707D01*
X61762Y86842D02*
X54062Y86842D01*
X54062Y68272D02*
X54062Y60572D01*
X54062Y68272D02*
X61762Y68272D01*
X61762Y60572D01*
X54062Y60572D01*
X54062Y63707D02*
X61762Y63707D01*
X61762Y66842D02*
X54062Y66842D01*
D12*
X34558Y134082D02*
X11258Y134082D01*
X11258Y149382D01*
X34558Y149382D01*
X34558Y134082D01*
X34558Y135697D02*
X11258Y135697D01*
X11258Y137312D02*
X34558Y137312D01*
X34558Y138927D02*
X11258Y138927D01*
X11258Y140542D02*
X34558Y140542D01*
X34558Y142157D02*
X11258Y142157D01*
X11258Y143772D02*
X34558Y143772D01*
X34558Y145387D02*
X11258Y145387D01*
X11258Y147002D02*
X34558Y147002D01*
X34558Y148617D02*
X11258Y148617D01*
X55358Y134082D02*
X78658Y134082D01*
X55358Y134082D02*
X55358Y149382D01*
X78658Y149382D01*
X78658Y134082D01*
X78658Y135697D02*
X55358Y135697D01*
X55358Y137312D02*
X78658Y137312D01*
X78658Y138927D02*
X55358Y138927D01*
X55358Y140542D02*
X78658Y140542D01*
X78658Y142157D02*
X55358Y142157D01*
X55358Y143772D02*
X78658Y143772D01*
X78658Y145387D02*
X55358Y145387D01*
X55358Y147002D02*
X78658Y147002D01*
X78658Y148617D02*
X55358Y148617D01*
D24*
X241046Y77578D03*
X241046Y27578D03*
D10*
X263438Y101974D02*
X263438Y109674D01*
X263438Y101974D02*
X255738Y101974D01*
X255738Y109674D01*
X263438Y109674D01*
X263438Y105109D02*
X255738Y105109D01*
X255738Y108244D02*
X263438Y108244D01*
X263438Y121974D02*
X263438Y129674D01*
X263438Y121974D02*
X255738Y121974D01*
X255738Y129674D01*
X263438Y129674D01*
X263438Y125109D02*
X255738Y125109D01*
X255738Y128244D02*
X263438Y128244D01*
X263438Y137534D02*
X263438Y145234D01*
X263438Y137534D02*
X255738Y137534D01*
X255738Y145234D01*
X263438Y145234D01*
X263438Y140669D02*
X255738Y140669D01*
X255738Y143804D02*
X263438Y143804D01*
X263438Y157534D02*
X263438Y165234D01*
X263438Y157534D02*
X255738Y157534D01*
X255738Y165234D01*
X263438Y165234D01*
X263438Y160669D02*
X255738Y160669D01*
X255738Y163804D02*
X263438Y163804D01*
X40012Y276392D02*
X32312Y276392D01*
X40012Y276392D02*
X40012Y268692D01*
X32312Y268692D01*
X32312Y276392D01*
X32312Y271827D02*
X40012Y271827D01*
X40012Y274962D02*
X32312Y274962D01*
X20012Y276392D02*
X12312Y276392D01*
X20012Y276392D02*
X20012Y268692D01*
X12312Y268692D01*
X12312Y276392D01*
X12312Y271827D02*
X20012Y271827D01*
X20012Y274962D02*
X12312Y274962D01*
X12312Y251166D02*
X20012Y251166D01*
X12312Y251166D02*
X12312Y258866D01*
X20012Y258866D01*
X20012Y251166D01*
X20012Y254301D02*
X12312Y254301D01*
X12312Y257436D02*
X20012Y257436D01*
X32312Y251166D02*
X40012Y251166D01*
X32312Y251166D02*
X32312Y258866D01*
X40012Y258866D01*
X40012Y251166D01*
X40012Y254301D02*
X32312Y254301D01*
X32312Y257436D02*
X40012Y257436D01*
X487734Y513882D02*
X495434Y513882D01*
X495434Y506182D01*
X487734Y506182D01*
X487734Y513882D01*
X487734Y509317D02*
X495434Y509317D01*
X495434Y512452D02*
X487734Y512452D01*
X475434Y513882D02*
X467734Y513882D01*
X475434Y513882D02*
X475434Y506182D01*
X467734Y506182D01*
X467734Y513882D01*
X467734Y509317D02*
X475434Y509317D01*
X475434Y512452D02*
X467734Y512452D01*
X542598Y470702D02*
X550298Y470702D01*
X550298Y463002D01*
X542598Y463002D01*
X542598Y470702D01*
X542598Y466137D02*
X550298Y466137D01*
X550298Y469272D02*
X542598Y469272D01*
X530298Y470702D02*
X522598Y470702D01*
X530298Y470702D02*
X530298Y463002D01*
X522598Y463002D01*
X522598Y470702D01*
X522598Y466137D02*
X530298Y466137D01*
X530298Y469272D02*
X522598Y469272D01*
X527612Y449112D02*
X535312Y449112D01*
X535312Y441412D01*
X527612Y441412D01*
X527612Y449112D01*
X527612Y444547D02*
X535312Y444547D01*
X535312Y447682D02*
X527612Y447682D01*
X515312Y449112D02*
X507612Y449112D01*
X515312Y449112D02*
X515312Y441412D01*
X507612Y441412D01*
X507612Y449112D01*
X507612Y444547D02*
X515312Y444547D01*
X515312Y447682D02*
X507612Y447682D01*
X592382Y511850D02*
X600082Y511850D01*
X600082Y504150D01*
X592382Y504150D01*
X592382Y511850D01*
X592382Y507285D02*
X600082Y507285D01*
X600082Y510420D02*
X592382Y510420D01*
X580082Y511850D02*
X572382Y511850D01*
X580082Y511850D02*
X580082Y504150D01*
X572382Y504150D01*
X572382Y511850D01*
X572382Y507285D02*
X580082Y507285D01*
X580082Y510420D02*
X572382Y510420D01*
X592382Y495340D02*
X600082Y495340D01*
X600082Y487640D01*
X592382Y487640D01*
X592382Y495340D01*
X592382Y490775D02*
X600082Y490775D01*
X600082Y493910D02*
X592382Y493910D01*
X580082Y495340D02*
X572382Y495340D01*
X580082Y495340D02*
X580082Y487640D01*
X572382Y487640D01*
X572382Y495340D01*
X572382Y490775D02*
X580082Y490775D01*
X580082Y493910D02*
X572382Y493910D01*
X492960Y462748D02*
X485260Y462748D01*
X485260Y470448D01*
X492960Y470448D01*
X492960Y462748D01*
X492960Y465883D02*
X485260Y465883D01*
X485260Y469018D02*
X492960Y469018D01*
X505260Y462748D02*
X512960Y462748D01*
X505260Y462748D02*
X505260Y470448D01*
X512960Y470448D01*
X512960Y462748D01*
X512960Y465883D02*
X505260Y465883D01*
X505260Y469018D02*
X512960Y469018D01*
X611244Y458176D02*
X618944Y458176D01*
X611244Y458176D02*
X611244Y465876D01*
X618944Y465876D01*
X618944Y458176D01*
X618944Y461311D02*
X611244Y461311D01*
X611244Y464446D02*
X618944Y464446D01*
X631244Y458176D02*
X638944Y458176D01*
X631244Y458176D02*
X631244Y465876D01*
X638944Y465876D01*
X638944Y458176D01*
X638944Y461311D02*
X631244Y461311D01*
X631244Y464446D02*
X638944Y464446D01*
X596272Y468924D02*
X588572Y468924D01*
X596272Y468924D02*
X596272Y461224D01*
X588572Y461224D01*
X588572Y468924D01*
X588572Y464359D02*
X596272Y464359D01*
X596272Y467494D02*
X588572Y467494D01*
X576272Y468924D02*
X568572Y468924D01*
X576272Y468924D02*
X576272Y461224D01*
X568572Y461224D01*
X568572Y468924D01*
X568572Y464359D02*
X576272Y464359D01*
X576272Y467494D02*
X568572Y467494D01*
X421680Y332178D02*
X421680Y324478D01*
X413980Y324478D01*
X413980Y332178D01*
X421680Y332178D01*
X421680Y327613D02*
X413980Y327613D01*
X413980Y330748D02*
X421680Y330748D01*
X421680Y344478D02*
X421680Y352178D01*
X421680Y344478D02*
X413980Y344478D01*
X413980Y352178D01*
X421680Y352178D01*
X421680Y347613D02*
X413980Y347613D01*
X413980Y350748D02*
X421680Y350748D01*
X567396Y342018D02*
X567396Y334318D01*
X567396Y342018D02*
X575096Y342018D01*
X575096Y334318D01*
X567396Y334318D01*
X567396Y337453D02*
X575096Y337453D01*
X575096Y340588D02*
X567396Y340588D01*
X567396Y322018D02*
X567396Y314318D01*
X567396Y322018D02*
X575096Y322018D01*
X575096Y314318D01*
X567396Y314318D01*
X567396Y317453D02*
X575096Y317453D01*
X575096Y320588D02*
X567396Y320588D01*
X496450Y445810D02*
X488750Y445810D01*
X496450Y445810D02*
X496450Y438110D01*
X488750Y438110D01*
X488750Y445810D01*
X488750Y441245D02*
X496450Y441245D01*
X496450Y444380D02*
X488750Y444380D01*
X476450Y445810D02*
X468750Y445810D01*
X476450Y445810D02*
X476450Y438110D01*
X468750Y438110D01*
X468750Y445810D01*
X468750Y441245D02*
X476450Y441245D01*
X476450Y444380D02*
X468750Y444380D01*
X362912Y284440D02*
X355212Y284440D01*
X355212Y292140D01*
X362912Y292140D01*
X362912Y284440D01*
X362912Y287575D02*
X355212Y287575D01*
X355212Y290710D02*
X362912Y290710D01*
X375212Y284440D02*
X382912Y284440D01*
X375212Y284440D02*
X375212Y292140D01*
X382912Y292140D01*
X382912Y284440D01*
X382912Y287575D02*
X375212Y287575D01*
X375212Y290710D02*
X382912Y290710D01*
X372752Y267248D02*
X365052Y267248D01*
X372752Y267248D02*
X372752Y259548D01*
X365052Y259548D01*
X365052Y267248D01*
X365052Y262683D02*
X372752Y262683D01*
X372752Y265818D02*
X365052Y265818D01*
X352752Y267248D02*
X345052Y267248D01*
X352752Y267248D02*
X352752Y259548D01*
X345052Y259548D01*
X345052Y267248D01*
X345052Y262683D02*
X352752Y262683D01*
X352752Y265818D02*
X345052Y265818D01*
X429982Y333048D02*
X429982Y340748D01*
X437682Y340748D01*
X437682Y333048D01*
X429982Y333048D01*
X429982Y336183D02*
X437682Y336183D01*
X437682Y339318D02*
X429982Y339318D01*
X429982Y320748D02*
X429982Y313048D01*
X429982Y320748D02*
X437682Y320748D01*
X437682Y313048D01*
X429982Y313048D01*
X429982Y316183D02*
X437682Y316183D01*
X437682Y319318D02*
X429982Y319318D01*
D25*
X531397Y376023D02*
X535523Y376023D01*
X535523Y362697D01*
X531397Y362697D01*
X531397Y376023D01*
X531397Y364003D02*
X535523Y364003D01*
X535523Y365309D02*
X531397Y365309D01*
X531397Y366615D02*
X535523Y366615D01*
X535523Y367921D02*
X531397Y367921D01*
X531397Y369227D02*
X535523Y369227D01*
X535523Y370533D02*
X531397Y370533D01*
X531397Y371839D02*
X535523Y371839D01*
X535523Y373145D02*
X531397Y373145D01*
X531397Y374451D02*
X535523Y374451D01*
X535523Y375757D02*
X531397Y375757D01*
X527523Y376023D02*
X523397Y376023D01*
X527523Y376023D02*
X527523Y362697D01*
X523397Y362697D01*
X523397Y376023D01*
X523397Y364003D02*
X527523Y364003D01*
X527523Y365309D02*
X523397Y365309D01*
X523397Y366615D02*
X527523Y366615D01*
X527523Y367921D02*
X523397Y367921D01*
X523397Y369227D02*
X527523Y369227D01*
X527523Y370533D02*
X523397Y370533D01*
X523397Y371839D02*
X527523Y371839D01*
X527523Y373145D02*
X523397Y373145D01*
X523397Y374451D02*
X527523Y374451D01*
X527523Y375757D02*
X523397Y375757D01*
X519523Y376023D02*
X515397Y376023D01*
X519523Y376023D02*
X519523Y362697D01*
X515397Y362697D01*
X515397Y376023D01*
X515397Y364003D02*
X519523Y364003D01*
X519523Y365309D02*
X515397Y365309D01*
X515397Y366615D02*
X519523Y366615D01*
X519523Y367921D02*
X515397Y367921D01*
X515397Y369227D02*
X519523Y369227D01*
X519523Y370533D02*
X515397Y370533D01*
X515397Y371839D02*
X519523Y371839D01*
X519523Y373145D02*
X515397Y373145D01*
X515397Y374451D02*
X519523Y374451D01*
X519523Y375757D02*
X515397Y375757D01*
X511523Y376023D02*
X507397Y376023D01*
X511523Y376023D02*
X511523Y362697D01*
X507397Y362697D01*
X507397Y376023D01*
X507397Y364003D02*
X511523Y364003D01*
X511523Y365309D02*
X507397Y365309D01*
X507397Y366615D02*
X511523Y366615D01*
X511523Y367921D02*
X507397Y367921D01*
X507397Y369227D02*
X511523Y369227D01*
X511523Y370533D02*
X507397Y370533D01*
X507397Y371839D02*
X511523Y371839D01*
X511523Y373145D02*
X507397Y373145D01*
X507397Y374451D02*
X511523Y374451D01*
X511523Y375757D02*
X507397Y375757D01*
X503523Y376023D02*
X499397Y376023D01*
X503523Y376023D02*
X503523Y362697D01*
X499397Y362697D01*
X499397Y376023D01*
X499397Y364003D02*
X503523Y364003D01*
X503523Y365309D02*
X499397Y365309D01*
X499397Y366615D02*
X503523Y366615D01*
X503523Y367921D02*
X499397Y367921D01*
X499397Y369227D02*
X503523Y369227D01*
X503523Y370533D02*
X499397Y370533D01*
X499397Y371839D02*
X503523Y371839D01*
X503523Y373145D02*
X499397Y373145D01*
X499397Y374451D02*
X503523Y374451D01*
X503523Y375757D02*
X499397Y375757D01*
X495523Y376023D02*
X491397Y376023D01*
X495523Y376023D02*
X495523Y362697D01*
X491397Y362697D01*
X491397Y376023D01*
X491397Y364003D02*
X495523Y364003D01*
X495523Y365309D02*
X491397Y365309D01*
X491397Y366615D02*
X495523Y366615D01*
X495523Y367921D02*
X491397Y367921D01*
X491397Y369227D02*
X495523Y369227D01*
X495523Y370533D02*
X491397Y370533D01*
X491397Y371839D02*
X495523Y371839D01*
X495523Y373145D02*
X491397Y373145D01*
X491397Y374451D02*
X495523Y374451D01*
X495523Y375757D02*
X491397Y375757D01*
X487523Y376023D02*
X483397Y376023D01*
X487523Y376023D02*
X487523Y362697D01*
X483397Y362697D01*
X483397Y376023D01*
X483397Y364003D02*
X487523Y364003D01*
X487523Y365309D02*
X483397Y365309D01*
X483397Y366615D02*
X487523Y366615D01*
X487523Y367921D02*
X483397Y367921D01*
X483397Y369227D02*
X487523Y369227D01*
X487523Y370533D02*
X483397Y370533D01*
X483397Y371839D02*
X487523Y371839D01*
X487523Y373145D02*
X483397Y373145D01*
X483397Y374451D02*
X487523Y374451D01*
X487523Y375757D02*
X483397Y375757D01*
X479523Y376023D02*
X475397Y376023D01*
X479523Y376023D02*
X479523Y362697D01*
X475397Y362697D01*
X475397Y376023D01*
X475397Y364003D02*
X479523Y364003D01*
X479523Y365309D02*
X475397Y365309D01*
X475397Y366615D02*
X479523Y366615D01*
X479523Y367921D02*
X475397Y367921D01*
X475397Y369227D02*
X479523Y369227D01*
X479523Y370533D02*
X475397Y370533D01*
X475397Y371839D02*
X479523Y371839D01*
X479523Y373145D02*
X475397Y373145D01*
X475397Y374451D02*
X479523Y374451D01*
X479523Y375757D02*
X475397Y375757D01*
X475397Y292623D02*
X479523Y292623D01*
X479523Y279297D01*
X475397Y279297D01*
X475397Y292623D01*
X475397Y280603D02*
X479523Y280603D01*
X479523Y281909D02*
X475397Y281909D01*
X475397Y283215D02*
X479523Y283215D01*
X479523Y284521D02*
X475397Y284521D01*
X475397Y285827D02*
X479523Y285827D01*
X479523Y287133D02*
X475397Y287133D01*
X475397Y288439D02*
X479523Y288439D01*
X479523Y289745D02*
X475397Y289745D01*
X475397Y291051D02*
X479523Y291051D01*
X479523Y292357D02*
X475397Y292357D01*
X483397Y292623D02*
X487523Y292623D01*
X487523Y279297D01*
X483397Y279297D01*
X483397Y292623D01*
X483397Y280603D02*
X487523Y280603D01*
X487523Y281909D02*
X483397Y281909D01*
X483397Y283215D02*
X487523Y283215D01*
X487523Y284521D02*
X483397Y284521D01*
X483397Y285827D02*
X487523Y285827D01*
X487523Y287133D02*
X483397Y287133D01*
X483397Y288439D02*
X487523Y288439D01*
X487523Y289745D02*
X483397Y289745D01*
X483397Y291051D02*
X487523Y291051D01*
X487523Y292357D02*
X483397Y292357D01*
X491397Y292623D02*
X495523Y292623D01*
X495523Y279297D01*
X491397Y279297D01*
X491397Y292623D01*
X491397Y280603D02*
X495523Y280603D01*
X495523Y281909D02*
X491397Y281909D01*
X491397Y283215D02*
X495523Y283215D01*
X495523Y284521D02*
X491397Y284521D01*
X491397Y285827D02*
X495523Y285827D01*
X495523Y287133D02*
X491397Y287133D01*
X491397Y288439D02*
X495523Y288439D01*
X495523Y289745D02*
X491397Y289745D01*
X491397Y291051D02*
X495523Y291051D01*
X495523Y292357D02*
X491397Y292357D01*
X499397Y292623D02*
X503523Y292623D01*
X503523Y279297D01*
X499397Y279297D01*
X499397Y292623D01*
X499397Y280603D02*
X503523Y280603D01*
X503523Y281909D02*
X499397Y281909D01*
X499397Y283215D02*
X503523Y283215D01*
X503523Y284521D02*
X499397Y284521D01*
X499397Y285827D02*
X503523Y285827D01*
X503523Y287133D02*
X499397Y287133D01*
X499397Y288439D02*
X503523Y288439D01*
X503523Y289745D02*
X499397Y289745D01*
X499397Y291051D02*
X503523Y291051D01*
X503523Y292357D02*
X499397Y292357D01*
X507397Y292623D02*
X511523Y292623D01*
X511523Y279297D01*
X507397Y279297D01*
X507397Y292623D01*
X507397Y280603D02*
X511523Y280603D01*
X511523Y281909D02*
X507397Y281909D01*
X507397Y283215D02*
X511523Y283215D01*
X511523Y284521D02*
X507397Y284521D01*
X507397Y285827D02*
X511523Y285827D01*
X511523Y287133D02*
X507397Y287133D01*
X507397Y288439D02*
X511523Y288439D01*
X511523Y289745D02*
X507397Y289745D01*
X507397Y291051D02*
X511523Y291051D01*
X511523Y292357D02*
X507397Y292357D01*
X515397Y292623D02*
X519523Y292623D01*
X519523Y279297D01*
X515397Y279297D01*
X515397Y292623D01*
X515397Y280603D02*
X519523Y280603D01*
X519523Y281909D02*
X515397Y281909D01*
X515397Y283215D02*
X519523Y283215D01*
X519523Y284521D02*
X515397Y284521D01*
X515397Y285827D02*
X519523Y285827D01*
X519523Y287133D02*
X515397Y287133D01*
X515397Y288439D02*
X519523Y288439D01*
X519523Y289745D02*
X515397Y289745D01*
X515397Y291051D02*
X519523Y291051D01*
X519523Y292357D02*
X515397Y292357D01*
X523397Y292623D02*
X527523Y292623D01*
X527523Y279297D01*
X523397Y279297D01*
X523397Y292623D01*
X523397Y280603D02*
X527523Y280603D01*
X527523Y281909D02*
X523397Y281909D01*
X523397Y283215D02*
X527523Y283215D01*
X527523Y284521D02*
X523397Y284521D01*
X523397Y285827D02*
X527523Y285827D01*
X527523Y287133D02*
X523397Y287133D01*
X523397Y288439D02*
X527523Y288439D01*
X527523Y289745D02*
X523397Y289745D01*
X523397Y291051D02*
X527523Y291051D01*
X527523Y292357D02*
X523397Y292357D01*
X531397Y292623D02*
X535523Y292623D01*
X535523Y279297D01*
X531397Y279297D01*
X531397Y292623D01*
X531397Y280603D02*
X535523Y280603D01*
X535523Y281909D02*
X531397Y281909D01*
X531397Y283215D02*
X535523Y283215D01*
X535523Y284521D02*
X531397Y284521D01*
X531397Y285827D02*
X535523Y285827D01*
X535523Y287133D02*
X531397Y287133D01*
X531397Y288439D02*
X535523Y288439D01*
X535523Y289745D02*
X531397Y289745D01*
X531397Y291051D02*
X535523Y291051D01*
X535523Y292357D02*
X531397Y292357D01*
X540497Y301723D02*
X553823Y301723D01*
X553823Y297597D01*
X540497Y297597D01*
X540497Y301723D01*
X540497Y298903D02*
X553823Y298903D01*
X553823Y300209D02*
X540497Y300209D01*
X540497Y301515D02*
X553823Y301515D01*
X553823Y309723D02*
X540497Y309723D01*
X553823Y309723D02*
X553823Y305597D01*
X540497Y305597D01*
X540497Y309723D01*
X540497Y306903D02*
X553823Y306903D01*
X553823Y308209D02*
X540497Y308209D01*
X540497Y309515D02*
X553823Y309515D01*
X553823Y317723D02*
X540497Y317723D01*
X553823Y317723D02*
X553823Y313597D01*
X540497Y313597D01*
X540497Y317723D01*
X540497Y314903D02*
X553823Y314903D01*
X553823Y316209D02*
X540497Y316209D01*
X540497Y317515D02*
X553823Y317515D01*
X553823Y325723D02*
X540497Y325723D01*
X553823Y325723D02*
X553823Y321597D01*
X540497Y321597D01*
X540497Y325723D01*
X540497Y322903D02*
X553823Y322903D01*
X553823Y324209D02*
X540497Y324209D01*
X540497Y325515D02*
X553823Y325515D01*
X553823Y333723D02*
X540497Y333723D01*
X553823Y333723D02*
X553823Y329597D01*
X540497Y329597D01*
X540497Y333723D01*
X540497Y330903D02*
X553823Y330903D01*
X553823Y332209D02*
X540497Y332209D01*
X540497Y333515D02*
X553823Y333515D01*
X553823Y341723D02*
X540497Y341723D01*
X553823Y341723D02*
X553823Y337597D01*
X540497Y337597D01*
X540497Y341723D01*
X540497Y338903D02*
X553823Y338903D01*
X553823Y340209D02*
X540497Y340209D01*
X540497Y341515D02*
X553823Y341515D01*
X553823Y349723D02*
X540497Y349723D01*
X553823Y349723D02*
X553823Y345597D01*
X540497Y345597D01*
X540497Y349723D01*
X540497Y346903D02*
X553823Y346903D01*
X553823Y348209D02*
X540497Y348209D01*
X540497Y349515D02*
X553823Y349515D01*
X553823Y357723D02*
X540497Y357723D01*
X553823Y357723D02*
X553823Y353597D01*
X540497Y353597D01*
X540497Y357723D01*
X540497Y354903D02*
X553823Y354903D01*
X553823Y356209D02*
X540497Y356209D01*
X540497Y357515D02*
X553823Y357515D01*
X470423Y357723D02*
X457097Y357723D01*
X470423Y357723D02*
X470423Y353597D01*
X457097Y353597D01*
X457097Y357723D01*
X457097Y354903D02*
X470423Y354903D01*
X470423Y356209D02*
X457097Y356209D01*
X457097Y357515D02*
X470423Y357515D01*
X470423Y349723D02*
X457097Y349723D01*
X470423Y349723D02*
X470423Y345597D01*
X457097Y345597D01*
X457097Y349723D01*
X457097Y346903D02*
X470423Y346903D01*
X470423Y348209D02*
X457097Y348209D01*
X457097Y349515D02*
X470423Y349515D01*
X470423Y341723D02*
X457097Y341723D01*
X470423Y341723D02*
X470423Y337597D01*
X457097Y337597D01*
X457097Y341723D01*
X457097Y338903D02*
X470423Y338903D01*
X470423Y340209D02*
X457097Y340209D01*
X457097Y341515D02*
X470423Y341515D01*
X470423Y333723D02*
X457097Y333723D01*
X470423Y333723D02*
X470423Y329597D01*
X457097Y329597D01*
X457097Y333723D01*
X457097Y330903D02*
X470423Y330903D01*
X470423Y332209D02*
X457097Y332209D01*
X457097Y333515D02*
X470423Y333515D01*
X470423Y325723D02*
X457097Y325723D01*
X470423Y325723D02*
X470423Y321597D01*
X457097Y321597D01*
X457097Y325723D01*
X457097Y322903D02*
X470423Y322903D01*
X470423Y324209D02*
X457097Y324209D01*
X457097Y325515D02*
X470423Y325515D01*
X470423Y317723D02*
X457097Y317723D01*
X470423Y317723D02*
X470423Y313597D01*
X457097Y313597D01*
X457097Y317723D01*
X457097Y314903D02*
X470423Y314903D01*
X470423Y316209D02*
X457097Y316209D01*
X457097Y317515D02*
X470423Y317515D01*
X470423Y309723D02*
X457097Y309723D01*
X470423Y309723D02*
X470423Y305597D01*
X457097Y305597D01*
X457097Y309723D01*
X457097Y306903D02*
X470423Y306903D01*
X470423Y308209D02*
X457097Y308209D01*
X457097Y309515D02*
X470423Y309515D01*
X470423Y301723D02*
X457097Y301723D01*
X470423Y301723D02*
X470423Y297597D01*
X457097Y297597D01*
X457097Y301723D01*
X457097Y298903D02*
X470423Y298903D01*
X470423Y300209D02*
X457097Y300209D01*
X457097Y301515D02*
X470423Y301515D01*
D13*
X641360Y296230D02*
X641360Y289090D01*
X641360Y296230D02*
X645200Y296230D01*
X645200Y289090D01*
X641360Y289090D01*
X641360Y293042D02*
X645200Y293042D01*
X660360Y296230D02*
X660360Y289090D01*
X660360Y296230D02*
X664200Y296230D01*
X664200Y289090D01*
X660360Y289090D01*
X660360Y293042D02*
X664200Y293042D01*
X654700Y308290D02*
X654700Y315430D01*
X654700Y308290D02*
X650860Y308290D01*
X650860Y315430D01*
X654700Y315430D01*
X654700Y312242D02*
X650860Y312242D01*
D10*
X620990Y333810D02*
X620990Y341510D01*
X628690Y341510D01*
X628690Y333810D01*
X620990Y333810D01*
X620990Y336945D02*
X628690Y336945D01*
X628690Y340080D02*
X620990Y340080D01*
X620990Y321510D02*
X620990Y313810D01*
X620990Y321510D02*
X628690Y321510D01*
X628690Y313810D01*
X620990Y313810D01*
X620990Y316945D02*
X628690Y316945D01*
X628690Y320080D02*
X620990Y320080D01*
D13*
X420332Y468894D02*
X413192Y468894D01*
X413192Y472734D01*
X420332Y472734D01*
X420332Y468894D01*
X420332Y487894D02*
X413192Y487894D01*
X413192Y491734D01*
X420332Y491734D01*
X420332Y487894D01*
X401132Y482234D02*
X393992Y482234D01*
X401132Y482234D02*
X401132Y478394D01*
X393992Y478394D01*
X393992Y482234D01*
D11*
X374699Y468168D02*
X374699Y455368D01*
X359869Y455368D01*
X359869Y468168D01*
X374699Y468168D01*
X374699Y458408D02*
X359869Y458408D01*
X359869Y461448D02*
X374699Y461448D01*
X374699Y464488D02*
X359869Y464488D01*
X359869Y467528D02*
X374699Y467528D01*
X374699Y439728D02*
X374699Y426928D01*
X359869Y426928D01*
X359869Y439728D01*
X374699Y439728D01*
X374699Y429968D02*
X359869Y429968D01*
X359869Y433008D02*
X374699Y433008D01*
X374699Y436048D02*
X359869Y436048D01*
X359869Y439088D02*
X374699Y439088D01*
D10*
X445810Y468750D02*
X445810Y476450D01*
X445810Y468750D02*
X438110Y468750D01*
X438110Y476450D01*
X445810Y476450D01*
X445810Y471885D02*
X438110Y471885D01*
X438110Y475020D02*
X445810Y475020D01*
X445810Y488750D02*
X445810Y496450D01*
X445810Y488750D02*
X438110Y488750D01*
X438110Y496450D01*
X445810Y496450D01*
X445810Y491885D02*
X438110Y491885D01*
X438110Y495020D02*
X445810Y495020D01*
X356816Y407630D02*
X349116Y407630D01*
X349116Y415330D01*
X356816Y415330D01*
X356816Y407630D01*
X356816Y410765D02*
X349116Y410765D01*
X349116Y413900D02*
X356816Y413900D01*
X369116Y407630D02*
X376816Y407630D01*
X369116Y407630D02*
X369116Y415330D01*
X376816Y415330D01*
X376816Y407630D01*
X376816Y410765D02*
X369116Y410765D01*
X369116Y413900D02*
X376816Y413900D01*
X376816Y399074D02*
X369116Y399074D01*
X376816Y399074D02*
X376816Y391374D01*
X369116Y391374D01*
X369116Y399074D01*
X369116Y394509D02*
X376816Y394509D01*
X376816Y397644D02*
X369116Y397644D01*
X356816Y399074D02*
X349116Y399074D01*
X356816Y399074D02*
X356816Y391374D01*
X349116Y391374D01*
X349116Y399074D01*
X349116Y394509D02*
X356816Y394509D01*
X356816Y397644D02*
X349116Y397644D01*
X592796Y342272D02*
X592796Y334572D01*
X592796Y342272D02*
X600496Y342272D01*
X600496Y334572D01*
X592796Y334572D01*
X592796Y337707D02*
X600496Y337707D01*
X600496Y340842D02*
X592796Y340842D01*
X592796Y322272D02*
X592796Y314572D01*
X592796Y322272D02*
X600496Y322272D01*
X600496Y314572D01*
X592796Y314572D01*
X592796Y317707D02*
X600496Y317707D01*
X600496Y320842D02*
X592796Y320842D01*
D11*
X476146Y228567D02*
X467095Y219516D01*
X476146Y228567D02*
X486631Y218082D01*
X477580Y209031D01*
X467095Y219516D01*
X474540Y212071D02*
X480620Y212071D01*
X483660Y215111D02*
X471500Y215111D01*
X468460Y218151D02*
X486562Y218151D01*
X483522Y221191D02*
X468770Y221191D01*
X471810Y224231D02*
X480482Y224231D01*
X477442Y227271D02*
X474850Y227271D01*
X487205Y239626D02*
X496256Y248677D01*
X506741Y238192D01*
X497690Y229141D01*
X487205Y239626D01*
X494650Y232181D02*
X500730Y232181D01*
X503770Y235221D02*
X491610Y235221D01*
X488570Y238261D02*
X506672Y238261D01*
X503632Y241301D02*
X488880Y241301D01*
X491920Y244341D02*
X500592Y244341D01*
X497552Y247381D02*
X494960Y247381D01*
X431188Y232631D02*
X422137Y223580D01*
X431188Y232631D02*
X441673Y222146D01*
X432622Y213095D01*
X422137Y223580D01*
X429582Y216135D02*
X435662Y216135D01*
X438702Y219175D02*
X426542Y219175D01*
X423502Y222215D02*
X441604Y222215D01*
X438564Y225255D02*
X423812Y225255D01*
X426852Y228295D02*
X435524Y228295D01*
X432484Y231335D02*
X429892Y231335D01*
X442247Y243690D02*
X451298Y252741D01*
X461783Y242256D01*
X452732Y233205D01*
X442247Y243690D01*
X449692Y236245D02*
X455772Y236245D01*
X458812Y239285D02*
X446652Y239285D01*
X443612Y242325D02*
X461714Y242325D01*
X458674Y245365D02*
X443922Y245365D01*
X446962Y248405D02*
X455634Y248405D01*
X452594Y251445D02*
X450002Y251445D01*
X385722Y238219D02*
X376671Y229168D01*
X385722Y238219D02*
X396207Y227734D01*
X387156Y218683D01*
X376671Y229168D01*
X384116Y221723D02*
X390196Y221723D01*
X393236Y224763D02*
X381076Y224763D01*
X378036Y227803D02*
X396138Y227803D01*
X393098Y230843D02*
X378346Y230843D01*
X381386Y233883D02*
X390058Y233883D01*
X387018Y236923D02*
X384426Y236923D01*
X396781Y249278D02*
X405832Y258329D01*
X416317Y247844D01*
X407266Y238793D01*
X396781Y249278D01*
X404226Y241833D02*
X410306Y241833D01*
X413346Y244873D02*
X401186Y244873D01*
X398146Y247913D02*
X416248Y247913D01*
X413208Y250953D02*
X398456Y250953D01*
X401496Y253993D02*
X410168Y253993D01*
X407128Y257033D02*
X404536Y257033D01*
X435252Y188435D02*
X426201Y179384D01*
X435252Y188435D02*
X445737Y177950D01*
X436686Y168899D01*
X426201Y179384D01*
X433646Y171939D02*
X439726Y171939D01*
X442766Y174979D02*
X430606Y174979D01*
X427566Y178019D02*
X445668Y178019D01*
X442628Y181059D02*
X427876Y181059D01*
X430916Y184099D02*
X439588Y184099D01*
X436548Y187139D02*
X433956Y187139D01*
X446311Y199494D02*
X455362Y208545D01*
X465847Y198060D01*
X456796Y189009D01*
X446311Y199494D01*
X453756Y192049D02*
X459836Y192049D01*
X462876Y195089D02*
X450716Y195089D01*
X447676Y198129D02*
X465778Y198129D01*
X462738Y201169D02*
X447986Y201169D01*
X451026Y204209D02*
X459698Y204209D01*
X456658Y207249D02*
X454066Y207249D01*
X387500Y189705D02*
X378449Y180654D01*
X387500Y189705D02*
X397985Y179220D01*
X388934Y170169D01*
X378449Y180654D01*
X385894Y173209D02*
X391974Y173209D01*
X395014Y176249D02*
X382854Y176249D01*
X379814Y179289D02*
X397916Y179289D01*
X394876Y182329D02*
X380124Y182329D01*
X383164Y185369D02*
X391836Y185369D01*
X388796Y188409D02*
X386204Y188409D01*
X398559Y200764D02*
X407610Y209815D01*
X418095Y199330D01*
X409044Y190279D01*
X398559Y200764D01*
X406004Y193319D02*
X412084Y193319D01*
X415124Y196359D02*
X402964Y196359D01*
X399924Y199399D02*
X418026Y199399D01*
X414986Y202439D02*
X400234Y202439D01*
X403274Y205479D02*
X411946Y205479D01*
X408906Y208519D02*
X406314Y208519D01*
X342542Y195039D02*
X333491Y185988D01*
X342542Y195039D02*
X353027Y184554D01*
X343976Y175503D01*
X333491Y185988D01*
X340936Y178543D02*
X347016Y178543D01*
X350056Y181583D02*
X337896Y181583D01*
X334856Y184623D02*
X352958Y184623D01*
X349918Y187663D02*
X335166Y187663D01*
X338206Y190703D02*
X346878Y190703D01*
X343838Y193743D02*
X341246Y193743D01*
X353601Y206098D02*
X362652Y215149D01*
X373137Y204664D01*
X364086Y195613D01*
X353601Y206098D01*
X361046Y198653D02*
X367126Y198653D01*
X370166Y201693D02*
X358006Y201693D01*
X354966Y204733D02*
X373068Y204733D01*
X370028Y207773D02*
X355276Y207773D01*
X358316Y210813D02*
X366988Y210813D01*
X363948Y213853D02*
X361356Y213853D01*
D10*
X470970Y78526D02*
X478670Y78526D01*
X478670Y70826D01*
X470970Y70826D01*
X470970Y78526D01*
X470970Y73961D02*
X478670Y73961D01*
X478670Y77096D02*
X470970Y77096D01*
X458670Y78526D02*
X450970Y78526D01*
X458670Y78526D02*
X458670Y70826D01*
X450970Y70826D01*
X450970Y78526D01*
X450970Y73961D02*
X458670Y73961D01*
X458670Y77096D02*
X450970Y77096D01*
X466384Y42110D02*
X466384Y34410D01*
X458684Y34410D01*
X458684Y42110D01*
X466384Y42110D01*
X466384Y37545D02*
X458684Y37545D01*
X458684Y40680D02*
X466384Y40680D01*
X466384Y54410D02*
X466384Y62110D01*
X466384Y54410D02*
X458684Y54410D01*
X458684Y62110D01*
X466384Y62110D01*
X466384Y57545D02*
X458684Y57545D01*
X458684Y60680D02*
X466384Y60680D01*
X651310Y265470D02*
X659010Y265470D01*
X659010Y257770D01*
X651310Y257770D01*
X651310Y265470D01*
X651310Y260905D02*
X659010Y260905D01*
X659010Y264040D02*
X651310Y264040D01*
X639010Y265470D02*
X631310Y265470D01*
X639010Y265470D02*
X639010Y257770D01*
X631310Y257770D01*
X631310Y265470D01*
X631310Y260905D02*
X639010Y260905D01*
X639010Y264040D02*
X631310Y264040D01*
X613450Y224482D02*
X613450Y216782D01*
X605750Y216782D01*
X605750Y224482D01*
X613450Y224482D01*
X613450Y219917D02*
X605750Y219917D01*
X605750Y223052D02*
X613450Y223052D01*
X613450Y236782D02*
X613450Y244482D01*
X613450Y236782D02*
X605750Y236782D01*
X605750Y244482D01*
X613450Y244482D01*
X613450Y239917D02*
X605750Y239917D01*
X605750Y243052D02*
X613450Y243052D01*
X580176Y224482D02*
X580176Y216782D01*
X572476Y216782D01*
X572476Y224482D01*
X580176Y224482D01*
X580176Y219917D02*
X572476Y219917D01*
X572476Y223052D02*
X580176Y223052D01*
X580176Y236782D02*
X580176Y244482D01*
X580176Y236782D02*
X572476Y236782D01*
X572476Y244482D01*
X580176Y244482D01*
X580176Y239917D02*
X572476Y239917D01*
X572476Y243052D02*
X580176Y243052D01*
X562236Y225084D02*
X554536Y225084D01*
X562236Y225084D02*
X562236Y217384D01*
X554536Y217384D01*
X554536Y225084D01*
X554536Y220519D02*
X562236Y220519D01*
X562236Y223654D02*
X554536Y223654D01*
X542236Y225084D02*
X534536Y225084D01*
X542236Y225084D02*
X542236Y217384D01*
X534536Y217384D01*
X534536Y225084D01*
X534536Y220519D02*
X542236Y220519D01*
X542236Y223654D02*
X534536Y223654D01*
X596686Y224482D02*
X596686Y216782D01*
X588986Y216782D01*
X588986Y224482D01*
X596686Y224482D01*
X596686Y219917D02*
X588986Y219917D01*
X588986Y223052D02*
X596686Y223052D01*
X596686Y236782D02*
X596686Y244482D01*
X596686Y236782D02*
X588986Y236782D01*
X588986Y244482D01*
X596686Y244482D01*
X596686Y239917D02*
X588986Y239917D01*
X588986Y243052D02*
X596686Y243052D01*
X641310Y134754D02*
X641310Y127054D01*
X641310Y134754D02*
X649010Y134754D01*
X649010Y127054D01*
X641310Y127054D01*
X641310Y130189D02*
X649010Y130189D01*
X649010Y133324D02*
X641310Y133324D01*
X641310Y114754D02*
X641310Y107054D01*
X641310Y114754D02*
X649010Y114754D01*
X649010Y107054D01*
X641310Y107054D01*
X641310Y110189D02*
X649010Y110189D01*
X649010Y113324D02*
X641310Y113324D01*
D13*
X644154Y150914D02*
X644154Y158054D01*
X647994Y158054D01*
X647994Y150914D01*
X644154Y150914D01*
X644154Y154866D02*
X647994Y154866D01*
X663154Y158054D02*
X663154Y150914D01*
X663154Y158054D02*
X666994Y158054D01*
X666994Y150914D01*
X663154Y150914D01*
X663154Y154866D02*
X666994Y154866D01*
X657494Y170114D02*
X657494Y177254D01*
X657494Y170114D02*
X653654Y170114D01*
X653654Y177254D01*
X657494Y177254D01*
X657494Y174066D02*
X653654Y174066D01*
D10*
X661884Y134754D02*
X661884Y127054D01*
X661884Y134754D02*
X669584Y134754D01*
X669584Y127054D01*
X661884Y127054D01*
X661884Y130189D02*
X669584Y130189D01*
X669584Y133324D02*
X661884Y133324D01*
X661884Y114754D02*
X661884Y107054D01*
X661884Y114754D02*
X669584Y114754D01*
X669584Y107054D01*
X661884Y107054D01*
X661884Y110189D02*
X669584Y110189D01*
X669584Y113324D02*
X661884Y113324D01*
X512786Y186490D02*
X512786Y194190D01*
X520486Y194190D01*
X520486Y186490D01*
X512786Y186490D01*
X512786Y189625D02*
X520486Y189625D01*
X520486Y192760D02*
X512786Y192760D01*
X512786Y174190D02*
X512786Y166490D01*
X512786Y174190D02*
X520486Y174190D01*
X520486Y166490D01*
X512786Y166490D01*
X512786Y169625D02*
X520486Y169625D01*
X520486Y172760D02*
X512786Y172760D01*
X611084Y188522D02*
X611084Y196222D01*
X618784Y196222D01*
X618784Y188522D01*
X611084Y188522D01*
X611084Y191657D02*
X618784Y191657D01*
X618784Y194792D02*
X611084Y194792D01*
X611084Y176222D02*
X611084Y168522D01*
X611084Y176222D02*
X618784Y176222D01*
X618784Y168522D01*
X611084Y168522D01*
X611084Y171657D02*
X618784Y171657D01*
X618784Y174792D02*
X611084Y174792D01*
D13*
X509260Y41110D02*
X509260Y33970D01*
X505420Y33970D01*
X505420Y41110D01*
X509260Y41110D01*
X509260Y37922D02*
X505420Y37922D01*
X490260Y41110D02*
X490260Y33970D01*
X486420Y33970D01*
X486420Y41110D01*
X490260Y41110D01*
X490260Y37922D02*
X486420Y37922D01*
X495920Y21910D02*
X495920Y14770D01*
X495920Y21910D02*
X499760Y21910D01*
X499760Y14770D01*
X495920Y14770D01*
X495920Y18722D02*
X499760Y18722D01*
D10*
X394930Y346510D02*
X394930Y354210D01*
X402630Y354210D01*
X402630Y346510D01*
X394930Y346510D01*
X394930Y349645D02*
X402630Y349645D01*
X402630Y352780D02*
X394930Y352780D01*
X394930Y334210D02*
X394930Y326510D01*
X394930Y334210D02*
X402630Y334210D01*
X402630Y326510D01*
X394930Y326510D01*
X394930Y329645D02*
X402630Y329645D01*
X402630Y332780D02*
X394930Y332780D01*
D26*
X360566Y350774D02*
X360566Y367650D01*
X376542Y367650D01*
X376542Y350774D01*
X360566Y350774D01*
X360566Y355833D02*
X376542Y355833D01*
X376542Y360892D02*
X360566Y360892D01*
X360566Y365951D02*
X376542Y365951D01*
X360566Y323850D02*
X360566Y306974D01*
X360566Y323850D02*
X376542Y323850D01*
X376542Y306974D01*
X360566Y306974D01*
X360566Y312033D02*
X376542Y312033D01*
X376542Y317092D02*
X360566Y317092D01*
X360566Y322151D02*
X376542Y322151D01*
D10*
X338274Y15962D02*
X330574Y15962D01*
X330574Y23662D01*
X338274Y23662D01*
X338274Y15962D01*
X338274Y19097D02*
X330574Y19097D01*
X330574Y22232D02*
X338274Y22232D01*
X350574Y15962D02*
X358274Y15962D01*
X350574Y15962D02*
X350574Y23662D01*
X358274Y23662D01*
X358274Y15962D01*
X358274Y19097D02*
X350574Y19097D01*
X350574Y22232D02*
X358274Y22232D01*
D18*
X365128Y37708D02*
X375628Y37708D01*
X375628Y33208D01*
X365128Y33208D01*
X365128Y37708D01*
X365128Y34633D02*
X375628Y34633D01*
X375628Y36058D02*
X365128Y36058D01*
X365128Y37483D02*
X375628Y37483D01*
X375628Y47208D02*
X365128Y47208D01*
X375628Y47208D02*
X375628Y42708D01*
X365128Y42708D01*
X365128Y47208D01*
X365128Y44133D02*
X375628Y44133D01*
X375628Y45558D02*
X365128Y45558D01*
X365128Y46983D02*
X375628Y46983D01*
X375628Y56708D02*
X365128Y56708D01*
X375628Y56708D02*
X375628Y52208D01*
X365128Y52208D01*
X365128Y56708D01*
X365128Y53633D02*
X375628Y53633D01*
X375628Y55058D02*
X365128Y55058D01*
X365128Y56483D02*
X375628Y56483D01*
X349628Y56708D02*
X339128Y56708D01*
X349628Y56708D02*
X349628Y52208D01*
X339128Y52208D01*
X339128Y56708D01*
X339128Y53633D02*
X349628Y53633D01*
X349628Y55058D02*
X339128Y55058D01*
X339128Y56483D02*
X349628Y56483D01*
X349628Y47208D02*
X339128Y47208D01*
X349628Y47208D02*
X349628Y42708D01*
X339128Y42708D01*
X339128Y47208D01*
X339128Y44133D02*
X349628Y44133D01*
X349628Y45558D02*
X339128Y45558D01*
X339128Y46983D02*
X349628Y46983D01*
X349628Y37708D02*
X339128Y37708D01*
X349628Y37708D02*
X349628Y33208D01*
X339128Y33208D01*
X339128Y37708D01*
X339128Y34633D02*
X349628Y34633D01*
X349628Y36058D02*
X339128Y36058D01*
X339128Y37483D02*
X349628Y37483D01*
D10*
X331510Y252850D02*
X331510Y260550D01*
X331510Y252850D02*
X323810Y252850D01*
X323810Y260550D01*
X331510Y260550D01*
X331510Y255985D02*
X323810Y255985D01*
X323810Y259120D02*
X331510Y259120D01*
X331510Y272850D02*
X331510Y280550D01*
X331510Y272850D02*
X323810Y272850D01*
X323810Y280550D01*
X331510Y280550D01*
X331510Y275985D02*
X323810Y275985D01*
X323810Y279120D02*
X331510Y279120D01*
M02*
