M48
;GenerationSoftware,Autodesk,EAGLE,9.6.2*%
;CreationDate,2023-11-21T05:06:47Z*%
FMAT,2
ICI,OFF
METRIC,TZ,000.000
T13C0.200
T12C0.203
T11C0.350
T10C0.600
T9C0.630
T8C0.750
T7C0.800
T6C0.900
T5C1.000
T4C1.016
T3C3.000
T2C3.200
T1C9.144
%
G90
M71
T1
X56159Y10338
T2
X13970Y2540
X66040Y35560
X66040Y7620
X15240Y50800
T3
X35128Y50165
X65608Y21665
T4
X41935Y43459
X39395Y40919
X44475Y43459
X41935Y40919
X39395Y43459
X44475Y40919
T5
X58699Y18838
X56159Y18838
X53619Y18838
X53619Y1838
X22733Y26746
X44958Y51435
X39878Y51435
X58699Y1838
X49098Y48895
X55750Y24535
X20193Y26746
X58250Y28865
X43688Y4318
X41148Y4318
X2084Y49880
X51638Y48895
X54178Y48895
X46558Y48895
X1956Y6325
X4084Y49880
X1956Y8865
T6
X27686Y30480
X27686Y20320
X27686Y33020
X27686Y17780
X27686Y35560
X32766Y22860
X32766Y35560
X32766Y33020
X27686Y43180
X27686Y40640
X27686Y27940
X27686Y38100
X27686Y25400
X32766Y30480
X32766Y40640
X32766Y20320
X32766Y43180
X27686Y22860
T7
X42926Y8113
X44196Y10312
X21590Y11608
X19050Y11608
X16510Y11608
X35560Y10312
X45466Y12512
X34290Y12512
X36830Y8113
X39878Y8128
X39878Y10668
X9068Y19634
X11608Y19634
X39878Y13208
X6528Y19634
T8
X2291Y44302
X2291Y40302
X19329Y17577
X2291Y46302
X2291Y38302
X19329Y22657
X16789Y20117
T9
X57402Y42520
X62282Y42520
T10
X27190Y51040
X18550Y51040
X18550Y47240
X27190Y47240
T11
X23368Y49530
X22403Y49530
X17323Y42901
X16586Y32969
X16561Y32004
X17882Y43688
X46736Y40894
X18212Y42875
X6502Y28651
X6172Y27102
X5893Y28042
X12243Y35103
X10973Y33833
X12243Y33833
X7137Y15596
X8484Y14453
X7976Y15570
X9220Y21717
X8179Y21793
X7290Y21590
X21223Y45491
X20701Y44882
T12
X3302Y24384
X21590Y16256
X22987Y21336
X21590Y31750
X25095Y31598
X10617Y30378
X25933Y17170
X20955Y18847
X48768Y14478
X4826Y34671
X13157Y39446
X16256Y38481
X3200Y10338
X25959Y9576
X19126Y9779
X10414Y46431
X4877Y36017
X4674Y31852
X13843Y38456
X2870Y28499
X46482Y14478
X43180Y14478
X37592Y14478
X34036Y14478
X31496Y14808
X2540Y1524
X18542Y15164
T13
X46135Y46829
X53797Y39903
X42189Y20549
X63830Y27838
X52499Y25245
X45339Y26314
X51816Y31242
X51816Y42418
X13360Y12497
X48768Y41631
X10955Y7820
X40919Y36576
X4788Y44220
X13843Y41326
X33733Y16758
X35052Y43180
X66520Y25603
X58420Y25400
X40894Y27178
X39395Y28194
X47015Y18796
X50292Y41656
X50470Y25146
X44772Y34054
X36017Y29870
X50292Y5588
X37795Y37983
X60452Y48006
X38354Y33274
X44780Y37541
X48438Y1445
X4788Y45520
X6088Y44220
X6088Y45520
X7388Y44220
X7388Y45520
X8688Y44220
X8688Y45520
X9655Y11720
X10955Y11720
X9655Y10420
X10955Y10420
X9655Y9120
X10955Y9120
X9655Y7820
M30