G04 EAGLE Gerber RS-274X export*
G75*
%MOMM*%
%FSLAX34Y34*%
%LPD*%
%INSilkscreen Bottom*%
%IPPOS*%
%AMOC8*
5,1,8,0,0,1.08239X$1,22.5*%
G01*
%ADD10C,0.050800*%
%ADD11C,0.152400*%
%ADD12C,0.101600*%
%ADD13C,0.076200*%


D10*
X120396Y391782D02*
X125984Y391782D01*
X125984Y390230D02*
X125984Y393334D01*
X121638Y398272D02*
X121568Y398270D01*
X121499Y398264D01*
X121430Y398254D01*
X121362Y398241D01*
X121294Y398223D01*
X121228Y398202D01*
X121163Y398177D01*
X121099Y398149D01*
X121037Y398117D01*
X120977Y398082D01*
X120919Y398043D01*
X120864Y398001D01*
X120810Y397956D01*
X120760Y397908D01*
X120712Y397858D01*
X120667Y397804D01*
X120625Y397749D01*
X120586Y397691D01*
X120551Y397631D01*
X120519Y397569D01*
X120491Y397505D01*
X120466Y397440D01*
X120445Y397374D01*
X120427Y397306D01*
X120414Y397238D01*
X120404Y397169D01*
X120398Y397100D01*
X120396Y397030D01*
X120398Y396931D01*
X120403Y396833D01*
X120413Y396735D01*
X120426Y396637D01*
X120442Y396540D01*
X120462Y396443D01*
X120486Y396348D01*
X120514Y396253D01*
X120545Y396159D01*
X120579Y396067D01*
X120617Y395976D01*
X120658Y395886D01*
X120703Y395798D01*
X120751Y395712D01*
X120802Y395628D01*
X120856Y395546D01*
X120914Y395465D01*
X120974Y395387D01*
X121037Y395312D01*
X121103Y395238D01*
X121172Y395168D01*
X124742Y395323D02*
X124812Y395325D01*
X124881Y395331D01*
X124950Y395341D01*
X125018Y395354D01*
X125086Y395372D01*
X125152Y395393D01*
X125217Y395418D01*
X125281Y395446D01*
X125343Y395478D01*
X125403Y395513D01*
X125461Y395552D01*
X125516Y395594D01*
X125570Y395639D01*
X125620Y395687D01*
X125668Y395737D01*
X125713Y395791D01*
X125755Y395846D01*
X125794Y395904D01*
X125829Y395964D01*
X125861Y396026D01*
X125889Y396090D01*
X125914Y396155D01*
X125935Y396221D01*
X125953Y396289D01*
X125966Y396357D01*
X125976Y396426D01*
X125982Y396495D01*
X125984Y396565D01*
X125982Y396659D01*
X125976Y396752D01*
X125967Y396845D01*
X125954Y396938D01*
X125937Y397030D01*
X125917Y397121D01*
X125892Y397212D01*
X125865Y397301D01*
X125833Y397389D01*
X125798Y397476D01*
X125760Y397562D01*
X125718Y397645D01*
X125673Y397727D01*
X125625Y397808D01*
X125573Y397886D01*
X125518Y397962D01*
X123656Y395944D02*
X123692Y395885D01*
X123732Y395829D01*
X123775Y395775D01*
X123820Y395723D01*
X123869Y395674D01*
X123920Y395628D01*
X123973Y395585D01*
X124029Y395544D01*
X124087Y395507D01*
X124147Y395472D01*
X124208Y395442D01*
X124271Y395414D01*
X124336Y395390D01*
X124402Y395370D01*
X124469Y395353D01*
X124536Y395340D01*
X124604Y395331D01*
X124673Y395325D01*
X124742Y395323D01*
X122724Y397651D02*
X122688Y397710D01*
X122648Y397766D01*
X122605Y397820D01*
X122560Y397872D01*
X122511Y397921D01*
X122460Y397967D01*
X122407Y398010D01*
X122351Y398051D01*
X122293Y398088D01*
X122233Y398123D01*
X122172Y398153D01*
X122109Y398181D01*
X122044Y398205D01*
X121978Y398225D01*
X121911Y398242D01*
X121844Y398255D01*
X121776Y398264D01*
X121707Y398270D01*
X121638Y398272D01*
X122724Y397651D02*
X123656Y395944D01*
D11*
X104648Y30649D02*
X101036Y19812D01*
X97423Y30649D01*
X91483Y32456D02*
X86968Y36068D01*
X86968Y19812D01*
X91483Y19812D02*
X82452Y19812D01*
X542996Y315214D02*
X546608Y326051D01*
X539383Y326051D02*
X542996Y315214D01*
X533443Y318826D02*
X529831Y331470D01*
X533443Y318826D02*
X524412Y318826D01*
X527121Y322439D02*
X527121Y315214D01*
X60840Y518800D02*
X840Y518800D01*
X60840Y518800D02*
X60840Y436300D01*
X840Y436300D01*
X840Y518800D01*
D12*
X26724Y479129D02*
X29970Y479129D01*
X26724Y479130D02*
X26611Y479128D01*
X26498Y479122D01*
X26385Y479112D01*
X26272Y479098D01*
X26160Y479081D01*
X26049Y479059D01*
X25939Y479034D01*
X25829Y479004D01*
X25721Y478971D01*
X25614Y478934D01*
X25508Y478894D01*
X25404Y478849D01*
X25301Y478801D01*
X25200Y478750D01*
X25101Y478695D01*
X25004Y478637D01*
X24909Y478575D01*
X24816Y478510D01*
X24726Y478442D01*
X24638Y478371D01*
X24552Y478296D01*
X24469Y478219D01*
X24389Y478139D01*
X24312Y478056D01*
X24237Y477970D01*
X24166Y477882D01*
X24098Y477792D01*
X24033Y477699D01*
X23971Y477604D01*
X23913Y477507D01*
X23858Y477408D01*
X23807Y477307D01*
X23759Y477204D01*
X23714Y477100D01*
X23674Y476994D01*
X23637Y476887D01*
X23604Y476779D01*
X23574Y476669D01*
X23549Y476559D01*
X23527Y476448D01*
X23510Y476336D01*
X23496Y476223D01*
X23486Y476110D01*
X23480Y475997D01*
X23478Y475884D01*
X23480Y475771D01*
X23486Y475658D01*
X23496Y475545D01*
X23510Y475432D01*
X23527Y475320D01*
X23549Y475209D01*
X23574Y475099D01*
X23604Y474989D01*
X23637Y474881D01*
X23674Y474774D01*
X23714Y474668D01*
X23759Y474564D01*
X23807Y474461D01*
X23858Y474360D01*
X23913Y474261D01*
X23971Y474164D01*
X24033Y474069D01*
X24098Y473976D01*
X24166Y473886D01*
X24237Y473798D01*
X24312Y473712D01*
X24389Y473629D01*
X24469Y473549D01*
X24552Y473472D01*
X24638Y473397D01*
X24726Y473326D01*
X24816Y473258D01*
X24909Y473193D01*
X25004Y473131D01*
X25101Y473073D01*
X25200Y473018D01*
X25301Y472967D01*
X25404Y472919D01*
X25508Y472874D01*
X25614Y472834D01*
X25721Y472797D01*
X25829Y472764D01*
X25939Y472734D01*
X26049Y472709D01*
X26160Y472687D01*
X26272Y472670D01*
X26385Y472656D01*
X26498Y472646D01*
X26611Y472640D01*
X26724Y472638D01*
X29970Y472638D01*
X29970Y484322D01*
X26724Y484322D01*
X26623Y484320D01*
X26523Y484314D01*
X26423Y484304D01*
X26323Y484291D01*
X26224Y484273D01*
X26125Y484252D01*
X26028Y484227D01*
X25931Y484198D01*
X25836Y484165D01*
X25742Y484129D01*
X25650Y484089D01*
X25559Y484046D01*
X25470Y483999D01*
X25383Y483949D01*
X25297Y483895D01*
X25214Y483838D01*
X25134Y483778D01*
X25055Y483715D01*
X24979Y483648D01*
X24906Y483579D01*
X24836Y483507D01*
X24768Y483433D01*
X24703Y483356D01*
X24642Y483276D01*
X24583Y483194D01*
X24528Y483110D01*
X24476Y483024D01*
X24427Y482936D01*
X24382Y482846D01*
X24340Y482754D01*
X24302Y482661D01*
X24268Y482566D01*
X24237Y482471D01*
X24210Y482374D01*
X24187Y482276D01*
X24167Y482177D01*
X24152Y482077D01*
X24140Y481977D01*
X24132Y481877D01*
X24128Y481776D01*
X24128Y481676D01*
X24132Y481575D01*
X24140Y481475D01*
X24152Y481375D01*
X24167Y481275D01*
X24187Y481176D01*
X24210Y481078D01*
X24237Y480981D01*
X24268Y480886D01*
X24302Y480791D01*
X24340Y480698D01*
X24382Y480606D01*
X24427Y480516D01*
X24476Y480428D01*
X24528Y480342D01*
X24583Y480258D01*
X24642Y480176D01*
X24703Y480096D01*
X24768Y480019D01*
X24836Y479945D01*
X24906Y479873D01*
X24979Y479804D01*
X25055Y479737D01*
X25134Y479674D01*
X25214Y479614D01*
X25297Y479557D01*
X25383Y479503D01*
X25470Y479453D01*
X25559Y479406D01*
X25650Y479363D01*
X25742Y479323D01*
X25836Y479287D01*
X25931Y479254D01*
X26028Y479225D01*
X26125Y479200D01*
X26224Y479179D01*
X26323Y479161D01*
X26423Y479148D01*
X26523Y479138D01*
X26623Y479132D01*
X26724Y479130D01*
X18977Y477182D02*
X11188Y477182D01*
X15083Y481076D02*
X15083Y473287D01*
X26724Y420709D02*
X29970Y420709D01*
X26724Y420710D02*
X26611Y420708D01*
X26498Y420702D01*
X26385Y420692D01*
X26272Y420678D01*
X26160Y420661D01*
X26049Y420639D01*
X25939Y420614D01*
X25829Y420584D01*
X25721Y420551D01*
X25614Y420514D01*
X25508Y420474D01*
X25404Y420429D01*
X25301Y420381D01*
X25200Y420330D01*
X25101Y420275D01*
X25004Y420217D01*
X24909Y420155D01*
X24816Y420090D01*
X24726Y420022D01*
X24638Y419951D01*
X24552Y419876D01*
X24469Y419799D01*
X24389Y419719D01*
X24312Y419636D01*
X24237Y419550D01*
X24166Y419462D01*
X24098Y419372D01*
X24033Y419279D01*
X23971Y419184D01*
X23913Y419087D01*
X23858Y418988D01*
X23807Y418887D01*
X23759Y418784D01*
X23714Y418680D01*
X23674Y418574D01*
X23637Y418467D01*
X23604Y418359D01*
X23574Y418249D01*
X23549Y418139D01*
X23527Y418028D01*
X23510Y417916D01*
X23496Y417803D01*
X23486Y417690D01*
X23480Y417577D01*
X23478Y417464D01*
X23480Y417351D01*
X23486Y417238D01*
X23496Y417125D01*
X23510Y417012D01*
X23527Y416900D01*
X23549Y416789D01*
X23574Y416679D01*
X23604Y416569D01*
X23637Y416461D01*
X23674Y416354D01*
X23714Y416248D01*
X23759Y416144D01*
X23807Y416041D01*
X23858Y415940D01*
X23913Y415841D01*
X23971Y415744D01*
X24033Y415649D01*
X24098Y415556D01*
X24166Y415466D01*
X24237Y415378D01*
X24312Y415292D01*
X24389Y415209D01*
X24469Y415129D01*
X24552Y415052D01*
X24638Y414977D01*
X24726Y414906D01*
X24816Y414838D01*
X24909Y414773D01*
X25004Y414711D01*
X25101Y414653D01*
X25200Y414598D01*
X25301Y414547D01*
X25404Y414499D01*
X25508Y414454D01*
X25614Y414414D01*
X25721Y414377D01*
X25829Y414344D01*
X25939Y414314D01*
X26049Y414289D01*
X26160Y414267D01*
X26272Y414250D01*
X26385Y414236D01*
X26498Y414226D01*
X26611Y414220D01*
X26724Y414218D01*
X29970Y414218D01*
X29970Y425902D01*
X26724Y425902D01*
X26623Y425900D01*
X26523Y425894D01*
X26423Y425884D01*
X26323Y425871D01*
X26224Y425853D01*
X26125Y425832D01*
X26028Y425807D01*
X25931Y425778D01*
X25836Y425745D01*
X25742Y425709D01*
X25650Y425669D01*
X25559Y425626D01*
X25470Y425579D01*
X25383Y425529D01*
X25297Y425475D01*
X25214Y425418D01*
X25134Y425358D01*
X25055Y425295D01*
X24979Y425228D01*
X24906Y425159D01*
X24836Y425087D01*
X24768Y425013D01*
X24703Y424936D01*
X24642Y424856D01*
X24583Y424774D01*
X24528Y424690D01*
X24476Y424604D01*
X24427Y424516D01*
X24382Y424426D01*
X24340Y424334D01*
X24302Y424241D01*
X24268Y424146D01*
X24237Y424051D01*
X24210Y423954D01*
X24187Y423856D01*
X24167Y423757D01*
X24152Y423657D01*
X24140Y423557D01*
X24132Y423457D01*
X24128Y423356D01*
X24128Y423256D01*
X24132Y423155D01*
X24140Y423055D01*
X24152Y422955D01*
X24167Y422855D01*
X24187Y422756D01*
X24210Y422658D01*
X24237Y422561D01*
X24268Y422466D01*
X24302Y422371D01*
X24340Y422278D01*
X24382Y422186D01*
X24427Y422096D01*
X24476Y422008D01*
X24528Y421922D01*
X24583Y421838D01*
X24642Y421756D01*
X24703Y421676D01*
X24768Y421599D01*
X24836Y421525D01*
X24906Y421453D01*
X24979Y421384D01*
X25055Y421317D01*
X25134Y421254D01*
X25214Y421194D01*
X25297Y421137D01*
X25383Y421083D01*
X25470Y421033D01*
X25559Y420986D01*
X25650Y420943D01*
X25742Y420903D01*
X25836Y420867D01*
X25931Y420834D01*
X26028Y420805D01*
X26125Y420780D01*
X26224Y420759D01*
X26323Y420741D01*
X26423Y420728D01*
X26523Y420718D01*
X26623Y420712D01*
X26724Y420710D01*
X18977Y418762D02*
X11188Y418762D01*
X15083Y422656D02*
X15083Y414867D01*
X52124Y479129D02*
X55370Y479129D01*
X52124Y479130D02*
X52011Y479128D01*
X51898Y479122D01*
X51785Y479112D01*
X51672Y479098D01*
X51560Y479081D01*
X51449Y479059D01*
X51339Y479034D01*
X51229Y479004D01*
X51121Y478971D01*
X51014Y478934D01*
X50908Y478894D01*
X50804Y478849D01*
X50701Y478801D01*
X50600Y478750D01*
X50501Y478695D01*
X50404Y478637D01*
X50309Y478575D01*
X50216Y478510D01*
X50126Y478442D01*
X50038Y478371D01*
X49952Y478296D01*
X49869Y478219D01*
X49789Y478139D01*
X49712Y478056D01*
X49637Y477970D01*
X49566Y477882D01*
X49498Y477792D01*
X49433Y477699D01*
X49371Y477604D01*
X49313Y477507D01*
X49258Y477408D01*
X49207Y477307D01*
X49159Y477204D01*
X49114Y477100D01*
X49074Y476994D01*
X49037Y476887D01*
X49004Y476779D01*
X48974Y476669D01*
X48949Y476559D01*
X48927Y476448D01*
X48910Y476336D01*
X48896Y476223D01*
X48886Y476110D01*
X48880Y475997D01*
X48878Y475884D01*
X48880Y475771D01*
X48886Y475658D01*
X48896Y475545D01*
X48910Y475432D01*
X48927Y475320D01*
X48949Y475209D01*
X48974Y475099D01*
X49004Y474989D01*
X49037Y474881D01*
X49074Y474774D01*
X49114Y474668D01*
X49159Y474564D01*
X49207Y474461D01*
X49258Y474360D01*
X49313Y474261D01*
X49371Y474164D01*
X49433Y474069D01*
X49498Y473976D01*
X49566Y473886D01*
X49637Y473798D01*
X49712Y473712D01*
X49789Y473629D01*
X49869Y473549D01*
X49952Y473472D01*
X50038Y473397D01*
X50126Y473326D01*
X50216Y473258D01*
X50309Y473193D01*
X50404Y473131D01*
X50501Y473073D01*
X50600Y473018D01*
X50701Y472967D01*
X50804Y472919D01*
X50908Y472874D01*
X51014Y472834D01*
X51121Y472797D01*
X51229Y472764D01*
X51339Y472734D01*
X51449Y472709D01*
X51560Y472687D01*
X51672Y472670D01*
X51785Y472656D01*
X51898Y472646D01*
X52011Y472640D01*
X52124Y472638D01*
X55370Y472638D01*
X55370Y484322D01*
X52124Y484322D01*
X52023Y484320D01*
X51923Y484314D01*
X51823Y484304D01*
X51723Y484291D01*
X51624Y484273D01*
X51525Y484252D01*
X51428Y484227D01*
X51331Y484198D01*
X51236Y484165D01*
X51142Y484129D01*
X51050Y484089D01*
X50959Y484046D01*
X50870Y483999D01*
X50783Y483949D01*
X50697Y483895D01*
X50614Y483838D01*
X50534Y483778D01*
X50455Y483715D01*
X50379Y483648D01*
X50306Y483579D01*
X50236Y483507D01*
X50168Y483433D01*
X50103Y483356D01*
X50042Y483276D01*
X49983Y483194D01*
X49928Y483110D01*
X49876Y483024D01*
X49827Y482936D01*
X49782Y482846D01*
X49740Y482754D01*
X49702Y482661D01*
X49668Y482566D01*
X49637Y482471D01*
X49610Y482374D01*
X49587Y482276D01*
X49567Y482177D01*
X49552Y482077D01*
X49540Y481977D01*
X49532Y481877D01*
X49528Y481776D01*
X49528Y481676D01*
X49532Y481575D01*
X49540Y481475D01*
X49552Y481375D01*
X49567Y481275D01*
X49587Y481176D01*
X49610Y481078D01*
X49637Y480981D01*
X49668Y480886D01*
X49702Y480791D01*
X49740Y480698D01*
X49782Y480606D01*
X49827Y480516D01*
X49876Y480428D01*
X49928Y480342D01*
X49983Y480258D01*
X50042Y480176D01*
X50103Y480096D01*
X50168Y480019D01*
X50236Y479945D01*
X50306Y479873D01*
X50379Y479804D01*
X50455Y479737D01*
X50534Y479674D01*
X50614Y479614D01*
X50697Y479557D01*
X50783Y479503D01*
X50870Y479453D01*
X50959Y479406D01*
X51050Y479363D01*
X51142Y479323D01*
X51236Y479287D01*
X51331Y479254D01*
X51428Y479225D01*
X51525Y479200D01*
X51624Y479179D01*
X51723Y479161D01*
X51823Y479148D01*
X51923Y479138D01*
X52023Y479132D01*
X52124Y479130D01*
X44377Y477182D02*
X36588Y477182D01*
X52124Y420709D02*
X55370Y420709D01*
X52124Y420710D02*
X52011Y420708D01*
X51898Y420702D01*
X51785Y420692D01*
X51672Y420678D01*
X51560Y420661D01*
X51449Y420639D01*
X51339Y420614D01*
X51229Y420584D01*
X51121Y420551D01*
X51014Y420514D01*
X50908Y420474D01*
X50804Y420429D01*
X50701Y420381D01*
X50600Y420330D01*
X50501Y420275D01*
X50404Y420217D01*
X50309Y420155D01*
X50216Y420090D01*
X50126Y420022D01*
X50038Y419951D01*
X49952Y419876D01*
X49869Y419799D01*
X49789Y419719D01*
X49712Y419636D01*
X49637Y419550D01*
X49566Y419462D01*
X49498Y419372D01*
X49433Y419279D01*
X49371Y419184D01*
X49313Y419087D01*
X49258Y418988D01*
X49207Y418887D01*
X49159Y418784D01*
X49114Y418680D01*
X49074Y418574D01*
X49037Y418467D01*
X49004Y418359D01*
X48974Y418249D01*
X48949Y418139D01*
X48927Y418028D01*
X48910Y417916D01*
X48896Y417803D01*
X48886Y417690D01*
X48880Y417577D01*
X48878Y417464D01*
X48880Y417351D01*
X48886Y417238D01*
X48896Y417125D01*
X48910Y417012D01*
X48927Y416900D01*
X48949Y416789D01*
X48974Y416679D01*
X49004Y416569D01*
X49037Y416461D01*
X49074Y416354D01*
X49114Y416248D01*
X49159Y416144D01*
X49207Y416041D01*
X49258Y415940D01*
X49313Y415841D01*
X49371Y415744D01*
X49433Y415649D01*
X49498Y415556D01*
X49566Y415466D01*
X49637Y415378D01*
X49712Y415292D01*
X49789Y415209D01*
X49869Y415129D01*
X49952Y415052D01*
X50038Y414977D01*
X50126Y414906D01*
X50216Y414838D01*
X50309Y414773D01*
X50404Y414711D01*
X50501Y414653D01*
X50600Y414598D01*
X50701Y414547D01*
X50804Y414499D01*
X50908Y414454D01*
X51014Y414414D01*
X51121Y414377D01*
X51229Y414344D01*
X51339Y414314D01*
X51449Y414289D01*
X51560Y414267D01*
X51672Y414250D01*
X51785Y414236D01*
X51898Y414226D01*
X52011Y414220D01*
X52124Y414218D01*
X55370Y414218D01*
X55370Y425902D01*
X52124Y425902D01*
X52023Y425900D01*
X51923Y425894D01*
X51823Y425884D01*
X51723Y425871D01*
X51624Y425853D01*
X51525Y425832D01*
X51428Y425807D01*
X51331Y425778D01*
X51236Y425745D01*
X51142Y425709D01*
X51050Y425669D01*
X50959Y425626D01*
X50870Y425579D01*
X50783Y425529D01*
X50697Y425475D01*
X50614Y425418D01*
X50534Y425358D01*
X50455Y425295D01*
X50379Y425228D01*
X50306Y425159D01*
X50236Y425087D01*
X50168Y425013D01*
X50103Y424936D01*
X50042Y424856D01*
X49983Y424774D01*
X49928Y424690D01*
X49876Y424604D01*
X49827Y424516D01*
X49782Y424426D01*
X49740Y424334D01*
X49702Y424241D01*
X49668Y424146D01*
X49637Y424051D01*
X49610Y423954D01*
X49587Y423856D01*
X49567Y423757D01*
X49552Y423657D01*
X49540Y423557D01*
X49532Y423457D01*
X49528Y423356D01*
X49528Y423256D01*
X49532Y423155D01*
X49540Y423055D01*
X49552Y422955D01*
X49567Y422855D01*
X49587Y422756D01*
X49610Y422658D01*
X49637Y422561D01*
X49668Y422466D01*
X49702Y422371D01*
X49740Y422278D01*
X49782Y422186D01*
X49827Y422096D01*
X49876Y422008D01*
X49928Y421922D01*
X49983Y421838D01*
X50042Y421756D01*
X50103Y421676D01*
X50168Y421599D01*
X50236Y421525D01*
X50306Y421453D01*
X50379Y421384D01*
X50455Y421317D01*
X50534Y421254D01*
X50614Y421194D01*
X50697Y421137D01*
X50783Y421083D01*
X50870Y421033D01*
X50959Y420986D01*
X51050Y420943D01*
X51142Y420903D01*
X51236Y420867D01*
X51331Y420834D01*
X51428Y420805D01*
X51525Y420780D01*
X51624Y420759D01*
X51723Y420741D01*
X51823Y420728D01*
X51923Y420718D01*
X52023Y420712D01*
X52124Y420710D01*
X44377Y418762D02*
X36588Y418762D01*
D13*
X63613Y525173D02*
X65659Y525173D01*
X63613Y525173D02*
X63524Y525171D01*
X63435Y525165D01*
X63346Y525155D01*
X63258Y525142D01*
X63170Y525125D01*
X63083Y525103D01*
X62998Y525078D01*
X62913Y525050D01*
X62830Y525017D01*
X62748Y524981D01*
X62668Y524942D01*
X62590Y524899D01*
X62514Y524853D01*
X62439Y524803D01*
X62367Y524750D01*
X62298Y524694D01*
X62231Y524635D01*
X62166Y524574D01*
X62105Y524509D01*
X62046Y524442D01*
X61990Y524373D01*
X61937Y524301D01*
X61887Y524226D01*
X61841Y524150D01*
X61798Y524072D01*
X61759Y523992D01*
X61723Y523910D01*
X61690Y523827D01*
X61662Y523742D01*
X61637Y523657D01*
X61615Y523570D01*
X61598Y523482D01*
X61585Y523394D01*
X61575Y523305D01*
X61569Y523216D01*
X61567Y523127D01*
X61569Y523038D01*
X61575Y522949D01*
X61585Y522860D01*
X61598Y522772D01*
X61615Y522684D01*
X61637Y522597D01*
X61662Y522512D01*
X61690Y522427D01*
X61723Y522344D01*
X61759Y522262D01*
X61798Y522182D01*
X61841Y522104D01*
X61887Y522028D01*
X61937Y521953D01*
X61990Y521881D01*
X62046Y521812D01*
X62105Y521745D01*
X62166Y521680D01*
X62231Y521619D01*
X62298Y521560D01*
X62367Y521504D01*
X62439Y521451D01*
X62514Y521401D01*
X62590Y521355D01*
X62668Y521312D01*
X62748Y521273D01*
X62830Y521237D01*
X62913Y521204D01*
X62998Y521176D01*
X63083Y521151D01*
X63170Y521129D01*
X63258Y521112D01*
X63346Y521099D01*
X63435Y521089D01*
X63524Y521083D01*
X63613Y521081D01*
X65659Y521081D01*
X65659Y528447D01*
X63613Y528447D01*
X63534Y528445D01*
X63455Y528439D01*
X63376Y528430D01*
X63298Y528417D01*
X63221Y528399D01*
X63145Y528379D01*
X63070Y528354D01*
X62996Y528326D01*
X62923Y528295D01*
X62852Y528259D01*
X62783Y528221D01*
X62716Y528179D01*
X62651Y528134D01*
X62588Y528086D01*
X62527Y528035D01*
X62470Y527981D01*
X62414Y527925D01*
X62362Y527866D01*
X62312Y527804D01*
X62266Y527740D01*
X62222Y527674D01*
X62182Y527606D01*
X62146Y527536D01*
X62112Y527464D01*
X62082Y527390D01*
X62056Y527316D01*
X62033Y527240D01*
X62015Y527163D01*
X61999Y527086D01*
X61988Y527007D01*
X61980Y526929D01*
X61976Y526850D01*
X61976Y526770D01*
X61980Y526691D01*
X61988Y526613D01*
X61999Y526534D01*
X62015Y526457D01*
X62033Y526380D01*
X62056Y526304D01*
X62082Y526230D01*
X62112Y526156D01*
X62146Y526084D01*
X62182Y526014D01*
X62222Y525946D01*
X62266Y525880D01*
X62312Y525816D01*
X62362Y525754D01*
X62414Y525695D01*
X62470Y525639D01*
X62527Y525585D01*
X62588Y525534D01*
X62651Y525486D01*
X62716Y525441D01*
X62783Y525399D01*
X62852Y525361D01*
X62923Y525325D01*
X62996Y525294D01*
X63070Y525266D01*
X63145Y525241D01*
X63221Y525221D01*
X63298Y525203D01*
X63376Y525190D01*
X63455Y525181D01*
X63534Y525175D01*
X63613Y525173D01*
X59115Y521081D02*
X56659Y528447D01*
X54204Y521081D01*
X54818Y522923D02*
X58501Y522923D01*
X49832Y521081D02*
X49832Y528447D01*
X51878Y528447D02*
X47786Y528447D01*
X43492Y528447D02*
X43492Y521081D01*
X45538Y528447D02*
X41446Y528447D01*
X39033Y520263D02*
X35759Y520263D01*
X32497Y521081D02*
X32497Y528447D01*
X30451Y528447D01*
X30362Y528445D01*
X30273Y528439D01*
X30184Y528429D01*
X30096Y528416D01*
X30008Y528399D01*
X29921Y528377D01*
X29836Y528352D01*
X29751Y528324D01*
X29668Y528291D01*
X29586Y528255D01*
X29506Y528216D01*
X29428Y528173D01*
X29352Y528127D01*
X29277Y528077D01*
X29205Y528024D01*
X29136Y527968D01*
X29069Y527909D01*
X29004Y527848D01*
X28943Y527783D01*
X28884Y527716D01*
X28828Y527647D01*
X28775Y527575D01*
X28725Y527500D01*
X28679Y527424D01*
X28636Y527346D01*
X28597Y527266D01*
X28561Y527184D01*
X28528Y527101D01*
X28500Y527016D01*
X28475Y526931D01*
X28453Y526844D01*
X28436Y526756D01*
X28423Y526668D01*
X28413Y526579D01*
X28407Y526490D01*
X28405Y526401D01*
X28407Y526312D01*
X28413Y526223D01*
X28423Y526134D01*
X28436Y526046D01*
X28453Y525958D01*
X28475Y525871D01*
X28500Y525786D01*
X28528Y525701D01*
X28561Y525618D01*
X28597Y525536D01*
X28636Y525456D01*
X28679Y525378D01*
X28725Y525302D01*
X28775Y525227D01*
X28828Y525155D01*
X28884Y525086D01*
X28943Y525019D01*
X29004Y524954D01*
X29069Y524893D01*
X29136Y524834D01*
X29205Y524778D01*
X29277Y524725D01*
X29352Y524675D01*
X29428Y524629D01*
X29506Y524586D01*
X29586Y524547D01*
X29668Y524511D01*
X29751Y524478D01*
X29836Y524450D01*
X29921Y524425D01*
X30008Y524403D01*
X30096Y524386D01*
X30184Y524373D01*
X30273Y524363D01*
X30362Y524357D01*
X30451Y524355D01*
X32497Y524355D01*
X25543Y523127D02*
X25543Y526401D01*
X25541Y526490D01*
X25535Y526579D01*
X25525Y526668D01*
X25512Y526756D01*
X25495Y526844D01*
X25473Y526931D01*
X25448Y527016D01*
X25420Y527101D01*
X25387Y527184D01*
X25351Y527266D01*
X25312Y527346D01*
X25269Y527424D01*
X25223Y527500D01*
X25173Y527575D01*
X25120Y527647D01*
X25064Y527716D01*
X25005Y527783D01*
X24944Y527848D01*
X24879Y527909D01*
X24812Y527968D01*
X24743Y528024D01*
X24671Y528077D01*
X24596Y528127D01*
X24520Y528173D01*
X24442Y528216D01*
X24362Y528255D01*
X24280Y528291D01*
X24197Y528324D01*
X24112Y528352D01*
X24027Y528377D01*
X23940Y528399D01*
X23852Y528416D01*
X23764Y528429D01*
X23675Y528439D01*
X23586Y528445D01*
X23497Y528447D01*
X23408Y528445D01*
X23319Y528439D01*
X23230Y528429D01*
X23142Y528416D01*
X23054Y528399D01*
X22967Y528377D01*
X22882Y528352D01*
X22797Y528324D01*
X22714Y528291D01*
X22632Y528255D01*
X22552Y528216D01*
X22474Y528173D01*
X22398Y528127D01*
X22323Y528077D01*
X22251Y528024D01*
X22182Y527968D01*
X22115Y527909D01*
X22050Y527848D01*
X21989Y527783D01*
X21930Y527716D01*
X21874Y527647D01*
X21821Y527575D01*
X21771Y527500D01*
X21725Y527424D01*
X21682Y527346D01*
X21643Y527266D01*
X21607Y527184D01*
X21574Y527101D01*
X21546Y527016D01*
X21521Y526931D01*
X21499Y526844D01*
X21482Y526756D01*
X21469Y526668D01*
X21459Y526579D01*
X21453Y526490D01*
X21451Y526401D01*
X21451Y523127D01*
X21453Y523038D01*
X21459Y522949D01*
X21469Y522860D01*
X21482Y522772D01*
X21499Y522684D01*
X21521Y522597D01*
X21546Y522512D01*
X21574Y522427D01*
X21607Y522344D01*
X21643Y522262D01*
X21682Y522182D01*
X21725Y522104D01*
X21771Y522028D01*
X21821Y521953D01*
X21874Y521881D01*
X21930Y521812D01*
X21989Y521745D01*
X22050Y521680D01*
X22115Y521619D01*
X22182Y521560D01*
X22251Y521504D01*
X22323Y521451D01*
X22398Y521401D01*
X22474Y521355D01*
X22552Y521312D01*
X22632Y521273D01*
X22714Y521237D01*
X22797Y521204D01*
X22882Y521176D01*
X22967Y521151D01*
X23054Y521129D01*
X23142Y521112D01*
X23230Y521099D01*
X23319Y521089D01*
X23408Y521083D01*
X23497Y521081D01*
X23586Y521083D01*
X23675Y521089D01*
X23764Y521099D01*
X23852Y521112D01*
X23940Y521129D01*
X24027Y521151D01*
X24112Y521176D01*
X24197Y521204D01*
X24280Y521237D01*
X24362Y521273D01*
X24442Y521312D01*
X24520Y521355D01*
X24596Y521401D01*
X24671Y521451D01*
X24743Y521504D01*
X24812Y521560D01*
X24879Y521619D01*
X24944Y521680D01*
X25005Y521745D01*
X25064Y521812D01*
X25120Y521881D01*
X25173Y521953D01*
X25223Y522028D01*
X25269Y522104D01*
X25312Y522182D01*
X25351Y522262D01*
X25387Y522344D01*
X25420Y522427D01*
X25448Y522512D01*
X25473Y522597D01*
X25495Y522684D01*
X25512Y522772D01*
X25525Y522860D01*
X25535Y522949D01*
X25541Y523038D01*
X25543Y523127D01*
X17933Y521081D02*
X17933Y528447D01*
X15887Y528447D01*
X15798Y528445D01*
X15709Y528439D01*
X15620Y528429D01*
X15532Y528416D01*
X15444Y528399D01*
X15357Y528377D01*
X15272Y528352D01*
X15187Y528324D01*
X15104Y528291D01*
X15022Y528255D01*
X14942Y528216D01*
X14864Y528173D01*
X14788Y528127D01*
X14713Y528077D01*
X14641Y528024D01*
X14572Y527968D01*
X14505Y527909D01*
X14440Y527848D01*
X14379Y527783D01*
X14320Y527716D01*
X14264Y527647D01*
X14211Y527575D01*
X14161Y527500D01*
X14115Y527424D01*
X14072Y527346D01*
X14033Y527266D01*
X13997Y527184D01*
X13964Y527101D01*
X13936Y527016D01*
X13911Y526931D01*
X13889Y526844D01*
X13872Y526756D01*
X13859Y526668D01*
X13849Y526579D01*
X13843Y526490D01*
X13841Y526401D01*
X13843Y526312D01*
X13849Y526223D01*
X13859Y526134D01*
X13872Y526046D01*
X13889Y525958D01*
X13911Y525871D01*
X13936Y525786D01*
X13964Y525701D01*
X13997Y525618D01*
X14033Y525536D01*
X14072Y525456D01*
X14115Y525378D01*
X14161Y525302D01*
X14211Y525227D01*
X14264Y525155D01*
X14320Y525086D01*
X14379Y525019D01*
X14440Y524954D01*
X14505Y524893D01*
X14572Y524834D01*
X14641Y524778D01*
X14713Y524725D01*
X14788Y524675D01*
X14864Y524629D01*
X14942Y524586D01*
X15022Y524547D01*
X15104Y524511D01*
X15187Y524478D01*
X15272Y524450D01*
X15357Y524425D01*
X15444Y524403D01*
X15532Y524386D01*
X15620Y524373D01*
X15709Y524363D01*
X15798Y524357D01*
X15887Y524355D01*
X17933Y524355D01*
X15478Y524355D02*
X13841Y521081D01*
X9111Y521081D02*
X9111Y528447D01*
X11157Y528447D02*
X7064Y528447D01*
D10*
X54923Y511888D02*
X54925Y511818D01*
X54931Y511749D01*
X54941Y511680D01*
X54954Y511612D01*
X54972Y511544D01*
X54993Y511478D01*
X55018Y511413D01*
X55046Y511349D01*
X55078Y511287D01*
X55113Y511227D01*
X55152Y511169D01*
X55194Y511114D01*
X55239Y511060D01*
X55287Y511010D01*
X55337Y510962D01*
X55391Y510917D01*
X55446Y510875D01*
X55504Y510836D01*
X55564Y510801D01*
X55626Y510769D01*
X55690Y510741D01*
X55755Y510716D01*
X55821Y510695D01*
X55889Y510677D01*
X55957Y510664D01*
X56026Y510654D01*
X56095Y510648D01*
X56165Y510646D01*
X56264Y510648D01*
X56362Y510653D01*
X56460Y510663D01*
X56558Y510676D01*
X56655Y510692D01*
X56752Y510712D01*
X56847Y510736D01*
X56942Y510764D01*
X57036Y510795D01*
X57128Y510829D01*
X57219Y510867D01*
X57309Y510908D01*
X57397Y510953D01*
X57483Y511001D01*
X57567Y511052D01*
X57649Y511106D01*
X57730Y511164D01*
X57808Y511224D01*
X57883Y511287D01*
X57957Y511353D01*
X58027Y511422D01*
X57873Y514992D02*
X57871Y515062D01*
X57865Y515131D01*
X57855Y515200D01*
X57842Y515268D01*
X57824Y515336D01*
X57803Y515402D01*
X57778Y515467D01*
X57750Y515531D01*
X57718Y515593D01*
X57683Y515653D01*
X57644Y515711D01*
X57602Y515766D01*
X57557Y515820D01*
X57509Y515870D01*
X57459Y515918D01*
X57405Y515963D01*
X57350Y516005D01*
X57292Y516044D01*
X57232Y516079D01*
X57170Y516111D01*
X57106Y516139D01*
X57041Y516164D01*
X56975Y516185D01*
X56907Y516203D01*
X56839Y516216D01*
X56770Y516226D01*
X56701Y516232D01*
X56631Y516234D01*
X56537Y516232D01*
X56444Y516226D01*
X56351Y516217D01*
X56258Y516204D01*
X56166Y516187D01*
X56075Y516167D01*
X55984Y516142D01*
X55895Y516115D01*
X55807Y516083D01*
X55720Y516048D01*
X55634Y516010D01*
X55551Y515968D01*
X55468Y515923D01*
X55388Y515875D01*
X55310Y515823D01*
X55234Y515768D01*
X57252Y513906D02*
X57311Y513942D01*
X57367Y513982D01*
X57421Y514025D01*
X57473Y514070D01*
X57522Y514119D01*
X57568Y514170D01*
X57611Y514223D01*
X57652Y514279D01*
X57689Y514337D01*
X57724Y514397D01*
X57754Y514458D01*
X57782Y514521D01*
X57806Y514586D01*
X57826Y514652D01*
X57843Y514719D01*
X57856Y514786D01*
X57865Y514854D01*
X57871Y514923D01*
X57873Y514992D01*
X55545Y512974D02*
X55486Y512938D01*
X55430Y512898D01*
X55376Y512855D01*
X55324Y512810D01*
X55275Y512761D01*
X55229Y512710D01*
X55186Y512657D01*
X55145Y512601D01*
X55108Y512543D01*
X55073Y512484D01*
X55043Y512422D01*
X55015Y512359D01*
X54991Y512294D01*
X54971Y512228D01*
X54954Y512161D01*
X54941Y512094D01*
X54932Y512026D01*
X54926Y511957D01*
X54924Y511888D01*
X55544Y512974D02*
X57252Y513906D01*
X51017Y516234D02*
X50944Y516232D01*
X50871Y516226D01*
X50798Y516217D01*
X50727Y516203D01*
X50655Y516186D01*
X50585Y516166D01*
X50516Y516141D01*
X50449Y516113D01*
X50383Y516082D01*
X50319Y516047D01*
X50256Y516009D01*
X50196Y515967D01*
X50138Y515923D01*
X50082Y515875D01*
X50029Y515825D01*
X49979Y515772D01*
X49931Y515716D01*
X49887Y515658D01*
X49845Y515598D01*
X49807Y515536D01*
X49772Y515471D01*
X49741Y515405D01*
X49713Y515338D01*
X49688Y515269D01*
X49668Y515199D01*
X49651Y515127D01*
X49637Y515056D01*
X49628Y514983D01*
X49622Y514910D01*
X49620Y514837D01*
X51017Y516234D02*
X51101Y516232D01*
X51184Y516226D01*
X51267Y516217D01*
X51349Y516203D01*
X51431Y516186D01*
X51512Y516164D01*
X51592Y516139D01*
X51670Y516111D01*
X51748Y516079D01*
X51823Y516043D01*
X51897Y516004D01*
X51969Y515961D01*
X52039Y515915D01*
X52106Y515866D01*
X52172Y515813D01*
X52234Y515758D01*
X52294Y515700D01*
X52352Y515639D01*
X52406Y515576D01*
X52458Y515510D01*
X52506Y515442D01*
X52551Y515371D01*
X52593Y515299D01*
X52631Y515224D01*
X52666Y515148D01*
X52697Y515071D01*
X52725Y514992D01*
X50087Y513751D02*
X50033Y513804D01*
X49982Y513861D01*
X49934Y513920D01*
X49889Y513981D01*
X49848Y514044D01*
X49809Y514110D01*
X49774Y514177D01*
X49742Y514246D01*
X49714Y514317D01*
X49690Y514388D01*
X49669Y514461D01*
X49652Y514535D01*
X49638Y514610D01*
X49629Y514685D01*
X49623Y514761D01*
X49621Y514837D01*
X50086Y513750D02*
X52725Y510646D01*
X49620Y510646D01*
X46972Y513750D02*
X45420Y513750D01*
X45343Y513748D01*
X45265Y513742D01*
X45189Y513733D01*
X45112Y513719D01*
X45037Y513702D01*
X44963Y513681D01*
X44889Y513656D01*
X44817Y513628D01*
X44747Y513596D01*
X44678Y513561D01*
X44611Y513522D01*
X44546Y513480D01*
X44483Y513435D01*
X44422Y513387D01*
X44364Y513336D01*
X44309Y513282D01*
X44256Y513225D01*
X44207Y513166D01*
X44160Y513104D01*
X44116Y513040D01*
X44076Y512974D01*
X44039Y512906D01*
X44005Y512836D01*
X43975Y512765D01*
X43949Y512692D01*
X43926Y512618D01*
X43907Y512543D01*
X43892Y512468D01*
X43880Y512391D01*
X43872Y512314D01*
X43868Y512237D01*
X43868Y512159D01*
X43872Y512082D01*
X43880Y512005D01*
X43892Y511928D01*
X43907Y511853D01*
X43926Y511778D01*
X43949Y511704D01*
X43975Y511631D01*
X44005Y511560D01*
X44039Y511490D01*
X44076Y511422D01*
X44116Y511356D01*
X44160Y511292D01*
X44207Y511230D01*
X44256Y511171D01*
X44309Y511114D01*
X44364Y511060D01*
X44422Y511009D01*
X44483Y510961D01*
X44546Y510916D01*
X44611Y510874D01*
X44678Y510835D01*
X44747Y510800D01*
X44817Y510768D01*
X44889Y510740D01*
X44963Y510715D01*
X45037Y510694D01*
X45112Y510677D01*
X45189Y510663D01*
X45265Y510654D01*
X45343Y510648D01*
X45420Y510646D01*
X46972Y510646D01*
X46972Y516234D01*
X45420Y516234D01*
X45350Y516232D01*
X45281Y516226D01*
X45212Y516216D01*
X45144Y516203D01*
X45076Y516185D01*
X45010Y516164D01*
X44945Y516139D01*
X44881Y516111D01*
X44819Y516079D01*
X44759Y516044D01*
X44701Y516005D01*
X44646Y515963D01*
X44592Y515918D01*
X44542Y515870D01*
X44494Y515820D01*
X44449Y515766D01*
X44407Y515711D01*
X44368Y515653D01*
X44333Y515593D01*
X44301Y515531D01*
X44273Y515467D01*
X44248Y515402D01*
X44227Y515336D01*
X44209Y515268D01*
X44196Y515200D01*
X44186Y515131D01*
X44180Y515062D01*
X44178Y514992D01*
X44180Y514922D01*
X44186Y514853D01*
X44196Y514784D01*
X44209Y514716D01*
X44227Y514648D01*
X44248Y514582D01*
X44273Y514517D01*
X44301Y514453D01*
X44333Y514391D01*
X44368Y514331D01*
X44407Y514273D01*
X44449Y514218D01*
X44494Y514164D01*
X44542Y514114D01*
X44592Y514066D01*
X44646Y514021D01*
X44701Y513979D01*
X44759Y513940D01*
X44819Y513905D01*
X44881Y513873D01*
X44945Y513845D01*
X45010Y513820D01*
X45076Y513799D01*
X45144Y513781D01*
X45212Y513768D01*
X45281Y513758D01*
X45350Y513752D01*
X45420Y513750D01*
X41696Y512819D02*
X37971Y512819D01*
X35268Y510646D02*
X35268Y516234D01*
X33716Y516234D01*
X33639Y516232D01*
X33561Y516226D01*
X33485Y516217D01*
X33408Y516203D01*
X33333Y516186D01*
X33259Y516165D01*
X33185Y516140D01*
X33113Y516112D01*
X33043Y516080D01*
X32974Y516045D01*
X32907Y516006D01*
X32842Y515964D01*
X32779Y515919D01*
X32718Y515871D01*
X32660Y515820D01*
X32605Y515766D01*
X32552Y515709D01*
X32503Y515650D01*
X32456Y515588D01*
X32412Y515524D01*
X32372Y515458D01*
X32335Y515390D01*
X32301Y515320D01*
X32271Y515249D01*
X32245Y515176D01*
X32222Y515102D01*
X32203Y515027D01*
X32188Y514952D01*
X32176Y514875D01*
X32168Y514798D01*
X32164Y514721D01*
X32164Y514643D01*
X32168Y514566D01*
X32176Y514489D01*
X32188Y514412D01*
X32203Y514337D01*
X32222Y514262D01*
X32245Y514188D01*
X32271Y514115D01*
X32301Y514044D01*
X32335Y513974D01*
X32372Y513906D01*
X32412Y513840D01*
X32456Y513776D01*
X32503Y513714D01*
X32552Y513655D01*
X32605Y513598D01*
X32660Y513544D01*
X32718Y513493D01*
X32779Y513445D01*
X32842Y513400D01*
X32907Y513358D01*
X32974Y513319D01*
X33043Y513284D01*
X33113Y513252D01*
X33185Y513224D01*
X33259Y513199D01*
X33333Y513178D01*
X33408Y513161D01*
X33485Y513147D01*
X33561Y513138D01*
X33639Y513132D01*
X33716Y513130D01*
X35268Y513130D01*
X29865Y510646D02*
X29865Y516234D01*
X29865Y513750D02*
X26760Y513750D01*
X26760Y516234D02*
X26760Y510646D01*
X24140Y512819D02*
X20415Y512819D01*
X17712Y510646D02*
X17712Y516234D01*
X14607Y516234D02*
X17712Y512819D01*
X16470Y514061D02*
X14607Y510646D01*
X12436Y512819D02*
X8711Y512819D01*
X4594Y510646D02*
X4524Y510648D01*
X4455Y510654D01*
X4386Y510664D01*
X4318Y510677D01*
X4250Y510695D01*
X4184Y510716D01*
X4119Y510741D01*
X4055Y510769D01*
X3993Y510801D01*
X3933Y510836D01*
X3875Y510875D01*
X3820Y510917D01*
X3766Y510962D01*
X3716Y511010D01*
X3668Y511060D01*
X3623Y511114D01*
X3581Y511169D01*
X3542Y511227D01*
X3507Y511287D01*
X3475Y511349D01*
X3447Y511413D01*
X3422Y511478D01*
X3401Y511544D01*
X3383Y511612D01*
X3370Y511680D01*
X3360Y511749D01*
X3354Y511818D01*
X3352Y511888D01*
X4594Y510646D02*
X4693Y510648D01*
X4791Y510653D01*
X4889Y510663D01*
X4987Y510676D01*
X5084Y510692D01*
X5181Y510712D01*
X5276Y510736D01*
X5371Y510764D01*
X5465Y510795D01*
X5557Y510829D01*
X5648Y510867D01*
X5738Y510908D01*
X5826Y510953D01*
X5912Y511001D01*
X5996Y511052D01*
X6078Y511106D01*
X6159Y511164D01*
X6237Y511224D01*
X6312Y511287D01*
X6386Y511353D01*
X6456Y511422D01*
X6301Y514992D02*
X6299Y515062D01*
X6293Y515131D01*
X6283Y515200D01*
X6270Y515268D01*
X6252Y515336D01*
X6231Y515402D01*
X6206Y515467D01*
X6178Y515531D01*
X6146Y515593D01*
X6111Y515653D01*
X6072Y515711D01*
X6030Y515766D01*
X5985Y515820D01*
X5937Y515870D01*
X5887Y515918D01*
X5833Y515963D01*
X5778Y516005D01*
X5720Y516044D01*
X5660Y516079D01*
X5598Y516111D01*
X5534Y516139D01*
X5469Y516164D01*
X5403Y516185D01*
X5335Y516203D01*
X5267Y516216D01*
X5198Y516226D01*
X5129Y516232D01*
X5059Y516234D01*
X4965Y516232D01*
X4872Y516226D01*
X4779Y516217D01*
X4686Y516204D01*
X4594Y516187D01*
X4503Y516167D01*
X4412Y516142D01*
X4323Y516115D01*
X4235Y516083D01*
X4148Y516048D01*
X4062Y516010D01*
X3979Y515968D01*
X3896Y515923D01*
X3816Y515875D01*
X3738Y515823D01*
X3662Y515768D01*
X5680Y513906D02*
X5739Y513942D01*
X5795Y513982D01*
X5849Y514025D01*
X5901Y514070D01*
X5950Y514119D01*
X5996Y514170D01*
X6039Y514223D01*
X6080Y514279D01*
X6117Y514337D01*
X6152Y514397D01*
X6182Y514458D01*
X6210Y514521D01*
X6234Y514586D01*
X6254Y514652D01*
X6271Y514719D01*
X6284Y514786D01*
X6293Y514854D01*
X6299Y514923D01*
X6301Y514992D01*
X3973Y512974D02*
X3914Y512938D01*
X3858Y512898D01*
X3804Y512855D01*
X3752Y512810D01*
X3703Y512761D01*
X3657Y512710D01*
X3614Y512657D01*
X3573Y512601D01*
X3536Y512543D01*
X3501Y512484D01*
X3471Y512422D01*
X3443Y512359D01*
X3419Y512294D01*
X3399Y512228D01*
X3382Y512161D01*
X3369Y512094D01*
X3360Y512026D01*
X3354Y511957D01*
X3352Y511888D01*
X3973Y512974D02*
X5680Y513906D01*
D11*
X598098Y280107D02*
X609096Y273757D01*
X606137Y281331D02*
X601057Y272533D01*
X572698Y236113D02*
X583696Y229763D01*
X522000Y267000D02*
X522014Y268178D01*
X522058Y269355D01*
X522130Y270531D01*
X522231Y271705D01*
X522361Y272876D01*
X522520Y274043D01*
X522707Y275206D01*
X522922Y276364D01*
X523166Y277517D01*
X523438Y278663D01*
X523739Y279802D01*
X524067Y280934D01*
X524423Y282057D01*
X524806Y283171D01*
X525216Y284275D01*
X525654Y285369D01*
X526118Y286452D01*
X526609Y287523D01*
X527125Y288581D01*
X527668Y289627D01*
X528236Y290659D01*
X528829Y291677D01*
X529447Y292680D01*
X530089Y293667D01*
X530756Y294639D01*
X531446Y295594D01*
X532159Y296531D01*
X532895Y297451D01*
X533654Y298352D01*
X534434Y299235D01*
X535236Y300098D01*
X536059Y300941D01*
X536902Y301764D01*
X537765Y302566D01*
X538648Y303346D01*
X539549Y304105D01*
X540469Y304841D01*
X541406Y305554D01*
X542361Y306244D01*
X543333Y306911D01*
X544320Y307553D01*
X545323Y308171D01*
X546341Y308764D01*
X547373Y309332D01*
X548419Y309875D01*
X549477Y310391D01*
X550548Y310882D01*
X551631Y311346D01*
X552725Y311784D01*
X553829Y312194D01*
X554943Y312577D01*
X556066Y312933D01*
X557198Y313261D01*
X558337Y313562D01*
X559483Y313834D01*
X560636Y314078D01*
X561794Y314293D01*
X562957Y314480D01*
X564124Y314639D01*
X565295Y314769D01*
X566469Y314870D01*
X567645Y314942D01*
X568822Y314986D01*
X570000Y315000D01*
X571178Y314986D01*
X572355Y314942D01*
X573531Y314870D01*
X574705Y314769D01*
X575876Y314639D01*
X577043Y314480D01*
X578206Y314293D01*
X579364Y314078D01*
X580517Y313834D01*
X581663Y313562D01*
X582802Y313261D01*
X583934Y312933D01*
X585057Y312577D01*
X586171Y312194D01*
X587275Y311784D01*
X588369Y311346D01*
X589452Y310882D01*
X590523Y310391D01*
X591581Y309875D01*
X592627Y309332D01*
X593659Y308764D01*
X594677Y308171D01*
X595680Y307553D01*
X596667Y306911D01*
X597639Y306244D01*
X598594Y305554D01*
X599531Y304841D01*
X600451Y304105D01*
X601352Y303346D01*
X602235Y302566D01*
X603098Y301764D01*
X603941Y300941D01*
X604764Y300098D01*
X605566Y299235D01*
X606346Y298352D01*
X607105Y297451D01*
X607841Y296531D01*
X608554Y295594D01*
X609244Y294639D01*
X609911Y293667D01*
X610553Y292680D01*
X611171Y291677D01*
X611764Y290659D01*
X612332Y289627D01*
X612875Y288581D01*
X613391Y287523D01*
X613882Y286452D01*
X614346Y285369D01*
X614784Y284275D01*
X615194Y283171D01*
X615577Y282057D01*
X615933Y280934D01*
X616261Y279802D01*
X616562Y278663D01*
X616834Y277517D01*
X617078Y276364D01*
X617293Y275206D01*
X617480Y274043D01*
X617639Y272876D01*
X617769Y271705D01*
X617870Y270531D01*
X617942Y269355D01*
X617986Y268178D01*
X618000Y267000D01*
X617986Y265822D01*
X617942Y264645D01*
X617870Y263469D01*
X617769Y262295D01*
X617639Y261124D01*
X617480Y259957D01*
X617293Y258794D01*
X617078Y257636D01*
X616834Y256483D01*
X616562Y255337D01*
X616261Y254198D01*
X615933Y253066D01*
X615577Y251943D01*
X615194Y250829D01*
X614784Y249725D01*
X614346Y248631D01*
X613882Y247548D01*
X613391Y246477D01*
X612875Y245419D01*
X612332Y244373D01*
X611764Y243341D01*
X611171Y242323D01*
X610553Y241320D01*
X609911Y240333D01*
X609244Y239361D01*
X608554Y238406D01*
X607841Y237469D01*
X607105Y236549D01*
X606346Y235648D01*
X605566Y234765D01*
X604764Y233902D01*
X603941Y233059D01*
X603098Y232236D01*
X602235Y231434D01*
X601352Y230654D01*
X600451Y229895D01*
X599531Y229159D01*
X598594Y228446D01*
X597639Y227756D01*
X596667Y227089D01*
X595680Y226447D01*
X594677Y225829D01*
X593659Y225236D01*
X592627Y224668D01*
X591581Y224125D01*
X590523Y223609D01*
X589452Y223118D01*
X588369Y222654D01*
X587275Y222216D01*
X586171Y221806D01*
X585057Y221423D01*
X583934Y221067D01*
X582802Y220739D01*
X581663Y220438D01*
X580517Y220166D01*
X579364Y219922D01*
X578206Y219707D01*
X577043Y219520D01*
X575876Y219361D01*
X574705Y219231D01*
X573531Y219130D01*
X572355Y219058D01*
X571178Y219014D01*
X570000Y219000D01*
X568822Y219014D01*
X567645Y219058D01*
X566469Y219130D01*
X565295Y219231D01*
X564124Y219361D01*
X562957Y219520D01*
X561794Y219707D01*
X560636Y219922D01*
X559483Y220166D01*
X558337Y220438D01*
X557198Y220739D01*
X556066Y221067D01*
X554943Y221423D01*
X553829Y221806D01*
X552725Y222216D01*
X551631Y222654D01*
X550548Y223118D01*
X549477Y223609D01*
X548419Y224125D01*
X547373Y224668D01*
X546341Y225236D01*
X545323Y225829D01*
X544320Y226447D01*
X543333Y227089D01*
X542361Y227756D01*
X541406Y228446D01*
X540469Y229159D01*
X539549Y229895D01*
X538648Y230654D01*
X537765Y231434D01*
X536902Y232236D01*
X536059Y233059D01*
X535236Y233902D01*
X534434Y234765D01*
X533654Y235648D01*
X532895Y236549D01*
X532159Y237469D01*
X531446Y238406D01*
X530756Y239361D01*
X530089Y240333D01*
X529447Y241320D01*
X528829Y242323D01*
X528236Y243341D01*
X527668Y244373D01*
X527125Y245419D01*
X526609Y246477D01*
X526118Y247548D01*
X525654Y248631D01*
X525216Y249725D01*
X524806Y250829D01*
X524423Y251943D01*
X524067Y253066D01*
X523739Y254198D01*
X523438Y255337D01*
X523166Y256483D01*
X522922Y257636D01*
X522707Y258794D01*
X522520Y259957D01*
X522361Y261124D01*
X522231Y262295D01*
X522130Y263469D01*
X522058Y264645D01*
X522014Y265822D01*
X522000Y267000D01*
D13*
X608800Y252697D02*
X610572Y251674D01*
X608800Y252697D02*
X608722Y252740D01*
X608642Y252779D01*
X608560Y252815D01*
X608477Y252848D01*
X608392Y252876D01*
X608307Y252901D01*
X608220Y252923D01*
X608132Y252940D01*
X608044Y252953D01*
X607955Y252963D01*
X607866Y252969D01*
X607777Y252971D01*
X607688Y252969D01*
X607599Y252963D01*
X607510Y252953D01*
X607422Y252940D01*
X607334Y252923D01*
X607247Y252901D01*
X607162Y252876D01*
X607077Y252848D01*
X606994Y252815D01*
X606912Y252779D01*
X606832Y252740D01*
X606754Y252697D01*
X606678Y252651D01*
X606603Y252601D01*
X606531Y252548D01*
X606462Y252492D01*
X606395Y252433D01*
X606330Y252372D01*
X606269Y252307D01*
X606210Y252240D01*
X606154Y252171D01*
X606101Y252099D01*
X606051Y252024D01*
X606005Y251948D01*
X605962Y251870D01*
X605923Y251790D01*
X605887Y251708D01*
X605854Y251625D01*
X605826Y251540D01*
X605801Y251455D01*
X605779Y251368D01*
X605762Y251280D01*
X605749Y251192D01*
X605739Y251103D01*
X605733Y251014D01*
X605731Y250925D01*
X605733Y250836D01*
X605739Y250747D01*
X605749Y250658D01*
X605762Y250570D01*
X605779Y250482D01*
X605801Y250395D01*
X605826Y250310D01*
X605854Y250225D01*
X605887Y250142D01*
X605923Y250060D01*
X605962Y249980D01*
X606005Y249902D01*
X606051Y249826D01*
X606101Y249751D01*
X606154Y249679D01*
X606210Y249610D01*
X606269Y249543D01*
X606330Y249478D01*
X606395Y249417D01*
X606462Y249358D01*
X606531Y249302D01*
X606603Y249249D01*
X606678Y249199D01*
X606754Y249153D01*
X608526Y248130D01*
X612209Y254509D01*
X610437Y255532D01*
X610437Y255533D02*
X610367Y255571D01*
X610296Y255605D01*
X610223Y255636D01*
X610149Y255664D01*
X610073Y255687D01*
X609997Y255708D01*
X609920Y255724D01*
X609841Y255737D01*
X609763Y255746D01*
X609684Y255751D01*
X609605Y255752D01*
X609526Y255749D01*
X609447Y255743D01*
X609368Y255733D01*
X609291Y255719D01*
X609213Y255701D01*
X609137Y255680D01*
X609062Y255655D01*
X608989Y255626D01*
X608916Y255594D01*
X608846Y255558D01*
X608777Y255519D01*
X608710Y255477D01*
X608645Y255432D01*
X608583Y255383D01*
X608523Y255332D01*
X608465Y255277D01*
X608410Y255220D01*
X608358Y255160D01*
X608309Y255098D01*
X608263Y255034D01*
X608221Y254968D01*
X608181Y254899D01*
X608145Y254829D01*
X608112Y254757D01*
X608083Y254683D01*
X608057Y254608D01*
X608035Y254532D01*
X608017Y254455D01*
X608002Y254378D01*
X607991Y254299D01*
X607984Y254220D01*
X607981Y254141D01*
X607982Y254062D01*
X607986Y253983D01*
X607995Y253905D01*
X608007Y253826D01*
X608022Y253749D01*
X608042Y253672D01*
X608065Y253597D01*
X608092Y253522D01*
X608123Y253449D01*
X608156Y253378D01*
X608194Y253308D01*
X608234Y253240D01*
X608278Y253174D01*
X608325Y253111D01*
X608375Y253049D01*
X608428Y252991D01*
X608484Y252934D01*
X608542Y252881D01*
X608603Y252830D01*
X608667Y252783D01*
X608732Y252738D01*
X608800Y252697D01*
X603315Y253501D02*
X605975Y258108D01*
X603315Y253501D02*
X603269Y253425D01*
X603219Y253350D01*
X603166Y253278D01*
X603110Y253209D01*
X603051Y253142D01*
X602990Y253077D01*
X602925Y253016D01*
X602858Y252957D01*
X602789Y252901D01*
X602717Y252848D01*
X602642Y252798D01*
X602566Y252752D01*
X602488Y252709D01*
X602408Y252670D01*
X602326Y252634D01*
X602243Y252601D01*
X602158Y252573D01*
X602073Y252548D01*
X601986Y252526D01*
X601898Y252509D01*
X601810Y252496D01*
X601721Y252486D01*
X601632Y252480D01*
X601543Y252478D01*
X601454Y252480D01*
X601365Y252486D01*
X601276Y252496D01*
X601188Y252509D01*
X601100Y252526D01*
X601013Y252548D01*
X600928Y252573D01*
X600843Y252601D01*
X600760Y252634D01*
X600678Y252670D01*
X600598Y252709D01*
X600520Y252752D01*
X600444Y252798D01*
X600369Y252848D01*
X600297Y252901D01*
X600228Y252957D01*
X600161Y253016D01*
X600096Y253077D01*
X600035Y253142D01*
X599976Y253209D01*
X599920Y253278D01*
X599867Y253350D01*
X599817Y253425D01*
X599771Y253501D01*
X599728Y253579D01*
X599689Y253659D01*
X599653Y253741D01*
X599620Y253824D01*
X599592Y253909D01*
X599567Y253994D01*
X599546Y254081D01*
X599528Y254169D01*
X599515Y254257D01*
X599505Y254346D01*
X599499Y254435D01*
X599497Y254524D01*
X599499Y254613D01*
X599505Y254702D01*
X599515Y254791D01*
X599528Y254879D01*
X599545Y254967D01*
X599567Y255054D01*
X599592Y255139D01*
X599620Y255224D01*
X599653Y255307D01*
X599689Y255389D01*
X599728Y255469D01*
X599771Y255547D01*
X602431Y260154D01*
X599640Y261765D02*
X596096Y263812D01*
X595957Y255386D01*
X592413Y257432D01*
X593727Y265179D02*
X590184Y267225D01*
X590044Y258800D01*
X586501Y260846D01*
X583696Y262466D02*
X580861Y264102D01*
X583696Y262466D02*
X587379Y268845D01*
X584544Y270482D01*
X583616Y267237D02*
X585742Y266009D01*
X581858Y272032D02*
X578175Y265653D01*
X581858Y272032D02*
X580086Y273055D01*
X580008Y273098D01*
X579928Y273137D01*
X579846Y273173D01*
X579763Y273206D01*
X579678Y273234D01*
X579593Y273259D01*
X579506Y273281D01*
X579418Y273298D01*
X579330Y273311D01*
X579241Y273321D01*
X579152Y273327D01*
X579063Y273329D01*
X578974Y273327D01*
X578885Y273321D01*
X578796Y273311D01*
X578708Y273298D01*
X578620Y273281D01*
X578533Y273259D01*
X578448Y273234D01*
X578363Y273206D01*
X578280Y273173D01*
X578198Y273137D01*
X578118Y273098D01*
X578040Y273055D01*
X577964Y273009D01*
X577889Y272959D01*
X577817Y272906D01*
X577748Y272850D01*
X577681Y272791D01*
X577616Y272730D01*
X577555Y272665D01*
X577496Y272598D01*
X577440Y272529D01*
X577387Y272457D01*
X577337Y272382D01*
X577291Y272306D01*
X577248Y272228D01*
X577209Y272148D01*
X577173Y272066D01*
X577140Y271983D01*
X577112Y271898D01*
X577087Y271813D01*
X577065Y271726D01*
X577048Y271638D01*
X577035Y271550D01*
X577025Y271461D01*
X577019Y271372D01*
X577017Y271283D01*
X577019Y271194D01*
X577025Y271105D01*
X577035Y271016D01*
X577048Y270928D01*
X577065Y270840D01*
X577087Y270753D01*
X577112Y270668D01*
X577140Y270583D01*
X577173Y270500D01*
X577209Y270418D01*
X577248Y270338D01*
X577291Y270260D01*
X577337Y270184D01*
X577387Y270109D01*
X577440Y270037D01*
X577496Y269968D01*
X577555Y269901D01*
X577616Y269836D01*
X577681Y269775D01*
X577748Y269716D01*
X577817Y269660D01*
X577889Y269607D01*
X577964Y269557D01*
X578040Y269511D01*
X579812Y268488D01*
X577685Y269716D02*
X574631Y267699D01*
D10*
X592451Y238200D02*
X593527Y237579D01*
X593527Y237578D02*
X593588Y237545D01*
X593651Y237516D01*
X593716Y237490D01*
X593782Y237467D01*
X593849Y237449D01*
X593917Y237434D01*
X593986Y237423D01*
X594055Y237415D01*
X594125Y237412D01*
X594194Y237413D01*
X594264Y237417D01*
X594333Y237426D01*
X594402Y237438D01*
X594469Y237454D01*
X594536Y237474D01*
X594602Y237498D01*
X594666Y237525D01*
X594728Y237556D01*
X594789Y237590D01*
X594848Y237628D01*
X594904Y237669D01*
X594958Y237713D01*
X595010Y237759D01*
X595058Y237809D01*
X595104Y237862D01*
X595147Y237916D01*
X595187Y237974D01*
X595224Y238033D01*
X595223Y238033D02*
X596775Y240722D01*
X596776Y240722D02*
X596809Y240783D01*
X596838Y240846D01*
X596864Y240911D01*
X596887Y240977D01*
X596905Y241044D01*
X596920Y241112D01*
X596931Y241181D01*
X596939Y241250D01*
X596942Y241320D01*
X596941Y241389D01*
X596937Y241459D01*
X596928Y241528D01*
X596916Y241597D01*
X596900Y241664D01*
X596880Y241731D01*
X596856Y241797D01*
X596829Y241861D01*
X596798Y241923D01*
X596764Y241984D01*
X596726Y242043D01*
X596685Y242099D01*
X596641Y242153D01*
X596595Y242205D01*
X596545Y242253D01*
X596492Y242299D01*
X596438Y242342D01*
X596380Y242382D01*
X596321Y242419D01*
X596321Y242418D02*
X595245Y243039D01*
X593216Y244211D02*
X590422Y239371D01*
X590051Y242453D02*
X593216Y244211D01*
X590051Y242453D02*
X589990Y246073D01*
X587196Y241234D01*
X584533Y242771D02*
X587327Y247611D01*
X585071Y242461D02*
X583995Y243082D01*
X586789Y247921D02*
X587865Y247300D01*
X583115Y246099D02*
X579889Y247962D01*
X576858Y250070D02*
X575245Y251002D01*
X576858Y250070D02*
X576919Y250037D01*
X576982Y250008D01*
X577047Y249982D01*
X577113Y249959D01*
X577180Y249941D01*
X577248Y249926D01*
X577317Y249915D01*
X577386Y249907D01*
X577456Y249904D01*
X577525Y249905D01*
X577595Y249909D01*
X577664Y249918D01*
X577733Y249930D01*
X577800Y249946D01*
X577867Y249966D01*
X577933Y249990D01*
X577997Y250017D01*
X578059Y250048D01*
X578120Y250082D01*
X578179Y250120D01*
X578235Y250161D01*
X578289Y250205D01*
X578341Y250252D01*
X578389Y250301D01*
X578435Y250354D01*
X578478Y250408D01*
X578518Y250466D01*
X578555Y250525D01*
X578554Y250525D02*
X578709Y250794D01*
X578747Y250863D01*
X578781Y250934D01*
X578811Y251006D01*
X578838Y251080D01*
X578861Y251156D01*
X578880Y251232D01*
X578895Y251309D01*
X578906Y251387D01*
X578913Y251465D01*
X578917Y251544D01*
X578916Y251622D01*
X578911Y251701D01*
X578903Y251779D01*
X578890Y251857D01*
X578874Y251934D01*
X578853Y252010D01*
X578829Y252084D01*
X578801Y252158D01*
X578770Y252230D01*
X578735Y252300D01*
X578696Y252369D01*
X578654Y252435D01*
X578608Y252499D01*
X578560Y252561D01*
X578508Y252620D01*
X578453Y252677D01*
X578396Y252730D01*
X578336Y252781D01*
X578273Y252829D01*
X578208Y252873D01*
X578141Y252914D01*
X578072Y252952D01*
X578001Y252986D01*
X577929Y253016D01*
X577855Y253043D01*
X577779Y253066D01*
X577703Y253085D01*
X577626Y253100D01*
X577548Y253111D01*
X577470Y253118D01*
X577391Y253122D01*
X577313Y253121D01*
X577234Y253116D01*
X577156Y253108D01*
X577078Y253095D01*
X577001Y253079D01*
X576925Y253058D01*
X576851Y253034D01*
X576777Y253006D01*
X576705Y252975D01*
X576635Y252940D01*
X576566Y252901D01*
X576500Y252859D01*
X576436Y252813D01*
X576374Y252765D01*
X576315Y252713D01*
X576258Y252658D01*
X576205Y252601D01*
X576154Y252541D01*
X576106Y252478D01*
X576062Y252413D01*
X576021Y252346D01*
X575245Y251002D01*
X575244Y251002D02*
X575197Y250917D01*
X575153Y250829D01*
X575113Y250741D01*
X575076Y250650D01*
X575043Y250558D01*
X575013Y250466D01*
X574987Y250371D01*
X574965Y250276D01*
X574947Y250181D01*
X574932Y250084D01*
X574921Y249987D01*
X574914Y249890D01*
X574911Y249793D01*
X574912Y249695D01*
X574916Y249598D01*
X574925Y249500D01*
X574937Y249404D01*
X574953Y249307D01*
X574972Y249212D01*
X574996Y249117D01*
X575023Y249023D01*
X575053Y248931D01*
X575088Y248840D01*
X575126Y248750D01*
X575167Y248661D01*
X575212Y248575D01*
X575260Y248490D01*
X575312Y248407D01*
X575366Y248326D01*
X575424Y248248D01*
X575485Y248172D01*
X575549Y248098D01*
X575616Y248027D01*
X575685Y247958D01*
X575757Y247892D01*
X575832Y247830D01*
X575909Y247770D01*
X575988Y247713D01*
X576070Y247659D01*
X576153Y247609D01*
X573492Y252730D02*
X571879Y253662D01*
X571818Y253695D01*
X571755Y253724D01*
X571690Y253750D01*
X571624Y253773D01*
X571557Y253791D01*
X571489Y253806D01*
X571420Y253817D01*
X571351Y253825D01*
X571281Y253828D01*
X571212Y253827D01*
X571142Y253823D01*
X571073Y253814D01*
X571004Y253802D01*
X570937Y253786D01*
X570870Y253766D01*
X570804Y253742D01*
X570740Y253715D01*
X570678Y253684D01*
X570617Y253650D01*
X570558Y253612D01*
X570502Y253571D01*
X570448Y253527D01*
X570396Y253480D01*
X570348Y253431D01*
X570302Y253378D01*
X570259Y253324D01*
X570219Y253266D01*
X570182Y253207D01*
X570183Y253207D02*
X570028Y252938D01*
X569991Y252870D01*
X569957Y252800D01*
X569927Y252729D01*
X569901Y252656D01*
X569878Y252582D01*
X569859Y252507D01*
X569844Y252432D01*
X569832Y252355D01*
X569824Y252278D01*
X569820Y252201D01*
X569820Y252123D01*
X569824Y252046D01*
X569832Y251969D01*
X569844Y251893D01*
X569859Y251817D01*
X569878Y251742D01*
X569901Y251668D01*
X569927Y251595D01*
X569957Y251524D01*
X569991Y251454D01*
X570028Y251386D01*
X570068Y251320D01*
X570112Y251256D01*
X570159Y251194D01*
X570208Y251135D01*
X570261Y251078D01*
X570316Y251024D01*
X570374Y250973D01*
X570435Y250925D01*
X570498Y250880D01*
X570563Y250838D01*
X570630Y250799D01*
X570699Y250764D01*
X570769Y250732D01*
X570841Y250704D01*
X570915Y250679D01*
X570989Y250658D01*
X571064Y250641D01*
X571141Y250627D01*
X571217Y250618D01*
X571295Y250612D01*
X571372Y250610D01*
X571449Y250612D01*
X571527Y250618D01*
X571603Y250627D01*
X571680Y250641D01*
X571755Y250658D01*
X571829Y250679D01*
X571903Y250704D01*
X571975Y250732D01*
X572045Y250764D01*
X572114Y250799D01*
X572181Y250838D01*
X572246Y250880D01*
X572309Y250925D01*
X572370Y250973D01*
X572428Y251024D01*
X572483Y251078D01*
X572536Y251135D01*
X572585Y251194D01*
X572632Y251256D01*
X572676Y251320D01*
X572716Y251386D01*
X573492Y252730D01*
X573539Y252815D01*
X573583Y252903D01*
X573623Y252991D01*
X573660Y253082D01*
X573693Y253174D01*
X573723Y253267D01*
X573749Y253361D01*
X573771Y253456D01*
X573789Y253551D01*
X573804Y253648D01*
X573815Y253745D01*
X573822Y253842D01*
X573825Y253939D01*
X573824Y254037D01*
X573820Y254134D01*
X573811Y254232D01*
X573799Y254328D01*
X573783Y254425D01*
X573764Y254520D01*
X573740Y254615D01*
X573713Y254709D01*
X573683Y254801D01*
X573648Y254892D01*
X573610Y254982D01*
X573569Y255071D01*
X573524Y255157D01*
X573476Y255242D01*
X573424Y255325D01*
X573370Y255406D01*
X573312Y255484D01*
X573251Y255560D01*
X573187Y255634D01*
X573120Y255705D01*
X573051Y255774D01*
X572979Y255840D01*
X572904Y255902D01*
X572827Y255962D01*
X572748Y256019D01*
X572667Y256073D01*
X572583Y256123D01*
X569192Y257186D02*
X569181Y257055D01*
X569166Y256926D01*
X569148Y256796D01*
X569126Y256668D01*
X569100Y256540D01*
X569071Y256413D01*
X569038Y256286D01*
X569002Y256161D01*
X568962Y256037D01*
X568918Y255913D01*
X568871Y255792D01*
X568821Y255671D01*
X568767Y255552D01*
X568710Y255435D01*
X568650Y255319D01*
X568586Y255205D01*
X569192Y257185D02*
X569202Y257249D01*
X569209Y257314D01*
X569213Y257378D01*
X569212Y257443D01*
X569208Y257508D01*
X569201Y257572D01*
X569190Y257636D01*
X569175Y257699D01*
X569157Y257761D01*
X569135Y257822D01*
X569110Y257882D01*
X569081Y257940D01*
X569050Y257996D01*
X569015Y258051D01*
X568977Y258104D01*
X568936Y258154D01*
X568893Y258202D01*
X568846Y258247D01*
X568798Y258290D01*
X568747Y258330D01*
X568694Y258367D01*
X568639Y258401D01*
X568638Y258401D02*
X568581Y258432D01*
X568523Y258459D01*
X568463Y258484D01*
X568401Y258504D01*
X568339Y258522D01*
X568276Y258535D01*
X568212Y258545D01*
X568147Y258552D01*
X568083Y258555D01*
X568018Y258554D01*
X567953Y258550D01*
X567889Y258542D01*
X567825Y258530D01*
X567762Y258515D01*
X567700Y258496D01*
X567639Y258474D01*
X567580Y258448D01*
X567522Y258419D01*
X567466Y258387D01*
X567411Y258352D01*
X567359Y258313D01*
X567309Y258272D01*
X567310Y258272D02*
X567202Y258197D01*
X567097Y258120D01*
X566995Y258039D01*
X566894Y257956D01*
X566796Y257870D01*
X566700Y257781D01*
X566607Y257689D01*
X566517Y257595D01*
X566429Y257498D01*
X566345Y257399D01*
X566263Y257298D01*
X566183Y257194D01*
X566107Y257088D01*
X566034Y256979D01*
X565964Y256869D01*
X565897Y256757D01*
X568586Y255204D02*
X568519Y255092D01*
X568449Y254982D01*
X568376Y254874D01*
X568300Y254768D01*
X568221Y254664D01*
X568139Y254563D01*
X568054Y254463D01*
X567966Y254367D01*
X567876Y254273D01*
X567783Y254181D01*
X567687Y254092D01*
X567589Y254006D01*
X567489Y253922D01*
X567386Y253842D01*
X567281Y253764D01*
X567174Y253690D01*
X567124Y253649D01*
X567072Y253610D01*
X567017Y253575D01*
X566961Y253543D01*
X566903Y253514D01*
X566844Y253488D01*
X566783Y253466D01*
X566721Y253447D01*
X566658Y253432D01*
X566594Y253420D01*
X566530Y253412D01*
X566465Y253408D01*
X566400Y253407D01*
X566336Y253410D01*
X566271Y253417D01*
X566207Y253427D01*
X566144Y253440D01*
X566082Y253458D01*
X566020Y253478D01*
X565960Y253503D01*
X565901Y253530D01*
X565844Y253561D01*
X565291Y254777D02*
X565302Y254907D01*
X565317Y255037D01*
X565335Y255166D01*
X565357Y255295D01*
X565383Y255423D01*
X565412Y255550D01*
X565445Y255676D01*
X565481Y255802D01*
X565521Y255926D01*
X565565Y256049D01*
X565612Y256171D01*
X565662Y256291D01*
X565716Y256410D01*
X565773Y256528D01*
X565833Y256644D01*
X565897Y256758D01*
X565291Y254777D02*
X565281Y254713D01*
X565274Y254648D01*
X565270Y254584D01*
X565271Y254519D01*
X565275Y254454D01*
X565282Y254390D01*
X565293Y254326D01*
X565308Y254263D01*
X565326Y254201D01*
X565348Y254140D01*
X565373Y254080D01*
X565402Y254022D01*
X565433Y253966D01*
X565468Y253911D01*
X565506Y253858D01*
X565547Y253808D01*
X565590Y253760D01*
X565637Y253715D01*
X565685Y253672D01*
X565736Y253632D01*
X565789Y253595D01*
X565845Y253561D01*
X567541Y254016D02*
X566942Y257946D01*
X562437Y255528D02*
X560824Y256460D01*
X560824Y256459D02*
X560765Y256496D01*
X560707Y256536D01*
X560653Y256579D01*
X560600Y256625D01*
X560551Y256673D01*
X560504Y256725D01*
X560460Y256779D01*
X560419Y256835D01*
X560381Y256894D01*
X560347Y256955D01*
X560316Y257017D01*
X560289Y257081D01*
X560265Y257147D01*
X560245Y257214D01*
X560229Y257281D01*
X560217Y257350D01*
X560208Y257419D01*
X560204Y257489D01*
X560203Y257558D01*
X560206Y257628D01*
X560214Y257697D01*
X560225Y257766D01*
X560240Y257834D01*
X560258Y257901D01*
X560281Y257967D01*
X560307Y258032D01*
X560336Y258095D01*
X560369Y258156D01*
X560370Y258156D02*
X560680Y258694D01*
X560717Y258753D01*
X560757Y258810D01*
X560800Y258865D01*
X560846Y258918D01*
X560894Y258967D01*
X560946Y259014D01*
X561000Y259058D01*
X561056Y259099D01*
X561115Y259137D01*
X561176Y259171D01*
X561238Y259202D01*
X561302Y259229D01*
X561368Y259253D01*
X561435Y259273D01*
X561502Y259289D01*
X561571Y259301D01*
X561640Y259310D01*
X561710Y259314D01*
X561779Y259315D01*
X561849Y259312D01*
X561918Y259304D01*
X561987Y259293D01*
X562055Y259278D01*
X562122Y259260D01*
X562188Y259237D01*
X562253Y259211D01*
X562316Y259182D01*
X562377Y259149D01*
X562377Y259148D02*
X563990Y258217D01*
X565231Y260368D01*
X562543Y261920D01*
X558725Y260181D02*
X555499Y262044D01*
X553698Y263800D02*
X553762Y263914D01*
X553822Y264030D01*
X553879Y264147D01*
X553933Y264266D01*
X553983Y264387D01*
X554030Y264508D01*
X554074Y264632D01*
X554114Y264756D01*
X554150Y264881D01*
X554183Y265008D01*
X554212Y265135D01*
X554238Y265263D01*
X554260Y265391D01*
X554278Y265521D01*
X554293Y265650D01*
X554304Y265781D01*
X554305Y265780D02*
X554315Y265844D01*
X554322Y265909D01*
X554326Y265973D01*
X554325Y266038D01*
X554321Y266103D01*
X554314Y266167D01*
X554303Y266231D01*
X554288Y266294D01*
X554270Y266356D01*
X554248Y266417D01*
X554223Y266477D01*
X554194Y266535D01*
X554163Y266591D01*
X554128Y266646D01*
X554090Y266699D01*
X554049Y266749D01*
X554006Y266797D01*
X553959Y266842D01*
X553911Y266885D01*
X553860Y266925D01*
X553807Y266962D01*
X553752Y266996D01*
X553751Y266996D02*
X553694Y267027D01*
X553636Y267054D01*
X553576Y267079D01*
X553514Y267099D01*
X553452Y267117D01*
X553389Y267130D01*
X553325Y267140D01*
X553260Y267147D01*
X553196Y267150D01*
X553131Y267149D01*
X553066Y267145D01*
X553002Y267137D01*
X552938Y267125D01*
X552875Y267110D01*
X552813Y267091D01*
X552752Y267069D01*
X552693Y267043D01*
X552635Y267014D01*
X552579Y266982D01*
X552524Y266947D01*
X552472Y266908D01*
X552422Y266867D01*
X552314Y266792D01*
X552209Y266715D01*
X552107Y266634D01*
X552006Y266551D01*
X551908Y266465D01*
X551812Y266376D01*
X551719Y266284D01*
X551629Y266190D01*
X551541Y266093D01*
X551457Y265994D01*
X551375Y265893D01*
X551295Y265789D01*
X551219Y265683D01*
X551146Y265574D01*
X551076Y265464D01*
X551009Y265352D01*
X553698Y263800D02*
X553631Y263688D01*
X553561Y263578D01*
X553488Y263470D01*
X553412Y263364D01*
X553333Y263260D01*
X553251Y263159D01*
X553166Y263059D01*
X553078Y262963D01*
X552988Y262869D01*
X552895Y262777D01*
X552799Y262688D01*
X552701Y262602D01*
X552601Y262518D01*
X552498Y262438D01*
X552393Y262360D01*
X552286Y262286D01*
X552286Y262285D02*
X552236Y262244D01*
X552184Y262205D01*
X552129Y262170D01*
X552073Y262138D01*
X552015Y262109D01*
X551956Y262083D01*
X551895Y262061D01*
X551833Y262042D01*
X551770Y262027D01*
X551706Y262015D01*
X551642Y262007D01*
X551577Y262003D01*
X551512Y262002D01*
X551448Y262005D01*
X551383Y262012D01*
X551319Y262022D01*
X551256Y262035D01*
X551194Y262053D01*
X551132Y262073D01*
X551072Y262098D01*
X551013Y262125D01*
X550956Y262156D01*
X550404Y263372D02*
X550415Y263502D01*
X550430Y263632D01*
X550448Y263761D01*
X550470Y263890D01*
X550496Y264018D01*
X550525Y264145D01*
X550558Y264271D01*
X550594Y264397D01*
X550634Y264521D01*
X550678Y264644D01*
X550725Y264766D01*
X550775Y264886D01*
X550829Y265005D01*
X550886Y265123D01*
X550946Y265239D01*
X551010Y265353D01*
X550403Y263372D02*
X550393Y263308D01*
X550386Y263243D01*
X550382Y263179D01*
X550383Y263114D01*
X550387Y263049D01*
X550394Y262985D01*
X550405Y262921D01*
X550420Y262858D01*
X550438Y262796D01*
X550460Y262735D01*
X550485Y262675D01*
X550514Y262617D01*
X550545Y262561D01*
X550580Y262506D01*
X550618Y262453D01*
X550659Y262403D01*
X550702Y262355D01*
X550749Y262310D01*
X550797Y262267D01*
X550848Y262227D01*
X550901Y262190D01*
X550957Y262156D01*
X552653Y262611D02*
X552055Y266541D01*
X547550Y264123D02*
X545937Y265055D01*
X545937Y265054D02*
X545878Y265091D01*
X545820Y265131D01*
X545766Y265174D01*
X545713Y265220D01*
X545664Y265268D01*
X545617Y265320D01*
X545573Y265374D01*
X545532Y265430D01*
X545494Y265489D01*
X545460Y265550D01*
X545429Y265612D01*
X545402Y265676D01*
X545378Y265742D01*
X545358Y265809D01*
X545342Y265876D01*
X545330Y265945D01*
X545321Y266014D01*
X545317Y266084D01*
X545316Y266153D01*
X545319Y266223D01*
X545327Y266292D01*
X545338Y266361D01*
X545353Y266429D01*
X545371Y266496D01*
X545394Y266562D01*
X545420Y266627D01*
X545449Y266690D01*
X545482Y266751D01*
X545793Y267289D01*
X545792Y267289D02*
X545829Y267348D01*
X545869Y267405D01*
X545912Y267460D01*
X545958Y267513D01*
X546006Y267562D01*
X546058Y267609D01*
X546112Y267653D01*
X546168Y267694D01*
X546227Y267732D01*
X546288Y267766D01*
X546350Y267797D01*
X546414Y267824D01*
X546480Y267848D01*
X546547Y267868D01*
X546614Y267884D01*
X546683Y267896D01*
X546752Y267905D01*
X546822Y267909D01*
X546891Y267910D01*
X546961Y267907D01*
X547030Y267899D01*
X547099Y267888D01*
X547167Y267873D01*
X547234Y267855D01*
X547300Y267832D01*
X547365Y267806D01*
X547428Y267777D01*
X547489Y267744D01*
X547489Y267743D02*
X549102Y266812D01*
X550344Y268963D01*
X547656Y270515D01*
X543575Y268211D02*
X543612Y268279D01*
X543646Y268349D01*
X543676Y268420D01*
X543702Y268493D01*
X543725Y268567D01*
X543744Y268642D01*
X543759Y268717D01*
X543771Y268794D01*
X543779Y268871D01*
X543783Y268948D01*
X543783Y269026D01*
X543779Y269103D01*
X543771Y269180D01*
X543759Y269256D01*
X543744Y269332D01*
X543725Y269407D01*
X543702Y269481D01*
X543676Y269554D01*
X543646Y269625D01*
X543612Y269695D01*
X543575Y269763D01*
X543535Y269829D01*
X543491Y269893D01*
X543444Y269955D01*
X543395Y270014D01*
X543342Y270071D01*
X543287Y270125D01*
X543229Y270176D01*
X543168Y270224D01*
X543105Y270269D01*
X543040Y270311D01*
X542973Y270350D01*
X542904Y270385D01*
X542834Y270417D01*
X542762Y270445D01*
X542688Y270470D01*
X542614Y270491D01*
X542539Y270508D01*
X542462Y270522D01*
X542386Y270531D01*
X542308Y270537D01*
X542231Y270539D01*
X542154Y270537D01*
X542076Y270531D01*
X542000Y270522D01*
X541923Y270508D01*
X541848Y270491D01*
X541774Y270470D01*
X541700Y270445D01*
X541628Y270417D01*
X541558Y270385D01*
X541489Y270350D01*
X541422Y270311D01*
X541357Y270269D01*
X541294Y270224D01*
X541233Y270176D01*
X541175Y270125D01*
X541120Y270071D01*
X541067Y270014D01*
X541018Y269955D01*
X540971Y269893D01*
X540927Y269829D01*
X540887Y269763D01*
X540849Y269694D01*
X540815Y269623D01*
X540785Y269550D01*
X540758Y269477D01*
X540735Y269401D01*
X540716Y269325D01*
X540701Y269248D01*
X540690Y269170D01*
X540683Y269092D01*
X540679Y269013D01*
X540680Y268935D01*
X540685Y268856D01*
X540693Y268778D01*
X540706Y268700D01*
X540722Y268623D01*
X540743Y268547D01*
X540767Y268473D01*
X540795Y268399D01*
X540826Y268327D01*
X540861Y268257D01*
X540900Y268188D01*
X540942Y268122D01*
X540988Y268058D01*
X541037Y267996D01*
X541088Y267937D01*
X541143Y267880D01*
X541200Y267827D01*
X541260Y267776D01*
X541323Y267728D01*
X541388Y267684D01*
X541455Y267643D01*
X541524Y267605D01*
X541595Y267571D01*
X541667Y267541D01*
X541741Y267514D01*
X541817Y267491D01*
X541893Y267472D01*
X541970Y267457D01*
X542048Y267446D01*
X542126Y267439D01*
X542205Y267435D01*
X542283Y267436D01*
X542362Y267441D01*
X542440Y267449D01*
X542518Y267462D01*
X542595Y267478D01*
X542671Y267499D01*
X542745Y267523D01*
X542819Y267551D01*
X542891Y267582D01*
X542961Y267617D01*
X543030Y267656D01*
X543096Y267698D01*
X543160Y267744D01*
X543222Y267792D01*
X543281Y267844D01*
X543338Y267899D01*
X543391Y267956D01*
X543442Y268016D01*
X543490Y268079D01*
X543534Y268144D01*
X543575Y268211D01*
X544704Y270786D02*
X544737Y270847D01*
X544766Y270910D01*
X544792Y270975D01*
X544815Y271041D01*
X544833Y271108D01*
X544848Y271176D01*
X544859Y271245D01*
X544867Y271314D01*
X544870Y271384D01*
X544869Y271453D01*
X544865Y271523D01*
X544856Y271592D01*
X544844Y271661D01*
X544828Y271728D01*
X544808Y271795D01*
X544784Y271861D01*
X544757Y271925D01*
X544726Y271987D01*
X544692Y272048D01*
X544654Y272107D01*
X544613Y272163D01*
X544569Y272217D01*
X544522Y272269D01*
X544473Y272317D01*
X544420Y272363D01*
X544366Y272406D01*
X544308Y272446D01*
X544249Y272483D01*
X544188Y272516D01*
X544125Y272545D01*
X544060Y272571D01*
X543994Y272594D01*
X543927Y272612D01*
X543859Y272627D01*
X543790Y272638D01*
X543721Y272646D01*
X543651Y272649D01*
X543582Y272648D01*
X543512Y272644D01*
X543443Y272635D01*
X543374Y272623D01*
X543307Y272607D01*
X543240Y272587D01*
X543174Y272563D01*
X543110Y272536D01*
X543048Y272505D01*
X542987Y272471D01*
X542928Y272433D01*
X542872Y272392D01*
X542818Y272348D01*
X542766Y272301D01*
X542718Y272252D01*
X542672Y272199D01*
X542629Y272144D01*
X542589Y272087D01*
X542552Y272028D01*
X542519Y271967D01*
X542490Y271904D01*
X542464Y271839D01*
X542441Y271773D01*
X542423Y271706D01*
X542408Y271638D01*
X542397Y271569D01*
X542389Y271500D01*
X542386Y271430D01*
X542387Y271361D01*
X542391Y271291D01*
X542400Y271222D01*
X542412Y271153D01*
X542428Y271086D01*
X542448Y271019D01*
X542472Y270953D01*
X542499Y270889D01*
X542530Y270827D01*
X542564Y270766D01*
X542602Y270707D01*
X542643Y270651D01*
X542687Y270597D01*
X542734Y270545D01*
X542783Y270497D01*
X542836Y270451D01*
X542890Y270408D01*
X542948Y270368D01*
X543007Y270331D01*
X543068Y270298D01*
X543131Y270269D01*
X543196Y270243D01*
X543262Y270220D01*
X543329Y270202D01*
X543397Y270187D01*
X543466Y270176D01*
X543535Y270168D01*
X543605Y270165D01*
X543674Y270166D01*
X543744Y270170D01*
X543813Y270179D01*
X543882Y270191D01*
X543949Y270207D01*
X544016Y270227D01*
X544082Y270251D01*
X544146Y270278D01*
X544208Y270309D01*
X544269Y270343D01*
X544328Y270381D01*
X544384Y270422D01*
X544438Y270466D01*
X544490Y270512D01*
X544538Y270562D01*
X544584Y270615D01*
X544627Y270669D01*
X544667Y270727D01*
X544704Y270786D01*
X539444Y272029D02*
X539508Y272143D01*
X539568Y272259D01*
X539625Y272376D01*
X539679Y272495D01*
X539729Y272616D01*
X539776Y272737D01*
X539820Y272861D01*
X539860Y272985D01*
X539896Y273110D01*
X539929Y273237D01*
X539958Y273364D01*
X539984Y273492D01*
X540006Y273620D01*
X540024Y273750D01*
X540039Y273879D01*
X540050Y274010D01*
X540051Y274009D02*
X540061Y274073D01*
X540068Y274138D01*
X540072Y274202D01*
X540071Y274267D01*
X540067Y274332D01*
X540060Y274396D01*
X540049Y274460D01*
X540034Y274523D01*
X540016Y274585D01*
X539994Y274646D01*
X539969Y274706D01*
X539940Y274764D01*
X539909Y274820D01*
X539874Y274875D01*
X539836Y274928D01*
X539795Y274978D01*
X539752Y275026D01*
X539705Y275071D01*
X539657Y275114D01*
X539606Y275154D01*
X539553Y275191D01*
X539498Y275225D01*
X539497Y275225D02*
X539440Y275256D01*
X539382Y275283D01*
X539322Y275308D01*
X539260Y275328D01*
X539198Y275346D01*
X539135Y275359D01*
X539071Y275369D01*
X539006Y275376D01*
X538942Y275379D01*
X538877Y275378D01*
X538812Y275374D01*
X538748Y275366D01*
X538684Y275354D01*
X538621Y275339D01*
X538559Y275320D01*
X538498Y275298D01*
X538439Y275272D01*
X538381Y275243D01*
X538325Y275211D01*
X538270Y275176D01*
X538218Y275137D01*
X538168Y275096D01*
X538168Y275097D02*
X538060Y275022D01*
X537955Y274945D01*
X537853Y274864D01*
X537752Y274781D01*
X537654Y274695D01*
X537558Y274606D01*
X537465Y274514D01*
X537375Y274420D01*
X537287Y274323D01*
X537203Y274224D01*
X537121Y274123D01*
X537041Y274019D01*
X536965Y273913D01*
X536892Y273804D01*
X536822Y273694D01*
X536755Y273582D01*
X539444Y272029D02*
X539377Y271917D01*
X539307Y271807D01*
X539234Y271699D01*
X539158Y271593D01*
X539079Y271489D01*
X538997Y271388D01*
X538912Y271288D01*
X538824Y271192D01*
X538734Y271098D01*
X538641Y271006D01*
X538545Y270917D01*
X538447Y270831D01*
X538347Y270747D01*
X538244Y270667D01*
X538139Y270589D01*
X538032Y270515D01*
X538033Y270515D02*
X537983Y270474D01*
X537931Y270435D01*
X537876Y270400D01*
X537820Y270368D01*
X537762Y270339D01*
X537703Y270313D01*
X537642Y270291D01*
X537580Y270272D01*
X537517Y270257D01*
X537453Y270245D01*
X537389Y270237D01*
X537324Y270233D01*
X537259Y270232D01*
X537195Y270235D01*
X537130Y270242D01*
X537066Y270252D01*
X537003Y270265D01*
X536941Y270283D01*
X536879Y270303D01*
X536819Y270328D01*
X536760Y270355D01*
X536703Y270386D01*
X536150Y271601D02*
X536161Y271731D01*
X536176Y271861D01*
X536194Y271990D01*
X536216Y272119D01*
X536242Y272247D01*
X536271Y272374D01*
X536304Y272500D01*
X536340Y272626D01*
X536380Y272750D01*
X536424Y272873D01*
X536471Y272995D01*
X536521Y273115D01*
X536575Y273234D01*
X536632Y273352D01*
X536692Y273468D01*
X536756Y273582D01*
X536149Y271602D02*
X536139Y271538D01*
X536132Y271473D01*
X536128Y271409D01*
X536129Y271344D01*
X536133Y271279D01*
X536140Y271215D01*
X536151Y271151D01*
X536166Y271088D01*
X536184Y271026D01*
X536206Y270965D01*
X536231Y270905D01*
X536260Y270847D01*
X536291Y270791D01*
X536326Y270736D01*
X536364Y270683D01*
X536405Y270633D01*
X536448Y270585D01*
X536495Y270540D01*
X536543Y270497D01*
X536594Y270457D01*
X536647Y270420D01*
X536703Y270386D01*
X538399Y270840D02*
X537801Y274771D01*
X535063Y277785D02*
X532269Y272946D01*
X536407Y277009D02*
X533718Y278562D01*
D11*
X631594Y173378D02*
X631594Y33378D01*
X631594Y173378D02*
X491594Y173378D01*
X491594Y33378D01*
X631594Y33378D01*
D13*
X486283Y61394D02*
X478917Y61394D01*
X486283Y61394D02*
X486283Y63440D01*
X486281Y63529D01*
X486275Y63618D01*
X486265Y63707D01*
X486252Y63795D01*
X486235Y63883D01*
X486213Y63970D01*
X486188Y64055D01*
X486160Y64140D01*
X486127Y64223D01*
X486091Y64305D01*
X486052Y64385D01*
X486009Y64463D01*
X485963Y64539D01*
X485913Y64614D01*
X485860Y64686D01*
X485804Y64755D01*
X485745Y64822D01*
X485684Y64887D01*
X485619Y64948D01*
X485552Y65007D01*
X485483Y65063D01*
X485411Y65116D01*
X485336Y65166D01*
X485260Y65212D01*
X485182Y65255D01*
X485102Y65294D01*
X485020Y65330D01*
X484937Y65363D01*
X484852Y65391D01*
X484767Y65416D01*
X484680Y65438D01*
X484592Y65455D01*
X484504Y65468D01*
X484415Y65478D01*
X484326Y65484D01*
X484237Y65486D01*
X484148Y65484D01*
X484059Y65478D01*
X483970Y65468D01*
X483882Y65455D01*
X483794Y65438D01*
X483707Y65416D01*
X483622Y65391D01*
X483537Y65363D01*
X483454Y65330D01*
X483372Y65294D01*
X483292Y65255D01*
X483214Y65212D01*
X483138Y65166D01*
X483063Y65116D01*
X482991Y65063D01*
X482922Y65007D01*
X482855Y64948D01*
X482790Y64887D01*
X482729Y64822D01*
X482670Y64755D01*
X482614Y64686D01*
X482561Y64614D01*
X482511Y64539D01*
X482465Y64463D01*
X482422Y64385D01*
X482383Y64305D01*
X482347Y64223D01*
X482314Y64140D01*
X482286Y64055D01*
X482261Y63970D01*
X482239Y63883D01*
X482222Y63795D01*
X482209Y63707D01*
X482199Y63618D01*
X482193Y63529D01*
X482191Y63440D01*
X482191Y61394D01*
X482191Y63850D02*
X478917Y65487D01*
X480963Y68658D02*
X484237Y68658D01*
X484326Y68660D01*
X484415Y68666D01*
X484504Y68676D01*
X484592Y68689D01*
X484680Y68706D01*
X484767Y68728D01*
X484852Y68753D01*
X484937Y68781D01*
X485020Y68814D01*
X485102Y68850D01*
X485182Y68889D01*
X485260Y68932D01*
X485336Y68978D01*
X485411Y69028D01*
X485483Y69081D01*
X485552Y69137D01*
X485619Y69196D01*
X485684Y69257D01*
X485745Y69322D01*
X485804Y69389D01*
X485860Y69458D01*
X485913Y69530D01*
X485963Y69605D01*
X486009Y69681D01*
X486052Y69759D01*
X486091Y69839D01*
X486127Y69921D01*
X486160Y70004D01*
X486188Y70089D01*
X486213Y70174D01*
X486235Y70261D01*
X486252Y70349D01*
X486265Y70437D01*
X486275Y70526D01*
X486281Y70615D01*
X486283Y70704D01*
X486281Y70793D01*
X486275Y70882D01*
X486265Y70971D01*
X486252Y71059D01*
X486235Y71147D01*
X486213Y71234D01*
X486188Y71319D01*
X486160Y71404D01*
X486127Y71487D01*
X486091Y71569D01*
X486052Y71649D01*
X486009Y71727D01*
X485963Y71803D01*
X485913Y71878D01*
X485860Y71950D01*
X485804Y72019D01*
X485745Y72086D01*
X485684Y72151D01*
X485619Y72212D01*
X485552Y72271D01*
X485483Y72327D01*
X485411Y72380D01*
X485336Y72430D01*
X485260Y72476D01*
X485182Y72519D01*
X485102Y72558D01*
X485020Y72594D01*
X484937Y72627D01*
X484852Y72655D01*
X484767Y72680D01*
X484680Y72702D01*
X484592Y72719D01*
X484504Y72732D01*
X484415Y72742D01*
X484326Y72748D01*
X484237Y72750D01*
X484237Y72751D02*
X480963Y72751D01*
X480963Y72750D02*
X480874Y72748D01*
X480785Y72742D01*
X480696Y72732D01*
X480608Y72719D01*
X480520Y72702D01*
X480433Y72680D01*
X480348Y72655D01*
X480263Y72627D01*
X480180Y72594D01*
X480098Y72558D01*
X480018Y72519D01*
X479940Y72476D01*
X479864Y72430D01*
X479789Y72380D01*
X479717Y72327D01*
X479648Y72271D01*
X479581Y72212D01*
X479516Y72151D01*
X479455Y72086D01*
X479396Y72019D01*
X479340Y71950D01*
X479287Y71878D01*
X479237Y71803D01*
X479191Y71727D01*
X479148Y71649D01*
X479109Y71569D01*
X479073Y71487D01*
X479040Y71404D01*
X479012Y71319D01*
X478987Y71234D01*
X478965Y71147D01*
X478948Y71059D01*
X478935Y70971D01*
X478925Y70882D01*
X478919Y70793D01*
X478917Y70704D01*
X478919Y70615D01*
X478925Y70526D01*
X478935Y70437D01*
X478948Y70349D01*
X478965Y70261D01*
X478987Y70174D01*
X479012Y70089D01*
X479040Y70004D01*
X479073Y69921D01*
X479109Y69839D01*
X479148Y69759D01*
X479191Y69681D01*
X479237Y69605D01*
X479287Y69530D01*
X479340Y69458D01*
X479396Y69389D01*
X479455Y69322D01*
X479516Y69257D01*
X479581Y69196D01*
X479648Y69137D01*
X479717Y69081D01*
X479789Y69028D01*
X479864Y68978D01*
X479940Y68932D01*
X480018Y68889D01*
X480098Y68850D01*
X480180Y68814D01*
X480263Y68781D01*
X480348Y68753D01*
X480433Y68728D01*
X480520Y68706D01*
X480608Y68689D01*
X480696Y68676D01*
X480785Y68666D01*
X480874Y68660D01*
X480963Y68658D01*
X478917Y77532D02*
X486283Y77532D01*
X486283Y75486D02*
X486283Y79578D01*
X486283Y84359D02*
X478917Y81904D01*
X478917Y86815D02*
X486283Y84359D01*
X480759Y82518D02*
X480759Y86201D01*
X478917Y89924D02*
X486283Y89924D01*
X486283Y91970D01*
X486281Y92059D01*
X486275Y92148D01*
X486265Y92237D01*
X486252Y92325D01*
X486235Y92413D01*
X486213Y92500D01*
X486188Y92585D01*
X486160Y92670D01*
X486127Y92753D01*
X486091Y92835D01*
X486052Y92915D01*
X486009Y92993D01*
X485963Y93069D01*
X485913Y93144D01*
X485860Y93216D01*
X485804Y93285D01*
X485745Y93352D01*
X485684Y93417D01*
X485619Y93478D01*
X485552Y93537D01*
X485483Y93593D01*
X485411Y93646D01*
X485336Y93696D01*
X485260Y93742D01*
X485182Y93785D01*
X485102Y93824D01*
X485020Y93860D01*
X484937Y93893D01*
X484852Y93921D01*
X484767Y93946D01*
X484680Y93968D01*
X484592Y93985D01*
X484504Y93998D01*
X484415Y94008D01*
X484326Y94014D01*
X484237Y94016D01*
X484148Y94014D01*
X484059Y94008D01*
X483970Y93998D01*
X483882Y93985D01*
X483794Y93968D01*
X483707Y93946D01*
X483622Y93921D01*
X483537Y93893D01*
X483454Y93860D01*
X483372Y93824D01*
X483292Y93785D01*
X483214Y93742D01*
X483138Y93696D01*
X483063Y93646D01*
X482991Y93593D01*
X482922Y93537D01*
X482855Y93478D01*
X482790Y93417D01*
X482729Y93352D01*
X482670Y93285D01*
X482614Y93216D01*
X482561Y93144D01*
X482511Y93069D01*
X482465Y92993D01*
X482422Y92915D01*
X482383Y92835D01*
X482347Y92753D01*
X482314Y92670D01*
X482286Y92585D01*
X482261Y92500D01*
X482239Y92413D01*
X482222Y92325D01*
X482209Y92237D01*
X482199Y92148D01*
X482193Y92059D01*
X482191Y91970D01*
X482191Y89924D01*
X482191Y92379D02*
X478917Y94016D01*
X482805Y99234D02*
X486283Y96778D01*
X482805Y99234D02*
X486283Y101689D01*
X482805Y99234D02*
X478917Y99234D01*
X481782Y104581D02*
X481782Y109492D01*
X478917Y113053D02*
X478917Y116327D01*
X478917Y113053D02*
X486283Y113053D01*
X486283Y116327D01*
X483009Y115508D02*
X483009Y113053D01*
X486283Y119377D02*
X478917Y119377D01*
X478917Y123469D02*
X486283Y119377D01*
X486283Y123469D02*
X478917Y123469D01*
X478917Y128550D02*
X478917Y130187D01*
X478917Y128550D02*
X478919Y128472D01*
X478924Y128394D01*
X478934Y128317D01*
X478947Y128240D01*
X478963Y128164D01*
X478983Y128089D01*
X479007Y128015D01*
X479034Y127942D01*
X479065Y127870D01*
X479099Y127800D01*
X479136Y127732D01*
X479177Y127665D01*
X479221Y127600D01*
X479267Y127538D01*
X479317Y127478D01*
X479369Y127420D01*
X479424Y127365D01*
X479482Y127313D01*
X479542Y127263D01*
X479604Y127217D01*
X479669Y127173D01*
X479736Y127132D01*
X479804Y127095D01*
X479874Y127061D01*
X479946Y127030D01*
X480019Y127003D01*
X480093Y126979D01*
X480168Y126959D01*
X480244Y126943D01*
X480321Y126930D01*
X480398Y126920D01*
X480476Y126915D01*
X480554Y126913D01*
X484646Y126913D01*
X484724Y126915D01*
X484802Y126920D01*
X484879Y126930D01*
X484956Y126943D01*
X485032Y126959D01*
X485107Y126979D01*
X485181Y127003D01*
X485254Y127030D01*
X485326Y127061D01*
X485396Y127095D01*
X485465Y127132D01*
X485531Y127173D01*
X485596Y127217D01*
X485658Y127263D01*
X485718Y127313D01*
X485776Y127365D01*
X485831Y127420D01*
X485883Y127478D01*
X485933Y127538D01*
X485979Y127600D01*
X486023Y127665D01*
X486064Y127732D01*
X486101Y127800D01*
X486135Y127870D01*
X486166Y127942D01*
X486193Y128015D01*
X486217Y128089D01*
X486237Y128164D01*
X486253Y128240D01*
X486266Y128317D01*
X486276Y128394D01*
X486281Y128472D01*
X486283Y128550D01*
X486283Y130187D01*
X484237Y133032D02*
X480963Y133032D01*
X484237Y133032D02*
X484326Y133034D01*
X484415Y133040D01*
X484504Y133050D01*
X484592Y133063D01*
X484680Y133080D01*
X484767Y133102D01*
X484852Y133127D01*
X484937Y133155D01*
X485020Y133188D01*
X485102Y133224D01*
X485182Y133263D01*
X485260Y133306D01*
X485336Y133352D01*
X485411Y133402D01*
X485483Y133455D01*
X485552Y133511D01*
X485619Y133570D01*
X485684Y133631D01*
X485745Y133696D01*
X485804Y133763D01*
X485860Y133832D01*
X485913Y133904D01*
X485963Y133979D01*
X486009Y134055D01*
X486052Y134133D01*
X486091Y134213D01*
X486127Y134295D01*
X486160Y134378D01*
X486188Y134463D01*
X486213Y134548D01*
X486235Y134635D01*
X486252Y134723D01*
X486265Y134811D01*
X486275Y134900D01*
X486281Y134989D01*
X486283Y135078D01*
X486281Y135167D01*
X486275Y135256D01*
X486265Y135345D01*
X486252Y135433D01*
X486235Y135521D01*
X486213Y135608D01*
X486188Y135693D01*
X486160Y135778D01*
X486127Y135861D01*
X486091Y135943D01*
X486052Y136023D01*
X486009Y136101D01*
X485963Y136177D01*
X485913Y136252D01*
X485860Y136324D01*
X485804Y136393D01*
X485745Y136460D01*
X485684Y136525D01*
X485619Y136586D01*
X485552Y136645D01*
X485483Y136701D01*
X485411Y136754D01*
X485336Y136804D01*
X485260Y136850D01*
X485182Y136893D01*
X485102Y136932D01*
X485020Y136968D01*
X484937Y137001D01*
X484852Y137029D01*
X484767Y137054D01*
X484680Y137076D01*
X484592Y137093D01*
X484504Y137106D01*
X484415Y137116D01*
X484326Y137122D01*
X484237Y137124D01*
X480963Y137124D01*
X480874Y137122D01*
X480785Y137116D01*
X480696Y137106D01*
X480608Y137093D01*
X480520Y137076D01*
X480433Y137054D01*
X480348Y137029D01*
X480263Y137001D01*
X480180Y136968D01*
X480098Y136932D01*
X480018Y136893D01*
X479940Y136850D01*
X479864Y136804D01*
X479789Y136754D01*
X479717Y136701D01*
X479648Y136645D01*
X479581Y136586D01*
X479516Y136525D01*
X479455Y136460D01*
X479396Y136393D01*
X479340Y136324D01*
X479287Y136252D01*
X479237Y136177D01*
X479191Y136101D01*
X479148Y136023D01*
X479109Y135943D01*
X479073Y135861D01*
X479040Y135778D01*
X479012Y135693D01*
X478987Y135608D01*
X478965Y135521D01*
X478948Y135433D01*
X478935Y135345D01*
X478925Y135256D01*
X478919Y135167D01*
X478917Y135078D01*
X478919Y134989D01*
X478925Y134900D01*
X478935Y134811D01*
X478948Y134723D01*
X478965Y134635D01*
X478987Y134548D01*
X479012Y134463D01*
X479040Y134378D01*
X479073Y134295D01*
X479109Y134213D01*
X479148Y134133D01*
X479191Y134055D01*
X479237Y133979D01*
X479287Y133904D01*
X479340Y133832D01*
X479396Y133763D01*
X479455Y133696D01*
X479516Y133631D01*
X479581Y133570D01*
X479648Y133511D01*
X479717Y133455D01*
X479789Y133402D01*
X479864Y133352D01*
X479940Y133306D01*
X480018Y133263D01*
X480098Y133224D01*
X480180Y133188D01*
X480263Y133155D01*
X480348Y133127D01*
X480433Y133102D01*
X480520Y133080D01*
X480608Y133063D01*
X480696Y133050D01*
X480785Y133040D01*
X480874Y133034D01*
X480963Y133032D01*
X478917Y140591D02*
X486283Y140591D01*
X486283Y142637D01*
X486281Y142726D01*
X486275Y142815D01*
X486265Y142904D01*
X486252Y142992D01*
X486235Y143080D01*
X486213Y143167D01*
X486188Y143252D01*
X486160Y143337D01*
X486127Y143420D01*
X486091Y143502D01*
X486052Y143582D01*
X486009Y143660D01*
X485963Y143736D01*
X485913Y143811D01*
X485860Y143883D01*
X485804Y143952D01*
X485745Y144019D01*
X485684Y144084D01*
X485619Y144145D01*
X485552Y144204D01*
X485483Y144260D01*
X485411Y144313D01*
X485336Y144363D01*
X485260Y144409D01*
X485182Y144452D01*
X485102Y144491D01*
X485020Y144527D01*
X484937Y144560D01*
X484852Y144588D01*
X484767Y144613D01*
X484680Y144635D01*
X484592Y144652D01*
X484504Y144665D01*
X484415Y144675D01*
X484326Y144681D01*
X484237Y144683D01*
X480963Y144683D01*
X480874Y144681D01*
X480785Y144675D01*
X480696Y144665D01*
X480608Y144652D01*
X480520Y144635D01*
X480433Y144613D01*
X480348Y144588D01*
X480263Y144560D01*
X480180Y144527D01*
X480098Y144491D01*
X480018Y144452D01*
X479940Y144409D01*
X479864Y144363D01*
X479789Y144313D01*
X479717Y144260D01*
X479648Y144204D01*
X479581Y144145D01*
X479516Y144084D01*
X479455Y144019D01*
X479396Y143952D01*
X479340Y143883D01*
X479287Y143811D01*
X479237Y143736D01*
X479191Y143660D01*
X479148Y143582D01*
X479109Y143502D01*
X479073Y143420D01*
X479040Y143337D01*
X479012Y143252D01*
X478987Y143167D01*
X478965Y143080D01*
X478948Y142992D01*
X478935Y142904D01*
X478925Y142815D01*
X478919Y142726D01*
X478917Y142637D01*
X478917Y140591D01*
X478917Y148410D02*
X478917Y151683D01*
X478917Y148410D02*
X486283Y148410D01*
X486283Y151683D01*
X483009Y150865D02*
X483009Y148410D01*
X486283Y154785D02*
X478917Y154785D01*
X486283Y154785D02*
X486283Y156831D01*
X486281Y156920D01*
X486275Y157009D01*
X486265Y157098D01*
X486252Y157186D01*
X486235Y157274D01*
X486213Y157361D01*
X486188Y157446D01*
X486160Y157531D01*
X486127Y157614D01*
X486091Y157696D01*
X486052Y157776D01*
X486009Y157854D01*
X485963Y157930D01*
X485913Y158005D01*
X485860Y158077D01*
X485804Y158146D01*
X485745Y158213D01*
X485684Y158278D01*
X485619Y158339D01*
X485552Y158398D01*
X485483Y158454D01*
X485411Y158507D01*
X485336Y158557D01*
X485260Y158603D01*
X485182Y158646D01*
X485102Y158685D01*
X485020Y158721D01*
X484937Y158754D01*
X484852Y158782D01*
X484767Y158807D01*
X484680Y158829D01*
X484592Y158846D01*
X484504Y158859D01*
X484415Y158869D01*
X484326Y158875D01*
X484237Y158877D01*
X484148Y158875D01*
X484059Y158869D01*
X483970Y158859D01*
X483882Y158846D01*
X483794Y158829D01*
X483707Y158807D01*
X483622Y158782D01*
X483537Y158754D01*
X483454Y158721D01*
X483372Y158685D01*
X483292Y158646D01*
X483214Y158603D01*
X483138Y158557D01*
X483063Y158507D01*
X482991Y158454D01*
X482922Y158398D01*
X482855Y158339D01*
X482790Y158278D01*
X482729Y158213D01*
X482670Y158146D01*
X482614Y158077D01*
X482561Y158005D01*
X482511Y157930D01*
X482465Y157854D01*
X482422Y157776D01*
X482383Y157696D01*
X482347Y157614D01*
X482314Y157531D01*
X482286Y157446D01*
X482261Y157361D01*
X482239Y157274D01*
X482222Y157186D01*
X482209Y157098D01*
X482199Y157009D01*
X482193Y156920D01*
X482191Y156831D01*
X482191Y154785D01*
X482191Y157240D02*
X478917Y158877D01*
X619887Y41141D02*
X627253Y41141D01*
X627253Y43187D01*
X627251Y43276D01*
X627245Y43365D01*
X627235Y43454D01*
X627222Y43542D01*
X627205Y43630D01*
X627183Y43717D01*
X627158Y43802D01*
X627130Y43887D01*
X627097Y43970D01*
X627061Y44052D01*
X627022Y44132D01*
X626979Y44210D01*
X626933Y44286D01*
X626883Y44361D01*
X626830Y44433D01*
X626774Y44502D01*
X626715Y44569D01*
X626654Y44634D01*
X626589Y44695D01*
X626522Y44754D01*
X626453Y44810D01*
X626381Y44863D01*
X626306Y44913D01*
X626230Y44959D01*
X626152Y45002D01*
X626072Y45041D01*
X625990Y45077D01*
X625907Y45110D01*
X625822Y45138D01*
X625737Y45163D01*
X625650Y45185D01*
X625562Y45202D01*
X625474Y45215D01*
X625385Y45225D01*
X625296Y45231D01*
X625207Y45233D01*
X625118Y45231D01*
X625029Y45225D01*
X624940Y45215D01*
X624852Y45202D01*
X624764Y45185D01*
X624677Y45163D01*
X624592Y45138D01*
X624507Y45110D01*
X624424Y45077D01*
X624342Y45041D01*
X624262Y45002D01*
X624184Y44959D01*
X624108Y44913D01*
X624033Y44863D01*
X623961Y44810D01*
X623892Y44754D01*
X623825Y44695D01*
X623760Y44634D01*
X623699Y44569D01*
X623640Y44502D01*
X623584Y44433D01*
X623531Y44361D01*
X623481Y44286D01*
X623435Y44210D01*
X623392Y44132D01*
X623353Y44052D01*
X623317Y43970D01*
X623284Y43887D01*
X623256Y43802D01*
X623231Y43717D01*
X623209Y43630D01*
X623192Y43542D01*
X623179Y43454D01*
X623169Y43365D01*
X623163Y43276D01*
X623161Y43187D01*
X623161Y41141D01*
X619887Y48354D02*
X619887Y51628D01*
X619887Y48354D02*
X627253Y48354D01*
X627253Y51628D01*
X623979Y50809D02*
X623979Y48354D01*
X619887Y56048D02*
X619887Y57685D01*
X619887Y56048D02*
X619889Y55970D01*
X619894Y55892D01*
X619904Y55815D01*
X619917Y55738D01*
X619933Y55662D01*
X619953Y55587D01*
X619977Y55513D01*
X620004Y55440D01*
X620035Y55368D01*
X620069Y55298D01*
X620106Y55230D01*
X620147Y55163D01*
X620191Y55098D01*
X620237Y55036D01*
X620287Y54976D01*
X620339Y54918D01*
X620394Y54863D01*
X620452Y54811D01*
X620512Y54761D01*
X620574Y54715D01*
X620639Y54671D01*
X620706Y54630D01*
X620774Y54593D01*
X620844Y54559D01*
X620916Y54528D01*
X620989Y54501D01*
X621063Y54477D01*
X621138Y54457D01*
X621214Y54441D01*
X621291Y54428D01*
X621368Y54418D01*
X621446Y54413D01*
X621524Y54411D01*
X625616Y54411D01*
X625694Y54413D01*
X625772Y54418D01*
X625849Y54428D01*
X625926Y54441D01*
X626002Y54457D01*
X626077Y54477D01*
X626151Y54501D01*
X626224Y54528D01*
X626296Y54559D01*
X626366Y54593D01*
X626435Y54630D01*
X626501Y54671D01*
X626566Y54715D01*
X626628Y54761D01*
X626688Y54811D01*
X626746Y54863D01*
X626801Y54918D01*
X626853Y54976D01*
X626903Y55036D01*
X626949Y55098D01*
X626993Y55163D01*
X627034Y55230D01*
X627071Y55298D01*
X627105Y55368D01*
X627136Y55440D01*
X627163Y55513D01*
X627187Y55587D01*
X627207Y55662D01*
X627223Y55738D01*
X627236Y55815D01*
X627246Y55892D01*
X627251Y55970D01*
X627253Y56048D01*
X627253Y57685D01*
X625616Y60530D02*
X627253Y62576D01*
X619887Y62576D01*
X619887Y60530D02*
X619887Y64623D01*
X625412Y71938D02*
X625497Y71936D01*
X625582Y71930D01*
X625666Y71920D01*
X625750Y71907D01*
X625834Y71889D01*
X625916Y71868D01*
X625997Y71843D01*
X626077Y71814D01*
X626156Y71781D01*
X626233Y71745D01*
X626308Y71705D01*
X626382Y71662D01*
X626453Y71616D01*
X626522Y71566D01*
X626589Y71513D01*
X626653Y71457D01*
X626714Y71398D01*
X626773Y71337D01*
X626829Y71273D01*
X626882Y71206D01*
X626932Y71137D01*
X626978Y71066D01*
X627021Y70992D01*
X627061Y70917D01*
X627097Y70840D01*
X627130Y70761D01*
X627159Y70681D01*
X627184Y70600D01*
X627205Y70518D01*
X627223Y70434D01*
X627236Y70350D01*
X627246Y70266D01*
X627252Y70181D01*
X627254Y70096D01*
X627253Y70096D02*
X627251Y70000D01*
X627245Y69904D01*
X627235Y69809D01*
X627222Y69714D01*
X627204Y69619D01*
X627183Y69526D01*
X627158Y69433D01*
X627129Y69342D01*
X627097Y69251D01*
X627061Y69162D01*
X627021Y69075D01*
X626978Y68989D01*
X626932Y68905D01*
X626882Y68823D01*
X626828Y68743D01*
X626772Y68666D01*
X626712Y68591D01*
X626650Y68518D01*
X626584Y68448D01*
X626516Y68380D01*
X626445Y68315D01*
X626372Y68254D01*
X626296Y68195D01*
X626217Y68139D01*
X626137Y68087D01*
X626054Y68038D01*
X625970Y67992D01*
X625884Y67950D01*
X625796Y67912D01*
X625707Y67877D01*
X625616Y67845D01*
X623980Y71324D02*
X624039Y71384D01*
X624101Y71441D01*
X624165Y71496D01*
X624232Y71547D01*
X624301Y71596D01*
X624371Y71642D01*
X624444Y71685D01*
X624518Y71725D01*
X624594Y71761D01*
X624672Y71794D01*
X624751Y71824D01*
X624831Y71851D01*
X624912Y71874D01*
X624994Y71893D01*
X625076Y71909D01*
X625160Y71922D01*
X625244Y71931D01*
X625328Y71936D01*
X625412Y71938D01*
X623979Y71324D02*
X619887Y67846D01*
X619887Y71938D01*
X619887Y75456D02*
X627253Y75456D01*
X627253Y77502D01*
X627251Y77591D01*
X627245Y77680D01*
X627235Y77769D01*
X627222Y77857D01*
X627205Y77945D01*
X627183Y78032D01*
X627158Y78117D01*
X627130Y78202D01*
X627097Y78285D01*
X627061Y78367D01*
X627022Y78447D01*
X626979Y78525D01*
X626933Y78601D01*
X626883Y78676D01*
X626830Y78748D01*
X626774Y78817D01*
X626715Y78884D01*
X626654Y78949D01*
X626589Y79010D01*
X626522Y79069D01*
X626453Y79125D01*
X626381Y79178D01*
X626306Y79228D01*
X626230Y79274D01*
X626152Y79317D01*
X626072Y79356D01*
X625990Y79392D01*
X625907Y79425D01*
X625822Y79453D01*
X625737Y79478D01*
X625650Y79500D01*
X625562Y79517D01*
X625474Y79530D01*
X625385Y79540D01*
X625296Y79546D01*
X625207Y79548D01*
X625118Y79546D01*
X625029Y79540D01*
X624940Y79530D01*
X624852Y79517D01*
X624764Y79500D01*
X624677Y79478D01*
X624592Y79453D01*
X624507Y79425D01*
X624424Y79392D01*
X624342Y79356D01*
X624262Y79317D01*
X624184Y79274D01*
X624108Y79228D01*
X624033Y79178D01*
X623961Y79125D01*
X623892Y79069D01*
X623825Y79010D01*
X623760Y78949D01*
X623699Y78884D01*
X623640Y78817D01*
X623584Y78748D01*
X623531Y78676D01*
X623481Y78601D01*
X623435Y78525D01*
X623392Y78447D01*
X623353Y78367D01*
X623317Y78285D01*
X623284Y78202D01*
X623256Y78117D01*
X623231Y78032D01*
X623209Y77945D01*
X623192Y77857D01*
X623179Y77769D01*
X623169Y77680D01*
X623163Y77591D01*
X623161Y77502D01*
X623161Y75456D01*
X623161Y77911D02*
X619887Y79548D01*
X622752Y82798D02*
X622752Y87709D01*
X619887Y91010D02*
X619887Y93056D01*
X619889Y93145D01*
X619895Y93234D01*
X619905Y93323D01*
X619918Y93411D01*
X619935Y93499D01*
X619957Y93586D01*
X619982Y93671D01*
X620010Y93756D01*
X620043Y93839D01*
X620079Y93921D01*
X620118Y94001D01*
X620161Y94079D01*
X620207Y94155D01*
X620257Y94230D01*
X620310Y94302D01*
X620366Y94371D01*
X620425Y94438D01*
X620486Y94503D01*
X620551Y94564D01*
X620618Y94623D01*
X620687Y94679D01*
X620759Y94732D01*
X620834Y94782D01*
X620910Y94828D01*
X620988Y94871D01*
X621068Y94910D01*
X621150Y94946D01*
X621233Y94979D01*
X621318Y95007D01*
X621403Y95032D01*
X621490Y95054D01*
X621578Y95071D01*
X621666Y95084D01*
X621755Y95094D01*
X621844Y95100D01*
X621933Y95102D01*
X622022Y95100D01*
X622111Y95094D01*
X622200Y95084D01*
X622288Y95071D01*
X622376Y95054D01*
X622463Y95032D01*
X622548Y95007D01*
X622633Y94979D01*
X622716Y94946D01*
X622798Y94910D01*
X622878Y94871D01*
X622956Y94828D01*
X623032Y94782D01*
X623107Y94732D01*
X623179Y94679D01*
X623248Y94623D01*
X623315Y94564D01*
X623380Y94503D01*
X623441Y94438D01*
X623500Y94371D01*
X623556Y94302D01*
X623609Y94230D01*
X623659Y94155D01*
X623705Y94079D01*
X623748Y94001D01*
X623787Y93921D01*
X623823Y93839D01*
X623856Y93756D01*
X623884Y93671D01*
X623909Y93586D01*
X623931Y93499D01*
X623948Y93411D01*
X623961Y93323D01*
X623971Y93234D01*
X623977Y93145D01*
X623979Y93056D01*
X627253Y93466D02*
X627253Y91010D01*
X627253Y93466D02*
X627251Y93545D01*
X627245Y93624D01*
X627236Y93703D01*
X627223Y93781D01*
X627205Y93858D01*
X627185Y93934D01*
X627160Y94009D01*
X627132Y94083D01*
X627101Y94156D01*
X627065Y94227D01*
X627027Y94296D01*
X626985Y94363D01*
X626940Y94428D01*
X626892Y94491D01*
X626841Y94552D01*
X626787Y94609D01*
X626731Y94665D01*
X626672Y94717D01*
X626610Y94767D01*
X626546Y94813D01*
X626480Y94857D01*
X626412Y94897D01*
X626342Y94933D01*
X626270Y94967D01*
X626196Y94997D01*
X626122Y95023D01*
X626046Y95046D01*
X625969Y95064D01*
X625892Y95080D01*
X625813Y95091D01*
X625735Y95099D01*
X625656Y95103D01*
X625576Y95103D01*
X625497Y95099D01*
X625419Y95091D01*
X625340Y95080D01*
X625263Y95064D01*
X625186Y95046D01*
X625110Y95023D01*
X625036Y94997D01*
X624962Y94967D01*
X624890Y94933D01*
X624820Y94897D01*
X624752Y94857D01*
X624686Y94813D01*
X624622Y94767D01*
X624560Y94717D01*
X624501Y94665D01*
X624445Y94609D01*
X624391Y94552D01*
X624340Y94491D01*
X624292Y94428D01*
X624247Y94363D01*
X624205Y94296D01*
X624167Y94227D01*
X624131Y94156D01*
X624100Y94083D01*
X624072Y94009D01*
X624047Y93934D01*
X624027Y93858D01*
X624009Y93781D01*
X623996Y93703D01*
X623987Y93624D01*
X623981Y93545D01*
X623979Y93466D01*
X623979Y91829D01*
X627254Y100576D02*
X627252Y100661D01*
X627246Y100746D01*
X627236Y100830D01*
X627223Y100914D01*
X627205Y100998D01*
X627184Y101080D01*
X627159Y101161D01*
X627130Y101241D01*
X627097Y101320D01*
X627061Y101397D01*
X627021Y101472D01*
X626978Y101546D01*
X626932Y101617D01*
X626882Y101686D01*
X626829Y101753D01*
X626773Y101817D01*
X626714Y101878D01*
X626653Y101937D01*
X626589Y101993D01*
X626522Y102046D01*
X626453Y102096D01*
X626382Y102142D01*
X626308Y102185D01*
X626233Y102225D01*
X626156Y102261D01*
X626077Y102294D01*
X625997Y102323D01*
X625916Y102348D01*
X625834Y102369D01*
X625750Y102387D01*
X625666Y102400D01*
X625582Y102410D01*
X625497Y102416D01*
X625412Y102418D01*
X627253Y100576D02*
X627251Y100480D01*
X627245Y100384D01*
X627235Y100289D01*
X627222Y100194D01*
X627204Y100099D01*
X627183Y100006D01*
X627158Y99913D01*
X627129Y99822D01*
X627097Y99731D01*
X627061Y99642D01*
X627021Y99555D01*
X626978Y99469D01*
X626932Y99385D01*
X626882Y99303D01*
X626828Y99223D01*
X626772Y99146D01*
X626712Y99071D01*
X626650Y98998D01*
X626584Y98928D01*
X626516Y98860D01*
X626445Y98795D01*
X626372Y98734D01*
X626296Y98675D01*
X626217Y98619D01*
X626137Y98567D01*
X626054Y98518D01*
X625970Y98472D01*
X625884Y98430D01*
X625796Y98392D01*
X625707Y98357D01*
X625616Y98325D01*
X623980Y101804D02*
X624039Y101864D01*
X624101Y101921D01*
X624165Y101976D01*
X624232Y102027D01*
X624301Y102076D01*
X624371Y102122D01*
X624444Y102165D01*
X624518Y102205D01*
X624594Y102241D01*
X624672Y102274D01*
X624751Y102304D01*
X624831Y102331D01*
X624912Y102354D01*
X624994Y102373D01*
X625076Y102389D01*
X625160Y102402D01*
X625244Y102411D01*
X625328Y102416D01*
X625412Y102418D01*
X623979Y101804D02*
X619887Y98326D01*
X619887Y102418D01*
X625616Y105641D02*
X627253Y107687D01*
X619887Y107687D01*
X619887Y105641D02*
X619887Y109733D01*
X626435Y112956D02*
X627253Y112956D01*
X627253Y117048D01*
X619887Y115002D01*
X619887Y120531D02*
X627253Y120531D01*
X627253Y123805D01*
X623979Y123805D02*
X623979Y120531D01*
X622752Y126690D02*
X622752Y131600D01*
X619887Y137113D02*
X619889Y137191D01*
X619894Y137269D01*
X619904Y137346D01*
X619917Y137423D01*
X619933Y137499D01*
X619953Y137574D01*
X619977Y137648D01*
X620004Y137721D01*
X620035Y137793D01*
X620069Y137863D01*
X620106Y137932D01*
X620147Y137998D01*
X620191Y138063D01*
X620237Y138125D01*
X620287Y138185D01*
X620339Y138243D01*
X620394Y138298D01*
X620452Y138350D01*
X620512Y138400D01*
X620574Y138446D01*
X620639Y138490D01*
X620706Y138531D01*
X620774Y138568D01*
X620844Y138602D01*
X620916Y138633D01*
X620989Y138660D01*
X621063Y138684D01*
X621138Y138704D01*
X621214Y138720D01*
X621291Y138733D01*
X621368Y138743D01*
X621446Y138748D01*
X621524Y138750D01*
X619887Y137113D02*
X619889Y136999D01*
X619894Y136886D01*
X619904Y136772D01*
X619917Y136659D01*
X619934Y136547D01*
X619954Y136435D01*
X619978Y136324D01*
X620006Y136213D01*
X620037Y136104D01*
X620072Y135996D01*
X620111Y135889D01*
X620153Y135783D01*
X620198Y135679D01*
X620247Y135576D01*
X620300Y135475D01*
X620355Y135376D01*
X620414Y135278D01*
X620476Y135183D01*
X620541Y135090D01*
X620609Y134998D01*
X620680Y134910D01*
X620754Y134823D01*
X620831Y134739D01*
X620910Y134658D01*
X625616Y134862D02*
X625694Y134864D01*
X625772Y134869D01*
X625849Y134879D01*
X625926Y134892D01*
X626002Y134908D01*
X626077Y134928D01*
X626151Y134952D01*
X626224Y134979D01*
X626296Y135010D01*
X626366Y135044D01*
X626435Y135081D01*
X626501Y135122D01*
X626566Y135166D01*
X626628Y135212D01*
X626688Y135262D01*
X626746Y135314D01*
X626801Y135369D01*
X626853Y135427D01*
X626903Y135487D01*
X626949Y135549D01*
X626993Y135614D01*
X627034Y135681D01*
X627071Y135749D01*
X627105Y135819D01*
X627136Y135891D01*
X627163Y135964D01*
X627187Y136038D01*
X627207Y136113D01*
X627223Y136189D01*
X627236Y136266D01*
X627246Y136343D01*
X627251Y136421D01*
X627253Y136499D01*
X627251Y136609D01*
X627245Y136718D01*
X627235Y136828D01*
X627222Y136936D01*
X627204Y137045D01*
X627183Y137152D01*
X627157Y137259D01*
X627128Y137365D01*
X627096Y137470D01*
X627059Y137573D01*
X627019Y137675D01*
X626975Y137776D01*
X626927Y137875D01*
X626877Y137972D01*
X626822Y138067D01*
X626764Y138160D01*
X626703Y138251D01*
X626639Y138340D01*
X624183Y135681D02*
X624225Y135614D01*
X624269Y135549D01*
X624317Y135487D01*
X624367Y135427D01*
X624420Y135369D01*
X624476Y135314D01*
X624535Y135262D01*
X624595Y135212D01*
X624659Y135165D01*
X624724Y135122D01*
X624791Y135081D01*
X624860Y135044D01*
X624931Y135010D01*
X625003Y134979D01*
X625077Y134952D01*
X625151Y134928D01*
X625227Y134908D01*
X625304Y134892D01*
X625381Y134879D01*
X625459Y134869D01*
X625538Y134864D01*
X625616Y134862D01*
X622956Y137932D02*
X622914Y137998D01*
X622870Y138063D01*
X622823Y138125D01*
X622772Y138185D01*
X622719Y138243D01*
X622663Y138298D01*
X622605Y138351D01*
X622544Y138400D01*
X622481Y138447D01*
X622416Y138490D01*
X622349Y138531D01*
X622280Y138568D01*
X622209Y138602D01*
X622137Y138633D01*
X622063Y138660D01*
X621988Y138684D01*
X621913Y138704D01*
X621836Y138720D01*
X621759Y138733D01*
X621681Y138743D01*
X621602Y138748D01*
X621524Y138750D01*
X622956Y137932D02*
X624184Y135681D01*
X623570Y141729D02*
X623723Y141731D01*
X623876Y141737D01*
X624028Y141746D01*
X624181Y141760D01*
X624333Y141777D01*
X624484Y141798D01*
X624635Y141823D01*
X624785Y141852D01*
X624935Y141884D01*
X625083Y141921D01*
X625231Y141961D01*
X625378Y142004D01*
X625523Y142052D01*
X625667Y142103D01*
X625810Y142157D01*
X625952Y142216D01*
X626091Y142277D01*
X626230Y142343D01*
X626300Y142369D01*
X626370Y142399D01*
X626437Y142432D01*
X626503Y142468D01*
X626567Y142507D01*
X626629Y142550D01*
X626688Y142596D01*
X626746Y142644D01*
X626800Y142695D01*
X626853Y142749D01*
X626902Y142806D01*
X626949Y142865D01*
X626992Y142926D01*
X627033Y142989D01*
X627070Y143054D01*
X627105Y143121D01*
X627135Y143190D01*
X627163Y143260D01*
X627186Y143331D01*
X627207Y143403D01*
X627223Y143476D01*
X627236Y143550D01*
X627246Y143625D01*
X627251Y143700D01*
X627253Y143775D01*
X627251Y143850D01*
X627246Y143925D01*
X627236Y144000D01*
X627223Y144074D01*
X627207Y144147D01*
X627186Y144219D01*
X627163Y144290D01*
X627135Y144360D01*
X627105Y144429D01*
X627070Y144496D01*
X627033Y144561D01*
X626992Y144624D01*
X626949Y144685D01*
X626902Y144744D01*
X626853Y144801D01*
X626800Y144855D01*
X626746Y144906D01*
X626688Y144955D01*
X626629Y145000D01*
X626567Y145043D01*
X626503Y145082D01*
X626437Y145119D01*
X626369Y145151D01*
X626300Y145181D01*
X626230Y145207D01*
X626092Y145272D01*
X625952Y145334D01*
X625810Y145392D01*
X625667Y145447D01*
X625523Y145498D01*
X625378Y145546D01*
X625231Y145589D01*
X625084Y145629D01*
X624935Y145666D01*
X624785Y145698D01*
X624635Y145727D01*
X624484Y145752D01*
X624333Y145773D01*
X624181Y145790D01*
X624028Y145804D01*
X623876Y145813D01*
X623723Y145819D01*
X623570Y145821D01*
X623570Y141729D02*
X623417Y141731D01*
X623264Y141737D01*
X623111Y141746D01*
X622959Y141760D01*
X622807Y141777D01*
X622656Y141798D01*
X622505Y141823D01*
X622354Y141852D01*
X622205Y141884D01*
X622056Y141921D01*
X621909Y141961D01*
X621762Y142004D01*
X621617Y142052D01*
X621472Y142103D01*
X621330Y142158D01*
X621188Y142216D01*
X621048Y142278D01*
X620910Y142343D01*
X620839Y142369D01*
X620770Y142399D01*
X620703Y142432D01*
X620637Y142468D01*
X620573Y142507D01*
X620511Y142550D01*
X620452Y142596D01*
X620394Y142644D01*
X620340Y142695D01*
X620287Y142749D01*
X620238Y142806D01*
X620191Y142865D01*
X620148Y142926D01*
X620107Y142989D01*
X620070Y143054D01*
X620035Y143121D01*
X620005Y143190D01*
X619977Y143260D01*
X619954Y143331D01*
X619933Y143403D01*
X619917Y143476D01*
X619904Y143550D01*
X619894Y143625D01*
X619889Y143700D01*
X619887Y143775D01*
X620910Y145207D02*
X621048Y145272D01*
X621188Y145334D01*
X621330Y145392D01*
X621473Y145447D01*
X621617Y145498D01*
X621762Y145546D01*
X621909Y145589D01*
X622057Y145629D01*
X622205Y145666D01*
X622355Y145698D01*
X622505Y145727D01*
X622656Y145752D01*
X622807Y145773D01*
X622959Y145790D01*
X623112Y145804D01*
X623264Y145813D01*
X623417Y145819D01*
X623570Y145821D01*
X620910Y145207D02*
X620840Y145181D01*
X620770Y145151D01*
X620703Y145119D01*
X620637Y145082D01*
X620573Y145043D01*
X620511Y145000D01*
X620452Y144954D01*
X620394Y144906D01*
X620340Y144855D01*
X620287Y144801D01*
X620238Y144744D01*
X620191Y144685D01*
X620148Y144624D01*
X620107Y144561D01*
X620070Y144496D01*
X620035Y144429D01*
X620005Y144360D01*
X619977Y144290D01*
X619954Y144219D01*
X619933Y144147D01*
X619917Y144074D01*
X619904Y144000D01*
X619894Y143925D01*
X619889Y143850D01*
X619887Y143775D01*
X621524Y142138D02*
X625616Y145412D01*
X623570Y149045D02*
X623723Y149047D01*
X623876Y149053D01*
X624028Y149062D01*
X624181Y149076D01*
X624333Y149093D01*
X624484Y149114D01*
X624635Y149139D01*
X624785Y149168D01*
X624935Y149200D01*
X625083Y149237D01*
X625231Y149277D01*
X625378Y149320D01*
X625523Y149368D01*
X625667Y149419D01*
X625810Y149473D01*
X625952Y149532D01*
X626091Y149593D01*
X626230Y149659D01*
X626230Y149658D02*
X626300Y149684D01*
X626370Y149714D01*
X626437Y149747D01*
X626503Y149783D01*
X626567Y149822D01*
X626629Y149865D01*
X626688Y149911D01*
X626746Y149959D01*
X626800Y150010D01*
X626853Y150064D01*
X626902Y150121D01*
X626949Y150180D01*
X626992Y150241D01*
X627033Y150304D01*
X627070Y150369D01*
X627105Y150436D01*
X627135Y150505D01*
X627163Y150575D01*
X627186Y150646D01*
X627207Y150718D01*
X627223Y150791D01*
X627236Y150865D01*
X627246Y150940D01*
X627251Y151015D01*
X627253Y151090D01*
X627251Y151165D01*
X627246Y151240D01*
X627236Y151315D01*
X627223Y151389D01*
X627207Y151462D01*
X627186Y151534D01*
X627163Y151605D01*
X627135Y151675D01*
X627105Y151744D01*
X627070Y151811D01*
X627033Y151876D01*
X626992Y151939D01*
X626949Y152000D01*
X626902Y152059D01*
X626853Y152116D01*
X626800Y152170D01*
X626746Y152221D01*
X626688Y152270D01*
X626629Y152315D01*
X626567Y152358D01*
X626503Y152397D01*
X626437Y152434D01*
X626369Y152466D01*
X626300Y152496D01*
X626230Y152522D01*
X626230Y152523D02*
X626092Y152588D01*
X625952Y152650D01*
X625810Y152708D01*
X625667Y152763D01*
X625523Y152814D01*
X625378Y152862D01*
X625231Y152905D01*
X625084Y152945D01*
X624935Y152982D01*
X624785Y153014D01*
X624635Y153043D01*
X624484Y153068D01*
X624333Y153089D01*
X624181Y153106D01*
X624028Y153120D01*
X623876Y153129D01*
X623723Y153135D01*
X623570Y153137D01*
X623570Y149044D02*
X623417Y149046D01*
X623264Y149052D01*
X623111Y149061D01*
X622959Y149075D01*
X622807Y149092D01*
X622656Y149113D01*
X622505Y149138D01*
X622354Y149167D01*
X622205Y149199D01*
X622056Y149236D01*
X621909Y149276D01*
X621762Y149319D01*
X621617Y149367D01*
X621472Y149418D01*
X621330Y149473D01*
X621188Y149531D01*
X621048Y149593D01*
X620910Y149658D01*
X620839Y149684D01*
X620770Y149714D01*
X620703Y149747D01*
X620637Y149783D01*
X620573Y149822D01*
X620511Y149865D01*
X620452Y149911D01*
X620394Y149959D01*
X620340Y150010D01*
X620287Y150064D01*
X620238Y150121D01*
X620191Y150180D01*
X620148Y150241D01*
X620107Y150304D01*
X620070Y150369D01*
X620035Y150436D01*
X620005Y150505D01*
X619977Y150575D01*
X619954Y150646D01*
X619933Y150718D01*
X619917Y150791D01*
X619904Y150865D01*
X619894Y150940D01*
X619889Y151015D01*
X619887Y151090D01*
X620910Y152522D02*
X621048Y152587D01*
X621188Y152649D01*
X621330Y152707D01*
X621473Y152762D01*
X621617Y152813D01*
X621762Y152861D01*
X621909Y152904D01*
X622057Y152944D01*
X622205Y152981D01*
X622355Y153013D01*
X622505Y153042D01*
X622656Y153067D01*
X622807Y153088D01*
X622959Y153105D01*
X623112Y153119D01*
X623264Y153128D01*
X623417Y153134D01*
X623570Y153136D01*
X620910Y152522D02*
X620840Y152496D01*
X620770Y152466D01*
X620703Y152434D01*
X620637Y152397D01*
X620573Y152358D01*
X620511Y152315D01*
X620452Y152269D01*
X620394Y152221D01*
X620340Y152170D01*
X620287Y152116D01*
X620238Y152059D01*
X620191Y152000D01*
X620148Y151939D01*
X620107Y151876D01*
X620070Y151811D01*
X620035Y151744D01*
X620005Y151675D01*
X619977Y151605D01*
X619954Y151534D01*
X619933Y151462D01*
X619917Y151389D01*
X619904Y151315D01*
X619894Y151240D01*
X619889Y151165D01*
X619887Y151090D01*
X621524Y149454D02*
X625616Y152727D01*
X627254Y158610D02*
X627252Y158695D01*
X627246Y158780D01*
X627236Y158864D01*
X627223Y158948D01*
X627205Y159032D01*
X627184Y159114D01*
X627159Y159195D01*
X627130Y159275D01*
X627097Y159354D01*
X627061Y159431D01*
X627021Y159506D01*
X626978Y159580D01*
X626932Y159651D01*
X626882Y159720D01*
X626829Y159787D01*
X626773Y159851D01*
X626714Y159912D01*
X626653Y159971D01*
X626589Y160027D01*
X626522Y160080D01*
X626453Y160130D01*
X626382Y160176D01*
X626308Y160219D01*
X626233Y160259D01*
X626156Y160295D01*
X626077Y160328D01*
X625997Y160357D01*
X625916Y160382D01*
X625834Y160403D01*
X625750Y160421D01*
X625666Y160434D01*
X625582Y160444D01*
X625497Y160450D01*
X625412Y160452D01*
X627253Y158610D02*
X627251Y158514D01*
X627245Y158418D01*
X627235Y158323D01*
X627222Y158228D01*
X627204Y158133D01*
X627183Y158040D01*
X627158Y157947D01*
X627129Y157856D01*
X627097Y157765D01*
X627061Y157676D01*
X627021Y157589D01*
X626978Y157503D01*
X626932Y157419D01*
X626882Y157337D01*
X626828Y157257D01*
X626772Y157180D01*
X626712Y157105D01*
X626650Y157032D01*
X626584Y156962D01*
X626516Y156894D01*
X626445Y156829D01*
X626372Y156768D01*
X626296Y156709D01*
X626217Y156653D01*
X626137Y156601D01*
X626054Y156552D01*
X625970Y156506D01*
X625884Y156464D01*
X625796Y156426D01*
X625707Y156391D01*
X625616Y156359D01*
X623980Y159838D02*
X624039Y159898D01*
X624101Y159955D01*
X624165Y160010D01*
X624232Y160061D01*
X624301Y160110D01*
X624371Y160156D01*
X624444Y160199D01*
X624518Y160239D01*
X624594Y160275D01*
X624672Y160308D01*
X624751Y160338D01*
X624831Y160365D01*
X624912Y160388D01*
X624994Y160407D01*
X625076Y160423D01*
X625160Y160436D01*
X625244Y160445D01*
X625328Y160450D01*
X625412Y160452D01*
X623979Y159838D02*
X619887Y156360D01*
X619887Y160452D01*
X621524Y163675D02*
X627253Y165312D01*
X621524Y163675D02*
X621524Y167767D01*
X623161Y166539D02*
X619887Y166539D01*
M02*
