G04 EAGLE Gerber RS-274X export*
G75*
%MOMM*%
%FSLAX34Y34*%
%LPD*%
%INBottom Copper*%
%IPPOS*%
%AMOC8*
5,1,8,0,0,1.08239X$1,22.5*%
G01*
%ADD10C,1.138000*%
%ADD11C,1.524000*%
%ADD12C,1.508000*%
%ADD13C,1.408000*%
%ADD14C,1.275000*%
%ADD15C,1.016000*%
%ADD16C,0.508000*%
%ADD17C,0.756400*%
%ADD18C,0.609600*%
%ADD19C,0.812800*%
%ADD20C,1.006400*%
%ADD21C,0.806400*%
%ADD22C,1.056400*%

G36*
X660476Y10141D02*
X660476Y10141D01*
X660624Y10145D01*
X660700Y10161D01*
X660777Y10168D01*
X660920Y10207D01*
X661065Y10237D01*
X661136Y10266D01*
X661211Y10286D01*
X661344Y10350D01*
X661482Y10405D01*
X661548Y10446D01*
X661618Y10480D01*
X661738Y10566D01*
X661864Y10645D01*
X661940Y10710D01*
X661984Y10742D01*
X662022Y10781D01*
X662100Y10849D01*
X675105Y23524D01*
X675223Y23661D01*
X675346Y23794D01*
X675370Y23832D01*
X675399Y23866D01*
X675490Y24021D01*
X675587Y24174D01*
X675604Y24215D01*
X675627Y24254D01*
X675690Y24423D01*
X675758Y24590D01*
X675768Y24634D01*
X675783Y24676D01*
X675815Y24854D01*
X675837Y24955D01*
X675844Y24983D01*
X675844Y24988D01*
X675853Y25030D01*
X675856Y25085D01*
X675862Y25119D01*
X675862Y25182D01*
X675872Y25342D01*
X675872Y50712D01*
X675870Y50735D01*
X675872Y50758D01*
X675850Y50958D01*
X675832Y51160D01*
X675826Y51183D01*
X675824Y51206D01*
X675767Y51400D01*
X675714Y51595D01*
X675704Y51615D01*
X675697Y51638D01*
X675607Y51820D01*
X675520Y52001D01*
X675507Y52020D01*
X675497Y52041D01*
X675375Y52204D01*
X675258Y52367D01*
X675242Y52383D01*
X675228Y52402D01*
X675080Y52541D01*
X674936Y52681D01*
X674916Y52694D01*
X674900Y52710D01*
X674730Y52821D01*
X674563Y52933D01*
X674541Y52943D01*
X674522Y52955D01*
X674336Y53034D01*
X674151Y53116D01*
X674128Y53121D01*
X674107Y53130D01*
X673910Y53174D01*
X673713Y53222D01*
X673690Y53224D01*
X673668Y53229D01*
X673466Y53238D01*
X673264Y53250D01*
X673241Y53247D01*
X673218Y53248D01*
X673019Y53222D01*
X672817Y53198D01*
X672794Y53191D01*
X672772Y53188D01*
X672580Y53126D01*
X672386Y53068D01*
X672365Y53057D01*
X672343Y53050D01*
X672063Y52911D01*
X670436Y51971D01*
X663823Y50199D01*
X656977Y50199D01*
X650364Y51971D01*
X644435Y55394D01*
X639594Y60235D01*
X636171Y66164D01*
X634399Y72777D01*
X634399Y79623D01*
X636171Y86236D01*
X639594Y92165D01*
X644435Y97006D01*
X650364Y100429D01*
X656977Y102201D01*
X663823Y102201D01*
X670436Y100429D01*
X672063Y99489D01*
X672084Y99479D01*
X672103Y99467D01*
X672288Y99385D01*
X672472Y99300D01*
X672494Y99294D01*
X672515Y99284D01*
X672712Y99236D01*
X672907Y99185D01*
X672930Y99183D01*
X672953Y99178D01*
X673154Y99165D01*
X673356Y99149D01*
X673379Y99151D01*
X673402Y99150D01*
X673603Y99173D01*
X673804Y99193D01*
X673826Y99199D01*
X673849Y99202D01*
X674044Y99261D01*
X674237Y99316D01*
X674258Y99326D01*
X674280Y99332D01*
X674461Y99424D01*
X674642Y99513D01*
X674661Y99526D01*
X674682Y99537D01*
X674843Y99659D01*
X675006Y99778D01*
X675022Y99795D01*
X675040Y99809D01*
X675178Y99958D01*
X675317Y100104D01*
X675330Y100123D01*
X675346Y100140D01*
X675455Y100311D01*
X675566Y100479D01*
X675575Y100500D01*
X675587Y100520D01*
X675664Y100707D01*
X675744Y100892D01*
X675750Y100915D01*
X675758Y100936D01*
X675801Y101134D01*
X675847Y101331D01*
X675848Y101354D01*
X675853Y101376D01*
X675872Y101688D01*
X675872Y111695D01*
X675867Y111751D01*
X675868Y111767D01*
X675858Y111852D01*
X675857Y111868D01*
X675848Y112043D01*
X675837Y112092D01*
X675832Y112143D01*
X675818Y112194D01*
X675816Y112214D01*
X675786Y112315D01*
X675747Y112481D01*
X675727Y112528D01*
X675714Y112578D01*
X675693Y112621D01*
X675686Y112645D01*
X675634Y112748D01*
X675570Y112895D01*
X675542Y112938D01*
X675520Y112984D01*
X675495Y113020D01*
X675481Y113046D01*
X675405Y113147D01*
X675323Y113272D01*
X675281Y113319D01*
X675258Y113350D01*
X675230Y113377D01*
X675209Y113405D01*
X675175Y113437D01*
X675114Y113504D01*
X657594Y130751D01*
X657511Y130819D01*
X657435Y130895D01*
X657394Y130923D01*
X655815Y132502D01*
X655809Y132507D01*
X655801Y132516D01*
X654370Y133925D01*
X653602Y135778D01*
X653598Y135786D01*
X653595Y135797D01*
X652812Y137644D01*
X652812Y139650D01*
X652812Y139658D01*
X652812Y139670D01*
X652795Y141884D01*
X652804Y142030D01*
X652811Y142092D01*
X652809Y142121D01*
X652812Y142168D01*
X652812Y216141D01*
X652806Y216215D01*
X652808Y216289D01*
X652786Y216439D01*
X652772Y216589D01*
X652753Y216661D01*
X652748Y216694D01*
X652811Y218567D01*
X652809Y218600D01*
X652812Y218653D01*
X652812Y220539D01*
X652838Y220621D01*
X652847Y220695D01*
X652856Y220728D01*
X653631Y222434D01*
X653642Y222465D01*
X653665Y222512D01*
X654386Y224255D01*
X654442Y224321D01*
X654479Y224385D01*
X654499Y224413D01*
X655868Y225693D01*
X655890Y225717D01*
X655929Y225752D01*
X657263Y227085D01*
X657339Y227125D01*
X657398Y227171D01*
X657462Y227209D01*
X657680Y227389D01*
X657695Y227401D01*
X657698Y227404D01*
X657703Y227408D01*
X675067Y243643D01*
X675206Y243798D01*
X675346Y243950D01*
X675355Y243965D01*
X675368Y243979D01*
X675476Y244155D01*
X675587Y244329D01*
X675594Y244346D01*
X675604Y244362D01*
X675680Y244555D01*
X675758Y244746D01*
X675762Y244764D01*
X675769Y244781D01*
X675810Y244984D01*
X675853Y245186D01*
X675854Y245208D01*
X675857Y245222D01*
X675858Y245270D01*
X675872Y245498D01*
X675872Y330112D01*
X675871Y330130D01*
X675871Y330142D01*
X675871Y330145D01*
X675872Y330158D01*
X675850Y330358D01*
X675832Y330560D01*
X675826Y330583D01*
X675824Y330606D01*
X675767Y330800D01*
X675714Y330995D01*
X675704Y331015D01*
X675697Y331038D01*
X675607Y331220D01*
X675520Y331401D01*
X675507Y331420D01*
X675497Y331441D01*
X675375Y331604D01*
X675258Y331767D01*
X675242Y331783D01*
X675228Y331802D01*
X675080Y331941D01*
X674936Y332081D01*
X674916Y332094D01*
X674900Y332110D01*
X674730Y332221D01*
X674563Y332333D01*
X674541Y332343D01*
X674522Y332355D01*
X674336Y332434D01*
X674151Y332516D01*
X674128Y332521D01*
X674107Y332530D01*
X673910Y332574D01*
X673713Y332622D01*
X673690Y332624D01*
X673668Y332629D01*
X673466Y332638D01*
X673264Y332650D01*
X673241Y332647D01*
X673218Y332648D01*
X673019Y332622D01*
X672817Y332598D01*
X672794Y332591D01*
X672772Y332588D01*
X672580Y332526D01*
X672386Y332468D01*
X672365Y332457D01*
X672343Y332450D01*
X672063Y332311D01*
X670436Y331371D01*
X663823Y329599D01*
X656977Y329599D01*
X650364Y331371D01*
X647914Y332786D01*
X647893Y332796D01*
X647874Y332809D01*
X647688Y332891D01*
X647505Y332976D01*
X647483Y332982D01*
X647462Y332991D01*
X647265Y333039D01*
X647070Y333090D01*
X647047Y333092D01*
X647024Y333098D01*
X646823Y333110D01*
X646621Y333126D01*
X646598Y333124D01*
X646575Y333125D01*
X646374Y333102D01*
X646173Y333082D01*
X646151Y333076D01*
X646128Y333073D01*
X645933Y333014D01*
X645740Y332960D01*
X645719Y332950D01*
X645697Y332943D01*
X645516Y332851D01*
X645335Y332763D01*
X645316Y332749D01*
X645295Y332738D01*
X645135Y332616D01*
X644971Y332497D01*
X644955Y332480D01*
X644937Y332466D01*
X644799Y332317D01*
X644660Y332172D01*
X644647Y332152D01*
X644631Y332135D01*
X644523Y331965D01*
X644411Y331796D01*
X644402Y331775D01*
X644390Y331756D01*
X644313Y331568D01*
X644233Y331383D01*
X644227Y331360D01*
X644219Y331339D01*
X644176Y331141D01*
X644130Y330945D01*
X644129Y330922D01*
X644124Y330899D01*
X644105Y330587D01*
X644105Y244778D01*
X644105Y244284D01*
X643105Y241871D01*
X640941Y239707D01*
X639509Y238275D01*
X637096Y237275D01*
X634484Y237275D01*
X632071Y238275D01*
X630225Y240121D01*
X629225Y242534D01*
X629225Y245146D01*
X630225Y247559D01*
X630232Y247565D01*
X630337Y247692D01*
X630448Y247813D01*
X630481Y247864D01*
X630520Y247911D01*
X630602Y248053D01*
X630690Y248192D01*
X630714Y248249D01*
X630744Y248302D01*
X630799Y248457D01*
X630861Y248609D01*
X630874Y248668D01*
X630895Y248726D01*
X630921Y248888D01*
X630956Y249049D01*
X630961Y249126D01*
X630968Y249170D01*
X630967Y249231D01*
X630975Y249361D01*
X630975Y329878D01*
X630961Y330042D01*
X630954Y330206D01*
X630941Y330266D01*
X630935Y330327D01*
X630892Y330485D01*
X630856Y330646D01*
X630833Y330702D01*
X630817Y330761D01*
X630746Y330909D01*
X630683Y331061D01*
X630650Y331113D01*
X630623Y331168D01*
X630528Y331301D01*
X630438Y331439D01*
X630387Y331497D01*
X630361Y331534D01*
X630318Y331576D01*
X630232Y331674D01*
X622069Y339836D01*
X621069Y342249D01*
X621069Y352089D01*
X621055Y352253D01*
X621048Y352417D01*
X621035Y352477D01*
X621029Y352538D01*
X620986Y352697D01*
X620950Y352857D01*
X620927Y352913D01*
X620911Y352972D01*
X620840Y353121D01*
X620777Y353272D01*
X620744Y353324D01*
X620717Y353379D01*
X620622Y353512D01*
X620532Y353651D01*
X620481Y353708D01*
X620455Y353745D01*
X620412Y353788D01*
X620326Y353885D01*
X616989Y357222D01*
X615989Y359634D01*
X615989Y362246D01*
X616989Y364659D01*
X618835Y366506D01*
X621248Y367505D01*
X623860Y367505D01*
X626273Y366506D01*
X630995Y361783D01*
X630996Y361783D01*
X631153Y361625D01*
X631171Y361610D01*
X631186Y361593D01*
X631344Y361465D01*
X631498Y361336D01*
X631519Y361325D01*
X631537Y361310D01*
X631714Y361213D01*
X631889Y361113D01*
X631911Y361105D01*
X631932Y361094D01*
X632123Y361030D01*
X632314Y360962D01*
X632336Y360958D01*
X632359Y360951D01*
X632559Y360921D01*
X632758Y360888D01*
X632781Y360889D01*
X632804Y360885D01*
X633006Y360892D01*
X633208Y360894D01*
X633231Y360899D01*
X633254Y360900D01*
X633452Y360942D01*
X633650Y360980D01*
X633672Y360988D01*
X633694Y360993D01*
X633882Y361070D01*
X634070Y361142D01*
X634090Y361154D01*
X634111Y361163D01*
X634283Y361272D01*
X634455Y361376D01*
X634472Y361391D01*
X634492Y361404D01*
X634642Y361541D01*
X634792Y361674D01*
X634807Y361692D01*
X634824Y361708D01*
X634947Y361869D01*
X635072Y362027D01*
X635083Y362048D01*
X635097Y362066D01*
X635189Y362246D01*
X635284Y362424D01*
X635292Y362446D01*
X635302Y362467D01*
X635401Y362763D01*
X636171Y365636D01*
X639594Y371565D01*
X644435Y376406D01*
X650364Y379829D01*
X656977Y381601D01*
X663823Y381601D01*
X670436Y379829D01*
X672063Y378889D01*
X672084Y378879D01*
X672103Y378867D01*
X672288Y378785D01*
X672472Y378700D01*
X672494Y378694D01*
X672515Y378684D01*
X672712Y378636D01*
X672907Y378585D01*
X672930Y378583D01*
X672953Y378578D01*
X673154Y378565D01*
X673356Y378549D01*
X673379Y378551D01*
X673402Y378550D01*
X673603Y378573D01*
X673804Y378593D01*
X673826Y378599D01*
X673849Y378602D01*
X674044Y378661D01*
X674237Y378716D01*
X674258Y378726D01*
X674280Y378732D01*
X674461Y378824D01*
X674642Y378913D01*
X674661Y378926D01*
X674682Y378937D01*
X674843Y379059D01*
X675006Y379178D01*
X675022Y379195D01*
X675040Y379209D01*
X675178Y379358D01*
X675317Y379504D01*
X675330Y379523D01*
X675346Y379540D01*
X675455Y379711D01*
X675566Y379879D01*
X675575Y379900D01*
X675587Y379920D01*
X675664Y380107D01*
X675744Y380292D01*
X675750Y380315D01*
X675758Y380336D01*
X675801Y380534D01*
X675847Y380731D01*
X675848Y380754D01*
X675853Y380776D01*
X675872Y381088D01*
X675872Y504910D01*
X675860Y505047D01*
X675857Y505185D01*
X675840Y505271D01*
X675832Y505359D01*
X675796Y505492D01*
X675769Y505626D01*
X675737Y505708D01*
X675714Y505793D01*
X675655Y505917D01*
X675604Y506045D01*
X675558Y506121D01*
X675520Y506200D01*
X675440Y506312D01*
X675368Y506429D01*
X675292Y506518D01*
X675258Y506566D01*
X675223Y506600D01*
X675166Y506667D01*
X659428Y523090D01*
X659284Y523216D01*
X659143Y523346D01*
X659114Y523364D01*
X659089Y523386D01*
X658925Y523484D01*
X658763Y523587D01*
X658732Y523600D01*
X658703Y523618D01*
X658523Y523686D01*
X658347Y523758D01*
X658314Y523765D01*
X658282Y523778D01*
X658094Y523813D01*
X657906Y523853D01*
X657865Y523856D01*
X657839Y523860D01*
X657779Y523861D01*
X657595Y523872D01*
X637695Y523872D01*
X637519Y523857D01*
X637341Y523847D01*
X637294Y523837D01*
X637247Y523832D01*
X637075Y523786D01*
X636902Y523745D01*
X636859Y523726D01*
X636812Y523714D01*
X636652Y523638D01*
X636489Y523567D01*
X636449Y523541D01*
X636406Y523520D01*
X636261Y523417D01*
X636113Y523319D01*
X636079Y523286D01*
X636040Y523258D01*
X635915Y523131D01*
X635787Y523008D01*
X635759Y522970D01*
X635726Y522936D01*
X635626Y522788D01*
X635521Y522645D01*
X635500Y522602D01*
X635474Y522563D01*
X635402Y522400D01*
X635324Y522240D01*
X635311Y522195D01*
X635291Y522151D01*
X635249Y521978D01*
X635201Y521807D01*
X635196Y521760D01*
X635185Y521713D01*
X635174Y521536D01*
X635156Y521359D01*
X635160Y521312D01*
X635157Y521264D01*
X635178Y521087D01*
X635192Y520910D01*
X635204Y520864D01*
X635209Y520817D01*
X635261Y520646D01*
X635306Y520475D01*
X635326Y520432D01*
X635339Y520386D01*
X635420Y520227D01*
X635495Y520066D01*
X635522Y520027D01*
X635544Y519984D01*
X635651Y519843D01*
X635753Y519697D01*
X635787Y519664D01*
X635816Y519626D01*
X635946Y519505D01*
X636073Y519380D01*
X636112Y519353D01*
X636147Y519321D01*
X636297Y519225D01*
X636443Y519124D01*
X636485Y519103D01*
X648093Y507495D01*
X648861Y505643D01*
X648861Y504804D01*
X648875Y504640D01*
X648882Y504476D01*
X648895Y504416D01*
X648901Y504355D01*
X648944Y504197D01*
X648980Y504036D01*
X649003Y503980D01*
X649019Y503921D01*
X649090Y503773D01*
X649153Y503621D01*
X649186Y503569D01*
X649213Y503514D01*
X649308Y503381D01*
X649398Y503243D01*
X649449Y503185D01*
X649475Y503148D01*
X649518Y503106D01*
X649604Y503008D01*
X652400Y500213D01*
X653941Y496493D01*
X653941Y492467D01*
X652400Y488747D01*
X649553Y485900D01*
X645833Y484359D01*
X641807Y484359D01*
X638087Y485900D01*
X635240Y488747D01*
X633699Y492467D01*
X633699Y496493D01*
X635240Y500213D01*
X636384Y501357D01*
X636406Y501383D01*
X636432Y501406D01*
X636550Y501556D01*
X636673Y501702D01*
X636690Y501732D01*
X636711Y501759D01*
X636801Y501927D01*
X636896Y502093D01*
X636908Y502126D01*
X636924Y502156D01*
X636983Y502337D01*
X637047Y502517D01*
X637052Y502551D01*
X637063Y502584D01*
X637089Y502773D01*
X637120Y502961D01*
X637120Y502996D01*
X637125Y503030D01*
X637117Y503221D01*
X637114Y503412D01*
X637108Y503446D01*
X637106Y503480D01*
X637065Y503666D01*
X637029Y503854D01*
X637016Y503886D01*
X637009Y503920D01*
X636935Y504096D01*
X636866Y504274D01*
X636848Y504303D01*
X636835Y504335D01*
X636732Y504495D01*
X636632Y504658D01*
X636609Y504684D01*
X636591Y504713D01*
X636384Y504948D01*
X632316Y509016D01*
X632190Y509121D01*
X632069Y509233D01*
X632017Y509265D01*
X631970Y509304D01*
X631828Y509386D01*
X631689Y509474D01*
X631632Y509498D01*
X631579Y509528D01*
X631425Y509583D01*
X631272Y509645D01*
X631213Y509658D01*
X631155Y509679D01*
X630993Y509705D01*
X630832Y509740D01*
X630755Y509745D01*
X630711Y509752D01*
X630650Y509751D01*
X630520Y509759D01*
X439200Y509759D01*
X439036Y509745D01*
X438872Y509738D01*
X438812Y509725D01*
X438751Y509719D01*
X438592Y509676D01*
X438432Y509640D01*
X438376Y509617D01*
X438317Y509601D01*
X438169Y509530D01*
X438017Y509467D01*
X437965Y509434D01*
X437910Y509407D01*
X437777Y509312D01*
X437638Y509222D01*
X437581Y509171D01*
X437544Y509145D01*
X437502Y509102D01*
X437404Y509016D01*
X401635Y473247D01*
X399783Y472479D01*
X353660Y472479D01*
X353496Y472465D01*
X353332Y472458D01*
X353272Y472445D01*
X353211Y472439D01*
X353052Y472396D01*
X352892Y472360D01*
X352836Y472337D01*
X352777Y472321D01*
X352629Y472250D01*
X352477Y472187D01*
X352425Y472154D01*
X352370Y472127D01*
X352237Y472032D01*
X352098Y471942D01*
X352041Y471891D01*
X352004Y471865D01*
X351962Y471822D01*
X351864Y471736D01*
X337125Y456997D01*
X337050Y456907D01*
X336968Y456824D01*
X336906Y456735D01*
X336836Y456651D01*
X336779Y456550D01*
X336712Y456454D01*
X336644Y456315D01*
X336613Y456260D01*
X336601Y456226D01*
X336575Y456173D01*
X335526Y453641D01*
X333759Y451874D01*
X331450Y450917D01*
X328950Y450917D01*
X326641Y451874D01*
X324852Y453663D01*
X324814Y453750D01*
X324762Y453830D01*
X324717Y453914D01*
X324638Y454017D01*
X324566Y454126D01*
X324500Y454195D01*
X324442Y454270D01*
X324345Y454357D01*
X324255Y454451D01*
X324178Y454508D01*
X324107Y454572D01*
X323997Y454641D01*
X323892Y454717D01*
X323806Y454759D01*
X323725Y454810D01*
X323604Y454858D01*
X323487Y454915D01*
X323396Y454941D01*
X323307Y454976D01*
X323179Y455002D01*
X323054Y455038D01*
X322959Y455047D01*
X322866Y455066D01*
X322736Y455070D01*
X322606Y455082D01*
X322511Y455075D01*
X322416Y455077D01*
X322287Y455057D01*
X322157Y455047D01*
X322065Y455023D01*
X321971Y455008D01*
X321847Y454966D01*
X321722Y454933D01*
X321635Y454893D01*
X321545Y454862D01*
X321431Y454799D01*
X321313Y454744D01*
X321235Y454689D01*
X321152Y454643D01*
X321051Y454560D01*
X320944Y454486D01*
X320877Y454418D01*
X320803Y454357D01*
X320719Y454258D01*
X320627Y454166D01*
X320573Y454088D01*
X320511Y454015D01*
X320445Y453903D01*
X320371Y453796D01*
X320314Y453679D01*
X320300Y453655D01*
X318519Y451874D01*
X316210Y450917D01*
X313710Y450917D01*
X311401Y451874D01*
X309634Y453641D01*
X308677Y455950D01*
X308677Y458450D01*
X309726Y460982D01*
X309761Y461093D01*
X309805Y461201D01*
X309828Y461307D01*
X309861Y461411D01*
X309875Y461527D01*
X309900Y461641D01*
X309910Y461795D01*
X309917Y461858D01*
X309916Y461894D01*
X309919Y461953D01*
X309919Y472361D01*
X310687Y474213D01*
X325815Y489341D01*
X325890Y489431D01*
X325972Y489514D01*
X326034Y489603D01*
X326104Y489687D01*
X326161Y489788D01*
X326228Y489884D01*
X326296Y490023D01*
X326327Y490078D01*
X326339Y490112D01*
X326365Y490165D01*
X327414Y492697D01*
X329181Y494464D01*
X331490Y495421D01*
X333990Y495421D01*
X336299Y494464D01*
X338066Y492697D01*
X339023Y490388D01*
X339023Y487888D01*
X338066Y485579D01*
X336299Y483812D01*
X333767Y482763D01*
X333664Y482709D01*
X333556Y482664D01*
X333464Y482605D01*
X333368Y482555D01*
X333276Y482483D01*
X333177Y482420D01*
X333062Y482318D01*
X333012Y482279D01*
X332988Y482252D01*
X332943Y482213D01*
X320744Y470014D01*
X320639Y469887D01*
X320527Y469767D01*
X320495Y469715D01*
X320456Y469668D01*
X320374Y469526D01*
X320286Y469387D01*
X320262Y469330D01*
X320232Y469277D01*
X320177Y469123D01*
X320115Y468970D01*
X320102Y468911D01*
X320081Y468853D01*
X320055Y468691D01*
X320020Y468530D01*
X320015Y468453D01*
X320008Y468409D01*
X320009Y468348D01*
X320001Y468218D01*
X320001Y461953D01*
X320011Y461837D01*
X320011Y461721D01*
X320031Y461613D01*
X320041Y461505D01*
X320071Y461392D01*
X320092Y461278D01*
X320143Y461131D01*
X320159Y461070D01*
X320175Y461038D01*
X320194Y460982D01*
X320234Y460885D01*
X320294Y460770D01*
X320346Y460650D01*
X320398Y460571D01*
X320442Y460486D01*
X320522Y460383D01*
X320594Y460275D01*
X320659Y460206D01*
X320718Y460130D01*
X320815Y460043D01*
X320904Y459949D01*
X320981Y459892D01*
X321052Y459828D01*
X321163Y459760D01*
X321268Y459683D01*
X321353Y459641D01*
X321434Y459591D01*
X321555Y459542D01*
X321672Y459485D01*
X321764Y459459D01*
X321853Y459424D01*
X321980Y459398D01*
X322106Y459362D01*
X322200Y459353D01*
X322294Y459334D01*
X322424Y459330D01*
X322554Y459318D01*
X322649Y459325D01*
X322744Y459323D01*
X322873Y459343D01*
X323002Y459353D01*
X323095Y459377D01*
X323189Y459391D01*
X323312Y459434D01*
X323438Y459467D01*
X323525Y459507D01*
X323615Y459538D01*
X323729Y459601D01*
X323847Y459656D01*
X323925Y459711D01*
X324008Y459757D01*
X324109Y459839D01*
X324215Y459914D01*
X324283Y459982D01*
X324356Y460042D01*
X324441Y460141D01*
X324533Y460234D01*
X324587Y460312D01*
X324649Y460384D01*
X324715Y460497D01*
X324789Y460604D01*
X324846Y460721D01*
X324860Y460745D01*
X326641Y462526D01*
X329173Y463575D01*
X329276Y463629D01*
X329384Y463674D01*
X329476Y463733D01*
X329572Y463783D01*
X329664Y463855D01*
X329763Y463918D01*
X329878Y464020D01*
X329928Y464059D01*
X329952Y464086D01*
X329997Y464125D01*
X345890Y480018D01*
X347665Y481793D01*
X349517Y482561D01*
X395640Y482561D01*
X395804Y482575D01*
X395968Y482582D01*
X396028Y482595D01*
X396089Y482601D01*
X396248Y482644D01*
X396408Y482680D01*
X396464Y482703D01*
X396523Y482719D01*
X396671Y482790D01*
X396823Y482853D01*
X396875Y482886D01*
X396930Y482913D01*
X397063Y483008D01*
X397202Y483098D01*
X397259Y483149D01*
X397296Y483175D01*
X397338Y483218D01*
X397436Y483304D01*
X433243Y519112D01*
X433314Y519146D01*
X433353Y519173D01*
X433395Y519195D01*
X433536Y519304D01*
X433680Y519408D01*
X433714Y519442D01*
X433751Y519471D01*
X433870Y519603D01*
X433994Y519730D01*
X434021Y519770D01*
X434053Y519805D01*
X434147Y519956D01*
X434246Y520103D01*
X434266Y520147D01*
X434291Y520188D01*
X434357Y520353D01*
X434429Y520515D01*
X434440Y520562D01*
X434458Y520606D01*
X434493Y520780D01*
X434535Y520953D01*
X434538Y521000D01*
X434548Y521047D01*
X434552Y521225D01*
X434563Y521402D01*
X434557Y521450D01*
X434559Y521497D01*
X434531Y521673D01*
X434511Y521849D01*
X434497Y521895D01*
X434490Y521942D01*
X434432Y522110D01*
X434381Y522280D01*
X434359Y522323D01*
X434343Y522368D01*
X434257Y522523D01*
X434176Y522682D01*
X434147Y522720D01*
X434124Y522761D01*
X434012Y522899D01*
X433904Y523040D01*
X433869Y523073D01*
X433839Y523110D01*
X433704Y523225D01*
X433573Y523346D01*
X433533Y523371D01*
X433497Y523402D01*
X433343Y523492D01*
X433193Y523587D01*
X433149Y523605D01*
X433108Y523630D01*
X432941Y523691D01*
X432777Y523758D01*
X432730Y523768D01*
X432685Y523785D01*
X432511Y523816D01*
X432337Y523853D01*
X432277Y523857D01*
X432242Y523863D01*
X432179Y523863D01*
X432025Y523872D01*
X177657Y523872D01*
X177634Y523870D01*
X177611Y523872D01*
X177410Y523850D01*
X177209Y523832D01*
X177186Y523826D01*
X177164Y523824D01*
X176969Y523767D01*
X176774Y523714D01*
X176754Y523704D01*
X176731Y523697D01*
X176549Y523607D01*
X176368Y523520D01*
X176349Y523507D01*
X176328Y523497D01*
X176166Y523376D01*
X176002Y523258D01*
X175986Y523242D01*
X175967Y523228D01*
X175829Y523081D01*
X175688Y522936D01*
X175675Y522916D01*
X175659Y522900D01*
X175549Y522731D01*
X175436Y522563D01*
X175426Y522541D01*
X175414Y522522D01*
X175335Y522336D01*
X175253Y522151D01*
X175248Y522128D01*
X175239Y522107D01*
X175195Y521909D01*
X175147Y521713D01*
X175145Y521690D01*
X175140Y521668D01*
X175131Y521466D01*
X175119Y521264D01*
X175122Y521241D01*
X175121Y521218D01*
X175148Y521018D01*
X175171Y520817D01*
X175178Y520795D01*
X175181Y520772D01*
X175243Y520579D01*
X175301Y520386D01*
X175312Y520365D01*
X175319Y520343D01*
X175458Y520063D01*
X176629Y518036D01*
X178401Y511423D01*
X178401Y504577D01*
X176629Y497964D01*
X173206Y492035D01*
X168365Y487194D01*
X162436Y483771D01*
X155823Y481999D01*
X148977Y481999D01*
X142364Y483771D01*
X136435Y487194D01*
X131594Y492035D01*
X128171Y497964D01*
X126399Y504577D01*
X126399Y511423D01*
X128171Y518036D01*
X129342Y520063D01*
X129351Y520084D01*
X129364Y520103D01*
X129446Y520289D01*
X129531Y520472D01*
X129537Y520494D01*
X129547Y520515D01*
X129595Y520712D01*
X129646Y520907D01*
X129648Y520930D01*
X129653Y520953D01*
X129666Y521154D01*
X129682Y521356D01*
X129680Y521379D01*
X129681Y521402D01*
X129658Y521603D01*
X129638Y521804D01*
X129632Y521826D01*
X129629Y521849D01*
X129570Y522044D01*
X129515Y522237D01*
X129505Y522258D01*
X129499Y522280D01*
X129407Y522461D01*
X129318Y522642D01*
X129305Y522661D01*
X129294Y522682D01*
X129172Y522843D01*
X129053Y523006D01*
X129036Y523022D01*
X129022Y523040D01*
X128874Y523177D01*
X128727Y523317D01*
X128708Y523330D01*
X128691Y523346D01*
X128520Y523454D01*
X128352Y523566D01*
X128331Y523575D01*
X128311Y523587D01*
X128124Y523664D01*
X127939Y523744D01*
X127916Y523750D01*
X127895Y523758D01*
X127696Y523801D01*
X127500Y523847D01*
X127477Y523848D01*
X127455Y523853D01*
X127143Y523872D01*
X17262Y523872D01*
X17195Y523866D01*
X17128Y523869D01*
X16971Y523846D01*
X16813Y523832D01*
X16748Y523815D01*
X16682Y523805D01*
X16661Y523799D01*
X14851Y523870D01*
X14813Y523868D01*
X14751Y523872D01*
X14288Y523872D01*
X14245Y523868D01*
X14172Y523870D01*
X14075Y523865D01*
X13908Y523843D01*
X13741Y523828D01*
X13671Y523810D01*
X13629Y523805D01*
X13570Y523786D01*
X13437Y523753D01*
X12846Y523569D01*
X12799Y523550D01*
X12749Y523537D01*
X12590Y523464D01*
X12429Y523398D01*
X12386Y523371D01*
X12340Y523349D01*
X12079Y523178D01*
X11583Y522807D01*
X11545Y522773D01*
X11502Y522744D01*
X11377Y522623D01*
X11247Y522506D01*
X11216Y522466D01*
X11179Y522430D01*
X10990Y522182D01*
X10647Y521666D01*
X10623Y521621D01*
X10592Y521580D01*
X10568Y521532D01*
X10538Y521488D01*
X10489Y521377D01*
X10431Y521271D01*
X10415Y521222D01*
X10393Y521176D01*
X10372Y521113D01*
X10356Y521076D01*
X10341Y521015D01*
X10298Y520879D01*
X10205Y520509D01*
X10180Y520354D01*
X10147Y520201D01*
X10142Y520113D01*
X10134Y520065D01*
X10135Y520006D01*
X10128Y519889D01*
X10128Y518754D01*
X10133Y518693D01*
X10136Y518615D01*
X10135Y518573D01*
X10138Y518554D01*
X10139Y518518D01*
X10140Y518500D01*
X10160Y518396D01*
X10168Y518306D01*
X10187Y518235D01*
X10204Y518128D01*
X10215Y518093D01*
X10222Y518057D01*
X10271Y517927D01*
X10286Y517872D01*
X10306Y517830D01*
X10350Y517702D01*
X10368Y517670D01*
X10381Y517636D01*
X10468Y517489D01*
X10480Y517465D01*
X10491Y517449D01*
X10569Y517309D01*
X10592Y517280D01*
X10611Y517249D01*
X10735Y517107D01*
X10855Y516960D01*
X10882Y516937D01*
X10906Y516909D01*
X11053Y516791D01*
X11197Y516668D01*
X11228Y516649D01*
X11257Y516627D01*
X11422Y516536D01*
X11586Y516440D01*
X11620Y516428D01*
X11652Y516410D01*
X11830Y516350D01*
X12008Y516285D01*
X12044Y516279D01*
X12079Y516267D01*
X12265Y516240D01*
X12452Y516207D01*
X12488Y516207D01*
X12524Y516202D01*
X12713Y516208D01*
X12902Y516209D01*
X12938Y516215D01*
X12974Y516216D01*
X13159Y516256D01*
X13345Y516290D01*
X13387Y516304D01*
X13415Y516310D01*
X13471Y516333D01*
X13640Y516391D01*
X17623Y518041D01*
X21617Y518041D01*
X25308Y516512D01*
X28132Y513688D01*
X29661Y509997D01*
X29661Y506003D01*
X28132Y502312D01*
X25404Y499585D01*
X25299Y499458D01*
X25187Y499338D01*
X25155Y499286D01*
X25116Y499239D01*
X25034Y499097D01*
X24946Y498958D01*
X24922Y498901D01*
X24892Y498848D01*
X24837Y498694D01*
X24775Y498541D01*
X24762Y498482D01*
X24741Y498424D01*
X24715Y498262D01*
X24680Y498101D01*
X24675Y498024D01*
X24668Y497980D01*
X24669Y497919D01*
X24661Y497789D01*
X24661Y397017D01*
X24676Y396840D01*
X24686Y396663D01*
X24696Y396616D01*
X24701Y396568D01*
X24747Y396397D01*
X24788Y396224D01*
X24807Y396180D01*
X24819Y396134D01*
X24895Y395974D01*
X24966Y395810D01*
X24992Y395770D01*
X25013Y395727D01*
X25116Y395583D01*
X25214Y395435D01*
X25247Y395400D01*
X25275Y395361D01*
X25402Y395237D01*
X25524Y395109D01*
X25563Y395081D01*
X25597Y395047D01*
X25745Y394948D01*
X25888Y394843D01*
X25931Y394822D01*
X25970Y394795D01*
X26133Y394723D01*
X26292Y394645D01*
X26338Y394632D01*
X26382Y394613D01*
X26555Y394571D01*
X26726Y394522D01*
X26773Y394517D01*
X26820Y394506D01*
X26997Y394495D01*
X27174Y394478D01*
X27221Y394481D01*
X27269Y394478D01*
X27446Y394499D01*
X27623Y394513D01*
X27669Y394525D01*
X27716Y394531D01*
X27887Y394582D01*
X28058Y394627D01*
X28101Y394647D01*
X28147Y394661D01*
X28306Y394742D01*
X28467Y394816D01*
X28506Y394844D01*
X28549Y394865D01*
X28690Y394972D01*
X28836Y395074D01*
X28869Y395108D01*
X28907Y395137D01*
X29028Y395268D01*
X29153Y395394D01*
X29180Y395433D01*
X29212Y395468D01*
X29308Y395618D01*
X29409Y395764D01*
X29435Y395818D01*
X29454Y395848D01*
X29478Y395906D01*
X29546Y396045D01*
X31088Y399768D01*
X33912Y402592D01*
X37603Y404121D01*
X41597Y404121D01*
X45288Y402592D01*
X48112Y399768D01*
X49641Y396077D01*
X49641Y392083D01*
X48112Y388392D01*
X45288Y385568D01*
X41597Y384039D01*
X37603Y384039D01*
X33912Y385568D01*
X31088Y388392D01*
X29546Y392115D01*
X29464Y392273D01*
X29387Y392433D01*
X29360Y392472D01*
X29337Y392514D01*
X29229Y392654D01*
X29125Y392799D01*
X29091Y392832D01*
X29062Y392870D01*
X28930Y392989D01*
X28803Y393113D01*
X28763Y393140D01*
X28727Y393172D01*
X28577Y393266D01*
X28430Y393365D01*
X28386Y393384D01*
X28345Y393410D01*
X28180Y393475D01*
X28018Y393547D01*
X27971Y393559D01*
X27927Y393576D01*
X27753Y393612D01*
X27580Y393654D01*
X27533Y393657D01*
X27486Y393666D01*
X27308Y393671D01*
X27131Y393682D01*
X27083Y393676D01*
X27036Y393677D01*
X26860Y393650D01*
X26684Y393629D01*
X26638Y393616D01*
X26591Y393608D01*
X26423Y393551D01*
X26253Y393499D01*
X26210Y393477D01*
X26165Y393462D01*
X26010Y393375D01*
X25851Y393295D01*
X25813Y393266D01*
X25772Y393243D01*
X25634Y393130D01*
X25493Y393023D01*
X25460Y392988D01*
X25423Y392957D01*
X25308Y392822D01*
X25187Y392692D01*
X25162Y392651D01*
X25131Y392615D01*
X25041Y392462D01*
X24946Y392312D01*
X24927Y392268D01*
X24903Y392226D01*
X24842Y392060D01*
X24775Y391895D01*
X24765Y391849D01*
X24748Y391804D01*
X24717Y391629D01*
X24680Y391455D01*
X24676Y391396D01*
X24670Y391360D01*
X24670Y391297D01*
X24661Y391143D01*
X24661Y371617D01*
X24676Y371440D01*
X24686Y371263D01*
X24696Y371216D01*
X24701Y371168D01*
X24747Y370997D01*
X24788Y370824D01*
X24807Y370780D01*
X24819Y370734D01*
X24895Y370574D01*
X24966Y370410D01*
X24992Y370370D01*
X25013Y370327D01*
X25116Y370183D01*
X25214Y370035D01*
X25247Y370000D01*
X25275Y369961D01*
X25402Y369837D01*
X25524Y369709D01*
X25563Y369681D01*
X25597Y369647D01*
X25745Y369548D01*
X25888Y369443D01*
X25931Y369422D01*
X25970Y369395D01*
X26133Y369323D01*
X26292Y369245D01*
X26338Y369232D01*
X26382Y369213D01*
X26555Y369171D01*
X26726Y369122D01*
X26773Y369117D01*
X26820Y369106D01*
X26997Y369095D01*
X27174Y369078D01*
X27221Y369081D01*
X27269Y369078D01*
X27446Y369099D01*
X27623Y369113D01*
X27669Y369125D01*
X27716Y369131D01*
X27887Y369182D01*
X28058Y369227D01*
X28101Y369247D01*
X28147Y369261D01*
X28306Y369342D01*
X28467Y369416D01*
X28506Y369444D01*
X28549Y369465D01*
X28690Y369572D01*
X28836Y369674D01*
X28869Y369708D01*
X28907Y369737D01*
X29028Y369868D01*
X29153Y369994D01*
X29180Y370033D01*
X29212Y370068D01*
X29308Y370218D01*
X29409Y370364D01*
X29435Y370418D01*
X29454Y370448D01*
X29478Y370506D01*
X29546Y370645D01*
X31088Y374368D01*
X33912Y377192D01*
X37603Y378721D01*
X41597Y378721D01*
X45288Y377192D01*
X48112Y374368D01*
X49641Y370677D01*
X49641Y366683D01*
X48112Y362992D01*
X45288Y360168D01*
X41597Y358639D01*
X37603Y358639D01*
X33912Y360168D01*
X31088Y362992D01*
X29546Y366715D01*
X29464Y366873D01*
X29387Y367033D01*
X29360Y367072D01*
X29337Y367114D01*
X29229Y367254D01*
X29125Y367399D01*
X29091Y367432D01*
X29062Y367470D01*
X28930Y367589D01*
X28803Y367713D01*
X28763Y367740D01*
X28727Y367772D01*
X28577Y367866D01*
X28430Y367965D01*
X28386Y367984D01*
X28345Y368010D01*
X28180Y368075D01*
X28018Y368147D01*
X27971Y368159D01*
X27927Y368176D01*
X27753Y368212D01*
X27580Y368254D01*
X27533Y368257D01*
X27486Y368266D01*
X27308Y368271D01*
X27131Y368282D01*
X27083Y368276D01*
X27036Y368277D01*
X26860Y368250D01*
X26684Y368229D01*
X26638Y368216D01*
X26591Y368208D01*
X26423Y368151D01*
X26253Y368099D01*
X26210Y368077D01*
X26165Y368062D01*
X26010Y367975D01*
X25851Y367895D01*
X25813Y367866D01*
X25772Y367843D01*
X25634Y367730D01*
X25493Y367623D01*
X25460Y367588D01*
X25423Y367557D01*
X25308Y367422D01*
X25187Y367292D01*
X25162Y367251D01*
X25131Y367215D01*
X25041Y367062D01*
X24946Y366912D01*
X24927Y366868D01*
X24903Y366826D01*
X24842Y366660D01*
X24775Y366495D01*
X24765Y366449D01*
X24748Y366404D01*
X24717Y366229D01*
X24680Y366055D01*
X24676Y365996D01*
X24670Y365960D01*
X24670Y365897D01*
X24661Y365743D01*
X24661Y346217D01*
X24676Y346040D01*
X24686Y345863D01*
X24696Y345816D01*
X24701Y345768D01*
X24747Y345597D01*
X24788Y345424D01*
X24807Y345380D01*
X24819Y345334D01*
X24895Y345174D01*
X24966Y345010D01*
X24992Y344970D01*
X25013Y344927D01*
X25116Y344783D01*
X25214Y344635D01*
X25247Y344600D01*
X25275Y344561D01*
X25402Y344437D01*
X25524Y344309D01*
X25563Y344281D01*
X25597Y344247D01*
X25745Y344148D01*
X25888Y344043D01*
X25931Y344022D01*
X25970Y343995D01*
X26133Y343923D01*
X26292Y343845D01*
X26338Y343832D01*
X26382Y343813D01*
X26555Y343771D01*
X26726Y343722D01*
X26773Y343717D01*
X26820Y343706D01*
X26997Y343695D01*
X27174Y343678D01*
X27221Y343681D01*
X27269Y343678D01*
X27446Y343699D01*
X27623Y343713D01*
X27669Y343725D01*
X27716Y343731D01*
X27887Y343782D01*
X28058Y343827D01*
X28101Y343847D01*
X28147Y343861D01*
X28306Y343942D01*
X28467Y344016D01*
X28506Y344044D01*
X28549Y344065D01*
X28690Y344172D01*
X28836Y344274D01*
X28869Y344308D01*
X28907Y344337D01*
X29028Y344468D01*
X29153Y344594D01*
X29180Y344633D01*
X29212Y344668D01*
X29308Y344818D01*
X29409Y344964D01*
X29435Y345018D01*
X29454Y345048D01*
X29478Y345106D01*
X29546Y345245D01*
X31088Y348968D01*
X33912Y351792D01*
X37603Y353321D01*
X41597Y353321D01*
X45288Y351792D01*
X48112Y348968D01*
X49641Y345277D01*
X49641Y341283D01*
X48112Y337592D01*
X45288Y334768D01*
X41597Y333239D01*
X37603Y333239D01*
X33912Y334768D01*
X31088Y337592D01*
X29546Y341315D01*
X29464Y341473D01*
X29387Y341633D01*
X29360Y341672D01*
X29337Y341714D01*
X29229Y341854D01*
X29125Y341999D01*
X29091Y342032D01*
X29062Y342070D01*
X28930Y342189D01*
X28803Y342313D01*
X28763Y342340D01*
X28727Y342372D01*
X28577Y342466D01*
X28430Y342565D01*
X28386Y342584D01*
X28345Y342610D01*
X28180Y342675D01*
X28018Y342747D01*
X27971Y342759D01*
X27927Y342776D01*
X27753Y342812D01*
X27580Y342854D01*
X27533Y342857D01*
X27486Y342866D01*
X27308Y342871D01*
X27131Y342882D01*
X27083Y342876D01*
X27036Y342877D01*
X26860Y342850D01*
X26684Y342829D01*
X26638Y342816D01*
X26591Y342808D01*
X26423Y342751D01*
X26253Y342699D01*
X26210Y342677D01*
X26165Y342662D01*
X26010Y342575D01*
X25851Y342495D01*
X25813Y342466D01*
X25772Y342443D01*
X25634Y342330D01*
X25493Y342223D01*
X25460Y342188D01*
X25423Y342157D01*
X25308Y342022D01*
X25187Y341892D01*
X25162Y341851D01*
X25131Y341815D01*
X25041Y341662D01*
X24946Y341512D01*
X24927Y341468D01*
X24903Y341426D01*
X24842Y341260D01*
X24775Y341095D01*
X24765Y341049D01*
X24748Y341004D01*
X24717Y340829D01*
X24680Y340655D01*
X24676Y340596D01*
X24670Y340560D01*
X24670Y340497D01*
X24661Y340343D01*
X24661Y180152D01*
X24675Y179988D01*
X24682Y179824D01*
X24695Y179764D01*
X24701Y179703D01*
X24744Y179544D01*
X24780Y179384D01*
X24803Y179328D01*
X24819Y179269D01*
X24890Y179121D01*
X24953Y178969D01*
X24986Y178917D01*
X25013Y178862D01*
X25108Y178729D01*
X25198Y178590D01*
X25249Y178533D01*
X25275Y178496D01*
X25318Y178454D01*
X25404Y178356D01*
X52147Y151614D01*
X53301Y148828D01*
X53301Y116192D01*
X52147Y113406D01*
X32484Y93744D01*
X32379Y93617D01*
X32267Y93497D01*
X32235Y93445D01*
X32196Y93398D01*
X32114Y93256D01*
X32026Y93117D01*
X32002Y93060D01*
X31972Y93007D01*
X31917Y92853D01*
X31855Y92700D01*
X31842Y92641D01*
X31821Y92583D01*
X31795Y92421D01*
X31760Y92260D01*
X31755Y92183D01*
X31748Y92139D01*
X31749Y92078D01*
X31741Y91948D01*
X31741Y91683D01*
X30212Y87992D01*
X27388Y85168D01*
X23697Y83639D01*
X19703Y83639D01*
X16012Y85168D01*
X14463Y86718D01*
X14363Y86801D01*
X14270Y86892D01*
X14190Y86945D01*
X14117Y87007D01*
X14004Y87071D01*
X13897Y87144D01*
X13809Y87183D01*
X13726Y87230D01*
X13604Y87274D01*
X13485Y87326D01*
X13392Y87349D01*
X13302Y87381D01*
X13174Y87402D01*
X13047Y87433D01*
X12952Y87439D01*
X12858Y87454D01*
X12728Y87453D01*
X12598Y87461D01*
X12503Y87450D01*
X12407Y87448D01*
X12280Y87424D01*
X12151Y87408D01*
X12059Y87381D01*
X11965Y87363D01*
X11844Y87316D01*
X11720Y87278D01*
X11634Y87235D01*
X11545Y87200D01*
X11434Y87133D01*
X11318Y87074D01*
X11242Y87016D01*
X11161Y86966D01*
X11063Y86880D01*
X10960Y86802D01*
X10895Y86732D01*
X10823Y86668D01*
X10743Y86566D01*
X10654Y86471D01*
X10603Y86390D01*
X10544Y86315D01*
X10482Y86201D01*
X10413Y86091D01*
X10376Y86003D01*
X10331Y85918D01*
X10291Y85795D01*
X10242Y85674D01*
X10222Y85581D01*
X10192Y85490D01*
X10174Y85361D01*
X10147Y85234D01*
X10139Y85105D01*
X10131Y85044D01*
X10132Y84999D01*
X10128Y84922D01*
X10128Y53340D01*
X10130Y53319D01*
X10128Y53303D01*
X10134Y53250D01*
X10136Y53141D01*
X10136Y53135D01*
X10156Y53018D01*
X10161Y52939D01*
X10165Y52923D01*
X10168Y52892D01*
X10172Y52877D01*
X10174Y52855D01*
X10202Y52747D01*
X10211Y52691D01*
X10228Y52643D01*
X10252Y52553D01*
X10255Y52543D01*
X10263Y52523D01*
X10268Y52502D01*
X10283Y52470D01*
X10286Y52457D01*
X10321Y52385D01*
X10324Y52378D01*
X10363Y52268D01*
X10388Y52225D01*
X10403Y52185D01*
X10414Y52167D01*
X10431Y52128D01*
X10443Y52110D01*
X10452Y52091D01*
X10620Y51827D01*
X10626Y51819D01*
X10633Y51811D01*
X10639Y51802D01*
X10661Y51777D01*
X10678Y51752D01*
X10783Y51640D01*
X10809Y51611D01*
X10879Y51526D01*
X10895Y51512D01*
X10923Y51480D01*
X10931Y51474D01*
X10939Y51466D01*
X10982Y51430D01*
X10987Y51424D01*
X11000Y51415D01*
X11179Y51266D01*
X11187Y51260D01*
X11206Y51249D01*
X11222Y51235D01*
X11252Y51218D01*
X11275Y51200D01*
X11326Y51172D01*
X11352Y51152D01*
X11441Y51107D01*
X11525Y51057D01*
X11531Y51053D01*
X11532Y51052D01*
X11573Y51028D01*
X11593Y51020D01*
X11612Y51009D01*
X11665Y50989D01*
X11671Y50985D01*
X11685Y50980D01*
X11714Y50969D01*
X11753Y50949D01*
X11801Y50935D01*
X11903Y50895D01*
X11913Y50892D01*
X11937Y50886D01*
X11948Y50882D01*
X11966Y50878D01*
X11994Y50867D01*
X12075Y50852D01*
X12098Y50844D01*
X12109Y50843D01*
X12185Y50820D01*
X12296Y50804D01*
X12352Y50791D01*
X12371Y50791D01*
X12388Y50787D01*
X12433Y50784D01*
X12436Y50784D01*
X12442Y50783D01*
X12494Y50776D01*
X12499Y50776D01*
X12561Y50776D01*
X12700Y50768D01*
X84763Y50768D01*
X84925Y50782D01*
X85086Y50788D01*
X85166Y50804D01*
X85212Y50808D01*
X85270Y50824D01*
X85393Y50847D01*
X85798Y50951D01*
X86901Y50793D01*
X86925Y50792D01*
X86948Y50787D01*
X87260Y50768D01*
X88375Y50768D01*
X88760Y50608D01*
X88915Y50559D01*
X89067Y50503D01*
X89146Y50487D01*
X89190Y50473D01*
X89250Y50466D01*
X89373Y50440D01*
X89787Y50381D01*
X90746Y49813D01*
X90767Y49803D01*
X90787Y49789D01*
X91068Y49652D01*
X92097Y49226D01*
X92392Y48931D01*
X92516Y48827D01*
X92635Y48717D01*
X92702Y48671D01*
X92737Y48642D01*
X92790Y48612D01*
X92894Y48541D01*
X93253Y48328D01*
X93922Y47437D01*
X93938Y47419D01*
X93951Y47399D01*
X94158Y47165D01*
X94946Y46377D01*
X95106Y45991D01*
X95181Y45848D01*
X95248Y45700D01*
X95293Y45633D01*
X95314Y45592D01*
X95351Y45545D01*
X95420Y45439D01*
X109129Y27161D01*
X109185Y27098D01*
X109235Y27029D01*
X109335Y26931D01*
X109430Y26827D01*
X109497Y26774D01*
X109557Y26715D01*
X109674Y26637D01*
X109785Y26550D01*
X109860Y26511D01*
X109930Y26463D01*
X110059Y26406D01*
X110184Y26341D01*
X110265Y26315D01*
X110342Y26281D01*
X110479Y26248D01*
X110613Y26205D01*
X110697Y26194D01*
X110780Y26174D01*
X110920Y26166D01*
X111060Y26148D01*
X111145Y26152D01*
X111229Y26147D01*
X111369Y26163D01*
X111509Y26170D01*
X111592Y26189D01*
X111676Y26199D01*
X111811Y26239D01*
X111948Y26271D01*
X112026Y26304D01*
X112107Y26329D01*
X112233Y26393D01*
X112362Y26448D01*
X112433Y26495D01*
X112509Y26533D01*
X112621Y26618D01*
X112738Y26696D01*
X112800Y26754D01*
X112867Y26805D01*
X112963Y26909D01*
X113065Y27006D01*
X113115Y27074D01*
X113173Y27136D01*
X113248Y27255D01*
X113331Y27369D01*
X113369Y27445D01*
X113414Y27516D01*
X113468Y27646D01*
X113530Y27773D01*
X113553Y27854D01*
X113585Y27933D01*
X113615Y28070D01*
X113654Y28206D01*
X113662Y28290D01*
X113680Y28373D01*
X113695Y28610D01*
X113699Y28654D01*
X113698Y28666D01*
X113699Y28685D01*
X113699Y28823D01*
X115471Y35436D01*
X118894Y41365D01*
X123735Y46206D01*
X129664Y49629D01*
X136277Y51401D01*
X143123Y51401D01*
X149736Y49629D01*
X155665Y46206D01*
X160506Y41365D01*
X163929Y35436D01*
X165701Y28823D01*
X165701Y21977D01*
X163929Y15364D01*
X163105Y13937D01*
X163095Y13916D01*
X163082Y13897D01*
X163000Y13712D01*
X162915Y13528D01*
X162909Y13506D01*
X162900Y13485D01*
X162852Y13289D01*
X162800Y13093D01*
X162799Y13070D01*
X162793Y13047D01*
X162781Y12846D01*
X162765Y12644D01*
X162767Y12621D01*
X162765Y12598D01*
X162789Y12397D01*
X162809Y12196D01*
X162815Y12174D01*
X162817Y12151D01*
X162876Y11957D01*
X162931Y11763D01*
X162941Y11742D01*
X162948Y11720D01*
X163040Y11539D01*
X163128Y11358D01*
X163142Y11339D01*
X163152Y11318D01*
X163274Y11157D01*
X163393Y10994D01*
X163410Y10978D01*
X163424Y10960D01*
X163573Y10822D01*
X163719Y10683D01*
X163738Y10670D01*
X163755Y10654D01*
X163927Y10545D01*
X164094Y10434D01*
X164115Y10425D01*
X164135Y10413D01*
X164323Y10336D01*
X164508Y10256D01*
X164530Y10250D01*
X164552Y10242D01*
X164750Y10199D01*
X164946Y10153D01*
X164969Y10152D01*
X164992Y10147D01*
X165304Y10128D01*
X660328Y10128D01*
X660476Y10141D01*
G37*
%LPC*%
G36*
X290996Y108751D02*
X290996Y108751D01*
X288957Y109596D01*
X287396Y111157D01*
X287081Y111917D01*
X287027Y112020D01*
X286982Y112128D01*
X286923Y112219D01*
X286873Y112316D01*
X286801Y112408D01*
X286738Y112506D01*
X286636Y112622D01*
X286597Y112672D01*
X286570Y112696D01*
X286531Y112740D01*
X285287Y113985D01*
X284519Y115837D01*
X284519Y277863D01*
X285287Y279715D01*
X287062Y281490D01*
X325815Y320243D01*
X325890Y320333D01*
X325972Y320416D01*
X326034Y320505D01*
X326104Y320589D01*
X326161Y320690D01*
X326228Y320786D01*
X326296Y320925D01*
X326327Y320980D01*
X326339Y321014D01*
X326365Y321067D01*
X327414Y323599D01*
X329181Y325366D01*
X331490Y326323D01*
X333990Y326323D01*
X336299Y325366D01*
X338073Y323592D01*
X338136Y323471D01*
X338213Y323310D01*
X338240Y323272D01*
X338262Y323229D01*
X338371Y323089D01*
X338475Y322944D01*
X338509Y322911D01*
X338538Y322873D01*
X338670Y322754D01*
X338797Y322630D01*
X338837Y322604D01*
X338872Y322572D01*
X339023Y322478D01*
X339170Y322378D01*
X339214Y322359D01*
X339255Y322334D01*
X339420Y322268D01*
X339582Y322196D01*
X339629Y322185D01*
X339673Y322167D01*
X339847Y322131D01*
X340020Y322089D01*
X340067Y322086D01*
X340114Y322077D01*
X340292Y322073D01*
X340469Y322062D01*
X340517Y322067D01*
X340564Y322066D01*
X340740Y322093D01*
X340916Y322114D01*
X340962Y322128D01*
X341009Y322135D01*
X341177Y322193D01*
X341347Y322244D01*
X341390Y322266D01*
X341435Y322281D01*
X341590Y322368D01*
X341749Y322448D01*
X341787Y322477D01*
X341828Y322501D01*
X341966Y322613D01*
X342107Y322720D01*
X342140Y322756D01*
X342177Y322786D01*
X342292Y322921D01*
X342413Y323052D01*
X342438Y323092D01*
X342469Y323128D01*
X342559Y323281D01*
X342654Y323431D01*
X342673Y323476D01*
X342697Y323517D01*
X342758Y323683D01*
X342825Y323848D01*
X342835Y323895D01*
X342852Y323939D01*
X342883Y324114D01*
X342920Y324288D01*
X342924Y324347D01*
X342930Y324383D01*
X342930Y324446D01*
X342939Y324600D01*
X342939Y336283D01*
X343707Y338135D01*
X379599Y374028D01*
X379690Y374136D01*
X379730Y374177D01*
X379744Y374198D01*
X379832Y374296D01*
X379858Y374337D01*
X379888Y374373D01*
X379976Y374528D01*
X380070Y374678D01*
X380088Y374723D01*
X380112Y374764D01*
X380171Y374932D01*
X380237Y375097D01*
X380246Y375144D01*
X380262Y375189D01*
X380291Y375364D01*
X380327Y375538D01*
X380328Y375586D01*
X380336Y375633D01*
X380333Y375811D01*
X380338Y375988D01*
X380330Y376035D01*
X380330Y376083D01*
X380296Y376258D01*
X380269Y376433D01*
X380253Y376478D01*
X380244Y376525D01*
X380180Y376691D01*
X380156Y376761D01*
X380189Y376745D01*
X380360Y376696D01*
X380529Y376641D01*
X380576Y376635D01*
X380622Y376622D01*
X380799Y376604D01*
X380975Y376580D01*
X381022Y376582D01*
X381070Y376577D01*
X381247Y376591D01*
X381425Y376598D01*
X381471Y376609D01*
X381519Y376612D01*
X381691Y376657D01*
X381864Y376696D01*
X381908Y376714D01*
X381955Y376726D01*
X382115Y376801D01*
X382280Y376869D01*
X382320Y376895D01*
X382363Y376915D01*
X382508Y377017D01*
X382658Y377114D01*
X382702Y377153D01*
X382732Y377174D01*
X382776Y377218D01*
X382892Y377321D01*
X408625Y403053D01*
X410902Y403997D01*
X410975Y404035D01*
X411052Y404064D01*
X411174Y404139D01*
X411301Y404205D01*
X411366Y404256D01*
X411436Y404298D01*
X411544Y404393D01*
X411657Y404481D01*
X411712Y404542D01*
X411774Y404597D01*
X411863Y404709D01*
X411959Y404815D01*
X412002Y404885D01*
X412053Y404950D01*
X412121Y405076D01*
X412196Y405197D01*
X412227Y405274D01*
X412266Y405346D01*
X412310Y405483D01*
X412363Y405616D01*
X412380Y405696D01*
X412405Y405775D01*
X412425Y405916D01*
X412453Y406057D01*
X412455Y406139D01*
X412466Y406221D01*
X412461Y406364D01*
X412464Y406507D01*
X412451Y406588D01*
X412448Y406671D01*
X412417Y406810D01*
X412395Y406952D01*
X412368Y407030D01*
X412350Y407110D01*
X412295Y407242D01*
X412249Y407378D01*
X412209Y407450D01*
X412177Y407526D01*
X412099Y407646D01*
X412029Y407771D01*
X411977Y407835D01*
X411933Y407904D01*
X411769Y408089D01*
X411744Y408119D01*
X411736Y408126D01*
X411726Y408138D01*
X407134Y412729D01*
X403843Y418430D01*
X402139Y424789D01*
X402139Y431371D01*
X403843Y437730D01*
X407134Y443431D01*
X411789Y448086D01*
X417490Y451377D01*
X423849Y453081D01*
X430431Y453081D01*
X436790Y451377D01*
X442491Y448086D01*
X447146Y443431D01*
X450437Y437730D01*
X452141Y431371D01*
X452141Y424789D01*
X451409Y422059D01*
X451407Y422048D01*
X451403Y422037D01*
X451378Y421883D01*
X451374Y421867D01*
X451373Y421854D01*
X451368Y421825D01*
X451332Y421615D01*
X451332Y421604D01*
X451330Y421592D01*
X451333Y421380D01*
X451334Y421165D01*
X451336Y421154D01*
X451336Y421142D01*
X451377Y420933D01*
X451415Y420722D01*
X451419Y420712D01*
X451422Y420700D01*
X451499Y420499D01*
X451574Y420301D01*
X451580Y420291D01*
X451584Y420280D01*
X451695Y420097D01*
X451804Y419914D01*
X451812Y419905D01*
X451818Y419895D01*
X451960Y419735D01*
X452099Y419574D01*
X452108Y419567D01*
X452116Y419558D01*
X452284Y419425D01*
X452450Y419291D01*
X452460Y419286D01*
X452469Y419279D01*
X452657Y419178D01*
X452845Y419075D01*
X452856Y419072D01*
X452866Y419066D01*
X453069Y419000D01*
X453272Y418932D01*
X453283Y418930D01*
X453294Y418927D01*
X453506Y418898D01*
X453717Y418867D01*
X453729Y418867D01*
X453740Y418865D01*
X453954Y418874D01*
X454167Y418881D01*
X454179Y418883D01*
X454190Y418884D01*
X454399Y418930D01*
X454608Y418975D01*
X454619Y418979D01*
X454630Y418981D01*
X454826Y419063D01*
X455025Y419144D01*
X455035Y419151D01*
X455045Y419155D01*
X455223Y419270D01*
X455405Y419385D01*
X455414Y419393D01*
X455423Y419399D01*
X455658Y419606D01*
X459171Y423119D01*
X461023Y423887D01*
X507640Y423887D01*
X507804Y423901D01*
X507968Y423908D01*
X508028Y423921D01*
X508089Y423927D01*
X508248Y423970D01*
X508408Y424006D01*
X508464Y424029D01*
X508523Y424045D01*
X508672Y424116D01*
X508823Y424179D01*
X508875Y424212D01*
X508930Y424239D01*
X509063Y424334D01*
X509202Y424424D01*
X509259Y424475D01*
X509296Y424501D01*
X509339Y424544D01*
X509436Y424630D01*
X511740Y426934D01*
X515246Y428387D01*
X519042Y428387D01*
X522548Y426934D01*
X525232Y424250D01*
X526685Y420744D01*
X526685Y416948D01*
X525232Y413442D01*
X522486Y410696D01*
X522403Y410596D01*
X522312Y410503D01*
X522258Y410423D01*
X522197Y410350D01*
X522133Y410237D01*
X522060Y410130D01*
X522021Y410042D01*
X521974Y409959D01*
X521930Y409837D01*
X521878Y409718D01*
X521855Y409625D01*
X521823Y409535D01*
X521802Y409407D01*
X521771Y409280D01*
X521765Y409185D01*
X521750Y409091D01*
X521751Y408961D01*
X521743Y408831D01*
X521754Y408736D01*
X521756Y408640D01*
X521780Y408513D01*
X521795Y408384D01*
X521823Y408292D01*
X521841Y408198D01*
X521888Y408077D01*
X521926Y407953D01*
X521969Y407867D01*
X522004Y407778D01*
X522071Y407667D01*
X522130Y407551D01*
X522188Y407475D01*
X522237Y407394D01*
X522324Y407296D01*
X522402Y407193D01*
X522472Y407128D01*
X522536Y407056D01*
X522638Y406976D01*
X522733Y406887D01*
X522814Y406836D01*
X522889Y406777D01*
X523003Y406716D01*
X523113Y406646D01*
X523201Y406609D01*
X523286Y406564D01*
X523409Y406524D01*
X523530Y406475D01*
X523623Y406455D01*
X523714Y406425D01*
X523843Y406407D01*
X523970Y406380D01*
X524099Y406372D01*
X524160Y406364D01*
X524205Y406365D01*
X524282Y406361D01*
X526450Y406361D01*
X526614Y406375D01*
X526778Y406382D01*
X526838Y406395D01*
X526899Y406401D01*
X527058Y406444D01*
X527218Y406480D01*
X527274Y406503D01*
X527333Y406519D01*
X527481Y406590D01*
X527633Y406653D01*
X527685Y406686D01*
X527740Y406713D01*
X527873Y406808D01*
X528012Y406898D01*
X528069Y406949D01*
X528106Y406975D01*
X528148Y407018D01*
X528246Y407104D01*
X538568Y417427D01*
X538643Y417517D01*
X538726Y417600D01*
X538787Y417689D01*
X538857Y417772D01*
X538915Y417874D01*
X538982Y417970D01*
X539049Y418109D01*
X539081Y418163D01*
X539093Y418197D01*
X539119Y418251D01*
X540552Y421710D01*
X543236Y424394D01*
X546742Y425847D01*
X550538Y425847D01*
X554044Y424394D01*
X556728Y421710D01*
X558181Y418204D01*
X558181Y414408D01*
X556728Y410902D01*
X554044Y408218D01*
X550538Y406765D01*
X546742Y406765D01*
X545072Y407457D01*
X544870Y407521D01*
X544669Y407586D01*
X544656Y407588D01*
X544643Y407592D01*
X544431Y407619D01*
X544222Y407647D01*
X544209Y407647D01*
X544196Y407648D01*
X543986Y407638D01*
X543773Y407629D01*
X543760Y407626D01*
X543746Y407625D01*
X543541Y407578D01*
X543333Y407531D01*
X543321Y407526D01*
X543308Y407523D01*
X543114Y407440D01*
X542918Y407358D01*
X542906Y407351D01*
X542894Y407345D01*
X542718Y407229D01*
X542539Y407113D01*
X542528Y407103D01*
X542519Y407097D01*
X542490Y407070D01*
X542305Y406907D01*
X535934Y400536D01*
X535851Y400436D01*
X535760Y400343D01*
X535707Y400263D01*
X535645Y400190D01*
X535581Y400077D01*
X535508Y399970D01*
X535469Y399882D01*
X535422Y399799D01*
X535378Y399677D01*
X535326Y399558D01*
X535303Y399465D01*
X535271Y399375D01*
X535250Y399246D01*
X535219Y399120D01*
X535213Y399025D01*
X535198Y398931D01*
X535199Y398800D01*
X535191Y398671D01*
X535202Y398576D01*
X535204Y398480D01*
X535228Y398353D01*
X535243Y398224D01*
X535271Y398132D01*
X535289Y398038D01*
X535336Y397917D01*
X535374Y397793D01*
X535417Y397708D01*
X535452Y397618D01*
X535519Y397507D01*
X535578Y397391D01*
X535636Y397315D01*
X535685Y397234D01*
X535772Y397136D01*
X535850Y397033D01*
X535920Y396968D01*
X535984Y396896D01*
X536085Y396816D01*
X536181Y396727D01*
X536262Y396676D01*
X536337Y396617D01*
X536451Y396556D01*
X536561Y396486D01*
X536649Y396449D01*
X536734Y396404D01*
X536857Y396364D01*
X536978Y396315D01*
X537071Y396295D01*
X537162Y396265D01*
X537291Y396247D01*
X537418Y396220D01*
X537548Y396212D01*
X537608Y396204D01*
X537653Y396205D01*
X537730Y396201D01*
X563280Y396201D01*
X563444Y396215D01*
X563608Y396222D01*
X563668Y396235D01*
X563729Y396241D01*
X563888Y396284D01*
X564048Y396320D01*
X564104Y396343D01*
X564163Y396359D01*
X564311Y396430D01*
X564463Y396493D01*
X564515Y396526D01*
X564570Y396553D01*
X564703Y396648D01*
X564842Y396738D01*
X564899Y396789D01*
X564936Y396815D01*
X564978Y396858D01*
X565076Y396944D01*
X583496Y415364D01*
X583601Y415491D01*
X583713Y415611D01*
X583745Y415663D01*
X583784Y415710D01*
X583866Y415852D01*
X583954Y415991D01*
X583978Y416048D01*
X584008Y416101D01*
X584063Y416255D01*
X584125Y416408D01*
X584138Y416467D01*
X584159Y416525D01*
X584185Y416687D01*
X584220Y416848D01*
X584225Y416925D01*
X584232Y416969D01*
X584231Y417030D01*
X584239Y417160D01*
X584239Y458203D01*
X585007Y460055D01*
X598305Y473353D01*
X600157Y474121D01*
X608096Y474121D01*
X608260Y474135D01*
X608424Y474142D01*
X608484Y474155D01*
X608545Y474161D01*
X608703Y474204D01*
X608864Y474240D01*
X608920Y474263D01*
X608979Y474279D01*
X609127Y474350D01*
X609279Y474413D01*
X609331Y474446D01*
X609386Y474473D01*
X609519Y474568D01*
X609657Y474658D01*
X609715Y474709D01*
X609752Y474735D01*
X609794Y474778D01*
X609892Y474864D01*
X612687Y477660D01*
X616407Y479201D01*
X620433Y479201D01*
X624153Y477660D01*
X627000Y474813D01*
X628541Y471093D01*
X628541Y467067D01*
X627000Y463347D01*
X624153Y460500D01*
X620433Y458959D01*
X616407Y458959D01*
X612687Y460500D01*
X609892Y463296D01*
X609766Y463401D01*
X609645Y463513D01*
X609593Y463545D01*
X609546Y463584D01*
X609404Y463666D01*
X609265Y463754D01*
X609208Y463778D01*
X609155Y463808D01*
X609000Y463863D01*
X608848Y463925D01*
X608789Y463938D01*
X608731Y463959D01*
X608569Y463985D01*
X608408Y464020D01*
X608331Y464025D01*
X608287Y464032D01*
X608226Y464031D01*
X608096Y464039D01*
X604300Y464039D01*
X604136Y464025D01*
X603972Y464018D01*
X603912Y464005D01*
X603851Y463999D01*
X603692Y463956D01*
X603532Y463920D01*
X603476Y463897D01*
X603417Y463881D01*
X603269Y463810D01*
X603117Y463747D01*
X603065Y463714D01*
X603010Y463687D01*
X602877Y463592D01*
X602738Y463502D01*
X602681Y463451D01*
X602644Y463425D01*
X602602Y463382D01*
X602504Y463296D01*
X595064Y455856D01*
X594959Y455729D01*
X594847Y455609D01*
X594815Y455557D01*
X594776Y455510D01*
X594694Y455368D01*
X594606Y455229D01*
X594582Y455172D01*
X594552Y455119D01*
X594497Y454965D01*
X594435Y454812D01*
X594422Y454753D01*
X594401Y454695D01*
X594375Y454533D01*
X594340Y454372D01*
X594335Y454295D01*
X594328Y454251D01*
X594329Y454190D01*
X594321Y454060D01*
X594321Y413017D01*
X593553Y411165D01*
X571050Y388662D01*
X569589Y387201D01*
X569506Y387101D01*
X569415Y387008D01*
X569362Y386928D01*
X569300Y386855D01*
X569236Y386742D01*
X569163Y386635D01*
X569124Y386547D01*
X569077Y386464D01*
X569033Y386342D01*
X568981Y386223D01*
X568958Y386130D01*
X568926Y386040D01*
X568905Y385912D01*
X568874Y385785D01*
X568868Y385690D01*
X568853Y385596D01*
X568854Y385466D01*
X568846Y385336D01*
X568857Y385241D01*
X568859Y385145D01*
X568883Y385018D01*
X568898Y384889D01*
X568926Y384797D01*
X568944Y384703D01*
X568991Y384582D01*
X569029Y384458D01*
X569072Y384372D01*
X569107Y384283D01*
X569174Y384172D01*
X569233Y384056D01*
X569291Y383980D01*
X569340Y383899D01*
X569427Y383801D01*
X569505Y383698D01*
X569575Y383633D01*
X569639Y383561D01*
X569741Y383481D01*
X569836Y383392D01*
X569917Y383341D01*
X569992Y383282D01*
X570106Y383220D01*
X570216Y383151D01*
X570304Y383114D01*
X570389Y383069D01*
X570512Y383029D01*
X570633Y382980D01*
X570726Y382960D01*
X570817Y382930D01*
X570945Y382912D01*
X571073Y382885D01*
X571203Y382877D01*
X571263Y382869D01*
X571308Y382870D01*
X571385Y382866D01*
X580425Y382866D01*
X580589Y382880D01*
X580753Y382887D01*
X580813Y382900D01*
X580874Y382906D01*
X581033Y382949D01*
X581193Y382985D01*
X581249Y383008D01*
X581308Y383024D01*
X581456Y383095D01*
X581608Y383158D01*
X581660Y383191D01*
X581715Y383218D01*
X581848Y383313D01*
X581987Y383403D01*
X582044Y383454D01*
X582081Y383480D01*
X582123Y383523D01*
X582221Y383609D01*
X634426Y435815D01*
X634563Y435978D01*
X634700Y436139D01*
X634707Y436150D01*
X634715Y436161D01*
X634819Y436341D01*
X634928Y436528D01*
X634932Y436540D01*
X634939Y436551D01*
X635009Y436750D01*
X635083Y436950D01*
X635085Y436963D01*
X635090Y436976D01*
X635124Y437185D01*
X635161Y437394D01*
X635161Y437407D01*
X635163Y437420D01*
X635160Y437634D01*
X635159Y437844D01*
X635157Y437857D01*
X635157Y437870D01*
X635116Y438079D01*
X635079Y438287D01*
X635073Y438302D01*
X635071Y438312D01*
X635057Y438349D01*
X634977Y438582D01*
X633699Y441667D01*
X633699Y445693D01*
X635240Y449413D01*
X638087Y452260D01*
X641807Y453801D01*
X645833Y453801D01*
X649553Y452260D01*
X652400Y449413D01*
X653941Y445693D01*
X653941Y441667D01*
X652400Y437947D01*
X649553Y435100D01*
X647315Y434173D01*
X647212Y434119D01*
X647104Y434074D01*
X647012Y434015D01*
X646916Y433965D01*
X646824Y433893D01*
X646726Y433830D01*
X646610Y433727D01*
X646560Y433689D01*
X646536Y433662D01*
X646491Y433623D01*
X586420Y373552D01*
X585441Y373146D01*
X585283Y373064D01*
X585123Y372987D01*
X585084Y372960D01*
X585042Y372937D01*
X584901Y372829D01*
X584757Y372725D01*
X584724Y372691D01*
X584686Y372662D01*
X584567Y372530D01*
X584443Y372403D01*
X584416Y372363D01*
X584384Y372327D01*
X584290Y372177D01*
X584191Y372030D01*
X584172Y371986D01*
X584146Y371945D01*
X584080Y371780D01*
X584009Y371618D01*
X583997Y371571D01*
X583980Y371527D01*
X583944Y371353D01*
X583902Y371180D01*
X583899Y371133D01*
X583889Y371086D01*
X583885Y370908D01*
X583874Y370731D01*
X583880Y370683D01*
X583879Y370636D01*
X583906Y370460D01*
X583926Y370284D01*
X583940Y370238D01*
X583947Y370191D01*
X584005Y370023D01*
X584057Y369853D01*
X584078Y369810D01*
X584094Y369765D01*
X584181Y369609D01*
X584261Y369451D01*
X584290Y369413D01*
X584313Y369372D01*
X584426Y369234D01*
X584533Y369093D01*
X584568Y369060D01*
X584598Y369023D01*
X584733Y368908D01*
X584864Y368787D01*
X584905Y368762D01*
X584941Y368731D01*
X585094Y368641D01*
X585244Y368546D01*
X585288Y368527D01*
X585329Y368503D01*
X585496Y368442D01*
X585660Y368375D01*
X585707Y368365D01*
X585752Y368348D01*
X585927Y368317D01*
X586101Y368280D01*
X586160Y368276D01*
X586196Y368270D01*
X586259Y368270D01*
X586413Y368261D01*
X593760Y368261D01*
X593924Y368275D01*
X594088Y368282D01*
X594148Y368295D01*
X594209Y368301D01*
X594368Y368344D01*
X594528Y368380D01*
X594584Y368403D01*
X594643Y368419D01*
X594791Y368490D01*
X594943Y368553D01*
X594995Y368586D01*
X595050Y368613D01*
X595183Y368708D01*
X595322Y368798D01*
X595379Y368849D01*
X595416Y368875D01*
X595458Y368918D01*
X595556Y369004D01*
X659696Y433144D01*
X659801Y433271D01*
X659913Y433391D01*
X659945Y433443D01*
X659984Y433490D01*
X660066Y433632D01*
X660154Y433771D01*
X660178Y433828D01*
X660208Y433881D01*
X660263Y434035D01*
X660325Y434188D01*
X660338Y434247D01*
X660359Y434305D01*
X660385Y434467D01*
X660420Y434628D01*
X660425Y434705D01*
X660432Y434749D01*
X660431Y434810D01*
X660439Y434940D01*
X660439Y456600D01*
X660425Y456764D01*
X660418Y456928D01*
X660405Y456988D01*
X660399Y457049D01*
X660356Y457208D01*
X660320Y457368D01*
X660297Y457424D01*
X660281Y457483D01*
X660210Y457631D01*
X660147Y457783D01*
X660114Y457835D01*
X660087Y457890D01*
X659992Y458023D01*
X659902Y458162D01*
X659851Y458219D01*
X659825Y458256D01*
X659782Y458298D01*
X659696Y458396D01*
X655368Y462724D01*
X655341Y462746D01*
X655318Y462772D01*
X655168Y462891D01*
X655022Y463013D01*
X654992Y463030D01*
X654965Y463051D01*
X654796Y463142D01*
X654631Y463236D01*
X654599Y463248D01*
X654568Y463264D01*
X654387Y463323D01*
X654207Y463387D01*
X654173Y463392D01*
X654140Y463403D01*
X653951Y463429D01*
X653763Y463460D01*
X653728Y463460D01*
X653694Y463465D01*
X653503Y463457D01*
X653313Y463454D01*
X653279Y463448D01*
X653244Y463446D01*
X653058Y463405D01*
X652871Y463369D01*
X652838Y463356D01*
X652804Y463349D01*
X652629Y463275D01*
X652450Y463206D01*
X652421Y463188D01*
X652389Y463175D01*
X652229Y463072D01*
X652066Y462972D01*
X652040Y462949D01*
X652011Y462931D01*
X651777Y462724D01*
X649553Y460500D01*
X645833Y458959D01*
X641807Y458959D01*
X638087Y460500D01*
X635240Y463347D01*
X633699Y467067D01*
X633699Y471093D01*
X635240Y474813D01*
X638087Y477660D01*
X641807Y479201D01*
X645833Y479201D01*
X649553Y477660D01*
X652348Y474864D01*
X652474Y474759D01*
X652595Y474647D01*
X652647Y474615D01*
X652694Y474576D01*
X652836Y474494D01*
X652975Y474406D01*
X653032Y474382D01*
X653085Y474352D01*
X653240Y474297D01*
X653392Y474235D01*
X653451Y474222D01*
X653509Y474201D01*
X653671Y474175D01*
X653832Y474140D01*
X653909Y474135D01*
X653953Y474128D01*
X654014Y474129D01*
X654144Y474121D01*
X657143Y474121D01*
X658995Y473353D01*
X669753Y462595D01*
X670521Y460743D01*
X670521Y430797D01*
X669753Y428945D01*
X599755Y358947D01*
X597903Y358179D01*
X581333Y358179D01*
X581217Y358169D01*
X581100Y358169D01*
X580993Y358149D01*
X580885Y358139D01*
X580772Y358109D01*
X580657Y358088D01*
X580511Y358037D01*
X580450Y358021D01*
X580418Y358005D01*
X580362Y357986D01*
X577830Y356937D01*
X575330Y356937D01*
X573021Y357894D01*
X571254Y359661D01*
X570297Y361970D01*
X570297Y364470D01*
X571254Y366779D01*
X572924Y368449D01*
X573008Y368549D01*
X573098Y368642D01*
X573152Y368722D01*
X573213Y368795D01*
X573278Y368908D01*
X573351Y369015D01*
X573389Y369103D01*
X573437Y369186D01*
X573480Y369308D01*
X573533Y369427D01*
X573555Y369520D01*
X573587Y369610D01*
X573609Y369738D01*
X573639Y369865D01*
X573645Y369960D01*
X573661Y370054D01*
X573659Y370184D01*
X573667Y370314D01*
X573656Y370409D01*
X573655Y370505D01*
X573630Y370632D01*
X573615Y370761D01*
X573587Y370853D01*
X573569Y370947D01*
X573522Y371068D01*
X573485Y371192D01*
X573441Y371278D01*
X573407Y371367D01*
X573339Y371478D01*
X573280Y371594D01*
X573223Y371670D01*
X573173Y371751D01*
X573087Y371849D01*
X573008Y371952D01*
X572938Y372017D01*
X572875Y372089D01*
X572773Y372169D01*
X572677Y372258D01*
X572597Y372309D01*
X572522Y372368D01*
X572407Y372430D01*
X572298Y372499D01*
X572209Y372536D01*
X572125Y372581D01*
X572001Y372621D01*
X571881Y372670D01*
X571788Y372690D01*
X571697Y372720D01*
X571568Y372738D01*
X571441Y372765D01*
X571311Y372773D01*
X571251Y372781D01*
X571206Y372780D01*
X571129Y372784D01*
X543948Y372784D01*
X543771Y372769D01*
X543593Y372759D01*
X543547Y372749D01*
X543499Y372744D01*
X543328Y372698D01*
X543155Y372657D01*
X543111Y372638D01*
X543065Y372626D01*
X542905Y372550D01*
X542741Y372479D01*
X542701Y372453D01*
X542658Y372432D01*
X542514Y372329D01*
X542366Y372231D01*
X542331Y372198D01*
X542292Y372170D01*
X542168Y372043D01*
X542040Y371921D01*
X542011Y371882D01*
X541978Y371848D01*
X541879Y371701D01*
X541774Y371557D01*
X541753Y371514D01*
X541726Y371475D01*
X541654Y371312D01*
X541576Y371153D01*
X541563Y371107D01*
X541544Y371063D01*
X541502Y370890D01*
X541453Y370719D01*
X541448Y370672D01*
X541437Y370625D01*
X541426Y370448D01*
X541409Y370271D01*
X541412Y370224D01*
X541409Y370176D01*
X541430Y369999D01*
X541444Y369822D01*
X541456Y369776D01*
X541462Y369729D01*
X541513Y369558D01*
X541558Y369387D01*
X541578Y369344D01*
X541592Y369298D01*
X541673Y369139D01*
X541747Y368978D01*
X541775Y368939D01*
X541796Y368896D01*
X541903Y368755D01*
X542005Y368609D01*
X542039Y368576D01*
X542068Y368538D01*
X542199Y368417D01*
X542325Y368292D01*
X542364Y368265D01*
X542399Y368233D01*
X542549Y368137D01*
X542695Y368036D01*
X542749Y368010D01*
X542779Y367991D01*
X542837Y367967D01*
X542976Y367899D01*
X545914Y366682D01*
X548739Y363858D01*
X550267Y360167D01*
X550267Y356173D01*
X548739Y352482D01*
X545914Y349658D01*
X542224Y348129D01*
X538229Y348129D01*
X534539Y349658D01*
X531714Y352482D01*
X530186Y356173D01*
X530186Y360167D01*
X531714Y363858D01*
X534539Y366682D01*
X537477Y367899D01*
X537635Y367982D01*
X537795Y368058D01*
X537833Y368085D01*
X537876Y368108D01*
X538017Y368217D01*
X538161Y368320D01*
X538194Y368354D01*
X538232Y368383D01*
X538351Y368515D01*
X538475Y368642D01*
X538502Y368682D01*
X538533Y368718D01*
X538627Y368868D01*
X538727Y369015D01*
X538746Y369059D01*
X538771Y369100D01*
X538837Y369265D01*
X538909Y369427D01*
X538920Y369474D01*
X538938Y369518D01*
X538974Y369692D01*
X539016Y369865D01*
X539019Y369912D01*
X539028Y369959D01*
X539032Y370137D01*
X539043Y370314D01*
X539038Y370362D01*
X539039Y370409D01*
X539012Y370585D01*
X538991Y370761D01*
X538977Y370807D01*
X538970Y370854D01*
X538912Y371022D01*
X538861Y371192D01*
X538839Y371235D01*
X538824Y371280D01*
X538737Y371435D01*
X538657Y371594D01*
X538628Y371632D01*
X538604Y371673D01*
X538492Y371811D01*
X538385Y371952D01*
X538349Y371985D01*
X538319Y372022D01*
X538184Y372137D01*
X538053Y372258D01*
X538013Y372283D01*
X537977Y372314D01*
X537824Y372404D01*
X537674Y372499D01*
X537629Y372518D01*
X537588Y372542D01*
X537422Y372603D01*
X537257Y372670D01*
X537210Y372680D01*
X537165Y372697D01*
X536991Y372728D01*
X536817Y372765D01*
X536758Y372769D01*
X536722Y372775D01*
X536659Y372775D01*
X536505Y372784D01*
X496535Y372784D01*
X496371Y372770D01*
X496207Y372763D01*
X496147Y372750D01*
X496086Y372744D01*
X495927Y372701D01*
X495767Y372665D01*
X495711Y372642D01*
X495652Y372626D01*
X495504Y372555D01*
X495352Y372492D01*
X495300Y372459D01*
X495245Y372432D01*
X495112Y372337D01*
X494973Y372247D01*
X494916Y372196D01*
X494879Y372170D01*
X494837Y372127D01*
X494739Y372041D01*
X465395Y342697D01*
X465320Y342607D01*
X465238Y342524D01*
X465176Y342435D01*
X465106Y342351D01*
X465049Y342250D01*
X464982Y342154D01*
X464914Y342015D01*
X464883Y341960D01*
X464871Y341926D01*
X464845Y341873D01*
X463796Y339341D01*
X462029Y337574D01*
X459998Y336733D01*
X459811Y336635D01*
X459621Y336538D01*
X459611Y336530D01*
X459599Y336524D01*
X459432Y336394D01*
X459263Y336266D01*
X459254Y336256D01*
X459243Y336248D01*
X459101Y336091D01*
X458957Y335935D01*
X458950Y335924D01*
X458942Y335914D01*
X458830Y335734D01*
X458716Y335555D01*
X458711Y335543D01*
X458704Y335532D01*
X458625Y335335D01*
X458545Y335139D01*
X458542Y335126D01*
X458537Y335114D01*
X458494Y334904D01*
X458450Y334699D01*
X458449Y334683D01*
X458447Y334672D01*
X458446Y334633D01*
X458431Y334387D01*
X458431Y272809D01*
X457663Y270957D01*
X429301Y242595D01*
X429196Y242468D01*
X429084Y242348D01*
X429052Y242296D01*
X429013Y242249D01*
X428931Y242107D01*
X428843Y241968D01*
X428819Y241911D01*
X428789Y241858D01*
X428734Y241704D01*
X428672Y241551D01*
X428659Y241492D01*
X428638Y241434D01*
X428612Y241272D01*
X428577Y241111D01*
X428572Y241034D01*
X428565Y240990D01*
X428566Y240929D01*
X428558Y240799D01*
X428558Y240685D01*
X427601Y238376D01*
X425834Y236609D01*
X423525Y235652D01*
X421025Y235652D01*
X418716Y236609D01*
X416949Y238376D01*
X415992Y240685D01*
X415992Y243185D01*
X416949Y245494D01*
X418716Y247261D01*
X419947Y247771D01*
X420050Y247825D01*
X420159Y247870D01*
X420250Y247929D01*
X420346Y247980D01*
X420439Y248051D01*
X420537Y248115D01*
X420652Y248217D01*
X420702Y248255D01*
X420726Y248282D01*
X420771Y248322D01*
X447606Y275156D01*
X447711Y275283D01*
X447823Y275403D01*
X447855Y275455D01*
X447894Y275502D01*
X447976Y275644D01*
X448064Y275783D01*
X448088Y275840D01*
X448118Y275893D01*
X448173Y276047D01*
X448235Y276200D01*
X448248Y276259D01*
X448269Y276317D01*
X448295Y276479D01*
X448330Y276640D01*
X448335Y276717D01*
X448342Y276761D01*
X448341Y276822D01*
X448349Y276952D01*
X448349Y338823D01*
X449117Y340675D01*
X450892Y342450D01*
X450892Y342451D01*
X451545Y343103D01*
X451619Y343193D01*
X451702Y343276D01*
X451764Y343365D01*
X451833Y343449D01*
X451891Y343550D01*
X451958Y343646D01*
X452026Y343785D01*
X452057Y343840D01*
X452069Y343874D01*
X452095Y343927D01*
X453144Y346459D01*
X454911Y348226D01*
X457443Y349275D01*
X457546Y349329D01*
X457654Y349374D01*
X457746Y349433D01*
X457842Y349483D01*
X457934Y349555D01*
X458033Y349618D01*
X458148Y349720D01*
X458198Y349759D01*
X458222Y349786D01*
X458267Y349825D01*
X488765Y380323D01*
X490226Y381784D01*
X490309Y381884D01*
X490400Y381977D01*
X490453Y382057D01*
X490515Y382130D01*
X490579Y382243D01*
X490652Y382350D01*
X490691Y382438D01*
X490738Y382521D01*
X490782Y382643D01*
X490834Y382762D01*
X490857Y382855D01*
X490889Y382945D01*
X490910Y383073D01*
X490941Y383200D01*
X490947Y383295D01*
X490962Y383389D01*
X490961Y383519D01*
X490969Y383649D01*
X490958Y383744D01*
X490956Y383840D01*
X490932Y383967D01*
X490917Y384096D01*
X490889Y384188D01*
X490871Y384282D01*
X490824Y384403D01*
X490786Y384527D01*
X490743Y384613D01*
X490708Y384702D01*
X490641Y384813D01*
X490582Y384929D01*
X490524Y385005D01*
X490475Y385086D01*
X490388Y385184D01*
X490310Y385287D01*
X490240Y385352D01*
X490176Y385424D01*
X490074Y385504D01*
X489979Y385593D01*
X489898Y385644D01*
X489823Y385703D01*
X489709Y385765D01*
X489599Y385834D01*
X489511Y385871D01*
X489426Y385916D01*
X489303Y385956D01*
X489182Y386005D01*
X489089Y386025D01*
X488998Y386055D01*
X488870Y386073D01*
X488742Y386100D01*
X488612Y386108D01*
X488552Y386116D01*
X488507Y386115D01*
X488430Y386119D01*
X485740Y386119D01*
X485576Y386105D01*
X485412Y386098D01*
X485352Y386085D01*
X485291Y386079D01*
X485132Y386036D01*
X484972Y386000D01*
X484916Y385977D01*
X484857Y385961D01*
X484709Y385890D01*
X484557Y385827D01*
X484505Y385794D01*
X484450Y385767D01*
X484317Y385672D01*
X484178Y385582D01*
X484121Y385531D01*
X484084Y385505D01*
X484042Y385462D01*
X483944Y385376D01*
X437584Y339016D01*
X437479Y338889D01*
X437367Y338769D01*
X437335Y338717D01*
X437296Y338670D01*
X437214Y338528D01*
X437126Y338389D01*
X437102Y338332D01*
X437072Y338279D01*
X437017Y338125D01*
X436955Y337972D01*
X436942Y337913D01*
X436921Y337855D01*
X436895Y337693D01*
X436860Y337532D01*
X436855Y337455D01*
X436848Y337411D01*
X436849Y337350D01*
X436841Y337220D01*
X436841Y334953D01*
X436851Y334837D01*
X436851Y334720D01*
X436871Y334613D01*
X436881Y334505D01*
X436911Y334392D01*
X436932Y334277D01*
X436983Y334131D01*
X436999Y334070D01*
X437015Y334038D01*
X437034Y333982D01*
X438083Y331450D01*
X438083Y328950D01*
X437034Y326418D01*
X436999Y326307D01*
X436955Y326199D01*
X436932Y326093D01*
X436899Y325989D01*
X436885Y325873D01*
X436860Y325759D01*
X436850Y325605D01*
X436843Y325542D01*
X436844Y325506D01*
X436841Y325447D01*
X436841Y275603D01*
X436073Y273751D01*
X398079Y235757D01*
X396227Y234989D01*
X394135Y234989D01*
X394019Y234979D01*
X393902Y234979D01*
X393795Y234959D01*
X393687Y234949D01*
X393574Y234919D01*
X393459Y234898D01*
X393313Y234847D01*
X393252Y234831D01*
X393220Y234815D01*
X393164Y234796D01*
X390632Y233747D01*
X388132Y233747D01*
X385823Y234704D01*
X384056Y236471D01*
X383099Y238780D01*
X383099Y241280D01*
X384056Y243589D01*
X385823Y245356D01*
X388132Y246313D01*
X390632Y246313D01*
X391713Y245865D01*
X391917Y245801D01*
X392117Y245736D01*
X392130Y245734D01*
X392143Y245730D01*
X392354Y245703D01*
X392563Y245674D01*
X392576Y245675D01*
X392590Y245673D01*
X392800Y245684D01*
X393013Y245693D01*
X393026Y245696D01*
X393039Y245696D01*
X393245Y245744D01*
X393453Y245790D01*
X393465Y245795D01*
X393478Y245798D01*
X393671Y245882D01*
X393868Y245964D01*
X393879Y245971D01*
X393891Y245976D01*
X394067Y246092D01*
X394246Y246208D01*
X394258Y246219D01*
X394267Y246225D01*
X394295Y246252D01*
X394481Y246415D01*
X426016Y277950D01*
X426121Y278077D01*
X426233Y278197D01*
X426265Y278249D01*
X426304Y278296D01*
X426386Y278438D01*
X426474Y278577D01*
X426498Y278634D01*
X426528Y278687D01*
X426583Y278841D01*
X426645Y278994D01*
X426658Y279053D01*
X426679Y279111D01*
X426705Y279273D01*
X426740Y279434D01*
X426745Y279511D01*
X426752Y279555D01*
X426751Y279616D01*
X426759Y279746D01*
X426759Y325447D01*
X426749Y325563D01*
X426749Y325680D01*
X426729Y325787D01*
X426719Y325895D01*
X426689Y326008D01*
X426668Y326123D01*
X426617Y326269D01*
X426601Y326330D01*
X426585Y326362D01*
X426566Y326418D01*
X425517Y328950D01*
X425517Y331450D01*
X426566Y333982D01*
X426601Y334093D01*
X426645Y334201D01*
X426668Y334307D01*
X426701Y334411D01*
X426715Y334527D01*
X426740Y334641D01*
X426750Y334795D01*
X426757Y334858D01*
X426756Y334894D01*
X426759Y334953D01*
X426759Y341363D01*
X427527Y343215D01*
X429302Y344990D01*
X476256Y391944D01*
X476339Y392044D01*
X476430Y392137D01*
X476483Y392217D01*
X476545Y392290D01*
X476609Y392403D01*
X476682Y392510D01*
X476721Y392598D01*
X476768Y392681D01*
X476812Y392803D01*
X476864Y392922D01*
X476887Y393015D01*
X476919Y393105D01*
X476940Y393234D01*
X476971Y393360D01*
X476977Y393455D01*
X476992Y393549D01*
X476991Y393680D01*
X476999Y393809D01*
X476988Y393904D01*
X476986Y394000D01*
X476962Y394127D01*
X476947Y394256D01*
X476919Y394348D01*
X476901Y394442D01*
X476854Y394563D01*
X476816Y394687D01*
X476773Y394772D01*
X476738Y394862D01*
X476671Y394973D01*
X476612Y395089D01*
X476554Y395165D01*
X476505Y395246D01*
X476418Y395344D01*
X476340Y395447D01*
X476270Y395512D01*
X476206Y395584D01*
X476105Y395664D01*
X476009Y395753D01*
X475928Y395804D01*
X475853Y395863D01*
X475739Y395924D01*
X475629Y395994D01*
X475541Y396031D01*
X475456Y396076D01*
X475333Y396116D01*
X475212Y396165D01*
X475119Y396185D01*
X475028Y396215D01*
X474899Y396233D01*
X474772Y396260D01*
X474642Y396268D01*
X474582Y396276D01*
X474537Y396275D01*
X474460Y396279D01*
X470500Y396279D01*
X470336Y396265D01*
X470172Y396258D01*
X470112Y396245D01*
X470051Y396239D01*
X469892Y396196D01*
X469732Y396160D01*
X469676Y396137D01*
X469617Y396121D01*
X469469Y396050D01*
X469317Y395987D01*
X469265Y395954D01*
X469210Y395927D01*
X469077Y395832D01*
X468938Y395742D01*
X468881Y395691D01*
X468844Y395665D01*
X468802Y395622D01*
X468704Y395536D01*
X457515Y384347D01*
X455663Y383579D01*
X446776Y383579D01*
X446646Y383568D01*
X446517Y383566D01*
X446423Y383548D01*
X446328Y383539D01*
X446202Y383505D01*
X446075Y383480D01*
X445985Y383446D01*
X445893Y383421D01*
X445776Y383365D01*
X445655Y383318D01*
X445573Y383268D01*
X445487Y383227D01*
X445381Y383152D01*
X445270Y383084D01*
X445198Y383021D01*
X445121Y382965D01*
X445030Y382872D01*
X444932Y382786D01*
X444873Y382711D01*
X444807Y382643D01*
X444734Y382535D01*
X444653Y382433D01*
X444608Y382349D01*
X444554Y382270D01*
X444502Y382151D01*
X444440Y382036D01*
X444411Y381945D01*
X444372Y381858D01*
X444341Y381731D01*
X444301Y381608D01*
X444288Y381513D01*
X444266Y381420D01*
X444258Y381291D01*
X444240Y381162D01*
X444244Y381066D01*
X444238Y380971D01*
X444253Y380842D01*
X444258Y380712D01*
X444279Y380619D01*
X444290Y380524D01*
X444328Y380399D01*
X444356Y380272D01*
X444393Y380184D01*
X444420Y380093D01*
X444479Y379977D01*
X444529Y379857D01*
X444581Y379777D01*
X444625Y379691D01*
X444703Y379588D01*
X444774Y379479D01*
X444860Y379381D01*
X444897Y379333D01*
X444929Y379302D01*
X444981Y379244D01*
X445578Y378647D01*
X446535Y376338D01*
X446535Y373838D01*
X445578Y371529D01*
X443811Y369762D01*
X441279Y368713D01*
X441176Y368659D01*
X441068Y368614D01*
X440976Y368555D01*
X440880Y368505D01*
X440788Y368433D01*
X440689Y368370D01*
X440574Y368268D01*
X440524Y368229D01*
X440500Y368202D01*
X440455Y368163D01*
X419804Y347512D01*
X419699Y347386D01*
X419587Y347265D01*
X419555Y347213D01*
X419516Y347166D01*
X419434Y347024D01*
X419346Y346885D01*
X419322Y346828D01*
X419292Y346775D01*
X419237Y346621D01*
X419175Y346468D01*
X419162Y346409D01*
X419141Y346351D01*
X419115Y346189D01*
X419080Y346028D01*
X419075Y345951D01*
X419068Y345907D01*
X419069Y345846D01*
X419061Y345716D01*
X419061Y284493D01*
X418293Y282641D01*
X397831Y262179D01*
X397756Y262089D01*
X397674Y262006D01*
X397612Y261917D01*
X397542Y261833D01*
X397485Y261732D01*
X397418Y261636D01*
X397350Y261497D01*
X397319Y261442D01*
X397307Y261408D01*
X397281Y261355D01*
X396232Y258823D01*
X394465Y257056D01*
X392156Y256099D01*
X389656Y256099D01*
X387347Y257056D01*
X385580Y258823D01*
X384623Y261132D01*
X384623Y263632D01*
X385580Y265941D01*
X387347Y267708D01*
X389879Y268757D01*
X389982Y268811D01*
X390090Y268856D01*
X390182Y268915D01*
X390278Y268965D01*
X390370Y269037D01*
X390469Y269100D01*
X390584Y269202D01*
X390634Y269241D01*
X390658Y269268D01*
X390703Y269307D01*
X408236Y286840D01*
X408341Y286967D01*
X408453Y287087D01*
X408485Y287139D01*
X408524Y287186D01*
X408606Y287328D01*
X408694Y287467D01*
X408718Y287524D01*
X408748Y287577D01*
X408803Y287731D01*
X408865Y287884D01*
X408878Y287943D01*
X408899Y288001D01*
X408925Y288163D01*
X408960Y288324D01*
X408965Y288401D01*
X408972Y288445D01*
X408971Y288506D01*
X408979Y288636D01*
X408979Y349859D01*
X409747Y351711D01*
X433327Y375291D01*
X433402Y375381D01*
X433484Y375464D01*
X433546Y375553D01*
X433616Y375637D01*
X433673Y375738D01*
X433740Y375834D01*
X433808Y375973D01*
X433839Y376028D01*
X433851Y376062D01*
X433877Y376115D01*
X434926Y378647D01*
X435523Y379244D01*
X435607Y379344D01*
X435697Y379437D01*
X435751Y379517D01*
X435812Y379590D01*
X435877Y379703D01*
X435950Y379810D01*
X435988Y379898D01*
X436036Y379981D01*
X436079Y380103D01*
X436132Y380222D01*
X436154Y380315D01*
X436186Y380405D01*
X436208Y380533D01*
X436238Y380660D01*
X436244Y380755D01*
X436260Y380849D01*
X436258Y380979D01*
X436266Y381109D01*
X436255Y381204D01*
X436254Y381299D01*
X436229Y381427D01*
X436214Y381556D01*
X436186Y381648D01*
X436168Y381742D01*
X436121Y381863D01*
X436084Y381987D01*
X436040Y382073D01*
X436006Y382162D01*
X435938Y382273D01*
X435879Y382389D01*
X435822Y382465D01*
X435772Y382546D01*
X435686Y382644D01*
X435607Y382747D01*
X435537Y382812D01*
X435474Y382884D01*
X435372Y382964D01*
X435276Y383053D01*
X435196Y383104D01*
X435121Y383163D01*
X435006Y383225D01*
X434896Y383294D01*
X434808Y383331D01*
X434724Y383376D01*
X434600Y383416D01*
X434480Y383465D01*
X434386Y383485D01*
X434296Y383515D01*
X434167Y383533D01*
X434040Y383560D01*
X433910Y383568D01*
X433850Y383576D01*
X433805Y383575D01*
X433728Y383579D01*
X432400Y383579D01*
X432236Y383565D01*
X432072Y383558D01*
X432012Y383545D01*
X431951Y383539D01*
X431792Y383496D01*
X431632Y383460D01*
X431576Y383437D01*
X431517Y383421D01*
X431369Y383350D01*
X431217Y383287D01*
X431165Y383254D01*
X431110Y383227D01*
X430977Y383132D01*
X430838Y383042D01*
X430781Y382991D01*
X430744Y382965D01*
X430702Y382922D01*
X430604Y382836D01*
X367605Y319837D01*
X367530Y319747D01*
X367448Y319664D01*
X367386Y319575D01*
X367316Y319491D01*
X367259Y319390D01*
X367192Y319294D01*
X367124Y319155D01*
X367093Y319100D01*
X367081Y319066D01*
X367055Y319013D01*
X366006Y316481D01*
X364239Y314714D01*
X361930Y313757D01*
X359430Y313757D01*
X357031Y314751D01*
X357010Y314768D01*
X356897Y314833D01*
X356790Y314906D01*
X356702Y314944D01*
X356619Y314992D01*
X356497Y315035D01*
X356378Y315088D01*
X356285Y315110D01*
X356195Y315142D01*
X356067Y315164D01*
X355940Y315194D01*
X355845Y315200D01*
X355751Y315216D01*
X355621Y315214D01*
X355491Y315222D01*
X355396Y315211D01*
X355301Y315210D01*
X355173Y315185D01*
X355044Y315170D01*
X354952Y315142D01*
X354859Y315124D01*
X354737Y315078D01*
X354613Y315040D01*
X354528Y314996D01*
X354439Y314962D01*
X354328Y314895D01*
X354211Y314835D01*
X354135Y314778D01*
X354054Y314728D01*
X353956Y314642D01*
X353853Y314563D01*
X353788Y314493D01*
X353717Y314430D01*
X353636Y314328D01*
X353547Y314232D01*
X353496Y314152D01*
X353437Y314077D01*
X353376Y313962D01*
X353306Y313853D01*
X353269Y313764D01*
X353224Y313680D01*
X353184Y313556D01*
X353135Y313436D01*
X353115Y313343D01*
X353085Y313252D01*
X353067Y313123D01*
X353040Y312996D01*
X353032Y312866D01*
X353024Y312806D01*
X353025Y312761D01*
X353021Y312684D01*
X353021Y307940D01*
X353035Y307776D01*
X353042Y307612D01*
X353055Y307552D01*
X353061Y307491D01*
X353104Y307332D01*
X353140Y307172D01*
X353163Y307116D01*
X353179Y307057D01*
X353250Y306909D01*
X353313Y306757D01*
X353346Y306705D01*
X353373Y306650D01*
X353468Y306517D01*
X353558Y306378D01*
X353609Y306321D01*
X353635Y306284D01*
X353678Y306242D01*
X353764Y306144D01*
X358343Y301565D01*
X358433Y301491D01*
X358516Y301408D01*
X358606Y301346D01*
X358689Y301276D01*
X358790Y301219D01*
X358886Y301152D01*
X359025Y301084D01*
X359080Y301053D01*
X359114Y301041D01*
X359167Y301015D01*
X361699Y299966D01*
X363466Y298199D01*
X364423Y295890D01*
X364423Y293390D01*
X363466Y291081D01*
X361699Y289314D01*
X359390Y288357D01*
X356890Y288357D01*
X354581Y289314D01*
X352814Y291081D01*
X351765Y293613D01*
X351711Y293717D01*
X351666Y293824D01*
X351607Y293916D01*
X351557Y294012D01*
X351485Y294104D01*
X351422Y294203D01*
X351320Y294318D01*
X351281Y294368D01*
X351254Y294392D01*
X351215Y294437D01*
X345482Y300170D01*
X343707Y301945D01*
X342939Y303797D01*
X342939Y315480D01*
X342924Y315657D01*
X342914Y315834D01*
X342904Y315881D01*
X342899Y315929D01*
X342853Y316100D01*
X342812Y316273D01*
X342793Y316317D01*
X342781Y316363D01*
X342705Y316523D01*
X342634Y316687D01*
X342608Y316727D01*
X342587Y316770D01*
X342484Y316914D01*
X342386Y317062D01*
X342353Y317097D01*
X342325Y317136D01*
X342198Y317259D01*
X342075Y317388D01*
X342037Y317416D01*
X342003Y317450D01*
X341855Y317549D01*
X341712Y317654D01*
X341669Y317675D01*
X341630Y317702D01*
X341467Y317774D01*
X341307Y317852D01*
X341261Y317865D01*
X341218Y317884D01*
X341045Y317926D01*
X340874Y317975D01*
X340827Y317979D01*
X340780Y317991D01*
X340603Y318002D01*
X340426Y318019D01*
X340379Y318015D01*
X340331Y318018D01*
X340154Y317998D01*
X339977Y317984D01*
X339931Y317972D01*
X339884Y317966D01*
X339713Y317915D01*
X339542Y317870D01*
X339498Y317850D01*
X339453Y317836D01*
X339294Y317755D01*
X339133Y317681D01*
X339094Y317653D01*
X339051Y317632D01*
X338910Y317524D01*
X338764Y317422D01*
X338731Y317388D01*
X338693Y317360D01*
X338572Y317229D01*
X338447Y317103D01*
X338420Y317064D01*
X338388Y317028D01*
X338292Y316878D01*
X338191Y316732D01*
X338165Y316679D01*
X338146Y316649D01*
X338122Y316590D01*
X338070Y316485D01*
X336299Y314714D01*
X333767Y313665D01*
X333664Y313611D01*
X333556Y313566D01*
X333464Y313507D01*
X333368Y313457D01*
X333276Y313385D01*
X333177Y313322D01*
X333062Y313220D01*
X333012Y313181D01*
X332988Y313154D01*
X332943Y313115D01*
X295344Y275516D01*
X295239Y275389D01*
X295127Y275269D01*
X295095Y275217D01*
X295056Y275170D01*
X294974Y275028D01*
X294886Y274889D01*
X294862Y274832D01*
X294832Y274779D01*
X294777Y274625D01*
X294715Y274472D01*
X294702Y274413D01*
X294681Y274355D01*
X294655Y274193D01*
X294620Y274032D01*
X294615Y273955D01*
X294608Y273911D01*
X294609Y273850D01*
X294601Y273720D01*
X294601Y120698D01*
X294615Y120534D01*
X294622Y120370D01*
X294635Y120311D01*
X294641Y120250D01*
X294684Y120091D01*
X294720Y119930D01*
X294743Y119874D01*
X294759Y119815D01*
X294830Y119667D01*
X294893Y119515D01*
X294926Y119464D01*
X294953Y119409D01*
X295048Y119275D01*
X295138Y119137D01*
X295189Y119079D01*
X295215Y119043D01*
X295258Y119000D01*
X295344Y118903D01*
X296804Y117443D01*
X297649Y115404D01*
X297649Y113196D01*
X296804Y111157D01*
X295243Y109596D01*
X293204Y108751D01*
X290996Y108751D01*
G37*
%LPD*%
%LPC*%
G36*
X354597Y25439D02*
X354597Y25439D01*
X352745Y26207D01*
X323776Y55176D01*
X323649Y55281D01*
X323529Y55393D01*
X323477Y55425D01*
X323430Y55464D01*
X323288Y55546D01*
X323149Y55634D01*
X323092Y55658D01*
X323039Y55688D01*
X322885Y55743D01*
X322732Y55805D01*
X322673Y55818D01*
X322615Y55839D01*
X322453Y55865D01*
X322292Y55900D01*
X322215Y55905D01*
X322171Y55912D01*
X322110Y55911D01*
X321980Y55919D01*
X236515Y55919D01*
X236399Y55909D01*
X236282Y55909D01*
X236175Y55889D01*
X236067Y55879D01*
X235954Y55849D01*
X235839Y55828D01*
X235693Y55777D01*
X235632Y55761D01*
X235600Y55745D01*
X235543Y55726D01*
X234784Y55411D01*
X232576Y55411D01*
X230537Y56256D01*
X228976Y57817D01*
X228131Y59856D01*
X228131Y62064D01*
X228976Y64103D01*
X230537Y65664D01*
X232576Y66509D01*
X234784Y66509D01*
X235543Y66194D01*
X235655Y66159D01*
X235763Y66115D01*
X235869Y66092D01*
X235973Y66059D01*
X236089Y66045D01*
X236203Y66020D01*
X236357Y66010D01*
X236420Y66003D01*
X236456Y66004D01*
X236515Y66001D01*
X326123Y66001D01*
X327975Y65233D01*
X356944Y36264D01*
X357071Y36159D01*
X357191Y36047D01*
X357243Y36015D01*
X357290Y35976D01*
X357432Y35894D01*
X357571Y35806D01*
X357628Y35782D01*
X357681Y35752D01*
X357835Y35697D01*
X357988Y35635D01*
X358047Y35622D01*
X358105Y35601D01*
X358267Y35575D01*
X358428Y35540D01*
X358505Y35535D01*
X358549Y35528D01*
X358610Y35529D01*
X358740Y35521D01*
X448980Y35521D01*
X449144Y35535D01*
X449308Y35542D01*
X449368Y35555D01*
X449429Y35561D01*
X449588Y35604D01*
X449748Y35640D01*
X449804Y35663D01*
X449863Y35679D01*
X450011Y35750D01*
X450163Y35813D01*
X450215Y35846D01*
X450270Y35873D01*
X450403Y35968D01*
X450542Y36058D01*
X450599Y36109D01*
X450636Y36135D01*
X450678Y36178D01*
X450776Y36264D01*
X465956Y51444D01*
X466061Y51571D01*
X466173Y51691D01*
X466205Y51743D01*
X466244Y51790D01*
X466326Y51932D01*
X466414Y52071D01*
X466438Y52128D01*
X466468Y52181D01*
X466523Y52335D01*
X466585Y52488D01*
X466598Y52547D01*
X466619Y52605D01*
X466645Y52767D01*
X466680Y52928D01*
X466685Y53005D01*
X466692Y53049D01*
X466691Y53110D01*
X466699Y53240D01*
X466699Y59902D01*
X466685Y60065D01*
X466678Y60230D01*
X466665Y60289D01*
X466659Y60350D01*
X466616Y60509D01*
X466580Y60670D01*
X466557Y60726D01*
X466541Y60785D01*
X466470Y60933D01*
X466407Y61085D01*
X466374Y61136D01*
X466347Y61191D01*
X466252Y61325D01*
X466162Y61463D01*
X466111Y61521D01*
X466085Y61557D01*
X466042Y61600D01*
X465956Y61697D01*
X465172Y62481D01*
X464215Y64790D01*
X464215Y67290D01*
X465172Y69599D01*
X466939Y71366D01*
X469248Y72323D01*
X471748Y72323D01*
X472192Y72139D01*
X472293Y72107D01*
X472391Y72066D01*
X472508Y72040D01*
X472622Y72004D01*
X472727Y71991D01*
X472831Y71967D01*
X472950Y71962D01*
X473068Y71947D01*
X473174Y71953D01*
X473280Y71948D01*
X473399Y71964D01*
X473518Y71970D01*
X473621Y71994D01*
X473727Y72009D01*
X473840Y72045D01*
X473956Y72072D01*
X474054Y72114D01*
X474155Y72147D01*
X474260Y72203D01*
X474370Y72250D01*
X474459Y72309D01*
X474552Y72359D01*
X474646Y72433D01*
X474746Y72498D01*
X474823Y72572D01*
X474906Y72638D01*
X474985Y72727D01*
X475072Y72809D01*
X475135Y72895D01*
X475205Y72974D01*
X475267Y73076D01*
X475338Y73172D01*
X475384Y73268D01*
X475440Y73359D01*
X475483Y73470D01*
X475535Y73577D01*
X475564Y73679D01*
X475603Y73778D01*
X475626Y73896D01*
X475658Y74010D01*
X475669Y74116D01*
X475689Y74220D01*
X475691Y74339D01*
X475703Y74458D01*
X475694Y74564D01*
X475696Y74670D01*
X475672Y74846D01*
X475668Y74907D01*
X475660Y74935D01*
X475654Y74980D01*
X474279Y81892D01*
X474279Y92868D01*
X476421Y103633D01*
X480621Y113774D01*
X486719Y122900D01*
X494480Y130661D01*
X503606Y136759D01*
X513747Y140959D01*
X524512Y143101D01*
X535488Y143101D01*
X546253Y140959D01*
X556394Y136759D01*
X565520Y130661D01*
X573281Y122900D01*
X579379Y113774D01*
X583579Y103633D01*
X585721Y92868D01*
X585721Y81892D01*
X583579Y71127D01*
X579379Y60986D01*
X573281Y51860D01*
X565520Y44099D01*
X556394Y38001D01*
X546253Y33801D01*
X535488Y31659D01*
X524512Y31659D01*
X513747Y33801D01*
X503606Y38001D01*
X494480Y44099D01*
X486719Y51860D01*
X481431Y59774D01*
X481335Y59893D01*
X481245Y60018D01*
X481194Y60069D01*
X481149Y60124D01*
X481033Y60225D01*
X480923Y60332D01*
X480863Y60373D01*
X480809Y60420D01*
X480677Y60499D01*
X480550Y60585D01*
X480484Y60614D01*
X480422Y60650D01*
X480279Y60704D01*
X480138Y60767D01*
X480068Y60784D01*
X480001Y60809D01*
X479850Y60837D01*
X479700Y60873D01*
X479629Y60878D01*
X479558Y60891D01*
X479405Y60892D01*
X479251Y60901D01*
X479180Y60893D01*
X479108Y60893D01*
X478957Y60867D01*
X478804Y60849D01*
X478735Y60828D01*
X478664Y60816D01*
X478520Y60763D01*
X478373Y60719D01*
X478309Y60686D01*
X478241Y60662D01*
X478108Y60584D01*
X477971Y60514D01*
X477914Y60471D01*
X477852Y60435D01*
X477735Y60335D01*
X477613Y60242D01*
X477564Y60190D01*
X477509Y60143D01*
X477412Y60024D01*
X477307Y59911D01*
X477269Y59851D01*
X477223Y59795D01*
X477148Y59661D01*
X477066Y59532D01*
X477038Y59465D01*
X477003Y59403D01*
X476953Y59257D01*
X476895Y59115D01*
X476880Y59045D01*
X476856Y58977D01*
X476832Y58825D01*
X476800Y58675D01*
X476794Y58583D01*
X476786Y58532D01*
X476788Y58475D01*
X476781Y58363D01*
X476781Y49097D01*
X476013Y47245D01*
X454975Y26207D01*
X453123Y25439D01*
X354597Y25439D01*
G37*
%LPD*%
%LPC*%
G36*
X167703Y55639D02*
X167703Y55639D01*
X164012Y57168D01*
X162985Y58196D01*
X162859Y58301D01*
X162738Y58413D01*
X162686Y58445D01*
X162639Y58484D01*
X162497Y58566D01*
X162358Y58654D01*
X162301Y58678D01*
X162248Y58708D01*
X162093Y58763D01*
X161941Y58825D01*
X161882Y58838D01*
X161824Y58859D01*
X161662Y58885D01*
X161501Y58920D01*
X161424Y58925D01*
X161380Y58932D01*
X161319Y58931D01*
X161189Y58939D01*
X122472Y58939D01*
X119686Y60093D01*
X72313Y107466D01*
X71159Y110252D01*
X71159Y153288D01*
X71145Y153452D01*
X71138Y153616D01*
X71125Y153676D01*
X71119Y153737D01*
X71076Y153896D01*
X71040Y154056D01*
X71017Y154112D01*
X71001Y154171D01*
X70930Y154319D01*
X70867Y154471D01*
X70834Y154523D01*
X70807Y154578D01*
X70712Y154711D01*
X70622Y154850D01*
X70571Y154907D01*
X70545Y154944D01*
X70502Y154986D01*
X70416Y155084D01*
X57353Y168146D01*
X56199Y170932D01*
X56199Y293608D01*
X57353Y296394D01*
X67876Y306916D01*
X67981Y307043D01*
X68093Y307163D01*
X68125Y307215D01*
X68164Y307262D01*
X68246Y307404D01*
X68334Y307543D01*
X68358Y307600D01*
X68388Y307653D01*
X68443Y307807D01*
X68505Y307960D01*
X68518Y308019D01*
X68539Y308077D01*
X68565Y308239D01*
X68600Y308400D01*
X68605Y308477D01*
X68612Y308521D01*
X68611Y308582D01*
X68619Y308712D01*
X68619Y364388D01*
X68605Y364552D01*
X68598Y364716D01*
X68585Y364776D01*
X68579Y364837D01*
X68536Y364996D01*
X68500Y365156D01*
X68477Y365212D01*
X68461Y365271D01*
X68390Y365419D01*
X68327Y365571D01*
X68294Y365623D01*
X68267Y365678D01*
X68172Y365811D01*
X68082Y365950D01*
X68031Y366007D01*
X68005Y366044D01*
X67962Y366086D01*
X67876Y366184D01*
X57353Y376706D01*
X56199Y379492D01*
X56199Y451509D01*
X56188Y451639D01*
X56186Y451769D01*
X56168Y451862D01*
X56159Y451958D01*
X56125Y452083D01*
X56100Y452211D01*
X56066Y452300D01*
X56041Y452392D01*
X55985Y452509D01*
X55938Y452631D01*
X55888Y452713D01*
X55847Y452799D01*
X55772Y452904D01*
X55704Y453016D01*
X55641Y453087D01*
X55585Y453165D01*
X55492Y453256D01*
X55406Y453353D01*
X55331Y453412D01*
X55263Y453479D01*
X55155Y453552D01*
X55053Y453632D01*
X54969Y453678D01*
X54890Y453731D01*
X54771Y453784D01*
X54656Y453845D01*
X54565Y453875D01*
X54478Y453913D01*
X54351Y453944D01*
X54228Y453984D01*
X54133Y453997D01*
X54040Y454020D01*
X53911Y454028D01*
X53782Y454046D01*
X53686Y454042D01*
X53591Y454048D01*
X53462Y454033D01*
X53332Y454027D01*
X53239Y454007D01*
X53144Y453995D01*
X53019Y453958D01*
X52892Y453930D01*
X52804Y453893D01*
X52713Y453865D01*
X52597Y453806D01*
X52477Y453756D01*
X52397Y453704D01*
X52311Y453661D01*
X52208Y453582D01*
X52099Y453512D01*
X52001Y453426D01*
X51953Y453389D01*
X51922Y453356D01*
X51864Y453305D01*
X49468Y450908D01*
X45777Y449379D01*
X41783Y449379D01*
X38092Y450908D01*
X35268Y453732D01*
X33739Y457423D01*
X33739Y461417D01*
X35268Y465108D01*
X38092Y467932D01*
X41783Y469461D01*
X45777Y469461D01*
X49468Y467932D01*
X51984Y465415D01*
X52011Y465393D01*
X52034Y465367D01*
X52183Y465249D01*
X52330Y465126D01*
X52360Y465109D01*
X52387Y465088D01*
X52555Y464998D01*
X52721Y464903D01*
X52753Y464891D01*
X52784Y464875D01*
X52965Y464816D01*
X53145Y464752D01*
X53179Y464747D01*
X53212Y464736D01*
X53401Y464710D01*
X53589Y464679D01*
X53624Y464679D01*
X53658Y464674D01*
X53849Y464682D01*
X54039Y464685D01*
X54074Y464691D01*
X54108Y464693D01*
X54294Y464734D01*
X54482Y464770D01*
X54514Y464783D01*
X54548Y464790D01*
X54724Y464864D01*
X54902Y464933D01*
X54931Y464951D01*
X54963Y464964D01*
X55124Y465068D01*
X55286Y465167D01*
X55312Y465190D01*
X55341Y465208D01*
X55576Y465415D01*
X58092Y467932D01*
X61783Y469461D01*
X65777Y469461D01*
X69468Y467932D01*
X72292Y465108D01*
X73821Y461417D01*
X73821Y457423D01*
X72292Y453732D01*
X72104Y453545D01*
X71999Y453418D01*
X71887Y453298D01*
X71855Y453246D01*
X71816Y453199D01*
X71734Y453057D01*
X71646Y452918D01*
X71622Y452861D01*
X71592Y452808D01*
X71537Y452654D01*
X71475Y452501D01*
X71462Y452442D01*
X71441Y452384D01*
X71415Y452222D01*
X71380Y452061D01*
X71375Y451984D01*
X71368Y451940D01*
X71369Y451879D01*
X71361Y451749D01*
X71361Y385192D01*
X71375Y385028D01*
X71382Y384864D01*
X71395Y384804D01*
X71401Y384743D01*
X71444Y384584D01*
X71480Y384424D01*
X71503Y384368D01*
X71519Y384309D01*
X71590Y384161D01*
X71653Y384009D01*
X71686Y383957D01*
X71713Y383902D01*
X71808Y383769D01*
X71898Y383630D01*
X71949Y383573D01*
X71975Y383536D01*
X72018Y383494D01*
X72104Y383396D01*
X82627Y372874D01*
X83781Y370088D01*
X83781Y303012D01*
X82627Y300226D01*
X72104Y289704D01*
X71999Y289577D01*
X71887Y289457D01*
X71855Y289405D01*
X71816Y289358D01*
X71734Y289216D01*
X71646Y289077D01*
X71622Y289020D01*
X71592Y288967D01*
X71537Y288813D01*
X71475Y288660D01*
X71462Y288601D01*
X71441Y288543D01*
X71415Y288381D01*
X71380Y288220D01*
X71375Y288143D01*
X71368Y288099D01*
X71369Y288038D01*
X71361Y287908D01*
X71361Y176632D01*
X71375Y176468D01*
X71382Y176304D01*
X71395Y176244D01*
X71401Y176183D01*
X71444Y176024D01*
X71480Y175864D01*
X71503Y175808D01*
X71519Y175749D01*
X71590Y175601D01*
X71653Y175449D01*
X71686Y175397D01*
X71713Y175342D01*
X71808Y175209D01*
X71898Y175070D01*
X71949Y175013D01*
X71975Y174976D01*
X72018Y174934D01*
X72104Y174836D01*
X85167Y161774D01*
X86321Y158988D01*
X86321Y115952D01*
X86335Y115788D01*
X86342Y115624D01*
X86355Y115564D01*
X86361Y115503D01*
X86404Y115344D01*
X86440Y115184D01*
X86463Y115128D01*
X86479Y115069D01*
X86550Y114921D01*
X86613Y114769D01*
X86646Y114717D01*
X86673Y114662D01*
X86768Y114529D01*
X86858Y114390D01*
X86909Y114333D01*
X86935Y114296D01*
X86978Y114254D01*
X87064Y114156D01*
X126376Y74844D01*
X126503Y74739D01*
X126623Y74627D01*
X126675Y74595D01*
X126722Y74556D01*
X126864Y74474D01*
X127003Y74386D01*
X127060Y74362D01*
X127113Y74332D01*
X127267Y74277D01*
X127420Y74215D01*
X127479Y74202D01*
X127537Y74181D01*
X127699Y74155D01*
X127860Y74120D01*
X127937Y74115D01*
X127981Y74108D01*
X128042Y74109D01*
X128172Y74101D01*
X163287Y74101D01*
X163403Y74111D01*
X163520Y74111D01*
X163627Y74131D01*
X163735Y74141D01*
X163848Y74171D01*
X163963Y74192D01*
X164109Y74243D01*
X164170Y74259D01*
X164202Y74275D01*
X164258Y74294D01*
X167703Y75721D01*
X171697Y75721D01*
X175388Y74192D01*
X178212Y71368D01*
X179741Y67677D01*
X179741Y63683D01*
X178212Y59992D01*
X175388Y57168D01*
X171697Y55639D01*
X167703Y55639D01*
G37*
%LPD*%
%LPC*%
G36*
X144792Y340715D02*
X144792Y340715D01*
X141931Y341900D01*
X139742Y344090D01*
X138557Y346950D01*
X138557Y350046D01*
X138566Y350067D01*
X138601Y350179D01*
X138645Y350287D01*
X138668Y350393D01*
X138701Y350497D01*
X138715Y350613D01*
X138740Y350727D01*
X138750Y350881D01*
X138757Y350944D01*
X138756Y350980D01*
X138759Y351039D01*
X138759Y354928D01*
X138745Y355092D01*
X138738Y355256D01*
X138725Y355316D01*
X138719Y355377D01*
X138676Y355536D01*
X138640Y355696D01*
X138617Y355752D01*
X138601Y355811D01*
X138530Y355959D01*
X138467Y356111D01*
X138434Y356163D01*
X138407Y356218D01*
X138312Y356351D01*
X138222Y356490D01*
X138171Y356547D01*
X138145Y356584D01*
X138102Y356626D01*
X138016Y356724D01*
X82473Y412266D01*
X81319Y415052D01*
X81319Y465708D01*
X81305Y465872D01*
X81298Y466036D01*
X81285Y466096D01*
X81279Y466157D01*
X81236Y466315D01*
X81200Y466476D01*
X81177Y466532D01*
X81161Y466591D01*
X81090Y466739D01*
X81027Y466891D01*
X80994Y466943D01*
X80967Y466998D01*
X80872Y467131D01*
X80782Y467270D01*
X80731Y467327D01*
X80705Y467364D01*
X80662Y467406D01*
X80576Y467504D01*
X73804Y474276D01*
X73677Y474381D01*
X73557Y474493D01*
X73505Y474525D01*
X73458Y474564D01*
X73316Y474646D01*
X73177Y474734D01*
X73120Y474758D01*
X73067Y474788D01*
X72913Y474843D01*
X72760Y474905D01*
X72701Y474918D01*
X72643Y474939D01*
X72481Y474965D01*
X72320Y475000D01*
X72243Y475005D01*
X72199Y475012D01*
X72138Y475011D01*
X72008Y475019D01*
X54372Y475019D01*
X51586Y476173D01*
X38593Y489166D01*
X37439Y491952D01*
X37439Y500329D01*
X37425Y500493D01*
X37418Y500657D01*
X37405Y500717D01*
X37399Y500778D01*
X37356Y500937D01*
X37320Y501097D01*
X37297Y501153D01*
X37281Y501212D01*
X37210Y501360D01*
X37147Y501512D01*
X37114Y501564D01*
X37087Y501619D01*
X36992Y501752D01*
X36902Y501891D01*
X36851Y501948D01*
X36825Y501985D01*
X36782Y502027D01*
X36696Y502125D01*
X36508Y502312D01*
X34979Y506003D01*
X34979Y509997D01*
X36508Y513688D01*
X39332Y516512D01*
X43023Y518041D01*
X47017Y518041D01*
X50708Y516512D01*
X53532Y513688D01*
X55061Y509997D01*
X55061Y506003D01*
X53532Y502312D01*
X53344Y502125D01*
X53239Y501998D01*
X53127Y501878D01*
X53095Y501826D01*
X53056Y501779D01*
X52974Y501637D01*
X52886Y501498D01*
X52862Y501441D01*
X52832Y501388D01*
X52777Y501234D01*
X52715Y501081D01*
X52702Y501022D01*
X52681Y500964D01*
X52655Y500802D01*
X52620Y500641D01*
X52615Y500564D01*
X52608Y500520D01*
X52609Y500459D01*
X52601Y500329D01*
X52601Y497652D01*
X52603Y497622D01*
X52602Y497595D01*
X52616Y497472D01*
X52622Y497324D01*
X52635Y497264D01*
X52641Y497203D01*
X52652Y497161D01*
X52654Y497147D01*
X52676Y497075D01*
X52684Y497044D01*
X52720Y496884D01*
X52743Y496828D01*
X52759Y496769D01*
X52784Y496717D01*
X52784Y496716D01*
X52786Y496713D01*
X52830Y496621D01*
X52893Y496469D01*
X52926Y496417D01*
X52953Y496362D01*
X53048Y496229D01*
X53138Y496090D01*
X53189Y496033D01*
X53215Y495996D01*
X53258Y495954D01*
X53344Y495856D01*
X58276Y490924D01*
X58403Y490819D01*
X58523Y490707D01*
X58575Y490675D01*
X58622Y490636D01*
X58764Y490554D01*
X58903Y490466D01*
X58960Y490442D01*
X59013Y490412D01*
X59167Y490357D01*
X59320Y490295D01*
X59379Y490282D01*
X59437Y490261D01*
X59599Y490235D01*
X59760Y490200D01*
X59837Y490195D01*
X59881Y490188D01*
X59942Y490189D01*
X60072Y490181D01*
X77708Y490181D01*
X80494Y489027D01*
X95327Y474194D01*
X96481Y471408D01*
X96481Y442768D01*
X96482Y442757D01*
X96481Y442745D01*
X96502Y442533D01*
X96521Y442320D01*
X96524Y442309D01*
X96525Y442297D01*
X96583Y442091D01*
X96639Y441886D01*
X96644Y441875D01*
X96647Y441864D01*
X96742Y441670D01*
X96833Y441479D01*
X96839Y441470D01*
X96844Y441459D01*
X96970Y441287D01*
X97095Y441113D01*
X97103Y441105D01*
X97110Y441095D01*
X97263Y440949D01*
X97417Y440799D01*
X97427Y440792D01*
X97435Y440784D01*
X97613Y440667D01*
X97790Y440547D01*
X97801Y440542D01*
X97811Y440536D01*
X98006Y440451D01*
X98202Y440365D01*
X98213Y440362D01*
X98224Y440357D01*
X98433Y440308D01*
X98640Y440258D01*
X98651Y440257D01*
X98662Y440255D01*
X98878Y440243D01*
X99089Y440230D01*
X99100Y440232D01*
X99112Y440231D01*
X99324Y440258D01*
X99536Y440282D01*
X99547Y440286D01*
X99559Y440287D01*
X99761Y440350D01*
X99967Y440413D01*
X99978Y440418D01*
X99989Y440421D01*
X100178Y440520D01*
X100369Y440617D01*
X100378Y440624D01*
X100388Y440629D01*
X100557Y440760D01*
X100727Y440889D01*
X100735Y440897D01*
X100744Y440905D01*
X100887Y441062D01*
X101032Y441220D01*
X101039Y441230D01*
X101046Y441238D01*
X101219Y441499D01*
X102334Y443431D01*
X106989Y448086D01*
X112690Y451377D01*
X119049Y453081D01*
X125631Y453081D01*
X131990Y451377D01*
X137691Y448086D01*
X142346Y443431D01*
X145637Y437730D01*
X147341Y431371D01*
X147341Y424789D01*
X145637Y418430D01*
X142346Y412729D01*
X137691Y408074D01*
X131990Y404783D01*
X125631Y403079D01*
X119232Y403079D01*
X119102Y403068D01*
X118972Y403066D01*
X118878Y403048D01*
X118783Y403039D01*
X118658Y403005D01*
X118530Y402980D01*
X118441Y402946D01*
X118349Y402921D01*
X118232Y402865D01*
X118110Y402818D01*
X118028Y402768D01*
X117942Y402727D01*
X117837Y402652D01*
X117725Y402584D01*
X117654Y402521D01*
X117576Y402465D01*
X117485Y402372D01*
X117388Y402286D01*
X117329Y402211D01*
X117262Y402143D01*
X117189Y402035D01*
X117109Y401933D01*
X117064Y401849D01*
X117010Y401770D01*
X116957Y401651D01*
X116896Y401536D01*
X116866Y401445D01*
X116828Y401358D01*
X116797Y401231D01*
X116757Y401108D01*
X116744Y401013D01*
X116721Y400920D01*
X116713Y400790D01*
X116695Y400662D01*
X116699Y400566D01*
X116693Y400471D01*
X116708Y400342D01*
X116714Y400212D01*
X116734Y400119D01*
X116746Y400024D01*
X116783Y399899D01*
X116811Y399772D01*
X116848Y399684D01*
X116876Y399593D01*
X116935Y399477D01*
X116985Y399357D01*
X117037Y399276D01*
X117080Y399191D01*
X117159Y399088D01*
X117229Y398979D01*
X117315Y398881D01*
X117352Y398833D01*
X117385Y398802D01*
X117436Y398744D01*
X152767Y363414D01*
X153921Y360628D01*
X153921Y351039D01*
X153931Y350922D01*
X153931Y350806D01*
X153951Y350699D01*
X153961Y350590D01*
X153991Y350478D01*
X154012Y350363D01*
X154063Y350217D01*
X154079Y350156D01*
X154095Y350123D01*
X154114Y350067D01*
X154123Y350046D01*
X154123Y346950D01*
X152938Y344090D01*
X150749Y341900D01*
X147888Y340715D01*
X144792Y340715D01*
G37*
%LPD*%
%LPC*%
G36*
X443003Y102739D02*
X443003Y102739D01*
X439312Y104268D01*
X436488Y107092D01*
X434959Y110783D01*
X434959Y114777D01*
X435093Y115099D01*
X435149Y115279D01*
X435211Y115458D01*
X435216Y115494D01*
X435227Y115529D01*
X435251Y115716D01*
X435280Y115903D01*
X435280Y115939D01*
X435284Y115975D01*
X435274Y116164D01*
X435270Y116353D01*
X435263Y116389D01*
X435261Y116425D01*
X435218Y116610D01*
X435181Y116795D01*
X435167Y116828D01*
X435159Y116864D01*
X435084Y117037D01*
X435014Y117213D01*
X434995Y117244D01*
X434981Y117277D01*
X434877Y117435D01*
X434777Y117596D01*
X434753Y117623D01*
X434733Y117653D01*
X434602Y117790D01*
X434476Y117930D01*
X434447Y117953D01*
X434422Y117979D01*
X434270Y118090D01*
X434120Y118206D01*
X434088Y118223D01*
X434059Y118245D01*
X433889Y118328D01*
X433721Y118416D01*
X433687Y118426D01*
X433654Y118442D01*
X433472Y118494D01*
X433292Y118551D01*
X433256Y118555D01*
X433221Y118565D01*
X433033Y118584D01*
X432845Y118608D01*
X432809Y118606D01*
X432773Y118610D01*
X432585Y118595D01*
X432396Y118586D01*
X432352Y118577D01*
X432324Y118575D01*
X432265Y118559D01*
X432089Y118524D01*
X430431Y118079D01*
X423849Y118079D01*
X417490Y119783D01*
X411789Y123074D01*
X407134Y127729D01*
X403843Y133430D01*
X402139Y139789D01*
X402139Y146371D01*
X403843Y152730D01*
X404806Y154397D01*
X404856Y154505D01*
X404914Y154608D01*
X404950Y154709D01*
X404995Y154806D01*
X405026Y154920D01*
X405065Y155032D01*
X405083Y155138D01*
X405110Y155241D01*
X405119Y155359D01*
X405139Y155476D01*
X405137Y155583D01*
X405146Y155690D01*
X405134Y155808D01*
X405133Y155926D01*
X405112Y156032D01*
X405102Y156138D01*
X405070Y156252D01*
X405047Y156369D01*
X405008Y156468D01*
X404979Y156571D01*
X404928Y156678D01*
X404885Y156789D01*
X404829Y156880D01*
X404782Y156976D01*
X404713Y157072D01*
X404651Y157173D01*
X404580Y157253D01*
X404517Y157340D01*
X404431Y157422D01*
X404353Y157511D01*
X404269Y157577D01*
X404191Y157651D01*
X404092Y157717D01*
X404000Y157790D01*
X403905Y157841D01*
X403816Y157900D01*
X403707Y157947D01*
X403603Y158003D01*
X403501Y158036D01*
X403403Y158078D01*
X403287Y158105D01*
X403174Y158142D01*
X403068Y158156D01*
X402964Y158181D01*
X402846Y158187D01*
X402728Y158203D01*
X402621Y158199D01*
X402515Y158205D01*
X402397Y158190D01*
X402279Y158185D01*
X402174Y158162D01*
X402068Y158148D01*
X401955Y158113D01*
X401839Y158087D01*
X401740Y158046D01*
X401638Y158014D01*
X401533Y157959D01*
X401424Y157914D01*
X401334Y157856D01*
X401239Y157806D01*
X401145Y157734D01*
X401045Y157669D01*
X400932Y157570D01*
X400882Y157531D01*
X400857Y157503D01*
X400811Y157462D01*
X396301Y152953D01*
X394449Y152185D01*
X386007Y152185D01*
X385891Y152175D01*
X385774Y152175D01*
X385667Y152155D01*
X385559Y152145D01*
X385446Y152115D01*
X385331Y152094D01*
X385185Y152043D01*
X385124Y152027D01*
X385092Y152011D01*
X385036Y151992D01*
X382504Y150943D01*
X380004Y150943D01*
X377695Y151900D01*
X375928Y153667D01*
X374971Y155976D01*
X374971Y158476D01*
X375928Y160785D01*
X377695Y162552D01*
X380004Y163509D01*
X382504Y163509D01*
X385036Y162460D01*
X385147Y162425D01*
X385255Y162381D01*
X385361Y162358D01*
X385465Y162325D01*
X385581Y162311D01*
X385695Y162286D01*
X385849Y162276D01*
X385912Y162269D01*
X385948Y162270D01*
X386007Y162267D01*
X390306Y162267D01*
X390470Y162281D01*
X390634Y162288D01*
X390694Y162301D01*
X390755Y162307D01*
X390914Y162350D01*
X391074Y162386D01*
X391130Y162409D01*
X391189Y162425D01*
X391337Y162496D01*
X391489Y162559D01*
X391541Y162592D01*
X391596Y162619D01*
X391729Y162714D01*
X391868Y162804D01*
X391925Y162855D01*
X391962Y162881D01*
X392004Y162924D01*
X392102Y163010D01*
X404310Y175218D01*
X406085Y176993D01*
X407937Y177761D01*
X450583Y177761D01*
X452435Y176993D01*
X454210Y175218D01*
X454211Y175218D01*
X456004Y173424D01*
X456130Y173319D01*
X456251Y173207D01*
X456303Y173175D01*
X456350Y173136D01*
X456492Y173054D01*
X456631Y172966D01*
X456688Y172942D01*
X456741Y172912D01*
X456896Y172857D01*
X457048Y172795D01*
X457107Y172782D01*
X457165Y172761D01*
X457327Y172735D01*
X457488Y172700D01*
X457565Y172695D01*
X457609Y172688D01*
X457670Y172689D01*
X457800Y172681D01*
X568360Y172681D01*
X568524Y172695D01*
X568688Y172702D01*
X568748Y172715D01*
X568809Y172721D01*
X568968Y172764D01*
X569128Y172800D01*
X569184Y172823D01*
X569243Y172839D01*
X569391Y172910D01*
X569543Y172973D01*
X569595Y173006D01*
X569650Y173033D01*
X569783Y173128D01*
X569922Y173218D01*
X569979Y173269D01*
X570016Y173295D01*
X570058Y173338D01*
X570156Y173424D01*
X579815Y183083D01*
X579890Y183173D01*
X579972Y183256D01*
X580034Y183345D01*
X580104Y183429D01*
X580162Y183530D01*
X580228Y183626D01*
X580296Y183765D01*
X580327Y183820D01*
X580339Y183854D01*
X580365Y183907D01*
X581414Y186439D01*
X583181Y188206D01*
X585490Y189163D01*
X587990Y189163D01*
X590299Y188206D01*
X592066Y186439D01*
X593023Y184130D01*
X593023Y181630D01*
X592066Y179321D01*
X590299Y177554D01*
X587767Y176505D01*
X587664Y176451D01*
X587556Y176406D01*
X587464Y176347D01*
X587368Y176297D01*
X587276Y176225D01*
X587177Y176162D01*
X587062Y176060D01*
X587012Y176021D01*
X586988Y175994D01*
X586943Y175955D01*
X576130Y165142D01*
X574355Y163367D01*
X572503Y162599D01*
X453657Y162599D01*
X451805Y163367D01*
X450029Y165142D01*
X448236Y166936D01*
X448110Y167041D01*
X447989Y167153D01*
X447937Y167185D01*
X447890Y167224D01*
X447748Y167306D01*
X447609Y167394D01*
X447552Y167418D01*
X447499Y167448D01*
X447344Y167503D01*
X447192Y167565D01*
X447133Y167578D01*
X447075Y167599D01*
X446913Y167625D01*
X446752Y167660D01*
X446675Y167665D01*
X446631Y167672D01*
X446570Y167671D01*
X446440Y167679D01*
X444011Y167679D01*
X443998Y167678D01*
X443986Y167679D01*
X443775Y167658D01*
X443562Y167639D01*
X443550Y167636D01*
X443538Y167635D01*
X443333Y167577D01*
X443128Y167521D01*
X443117Y167515D01*
X443105Y167512D01*
X442911Y167418D01*
X442721Y167327D01*
X442711Y167320D01*
X442700Y167315D01*
X442528Y167189D01*
X442355Y167065D01*
X442347Y167056D01*
X442336Y167049D01*
X442190Y166895D01*
X442041Y166743D01*
X442034Y166732D01*
X442026Y166723D01*
X441909Y166546D01*
X441789Y166370D01*
X441784Y166358D01*
X441777Y166348D01*
X441693Y166153D01*
X441607Y165958D01*
X441604Y165946D01*
X441599Y165934D01*
X441551Y165727D01*
X441500Y165520D01*
X441499Y165508D01*
X441497Y165496D01*
X441486Y165283D01*
X441473Y165071D01*
X441474Y165058D01*
X441473Y165046D01*
X441500Y164837D01*
X441525Y164624D01*
X441528Y164612D01*
X441530Y164599D01*
X441594Y164396D01*
X441655Y164193D01*
X441661Y164182D01*
X441664Y164170D01*
X441763Y163980D01*
X441859Y163791D01*
X441867Y163782D01*
X441873Y163770D01*
X442004Y163601D01*
X442131Y163433D01*
X442140Y163424D01*
X442148Y163414D01*
X442293Y163284D01*
X447146Y158431D01*
X450437Y152730D01*
X452141Y146371D01*
X452141Y139789D01*
X450437Y133430D01*
X447146Y127729D01*
X446319Y126902D01*
X446266Y126839D01*
X446206Y126782D01*
X446122Y126667D01*
X446030Y126557D01*
X445989Y126485D01*
X445940Y126419D01*
X445877Y126290D01*
X445806Y126166D01*
X445779Y126088D01*
X445742Y126014D01*
X445703Y125876D01*
X445655Y125742D01*
X445642Y125660D01*
X445619Y125581D01*
X445605Y125438D01*
X445582Y125297D01*
X445583Y125215D01*
X445575Y125133D01*
X445586Y124990D01*
X445588Y124847D01*
X445604Y124766D01*
X445610Y124684D01*
X445646Y124546D01*
X445674Y124405D01*
X445703Y124328D01*
X445724Y124248D01*
X445784Y124119D01*
X445836Y123985D01*
X445879Y123915D01*
X445913Y123840D01*
X445996Y123722D01*
X446070Y123600D01*
X446124Y123539D01*
X446172Y123471D01*
X446273Y123370D01*
X446368Y123263D01*
X446433Y123212D01*
X446491Y123154D01*
X446609Y123072D01*
X446721Y122984D01*
X446794Y122945D01*
X446861Y122898D01*
X447083Y122789D01*
X447118Y122771D01*
X447128Y122768D01*
X447142Y122761D01*
X450688Y121292D01*
X453512Y118468D01*
X455041Y114777D01*
X455041Y110783D01*
X453512Y107092D01*
X450688Y104268D01*
X446997Y102739D01*
X443003Y102739D01*
G37*
%LPD*%
%LPC*%
G36*
X257976Y116371D02*
X257976Y116371D01*
X255937Y117216D01*
X254376Y118777D01*
X253531Y120816D01*
X253531Y123024D01*
X253846Y123783D01*
X253881Y123895D01*
X253925Y124003D01*
X253948Y124109D01*
X253981Y124213D01*
X253995Y124329D01*
X254020Y124443D01*
X254030Y124597D01*
X254037Y124660D01*
X254036Y124696D01*
X254039Y124755D01*
X254039Y136560D01*
X254025Y136724D01*
X254018Y136888D01*
X254005Y136948D01*
X253999Y137009D01*
X253956Y137168D01*
X253920Y137328D01*
X253897Y137384D01*
X253881Y137443D01*
X253810Y137591D01*
X253747Y137743D01*
X253714Y137795D01*
X253687Y137850D01*
X253592Y137983D01*
X253502Y138122D01*
X253451Y138179D01*
X253425Y138216D01*
X253382Y138258D01*
X253296Y138356D01*
X176456Y215196D01*
X176329Y215301D01*
X176209Y215413D01*
X176157Y215445D01*
X176110Y215484D01*
X175968Y215566D01*
X175829Y215654D01*
X175772Y215678D01*
X175719Y215708D01*
X175565Y215763D01*
X175412Y215825D01*
X175353Y215838D01*
X175295Y215859D01*
X175133Y215885D01*
X174972Y215920D01*
X174895Y215925D01*
X174851Y215932D01*
X174790Y215931D01*
X174660Y215939D01*
X166637Y215939D01*
X164785Y216707D01*
X163010Y218482D01*
X140507Y240985D01*
X139739Y242837D01*
X139739Y285991D01*
X140507Y287843D01*
X142282Y289618D01*
X163001Y310337D01*
X163076Y310427D01*
X163158Y310510D01*
X163220Y310599D01*
X163290Y310683D01*
X163347Y310784D01*
X163414Y310880D01*
X163482Y311019D01*
X163513Y311074D01*
X163525Y311108D01*
X163551Y311161D01*
X164600Y313693D01*
X166367Y315460D01*
X168676Y316417D01*
X171176Y316417D01*
X173485Y315460D01*
X175252Y313693D01*
X176209Y311384D01*
X176209Y308884D01*
X175252Y306575D01*
X173485Y304808D01*
X170953Y303759D01*
X170850Y303705D01*
X170742Y303660D01*
X170650Y303601D01*
X170554Y303551D01*
X170462Y303479D01*
X170363Y303416D01*
X170248Y303314D01*
X170198Y303275D01*
X170174Y303248D01*
X170129Y303209D01*
X150564Y283644D01*
X150459Y283517D01*
X150347Y283397D01*
X150315Y283345D01*
X150276Y283298D01*
X150194Y283156D01*
X150106Y283017D01*
X150082Y282960D01*
X150052Y282907D01*
X149997Y282753D01*
X149935Y282600D01*
X149922Y282541D01*
X149901Y282483D01*
X149875Y282321D01*
X149856Y282237D01*
X149849Y282208D01*
X149849Y282202D01*
X149840Y282160D01*
X149835Y282083D01*
X149828Y282039D01*
X149829Y281978D01*
X149821Y281848D01*
X149821Y246980D01*
X149835Y246816D01*
X149842Y246652D01*
X149855Y246592D01*
X149861Y246531D01*
X149904Y246372D01*
X149940Y246212D01*
X149963Y246156D01*
X149979Y246097D01*
X150050Y245949D01*
X150113Y245797D01*
X150146Y245745D01*
X150173Y245690D01*
X150268Y245557D01*
X150358Y245418D01*
X150409Y245361D01*
X150435Y245324D01*
X150478Y245282D01*
X150564Y245184D01*
X168984Y226764D01*
X169111Y226659D01*
X169231Y226547D01*
X169283Y226515D01*
X169330Y226476D01*
X169472Y226394D01*
X169611Y226306D01*
X169668Y226282D01*
X169721Y226252D01*
X169875Y226197D01*
X170028Y226135D01*
X170087Y226122D01*
X170145Y226101D01*
X170307Y226075D01*
X170468Y226040D01*
X170545Y226035D01*
X170589Y226028D01*
X170650Y226029D01*
X170780Y226021D01*
X178803Y226021D01*
X180655Y225253D01*
X263353Y142555D01*
X264121Y140703D01*
X264121Y124755D01*
X264131Y124639D01*
X264131Y124522D01*
X264151Y124415D01*
X264161Y124307D01*
X264191Y124194D01*
X264212Y124079D01*
X264263Y123933D01*
X264279Y123872D01*
X264295Y123840D01*
X264314Y123783D01*
X264629Y123024D01*
X264629Y120816D01*
X263784Y118777D01*
X262223Y117216D01*
X260184Y116371D01*
X257976Y116371D01*
G37*
%LPD*%
%LPC*%
G36*
X246654Y273117D02*
X246654Y273117D01*
X244345Y274074D01*
X242578Y275841D01*
X241621Y278150D01*
X241621Y280650D01*
X242578Y282959D01*
X244345Y284726D01*
X246877Y285775D01*
X246980Y285829D01*
X247088Y285874D01*
X247180Y285933D01*
X247276Y285983D01*
X247368Y286055D01*
X247467Y286118D01*
X247582Y286220D01*
X247632Y286259D01*
X247656Y286286D01*
X247701Y286325D01*
X347414Y386038D01*
X349189Y387813D01*
X351041Y388581D01*
X368627Y388581D01*
X368743Y388591D01*
X368860Y388591D01*
X368967Y388611D01*
X369075Y388621D01*
X369188Y388651D01*
X369303Y388672D01*
X369449Y388723D01*
X369510Y388739D01*
X369542Y388755D01*
X369598Y388774D01*
X372130Y389823D01*
X374630Y389823D01*
X376939Y388866D01*
X378706Y387099D01*
X379663Y384790D01*
X379663Y382290D01*
X378750Y380088D01*
X378697Y379919D01*
X378638Y379751D01*
X378630Y379704D01*
X378616Y379658D01*
X378593Y379482D01*
X378564Y379307D01*
X378565Y379259D01*
X378559Y379212D01*
X378568Y379035D01*
X378570Y378857D01*
X378580Y378810D01*
X378582Y378762D01*
X378622Y378590D01*
X378656Y378415D01*
X378673Y378370D01*
X378684Y378323D01*
X378747Y378176D01*
X378631Y378214D01*
X378464Y378275D01*
X378417Y378284D01*
X378372Y378299D01*
X378196Y378323D01*
X378021Y378354D01*
X377973Y378353D01*
X377926Y378360D01*
X377748Y378353D01*
X377571Y378352D01*
X377524Y378344D01*
X377476Y378342D01*
X377302Y378303D01*
X377128Y378271D01*
X377071Y378252D01*
X377036Y378244D01*
X376978Y378220D01*
X376832Y378170D01*
X374630Y377257D01*
X372130Y377257D01*
X369598Y378306D01*
X369487Y378341D01*
X369379Y378385D01*
X369273Y378408D01*
X369169Y378441D01*
X369053Y378455D01*
X368939Y378480D01*
X368785Y378490D01*
X368722Y378497D01*
X368686Y378496D01*
X368627Y378499D01*
X355184Y378499D01*
X355020Y378485D01*
X354856Y378478D01*
X354796Y378465D01*
X354735Y378459D01*
X354576Y378416D01*
X354416Y378380D01*
X354360Y378357D01*
X354301Y378341D01*
X354153Y378270D01*
X354001Y378207D01*
X353949Y378174D01*
X353894Y378147D01*
X353761Y378052D01*
X353622Y377962D01*
X353565Y377911D01*
X353528Y377885D01*
X353486Y377842D01*
X353388Y377756D01*
X254829Y279197D01*
X254754Y279107D01*
X254672Y279024D01*
X254610Y278935D01*
X254540Y278851D01*
X254483Y278750D01*
X254416Y278654D01*
X254348Y278515D01*
X254317Y278460D01*
X254305Y278426D01*
X254279Y278373D01*
X253230Y275841D01*
X251463Y274074D01*
X249154Y273117D01*
X246654Y273117D01*
G37*
%LPD*%
%LPC*%
G36*
X163996Y243371D02*
X163996Y243371D01*
X161957Y244216D01*
X160396Y245777D01*
X159551Y247816D01*
X159551Y250024D01*
X160396Y252063D01*
X161957Y253624D01*
X163996Y254469D01*
X166204Y254469D01*
X166963Y254154D01*
X167075Y254119D01*
X167183Y254075D01*
X167289Y254052D01*
X167393Y254019D01*
X167509Y254005D01*
X167623Y253980D01*
X167777Y253970D01*
X167840Y253963D01*
X167876Y253964D01*
X167935Y253961D01*
X174660Y253961D01*
X174824Y253975D01*
X174988Y253982D01*
X175048Y253995D01*
X175109Y254001D01*
X175268Y254044D01*
X175428Y254080D01*
X175484Y254103D01*
X175543Y254119D01*
X175691Y254190D01*
X175843Y254253D01*
X175895Y254286D01*
X175950Y254313D01*
X176083Y254408D01*
X176222Y254498D01*
X176279Y254549D01*
X176316Y254575D01*
X176358Y254618D01*
X176456Y254704D01*
X258765Y337013D01*
X260617Y337781D01*
X269567Y337781D01*
X269683Y337791D01*
X269800Y337791D01*
X269907Y337811D01*
X270015Y337821D01*
X270128Y337851D01*
X270243Y337872D01*
X270389Y337923D01*
X270450Y337939D01*
X270482Y337955D01*
X270538Y337974D01*
X273070Y339023D01*
X275570Y339023D01*
X277879Y338066D01*
X279646Y336299D01*
X280603Y333990D01*
X280603Y331490D01*
X279646Y329181D01*
X277879Y327414D01*
X275570Y326457D01*
X273070Y326457D01*
X270538Y327506D01*
X270427Y327541D01*
X270319Y327585D01*
X270213Y327608D01*
X270109Y327641D01*
X269993Y327655D01*
X269879Y327680D01*
X269725Y327690D01*
X269662Y327697D01*
X269626Y327696D01*
X269567Y327699D01*
X264760Y327699D01*
X264596Y327685D01*
X264432Y327678D01*
X264372Y327665D01*
X264311Y327659D01*
X264152Y327616D01*
X263992Y327580D01*
X263936Y327557D01*
X263877Y327541D01*
X263729Y327470D01*
X263577Y327407D01*
X263525Y327374D01*
X263470Y327347D01*
X263337Y327252D01*
X263198Y327162D01*
X263141Y327111D01*
X263104Y327085D01*
X263062Y327042D01*
X262964Y326956D01*
X180655Y244647D01*
X178803Y243879D01*
X167935Y243879D01*
X167819Y243869D01*
X167702Y243869D01*
X167595Y243849D01*
X167487Y243839D01*
X167374Y243809D01*
X167259Y243788D01*
X167113Y243737D01*
X167052Y243721D01*
X167020Y243705D01*
X166963Y243686D01*
X166204Y243371D01*
X163996Y243371D01*
G37*
%LPD*%
G36*
X12865Y99914D02*
X12865Y99914D01*
X12995Y99920D01*
X13088Y99940D01*
X13183Y99952D01*
X13308Y99989D01*
X13435Y100017D01*
X13523Y100054D01*
X13614Y100082D01*
X13730Y100141D01*
X13850Y100191D01*
X13930Y100243D01*
X14016Y100286D01*
X14119Y100365D01*
X14228Y100435D01*
X14326Y100521D01*
X14374Y100558D01*
X14405Y100591D01*
X14463Y100642D01*
X16012Y102192D01*
X19703Y103721D01*
X19968Y103721D01*
X20132Y103735D01*
X20296Y103742D01*
X20356Y103755D01*
X20417Y103761D01*
X20576Y103804D01*
X20736Y103840D01*
X20792Y103863D01*
X20851Y103879D01*
X20999Y103950D01*
X21151Y104013D01*
X21203Y104046D01*
X21258Y104073D01*
X21391Y104168D01*
X21530Y104258D01*
X21587Y104309D01*
X21624Y104335D01*
X21666Y104378D01*
X21764Y104464D01*
X37396Y120096D01*
X37485Y120203D01*
X37533Y120252D01*
X37544Y120269D01*
X37613Y120343D01*
X37645Y120395D01*
X37684Y120442D01*
X37766Y120584D01*
X37854Y120723D01*
X37878Y120780D01*
X37908Y120833D01*
X37963Y120987D01*
X38025Y121140D01*
X38038Y121199D01*
X38059Y121257D01*
X38085Y121419D01*
X38120Y121580D01*
X38125Y121657D01*
X38132Y121701D01*
X38131Y121762D01*
X38139Y121892D01*
X38139Y143128D01*
X38125Y143292D01*
X38118Y143456D01*
X38105Y143516D01*
X38099Y143577D01*
X38056Y143736D01*
X38020Y143896D01*
X37997Y143952D01*
X37981Y144011D01*
X37910Y144159D01*
X37847Y144311D01*
X37814Y144363D01*
X37787Y144418D01*
X37692Y144551D01*
X37602Y144690D01*
X37551Y144747D01*
X37525Y144784D01*
X37482Y144826D01*
X37396Y144924D01*
X14463Y167857D01*
X14363Y167940D01*
X14270Y168031D01*
X14190Y168084D01*
X14117Y168146D01*
X14004Y168210D01*
X13897Y168283D01*
X13809Y168322D01*
X13726Y168369D01*
X13604Y168413D01*
X13485Y168465D01*
X13392Y168488D01*
X13302Y168520D01*
X13173Y168541D01*
X13047Y168572D01*
X12952Y168578D01*
X12858Y168593D01*
X12727Y168592D01*
X12598Y168600D01*
X12503Y168589D01*
X12407Y168587D01*
X12280Y168562D01*
X12151Y168547D01*
X12059Y168520D01*
X11965Y168502D01*
X11844Y168455D01*
X11720Y168417D01*
X11635Y168374D01*
X11545Y168339D01*
X11434Y168272D01*
X11318Y168213D01*
X11242Y168155D01*
X11161Y168105D01*
X11063Y168019D01*
X10960Y167941D01*
X10895Y167870D01*
X10823Y167807D01*
X10743Y167705D01*
X10654Y167610D01*
X10603Y167529D01*
X10544Y167454D01*
X10483Y167340D01*
X10413Y167230D01*
X10376Y167141D01*
X10331Y167057D01*
X10291Y166934D01*
X10242Y166813D01*
X10222Y166720D01*
X10192Y166629D01*
X10174Y166500D01*
X10147Y166373D01*
X10139Y166243D01*
X10131Y166183D01*
X10132Y166138D01*
X10128Y166061D01*
X10128Y142494D01*
X10139Y142365D01*
X10141Y142235D01*
X10159Y142141D01*
X10168Y142046D01*
X10202Y141920D01*
X10227Y141793D01*
X10261Y141703D01*
X10286Y141611D01*
X10342Y141494D01*
X10389Y141373D01*
X10439Y141291D01*
X10480Y141205D01*
X10555Y141099D01*
X10623Y140988D01*
X10686Y140916D01*
X10742Y140839D01*
X10835Y140748D01*
X10921Y140651D01*
X10996Y140591D01*
X11064Y140525D01*
X11172Y140452D01*
X11274Y140371D01*
X11358Y140326D01*
X11437Y140273D01*
X11556Y140220D01*
X11671Y140159D01*
X11762Y140129D01*
X11849Y140090D01*
X11975Y140060D01*
X12099Y140019D01*
X12194Y140006D01*
X12287Y139984D01*
X12416Y139976D01*
X12545Y139958D01*
X12641Y139962D01*
X12736Y139956D01*
X12865Y139971D01*
X12995Y139976D01*
X13088Y139997D01*
X13183Y140008D01*
X13308Y140046D01*
X13435Y140074D01*
X13523Y140111D01*
X13614Y140138D01*
X13730Y140197D01*
X13850Y140248D01*
X13930Y140299D01*
X14016Y140343D01*
X14119Y140421D01*
X14228Y140492D01*
X14326Y140578D01*
X14374Y140615D01*
X14405Y140648D01*
X14463Y140699D01*
X15133Y141369D01*
X16417Y142302D01*
X17830Y143022D01*
X19161Y143454D01*
X19161Y133680D01*
X19161Y123906D01*
X17830Y124338D01*
X16417Y125058D01*
X15133Y125991D01*
X14463Y126661D01*
X14363Y126745D01*
X14270Y126835D01*
X14190Y126889D01*
X14117Y126950D01*
X14004Y127015D01*
X13897Y127087D01*
X13809Y127126D01*
X13726Y127173D01*
X13604Y127217D01*
X13485Y127270D01*
X13392Y127292D01*
X13302Y127324D01*
X13174Y127345D01*
X13047Y127376D01*
X12952Y127382D01*
X12858Y127398D01*
X12728Y127396D01*
X12598Y127404D01*
X12503Y127393D01*
X12408Y127392D01*
X12280Y127367D01*
X12151Y127352D01*
X12059Y127324D01*
X11965Y127306D01*
X11844Y127259D01*
X11720Y127222D01*
X11635Y127178D01*
X11545Y127144D01*
X11434Y127076D01*
X11318Y127017D01*
X11242Y126960D01*
X11161Y126910D01*
X11063Y126824D01*
X10960Y126745D01*
X10895Y126675D01*
X10823Y126612D01*
X10743Y126510D01*
X10654Y126414D01*
X10603Y126333D01*
X10544Y126259D01*
X10483Y126144D01*
X10413Y126034D01*
X10376Y125946D01*
X10331Y125862D01*
X10291Y125738D01*
X10242Y125618D01*
X10222Y125524D01*
X10192Y125434D01*
X10174Y125305D01*
X10147Y125178D01*
X10139Y125048D01*
X10131Y124988D01*
X10132Y124943D01*
X10128Y124866D01*
X10128Y102438D01*
X10139Y102308D01*
X10141Y102178D01*
X10159Y102085D01*
X10168Y101989D01*
X10202Y101864D01*
X10227Y101736D01*
X10261Y101647D01*
X10286Y101555D01*
X10342Y101438D01*
X10389Y101316D01*
X10439Y101234D01*
X10480Y101148D01*
X10555Y101043D01*
X10623Y100931D01*
X10686Y100860D01*
X10742Y100782D01*
X10835Y100691D01*
X10921Y100594D01*
X10996Y100535D01*
X11064Y100468D01*
X11172Y100395D01*
X11274Y100315D01*
X11358Y100269D01*
X11437Y100216D01*
X11556Y100163D01*
X11671Y100102D01*
X11762Y100072D01*
X11849Y100034D01*
X11976Y100003D01*
X12099Y99963D01*
X12194Y99950D01*
X12287Y99927D01*
X12416Y99919D01*
X12545Y99901D01*
X12641Y99905D01*
X12736Y99899D01*
X12865Y99914D01*
G37*
%LPC*%
G36*
X435122Y223597D02*
X435122Y223597D01*
X432813Y224554D01*
X431046Y226321D01*
X430089Y228630D01*
X430089Y231130D01*
X431046Y233439D01*
X432813Y235206D01*
X435345Y236255D01*
X435448Y236309D01*
X435556Y236354D01*
X435648Y236413D01*
X435744Y236463D01*
X435836Y236535D01*
X435935Y236598D01*
X436050Y236700D01*
X436100Y236739D01*
X436124Y236766D01*
X436169Y236805D01*
X474276Y274912D01*
X474381Y275039D01*
X474493Y275159D01*
X474525Y275211D01*
X474564Y275258D01*
X474646Y275400D01*
X474734Y275539D01*
X474758Y275596D01*
X474788Y275649D01*
X474843Y275803D01*
X474905Y275956D01*
X474918Y276015D01*
X474939Y276073D01*
X474965Y276235D01*
X475000Y276396D01*
X475005Y276473D01*
X475012Y276517D01*
X475011Y276578D01*
X475019Y276708D01*
X475019Y279727D01*
X475009Y279843D01*
X475009Y279960D01*
X474989Y280067D01*
X474979Y280175D01*
X474949Y280288D01*
X474928Y280403D01*
X474877Y280549D01*
X474861Y280610D01*
X474845Y280642D01*
X474826Y280698D01*
X473777Y283230D01*
X473777Y285730D01*
X474734Y288039D01*
X476501Y289806D01*
X478810Y290763D01*
X481310Y290763D01*
X483619Y289806D01*
X485386Y288039D01*
X486343Y285730D01*
X486343Y283230D01*
X485294Y280698D01*
X485259Y280587D01*
X485215Y280479D01*
X485192Y280373D01*
X485159Y280269D01*
X485145Y280153D01*
X485120Y280039D01*
X485110Y279885D01*
X485103Y279822D01*
X485104Y279786D01*
X485101Y279727D01*
X485101Y272565D01*
X484333Y270713D01*
X443297Y229677D01*
X443222Y229587D01*
X443140Y229504D01*
X443078Y229415D01*
X443008Y229331D01*
X442951Y229230D01*
X442884Y229134D01*
X442816Y228995D01*
X442785Y228940D01*
X442773Y228906D01*
X442747Y228853D01*
X441698Y226321D01*
X439931Y224554D01*
X437622Y223597D01*
X435122Y223597D01*
G37*
%LPD*%
%LPC*%
G36*
X125896Y101131D02*
X125896Y101131D01*
X123857Y101976D01*
X122296Y103537D01*
X121451Y105576D01*
X121451Y107784D01*
X122296Y109823D01*
X123857Y111384D01*
X125896Y112229D01*
X128104Y112229D01*
X128863Y111914D01*
X128975Y111879D01*
X129083Y111835D01*
X129189Y111812D01*
X129293Y111779D01*
X129409Y111765D01*
X129523Y111740D01*
X129677Y111730D01*
X129740Y111723D01*
X129776Y111724D01*
X129835Y111721D01*
X172120Y111721D01*
X172284Y111735D01*
X172448Y111742D01*
X172508Y111755D01*
X172569Y111761D01*
X172728Y111804D01*
X172888Y111840D01*
X172944Y111863D01*
X173003Y111879D01*
X173151Y111950D01*
X173303Y112013D01*
X173355Y112046D01*
X173410Y112073D01*
X173543Y112168D01*
X173682Y112258D01*
X173739Y112309D01*
X173776Y112335D01*
X173818Y112378D01*
X173916Y112464D01*
X184931Y123480D01*
X185006Y123569D01*
X185088Y123652D01*
X185150Y123741D01*
X185220Y123825D01*
X185278Y123927D01*
X185344Y124023D01*
X185412Y124161D01*
X185443Y124216D01*
X185455Y124250D01*
X185481Y124303D01*
X185796Y125063D01*
X187357Y126624D01*
X189396Y127469D01*
X191604Y127469D01*
X193643Y126624D01*
X195204Y125063D01*
X196049Y123024D01*
X196049Y120816D01*
X195204Y118777D01*
X193643Y117216D01*
X192883Y116901D01*
X192780Y116847D01*
X192672Y116802D01*
X192581Y116743D01*
X192484Y116693D01*
X192392Y116621D01*
X192294Y116558D01*
X192178Y116456D01*
X192128Y116417D01*
X192104Y116390D01*
X192060Y116351D01*
X179890Y104182D01*
X178115Y102407D01*
X176263Y101639D01*
X129835Y101639D01*
X129719Y101629D01*
X129602Y101629D01*
X129495Y101609D01*
X129387Y101599D01*
X129274Y101569D01*
X129159Y101548D01*
X129013Y101497D01*
X128952Y101481D01*
X128920Y101465D01*
X128863Y101446D01*
X128104Y101131D01*
X125896Y101131D01*
G37*
%LPD*%
%LPC*%
G36*
X616407Y433559D02*
X616407Y433559D01*
X612687Y435100D01*
X609840Y437947D01*
X608299Y441667D01*
X608299Y445693D01*
X609840Y449413D01*
X612687Y452260D01*
X616407Y453801D01*
X620433Y453801D01*
X624153Y452260D01*
X627000Y449413D01*
X628541Y445693D01*
X628541Y441667D01*
X627000Y437947D01*
X624153Y435100D01*
X620433Y433559D01*
X616407Y433559D01*
G37*
%LPD*%
%LPC*%
G36*
X604220Y310029D02*
X604220Y310029D01*
X600530Y311558D01*
X597705Y314382D01*
X596177Y318073D01*
X596177Y322067D01*
X597705Y325758D01*
X600530Y328582D01*
X604220Y330111D01*
X608215Y330111D01*
X611905Y328582D01*
X614730Y325758D01*
X616258Y322067D01*
X616258Y318073D01*
X614730Y314382D01*
X611905Y311558D01*
X608215Y310029D01*
X604220Y310029D01*
G37*
%LPD*%
%LPC*%
G36*
X560226Y222475D02*
X560226Y222475D01*
X556536Y224004D01*
X553711Y226828D01*
X552183Y230519D01*
X552183Y234513D01*
X553711Y238204D01*
X556536Y241028D01*
X560226Y242557D01*
X564221Y242557D01*
X567911Y241028D01*
X570736Y238204D01*
X572264Y234513D01*
X572264Y230519D01*
X570736Y226828D01*
X567911Y224004D01*
X564221Y222475D01*
X560226Y222475D01*
G37*
%LPD*%
%LPC*%
G36*
X604220Y247875D02*
X604220Y247875D01*
X600530Y249404D01*
X597705Y252228D01*
X596177Y255919D01*
X596177Y259913D01*
X597705Y263604D01*
X600530Y266428D01*
X604220Y267957D01*
X608215Y267957D01*
X611905Y266428D01*
X614730Y263604D01*
X616258Y259913D01*
X616258Y255919D01*
X614730Y252228D01*
X611905Y249404D01*
X608215Y247875D01*
X604220Y247875D01*
G37*
%LPD*%
%LPC*%
G36*
X582223Y235175D02*
X582223Y235175D01*
X578533Y236704D01*
X575708Y239528D01*
X574180Y243219D01*
X574180Y247213D01*
X575708Y250904D01*
X578533Y253728D01*
X582223Y255257D01*
X586218Y255257D01*
X589908Y253728D01*
X592733Y250904D01*
X594261Y247213D01*
X594261Y243219D01*
X592733Y239528D01*
X589908Y236704D01*
X586218Y235175D01*
X582223Y235175D01*
G37*
%LPD*%
%LPC*%
G36*
X498943Y446019D02*
X498943Y446019D01*
X495252Y447548D01*
X492428Y450372D01*
X490899Y454063D01*
X490899Y458057D01*
X492428Y461748D01*
X495252Y464572D01*
X498943Y466101D01*
X502937Y466101D01*
X506628Y464572D01*
X509452Y461748D01*
X510981Y458057D01*
X510981Y454063D01*
X509452Y450372D01*
X506628Y447548D01*
X502937Y446019D01*
X498943Y446019D01*
G37*
%LPD*%
%LPC*%
G36*
X167703Y265639D02*
X167703Y265639D01*
X164012Y267168D01*
X161188Y269992D01*
X159659Y273683D01*
X159659Y277677D01*
X161188Y281368D01*
X164012Y284192D01*
X167703Y285721D01*
X171697Y285721D01*
X175388Y284192D01*
X178212Y281368D01*
X179741Y277677D01*
X179741Y273683D01*
X178212Y269992D01*
X175388Y267168D01*
X171697Y265639D01*
X167703Y265639D01*
G37*
%LPD*%
%LPC*%
G36*
X553303Y279079D02*
X553303Y279079D01*
X549612Y280608D01*
X546788Y283432D01*
X545259Y287123D01*
X545259Y291117D01*
X546788Y294808D01*
X549612Y297632D01*
X553303Y299161D01*
X557297Y299161D01*
X560988Y297632D01*
X563812Y294808D01*
X565341Y291117D01*
X565341Y287123D01*
X563812Y283432D01*
X560988Y280608D01*
X557297Y279079D01*
X553303Y279079D01*
G37*
%LPD*%
%LPC*%
G36*
X604103Y279079D02*
X604103Y279079D01*
X600412Y280608D01*
X597588Y283432D01*
X596059Y287123D01*
X596059Y291117D01*
X597588Y294808D01*
X600412Y297632D01*
X604103Y299161D01*
X608097Y299161D01*
X611788Y297632D01*
X614612Y294808D01*
X616141Y291117D01*
X616141Y287123D01*
X614612Y283432D01*
X611788Y280608D01*
X608097Y279079D01*
X604103Y279079D01*
G37*
%LPD*%
%LPC*%
G36*
X260043Y405339D02*
X260043Y405339D01*
X256352Y406868D01*
X253528Y409692D01*
X251999Y413383D01*
X251999Y417377D01*
X253528Y421068D01*
X256352Y423892D01*
X260043Y425421D01*
X264037Y425421D01*
X267728Y423892D01*
X270552Y421068D01*
X272081Y417377D01*
X272081Y413383D01*
X270552Y409692D01*
X267728Y406868D01*
X264037Y405339D01*
X260043Y405339D01*
G37*
%LPD*%
%LPC*%
G36*
X285443Y405339D02*
X285443Y405339D01*
X281752Y406868D01*
X278928Y409692D01*
X277399Y413383D01*
X277399Y417377D01*
X278928Y421068D01*
X281752Y423892D01*
X285443Y425421D01*
X289437Y425421D01*
X293128Y423892D01*
X295952Y421068D01*
X297481Y417377D01*
X297481Y413383D01*
X295952Y409692D01*
X293128Y406868D01*
X289437Y405339D01*
X285443Y405339D01*
G37*
%LPD*%
%LPC*%
G36*
X310843Y405339D02*
X310843Y405339D01*
X307152Y406868D01*
X304328Y409692D01*
X302799Y413383D01*
X302799Y417377D01*
X304328Y421068D01*
X307152Y423892D01*
X310843Y425421D01*
X314837Y425421D01*
X318528Y423892D01*
X321352Y421068D01*
X322881Y417377D01*
X322881Y413383D01*
X321352Y409692D01*
X318528Y406868D01*
X314837Y405339D01*
X310843Y405339D01*
G37*
%LPD*%
%LPC*%
G36*
X527903Y279079D02*
X527903Y279079D01*
X524212Y280608D01*
X521388Y283432D01*
X519859Y287123D01*
X519859Y291117D01*
X521388Y294808D01*
X524212Y297632D01*
X527903Y299161D01*
X531897Y299161D01*
X535588Y297632D01*
X538412Y294808D01*
X539941Y291117D01*
X539941Y287123D01*
X538412Y283432D01*
X535588Y280608D01*
X531897Y279079D01*
X527903Y279079D01*
G37*
%LPD*%
%LPC*%
G36*
X108003Y281659D02*
X108003Y281659D01*
X104312Y283188D01*
X101488Y286012D01*
X99959Y289703D01*
X99959Y293697D01*
X101488Y297388D01*
X104312Y300212D01*
X108003Y301741D01*
X111997Y301741D01*
X115688Y300212D01*
X118512Y297388D01*
X120041Y293697D01*
X120041Y289703D01*
X118512Y286012D01*
X115688Y283188D01*
X111997Y281659D01*
X108003Y281659D01*
G37*
%LPD*%
%LPC*%
G36*
X578703Y279079D02*
X578703Y279079D01*
X575012Y280608D01*
X572188Y283432D01*
X570659Y287123D01*
X570659Y291117D01*
X572188Y294808D01*
X575012Y297632D01*
X578703Y299161D01*
X582697Y299161D01*
X586388Y297632D01*
X589212Y294808D01*
X590741Y291117D01*
X590741Y287123D01*
X589212Y283432D01*
X586388Y280608D01*
X582697Y279079D01*
X578703Y279079D01*
G37*
%LPD*%
%LPC*%
G36*
X560226Y335429D02*
X560226Y335429D01*
X556536Y336958D01*
X553711Y339782D01*
X552183Y343473D01*
X552183Y347467D01*
X553711Y351158D01*
X556536Y353982D01*
X560226Y355511D01*
X564221Y355511D01*
X567911Y353982D01*
X570736Y351158D01*
X572264Y347467D01*
X572264Y343473D01*
X570736Y339782D01*
X567911Y336958D01*
X564221Y335429D01*
X560226Y335429D01*
G37*
%LPD*%
%LPC*%
G36*
X582223Y322729D02*
X582223Y322729D01*
X578533Y324258D01*
X575708Y327082D01*
X574180Y330773D01*
X574180Y334767D01*
X575708Y338458D01*
X578533Y341282D01*
X582223Y342811D01*
X586218Y342811D01*
X589908Y341282D01*
X592733Y338458D01*
X594261Y334767D01*
X594261Y330773D01*
X592733Y327082D01*
X589908Y324258D01*
X586218Y322729D01*
X582223Y322729D01*
G37*
%LPD*%
%LPC*%
G36*
X443003Y51939D02*
X443003Y51939D01*
X439312Y53468D01*
X436488Y56292D01*
X434959Y59983D01*
X434959Y63977D01*
X436488Y67668D01*
X439312Y70492D01*
X443003Y72021D01*
X446997Y72021D01*
X450688Y70492D01*
X453512Y67668D01*
X455041Y63977D01*
X455041Y59983D01*
X453512Y56292D01*
X450688Y53468D01*
X446997Y51939D01*
X443003Y51939D01*
G37*
%LPD*%
%LPC*%
G36*
X68423Y497959D02*
X68423Y497959D01*
X64732Y499488D01*
X61908Y502312D01*
X60379Y506003D01*
X60379Y509997D01*
X61908Y513688D01*
X64732Y516512D01*
X68423Y518041D01*
X72417Y518041D01*
X76108Y516512D01*
X78932Y513688D01*
X80461Y509997D01*
X80461Y506003D01*
X78932Y502312D01*
X76108Y499488D01*
X72417Y497959D01*
X68423Y497959D01*
G37*
%LPD*%
%LPC*%
G36*
X538229Y209775D02*
X538229Y209775D01*
X534539Y211304D01*
X531714Y214128D01*
X530186Y217819D01*
X530186Y221813D01*
X531714Y225504D01*
X534539Y228328D01*
X538229Y229857D01*
X542224Y229857D01*
X545914Y228328D01*
X548739Y225504D01*
X550267Y221813D01*
X550267Y217819D01*
X548739Y214128D01*
X545914Y211304D01*
X542224Y209775D01*
X538229Y209775D01*
G37*
%LPD*%
%LPC*%
G36*
X167703Y140639D02*
X167703Y140639D01*
X164012Y142168D01*
X161188Y144992D01*
X159659Y148683D01*
X159659Y152677D01*
X161188Y156368D01*
X164012Y159192D01*
X167703Y160721D01*
X171697Y160721D01*
X175388Y159192D01*
X178212Y156368D01*
X179741Y152677D01*
X179741Y148683D01*
X178212Y144992D01*
X175388Y142168D01*
X171697Y140639D01*
X167703Y140639D01*
G37*
%LPD*%
%LPC*%
G36*
X356083Y497959D02*
X356083Y497959D01*
X352392Y499488D01*
X349568Y502312D01*
X348039Y506003D01*
X348039Y509997D01*
X349568Y513688D01*
X352392Y516512D01*
X356083Y518041D01*
X360077Y518041D01*
X363768Y516512D01*
X366592Y513688D01*
X368121Y509997D01*
X368121Y506003D01*
X366592Y502312D01*
X363768Y499488D01*
X360077Y497959D01*
X356083Y497959D01*
G37*
%LPD*%
%LPC*%
G36*
X305283Y497959D02*
X305283Y497959D01*
X301592Y499488D01*
X298768Y502312D01*
X297239Y506003D01*
X297239Y509997D01*
X298768Y513688D01*
X301592Y516512D01*
X305283Y518041D01*
X309277Y518041D01*
X312968Y516512D01*
X315792Y513688D01*
X317321Y509997D01*
X317321Y506003D01*
X315792Y502312D01*
X312968Y499488D01*
X309277Y497959D01*
X305283Y497959D01*
G37*
%LPD*%
%LPC*%
G36*
X613003Y102739D02*
X613003Y102739D01*
X609312Y104268D01*
X606488Y107092D01*
X604959Y110783D01*
X604959Y114777D01*
X606488Y118468D01*
X609312Y121292D01*
X613003Y122821D01*
X616997Y122821D01*
X620688Y121292D01*
X623512Y118468D01*
X625041Y114777D01*
X625041Y110783D01*
X623512Y107092D01*
X620688Y104268D01*
X616997Y102739D01*
X613003Y102739D01*
G37*
%LPD*%
%LPC*%
G36*
X613003Y51939D02*
X613003Y51939D01*
X609312Y53468D01*
X606488Y56292D01*
X604959Y59983D01*
X604959Y63977D01*
X606488Y67668D01*
X609312Y70492D01*
X613003Y72021D01*
X616997Y72021D01*
X620688Y70492D01*
X623512Y67668D01*
X625041Y63977D01*
X625041Y59983D01*
X623512Y56292D01*
X620688Y53468D01*
X616997Y51939D01*
X613003Y51939D01*
G37*
%LPD*%
%LPC*%
G36*
X269111Y198589D02*
X269111Y198589D01*
X266100Y199836D01*
X263796Y202140D01*
X262549Y205151D01*
X262549Y208409D01*
X263796Y211420D01*
X266100Y213724D01*
X269111Y214971D01*
X272369Y214971D01*
X275380Y213724D01*
X277684Y211420D01*
X278931Y208409D01*
X278931Y205151D01*
X277684Y202140D01*
X275380Y199836D01*
X272369Y198589D01*
X269111Y198589D01*
G37*
%LPD*%
%LPC*%
G36*
X220311Y198589D02*
X220311Y198589D01*
X217300Y199836D01*
X214996Y202140D01*
X213749Y205151D01*
X213749Y208409D01*
X214996Y211420D01*
X217300Y213724D01*
X220311Y214971D01*
X223569Y214971D01*
X226580Y213724D01*
X228884Y211420D01*
X230131Y208409D01*
X230131Y205151D01*
X228884Y202140D01*
X226580Y199836D01*
X223569Y198589D01*
X220311Y198589D01*
G37*
%LPD*%
%LPC*%
G36*
X620959Y497019D02*
X620959Y497019D01*
X620959Y504339D01*
X622320Y503896D01*
X623745Y503170D01*
X625039Y502230D01*
X626170Y501099D01*
X627110Y499805D01*
X627836Y498380D01*
X628279Y497019D01*
X620959Y497019D01*
G37*
%LPD*%
%LPC*%
G36*
X608561Y497019D02*
X608561Y497019D01*
X609004Y498380D01*
X609730Y499805D01*
X610670Y501099D01*
X611801Y502230D01*
X613095Y503170D01*
X614520Y503896D01*
X615881Y504339D01*
X615881Y497019D01*
X608561Y497019D01*
G37*
%LPD*%
%LPC*%
G36*
X620959Y491941D02*
X620959Y491941D01*
X628279Y491941D01*
X627836Y490580D01*
X627110Y489155D01*
X626170Y487861D01*
X625039Y486730D01*
X623745Y485790D01*
X622320Y485064D01*
X620959Y484621D01*
X620959Y491941D01*
G37*
%LPD*%
%LPC*%
G36*
X614520Y485064D02*
X614520Y485064D01*
X613095Y485790D01*
X611801Y486730D01*
X610670Y487861D01*
X609730Y489155D01*
X609004Y490580D01*
X608561Y491941D01*
X615881Y491941D01*
X615881Y484621D01*
X614520Y485064D01*
G37*
%LPD*%
%LPC*%
G36*
X554279Y458599D02*
X554279Y458599D01*
X554279Y465834D01*
X555610Y465402D01*
X557023Y464682D01*
X558307Y463749D01*
X559429Y462627D01*
X560362Y461343D01*
X561082Y459930D01*
X561514Y458599D01*
X554279Y458599D01*
G37*
%LPD*%
%LPC*%
G36*
X24239Y136219D02*
X24239Y136219D01*
X24239Y143454D01*
X25570Y143022D01*
X26983Y142302D01*
X28267Y141369D01*
X29389Y140247D01*
X30322Y138963D01*
X31042Y137550D01*
X31474Y136219D01*
X24239Y136219D01*
G37*
%LPD*%
%LPC*%
G36*
X172239Y193219D02*
X172239Y193219D01*
X172239Y200454D01*
X173570Y200022D01*
X174983Y199302D01*
X176267Y198369D01*
X177389Y197247D01*
X178322Y195963D01*
X179042Y194550D01*
X179474Y193219D01*
X172239Y193219D01*
G37*
%LPD*%
%LPC*%
G36*
X112539Y244239D02*
X112539Y244239D01*
X112539Y251474D01*
X113870Y251042D01*
X115283Y250322D01*
X116567Y249389D01*
X117689Y248267D01*
X118622Y246983D01*
X119342Y245570D01*
X119774Y244239D01*
X112539Y244239D01*
G37*
%LPD*%
%LPC*%
G36*
X98359Y510539D02*
X98359Y510539D01*
X98359Y517774D01*
X99690Y517342D01*
X101103Y516622D01*
X102387Y515689D01*
X103509Y514567D01*
X104442Y513283D01*
X105162Y511870D01*
X105594Y510539D01*
X98359Y510539D01*
G37*
%LPD*%
%LPC*%
G36*
X617539Y89919D02*
X617539Y89919D01*
X617539Y97154D01*
X618870Y96722D01*
X620283Y96002D01*
X621567Y95069D01*
X622689Y93947D01*
X623622Y92663D01*
X624342Y91250D01*
X624774Y89919D01*
X617539Y89919D01*
G37*
%LPD*%
%LPC*%
G36*
X239179Y417919D02*
X239179Y417919D01*
X239179Y425154D01*
X240510Y424722D01*
X241923Y424002D01*
X243207Y423069D01*
X244329Y421947D01*
X245262Y420663D01*
X245982Y419250D01*
X246414Y417919D01*
X239179Y417919D01*
G37*
%LPD*%
%LPC*%
G36*
X554279Y453521D02*
X554279Y453521D01*
X561514Y453521D01*
X561082Y452190D01*
X560362Y450777D01*
X559429Y449493D01*
X558307Y448371D01*
X557023Y447438D01*
X555610Y446718D01*
X554279Y446286D01*
X554279Y453521D01*
G37*
%LPD*%
%LPC*%
G36*
X541966Y458599D02*
X541966Y458599D01*
X542398Y459930D01*
X543118Y461343D01*
X544051Y462627D01*
X545173Y463749D01*
X546457Y464682D01*
X547870Y465402D01*
X549201Y465834D01*
X549201Y458599D01*
X541966Y458599D01*
G37*
%LPD*%
%LPC*%
G36*
X98359Y505461D02*
X98359Y505461D01*
X105594Y505461D01*
X105162Y504130D01*
X104442Y502717D01*
X103509Y501433D01*
X102387Y500311D01*
X101103Y499378D01*
X99690Y498658D01*
X98359Y498226D01*
X98359Y505461D01*
G37*
%LPD*%
%LPC*%
G36*
X172239Y188141D02*
X172239Y188141D01*
X179474Y188141D01*
X179042Y186810D01*
X178322Y185397D01*
X177389Y184113D01*
X176267Y182991D01*
X174983Y182058D01*
X173570Y181338D01*
X172239Y180906D01*
X172239Y188141D01*
G37*
%LPD*%
%LPC*%
G36*
X239179Y412841D02*
X239179Y412841D01*
X246414Y412841D01*
X245982Y411510D01*
X245262Y410097D01*
X244329Y408813D01*
X243207Y407691D01*
X241923Y406758D01*
X240510Y406038D01*
X239179Y405606D01*
X239179Y412841D01*
G37*
%LPD*%
%LPC*%
G36*
X100226Y244239D02*
X100226Y244239D01*
X100658Y245570D01*
X101378Y246983D01*
X102311Y248267D01*
X103433Y249389D01*
X104717Y250322D01*
X106130Y251042D01*
X107461Y251474D01*
X107461Y244239D01*
X100226Y244239D01*
G37*
%LPD*%
%LPC*%
G36*
X86046Y510539D02*
X86046Y510539D01*
X86478Y511870D01*
X87198Y513283D01*
X88131Y514567D01*
X89253Y515689D01*
X90537Y516622D01*
X91950Y517342D01*
X93281Y517774D01*
X93281Y510539D01*
X86046Y510539D01*
G37*
%LPD*%
%LPC*%
G36*
X159926Y193219D02*
X159926Y193219D01*
X160358Y194550D01*
X161078Y195963D01*
X162011Y197247D01*
X163133Y198369D01*
X164417Y199302D01*
X165830Y200022D01*
X167161Y200454D01*
X167161Y193219D01*
X159926Y193219D01*
G37*
%LPD*%
%LPC*%
G36*
X112539Y239161D02*
X112539Y239161D01*
X119774Y239161D01*
X119342Y237830D01*
X118622Y236417D01*
X117689Y235133D01*
X116567Y234011D01*
X115283Y233078D01*
X113870Y232358D01*
X112539Y231926D01*
X112539Y239161D01*
G37*
%LPD*%
%LPC*%
G36*
X226866Y417919D02*
X226866Y417919D01*
X227298Y419250D01*
X228018Y420663D01*
X228951Y421947D01*
X230073Y423069D01*
X231357Y424002D01*
X232770Y424722D01*
X234101Y425154D01*
X234101Y417919D01*
X226866Y417919D01*
G37*
%LPD*%
%LPC*%
G36*
X605226Y89919D02*
X605226Y89919D01*
X605658Y91250D01*
X606378Y92663D01*
X607311Y93947D01*
X608433Y95069D01*
X609717Y96002D01*
X611130Y96722D01*
X612461Y97154D01*
X612461Y89919D01*
X605226Y89919D01*
G37*
%LPD*%
%LPC*%
G36*
X617539Y84841D02*
X617539Y84841D01*
X624774Y84841D01*
X624342Y83510D01*
X623622Y82097D01*
X622689Y80813D01*
X621567Y79691D01*
X620283Y78758D01*
X618870Y78038D01*
X617539Y77606D01*
X617539Y84841D01*
G37*
%LPD*%
%LPC*%
G36*
X24239Y131141D02*
X24239Y131141D01*
X31474Y131141D01*
X31042Y129810D01*
X30322Y128397D01*
X29389Y127113D01*
X28267Y125991D01*
X26983Y125058D01*
X25570Y124338D01*
X24239Y123906D01*
X24239Y131141D01*
G37*
%LPD*%
%LPC*%
G36*
X91950Y498658D02*
X91950Y498658D01*
X90537Y499378D01*
X89253Y500311D01*
X88131Y501433D01*
X87198Y502717D01*
X86478Y504130D01*
X86046Y505461D01*
X93281Y505461D01*
X93281Y498226D01*
X91950Y498658D01*
G37*
%LPD*%
%LPC*%
G36*
X165830Y181338D02*
X165830Y181338D01*
X164417Y182058D01*
X163133Y182991D01*
X162011Y184113D01*
X161078Y185397D01*
X160358Y186810D01*
X159926Y188141D01*
X167161Y188141D01*
X167161Y180906D01*
X165830Y181338D01*
G37*
%LPD*%
%LPC*%
G36*
X232770Y406038D02*
X232770Y406038D01*
X231357Y406758D01*
X230073Y407691D01*
X228951Y408813D01*
X228018Y410097D01*
X227298Y411510D01*
X226866Y412841D01*
X234101Y412841D01*
X234101Y405606D01*
X232770Y406038D01*
G37*
%LPD*%
%LPC*%
G36*
X106130Y232358D02*
X106130Y232358D01*
X104717Y233078D01*
X103433Y234011D01*
X102311Y235133D01*
X101378Y236417D01*
X100658Y237830D01*
X100226Y239161D01*
X107461Y239161D01*
X107461Y231926D01*
X106130Y232358D01*
G37*
%LPD*%
%LPC*%
G36*
X611130Y78038D02*
X611130Y78038D01*
X609717Y78758D01*
X608433Y79691D01*
X607311Y80813D01*
X606378Y82097D01*
X605658Y83510D01*
X605226Y84841D01*
X612461Y84841D01*
X612461Y77606D01*
X611130Y78038D01*
G37*
%LPD*%
%LPC*%
G36*
X547870Y446718D02*
X547870Y446718D01*
X546457Y447438D01*
X545173Y448371D01*
X544051Y449493D01*
X543118Y450777D01*
X542398Y452190D01*
X541966Y453521D01*
X549201Y453521D01*
X549201Y446286D01*
X547870Y446718D01*
G37*
%LPD*%
D10*
X270740Y206780D03*
X221940Y206780D03*
D11*
X643820Y443680D03*
X643820Y469080D03*
X643820Y494480D03*
X618420Y443680D03*
X618420Y469080D03*
X618420Y494480D03*
D12*
X500940Y456060D03*
X551740Y456060D03*
X43780Y459420D03*
X63780Y459420D03*
X39600Y343280D03*
X39600Y368680D03*
X39600Y394080D03*
X236640Y415380D03*
X262040Y415380D03*
X287440Y415380D03*
X312840Y415380D03*
X606218Y257916D03*
X584221Y245216D03*
X562223Y232516D03*
X540226Y219816D03*
X606100Y289120D03*
X580700Y289120D03*
X555300Y289120D03*
X529900Y289120D03*
X606218Y320070D03*
X584221Y332770D03*
X562223Y345470D03*
X540226Y358170D03*
X21700Y93680D03*
X21700Y133680D03*
X169700Y65680D03*
X169700Y150680D03*
X169700Y190680D03*
X169700Y275680D03*
X110000Y291700D03*
X110000Y241700D03*
X19620Y508000D03*
X45020Y508000D03*
X70420Y508000D03*
X95820Y508000D03*
X307280Y508000D03*
X358080Y508000D03*
D13*
X517144Y418846D03*
X548640Y416306D03*
D12*
X445000Y61980D03*
X445000Y112780D03*
X615000Y61980D03*
X615000Y87380D03*
X615000Y112780D03*
D14*
X170180Y434340D03*
D15*
X217680Y434340D01*
X160940Y442880D02*
X95820Y508000D01*
X251460Y447040D02*
X274320Y447040D01*
X289560Y447040D01*
X299720Y436880D01*
X332740Y436880D01*
X350520Y436880D01*
X365760Y452120D01*
X370840Y457200D01*
X408940Y457200D01*
X451300Y499560D01*
X536760Y499560D01*
X613340Y499560D01*
X618420Y494480D01*
X551740Y484580D02*
X551740Y456060D01*
X551740Y484580D02*
X536760Y499560D01*
D16*
X370840Y447040D02*
X365760Y452120D01*
X370840Y447040D02*
X370840Y441960D01*
D17*
X370840Y441960D03*
D16*
X332740Y436880D02*
X332740Y408940D01*
X321564Y397764D01*
X321564Y393700D01*
D17*
X321564Y393700D03*
X656082Y314452D03*
D16*
X337820Y505460D02*
X330200Y505460D01*
X337820Y505460D02*
X353060Y490220D01*
X414020Y518160D02*
X416560Y518160D01*
X416560Y517920D01*
D17*
X416560Y517920D03*
D16*
X330200Y505460D02*
X274320Y449580D01*
X353060Y490220D02*
X386080Y490220D01*
X414020Y518160D01*
D18*
X185420Y303784D03*
X336296Y306070D03*
X361696Y306578D03*
D19*
X663347Y314452D02*
X663347Y243840D01*
X663347Y314452D02*
X656082Y314452D01*
D15*
X632229Y207885D02*
X632229Y169949D01*
D17*
X581645Y200700D03*
D19*
X632229Y207885D02*
X663347Y243840D01*
D18*
X561340Y312420D03*
X530860Y243840D03*
X403860Y408940D03*
X256540Y439420D03*
X284480Y439420D03*
X337058Y283210D03*
D15*
X170180Y434340D02*
X161640Y442880D01*
X160940Y442880D01*
D16*
X274320Y447040D02*
X274320Y449580D01*
D15*
X236640Y415380D02*
X217680Y434340D01*
X238760Y434340D01*
X251460Y447040D01*
D18*
X185420Y354584D03*
D16*
X218140Y142240D02*
X226060Y142240D01*
D18*
X226060Y142240D03*
D20*
X106680Y124460D03*
D15*
X106680Y127660D01*
X169700Y190680D01*
X218140Y142240D01*
X226060Y134320D01*
X226060Y114300D01*
X251460Y88900D01*
X411480Y88900D02*
X454660Y88900D01*
X330200Y88900D02*
X251460Y88900D01*
X330200Y88900D02*
X411480Y88900D01*
X469200Y122724D02*
X497196Y150720D01*
X469200Y103440D02*
X454660Y88900D01*
X469200Y103440D02*
X469200Y122724D01*
X610460Y148180D02*
X632229Y169949D01*
X594360Y150720D02*
X497196Y150720D01*
X594360Y148180D02*
X610460Y148180D01*
D16*
X606040Y87380D02*
X615000Y87380D01*
X594360Y99060D02*
X594360Y148180D01*
X594360Y150720D01*
X594360Y99060D02*
X606040Y87380D01*
X581645Y200700D02*
X588829Y207885D01*
X632229Y207885D01*
X411480Y88900D02*
X401320Y99060D01*
X401320Y124460D01*
D18*
X401320Y124460D03*
D16*
X353060Y88900D02*
X330200Y88900D01*
X353060Y88900D02*
X363220Y78740D01*
D18*
X363220Y78740D03*
X659638Y241300D03*
X667004Y26924D03*
X513080Y473964D03*
D17*
X436372Y229880D03*
D16*
X480060Y273568D02*
X480060Y284480D01*
X480060Y273568D02*
X436372Y229880D01*
D17*
X480060Y284480D03*
X330200Y457200D03*
D16*
X350520Y477520D01*
X398780Y477520D01*
X436060Y514800D01*
X633660Y514800D01*
X643820Y504640D01*
X643820Y494480D01*
D17*
X373380Y383540D03*
X247904Y279400D03*
D16*
X352044Y383540D01*
X373380Y383540D01*
D17*
X381254Y157226D03*
D21*
X622554Y360940D03*
D19*
X627634Y355860D01*
X627634Y343555D01*
X637540Y333649D01*
D16*
X393446Y157226D02*
X381254Y157226D01*
X393446Y157226D02*
X408940Y172720D01*
X449580Y172720D02*
X454660Y167640D01*
X449580Y172720D02*
X408940Y172720D01*
D17*
X635790Y243840D03*
D19*
X637540Y245590D02*
X637540Y333649D01*
X637540Y245590D02*
X635790Y243840D01*
D16*
X586740Y182880D02*
X571500Y167640D01*
D17*
X586740Y182880D03*
D16*
X571500Y167640D02*
X454660Y167640D01*
D18*
X233680Y60960D03*
D16*
X325120Y60960D01*
X355600Y30480D01*
X452120Y30480D01*
X471740Y50100D02*
X471740Y66040D01*
X470498Y66040D01*
D17*
X470498Y66040D03*
D16*
X471740Y50100D02*
X452120Y30480D01*
D15*
X63780Y381000D02*
X63780Y459420D01*
X63780Y381000D02*
X76200Y368580D01*
X76200Y304520D02*
X63780Y292100D01*
X76200Y304520D02*
X76200Y368580D01*
X63780Y292100D02*
X63780Y172440D01*
X169700Y66520D02*
X169700Y65680D01*
X78740Y111760D02*
X78740Y157480D01*
X78740Y111760D02*
X123980Y66520D01*
X169700Y66520D01*
X78740Y157480D02*
X63780Y172440D01*
X17080Y505460D02*
X19620Y508000D01*
X17080Y505460D02*
X17080Y175960D01*
X45720Y147320D01*
X45720Y117700D02*
X21700Y93680D01*
X45720Y117700D02*
X45720Y147320D01*
D18*
X127000Y106680D03*
D16*
X175260Y106680D02*
X190500Y121920D01*
X175260Y106680D02*
X127000Y106680D01*
D18*
X190500Y121920D03*
D17*
X332740Y320040D03*
D16*
X289560Y276860D01*
X289560Y116840D01*
X292100Y114300D01*
D18*
X292100Y114300D03*
D17*
X274320Y332740D03*
D18*
X165100Y248920D03*
D16*
X177800Y248920D02*
X261620Y332740D01*
X177800Y248920D02*
X165100Y248920D01*
X261620Y332740D02*
X274320Y332740D01*
D17*
X389382Y240030D03*
D16*
X431800Y276606D02*
X431800Y330200D01*
X431800Y276606D02*
X395224Y240030D01*
X389382Y240030D01*
D17*
X431800Y330200D03*
D16*
X566420Y391160D02*
X589280Y414020D01*
X482600Y391160D02*
X431800Y340360D01*
X431800Y330200D01*
X482600Y391160D02*
X566420Y391160D01*
X589280Y414020D02*
X589280Y457200D01*
X601160Y469080D02*
X618420Y469080D01*
X601160Y469080D02*
X589280Y457200D01*
D17*
X422275Y241935D03*
X458470Y342900D03*
D16*
X453390Y273812D02*
X421894Y242316D01*
X422275Y241935D01*
X453390Y337820D02*
X458470Y342900D01*
X453390Y337820D02*
X453390Y273812D01*
X458470Y342900D02*
X493395Y377825D01*
X583565Y377825D01*
X643820Y438080D02*
X643820Y443680D01*
X643820Y438080D02*
X583565Y377825D01*
D17*
X390906Y262382D03*
D16*
X414020Y285496D02*
X414020Y348856D01*
X414020Y285496D02*
X390906Y262382D01*
X414020Y348856D02*
X440252Y375088D01*
D17*
X440252Y375088D03*
X576580Y363220D03*
D16*
X596900Y363220D01*
X665480Y431800D01*
X665480Y459740D01*
X656140Y469080D01*
X643820Y469080D01*
D17*
X314960Y457200D03*
X332740Y489138D03*
D16*
X314960Y471358D02*
X314960Y457200D01*
X314960Y471358D02*
X332740Y489138D01*
D17*
X358140Y294640D03*
D16*
X347980Y304800D01*
X347980Y335280D01*
X411480Y398780D01*
X441960Y398780D01*
X462026Y418846D02*
X517144Y418846D01*
X462026Y418846D02*
X441960Y398780D01*
D17*
X360680Y320040D03*
D16*
X454660Y388620D02*
X467360Y401320D01*
X544576Y416306D02*
X548640Y416306D01*
X544576Y416306D02*
X529590Y401320D01*
X429260Y388620D02*
X360680Y320040D01*
X429260Y388620D02*
X454660Y388620D01*
X467360Y401320D02*
X529590Y401320D01*
D15*
X45020Y493460D02*
X45020Y508000D01*
X45020Y493460D02*
X55880Y482600D01*
X76200Y482600D01*
D22*
X146340Y348498D03*
D15*
X146340Y359120D01*
X88900Y416560D01*
X88900Y469900D02*
X76200Y482600D01*
X88900Y469900D02*
X88900Y416560D01*
D17*
X169926Y310134D03*
D16*
X144780Y284988D01*
X144780Y243840D01*
X167640Y220980D01*
X259080Y139700D02*
X259080Y121920D01*
D18*
X259080Y121920D03*
D16*
X177800Y220980D02*
X167640Y220980D01*
X177800Y220980D02*
X259080Y139700D01*
M02*
