G04 EAGLE Gerber RS-274X export*
G75*
%MOMM*%
%FSLAX34Y34*%
%LPD*%
%INSilkscreen Bottom*%
%IPPOS*%
%AMOC8*
5,1,8,0,0,1.08239X$1,22.5*%
G01*
%ADD10C,0.152400*%
%ADD11C,0.101600*%
%ADD12C,0.050800*%
%ADD13C,0.076200*%


D10*
X23780Y479420D02*
X83780Y479420D01*
X83780Y396920D01*
X23780Y396920D01*
X23780Y479420D01*
D11*
X80144Y439749D02*
X83390Y439749D01*
X80144Y439750D02*
X80031Y439748D01*
X79918Y439742D01*
X79805Y439732D01*
X79692Y439718D01*
X79580Y439701D01*
X79469Y439679D01*
X79359Y439654D01*
X79249Y439624D01*
X79141Y439591D01*
X79034Y439554D01*
X78928Y439514D01*
X78824Y439469D01*
X78721Y439421D01*
X78620Y439370D01*
X78521Y439315D01*
X78424Y439257D01*
X78329Y439195D01*
X78236Y439130D01*
X78146Y439062D01*
X78058Y438991D01*
X77972Y438916D01*
X77889Y438839D01*
X77809Y438759D01*
X77732Y438676D01*
X77657Y438590D01*
X77586Y438502D01*
X77518Y438412D01*
X77453Y438319D01*
X77391Y438224D01*
X77333Y438127D01*
X77278Y438028D01*
X77227Y437927D01*
X77179Y437824D01*
X77134Y437720D01*
X77094Y437614D01*
X77057Y437507D01*
X77024Y437399D01*
X76994Y437289D01*
X76969Y437179D01*
X76947Y437068D01*
X76930Y436956D01*
X76916Y436843D01*
X76906Y436730D01*
X76900Y436617D01*
X76898Y436504D01*
X76900Y436391D01*
X76906Y436278D01*
X76916Y436165D01*
X76930Y436052D01*
X76947Y435940D01*
X76969Y435829D01*
X76994Y435719D01*
X77024Y435609D01*
X77057Y435501D01*
X77094Y435394D01*
X77134Y435288D01*
X77179Y435184D01*
X77227Y435081D01*
X77278Y434980D01*
X77333Y434881D01*
X77391Y434784D01*
X77453Y434689D01*
X77518Y434596D01*
X77586Y434506D01*
X77657Y434418D01*
X77732Y434332D01*
X77809Y434249D01*
X77889Y434169D01*
X77972Y434092D01*
X78058Y434017D01*
X78146Y433946D01*
X78236Y433878D01*
X78329Y433813D01*
X78424Y433751D01*
X78521Y433693D01*
X78620Y433638D01*
X78721Y433587D01*
X78824Y433539D01*
X78928Y433494D01*
X79034Y433454D01*
X79141Y433417D01*
X79249Y433384D01*
X79359Y433354D01*
X79469Y433329D01*
X79580Y433307D01*
X79692Y433290D01*
X79805Y433276D01*
X79918Y433266D01*
X80031Y433260D01*
X80144Y433258D01*
X83390Y433258D01*
X83390Y444942D01*
X80144Y444942D01*
X80043Y444940D01*
X79943Y444934D01*
X79843Y444924D01*
X79743Y444911D01*
X79644Y444893D01*
X79545Y444872D01*
X79448Y444847D01*
X79351Y444818D01*
X79256Y444785D01*
X79162Y444749D01*
X79070Y444709D01*
X78979Y444666D01*
X78890Y444619D01*
X78803Y444569D01*
X78717Y444515D01*
X78634Y444458D01*
X78554Y444398D01*
X78475Y444335D01*
X78399Y444268D01*
X78326Y444199D01*
X78256Y444127D01*
X78188Y444053D01*
X78123Y443976D01*
X78062Y443896D01*
X78003Y443814D01*
X77948Y443730D01*
X77896Y443644D01*
X77847Y443556D01*
X77802Y443466D01*
X77760Y443374D01*
X77722Y443281D01*
X77688Y443186D01*
X77657Y443091D01*
X77630Y442994D01*
X77607Y442896D01*
X77587Y442797D01*
X77572Y442697D01*
X77560Y442597D01*
X77552Y442497D01*
X77548Y442396D01*
X77548Y442296D01*
X77552Y442195D01*
X77560Y442095D01*
X77572Y441995D01*
X77587Y441895D01*
X77607Y441796D01*
X77630Y441698D01*
X77657Y441601D01*
X77688Y441506D01*
X77722Y441411D01*
X77760Y441318D01*
X77802Y441226D01*
X77847Y441136D01*
X77896Y441048D01*
X77948Y440962D01*
X78003Y440878D01*
X78062Y440796D01*
X78123Y440716D01*
X78188Y440639D01*
X78256Y440565D01*
X78326Y440493D01*
X78399Y440424D01*
X78475Y440357D01*
X78554Y440294D01*
X78634Y440234D01*
X78717Y440177D01*
X78803Y440123D01*
X78890Y440073D01*
X78979Y440026D01*
X79070Y439983D01*
X79162Y439943D01*
X79256Y439907D01*
X79351Y439874D01*
X79448Y439845D01*
X79545Y439820D01*
X79644Y439799D01*
X79743Y439781D01*
X79843Y439768D01*
X79943Y439758D01*
X80043Y439752D01*
X80144Y439750D01*
X72397Y437802D02*
X64608Y437802D01*
X68503Y441696D02*
X68503Y433907D01*
X52910Y439749D02*
X49664Y439749D01*
X49664Y439750D02*
X49551Y439748D01*
X49438Y439742D01*
X49325Y439732D01*
X49212Y439718D01*
X49100Y439701D01*
X48989Y439679D01*
X48879Y439654D01*
X48769Y439624D01*
X48661Y439591D01*
X48554Y439554D01*
X48448Y439514D01*
X48344Y439469D01*
X48241Y439421D01*
X48140Y439370D01*
X48041Y439315D01*
X47944Y439257D01*
X47849Y439195D01*
X47756Y439130D01*
X47666Y439062D01*
X47578Y438991D01*
X47492Y438916D01*
X47409Y438839D01*
X47329Y438759D01*
X47252Y438676D01*
X47177Y438590D01*
X47106Y438502D01*
X47038Y438412D01*
X46973Y438319D01*
X46911Y438224D01*
X46853Y438127D01*
X46798Y438028D01*
X46747Y437927D01*
X46699Y437824D01*
X46654Y437720D01*
X46614Y437614D01*
X46577Y437507D01*
X46544Y437399D01*
X46514Y437289D01*
X46489Y437179D01*
X46467Y437068D01*
X46450Y436956D01*
X46436Y436843D01*
X46426Y436730D01*
X46420Y436617D01*
X46418Y436504D01*
X46420Y436391D01*
X46426Y436278D01*
X46436Y436165D01*
X46450Y436052D01*
X46467Y435940D01*
X46489Y435829D01*
X46514Y435719D01*
X46544Y435609D01*
X46577Y435501D01*
X46614Y435394D01*
X46654Y435288D01*
X46699Y435184D01*
X46747Y435081D01*
X46798Y434980D01*
X46853Y434881D01*
X46911Y434784D01*
X46973Y434689D01*
X47038Y434596D01*
X47106Y434506D01*
X47177Y434418D01*
X47252Y434332D01*
X47329Y434249D01*
X47409Y434169D01*
X47492Y434092D01*
X47578Y434017D01*
X47666Y433946D01*
X47756Y433878D01*
X47849Y433813D01*
X47944Y433751D01*
X48041Y433693D01*
X48140Y433638D01*
X48241Y433587D01*
X48344Y433539D01*
X48448Y433494D01*
X48554Y433454D01*
X48661Y433417D01*
X48769Y433384D01*
X48879Y433354D01*
X48989Y433329D01*
X49100Y433307D01*
X49212Y433290D01*
X49325Y433276D01*
X49438Y433266D01*
X49551Y433260D01*
X49664Y433258D01*
X52910Y433258D01*
X52910Y444942D01*
X49664Y444942D01*
X49563Y444940D01*
X49463Y444934D01*
X49363Y444924D01*
X49263Y444911D01*
X49164Y444893D01*
X49065Y444872D01*
X48968Y444847D01*
X48871Y444818D01*
X48776Y444785D01*
X48682Y444749D01*
X48590Y444709D01*
X48499Y444666D01*
X48410Y444619D01*
X48323Y444569D01*
X48237Y444515D01*
X48154Y444458D01*
X48074Y444398D01*
X47995Y444335D01*
X47919Y444268D01*
X47846Y444199D01*
X47776Y444127D01*
X47708Y444053D01*
X47643Y443976D01*
X47582Y443896D01*
X47523Y443814D01*
X47468Y443730D01*
X47416Y443644D01*
X47367Y443556D01*
X47322Y443466D01*
X47280Y443374D01*
X47242Y443281D01*
X47208Y443186D01*
X47177Y443091D01*
X47150Y442994D01*
X47127Y442896D01*
X47107Y442797D01*
X47092Y442697D01*
X47080Y442597D01*
X47072Y442497D01*
X47068Y442396D01*
X47068Y442296D01*
X47072Y442195D01*
X47080Y442095D01*
X47092Y441995D01*
X47107Y441895D01*
X47127Y441796D01*
X47150Y441698D01*
X47177Y441601D01*
X47208Y441506D01*
X47242Y441411D01*
X47280Y441318D01*
X47322Y441226D01*
X47367Y441136D01*
X47416Y441048D01*
X47468Y440962D01*
X47523Y440878D01*
X47582Y440796D01*
X47643Y440716D01*
X47708Y440639D01*
X47776Y440565D01*
X47846Y440493D01*
X47919Y440424D01*
X47995Y440357D01*
X48074Y440294D01*
X48154Y440234D01*
X48237Y440177D01*
X48323Y440123D01*
X48410Y440073D01*
X48499Y440026D01*
X48590Y439983D01*
X48682Y439943D01*
X48776Y439907D01*
X48871Y439874D01*
X48968Y439845D01*
X49065Y439820D01*
X49164Y439799D01*
X49263Y439781D01*
X49363Y439768D01*
X49463Y439758D01*
X49563Y439752D01*
X49664Y439750D01*
X41917Y437802D02*
X34128Y437802D01*
X80144Y381329D02*
X83390Y381329D01*
X80144Y381330D02*
X80031Y381328D01*
X79918Y381322D01*
X79805Y381312D01*
X79692Y381298D01*
X79580Y381281D01*
X79469Y381259D01*
X79359Y381234D01*
X79249Y381204D01*
X79141Y381171D01*
X79034Y381134D01*
X78928Y381094D01*
X78824Y381049D01*
X78721Y381001D01*
X78620Y380950D01*
X78521Y380895D01*
X78424Y380837D01*
X78329Y380775D01*
X78236Y380710D01*
X78146Y380642D01*
X78058Y380571D01*
X77972Y380496D01*
X77889Y380419D01*
X77809Y380339D01*
X77732Y380256D01*
X77657Y380170D01*
X77586Y380082D01*
X77518Y379992D01*
X77453Y379899D01*
X77391Y379804D01*
X77333Y379707D01*
X77278Y379608D01*
X77227Y379507D01*
X77179Y379404D01*
X77134Y379300D01*
X77094Y379194D01*
X77057Y379087D01*
X77024Y378979D01*
X76994Y378869D01*
X76969Y378759D01*
X76947Y378648D01*
X76930Y378536D01*
X76916Y378423D01*
X76906Y378310D01*
X76900Y378197D01*
X76898Y378084D01*
X76900Y377971D01*
X76906Y377858D01*
X76916Y377745D01*
X76930Y377632D01*
X76947Y377520D01*
X76969Y377409D01*
X76994Y377299D01*
X77024Y377189D01*
X77057Y377081D01*
X77094Y376974D01*
X77134Y376868D01*
X77179Y376764D01*
X77227Y376661D01*
X77278Y376560D01*
X77333Y376461D01*
X77391Y376364D01*
X77453Y376269D01*
X77518Y376176D01*
X77586Y376086D01*
X77657Y375998D01*
X77732Y375912D01*
X77809Y375829D01*
X77889Y375749D01*
X77972Y375672D01*
X78058Y375597D01*
X78146Y375526D01*
X78236Y375458D01*
X78329Y375393D01*
X78424Y375331D01*
X78521Y375273D01*
X78620Y375218D01*
X78721Y375167D01*
X78824Y375119D01*
X78928Y375074D01*
X79034Y375034D01*
X79141Y374997D01*
X79249Y374964D01*
X79359Y374934D01*
X79469Y374909D01*
X79580Y374887D01*
X79692Y374870D01*
X79805Y374856D01*
X79918Y374846D01*
X80031Y374840D01*
X80144Y374838D01*
X83390Y374838D01*
X83390Y386522D01*
X80144Y386522D01*
X80043Y386520D01*
X79943Y386514D01*
X79843Y386504D01*
X79743Y386491D01*
X79644Y386473D01*
X79545Y386452D01*
X79448Y386427D01*
X79351Y386398D01*
X79256Y386365D01*
X79162Y386329D01*
X79070Y386289D01*
X78979Y386246D01*
X78890Y386199D01*
X78803Y386149D01*
X78717Y386095D01*
X78634Y386038D01*
X78554Y385978D01*
X78475Y385915D01*
X78399Y385848D01*
X78326Y385779D01*
X78256Y385707D01*
X78188Y385633D01*
X78123Y385556D01*
X78062Y385476D01*
X78003Y385394D01*
X77948Y385310D01*
X77896Y385224D01*
X77847Y385136D01*
X77802Y385046D01*
X77760Y384954D01*
X77722Y384861D01*
X77688Y384766D01*
X77657Y384671D01*
X77630Y384574D01*
X77607Y384476D01*
X77587Y384377D01*
X77572Y384277D01*
X77560Y384177D01*
X77552Y384077D01*
X77548Y383976D01*
X77548Y383876D01*
X77552Y383775D01*
X77560Y383675D01*
X77572Y383575D01*
X77587Y383475D01*
X77607Y383376D01*
X77630Y383278D01*
X77657Y383181D01*
X77688Y383086D01*
X77722Y382991D01*
X77760Y382898D01*
X77802Y382806D01*
X77847Y382716D01*
X77896Y382628D01*
X77948Y382542D01*
X78003Y382458D01*
X78062Y382376D01*
X78123Y382296D01*
X78188Y382219D01*
X78256Y382145D01*
X78326Y382073D01*
X78399Y382004D01*
X78475Y381937D01*
X78554Y381874D01*
X78634Y381814D01*
X78717Y381757D01*
X78803Y381703D01*
X78890Y381653D01*
X78979Y381606D01*
X79070Y381563D01*
X79162Y381523D01*
X79256Y381487D01*
X79351Y381454D01*
X79448Y381425D01*
X79545Y381400D01*
X79644Y381379D01*
X79743Y381361D01*
X79843Y381348D01*
X79943Y381338D01*
X80043Y381332D01*
X80144Y381330D01*
X72397Y379382D02*
X64608Y379382D01*
X68503Y383276D02*
X68503Y375487D01*
X52910Y381329D02*
X49664Y381329D01*
X49664Y381330D02*
X49551Y381328D01*
X49438Y381322D01*
X49325Y381312D01*
X49212Y381298D01*
X49100Y381281D01*
X48989Y381259D01*
X48879Y381234D01*
X48769Y381204D01*
X48661Y381171D01*
X48554Y381134D01*
X48448Y381094D01*
X48344Y381049D01*
X48241Y381001D01*
X48140Y380950D01*
X48041Y380895D01*
X47944Y380837D01*
X47849Y380775D01*
X47756Y380710D01*
X47666Y380642D01*
X47578Y380571D01*
X47492Y380496D01*
X47409Y380419D01*
X47329Y380339D01*
X47252Y380256D01*
X47177Y380170D01*
X47106Y380082D01*
X47038Y379992D01*
X46973Y379899D01*
X46911Y379804D01*
X46853Y379707D01*
X46798Y379608D01*
X46747Y379507D01*
X46699Y379404D01*
X46654Y379300D01*
X46614Y379194D01*
X46577Y379087D01*
X46544Y378979D01*
X46514Y378869D01*
X46489Y378759D01*
X46467Y378648D01*
X46450Y378536D01*
X46436Y378423D01*
X46426Y378310D01*
X46420Y378197D01*
X46418Y378084D01*
X46420Y377971D01*
X46426Y377858D01*
X46436Y377745D01*
X46450Y377632D01*
X46467Y377520D01*
X46489Y377409D01*
X46514Y377299D01*
X46544Y377189D01*
X46577Y377081D01*
X46614Y376974D01*
X46654Y376868D01*
X46699Y376764D01*
X46747Y376661D01*
X46798Y376560D01*
X46853Y376461D01*
X46911Y376364D01*
X46973Y376269D01*
X47038Y376176D01*
X47106Y376086D01*
X47177Y375998D01*
X47252Y375912D01*
X47329Y375829D01*
X47409Y375749D01*
X47492Y375672D01*
X47578Y375597D01*
X47666Y375526D01*
X47756Y375458D01*
X47849Y375393D01*
X47944Y375331D01*
X48041Y375273D01*
X48140Y375218D01*
X48241Y375167D01*
X48344Y375119D01*
X48448Y375074D01*
X48554Y375034D01*
X48661Y374997D01*
X48769Y374964D01*
X48879Y374934D01*
X48989Y374909D01*
X49100Y374887D01*
X49212Y374870D01*
X49325Y374856D01*
X49438Y374846D01*
X49551Y374840D01*
X49664Y374838D01*
X52910Y374838D01*
X52910Y386522D01*
X49664Y386522D01*
X49563Y386520D01*
X49463Y386514D01*
X49363Y386504D01*
X49263Y386491D01*
X49164Y386473D01*
X49065Y386452D01*
X48968Y386427D01*
X48871Y386398D01*
X48776Y386365D01*
X48682Y386329D01*
X48590Y386289D01*
X48499Y386246D01*
X48410Y386199D01*
X48323Y386149D01*
X48237Y386095D01*
X48154Y386038D01*
X48074Y385978D01*
X47995Y385915D01*
X47919Y385848D01*
X47846Y385779D01*
X47776Y385707D01*
X47708Y385633D01*
X47643Y385556D01*
X47582Y385476D01*
X47523Y385394D01*
X47468Y385310D01*
X47416Y385224D01*
X47367Y385136D01*
X47322Y385046D01*
X47280Y384954D01*
X47242Y384861D01*
X47208Y384766D01*
X47177Y384671D01*
X47150Y384574D01*
X47127Y384476D01*
X47107Y384377D01*
X47092Y384277D01*
X47080Y384177D01*
X47072Y384077D01*
X47068Y383976D01*
X47068Y383876D01*
X47072Y383775D01*
X47080Y383675D01*
X47092Y383575D01*
X47107Y383475D01*
X47127Y383376D01*
X47150Y383278D01*
X47177Y383181D01*
X47208Y383086D01*
X47242Y382991D01*
X47280Y382898D01*
X47322Y382806D01*
X47367Y382716D01*
X47416Y382628D01*
X47468Y382542D01*
X47523Y382458D01*
X47582Y382376D01*
X47643Y382296D01*
X47708Y382219D01*
X47776Y382145D01*
X47846Y382073D01*
X47919Y382004D01*
X47995Y381937D01*
X48074Y381874D01*
X48154Y381814D01*
X48237Y381757D01*
X48323Y381703D01*
X48410Y381653D01*
X48499Y381606D01*
X48590Y381563D01*
X48682Y381523D01*
X48776Y381487D01*
X48871Y381454D01*
X48968Y381425D01*
X49065Y381400D01*
X49164Y381379D01*
X49263Y381361D01*
X49363Y381348D01*
X49463Y381338D01*
X49563Y381332D01*
X49664Y381330D01*
X41917Y379382D02*
X34128Y379382D01*
D12*
X92198Y432714D02*
X92198Y434266D01*
X92196Y434343D01*
X92190Y434421D01*
X92181Y434497D01*
X92167Y434574D01*
X92150Y434649D01*
X92129Y434723D01*
X92104Y434797D01*
X92076Y434869D01*
X92044Y434939D01*
X92009Y435008D01*
X91970Y435075D01*
X91928Y435140D01*
X91883Y435203D01*
X91835Y435264D01*
X91784Y435322D01*
X91730Y435377D01*
X91673Y435430D01*
X91614Y435479D01*
X91552Y435526D01*
X91488Y435570D01*
X91422Y435610D01*
X91354Y435647D01*
X91284Y435681D01*
X91213Y435711D01*
X91140Y435737D01*
X91066Y435760D01*
X90991Y435779D01*
X90916Y435794D01*
X90839Y435806D01*
X90762Y435814D01*
X90685Y435818D01*
X90607Y435818D01*
X90530Y435814D01*
X90453Y435806D01*
X90376Y435794D01*
X90301Y435779D01*
X90226Y435760D01*
X90152Y435737D01*
X90079Y435711D01*
X90008Y435681D01*
X89938Y435647D01*
X89870Y435610D01*
X89804Y435570D01*
X89740Y435526D01*
X89678Y435479D01*
X89619Y435430D01*
X89562Y435377D01*
X89508Y435322D01*
X89457Y435264D01*
X89409Y435203D01*
X89364Y435140D01*
X89322Y435075D01*
X89283Y435008D01*
X89248Y434939D01*
X89216Y434869D01*
X89188Y434797D01*
X89163Y434723D01*
X89142Y434649D01*
X89125Y434574D01*
X89111Y434497D01*
X89102Y434421D01*
X89096Y434343D01*
X89094Y434266D01*
X89094Y432714D01*
X94682Y432714D01*
X94682Y434266D01*
X94680Y434336D01*
X94674Y434405D01*
X94664Y434474D01*
X94651Y434542D01*
X94633Y434610D01*
X94612Y434676D01*
X94587Y434741D01*
X94559Y434805D01*
X94527Y434867D01*
X94492Y434927D01*
X94453Y434985D01*
X94411Y435040D01*
X94366Y435094D01*
X94318Y435144D01*
X94268Y435192D01*
X94214Y435237D01*
X94159Y435279D01*
X94101Y435318D01*
X94041Y435353D01*
X93979Y435385D01*
X93915Y435413D01*
X93850Y435438D01*
X93784Y435459D01*
X93716Y435477D01*
X93648Y435490D01*
X93579Y435500D01*
X93510Y435506D01*
X93440Y435508D01*
X93370Y435506D01*
X93301Y435500D01*
X93232Y435490D01*
X93164Y435477D01*
X93096Y435459D01*
X93030Y435438D01*
X92965Y435413D01*
X92901Y435385D01*
X92839Y435353D01*
X92779Y435318D01*
X92721Y435279D01*
X92666Y435237D01*
X92612Y435192D01*
X92562Y435144D01*
X92514Y435094D01*
X92469Y435040D01*
X92427Y434985D01*
X92388Y434927D01*
X92353Y434867D01*
X92321Y434805D01*
X92293Y434741D01*
X92268Y434676D01*
X92247Y434610D01*
X92229Y434542D01*
X92216Y434474D01*
X92206Y434405D01*
X92200Y434336D01*
X92198Y434266D01*
X89094Y437624D02*
X94682Y439487D01*
X89094Y441349D01*
X90491Y440884D02*
X90491Y438090D01*
X89094Y444607D02*
X94682Y444607D01*
X94682Y443055D02*
X94682Y446160D01*
X94682Y449362D02*
X89094Y449362D01*
X94682Y447810D02*
X94682Y450914D01*
X88473Y452692D02*
X88473Y455176D01*
X89094Y457586D02*
X94682Y457586D01*
X94682Y459138D01*
X94680Y459215D01*
X94674Y459293D01*
X94665Y459369D01*
X94651Y459446D01*
X94634Y459521D01*
X94613Y459595D01*
X94588Y459669D01*
X94560Y459741D01*
X94528Y459811D01*
X94493Y459880D01*
X94454Y459947D01*
X94412Y460012D01*
X94367Y460075D01*
X94319Y460136D01*
X94268Y460194D01*
X94214Y460249D01*
X94157Y460302D01*
X94098Y460351D01*
X94036Y460398D01*
X93972Y460442D01*
X93906Y460482D01*
X93838Y460519D01*
X93768Y460553D01*
X93697Y460583D01*
X93624Y460609D01*
X93550Y460632D01*
X93475Y460651D01*
X93400Y460666D01*
X93323Y460678D01*
X93246Y460686D01*
X93169Y460690D01*
X93091Y460690D01*
X93014Y460686D01*
X92937Y460678D01*
X92860Y460666D01*
X92785Y460651D01*
X92710Y460632D01*
X92636Y460609D01*
X92563Y460583D01*
X92492Y460553D01*
X92422Y460519D01*
X92354Y460482D01*
X92288Y460442D01*
X92224Y460398D01*
X92162Y460351D01*
X92103Y460302D01*
X92046Y460249D01*
X91992Y460194D01*
X91941Y460136D01*
X91893Y460075D01*
X91848Y460012D01*
X91806Y459947D01*
X91767Y459880D01*
X91732Y459811D01*
X91700Y459741D01*
X91672Y459669D01*
X91647Y459595D01*
X91626Y459521D01*
X91609Y459446D01*
X91595Y459369D01*
X91586Y459293D01*
X91580Y459215D01*
X91578Y459138D01*
X91578Y457586D01*
X90646Y462806D02*
X93130Y462806D01*
X93207Y462808D01*
X93285Y462814D01*
X93361Y462823D01*
X93438Y462837D01*
X93513Y462854D01*
X93587Y462875D01*
X93661Y462900D01*
X93733Y462928D01*
X93803Y462960D01*
X93872Y462995D01*
X93939Y463034D01*
X94004Y463076D01*
X94067Y463121D01*
X94128Y463169D01*
X94186Y463220D01*
X94241Y463274D01*
X94294Y463331D01*
X94343Y463390D01*
X94390Y463452D01*
X94434Y463516D01*
X94474Y463582D01*
X94511Y463650D01*
X94545Y463720D01*
X94575Y463791D01*
X94601Y463864D01*
X94624Y463938D01*
X94643Y464013D01*
X94658Y464088D01*
X94670Y464165D01*
X94678Y464242D01*
X94682Y464319D01*
X94682Y464397D01*
X94678Y464474D01*
X94670Y464551D01*
X94658Y464628D01*
X94643Y464703D01*
X94624Y464778D01*
X94601Y464852D01*
X94575Y464925D01*
X94545Y464996D01*
X94511Y465066D01*
X94474Y465134D01*
X94434Y465200D01*
X94390Y465264D01*
X94343Y465326D01*
X94294Y465385D01*
X94241Y465442D01*
X94186Y465496D01*
X94128Y465547D01*
X94067Y465595D01*
X94004Y465640D01*
X93939Y465682D01*
X93872Y465721D01*
X93803Y465756D01*
X93733Y465788D01*
X93661Y465816D01*
X93587Y465841D01*
X93513Y465862D01*
X93438Y465879D01*
X93361Y465893D01*
X93285Y465902D01*
X93207Y465908D01*
X93130Y465910D01*
X93130Y465911D02*
X90646Y465911D01*
X90646Y465910D02*
X90569Y465908D01*
X90491Y465902D01*
X90415Y465893D01*
X90338Y465879D01*
X90263Y465862D01*
X90189Y465841D01*
X90115Y465816D01*
X90043Y465788D01*
X89973Y465756D01*
X89904Y465721D01*
X89837Y465682D01*
X89772Y465640D01*
X89709Y465595D01*
X89648Y465547D01*
X89590Y465496D01*
X89535Y465442D01*
X89482Y465385D01*
X89433Y465326D01*
X89386Y465264D01*
X89342Y465200D01*
X89302Y465134D01*
X89265Y465066D01*
X89231Y464996D01*
X89201Y464925D01*
X89175Y464852D01*
X89152Y464778D01*
X89133Y464703D01*
X89118Y464628D01*
X89106Y464551D01*
X89098Y464474D01*
X89094Y464397D01*
X89094Y464319D01*
X89098Y464242D01*
X89106Y464165D01*
X89118Y464088D01*
X89133Y464013D01*
X89152Y463938D01*
X89175Y463864D01*
X89201Y463791D01*
X89231Y463720D01*
X89265Y463650D01*
X89302Y463582D01*
X89342Y463516D01*
X89386Y463452D01*
X89433Y463390D01*
X89482Y463331D01*
X89535Y463274D01*
X89590Y463220D01*
X89648Y463169D01*
X89709Y463121D01*
X89772Y463076D01*
X89837Y463034D01*
X89904Y462995D01*
X89973Y462960D01*
X90043Y462928D01*
X90115Y462900D01*
X90189Y462875D01*
X90263Y462854D01*
X90338Y462837D01*
X90415Y462823D01*
X90491Y462814D01*
X90569Y462808D01*
X90646Y462806D01*
X89094Y468511D02*
X94682Y468511D01*
X94682Y470064D01*
X94680Y470141D01*
X94674Y470219D01*
X94665Y470295D01*
X94651Y470372D01*
X94634Y470447D01*
X94613Y470521D01*
X94588Y470595D01*
X94560Y470667D01*
X94528Y470737D01*
X94493Y470806D01*
X94454Y470873D01*
X94412Y470938D01*
X94367Y471001D01*
X94319Y471062D01*
X94268Y471120D01*
X94214Y471175D01*
X94157Y471228D01*
X94098Y471277D01*
X94036Y471324D01*
X93972Y471368D01*
X93906Y471408D01*
X93838Y471445D01*
X93768Y471479D01*
X93697Y471509D01*
X93624Y471535D01*
X93550Y471558D01*
X93475Y471577D01*
X93400Y471592D01*
X93323Y471604D01*
X93246Y471612D01*
X93169Y471616D01*
X93091Y471616D01*
X93014Y471612D01*
X92937Y471604D01*
X92860Y471592D01*
X92785Y471577D01*
X92710Y471558D01*
X92636Y471535D01*
X92563Y471509D01*
X92492Y471479D01*
X92422Y471445D01*
X92354Y471408D01*
X92288Y471368D01*
X92224Y471324D01*
X92162Y471277D01*
X92103Y471228D01*
X92046Y471175D01*
X91992Y471120D01*
X91941Y471062D01*
X91893Y471001D01*
X91848Y470938D01*
X91806Y470873D01*
X91767Y470806D01*
X91732Y470737D01*
X91700Y470667D01*
X91672Y470595D01*
X91647Y470521D01*
X91626Y470447D01*
X91609Y470372D01*
X91595Y470295D01*
X91586Y470219D01*
X91580Y470141D01*
X91578Y470064D01*
X91578Y468511D01*
X91578Y470374D02*
X89094Y471616D01*
X89094Y475148D02*
X94682Y475148D01*
X94682Y473596D02*
X94682Y476700D01*
X27820Y418034D02*
X27750Y418032D01*
X27681Y418026D01*
X27612Y418016D01*
X27544Y418003D01*
X27476Y417985D01*
X27410Y417964D01*
X27345Y417939D01*
X27281Y417911D01*
X27219Y417879D01*
X27159Y417844D01*
X27101Y417805D01*
X27046Y417763D01*
X26992Y417718D01*
X26942Y417670D01*
X26894Y417620D01*
X26849Y417566D01*
X26807Y417511D01*
X26768Y417453D01*
X26733Y417393D01*
X26701Y417331D01*
X26673Y417267D01*
X26648Y417202D01*
X26627Y417136D01*
X26609Y417068D01*
X26596Y417000D01*
X26586Y416931D01*
X26580Y416862D01*
X26578Y416792D01*
X26580Y416693D01*
X26585Y416595D01*
X26595Y416497D01*
X26608Y416399D01*
X26624Y416302D01*
X26644Y416205D01*
X26668Y416110D01*
X26696Y416015D01*
X26727Y415921D01*
X26761Y415829D01*
X26799Y415738D01*
X26840Y415648D01*
X26885Y415560D01*
X26933Y415474D01*
X26984Y415390D01*
X27038Y415308D01*
X27096Y415227D01*
X27156Y415149D01*
X27219Y415074D01*
X27285Y415000D01*
X27354Y414930D01*
X30924Y415085D02*
X30994Y415087D01*
X31063Y415093D01*
X31132Y415103D01*
X31200Y415116D01*
X31268Y415134D01*
X31334Y415155D01*
X31399Y415180D01*
X31463Y415208D01*
X31525Y415240D01*
X31585Y415275D01*
X31643Y415314D01*
X31698Y415356D01*
X31752Y415401D01*
X31802Y415449D01*
X31850Y415499D01*
X31895Y415553D01*
X31937Y415608D01*
X31976Y415666D01*
X32011Y415726D01*
X32043Y415788D01*
X32071Y415852D01*
X32096Y415917D01*
X32117Y415983D01*
X32135Y416051D01*
X32148Y416119D01*
X32158Y416188D01*
X32164Y416257D01*
X32166Y416327D01*
X32164Y416421D01*
X32158Y416514D01*
X32149Y416607D01*
X32136Y416700D01*
X32119Y416792D01*
X32099Y416883D01*
X32074Y416974D01*
X32047Y417063D01*
X32015Y417151D01*
X31980Y417238D01*
X31942Y417324D01*
X31900Y417407D01*
X31855Y417489D01*
X31807Y417570D01*
X31755Y417648D01*
X31700Y417724D01*
X29838Y415706D02*
X29874Y415647D01*
X29914Y415591D01*
X29957Y415537D01*
X30002Y415485D01*
X30051Y415436D01*
X30102Y415390D01*
X30155Y415347D01*
X30211Y415306D01*
X30269Y415269D01*
X30329Y415234D01*
X30390Y415204D01*
X30453Y415176D01*
X30518Y415152D01*
X30584Y415132D01*
X30651Y415115D01*
X30718Y415102D01*
X30786Y415093D01*
X30855Y415087D01*
X30924Y415085D01*
X28906Y417413D02*
X28870Y417472D01*
X28830Y417528D01*
X28787Y417582D01*
X28742Y417634D01*
X28693Y417683D01*
X28642Y417729D01*
X28589Y417772D01*
X28533Y417813D01*
X28475Y417850D01*
X28415Y417885D01*
X28354Y417915D01*
X28291Y417943D01*
X28226Y417967D01*
X28160Y417987D01*
X28093Y418004D01*
X28026Y418017D01*
X27958Y418026D01*
X27889Y418032D01*
X27820Y418034D01*
X28906Y417413D02*
X29838Y415706D01*
X32166Y421941D02*
X32164Y422014D01*
X32158Y422087D01*
X32149Y422160D01*
X32135Y422231D01*
X32118Y422303D01*
X32098Y422373D01*
X32073Y422442D01*
X32045Y422509D01*
X32014Y422575D01*
X31979Y422640D01*
X31941Y422702D01*
X31899Y422762D01*
X31855Y422820D01*
X31807Y422876D01*
X31757Y422929D01*
X31704Y422979D01*
X31648Y423027D01*
X31590Y423071D01*
X31530Y423113D01*
X31468Y423151D01*
X31403Y423186D01*
X31337Y423217D01*
X31270Y423245D01*
X31201Y423270D01*
X31131Y423290D01*
X31059Y423307D01*
X30988Y423321D01*
X30915Y423330D01*
X30842Y423336D01*
X30769Y423338D01*
X32166Y421941D02*
X32164Y421857D01*
X32158Y421774D01*
X32149Y421691D01*
X32135Y421609D01*
X32118Y421527D01*
X32096Y421446D01*
X32071Y421366D01*
X32043Y421288D01*
X32011Y421210D01*
X31975Y421135D01*
X31936Y421061D01*
X31893Y420989D01*
X31847Y420919D01*
X31798Y420852D01*
X31745Y420786D01*
X31690Y420724D01*
X31632Y420664D01*
X31571Y420606D01*
X31508Y420552D01*
X31442Y420500D01*
X31374Y420452D01*
X31303Y420407D01*
X31231Y420365D01*
X31156Y420327D01*
X31080Y420292D01*
X31003Y420261D01*
X30924Y420233D01*
X29683Y422871D02*
X29736Y422925D01*
X29793Y422976D01*
X29852Y423024D01*
X29913Y423069D01*
X29976Y423110D01*
X30042Y423149D01*
X30109Y423184D01*
X30178Y423216D01*
X30249Y423244D01*
X30320Y423268D01*
X30393Y423289D01*
X30467Y423306D01*
X30542Y423320D01*
X30617Y423329D01*
X30693Y423335D01*
X30769Y423337D01*
X29682Y422872D02*
X26578Y420233D01*
X26578Y423338D01*
X29682Y425986D02*
X29682Y427538D01*
X29680Y427615D01*
X29674Y427693D01*
X29665Y427769D01*
X29651Y427846D01*
X29634Y427921D01*
X29613Y427995D01*
X29588Y428069D01*
X29560Y428141D01*
X29528Y428211D01*
X29493Y428280D01*
X29454Y428347D01*
X29412Y428412D01*
X29367Y428475D01*
X29319Y428536D01*
X29268Y428594D01*
X29214Y428649D01*
X29157Y428702D01*
X29098Y428751D01*
X29036Y428798D01*
X28972Y428842D01*
X28906Y428882D01*
X28838Y428919D01*
X28768Y428953D01*
X28697Y428983D01*
X28624Y429009D01*
X28550Y429032D01*
X28475Y429051D01*
X28400Y429066D01*
X28323Y429078D01*
X28246Y429086D01*
X28169Y429090D01*
X28091Y429090D01*
X28014Y429086D01*
X27937Y429078D01*
X27860Y429066D01*
X27785Y429051D01*
X27710Y429032D01*
X27636Y429009D01*
X27563Y428983D01*
X27492Y428953D01*
X27422Y428919D01*
X27354Y428882D01*
X27288Y428842D01*
X27224Y428798D01*
X27162Y428751D01*
X27103Y428702D01*
X27046Y428649D01*
X26992Y428594D01*
X26941Y428536D01*
X26893Y428475D01*
X26848Y428412D01*
X26806Y428347D01*
X26767Y428280D01*
X26732Y428211D01*
X26700Y428141D01*
X26672Y428069D01*
X26647Y427995D01*
X26626Y427921D01*
X26609Y427846D01*
X26595Y427769D01*
X26586Y427693D01*
X26580Y427615D01*
X26578Y427538D01*
X26578Y425986D01*
X32166Y425986D01*
X32166Y427538D01*
X32164Y427608D01*
X32158Y427677D01*
X32148Y427746D01*
X32135Y427814D01*
X32117Y427882D01*
X32096Y427948D01*
X32071Y428013D01*
X32043Y428077D01*
X32011Y428139D01*
X31976Y428199D01*
X31937Y428257D01*
X31895Y428312D01*
X31850Y428366D01*
X31802Y428416D01*
X31752Y428464D01*
X31698Y428509D01*
X31643Y428551D01*
X31585Y428590D01*
X31525Y428625D01*
X31463Y428657D01*
X31399Y428685D01*
X31334Y428710D01*
X31268Y428731D01*
X31200Y428749D01*
X31132Y428762D01*
X31063Y428772D01*
X30994Y428778D01*
X30924Y428780D01*
X30854Y428778D01*
X30785Y428772D01*
X30716Y428762D01*
X30648Y428749D01*
X30580Y428731D01*
X30514Y428710D01*
X30449Y428685D01*
X30385Y428657D01*
X30323Y428625D01*
X30263Y428590D01*
X30205Y428551D01*
X30150Y428509D01*
X30096Y428464D01*
X30046Y428416D01*
X29998Y428366D01*
X29953Y428312D01*
X29911Y428257D01*
X29872Y428199D01*
X29837Y428139D01*
X29805Y428077D01*
X29777Y428013D01*
X29752Y427948D01*
X29731Y427882D01*
X29713Y427814D01*
X29700Y427746D01*
X29690Y427677D01*
X29684Y427608D01*
X29682Y427538D01*
X28751Y431261D02*
X28751Y434987D01*
X26578Y437690D02*
X32166Y437690D01*
X32166Y439242D01*
X32164Y439319D01*
X32158Y439397D01*
X32149Y439473D01*
X32135Y439550D01*
X32118Y439625D01*
X32097Y439699D01*
X32072Y439773D01*
X32044Y439845D01*
X32012Y439915D01*
X31977Y439984D01*
X31938Y440051D01*
X31896Y440116D01*
X31851Y440179D01*
X31803Y440240D01*
X31752Y440298D01*
X31698Y440353D01*
X31641Y440406D01*
X31582Y440455D01*
X31520Y440502D01*
X31456Y440546D01*
X31390Y440586D01*
X31322Y440623D01*
X31252Y440657D01*
X31181Y440687D01*
X31108Y440713D01*
X31034Y440736D01*
X30959Y440755D01*
X30884Y440770D01*
X30807Y440782D01*
X30730Y440790D01*
X30653Y440794D01*
X30575Y440794D01*
X30498Y440790D01*
X30421Y440782D01*
X30344Y440770D01*
X30269Y440755D01*
X30194Y440736D01*
X30120Y440713D01*
X30047Y440687D01*
X29976Y440657D01*
X29906Y440623D01*
X29838Y440586D01*
X29772Y440546D01*
X29708Y440502D01*
X29646Y440455D01*
X29587Y440406D01*
X29530Y440353D01*
X29476Y440298D01*
X29425Y440240D01*
X29377Y440179D01*
X29332Y440116D01*
X29290Y440051D01*
X29251Y439984D01*
X29216Y439915D01*
X29184Y439845D01*
X29156Y439773D01*
X29131Y439699D01*
X29110Y439625D01*
X29093Y439550D01*
X29079Y439473D01*
X29070Y439397D01*
X29064Y439319D01*
X29062Y439242D01*
X29062Y437690D01*
X26578Y443093D02*
X32166Y443093D01*
X29682Y443093D02*
X29682Y446198D01*
X32166Y446198D02*
X26578Y446198D01*
X28751Y448818D02*
X28751Y452543D01*
X26578Y455246D02*
X32166Y455246D01*
X32166Y458351D02*
X28751Y455246D01*
X29993Y456488D02*
X26578Y458351D01*
X28751Y460522D02*
X28751Y464247D01*
X26578Y468364D02*
X26580Y468434D01*
X26586Y468503D01*
X26596Y468572D01*
X26609Y468640D01*
X26627Y468708D01*
X26648Y468774D01*
X26673Y468839D01*
X26701Y468903D01*
X26733Y468965D01*
X26768Y469025D01*
X26807Y469083D01*
X26849Y469138D01*
X26894Y469192D01*
X26942Y469242D01*
X26992Y469290D01*
X27046Y469335D01*
X27101Y469377D01*
X27159Y469416D01*
X27219Y469451D01*
X27281Y469483D01*
X27345Y469511D01*
X27410Y469536D01*
X27476Y469557D01*
X27544Y469575D01*
X27612Y469588D01*
X27681Y469598D01*
X27750Y469604D01*
X27820Y469606D01*
X26578Y468364D02*
X26580Y468265D01*
X26585Y468167D01*
X26595Y468069D01*
X26608Y467971D01*
X26624Y467874D01*
X26644Y467777D01*
X26668Y467682D01*
X26696Y467587D01*
X26727Y467493D01*
X26761Y467401D01*
X26799Y467310D01*
X26840Y467220D01*
X26885Y467132D01*
X26933Y467046D01*
X26984Y466962D01*
X27038Y466880D01*
X27096Y466799D01*
X27156Y466721D01*
X27219Y466646D01*
X27285Y466572D01*
X27354Y466502D01*
X30924Y466657D02*
X30994Y466659D01*
X31063Y466665D01*
X31132Y466675D01*
X31200Y466688D01*
X31268Y466706D01*
X31334Y466727D01*
X31399Y466752D01*
X31463Y466780D01*
X31525Y466812D01*
X31585Y466847D01*
X31643Y466886D01*
X31698Y466928D01*
X31752Y466973D01*
X31802Y467021D01*
X31850Y467071D01*
X31895Y467125D01*
X31937Y467180D01*
X31976Y467238D01*
X32011Y467298D01*
X32043Y467360D01*
X32071Y467424D01*
X32096Y467489D01*
X32117Y467555D01*
X32135Y467623D01*
X32148Y467691D01*
X32158Y467760D01*
X32164Y467829D01*
X32166Y467899D01*
X32164Y467993D01*
X32158Y468086D01*
X32149Y468179D01*
X32136Y468272D01*
X32119Y468364D01*
X32099Y468455D01*
X32074Y468546D01*
X32047Y468635D01*
X32015Y468723D01*
X31980Y468810D01*
X31942Y468896D01*
X31900Y468979D01*
X31855Y469061D01*
X31807Y469142D01*
X31755Y469220D01*
X31700Y469296D01*
X29838Y467278D02*
X29874Y467219D01*
X29914Y467163D01*
X29957Y467109D01*
X30002Y467057D01*
X30051Y467008D01*
X30102Y466962D01*
X30155Y466919D01*
X30211Y466878D01*
X30269Y466841D01*
X30329Y466806D01*
X30390Y466776D01*
X30453Y466748D01*
X30518Y466724D01*
X30584Y466704D01*
X30651Y466687D01*
X30718Y466674D01*
X30786Y466665D01*
X30855Y466659D01*
X30924Y466657D01*
X28906Y468985D02*
X28870Y469044D01*
X28830Y469100D01*
X28787Y469154D01*
X28742Y469206D01*
X28693Y469255D01*
X28642Y469301D01*
X28589Y469344D01*
X28533Y469385D01*
X28475Y469422D01*
X28415Y469457D01*
X28354Y469487D01*
X28291Y469515D01*
X28226Y469539D01*
X28160Y469559D01*
X28093Y469576D01*
X28026Y469589D01*
X27958Y469598D01*
X27889Y469604D01*
X27820Y469606D01*
X28906Y468985D02*
X29838Y467278D01*
X39262Y131892D02*
X39262Y130960D01*
X39262Y131892D02*
X36158Y131892D01*
X36158Y130029D01*
X36160Y129959D01*
X36166Y129890D01*
X36176Y129821D01*
X36189Y129753D01*
X36207Y129685D01*
X36228Y129619D01*
X36253Y129554D01*
X36281Y129490D01*
X36313Y129428D01*
X36348Y129368D01*
X36387Y129310D01*
X36429Y129255D01*
X36474Y129201D01*
X36522Y129151D01*
X36572Y129103D01*
X36626Y129058D01*
X36681Y129016D01*
X36739Y128977D01*
X36799Y128942D01*
X36861Y128910D01*
X36925Y128882D01*
X36990Y128857D01*
X37056Y128836D01*
X37124Y128818D01*
X37192Y128805D01*
X37261Y128795D01*
X37330Y128789D01*
X37400Y128787D01*
X40504Y128787D01*
X40574Y128789D01*
X40643Y128795D01*
X40712Y128805D01*
X40780Y128818D01*
X40848Y128836D01*
X40914Y128857D01*
X40979Y128882D01*
X41043Y128910D01*
X41105Y128942D01*
X41165Y128977D01*
X41223Y129016D01*
X41278Y129058D01*
X41332Y129103D01*
X41382Y129151D01*
X41430Y129201D01*
X41475Y129255D01*
X41517Y129310D01*
X41556Y129368D01*
X41591Y129428D01*
X41623Y129490D01*
X41651Y129554D01*
X41676Y129619D01*
X41697Y129685D01*
X41715Y129753D01*
X41728Y129821D01*
X41738Y129890D01*
X41744Y129959D01*
X41746Y130029D01*
X41746Y131892D01*
X41746Y134639D02*
X36158Y134639D01*
X36158Y137744D02*
X41746Y134639D01*
X41746Y137744D02*
X36158Y137744D01*
X36158Y140492D02*
X41746Y140492D01*
X41746Y142044D01*
X41744Y142120D01*
X41739Y142196D01*
X41729Y142272D01*
X41716Y142347D01*
X41699Y142421D01*
X41679Y142495D01*
X41655Y142567D01*
X41628Y142638D01*
X41597Y142708D01*
X41563Y142776D01*
X41525Y142842D01*
X41484Y142906D01*
X41441Y142969D01*
X41394Y143029D01*
X41344Y143086D01*
X41291Y143141D01*
X41236Y143194D01*
X41179Y143244D01*
X41119Y143291D01*
X41056Y143334D01*
X40992Y143375D01*
X40926Y143413D01*
X40858Y143447D01*
X40788Y143478D01*
X40717Y143505D01*
X40644Y143529D01*
X40571Y143549D01*
X40497Y143566D01*
X40422Y143579D01*
X40346Y143589D01*
X40270Y143594D01*
X40194Y143596D01*
X37710Y143596D01*
X37631Y143594D01*
X37553Y143588D01*
X37475Y143578D01*
X37398Y143564D01*
X37321Y143546D01*
X37245Y143525D01*
X37171Y143499D01*
X37098Y143470D01*
X37027Y143437D01*
X36957Y143401D01*
X36889Y143361D01*
X36823Y143318D01*
X36760Y143271D01*
X36699Y143222D01*
X36641Y143169D01*
X36585Y143113D01*
X36532Y143055D01*
X36483Y142994D01*
X36436Y142931D01*
X36393Y142865D01*
X36353Y142797D01*
X36317Y142728D01*
X36284Y142656D01*
X36255Y142583D01*
X36229Y142509D01*
X36208Y142433D01*
X36190Y142356D01*
X36176Y142279D01*
X36166Y142201D01*
X36160Y142123D01*
X36158Y142044D01*
X36158Y140492D01*
X37710Y85439D02*
X41746Y85439D01*
X37710Y85439D02*
X37633Y85441D01*
X37555Y85447D01*
X37479Y85456D01*
X37402Y85470D01*
X37327Y85487D01*
X37253Y85508D01*
X37179Y85533D01*
X37107Y85561D01*
X37037Y85593D01*
X36968Y85628D01*
X36901Y85667D01*
X36836Y85709D01*
X36773Y85754D01*
X36712Y85802D01*
X36654Y85853D01*
X36599Y85907D01*
X36546Y85964D01*
X36497Y86023D01*
X36450Y86085D01*
X36406Y86149D01*
X36366Y86215D01*
X36329Y86283D01*
X36295Y86353D01*
X36265Y86424D01*
X36239Y86497D01*
X36216Y86571D01*
X36197Y86646D01*
X36182Y86721D01*
X36170Y86798D01*
X36162Y86875D01*
X36158Y86952D01*
X36158Y87030D01*
X36162Y87107D01*
X36170Y87184D01*
X36182Y87261D01*
X36197Y87336D01*
X36216Y87411D01*
X36239Y87485D01*
X36265Y87558D01*
X36295Y87629D01*
X36329Y87699D01*
X36366Y87767D01*
X36406Y87833D01*
X36450Y87897D01*
X36497Y87959D01*
X36546Y88018D01*
X36599Y88075D01*
X36654Y88129D01*
X36712Y88180D01*
X36773Y88228D01*
X36836Y88273D01*
X36901Y88315D01*
X36968Y88354D01*
X37037Y88389D01*
X37107Y88421D01*
X37179Y88449D01*
X37253Y88474D01*
X37327Y88495D01*
X37402Y88512D01*
X37479Y88526D01*
X37555Y88535D01*
X37633Y88541D01*
X37710Y88543D01*
X37710Y88544D02*
X41746Y88544D01*
X37400Y94030D02*
X37330Y94028D01*
X37261Y94022D01*
X37192Y94012D01*
X37124Y93999D01*
X37056Y93981D01*
X36990Y93960D01*
X36925Y93935D01*
X36861Y93907D01*
X36799Y93875D01*
X36739Y93840D01*
X36681Y93801D01*
X36626Y93759D01*
X36572Y93714D01*
X36522Y93666D01*
X36474Y93616D01*
X36429Y93562D01*
X36387Y93507D01*
X36348Y93449D01*
X36313Y93389D01*
X36281Y93327D01*
X36253Y93263D01*
X36228Y93198D01*
X36207Y93132D01*
X36189Y93064D01*
X36176Y92996D01*
X36166Y92927D01*
X36160Y92858D01*
X36158Y92788D01*
X36160Y92689D01*
X36165Y92591D01*
X36175Y92493D01*
X36188Y92395D01*
X36204Y92298D01*
X36224Y92201D01*
X36248Y92106D01*
X36276Y92011D01*
X36307Y91917D01*
X36341Y91825D01*
X36379Y91734D01*
X36420Y91644D01*
X36465Y91556D01*
X36513Y91470D01*
X36564Y91386D01*
X36618Y91304D01*
X36676Y91223D01*
X36736Y91145D01*
X36799Y91070D01*
X36865Y90996D01*
X36934Y90926D01*
X40504Y91081D02*
X40574Y91083D01*
X40643Y91089D01*
X40712Y91099D01*
X40780Y91112D01*
X40848Y91130D01*
X40914Y91151D01*
X40979Y91176D01*
X41043Y91204D01*
X41105Y91236D01*
X41165Y91271D01*
X41223Y91310D01*
X41278Y91352D01*
X41332Y91397D01*
X41382Y91445D01*
X41430Y91495D01*
X41475Y91549D01*
X41517Y91604D01*
X41556Y91662D01*
X41591Y91722D01*
X41623Y91784D01*
X41651Y91848D01*
X41676Y91913D01*
X41697Y91979D01*
X41715Y92047D01*
X41728Y92115D01*
X41738Y92184D01*
X41744Y92253D01*
X41746Y92323D01*
X41746Y92322D02*
X41744Y92416D01*
X41738Y92509D01*
X41729Y92602D01*
X41716Y92695D01*
X41699Y92787D01*
X41679Y92878D01*
X41654Y92969D01*
X41627Y93058D01*
X41595Y93146D01*
X41560Y93233D01*
X41522Y93319D01*
X41480Y93402D01*
X41435Y93484D01*
X41387Y93565D01*
X41335Y93643D01*
X41280Y93719D01*
X39418Y91702D02*
X39454Y91643D01*
X39494Y91587D01*
X39537Y91533D01*
X39582Y91481D01*
X39631Y91432D01*
X39682Y91386D01*
X39735Y91343D01*
X39791Y91302D01*
X39849Y91265D01*
X39909Y91230D01*
X39970Y91200D01*
X40033Y91172D01*
X40098Y91148D01*
X40164Y91128D01*
X40231Y91111D01*
X40298Y91098D01*
X40366Y91089D01*
X40435Y91083D01*
X40504Y91081D01*
X38486Y93409D02*
X38450Y93468D01*
X38410Y93524D01*
X38367Y93578D01*
X38322Y93630D01*
X38273Y93679D01*
X38222Y93725D01*
X38169Y93768D01*
X38113Y93809D01*
X38055Y93846D01*
X37995Y93881D01*
X37934Y93911D01*
X37871Y93939D01*
X37806Y93963D01*
X37740Y93983D01*
X37673Y94000D01*
X37606Y94013D01*
X37538Y94022D01*
X37469Y94028D01*
X37400Y94030D01*
X38486Y93409D02*
X39418Y91702D01*
X39262Y96495D02*
X39262Y98047D01*
X39260Y98124D01*
X39254Y98202D01*
X39245Y98278D01*
X39231Y98355D01*
X39214Y98430D01*
X39193Y98504D01*
X39168Y98578D01*
X39140Y98650D01*
X39108Y98720D01*
X39073Y98789D01*
X39034Y98856D01*
X38992Y98921D01*
X38947Y98984D01*
X38899Y99045D01*
X38848Y99103D01*
X38794Y99158D01*
X38737Y99211D01*
X38678Y99260D01*
X38616Y99307D01*
X38552Y99351D01*
X38486Y99391D01*
X38418Y99428D01*
X38348Y99462D01*
X38277Y99492D01*
X38204Y99518D01*
X38130Y99541D01*
X38055Y99560D01*
X37980Y99575D01*
X37903Y99587D01*
X37826Y99595D01*
X37749Y99599D01*
X37671Y99599D01*
X37594Y99595D01*
X37517Y99587D01*
X37440Y99575D01*
X37365Y99560D01*
X37290Y99541D01*
X37216Y99518D01*
X37143Y99492D01*
X37072Y99462D01*
X37002Y99428D01*
X36934Y99391D01*
X36868Y99351D01*
X36804Y99307D01*
X36742Y99260D01*
X36683Y99211D01*
X36626Y99158D01*
X36572Y99103D01*
X36521Y99045D01*
X36473Y98984D01*
X36428Y98921D01*
X36386Y98856D01*
X36347Y98789D01*
X36312Y98720D01*
X36280Y98650D01*
X36252Y98578D01*
X36227Y98504D01*
X36206Y98430D01*
X36189Y98355D01*
X36175Y98278D01*
X36166Y98202D01*
X36160Y98124D01*
X36158Y98047D01*
X36158Y96495D01*
X41746Y96495D01*
X41746Y98047D01*
X41744Y98117D01*
X41738Y98186D01*
X41728Y98255D01*
X41715Y98323D01*
X41697Y98391D01*
X41676Y98457D01*
X41651Y98522D01*
X41623Y98586D01*
X41591Y98648D01*
X41556Y98708D01*
X41517Y98766D01*
X41475Y98821D01*
X41430Y98875D01*
X41382Y98925D01*
X41332Y98973D01*
X41278Y99018D01*
X41223Y99060D01*
X41165Y99099D01*
X41105Y99134D01*
X41043Y99166D01*
X40979Y99194D01*
X40914Y99219D01*
X40848Y99240D01*
X40780Y99258D01*
X40712Y99271D01*
X40643Y99281D01*
X40574Y99287D01*
X40504Y99289D01*
X40434Y99287D01*
X40365Y99281D01*
X40296Y99271D01*
X40228Y99258D01*
X40160Y99240D01*
X40094Y99219D01*
X40029Y99194D01*
X39965Y99166D01*
X39903Y99134D01*
X39843Y99099D01*
X39785Y99060D01*
X39730Y99018D01*
X39676Y98973D01*
X39626Y98925D01*
X39578Y98875D01*
X39533Y98821D01*
X39491Y98766D01*
X39452Y98708D01*
X39417Y98648D01*
X39385Y98586D01*
X39357Y98522D01*
X39332Y98457D01*
X39311Y98391D01*
X39293Y98323D01*
X39280Y98255D01*
X39270Y98186D01*
X39264Y98117D01*
X39262Y98047D01*
X38331Y101771D02*
X38331Y105496D01*
X36468Y103633D02*
X40194Y103633D01*
X153562Y63757D02*
X153562Y62205D01*
X153562Y63757D02*
X153560Y63834D01*
X153554Y63912D01*
X153545Y63988D01*
X153531Y64065D01*
X153514Y64140D01*
X153493Y64214D01*
X153468Y64288D01*
X153440Y64360D01*
X153408Y64430D01*
X153373Y64499D01*
X153334Y64566D01*
X153292Y64631D01*
X153247Y64694D01*
X153199Y64755D01*
X153148Y64813D01*
X153094Y64868D01*
X153037Y64921D01*
X152978Y64970D01*
X152916Y65017D01*
X152852Y65061D01*
X152786Y65101D01*
X152718Y65138D01*
X152648Y65172D01*
X152577Y65202D01*
X152504Y65228D01*
X152430Y65251D01*
X152355Y65270D01*
X152280Y65285D01*
X152203Y65297D01*
X152126Y65305D01*
X152049Y65309D01*
X151971Y65309D01*
X151894Y65305D01*
X151817Y65297D01*
X151740Y65285D01*
X151665Y65270D01*
X151590Y65251D01*
X151516Y65228D01*
X151443Y65202D01*
X151372Y65172D01*
X151302Y65138D01*
X151234Y65101D01*
X151168Y65061D01*
X151104Y65017D01*
X151042Y64970D01*
X150983Y64921D01*
X150926Y64868D01*
X150872Y64813D01*
X150821Y64755D01*
X150773Y64694D01*
X150728Y64631D01*
X150686Y64566D01*
X150647Y64499D01*
X150612Y64430D01*
X150580Y64360D01*
X150552Y64288D01*
X150527Y64214D01*
X150506Y64140D01*
X150489Y64065D01*
X150475Y63988D01*
X150466Y63912D01*
X150460Y63834D01*
X150458Y63757D01*
X150458Y62205D01*
X156046Y62205D01*
X156046Y63757D01*
X156044Y63827D01*
X156038Y63896D01*
X156028Y63965D01*
X156015Y64033D01*
X155997Y64101D01*
X155976Y64167D01*
X155951Y64232D01*
X155923Y64296D01*
X155891Y64358D01*
X155856Y64418D01*
X155817Y64476D01*
X155775Y64531D01*
X155730Y64585D01*
X155682Y64635D01*
X155632Y64683D01*
X155578Y64728D01*
X155523Y64770D01*
X155465Y64809D01*
X155405Y64844D01*
X155343Y64876D01*
X155279Y64904D01*
X155214Y64929D01*
X155148Y64950D01*
X155080Y64968D01*
X155012Y64981D01*
X154943Y64991D01*
X154874Y64997D01*
X154804Y64999D01*
X154734Y64997D01*
X154665Y64991D01*
X154596Y64981D01*
X154528Y64968D01*
X154460Y64950D01*
X154394Y64929D01*
X154329Y64904D01*
X154265Y64876D01*
X154203Y64844D01*
X154143Y64809D01*
X154085Y64770D01*
X154030Y64728D01*
X153976Y64683D01*
X153926Y64635D01*
X153878Y64585D01*
X153833Y64531D01*
X153791Y64476D01*
X153752Y64418D01*
X153717Y64358D01*
X153685Y64296D01*
X153657Y64232D01*
X153632Y64167D01*
X153611Y64101D01*
X153593Y64033D01*
X153580Y63965D01*
X153570Y63896D01*
X153564Y63827D01*
X153562Y63757D01*
X152631Y67481D02*
X152631Y71206D01*
X153562Y143485D02*
X153562Y145037D01*
X153560Y145114D01*
X153554Y145192D01*
X153545Y145268D01*
X153531Y145345D01*
X153514Y145420D01*
X153493Y145494D01*
X153468Y145568D01*
X153440Y145640D01*
X153408Y145710D01*
X153373Y145779D01*
X153334Y145846D01*
X153292Y145911D01*
X153247Y145974D01*
X153199Y146035D01*
X153148Y146093D01*
X153094Y146148D01*
X153037Y146201D01*
X152978Y146250D01*
X152916Y146297D01*
X152852Y146341D01*
X152786Y146381D01*
X152718Y146418D01*
X152648Y146452D01*
X152577Y146482D01*
X152504Y146508D01*
X152430Y146531D01*
X152355Y146550D01*
X152280Y146565D01*
X152203Y146577D01*
X152126Y146585D01*
X152049Y146589D01*
X151971Y146589D01*
X151894Y146585D01*
X151817Y146577D01*
X151740Y146565D01*
X151665Y146550D01*
X151590Y146531D01*
X151516Y146508D01*
X151443Y146482D01*
X151372Y146452D01*
X151302Y146418D01*
X151234Y146381D01*
X151168Y146341D01*
X151104Y146297D01*
X151042Y146250D01*
X150983Y146201D01*
X150926Y146148D01*
X150872Y146093D01*
X150821Y146035D01*
X150773Y145974D01*
X150728Y145911D01*
X150686Y145846D01*
X150647Y145779D01*
X150612Y145710D01*
X150580Y145640D01*
X150552Y145568D01*
X150527Y145494D01*
X150506Y145420D01*
X150489Y145345D01*
X150475Y145268D01*
X150466Y145192D01*
X150460Y145114D01*
X150458Y145037D01*
X150458Y143485D01*
X156046Y143485D01*
X156046Y145037D01*
X156044Y145107D01*
X156038Y145176D01*
X156028Y145245D01*
X156015Y145313D01*
X155997Y145381D01*
X155976Y145447D01*
X155951Y145512D01*
X155923Y145576D01*
X155891Y145638D01*
X155856Y145698D01*
X155817Y145756D01*
X155775Y145811D01*
X155730Y145865D01*
X155682Y145915D01*
X155632Y145963D01*
X155578Y146008D01*
X155523Y146050D01*
X155465Y146089D01*
X155405Y146124D01*
X155343Y146156D01*
X155279Y146184D01*
X155214Y146209D01*
X155148Y146230D01*
X155080Y146248D01*
X155012Y146261D01*
X154943Y146271D01*
X154874Y146277D01*
X154804Y146279D01*
X154734Y146277D01*
X154665Y146271D01*
X154596Y146261D01*
X154528Y146248D01*
X154460Y146230D01*
X154394Y146209D01*
X154329Y146184D01*
X154265Y146156D01*
X154203Y146124D01*
X154143Y146089D01*
X154085Y146050D01*
X154030Y146008D01*
X153976Y145963D01*
X153926Y145915D01*
X153878Y145865D01*
X153833Y145811D01*
X153791Y145756D01*
X153752Y145698D01*
X153717Y145638D01*
X153685Y145576D01*
X153657Y145512D01*
X153632Y145447D01*
X153611Y145381D01*
X153593Y145313D01*
X153580Y145245D01*
X153570Y145176D01*
X153564Y145107D01*
X153562Y145037D01*
X152631Y148761D02*
X152631Y152486D01*
X150768Y150623D02*
X154494Y150623D01*
X153562Y188110D02*
X153562Y189042D01*
X150458Y189042D01*
X150458Y187179D01*
X150460Y187109D01*
X150466Y187040D01*
X150476Y186971D01*
X150489Y186903D01*
X150507Y186835D01*
X150528Y186769D01*
X150553Y186704D01*
X150581Y186640D01*
X150613Y186578D01*
X150648Y186518D01*
X150687Y186460D01*
X150729Y186405D01*
X150774Y186351D01*
X150822Y186301D01*
X150872Y186253D01*
X150926Y186208D01*
X150981Y186166D01*
X151039Y186127D01*
X151099Y186092D01*
X151161Y186060D01*
X151225Y186032D01*
X151290Y186007D01*
X151356Y185986D01*
X151424Y185968D01*
X151492Y185955D01*
X151561Y185945D01*
X151630Y185939D01*
X151700Y185937D01*
X154804Y185937D01*
X154874Y185939D01*
X154943Y185945D01*
X155012Y185955D01*
X155080Y185968D01*
X155148Y185986D01*
X155214Y186007D01*
X155279Y186032D01*
X155343Y186060D01*
X155405Y186092D01*
X155465Y186127D01*
X155523Y186166D01*
X155578Y186208D01*
X155632Y186253D01*
X155682Y186301D01*
X155730Y186351D01*
X155775Y186405D01*
X155817Y186460D01*
X155856Y186518D01*
X155891Y186578D01*
X155923Y186640D01*
X155951Y186704D01*
X155976Y186769D01*
X155997Y186835D01*
X156015Y186903D01*
X156028Y186971D01*
X156038Y187040D01*
X156044Y187109D01*
X156046Y187179D01*
X156046Y189042D01*
X156046Y191789D02*
X150458Y191789D01*
X150458Y194894D02*
X156046Y191789D01*
X156046Y194894D02*
X150458Y194894D01*
X150458Y197642D02*
X156046Y197642D01*
X156046Y199194D01*
X156044Y199270D01*
X156039Y199346D01*
X156029Y199422D01*
X156016Y199497D01*
X155999Y199571D01*
X155979Y199645D01*
X155955Y199717D01*
X155928Y199788D01*
X155897Y199858D01*
X155863Y199926D01*
X155825Y199992D01*
X155784Y200056D01*
X155741Y200119D01*
X155694Y200179D01*
X155644Y200236D01*
X155591Y200291D01*
X155536Y200344D01*
X155479Y200394D01*
X155419Y200441D01*
X155356Y200484D01*
X155292Y200525D01*
X155226Y200563D01*
X155158Y200597D01*
X155088Y200628D01*
X155017Y200655D01*
X154944Y200679D01*
X154871Y200699D01*
X154797Y200716D01*
X154722Y200729D01*
X154646Y200739D01*
X154570Y200744D01*
X154494Y200746D01*
X152010Y200746D01*
X151931Y200744D01*
X151853Y200738D01*
X151775Y200728D01*
X151698Y200714D01*
X151621Y200696D01*
X151545Y200675D01*
X151471Y200649D01*
X151398Y200620D01*
X151327Y200587D01*
X151257Y200551D01*
X151189Y200511D01*
X151123Y200468D01*
X151060Y200421D01*
X150999Y200372D01*
X150941Y200319D01*
X150885Y200263D01*
X150832Y200205D01*
X150783Y200144D01*
X150736Y200081D01*
X150693Y200015D01*
X150653Y199947D01*
X150617Y199878D01*
X150584Y199806D01*
X150555Y199733D01*
X150529Y199659D01*
X150508Y199583D01*
X150490Y199506D01*
X150476Y199429D01*
X150466Y199351D01*
X150460Y199273D01*
X150458Y199194D01*
X150458Y197642D01*
X156046Y256991D02*
X150458Y258853D01*
X156046Y260716D01*
X153562Y263053D02*
X153562Y264606D01*
X153560Y264683D01*
X153554Y264761D01*
X153545Y264837D01*
X153531Y264914D01*
X153514Y264989D01*
X153493Y265063D01*
X153468Y265137D01*
X153440Y265209D01*
X153408Y265279D01*
X153373Y265348D01*
X153334Y265415D01*
X153292Y265480D01*
X153247Y265543D01*
X153199Y265604D01*
X153148Y265662D01*
X153094Y265717D01*
X153037Y265770D01*
X152978Y265819D01*
X152916Y265866D01*
X152852Y265910D01*
X152786Y265950D01*
X152718Y265987D01*
X152648Y266021D01*
X152577Y266051D01*
X152504Y266077D01*
X152430Y266100D01*
X152355Y266119D01*
X152280Y266134D01*
X152203Y266146D01*
X152126Y266154D01*
X152049Y266158D01*
X151971Y266158D01*
X151894Y266154D01*
X151817Y266146D01*
X151740Y266134D01*
X151665Y266119D01*
X151590Y266100D01*
X151516Y266077D01*
X151443Y266051D01*
X151372Y266021D01*
X151302Y265987D01*
X151234Y265950D01*
X151168Y265910D01*
X151104Y265866D01*
X151042Y265819D01*
X150983Y265770D01*
X150926Y265717D01*
X150872Y265662D01*
X150821Y265604D01*
X150773Y265543D01*
X150728Y265480D01*
X150686Y265415D01*
X150647Y265348D01*
X150612Y265279D01*
X150580Y265209D01*
X150552Y265137D01*
X150527Y265063D01*
X150506Y264989D01*
X150489Y264914D01*
X150475Y264837D01*
X150466Y264761D01*
X150460Y264683D01*
X150458Y264606D01*
X150458Y263053D01*
X156046Y263053D01*
X156046Y264606D01*
X156044Y264676D01*
X156038Y264745D01*
X156028Y264814D01*
X156015Y264882D01*
X155997Y264950D01*
X155976Y265016D01*
X155951Y265081D01*
X155923Y265145D01*
X155891Y265207D01*
X155856Y265267D01*
X155817Y265325D01*
X155775Y265380D01*
X155730Y265434D01*
X155682Y265484D01*
X155632Y265532D01*
X155578Y265577D01*
X155523Y265619D01*
X155465Y265658D01*
X155405Y265693D01*
X155343Y265725D01*
X155279Y265753D01*
X155214Y265778D01*
X155148Y265799D01*
X155080Y265817D01*
X155012Y265830D01*
X154943Y265840D01*
X154874Y265846D01*
X154804Y265848D01*
X154734Y265846D01*
X154665Y265840D01*
X154596Y265830D01*
X154528Y265817D01*
X154460Y265799D01*
X154394Y265778D01*
X154329Y265753D01*
X154265Y265725D01*
X154203Y265693D01*
X154143Y265658D01*
X154085Y265619D01*
X154030Y265577D01*
X153976Y265532D01*
X153926Y265484D01*
X153878Y265434D01*
X153833Y265380D01*
X153791Y265325D01*
X153752Y265267D01*
X153717Y265207D01*
X153685Y265145D01*
X153657Y265081D01*
X153632Y265016D01*
X153611Y264950D01*
X153593Y264882D01*
X153580Y264814D01*
X153570Y264745D01*
X153564Y264676D01*
X153562Y264606D01*
X154494Y268274D02*
X152010Y268274D01*
X154494Y268274D02*
X154571Y268276D01*
X154649Y268282D01*
X154725Y268291D01*
X154802Y268305D01*
X154877Y268322D01*
X154951Y268343D01*
X155025Y268368D01*
X155097Y268396D01*
X155167Y268428D01*
X155236Y268463D01*
X155303Y268502D01*
X155368Y268544D01*
X155431Y268589D01*
X155492Y268637D01*
X155550Y268688D01*
X155605Y268742D01*
X155658Y268799D01*
X155707Y268858D01*
X155754Y268920D01*
X155798Y268984D01*
X155838Y269050D01*
X155875Y269118D01*
X155909Y269188D01*
X155939Y269259D01*
X155965Y269332D01*
X155988Y269406D01*
X156007Y269481D01*
X156022Y269556D01*
X156034Y269633D01*
X156042Y269710D01*
X156046Y269787D01*
X156046Y269865D01*
X156042Y269942D01*
X156034Y270019D01*
X156022Y270096D01*
X156007Y270171D01*
X155988Y270246D01*
X155965Y270320D01*
X155939Y270393D01*
X155909Y270464D01*
X155875Y270534D01*
X155838Y270602D01*
X155798Y270668D01*
X155754Y270732D01*
X155707Y270794D01*
X155658Y270853D01*
X155605Y270910D01*
X155550Y270964D01*
X155492Y271015D01*
X155431Y271063D01*
X155368Y271108D01*
X155303Y271150D01*
X155236Y271189D01*
X155167Y271224D01*
X155097Y271256D01*
X155025Y271284D01*
X154951Y271309D01*
X154877Y271330D01*
X154802Y271347D01*
X154725Y271361D01*
X154649Y271370D01*
X154571Y271376D01*
X154494Y271378D01*
X152010Y271378D01*
X151933Y271376D01*
X151855Y271370D01*
X151779Y271361D01*
X151702Y271347D01*
X151627Y271330D01*
X151553Y271309D01*
X151479Y271284D01*
X151407Y271256D01*
X151337Y271224D01*
X151268Y271189D01*
X151201Y271150D01*
X151136Y271108D01*
X151073Y271063D01*
X151012Y271015D01*
X150954Y270964D01*
X150899Y270910D01*
X150846Y270853D01*
X150797Y270794D01*
X150750Y270732D01*
X150706Y270668D01*
X150666Y270602D01*
X150629Y270534D01*
X150595Y270464D01*
X150565Y270393D01*
X150539Y270320D01*
X150516Y270246D01*
X150497Y270171D01*
X150482Y270096D01*
X150470Y270019D01*
X150462Y269942D01*
X150458Y269865D01*
X150458Y269787D01*
X150462Y269710D01*
X150470Y269633D01*
X150482Y269556D01*
X150497Y269481D01*
X150516Y269406D01*
X150539Y269332D01*
X150565Y269259D01*
X150595Y269188D01*
X150629Y269118D01*
X150666Y269050D01*
X150706Y268984D01*
X150750Y268920D01*
X150797Y268858D01*
X150846Y268799D01*
X150899Y268742D01*
X150954Y268688D01*
X151012Y268637D01*
X151073Y268589D01*
X151136Y268544D01*
X151201Y268502D01*
X151268Y268463D01*
X151337Y268428D01*
X151407Y268396D01*
X151479Y268368D01*
X151553Y268343D01*
X151627Y268322D01*
X151702Y268305D01*
X151779Y268291D01*
X151855Y268282D01*
X151933Y268276D01*
X152010Y268274D01*
X152010Y273760D02*
X154494Y273760D01*
X154494Y273761D02*
X154571Y273763D01*
X154649Y273769D01*
X154725Y273778D01*
X154802Y273792D01*
X154877Y273809D01*
X154951Y273830D01*
X155025Y273855D01*
X155097Y273883D01*
X155167Y273915D01*
X155236Y273950D01*
X155303Y273989D01*
X155368Y274031D01*
X155431Y274076D01*
X155492Y274124D01*
X155550Y274175D01*
X155605Y274229D01*
X155658Y274286D01*
X155707Y274345D01*
X155754Y274407D01*
X155798Y274471D01*
X155838Y274537D01*
X155875Y274605D01*
X155909Y274675D01*
X155939Y274746D01*
X155965Y274819D01*
X155988Y274893D01*
X156007Y274968D01*
X156022Y275043D01*
X156034Y275120D01*
X156042Y275197D01*
X156046Y275274D01*
X156046Y275352D01*
X156042Y275429D01*
X156034Y275506D01*
X156022Y275583D01*
X156007Y275658D01*
X155988Y275733D01*
X155965Y275807D01*
X155939Y275880D01*
X155909Y275951D01*
X155875Y276021D01*
X155838Y276089D01*
X155798Y276155D01*
X155754Y276219D01*
X155707Y276281D01*
X155658Y276340D01*
X155605Y276397D01*
X155550Y276451D01*
X155492Y276502D01*
X155431Y276550D01*
X155368Y276595D01*
X155303Y276637D01*
X155236Y276676D01*
X155167Y276711D01*
X155097Y276743D01*
X155025Y276771D01*
X154951Y276796D01*
X154877Y276817D01*
X154802Y276834D01*
X154725Y276848D01*
X154649Y276857D01*
X154571Y276863D01*
X154494Y276865D01*
X152010Y276865D01*
X151933Y276863D01*
X151855Y276857D01*
X151779Y276848D01*
X151702Y276834D01*
X151627Y276817D01*
X151553Y276796D01*
X151479Y276771D01*
X151407Y276743D01*
X151337Y276711D01*
X151268Y276676D01*
X151201Y276637D01*
X151136Y276595D01*
X151073Y276550D01*
X151012Y276502D01*
X150954Y276451D01*
X150899Y276397D01*
X150846Y276340D01*
X150797Y276281D01*
X150750Y276219D01*
X150706Y276155D01*
X150666Y276089D01*
X150629Y276021D01*
X150595Y275951D01*
X150565Y275880D01*
X150539Y275807D01*
X150516Y275733D01*
X150497Y275658D01*
X150482Y275583D01*
X150470Y275506D01*
X150462Y275429D01*
X150458Y275352D01*
X150458Y275274D01*
X150462Y275197D01*
X150470Y275120D01*
X150482Y275043D01*
X150497Y274968D01*
X150516Y274893D01*
X150539Y274819D01*
X150565Y274746D01*
X150595Y274675D01*
X150629Y274605D01*
X150666Y274537D01*
X150706Y274471D01*
X150750Y274407D01*
X150797Y274345D01*
X150846Y274286D01*
X150899Y274229D01*
X150954Y274175D01*
X151012Y274124D01*
X151073Y274076D01*
X151136Y274031D01*
X151201Y273989D01*
X151268Y273950D01*
X151337Y273915D01*
X151407Y273883D01*
X151479Y273855D01*
X151553Y273830D01*
X151627Y273809D01*
X151702Y273792D01*
X151779Y273778D01*
X151855Y273769D01*
X151933Y273763D01*
X152010Y273761D01*
X150458Y280926D02*
X150460Y280996D01*
X150466Y281065D01*
X150476Y281134D01*
X150489Y281202D01*
X150507Y281270D01*
X150528Y281336D01*
X150553Y281401D01*
X150581Y281465D01*
X150613Y281527D01*
X150648Y281587D01*
X150687Y281645D01*
X150729Y281700D01*
X150774Y281754D01*
X150822Y281804D01*
X150872Y281852D01*
X150926Y281897D01*
X150981Y281939D01*
X151039Y281978D01*
X151099Y282013D01*
X151161Y282045D01*
X151225Y282073D01*
X151290Y282098D01*
X151356Y282119D01*
X151424Y282137D01*
X151492Y282150D01*
X151561Y282160D01*
X151630Y282166D01*
X151700Y282168D01*
X150458Y280926D02*
X150460Y280827D01*
X150465Y280729D01*
X150475Y280631D01*
X150488Y280533D01*
X150504Y280436D01*
X150524Y280339D01*
X150548Y280244D01*
X150576Y280149D01*
X150607Y280055D01*
X150641Y279963D01*
X150679Y279872D01*
X150720Y279782D01*
X150765Y279694D01*
X150813Y279608D01*
X150864Y279524D01*
X150918Y279442D01*
X150976Y279361D01*
X151036Y279283D01*
X151099Y279208D01*
X151165Y279134D01*
X151234Y279064D01*
X154804Y279219D02*
X154874Y279221D01*
X154943Y279227D01*
X155012Y279237D01*
X155080Y279250D01*
X155148Y279268D01*
X155214Y279289D01*
X155279Y279314D01*
X155343Y279342D01*
X155405Y279374D01*
X155465Y279409D01*
X155523Y279448D01*
X155578Y279490D01*
X155632Y279535D01*
X155682Y279583D01*
X155730Y279633D01*
X155775Y279687D01*
X155817Y279742D01*
X155856Y279800D01*
X155891Y279860D01*
X155923Y279922D01*
X155951Y279986D01*
X155976Y280051D01*
X155997Y280117D01*
X156015Y280185D01*
X156028Y280253D01*
X156038Y280322D01*
X156044Y280391D01*
X156046Y280461D01*
X156044Y280555D01*
X156038Y280648D01*
X156029Y280741D01*
X156016Y280834D01*
X155999Y280926D01*
X155979Y281017D01*
X155954Y281108D01*
X155927Y281197D01*
X155895Y281285D01*
X155860Y281372D01*
X155822Y281458D01*
X155780Y281541D01*
X155735Y281623D01*
X155687Y281704D01*
X155635Y281782D01*
X155580Y281858D01*
X153718Y279840D02*
X153754Y279781D01*
X153794Y279725D01*
X153837Y279671D01*
X153882Y279619D01*
X153931Y279570D01*
X153982Y279524D01*
X154035Y279481D01*
X154091Y279440D01*
X154149Y279403D01*
X154209Y279368D01*
X154270Y279338D01*
X154333Y279310D01*
X154398Y279286D01*
X154464Y279266D01*
X154531Y279249D01*
X154598Y279236D01*
X154666Y279227D01*
X154735Y279221D01*
X154804Y279219D01*
X152786Y281547D02*
X152750Y281606D01*
X152710Y281662D01*
X152667Y281716D01*
X152622Y281768D01*
X152573Y281817D01*
X152522Y281863D01*
X152469Y281906D01*
X152413Y281947D01*
X152355Y281984D01*
X152295Y282019D01*
X152234Y282049D01*
X152171Y282077D01*
X152106Y282101D01*
X152040Y282121D01*
X151973Y282138D01*
X151906Y282151D01*
X151838Y282160D01*
X151769Y282166D01*
X151700Y282168D01*
X152786Y281547D02*
X153718Y279840D01*
X156046Y285554D02*
X150458Y285554D01*
X156046Y284002D02*
X156046Y287106D01*
D10*
X62000Y266700D02*
X62014Y267878D01*
X62058Y269055D01*
X62130Y270231D01*
X62231Y271405D01*
X62361Y272576D01*
X62520Y273743D01*
X62707Y274906D01*
X62922Y276064D01*
X63166Y277217D01*
X63438Y278363D01*
X63739Y279502D01*
X64067Y280634D01*
X64423Y281757D01*
X64806Y282871D01*
X65216Y283975D01*
X65654Y285069D01*
X66118Y286152D01*
X66609Y287223D01*
X67125Y288281D01*
X67668Y289327D01*
X68236Y290359D01*
X68829Y291377D01*
X69447Y292380D01*
X70089Y293367D01*
X70756Y294339D01*
X71446Y295294D01*
X72159Y296231D01*
X72895Y297151D01*
X73654Y298052D01*
X74434Y298935D01*
X75236Y299798D01*
X76059Y300641D01*
X76902Y301464D01*
X77765Y302266D01*
X78648Y303046D01*
X79549Y303805D01*
X80469Y304541D01*
X81406Y305254D01*
X82361Y305944D01*
X83333Y306611D01*
X84320Y307253D01*
X85323Y307871D01*
X86341Y308464D01*
X87373Y309032D01*
X88419Y309575D01*
X89477Y310091D01*
X90548Y310582D01*
X91631Y311046D01*
X92725Y311484D01*
X93829Y311894D01*
X94943Y312277D01*
X96066Y312633D01*
X97198Y312961D01*
X98337Y313262D01*
X99483Y313534D01*
X100636Y313778D01*
X101794Y313993D01*
X102957Y314180D01*
X104124Y314339D01*
X105295Y314469D01*
X106469Y314570D01*
X107645Y314642D01*
X108822Y314686D01*
X110000Y314700D01*
X111178Y314686D01*
X112355Y314642D01*
X113531Y314570D01*
X114705Y314469D01*
X115876Y314339D01*
X117043Y314180D01*
X118206Y313993D01*
X119364Y313778D01*
X120517Y313534D01*
X121663Y313262D01*
X122802Y312961D01*
X123934Y312633D01*
X125057Y312277D01*
X126171Y311894D01*
X127275Y311484D01*
X128369Y311046D01*
X129452Y310582D01*
X130523Y310091D01*
X131581Y309575D01*
X132627Y309032D01*
X133659Y308464D01*
X134677Y307871D01*
X135680Y307253D01*
X136667Y306611D01*
X137639Y305944D01*
X138594Y305254D01*
X139531Y304541D01*
X140451Y303805D01*
X141352Y303046D01*
X142235Y302266D01*
X143098Y301464D01*
X143941Y300641D01*
X144764Y299798D01*
X145566Y298935D01*
X146346Y298052D01*
X147105Y297151D01*
X147841Y296231D01*
X148554Y295294D01*
X149244Y294339D01*
X149911Y293367D01*
X150553Y292380D01*
X151171Y291377D01*
X151764Y290359D01*
X152332Y289327D01*
X152875Y288281D01*
X153391Y287223D01*
X153882Y286152D01*
X154346Y285069D01*
X154784Y283975D01*
X155194Y282871D01*
X155577Y281757D01*
X155933Y280634D01*
X156261Y279502D01*
X156562Y278363D01*
X156834Y277217D01*
X157078Y276064D01*
X157293Y274906D01*
X157480Y273743D01*
X157639Y272576D01*
X157769Y271405D01*
X157870Y270231D01*
X157942Y269055D01*
X157986Y267878D01*
X158000Y266700D01*
X157986Y265522D01*
X157942Y264345D01*
X157870Y263169D01*
X157769Y261995D01*
X157639Y260824D01*
X157480Y259657D01*
X157293Y258494D01*
X157078Y257336D01*
X156834Y256183D01*
X156562Y255037D01*
X156261Y253898D01*
X155933Y252766D01*
X155577Y251643D01*
X155194Y250529D01*
X154784Y249425D01*
X154346Y248331D01*
X153882Y247248D01*
X153391Y246177D01*
X152875Y245119D01*
X152332Y244073D01*
X151764Y243041D01*
X151171Y242023D01*
X150553Y241020D01*
X149911Y240033D01*
X149244Y239061D01*
X148554Y238106D01*
X147841Y237169D01*
X147105Y236249D01*
X146346Y235348D01*
X145566Y234465D01*
X144764Y233602D01*
X143941Y232759D01*
X143098Y231936D01*
X142235Y231134D01*
X141352Y230354D01*
X140451Y229595D01*
X139531Y228859D01*
X138594Y228146D01*
X137639Y227456D01*
X136667Y226789D01*
X135680Y226147D01*
X134677Y225529D01*
X133659Y224936D01*
X132627Y224368D01*
X131581Y223825D01*
X130523Y223309D01*
X129452Y222818D01*
X128369Y222354D01*
X127275Y221916D01*
X126171Y221506D01*
X125057Y221123D01*
X123934Y220767D01*
X122802Y220439D01*
X121663Y220138D01*
X120517Y219866D01*
X119364Y219622D01*
X118206Y219407D01*
X117043Y219220D01*
X115876Y219061D01*
X114705Y218931D01*
X113531Y218830D01*
X112355Y218758D01*
X111178Y218714D01*
X110000Y218700D01*
X108822Y218714D01*
X107645Y218758D01*
X106469Y218830D01*
X105295Y218931D01*
X104124Y219061D01*
X102957Y219220D01*
X101794Y219407D01*
X100636Y219622D01*
X99483Y219866D01*
X98337Y220138D01*
X97198Y220439D01*
X96066Y220767D01*
X94943Y221123D01*
X93829Y221506D01*
X92725Y221916D01*
X91631Y222354D01*
X90548Y222818D01*
X89477Y223309D01*
X88419Y223825D01*
X87373Y224368D01*
X86341Y224936D01*
X85323Y225529D01*
X84320Y226147D01*
X83333Y226789D01*
X82361Y227456D01*
X81406Y228146D01*
X80469Y228859D01*
X79549Y229595D01*
X78648Y230354D01*
X77765Y231134D01*
X76902Y231936D01*
X76059Y232759D01*
X75236Y233602D01*
X74434Y234465D01*
X73654Y235348D01*
X72895Y236249D01*
X72159Y237169D01*
X71446Y238106D01*
X70756Y239061D01*
X70089Y240033D01*
X69447Y241020D01*
X68829Y242023D01*
X68236Y243041D01*
X67668Y244073D01*
X67125Y245119D01*
X66609Y246177D01*
X66118Y247248D01*
X65654Y248331D01*
X65216Y249425D01*
X64806Y250529D01*
X64423Y251643D01*
X64067Y252766D01*
X63739Y253898D01*
X63438Y255037D01*
X63166Y256183D01*
X62922Y257336D01*
X62707Y258494D01*
X62520Y259657D01*
X62361Y260824D01*
X62231Y261995D01*
X62130Y263169D01*
X62058Y264345D01*
X62014Y265522D01*
X62000Y266700D01*
X122700Y292100D02*
X148100Y292100D01*
X135400Y304800D02*
X135400Y279400D01*
X148100Y241300D02*
X122700Y241300D01*
D13*
X148968Y211162D02*
X151579Y211162D01*
X148968Y211163D02*
X148867Y211161D01*
X148766Y211155D01*
X148665Y211145D01*
X148565Y211132D01*
X148465Y211114D01*
X148366Y211093D01*
X148268Y211067D01*
X148171Y211038D01*
X148075Y211006D01*
X147981Y210969D01*
X147888Y210929D01*
X147796Y210885D01*
X147707Y210838D01*
X147619Y210787D01*
X147533Y210733D01*
X147450Y210676D01*
X147368Y210616D01*
X147290Y210552D01*
X147213Y210486D01*
X147140Y210416D01*
X147069Y210344D01*
X147001Y210269D01*
X146936Y210191D01*
X146874Y210111D01*
X146815Y210029D01*
X146759Y209944D01*
X146707Y209858D01*
X146658Y209769D01*
X146612Y209678D01*
X146571Y209586D01*
X146532Y209492D01*
X146498Y209397D01*
X146467Y209301D01*
X146440Y209203D01*
X146416Y209105D01*
X146397Y209005D01*
X146381Y208905D01*
X146369Y208805D01*
X146361Y208704D01*
X146357Y208603D01*
X146357Y208501D01*
X146361Y208400D01*
X146369Y208299D01*
X146381Y208199D01*
X146397Y208099D01*
X146416Y207999D01*
X146440Y207901D01*
X146467Y207803D01*
X146498Y207707D01*
X146532Y207612D01*
X146571Y207518D01*
X146612Y207426D01*
X146658Y207335D01*
X146707Y207247D01*
X146759Y207160D01*
X146815Y207075D01*
X146874Y206993D01*
X146936Y206913D01*
X147001Y206835D01*
X147069Y206760D01*
X147140Y206688D01*
X147213Y206618D01*
X147290Y206552D01*
X147368Y206488D01*
X147450Y206428D01*
X147533Y206371D01*
X147619Y206317D01*
X147707Y206266D01*
X147796Y206219D01*
X147888Y206175D01*
X147981Y206135D01*
X148075Y206098D01*
X148171Y206066D01*
X148268Y206037D01*
X148366Y206011D01*
X148465Y205990D01*
X148565Y205972D01*
X148665Y205959D01*
X148766Y205949D01*
X148867Y205943D01*
X148968Y205941D01*
X151579Y205941D01*
X151579Y215339D01*
X148968Y215339D01*
X148878Y215337D01*
X148789Y215331D01*
X148699Y215322D01*
X148610Y215308D01*
X148522Y215291D01*
X148435Y215270D01*
X148348Y215245D01*
X148263Y215216D01*
X148179Y215184D01*
X148097Y215149D01*
X148016Y215109D01*
X147937Y215067D01*
X147860Y215021D01*
X147785Y214971D01*
X147712Y214919D01*
X147641Y214863D01*
X147573Y214805D01*
X147508Y214743D01*
X147445Y214679D01*
X147385Y214612D01*
X147328Y214543D01*
X147274Y214471D01*
X147223Y214397D01*
X147175Y214321D01*
X147131Y214243D01*
X147090Y214163D01*
X147052Y214081D01*
X147018Y213998D01*
X146988Y213913D01*
X146961Y213827D01*
X146938Y213741D01*
X146919Y213653D01*
X146904Y213564D01*
X146892Y213475D01*
X146884Y213386D01*
X146880Y213296D01*
X146880Y213206D01*
X146884Y213116D01*
X146892Y213027D01*
X146904Y212938D01*
X146919Y212849D01*
X146938Y212761D01*
X146961Y212675D01*
X146988Y212589D01*
X147018Y212504D01*
X147052Y212421D01*
X147090Y212339D01*
X147131Y212259D01*
X147175Y212181D01*
X147223Y212105D01*
X147274Y212031D01*
X147328Y211959D01*
X147385Y211890D01*
X147445Y211823D01*
X147508Y211759D01*
X147573Y211697D01*
X147641Y211639D01*
X147712Y211583D01*
X147785Y211531D01*
X147860Y211481D01*
X147937Y211435D01*
X148016Y211393D01*
X148097Y211353D01*
X148179Y211318D01*
X148263Y211286D01*
X148348Y211257D01*
X148435Y211232D01*
X148522Y211211D01*
X148610Y211194D01*
X148699Y211180D01*
X148789Y211171D01*
X148878Y211165D01*
X148968Y211163D01*
X142566Y208552D02*
X142566Y215339D01*
X142567Y208552D02*
X142565Y208451D01*
X142559Y208350D01*
X142549Y208249D01*
X142536Y208149D01*
X142518Y208049D01*
X142497Y207950D01*
X142471Y207852D01*
X142442Y207755D01*
X142410Y207659D01*
X142373Y207565D01*
X142333Y207472D01*
X142289Y207380D01*
X142242Y207291D01*
X142191Y207203D01*
X142137Y207117D01*
X142080Y207034D01*
X142020Y206952D01*
X141956Y206874D01*
X141890Y206797D01*
X141820Y206724D01*
X141748Y206653D01*
X141673Y206585D01*
X141595Y206520D01*
X141515Y206458D01*
X141433Y206399D01*
X141348Y206343D01*
X141261Y206291D01*
X141173Y206242D01*
X141082Y206196D01*
X140990Y206155D01*
X140896Y206116D01*
X140801Y206082D01*
X140705Y206051D01*
X140607Y206024D01*
X140509Y206000D01*
X140409Y205981D01*
X140309Y205965D01*
X140209Y205953D01*
X140108Y205945D01*
X140007Y205941D01*
X139905Y205941D01*
X139804Y205945D01*
X139703Y205953D01*
X139603Y205965D01*
X139503Y205981D01*
X139403Y206000D01*
X139305Y206024D01*
X139207Y206051D01*
X139111Y206082D01*
X139016Y206116D01*
X138922Y206155D01*
X138830Y206196D01*
X138739Y206242D01*
X138651Y206291D01*
X138564Y206343D01*
X138479Y206399D01*
X138397Y206458D01*
X138317Y206520D01*
X138239Y206585D01*
X138164Y206653D01*
X138092Y206724D01*
X138022Y206797D01*
X137956Y206874D01*
X137892Y206952D01*
X137832Y207034D01*
X137775Y207117D01*
X137721Y207203D01*
X137670Y207291D01*
X137623Y207380D01*
X137579Y207472D01*
X137539Y207565D01*
X137502Y207659D01*
X137470Y207755D01*
X137441Y207852D01*
X137415Y207950D01*
X137394Y208049D01*
X137376Y208149D01*
X137363Y208249D01*
X137353Y208350D01*
X137347Y208451D01*
X137345Y208552D01*
X137345Y215339D01*
X133422Y215339D02*
X128201Y215339D01*
X133422Y205941D01*
X128201Y205941D01*
X124888Y215339D02*
X119667Y215339D01*
X124888Y205941D01*
X119667Y205941D01*
X115726Y205941D02*
X111550Y205941D01*
X115726Y205941D02*
X115726Y215339D01*
X111550Y215339D01*
X112594Y211162D02*
X115726Y211162D01*
X107762Y215339D02*
X107762Y205941D01*
X107762Y215339D02*
X105152Y215339D01*
X105051Y215337D01*
X104950Y215331D01*
X104849Y215321D01*
X104749Y215308D01*
X104649Y215290D01*
X104550Y215269D01*
X104452Y215243D01*
X104355Y215214D01*
X104259Y215182D01*
X104165Y215145D01*
X104072Y215105D01*
X103980Y215061D01*
X103891Y215014D01*
X103803Y214963D01*
X103717Y214909D01*
X103634Y214852D01*
X103552Y214792D01*
X103474Y214728D01*
X103397Y214662D01*
X103324Y214592D01*
X103253Y214520D01*
X103185Y214445D01*
X103120Y214367D01*
X103058Y214287D01*
X102999Y214205D01*
X102943Y214120D01*
X102891Y214034D01*
X102842Y213945D01*
X102796Y213854D01*
X102755Y213762D01*
X102716Y213668D01*
X102682Y213573D01*
X102651Y213477D01*
X102624Y213379D01*
X102600Y213281D01*
X102581Y213181D01*
X102565Y213081D01*
X102553Y212981D01*
X102545Y212880D01*
X102541Y212779D01*
X102541Y212677D01*
X102545Y212576D01*
X102553Y212475D01*
X102565Y212375D01*
X102581Y212275D01*
X102600Y212175D01*
X102624Y212077D01*
X102651Y211979D01*
X102682Y211883D01*
X102716Y211788D01*
X102755Y211694D01*
X102796Y211602D01*
X102842Y211511D01*
X102891Y211423D01*
X102943Y211336D01*
X102999Y211251D01*
X103058Y211169D01*
X103120Y211089D01*
X103185Y211011D01*
X103253Y210936D01*
X103324Y210864D01*
X103397Y210794D01*
X103474Y210728D01*
X103552Y210664D01*
X103634Y210604D01*
X103717Y210547D01*
X103803Y210493D01*
X103891Y210442D01*
X103980Y210395D01*
X104072Y210351D01*
X104165Y210311D01*
X104259Y210274D01*
X104355Y210242D01*
X104452Y210213D01*
X104550Y210187D01*
X104649Y210166D01*
X104749Y210148D01*
X104849Y210135D01*
X104950Y210125D01*
X105051Y210119D01*
X105152Y210117D01*
X105152Y210118D02*
X107762Y210118D01*
X104629Y210118D02*
X102541Y205941D01*
X51301Y200941D02*
X51301Y198853D01*
X51303Y198764D01*
X51309Y198676D01*
X51318Y198588D01*
X51331Y198500D01*
X51348Y198413D01*
X51368Y198327D01*
X51393Y198242D01*
X51420Y198157D01*
X51452Y198074D01*
X51486Y197993D01*
X51525Y197913D01*
X51566Y197835D01*
X51611Y197758D01*
X51659Y197684D01*
X51710Y197611D01*
X51764Y197541D01*
X51822Y197474D01*
X51882Y197408D01*
X51944Y197346D01*
X52010Y197286D01*
X52077Y197228D01*
X52147Y197174D01*
X52220Y197123D01*
X52294Y197075D01*
X52371Y197030D01*
X52449Y196989D01*
X52529Y196950D01*
X52610Y196916D01*
X52693Y196884D01*
X52778Y196857D01*
X52863Y196832D01*
X52949Y196812D01*
X53036Y196795D01*
X53124Y196782D01*
X53212Y196773D01*
X53300Y196767D01*
X53389Y196765D01*
X58611Y196765D01*
X58702Y196767D01*
X58793Y196773D01*
X58884Y196783D01*
X58974Y196797D01*
X59063Y196814D01*
X59151Y196836D01*
X59239Y196862D01*
X59325Y196891D01*
X59410Y196924D01*
X59493Y196961D01*
X59575Y197001D01*
X59655Y197045D01*
X59733Y197092D01*
X59809Y197143D01*
X59882Y197196D01*
X59953Y197253D01*
X60022Y197314D01*
X60087Y197377D01*
X60150Y197442D01*
X60210Y197511D01*
X60268Y197582D01*
X60321Y197655D01*
X60372Y197731D01*
X60419Y197809D01*
X60463Y197889D01*
X60503Y197971D01*
X60540Y198054D01*
X60573Y198139D01*
X60602Y198225D01*
X60628Y198313D01*
X60650Y198401D01*
X60667Y198490D01*
X60681Y198580D01*
X60691Y198671D01*
X60697Y198762D01*
X60699Y198853D01*
X60699Y200941D01*
X60699Y204803D02*
X51301Y204803D01*
X55478Y207935D02*
X60699Y204803D01*
X55478Y207935D02*
X60699Y211068D01*
X51301Y211068D01*
X51301Y216165D02*
X60699Y216165D01*
X51301Y215121D02*
X51301Y217209D01*
X60699Y217209D02*
X60699Y215121D01*
X54956Y220957D02*
X54956Y227222D01*
X55478Y233321D02*
X55478Y236454D01*
X55478Y233321D02*
X55480Y233232D01*
X55486Y233144D01*
X55495Y233056D01*
X55508Y232968D01*
X55525Y232881D01*
X55545Y232795D01*
X55570Y232710D01*
X55597Y232625D01*
X55629Y232542D01*
X55663Y232461D01*
X55702Y232381D01*
X55743Y232303D01*
X55788Y232226D01*
X55836Y232152D01*
X55887Y232079D01*
X55941Y232009D01*
X55999Y231942D01*
X56059Y231876D01*
X56121Y231814D01*
X56187Y231754D01*
X56254Y231696D01*
X56324Y231642D01*
X56397Y231591D01*
X56471Y231543D01*
X56548Y231498D01*
X56626Y231457D01*
X56706Y231418D01*
X56787Y231384D01*
X56870Y231352D01*
X56955Y231325D01*
X57040Y231300D01*
X57126Y231280D01*
X57213Y231263D01*
X57301Y231250D01*
X57389Y231241D01*
X57477Y231235D01*
X57566Y231233D01*
X58088Y231233D01*
X58088Y231232D02*
X58189Y231234D01*
X58290Y231240D01*
X58391Y231250D01*
X58491Y231263D01*
X58591Y231281D01*
X58690Y231302D01*
X58788Y231328D01*
X58885Y231357D01*
X58981Y231389D01*
X59075Y231426D01*
X59168Y231466D01*
X59260Y231510D01*
X59349Y231557D01*
X59437Y231608D01*
X59523Y231662D01*
X59606Y231719D01*
X59688Y231779D01*
X59766Y231843D01*
X59843Y231909D01*
X59916Y231979D01*
X59987Y232051D01*
X60055Y232126D01*
X60120Y232204D01*
X60182Y232284D01*
X60241Y232366D01*
X60297Y232451D01*
X60349Y232537D01*
X60398Y232626D01*
X60444Y232717D01*
X60485Y232809D01*
X60524Y232903D01*
X60558Y232998D01*
X60589Y233094D01*
X60616Y233192D01*
X60640Y233290D01*
X60659Y233390D01*
X60675Y233490D01*
X60687Y233590D01*
X60695Y233691D01*
X60699Y233792D01*
X60699Y233894D01*
X60695Y233995D01*
X60687Y234096D01*
X60675Y234196D01*
X60659Y234296D01*
X60640Y234396D01*
X60616Y234494D01*
X60589Y234592D01*
X60558Y234688D01*
X60524Y234783D01*
X60485Y234877D01*
X60444Y234969D01*
X60398Y235060D01*
X60349Y235148D01*
X60297Y235235D01*
X60241Y235320D01*
X60182Y235402D01*
X60120Y235482D01*
X60055Y235560D01*
X59987Y235635D01*
X59916Y235707D01*
X59843Y235777D01*
X59766Y235843D01*
X59688Y235907D01*
X59606Y235967D01*
X59523Y236024D01*
X59437Y236078D01*
X59349Y236129D01*
X59260Y236176D01*
X59168Y236220D01*
X59075Y236260D01*
X58981Y236297D01*
X58885Y236329D01*
X58788Y236358D01*
X58690Y236384D01*
X58591Y236405D01*
X58491Y236423D01*
X58391Y236436D01*
X58290Y236446D01*
X58189Y236452D01*
X58088Y236454D01*
X55478Y236454D01*
X55352Y236452D01*
X55226Y236446D01*
X55100Y236437D01*
X54975Y236424D01*
X54850Y236406D01*
X54725Y236386D01*
X54601Y236361D01*
X54478Y236333D01*
X54356Y236301D01*
X54235Y236265D01*
X54115Y236226D01*
X53997Y236183D01*
X53880Y236136D01*
X53764Y236086D01*
X53649Y236032D01*
X53537Y235976D01*
X53426Y235915D01*
X53317Y235852D01*
X53210Y235785D01*
X53105Y235715D01*
X53002Y235641D01*
X52902Y235565D01*
X52804Y235486D01*
X52708Y235404D01*
X52615Y235318D01*
X52524Y235231D01*
X52437Y235140D01*
X52351Y235047D01*
X52269Y234951D01*
X52190Y234853D01*
X52114Y234753D01*
X52040Y234650D01*
X51970Y234545D01*
X51903Y234438D01*
X51840Y234329D01*
X51779Y234218D01*
X51723Y234106D01*
X51669Y233991D01*
X51619Y233875D01*
X51572Y233758D01*
X51529Y233640D01*
X51490Y233520D01*
X51454Y233399D01*
X51422Y233277D01*
X51394Y233154D01*
X51369Y233030D01*
X51349Y232905D01*
X51331Y232780D01*
X51318Y232655D01*
X51309Y232529D01*
X51303Y232403D01*
X51301Y232277D01*
X56522Y240377D02*
X56522Y243509D01*
X56520Y243598D01*
X56514Y243686D01*
X56505Y243774D01*
X56492Y243862D01*
X56475Y243949D01*
X56455Y244035D01*
X56430Y244120D01*
X56403Y244205D01*
X56371Y244288D01*
X56337Y244369D01*
X56298Y244449D01*
X56257Y244527D01*
X56212Y244604D01*
X56164Y244678D01*
X56113Y244751D01*
X56059Y244821D01*
X56001Y244888D01*
X55941Y244954D01*
X55879Y245016D01*
X55813Y245076D01*
X55746Y245134D01*
X55676Y245188D01*
X55603Y245239D01*
X55529Y245287D01*
X55452Y245332D01*
X55374Y245373D01*
X55294Y245412D01*
X55213Y245446D01*
X55130Y245478D01*
X55045Y245505D01*
X54960Y245530D01*
X54874Y245550D01*
X54787Y245567D01*
X54699Y245580D01*
X54611Y245589D01*
X54523Y245595D01*
X54434Y245597D01*
X54434Y245598D02*
X53912Y245598D01*
X53811Y245596D01*
X53710Y245590D01*
X53609Y245580D01*
X53509Y245567D01*
X53409Y245549D01*
X53310Y245528D01*
X53212Y245502D01*
X53115Y245473D01*
X53019Y245441D01*
X52925Y245404D01*
X52832Y245364D01*
X52740Y245320D01*
X52651Y245273D01*
X52563Y245222D01*
X52477Y245168D01*
X52394Y245111D01*
X52312Y245051D01*
X52234Y244987D01*
X52157Y244921D01*
X52084Y244851D01*
X52013Y244779D01*
X51945Y244704D01*
X51880Y244626D01*
X51818Y244546D01*
X51759Y244464D01*
X51703Y244379D01*
X51651Y244293D01*
X51602Y244204D01*
X51556Y244113D01*
X51515Y244021D01*
X51476Y243927D01*
X51442Y243832D01*
X51411Y243736D01*
X51384Y243638D01*
X51360Y243540D01*
X51341Y243440D01*
X51325Y243340D01*
X51313Y243240D01*
X51305Y243139D01*
X51301Y243038D01*
X51301Y242936D01*
X51305Y242835D01*
X51313Y242734D01*
X51325Y242634D01*
X51341Y242534D01*
X51360Y242434D01*
X51384Y242336D01*
X51411Y242238D01*
X51442Y242142D01*
X51476Y242047D01*
X51515Y241953D01*
X51556Y241861D01*
X51602Y241770D01*
X51651Y241682D01*
X51703Y241595D01*
X51759Y241510D01*
X51818Y241428D01*
X51880Y241348D01*
X51945Y241270D01*
X52013Y241195D01*
X52084Y241123D01*
X52157Y241053D01*
X52234Y240987D01*
X52312Y240923D01*
X52394Y240863D01*
X52477Y240806D01*
X52563Y240752D01*
X52651Y240701D01*
X52740Y240654D01*
X52832Y240610D01*
X52925Y240570D01*
X53019Y240533D01*
X53115Y240501D01*
X53212Y240472D01*
X53310Y240446D01*
X53409Y240425D01*
X53509Y240407D01*
X53609Y240394D01*
X53710Y240384D01*
X53811Y240378D01*
X53912Y240376D01*
X53912Y240377D02*
X56522Y240377D01*
X56522Y240376D02*
X56651Y240378D01*
X56779Y240384D01*
X56907Y240394D01*
X57035Y240408D01*
X57163Y240425D01*
X57290Y240447D01*
X57416Y240473D01*
X57541Y240502D01*
X57665Y240535D01*
X57788Y240573D01*
X57910Y240613D01*
X58031Y240658D01*
X58150Y240706D01*
X58268Y240758D01*
X58384Y240814D01*
X58498Y240873D01*
X58610Y240936D01*
X58721Y241002D01*
X58829Y241071D01*
X58935Y241144D01*
X59039Y241220D01*
X59141Y241299D01*
X59240Y241381D01*
X59336Y241466D01*
X59430Y241554D01*
X59521Y241645D01*
X59609Y241739D01*
X59694Y241835D01*
X59776Y241934D01*
X59855Y242036D01*
X59931Y242140D01*
X60004Y242246D01*
X60073Y242354D01*
X60139Y242464D01*
X60202Y242577D01*
X60261Y242691D01*
X60317Y242807D01*
X60369Y242925D01*
X60417Y243044D01*
X60462Y243165D01*
X60502Y243287D01*
X60540Y243410D01*
X60573Y243534D01*
X60602Y243659D01*
X60628Y243785D01*
X60650Y243912D01*
X60667Y244040D01*
X60681Y244168D01*
X60691Y244296D01*
X60697Y244424D01*
X60699Y244553D01*
X59394Y250303D02*
X59227Y250224D01*
X59058Y250149D01*
X58887Y250078D01*
X58715Y250011D01*
X58541Y249949D01*
X58365Y249890D01*
X58189Y249836D01*
X58011Y249786D01*
X57831Y249740D01*
X57651Y249698D01*
X57470Y249661D01*
X57288Y249628D01*
X57106Y249599D01*
X56922Y249575D01*
X56738Y249555D01*
X56554Y249540D01*
X56370Y249529D01*
X56185Y249522D01*
X56000Y249520D01*
X59394Y250303D02*
X59474Y250333D01*
X59553Y250366D01*
X59630Y250403D01*
X59706Y250443D01*
X59780Y250486D01*
X59852Y250532D01*
X59921Y250582D01*
X59989Y250634D01*
X60054Y250690D01*
X60117Y250748D01*
X60176Y250810D01*
X60234Y250873D01*
X60288Y250940D01*
X60339Y251008D01*
X60387Y251079D01*
X60432Y251152D01*
X60474Y251226D01*
X60512Y251303D01*
X60547Y251381D01*
X60579Y251460D01*
X60607Y251541D01*
X60631Y251623D01*
X60652Y251707D01*
X60669Y251790D01*
X60682Y251875D01*
X60691Y251960D01*
X60697Y252045D01*
X60699Y252131D01*
X60697Y252217D01*
X60691Y252302D01*
X60682Y252387D01*
X60669Y252472D01*
X60652Y252555D01*
X60631Y252639D01*
X60607Y252721D01*
X60579Y252802D01*
X60547Y252881D01*
X60512Y252959D01*
X60474Y253036D01*
X60432Y253110D01*
X60387Y253183D01*
X60339Y253254D01*
X60288Y253322D01*
X60234Y253389D01*
X60176Y253452D01*
X60117Y253514D01*
X60054Y253572D01*
X59989Y253628D01*
X59921Y253680D01*
X59852Y253730D01*
X59780Y253776D01*
X59706Y253819D01*
X59630Y253859D01*
X59553Y253896D01*
X59474Y253929D01*
X59394Y253959D01*
X59227Y254038D01*
X59058Y254113D01*
X58887Y254184D01*
X58715Y254251D01*
X58541Y254313D01*
X58365Y254372D01*
X58189Y254426D01*
X58011Y254476D01*
X57831Y254522D01*
X57651Y254564D01*
X57470Y254601D01*
X57288Y254634D01*
X57106Y254663D01*
X56922Y254687D01*
X56738Y254707D01*
X56554Y254722D01*
X56370Y254733D01*
X56185Y254740D01*
X56000Y254742D01*
X56000Y249520D02*
X55815Y249522D01*
X55630Y249529D01*
X55446Y249540D01*
X55262Y249555D01*
X55078Y249575D01*
X54894Y249599D01*
X54712Y249628D01*
X54530Y249661D01*
X54349Y249698D01*
X54169Y249740D01*
X53989Y249786D01*
X53811Y249836D01*
X53635Y249890D01*
X53459Y249949D01*
X53285Y250011D01*
X53113Y250078D01*
X52942Y250149D01*
X52773Y250224D01*
X52606Y250303D01*
X52526Y250333D01*
X52447Y250366D01*
X52370Y250403D01*
X52294Y250443D01*
X52220Y250486D01*
X52148Y250532D01*
X52079Y250582D01*
X52011Y250635D01*
X51946Y250690D01*
X51883Y250749D01*
X51824Y250810D01*
X51766Y250873D01*
X51712Y250940D01*
X51661Y251008D01*
X51613Y251079D01*
X51568Y251152D01*
X51526Y251226D01*
X51488Y251303D01*
X51453Y251381D01*
X51421Y251460D01*
X51393Y251541D01*
X51369Y251623D01*
X51348Y251707D01*
X51331Y251790D01*
X51318Y251875D01*
X51309Y251960D01*
X51303Y252045D01*
X51301Y252131D01*
X52606Y253959D02*
X52773Y254038D01*
X52942Y254113D01*
X53113Y254184D01*
X53285Y254251D01*
X53459Y254313D01*
X53635Y254372D01*
X53811Y254426D01*
X53989Y254476D01*
X54169Y254522D01*
X54349Y254564D01*
X54530Y254601D01*
X54712Y254634D01*
X54894Y254663D01*
X55078Y254687D01*
X55262Y254707D01*
X55446Y254722D01*
X55630Y254733D01*
X55815Y254740D01*
X56000Y254742D01*
X52606Y253959D02*
X52526Y253929D01*
X52447Y253896D01*
X52370Y253859D01*
X52294Y253819D01*
X52220Y253776D01*
X52148Y253730D01*
X52079Y253680D01*
X52011Y253628D01*
X51946Y253572D01*
X51883Y253514D01*
X51824Y253452D01*
X51766Y253389D01*
X51712Y253322D01*
X51661Y253254D01*
X51613Y253183D01*
X51568Y253110D01*
X51526Y253036D01*
X51488Y252959D01*
X51453Y252881D01*
X51421Y252802D01*
X51393Y252721D01*
X51369Y252639D01*
X51348Y252555D01*
X51331Y252472D01*
X51318Y252387D01*
X51309Y252302D01*
X51303Y252217D01*
X51301Y252131D01*
X53389Y250043D02*
X58611Y254220D01*
X51301Y258664D02*
X51301Y261797D01*
X51303Y261886D01*
X51309Y261974D01*
X51318Y262062D01*
X51331Y262150D01*
X51348Y262237D01*
X51368Y262323D01*
X51393Y262408D01*
X51420Y262493D01*
X51452Y262576D01*
X51486Y262657D01*
X51525Y262737D01*
X51566Y262815D01*
X51611Y262892D01*
X51659Y262966D01*
X51710Y263039D01*
X51764Y263109D01*
X51822Y263176D01*
X51882Y263242D01*
X51944Y263304D01*
X52010Y263364D01*
X52077Y263422D01*
X52147Y263476D01*
X52220Y263527D01*
X52294Y263575D01*
X52371Y263620D01*
X52449Y263661D01*
X52529Y263700D01*
X52610Y263734D01*
X52693Y263766D01*
X52778Y263793D01*
X52863Y263818D01*
X52949Y263838D01*
X53036Y263855D01*
X53124Y263868D01*
X53212Y263877D01*
X53300Y263883D01*
X53389Y263885D01*
X53389Y263886D02*
X54434Y263886D01*
X54434Y263885D02*
X54523Y263883D01*
X54611Y263877D01*
X54699Y263868D01*
X54787Y263855D01*
X54874Y263838D01*
X54960Y263818D01*
X55045Y263793D01*
X55130Y263766D01*
X55213Y263734D01*
X55294Y263700D01*
X55374Y263661D01*
X55452Y263620D01*
X55529Y263575D01*
X55603Y263527D01*
X55676Y263476D01*
X55746Y263422D01*
X55813Y263364D01*
X55879Y263304D01*
X55941Y263242D01*
X56001Y263176D01*
X56059Y263109D01*
X56113Y263039D01*
X56164Y262966D01*
X56212Y262892D01*
X56257Y262815D01*
X56298Y262737D01*
X56337Y262657D01*
X56371Y262576D01*
X56403Y262493D01*
X56430Y262408D01*
X56455Y262323D01*
X56475Y262237D01*
X56492Y262150D01*
X56505Y262062D01*
X56514Y261974D01*
X56520Y261886D01*
X56522Y261797D01*
X56522Y258664D01*
X60699Y258664D01*
X60699Y263886D01*
X54956Y267896D02*
X54956Y274161D01*
X56000Y278171D02*
X56185Y278173D01*
X56370Y278180D01*
X56554Y278191D01*
X56738Y278206D01*
X56922Y278226D01*
X57106Y278250D01*
X57288Y278279D01*
X57470Y278312D01*
X57651Y278349D01*
X57831Y278391D01*
X58011Y278437D01*
X58189Y278487D01*
X58365Y278541D01*
X58541Y278600D01*
X58715Y278662D01*
X58887Y278729D01*
X59058Y278800D01*
X59227Y278875D01*
X59394Y278954D01*
X59474Y278984D01*
X59553Y279017D01*
X59630Y279054D01*
X59706Y279094D01*
X59780Y279137D01*
X59852Y279183D01*
X59921Y279233D01*
X59989Y279285D01*
X60054Y279341D01*
X60117Y279399D01*
X60176Y279461D01*
X60234Y279524D01*
X60288Y279591D01*
X60339Y279659D01*
X60387Y279730D01*
X60432Y279803D01*
X60474Y279877D01*
X60512Y279954D01*
X60547Y280032D01*
X60579Y280111D01*
X60607Y280192D01*
X60631Y280274D01*
X60652Y280358D01*
X60669Y280441D01*
X60682Y280526D01*
X60691Y280611D01*
X60697Y280696D01*
X60699Y280782D01*
X60697Y280868D01*
X60691Y280953D01*
X60682Y281038D01*
X60669Y281123D01*
X60652Y281206D01*
X60631Y281290D01*
X60607Y281372D01*
X60579Y281453D01*
X60547Y281532D01*
X60512Y281610D01*
X60474Y281687D01*
X60432Y281761D01*
X60387Y281834D01*
X60339Y281905D01*
X60288Y281973D01*
X60234Y282040D01*
X60176Y282103D01*
X60117Y282165D01*
X60054Y282223D01*
X59989Y282279D01*
X59921Y282331D01*
X59852Y282381D01*
X59780Y282427D01*
X59706Y282470D01*
X59630Y282510D01*
X59553Y282547D01*
X59474Y282580D01*
X59394Y282610D01*
X59227Y282689D01*
X59058Y282764D01*
X58887Y282835D01*
X58715Y282902D01*
X58541Y282964D01*
X58365Y283023D01*
X58189Y283077D01*
X58011Y283127D01*
X57831Y283173D01*
X57651Y283215D01*
X57470Y283252D01*
X57288Y283285D01*
X57106Y283314D01*
X56922Y283338D01*
X56738Y283358D01*
X56554Y283373D01*
X56370Y283384D01*
X56185Y283391D01*
X56000Y283393D01*
X56000Y278171D02*
X55815Y278173D01*
X55630Y278180D01*
X55446Y278191D01*
X55262Y278206D01*
X55078Y278226D01*
X54894Y278250D01*
X54712Y278279D01*
X54530Y278312D01*
X54349Y278349D01*
X54169Y278391D01*
X53989Y278437D01*
X53811Y278487D01*
X53635Y278541D01*
X53459Y278600D01*
X53285Y278662D01*
X53113Y278729D01*
X52942Y278800D01*
X52773Y278875D01*
X52606Y278954D01*
X52526Y278984D01*
X52447Y279017D01*
X52370Y279054D01*
X52294Y279094D01*
X52220Y279137D01*
X52148Y279183D01*
X52079Y279233D01*
X52011Y279286D01*
X51946Y279341D01*
X51883Y279400D01*
X51824Y279461D01*
X51766Y279524D01*
X51712Y279591D01*
X51661Y279659D01*
X51613Y279730D01*
X51568Y279803D01*
X51526Y279877D01*
X51488Y279954D01*
X51453Y280032D01*
X51421Y280111D01*
X51393Y280192D01*
X51369Y280274D01*
X51348Y280358D01*
X51331Y280441D01*
X51318Y280526D01*
X51309Y280611D01*
X51303Y280696D01*
X51301Y280782D01*
X52606Y282610D02*
X52773Y282689D01*
X52942Y282764D01*
X53113Y282835D01*
X53285Y282902D01*
X53459Y282964D01*
X53635Y283023D01*
X53811Y283077D01*
X53989Y283127D01*
X54169Y283173D01*
X54349Y283215D01*
X54530Y283252D01*
X54712Y283285D01*
X54894Y283314D01*
X55078Y283338D01*
X55262Y283358D01*
X55446Y283373D01*
X55630Y283384D01*
X55815Y283391D01*
X56000Y283393D01*
X52606Y282610D02*
X52526Y282580D01*
X52447Y282547D01*
X52370Y282510D01*
X52294Y282470D01*
X52220Y282427D01*
X52148Y282381D01*
X52079Y282331D01*
X52011Y282279D01*
X51946Y282223D01*
X51883Y282165D01*
X51824Y282103D01*
X51766Y282040D01*
X51712Y281973D01*
X51661Y281905D01*
X51613Y281834D01*
X51568Y281761D01*
X51526Y281687D01*
X51488Y281610D01*
X51453Y281532D01*
X51421Y281453D01*
X51393Y281372D01*
X51369Y281290D01*
X51348Y281206D01*
X51331Y281123D01*
X51318Y281038D01*
X51309Y280953D01*
X51303Y280868D01*
X51301Y280782D01*
X53389Y278694D02*
X58611Y282871D01*
X51301Y287316D02*
X51301Y290448D01*
X51303Y290537D01*
X51309Y290625D01*
X51318Y290713D01*
X51331Y290801D01*
X51348Y290888D01*
X51368Y290974D01*
X51393Y291059D01*
X51420Y291144D01*
X51452Y291227D01*
X51486Y291308D01*
X51525Y291388D01*
X51566Y291466D01*
X51611Y291543D01*
X51659Y291617D01*
X51710Y291690D01*
X51764Y291760D01*
X51822Y291827D01*
X51882Y291893D01*
X51944Y291955D01*
X52010Y292015D01*
X52077Y292073D01*
X52147Y292127D01*
X52220Y292178D01*
X52294Y292226D01*
X52371Y292271D01*
X52449Y292312D01*
X52529Y292351D01*
X52610Y292385D01*
X52693Y292417D01*
X52778Y292444D01*
X52863Y292469D01*
X52949Y292489D01*
X53036Y292506D01*
X53124Y292519D01*
X53212Y292528D01*
X53300Y292534D01*
X53389Y292536D01*
X53389Y292537D02*
X54434Y292537D01*
X54434Y292536D02*
X54523Y292534D01*
X54611Y292528D01*
X54699Y292519D01*
X54787Y292506D01*
X54874Y292489D01*
X54960Y292469D01*
X55045Y292444D01*
X55130Y292417D01*
X55213Y292385D01*
X55294Y292351D01*
X55374Y292312D01*
X55452Y292271D01*
X55529Y292226D01*
X55603Y292178D01*
X55676Y292127D01*
X55746Y292073D01*
X55813Y292015D01*
X55879Y291955D01*
X55941Y291893D01*
X56001Y291827D01*
X56059Y291760D01*
X56113Y291690D01*
X56164Y291617D01*
X56212Y291543D01*
X56257Y291466D01*
X56298Y291388D01*
X56337Y291308D01*
X56371Y291227D01*
X56403Y291144D01*
X56430Y291059D01*
X56455Y290974D01*
X56475Y290888D01*
X56492Y290801D01*
X56505Y290713D01*
X56514Y290625D01*
X56520Y290537D01*
X56522Y290448D01*
X56522Y287316D01*
X60699Y287316D01*
X60699Y292537D01*
X53912Y296459D02*
X54013Y296461D01*
X54114Y296467D01*
X54215Y296477D01*
X54315Y296490D01*
X54415Y296508D01*
X54514Y296529D01*
X54612Y296555D01*
X54709Y296584D01*
X54805Y296616D01*
X54899Y296653D01*
X54992Y296693D01*
X55084Y296737D01*
X55173Y296784D01*
X55261Y296835D01*
X55347Y296889D01*
X55430Y296946D01*
X55512Y297006D01*
X55590Y297070D01*
X55667Y297136D01*
X55740Y297206D01*
X55811Y297278D01*
X55879Y297353D01*
X55944Y297431D01*
X56006Y297511D01*
X56065Y297593D01*
X56121Y297678D01*
X56173Y297765D01*
X56222Y297853D01*
X56268Y297944D01*
X56309Y298036D01*
X56348Y298130D01*
X56382Y298225D01*
X56413Y298321D01*
X56440Y298419D01*
X56464Y298517D01*
X56483Y298617D01*
X56499Y298717D01*
X56511Y298817D01*
X56519Y298918D01*
X56523Y299019D01*
X56523Y299121D01*
X56519Y299222D01*
X56511Y299323D01*
X56499Y299423D01*
X56483Y299523D01*
X56464Y299623D01*
X56440Y299721D01*
X56413Y299819D01*
X56382Y299915D01*
X56348Y300010D01*
X56309Y300104D01*
X56268Y300196D01*
X56222Y300287D01*
X56173Y300375D01*
X56121Y300462D01*
X56065Y300547D01*
X56006Y300629D01*
X55944Y300709D01*
X55879Y300787D01*
X55811Y300862D01*
X55740Y300934D01*
X55667Y301004D01*
X55590Y301070D01*
X55512Y301134D01*
X55430Y301194D01*
X55347Y301251D01*
X55261Y301305D01*
X55173Y301356D01*
X55084Y301403D01*
X54992Y301447D01*
X54899Y301487D01*
X54805Y301524D01*
X54709Y301556D01*
X54612Y301585D01*
X54514Y301611D01*
X54415Y301632D01*
X54315Y301650D01*
X54215Y301663D01*
X54114Y301673D01*
X54013Y301679D01*
X53912Y301681D01*
X53811Y301679D01*
X53710Y301673D01*
X53609Y301663D01*
X53509Y301650D01*
X53409Y301632D01*
X53310Y301611D01*
X53212Y301585D01*
X53115Y301556D01*
X53019Y301524D01*
X52925Y301487D01*
X52832Y301447D01*
X52740Y301403D01*
X52651Y301356D01*
X52563Y301305D01*
X52477Y301251D01*
X52394Y301194D01*
X52312Y301134D01*
X52234Y301070D01*
X52157Y301004D01*
X52084Y300934D01*
X52013Y300862D01*
X51945Y300787D01*
X51880Y300709D01*
X51818Y300629D01*
X51759Y300547D01*
X51703Y300462D01*
X51651Y300376D01*
X51602Y300287D01*
X51556Y300196D01*
X51515Y300104D01*
X51476Y300010D01*
X51442Y299915D01*
X51411Y299819D01*
X51384Y299721D01*
X51360Y299623D01*
X51341Y299523D01*
X51325Y299423D01*
X51313Y299323D01*
X51305Y299222D01*
X51301Y299121D01*
X51301Y299019D01*
X51305Y298918D01*
X51313Y298817D01*
X51325Y298717D01*
X51341Y298617D01*
X51360Y298517D01*
X51384Y298419D01*
X51411Y298321D01*
X51442Y298225D01*
X51476Y298130D01*
X51515Y298036D01*
X51556Y297944D01*
X51602Y297853D01*
X51651Y297765D01*
X51703Y297678D01*
X51759Y297593D01*
X51818Y297511D01*
X51880Y297431D01*
X51945Y297353D01*
X52013Y297278D01*
X52084Y297206D01*
X52157Y297136D01*
X52234Y297070D01*
X52312Y297006D01*
X52394Y296946D01*
X52477Y296889D01*
X52563Y296835D01*
X52651Y296784D01*
X52740Y296737D01*
X52832Y296693D01*
X52925Y296653D01*
X53019Y296616D01*
X53115Y296584D01*
X53212Y296555D01*
X53310Y296529D01*
X53409Y296508D01*
X53509Y296490D01*
X53609Y296477D01*
X53710Y296467D01*
X53811Y296461D01*
X53912Y296459D01*
X58611Y296982D02*
X58701Y296984D01*
X58790Y296990D01*
X58880Y296999D01*
X58969Y297013D01*
X59057Y297030D01*
X59144Y297051D01*
X59231Y297076D01*
X59316Y297105D01*
X59400Y297137D01*
X59482Y297172D01*
X59563Y297212D01*
X59642Y297254D01*
X59719Y297300D01*
X59794Y297350D01*
X59867Y297402D01*
X59938Y297458D01*
X60006Y297516D01*
X60071Y297578D01*
X60134Y297642D01*
X60194Y297709D01*
X60251Y297778D01*
X60305Y297850D01*
X60356Y297924D01*
X60404Y298000D01*
X60448Y298078D01*
X60489Y298158D01*
X60527Y298240D01*
X60561Y298323D01*
X60591Y298408D01*
X60618Y298494D01*
X60641Y298580D01*
X60660Y298668D01*
X60675Y298757D01*
X60687Y298846D01*
X60695Y298935D01*
X60699Y299025D01*
X60699Y299115D01*
X60695Y299205D01*
X60687Y299294D01*
X60675Y299383D01*
X60660Y299472D01*
X60641Y299560D01*
X60618Y299646D01*
X60591Y299732D01*
X60561Y299817D01*
X60527Y299900D01*
X60489Y299982D01*
X60448Y300062D01*
X60404Y300140D01*
X60356Y300216D01*
X60305Y300290D01*
X60251Y300362D01*
X60194Y300431D01*
X60134Y300498D01*
X60071Y300562D01*
X60006Y300624D01*
X59938Y300682D01*
X59867Y300738D01*
X59794Y300790D01*
X59719Y300840D01*
X59642Y300886D01*
X59563Y300928D01*
X59482Y300968D01*
X59400Y301003D01*
X59316Y301035D01*
X59231Y301064D01*
X59144Y301089D01*
X59057Y301110D01*
X58969Y301127D01*
X58880Y301141D01*
X58790Y301150D01*
X58701Y301156D01*
X58611Y301158D01*
X58521Y301156D01*
X58432Y301150D01*
X58342Y301141D01*
X58253Y301127D01*
X58165Y301110D01*
X58078Y301089D01*
X57991Y301064D01*
X57906Y301035D01*
X57822Y301003D01*
X57740Y300968D01*
X57659Y300928D01*
X57580Y300886D01*
X57503Y300840D01*
X57428Y300790D01*
X57355Y300738D01*
X57284Y300682D01*
X57216Y300624D01*
X57151Y300562D01*
X57088Y300498D01*
X57028Y300431D01*
X56971Y300362D01*
X56917Y300290D01*
X56866Y300216D01*
X56818Y300140D01*
X56774Y300062D01*
X56733Y299982D01*
X56695Y299900D01*
X56661Y299817D01*
X56631Y299732D01*
X56604Y299646D01*
X56581Y299560D01*
X56562Y299472D01*
X56547Y299383D01*
X56535Y299294D01*
X56527Y299205D01*
X56523Y299115D01*
X56523Y299025D01*
X56527Y298935D01*
X56535Y298846D01*
X56547Y298757D01*
X56562Y298668D01*
X56581Y298580D01*
X56604Y298494D01*
X56631Y298408D01*
X56661Y298323D01*
X56695Y298240D01*
X56733Y298158D01*
X56774Y298078D01*
X56818Y298000D01*
X56866Y297924D01*
X56917Y297850D01*
X56971Y297778D01*
X57028Y297709D01*
X57088Y297642D01*
X57151Y297578D01*
X57216Y297516D01*
X57284Y297458D01*
X57355Y297402D01*
X57428Y297350D01*
X57503Y297300D01*
X57580Y297254D01*
X57659Y297212D01*
X57740Y297172D01*
X57822Y297137D01*
X57906Y297105D01*
X57991Y297076D01*
X58078Y297051D01*
X58165Y297030D01*
X58253Y297013D01*
X58342Y296999D01*
X58432Y296990D01*
X58521Y296984D01*
X58611Y296982D01*
X56000Y305603D02*
X56185Y305605D01*
X56370Y305612D01*
X56554Y305623D01*
X56738Y305638D01*
X56922Y305658D01*
X57106Y305682D01*
X57288Y305711D01*
X57470Y305744D01*
X57651Y305781D01*
X57831Y305823D01*
X58011Y305869D01*
X58189Y305919D01*
X58365Y305973D01*
X58541Y306032D01*
X58715Y306094D01*
X58887Y306161D01*
X59058Y306232D01*
X59227Y306307D01*
X59394Y306386D01*
X59474Y306416D01*
X59553Y306449D01*
X59630Y306486D01*
X59706Y306526D01*
X59780Y306569D01*
X59852Y306615D01*
X59921Y306665D01*
X59989Y306717D01*
X60054Y306773D01*
X60117Y306831D01*
X60176Y306893D01*
X60234Y306956D01*
X60288Y307023D01*
X60339Y307091D01*
X60387Y307162D01*
X60432Y307235D01*
X60474Y307309D01*
X60512Y307386D01*
X60547Y307464D01*
X60579Y307543D01*
X60607Y307624D01*
X60631Y307706D01*
X60652Y307790D01*
X60669Y307873D01*
X60682Y307958D01*
X60691Y308043D01*
X60697Y308128D01*
X60699Y308214D01*
X60697Y308300D01*
X60691Y308385D01*
X60682Y308470D01*
X60669Y308555D01*
X60652Y308638D01*
X60631Y308722D01*
X60607Y308804D01*
X60579Y308885D01*
X60547Y308964D01*
X60512Y309042D01*
X60474Y309119D01*
X60432Y309193D01*
X60387Y309266D01*
X60339Y309337D01*
X60288Y309405D01*
X60234Y309472D01*
X60176Y309535D01*
X60117Y309597D01*
X60054Y309655D01*
X59989Y309711D01*
X59921Y309763D01*
X59852Y309813D01*
X59780Y309859D01*
X59706Y309902D01*
X59630Y309942D01*
X59553Y309979D01*
X59474Y310012D01*
X59394Y310042D01*
X59227Y310121D01*
X59058Y310196D01*
X58887Y310267D01*
X58715Y310334D01*
X58541Y310396D01*
X58365Y310455D01*
X58189Y310509D01*
X58011Y310559D01*
X57831Y310605D01*
X57651Y310647D01*
X57470Y310684D01*
X57288Y310717D01*
X57106Y310746D01*
X56922Y310770D01*
X56738Y310790D01*
X56554Y310805D01*
X56370Y310816D01*
X56185Y310823D01*
X56000Y310825D01*
X56000Y305603D02*
X55815Y305605D01*
X55630Y305612D01*
X55446Y305623D01*
X55262Y305638D01*
X55078Y305658D01*
X54894Y305682D01*
X54712Y305711D01*
X54530Y305744D01*
X54349Y305781D01*
X54169Y305823D01*
X53989Y305869D01*
X53811Y305919D01*
X53635Y305973D01*
X53459Y306032D01*
X53285Y306094D01*
X53113Y306161D01*
X52942Y306232D01*
X52773Y306307D01*
X52606Y306386D01*
X52526Y306416D01*
X52447Y306449D01*
X52370Y306486D01*
X52294Y306526D01*
X52220Y306569D01*
X52148Y306615D01*
X52079Y306665D01*
X52011Y306718D01*
X51946Y306773D01*
X51883Y306832D01*
X51824Y306893D01*
X51766Y306956D01*
X51712Y307023D01*
X51661Y307091D01*
X51613Y307162D01*
X51568Y307235D01*
X51526Y307309D01*
X51488Y307386D01*
X51453Y307464D01*
X51421Y307543D01*
X51393Y307624D01*
X51369Y307706D01*
X51348Y307790D01*
X51331Y307873D01*
X51318Y307958D01*
X51309Y308043D01*
X51303Y308128D01*
X51301Y308214D01*
X52606Y310042D02*
X52773Y310121D01*
X52942Y310196D01*
X53113Y310267D01*
X53285Y310334D01*
X53459Y310396D01*
X53635Y310455D01*
X53811Y310509D01*
X53989Y310559D01*
X54169Y310605D01*
X54349Y310647D01*
X54530Y310684D01*
X54712Y310717D01*
X54894Y310746D01*
X55078Y310770D01*
X55262Y310790D01*
X55446Y310805D01*
X55630Y310816D01*
X55815Y310823D01*
X56000Y310825D01*
X52606Y310042D02*
X52526Y310012D01*
X52447Y309979D01*
X52370Y309942D01*
X52294Y309902D01*
X52220Y309859D01*
X52148Y309813D01*
X52079Y309763D01*
X52011Y309711D01*
X51946Y309655D01*
X51883Y309597D01*
X51824Y309535D01*
X51766Y309472D01*
X51712Y309405D01*
X51661Y309337D01*
X51613Y309266D01*
X51568Y309193D01*
X51526Y309119D01*
X51488Y309042D01*
X51453Y308964D01*
X51421Y308885D01*
X51393Y308804D01*
X51369Y308722D01*
X51348Y308638D01*
X51331Y308555D01*
X51318Y308470D01*
X51309Y308385D01*
X51303Y308300D01*
X51301Y308214D01*
X53389Y306126D02*
X58611Y310303D01*
X60699Y316748D02*
X51301Y316748D01*
X60699Y314138D02*
X60699Y319359D01*
D10*
X460000Y17380D02*
X600000Y17380D01*
X600000Y157380D01*
X460000Y157380D01*
X460000Y17380D01*
D13*
X570259Y162691D02*
X570259Y170057D01*
X568213Y170057D01*
X568124Y170055D01*
X568035Y170049D01*
X567946Y170039D01*
X567858Y170026D01*
X567770Y170009D01*
X567683Y169987D01*
X567598Y169962D01*
X567513Y169934D01*
X567430Y169901D01*
X567348Y169865D01*
X567268Y169826D01*
X567190Y169783D01*
X567114Y169737D01*
X567039Y169687D01*
X566967Y169634D01*
X566898Y169578D01*
X566831Y169519D01*
X566766Y169458D01*
X566705Y169393D01*
X566646Y169326D01*
X566590Y169257D01*
X566537Y169185D01*
X566487Y169110D01*
X566441Y169034D01*
X566398Y168956D01*
X566359Y168876D01*
X566323Y168794D01*
X566290Y168711D01*
X566262Y168626D01*
X566237Y168541D01*
X566215Y168454D01*
X566198Y168366D01*
X566185Y168278D01*
X566175Y168189D01*
X566169Y168100D01*
X566167Y168011D01*
X566169Y167922D01*
X566175Y167833D01*
X566185Y167744D01*
X566198Y167656D01*
X566215Y167568D01*
X566237Y167481D01*
X566262Y167396D01*
X566290Y167311D01*
X566323Y167228D01*
X566359Y167146D01*
X566398Y167066D01*
X566441Y166988D01*
X566487Y166912D01*
X566537Y166837D01*
X566590Y166765D01*
X566646Y166696D01*
X566705Y166629D01*
X566766Y166564D01*
X566831Y166503D01*
X566898Y166444D01*
X566967Y166388D01*
X567039Y166335D01*
X567114Y166285D01*
X567190Y166239D01*
X567268Y166196D01*
X567348Y166157D01*
X567430Y166121D01*
X567513Y166088D01*
X567598Y166060D01*
X567683Y166035D01*
X567770Y166013D01*
X567858Y165996D01*
X567946Y165983D01*
X568035Y165973D01*
X568124Y165967D01*
X568213Y165965D01*
X570259Y165965D01*
X567804Y165965D02*
X566167Y162691D01*
X562995Y164737D02*
X562995Y168011D01*
X562993Y168100D01*
X562987Y168189D01*
X562977Y168278D01*
X562964Y168366D01*
X562947Y168454D01*
X562925Y168541D01*
X562900Y168626D01*
X562872Y168711D01*
X562839Y168794D01*
X562803Y168876D01*
X562764Y168956D01*
X562721Y169034D01*
X562675Y169110D01*
X562625Y169185D01*
X562572Y169257D01*
X562516Y169326D01*
X562457Y169393D01*
X562396Y169458D01*
X562331Y169519D01*
X562264Y169578D01*
X562195Y169634D01*
X562123Y169687D01*
X562048Y169737D01*
X561972Y169783D01*
X561894Y169826D01*
X561814Y169865D01*
X561732Y169901D01*
X561649Y169934D01*
X561564Y169962D01*
X561479Y169987D01*
X561392Y170009D01*
X561304Y170026D01*
X561216Y170039D01*
X561127Y170049D01*
X561038Y170055D01*
X560949Y170057D01*
X560860Y170055D01*
X560771Y170049D01*
X560682Y170039D01*
X560594Y170026D01*
X560506Y170009D01*
X560419Y169987D01*
X560334Y169962D01*
X560249Y169934D01*
X560166Y169901D01*
X560084Y169865D01*
X560004Y169826D01*
X559926Y169783D01*
X559850Y169737D01*
X559775Y169687D01*
X559703Y169634D01*
X559634Y169578D01*
X559567Y169519D01*
X559502Y169458D01*
X559441Y169393D01*
X559382Y169326D01*
X559326Y169257D01*
X559273Y169185D01*
X559223Y169110D01*
X559177Y169034D01*
X559134Y168956D01*
X559095Y168876D01*
X559059Y168794D01*
X559026Y168711D01*
X558998Y168626D01*
X558973Y168541D01*
X558951Y168454D01*
X558934Y168366D01*
X558921Y168278D01*
X558911Y168189D01*
X558905Y168100D01*
X558903Y168011D01*
X558903Y164737D01*
X558905Y164648D01*
X558911Y164559D01*
X558921Y164470D01*
X558934Y164382D01*
X558951Y164294D01*
X558973Y164207D01*
X558998Y164122D01*
X559026Y164037D01*
X559059Y163954D01*
X559095Y163872D01*
X559134Y163792D01*
X559177Y163714D01*
X559223Y163638D01*
X559273Y163563D01*
X559326Y163491D01*
X559382Y163422D01*
X559441Y163355D01*
X559502Y163290D01*
X559567Y163229D01*
X559634Y163170D01*
X559703Y163114D01*
X559775Y163061D01*
X559850Y163011D01*
X559926Y162965D01*
X560004Y162922D01*
X560084Y162883D01*
X560166Y162847D01*
X560249Y162814D01*
X560334Y162786D01*
X560419Y162761D01*
X560506Y162739D01*
X560594Y162722D01*
X560682Y162709D01*
X560771Y162699D01*
X560860Y162693D01*
X560949Y162691D01*
X561038Y162693D01*
X561127Y162699D01*
X561216Y162709D01*
X561304Y162722D01*
X561392Y162739D01*
X561479Y162761D01*
X561564Y162786D01*
X561649Y162814D01*
X561732Y162847D01*
X561814Y162883D01*
X561894Y162922D01*
X561972Y162965D01*
X562048Y163011D01*
X562123Y163061D01*
X562195Y163114D01*
X562264Y163170D01*
X562331Y163229D01*
X562396Y163290D01*
X562457Y163355D01*
X562516Y163422D01*
X562572Y163491D01*
X562625Y163563D01*
X562675Y163638D01*
X562721Y163714D01*
X562764Y163792D01*
X562803Y163872D01*
X562839Y163954D01*
X562872Y164037D01*
X562900Y164122D01*
X562925Y164207D01*
X562947Y164294D01*
X562964Y164382D01*
X562977Y164470D01*
X562987Y164559D01*
X562993Y164648D01*
X562995Y164737D01*
X554121Y162691D02*
X554121Y170057D01*
X556167Y170057D02*
X552075Y170057D01*
X547294Y170057D02*
X549749Y162691D01*
X544839Y162691D02*
X547294Y170057D01*
X549135Y164533D02*
X545452Y164533D01*
X541730Y162691D02*
X541730Y170057D01*
X539684Y170057D01*
X539595Y170055D01*
X539506Y170049D01*
X539417Y170039D01*
X539329Y170026D01*
X539241Y170009D01*
X539154Y169987D01*
X539069Y169962D01*
X538984Y169934D01*
X538901Y169901D01*
X538819Y169865D01*
X538739Y169826D01*
X538661Y169783D01*
X538585Y169737D01*
X538510Y169687D01*
X538438Y169634D01*
X538369Y169578D01*
X538302Y169519D01*
X538237Y169458D01*
X538176Y169393D01*
X538117Y169326D01*
X538061Y169257D01*
X538008Y169185D01*
X537958Y169110D01*
X537912Y169034D01*
X537869Y168956D01*
X537830Y168876D01*
X537794Y168794D01*
X537761Y168711D01*
X537733Y168626D01*
X537708Y168541D01*
X537686Y168454D01*
X537669Y168366D01*
X537656Y168278D01*
X537646Y168189D01*
X537640Y168100D01*
X537638Y168011D01*
X537640Y167922D01*
X537646Y167833D01*
X537656Y167744D01*
X537669Y167656D01*
X537686Y167568D01*
X537708Y167481D01*
X537733Y167396D01*
X537761Y167311D01*
X537794Y167228D01*
X537830Y167146D01*
X537869Y167066D01*
X537912Y166988D01*
X537958Y166912D01*
X538008Y166837D01*
X538061Y166765D01*
X538117Y166696D01*
X538176Y166629D01*
X538237Y166564D01*
X538302Y166503D01*
X538369Y166444D01*
X538438Y166388D01*
X538510Y166335D01*
X538585Y166285D01*
X538661Y166239D01*
X538739Y166196D01*
X538819Y166157D01*
X538901Y166121D01*
X538984Y166088D01*
X539069Y166060D01*
X539154Y166035D01*
X539241Y166013D01*
X539329Y165996D01*
X539417Y165983D01*
X539506Y165973D01*
X539595Y165967D01*
X539684Y165965D01*
X541730Y165965D01*
X539274Y165965D02*
X537638Y162691D01*
X532420Y166579D02*
X534875Y170057D01*
X532420Y166579D02*
X529964Y170057D01*
X532420Y166579D02*
X532420Y162691D01*
X527072Y165556D02*
X522161Y165556D01*
X518601Y162691D02*
X515327Y162691D01*
X518601Y162691D02*
X518601Y170057D01*
X515327Y170057D01*
X516145Y166783D02*
X518601Y166783D01*
X512276Y170057D02*
X512276Y162691D01*
X508184Y162691D02*
X512276Y170057D01*
X508184Y170057D02*
X508184Y162691D01*
X503104Y162691D02*
X501467Y162691D01*
X503104Y162691D02*
X503182Y162693D01*
X503260Y162698D01*
X503337Y162708D01*
X503414Y162721D01*
X503490Y162737D01*
X503565Y162757D01*
X503639Y162781D01*
X503712Y162808D01*
X503784Y162839D01*
X503854Y162873D01*
X503923Y162910D01*
X503989Y162951D01*
X504054Y162995D01*
X504116Y163041D01*
X504176Y163091D01*
X504234Y163143D01*
X504289Y163198D01*
X504341Y163256D01*
X504391Y163316D01*
X504437Y163378D01*
X504481Y163443D01*
X504522Y163510D01*
X504559Y163578D01*
X504593Y163648D01*
X504624Y163720D01*
X504651Y163793D01*
X504675Y163867D01*
X504695Y163942D01*
X504711Y164018D01*
X504724Y164095D01*
X504734Y164172D01*
X504739Y164250D01*
X504741Y164328D01*
X504740Y164328D02*
X504740Y168420D01*
X504741Y168420D02*
X504739Y168498D01*
X504734Y168576D01*
X504724Y168653D01*
X504711Y168730D01*
X504695Y168806D01*
X504675Y168881D01*
X504651Y168955D01*
X504624Y169028D01*
X504593Y169100D01*
X504559Y169170D01*
X504522Y169239D01*
X504481Y169305D01*
X504437Y169370D01*
X504391Y169432D01*
X504341Y169492D01*
X504289Y169550D01*
X504234Y169605D01*
X504176Y169657D01*
X504116Y169707D01*
X504054Y169753D01*
X503989Y169797D01*
X503923Y169838D01*
X503854Y169875D01*
X503784Y169909D01*
X503712Y169940D01*
X503639Y169967D01*
X503565Y169991D01*
X503490Y170011D01*
X503414Y170027D01*
X503337Y170040D01*
X503260Y170050D01*
X503182Y170055D01*
X503104Y170057D01*
X501467Y170057D01*
X498621Y168011D02*
X498621Y164737D01*
X498621Y168011D02*
X498619Y168100D01*
X498613Y168189D01*
X498603Y168278D01*
X498590Y168366D01*
X498573Y168454D01*
X498551Y168541D01*
X498526Y168626D01*
X498498Y168711D01*
X498465Y168794D01*
X498429Y168876D01*
X498390Y168956D01*
X498347Y169034D01*
X498301Y169110D01*
X498251Y169185D01*
X498198Y169257D01*
X498142Y169326D01*
X498083Y169393D01*
X498022Y169458D01*
X497957Y169519D01*
X497890Y169578D01*
X497821Y169634D01*
X497749Y169687D01*
X497674Y169737D01*
X497598Y169783D01*
X497520Y169826D01*
X497440Y169865D01*
X497358Y169901D01*
X497275Y169934D01*
X497190Y169962D01*
X497105Y169987D01*
X497018Y170009D01*
X496930Y170026D01*
X496842Y170039D01*
X496753Y170049D01*
X496664Y170055D01*
X496575Y170057D01*
X496486Y170055D01*
X496397Y170049D01*
X496308Y170039D01*
X496220Y170026D01*
X496132Y170009D01*
X496045Y169987D01*
X495960Y169962D01*
X495875Y169934D01*
X495792Y169901D01*
X495710Y169865D01*
X495630Y169826D01*
X495552Y169783D01*
X495476Y169737D01*
X495401Y169687D01*
X495329Y169634D01*
X495260Y169578D01*
X495193Y169519D01*
X495128Y169458D01*
X495067Y169393D01*
X495008Y169326D01*
X494952Y169257D01*
X494899Y169185D01*
X494849Y169110D01*
X494803Y169034D01*
X494760Y168956D01*
X494721Y168876D01*
X494685Y168794D01*
X494652Y168711D01*
X494624Y168626D01*
X494599Y168541D01*
X494577Y168454D01*
X494560Y168366D01*
X494547Y168278D01*
X494537Y168189D01*
X494531Y168100D01*
X494529Y168011D01*
X494529Y164737D01*
X494531Y164648D01*
X494537Y164559D01*
X494547Y164470D01*
X494560Y164382D01*
X494577Y164294D01*
X494599Y164207D01*
X494624Y164122D01*
X494652Y164037D01*
X494685Y163954D01*
X494721Y163872D01*
X494760Y163792D01*
X494803Y163714D01*
X494849Y163638D01*
X494899Y163563D01*
X494952Y163491D01*
X495008Y163422D01*
X495067Y163355D01*
X495128Y163290D01*
X495193Y163229D01*
X495260Y163170D01*
X495329Y163114D01*
X495401Y163061D01*
X495476Y163011D01*
X495552Y162965D01*
X495630Y162922D01*
X495710Y162883D01*
X495792Y162847D01*
X495875Y162814D01*
X495960Y162786D01*
X496045Y162761D01*
X496132Y162739D01*
X496220Y162722D01*
X496308Y162709D01*
X496397Y162699D01*
X496486Y162693D01*
X496575Y162691D01*
X496664Y162693D01*
X496753Y162699D01*
X496842Y162709D01*
X496930Y162722D01*
X497018Y162739D01*
X497105Y162761D01*
X497190Y162786D01*
X497275Y162814D01*
X497358Y162847D01*
X497440Y162883D01*
X497520Y162922D01*
X497598Y162965D01*
X497674Y163011D01*
X497749Y163061D01*
X497821Y163114D01*
X497890Y163170D01*
X497957Y163229D01*
X498022Y163290D01*
X498083Y163355D01*
X498142Y163422D01*
X498198Y163491D01*
X498251Y163563D01*
X498301Y163638D01*
X498347Y163714D01*
X498390Y163792D01*
X498429Y163872D01*
X498465Y163954D01*
X498498Y164037D01*
X498526Y164122D01*
X498551Y164207D01*
X498573Y164294D01*
X498590Y164382D01*
X498603Y164470D01*
X498613Y164559D01*
X498619Y164648D01*
X498621Y164737D01*
X491062Y162691D02*
X491062Y170057D01*
X489016Y170057D01*
X488927Y170055D01*
X488838Y170049D01*
X488749Y170039D01*
X488661Y170026D01*
X488573Y170009D01*
X488486Y169987D01*
X488401Y169962D01*
X488316Y169934D01*
X488233Y169901D01*
X488151Y169865D01*
X488071Y169826D01*
X487993Y169783D01*
X487917Y169737D01*
X487842Y169687D01*
X487770Y169634D01*
X487701Y169578D01*
X487634Y169519D01*
X487569Y169458D01*
X487508Y169393D01*
X487449Y169326D01*
X487393Y169257D01*
X487340Y169185D01*
X487290Y169110D01*
X487244Y169034D01*
X487201Y168956D01*
X487162Y168876D01*
X487126Y168794D01*
X487093Y168711D01*
X487065Y168626D01*
X487040Y168541D01*
X487018Y168454D01*
X487001Y168366D01*
X486988Y168278D01*
X486978Y168189D01*
X486972Y168100D01*
X486970Y168011D01*
X486970Y164737D01*
X486972Y164648D01*
X486978Y164559D01*
X486988Y164470D01*
X487001Y164382D01*
X487018Y164294D01*
X487040Y164207D01*
X487065Y164122D01*
X487093Y164037D01*
X487126Y163954D01*
X487162Y163872D01*
X487201Y163792D01*
X487244Y163714D01*
X487290Y163638D01*
X487340Y163563D01*
X487393Y163491D01*
X487449Y163422D01*
X487508Y163355D01*
X487569Y163290D01*
X487634Y163229D01*
X487701Y163170D01*
X487770Y163114D01*
X487842Y163061D01*
X487917Y163011D01*
X487993Y162965D01*
X488071Y162922D01*
X488151Y162883D01*
X488233Y162847D01*
X488316Y162814D01*
X488401Y162786D01*
X488486Y162761D01*
X488573Y162739D01*
X488661Y162722D01*
X488749Y162709D01*
X488838Y162699D01*
X488927Y162693D01*
X489016Y162691D01*
X491062Y162691D01*
X483244Y162691D02*
X479970Y162691D01*
X483244Y162691D02*
X483244Y170057D01*
X479970Y170057D01*
X480789Y166783D02*
X483244Y166783D01*
X476869Y170057D02*
X476869Y162691D01*
X476869Y170057D02*
X474822Y170057D01*
X474733Y170055D01*
X474644Y170049D01*
X474555Y170039D01*
X474467Y170026D01*
X474379Y170009D01*
X474292Y169987D01*
X474207Y169962D01*
X474122Y169934D01*
X474039Y169901D01*
X473957Y169865D01*
X473877Y169826D01*
X473799Y169783D01*
X473723Y169737D01*
X473648Y169687D01*
X473576Y169634D01*
X473507Y169578D01*
X473440Y169519D01*
X473375Y169458D01*
X473314Y169393D01*
X473255Y169326D01*
X473199Y169257D01*
X473146Y169185D01*
X473096Y169110D01*
X473050Y169034D01*
X473007Y168956D01*
X472968Y168876D01*
X472932Y168794D01*
X472899Y168711D01*
X472871Y168626D01*
X472846Y168541D01*
X472824Y168454D01*
X472807Y168366D01*
X472794Y168278D01*
X472784Y168189D01*
X472778Y168100D01*
X472776Y168011D01*
X472778Y167922D01*
X472784Y167833D01*
X472794Y167744D01*
X472807Y167656D01*
X472824Y167568D01*
X472846Y167481D01*
X472871Y167396D01*
X472899Y167311D01*
X472932Y167228D01*
X472968Y167146D01*
X473007Y167066D01*
X473050Y166988D01*
X473096Y166912D01*
X473146Y166837D01*
X473199Y166765D01*
X473255Y166696D01*
X473314Y166629D01*
X473375Y166564D01*
X473440Y166503D01*
X473507Y166444D01*
X473576Y166388D01*
X473648Y166335D01*
X473723Y166285D01*
X473799Y166239D01*
X473877Y166196D01*
X473957Y166157D01*
X474039Y166121D01*
X474122Y166088D01*
X474207Y166060D01*
X474292Y166035D01*
X474379Y166013D01*
X474467Y165996D01*
X474555Y165983D01*
X474644Y165973D01*
X474733Y165967D01*
X474822Y165965D01*
X476869Y165965D01*
X474413Y165965D02*
X472776Y162691D01*
X594389Y29087D02*
X594389Y21721D01*
X594389Y29087D02*
X592343Y29087D01*
X592254Y29085D01*
X592165Y29079D01*
X592076Y29069D01*
X591988Y29056D01*
X591900Y29039D01*
X591813Y29017D01*
X591728Y28992D01*
X591643Y28964D01*
X591560Y28931D01*
X591478Y28895D01*
X591398Y28856D01*
X591320Y28813D01*
X591244Y28767D01*
X591169Y28717D01*
X591097Y28664D01*
X591028Y28608D01*
X590961Y28549D01*
X590896Y28488D01*
X590835Y28423D01*
X590776Y28356D01*
X590720Y28287D01*
X590667Y28215D01*
X590617Y28140D01*
X590571Y28064D01*
X590528Y27986D01*
X590489Y27906D01*
X590453Y27824D01*
X590420Y27741D01*
X590392Y27656D01*
X590367Y27571D01*
X590345Y27484D01*
X590328Y27396D01*
X590315Y27308D01*
X590305Y27219D01*
X590299Y27130D01*
X590297Y27041D01*
X590299Y26952D01*
X590305Y26863D01*
X590315Y26774D01*
X590328Y26686D01*
X590345Y26598D01*
X590367Y26511D01*
X590392Y26426D01*
X590420Y26341D01*
X590453Y26258D01*
X590489Y26176D01*
X590528Y26096D01*
X590571Y26018D01*
X590617Y25942D01*
X590667Y25867D01*
X590720Y25795D01*
X590776Y25726D01*
X590835Y25659D01*
X590896Y25594D01*
X590961Y25533D01*
X591028Y25474D01*
X591097Y25418D01*
X591169Y25365D01*
X591244Y25315D01*
X591320Y25269D01*
X591398Y25226D01*
X591478Y25187D01*
X591560Y25151D01*
X591643Y25118D01*
X591728Y25090D01*
X591813Y25065D01*
X591900Y25043D01*
X591988Y25026D01*
X592076Y25013D01*
X592165Y25003D01*
X592254Y24997D01*
X592343Y24995D01*
X594389Y24995D01*
X587176Y21721D02*
X583902Y21721D01*
X587176Y21721D02*
X587176Y29087D01*
X583902Y29087D01*
X584720Y25813D02*
X587176Y25813D01*
X579482Y21721D02*
X577845Y21721D01*
X579482Y21721D02*
X579560Y21723D01*
X579638Y21728D01*
X579715Y21738D01*
X579792Y21751D01*
X579868Y21767D01*
X579943Y21787D01*
X580017Y21811D01*
X580090Y21838D01*
X580162Y21869D01*
X580232Y21903D01*
X580301Y21940D01*
X580367Y21981D01*
X580432Y22025D01*
X580494Y22071D01*
X580554Y22121D01*
X580612Y22173D01*
X580667Y22228D01*
X580719Y22286D01*
X580769Y22346D01*
X580815Y22408D01*
X580859Y22473D01*
X580900Y22540D01*
X580937Y22608D01*
X580971Y22678D01*
X581002Y22750D01*
X581029Y22823D01*
X581053Y22897D01*
X581073Y22972D01*
X581089Y23048D01*
X581102Y23125D01*
X581112Y23202D01*
X581117Y23280D01*
X581119Y23358D01*
X581119Y27450D01*
X581117Y27528D01*
X581112Y27606D01*
X581102Y27683D01*
X581089Y27760D01*
X581073Y27836D01*
X581053Y27911D01*
X581029Y27985D01*
X581002Y28058D01*
X580971Y28130D01*
X580937Y28200D01*
X580900Y28269D01*
X580859Y28335D01*
X580815Y28400D01*
X580769Y28462D01*
X580719Y28522D01*
X580667Y28580D01*
X580612Y28635D01*
X580554Y28687D01*
X580494Y28737D01*
X580432Y28783D01*
X580367Y28827D01*
X580301Y28868D01*
X580232Y28905D01*
X580162Y28939D01*
X580090Y28970D01*
X580017Y28997D01*
X579943Y29021D01*
X579868Y29041D01*
X579792Y29057D01*
X579715Y29070D01*
X579638Y29080D01*
X579560Y29085D01*
X579482Y29087D01*
X577845Y29087D01*
X575000Y27450D02*
X572953Y29087D01*
X572953Y21721D01*
X570907Y21721D02*
X575000Y21721D01*
X565434Y29088D02*
X565349Y29086D01*
X565264Y29080D01*
X565180Y29070D01*
X565096Y29057D01*
X565012Y29039D01*
X564930Y29018D01*
X564849Y28993D01*
X564769Y28964D01*
X564690Y28931D01*
X564613Y28895D01*
X564538Y28855D01*
X564464Y28812D01*
X564393Y28766D01*
X564324Y28716D01*
X564257Y28663D01*
X564193Y28607D01*
X564132Y28548D01*
X564073Y28487D01*
X564017Y28423D01*
X563964Y28356D01*
X563914Y28287D01*
X563868Y28216D01*
X563825Y28142D01*
X563785Y28067D01*
X563749Y27990D01*
X563716Y27911D01*
X563687Y27831D01*
X563662Y27750D01*
X563641Y27668D01*
X563623Y27584D01*
X563610Y27500D01*
X563600Y27416D01*
X563594Y27331D01*
X563592Y27246D01*
X565434Y29087D02*
X565530Y29085D01*
X565626Y29079D01*
X565721Y29069D01*
X565816Y29056D01*
X565911Y29038D01*
X566004Y29017D01*
X566097Y28992D01*
X566188Y28963D01*
X566279Y28931D01*
X566368Y28895D01*
X566455Y28855D01*
X566541Y28812D01*
X566625Y28766D01*
X566707Y28716D01*
X566787Y28662D01*
X566864Y28606D01*
X566939Y28546D01*
X567012Y28484D01*
X567082Y28418D01*
X567150Y28350D01*
X567215Y28279D01*
X567276Y28206D01*
X567335Y28130D01*
X567391Y28051D01*
X567443Y27971D01*
X567492Y27888D01*
X567538Y27804D01*
X567580Y27718D01*
X567618Y27630D01*
X567653Y27541D01*
X567685Y27450D01*
X564206Y25814D02*
X564146Y25873D01*
X564089Y25935D01*
X564034Y25999D01*
X563983Y26066D01*
X563934Y26135D01*
X563888Y26205D01*
X563845Y26278D01*
X563805Y26352D01*
X563769Y26428D01*
X563736Y26506D01*
X563706Y26585D01*
X563679Y26665D01*
X563656Y26746D01*
X563637Y26828D01*
X563621Y26910D01*
X563608Y26994D01*
X563599Y27078D01*
X563594Y27162D01*
X563592Y27246D01*
X564206Y25813D02*
X567684Y21721D01*
X563592Y21721D01*
X560074Y21721D02*
X560074Y29087D01*
X558028Y29087D01*
X557939Y29085D01*
X557850Y29079D01*
X557761Y29069D01*
X557673Y29056D01*
X557585Y29039D01*
X557498Y29017D01*
X557413Y28992D01*
X557328Y28964D01*
X557245Y28931D01*
X557163Y28895D01*
X557083Y28856D01*
X557005Y28813D01*
X556929Y28767D01*
X556854Y28717D01*
X556782Y28664D01*
X556713Y28608D01*
X556646Y28549D01*
X556581Y28488D01*
X556520Y28423D01*
X556461Y28356D01*
X556405Y28287D01*
X556352Y28215D01*
X556302Y28140D01*
X556256Y28064D01*
X556213Y27986D01*
X556174Y27906D01*
X556138Y27824D01*
X556105Y27741D01*
X556077Y27656D01*
X556052Y27571D01*
X556030Y27484D01*
X556013Y27396D01*
X556000Y27308D01*
X555990Y27219D01*
X555984Y27130D01*
X555982Y27041D01*
X555984Y26952D01*
X555990Y26863D01*
X556000Y26774D01*
X556013Y26686D01*
X556030Y26598D01*
X556052Y26511D01*
X556077Y26426D01*
X556105Y26341D01*
X556138Y26258D01*
X556174Y26176D01*
X556213Y26096D01*
X556256Y26018D01*
X556302Y25942D01*
X556352Y25867D01*
X556405Y25795D01*
X556461Y25726D01*
X556520Y25659D01*
X556581Y25594D01*
X556646Y25533D01*
X556713Y25474D01*
X556782Y25418D01*
X556854Y25365D01*
X556929Y25315D01*
X557005Y25269D01*
X557083Y25226D01*
X557163Y25187D01*
X557245Y25151D01*
X557328Y25118D01*
X557413Y25090D01*
X557498Y25065D01*
X557585Y25043D01*
X557673Y25026D01*
X557761Y25013D01*
X557850Y25003D01*
X557939Y24997D01*
X558028Y24995D01*
X560074Y24995D01*
X557619Y24995D02*
X555982Y21721D01*
X552732Y24586D02*
X547821Y24586D01*
X544520Y21721D02*
X542473Y21721D01*
X542384Y21723D01*
X542295Y21729D01*
X542206Y21739D01*
X542118Y21752D01*
X542030Y21769D01*
X541943Y21791D01*
X541858Y21816D01*
X541773Y21844D01*
X541690Y21877D01*
X541608Y21913D01*
X541528Y21952D01*
X541450Y21995D01*
X541374Y22041D01*
X541299Y22091D01*
X541227Y22144D01*
X541158Y22200D01*
X541091Y22259D01*
X541026Y22320D01*
X540965Y22385D01*
X540906Y22452D01*
X540850Y22521D01*
X540797Y22593D01*
X540747Y22668D01*
X540701Y22744D01*
X540658Y22822D01*
X540619Y22902D01*
X540583Y22984D01*
X540550Y23067D01*
X540522Y23152D01*
X540497Y23237D01*
X540475Y23324D01*
X540458Y23412D01*
X540445Y23500D01*
X540435Y23589D01*
X540429Y23678D01*
X540427Y23767D01*
X540429Y23856D01*
X540435Y23945D01*
X540445Y24034D01*
X540458Y24122D01*
X540475Y24210D01*
X540497Y24297D01*
X540522Y24382D01*
X540550Y24467D01*
X540583Y24550D01*
X540619Y24632D01*
X540658Y24712D01*
X540701Y24790D01*
X540747Y24866D01*
X540797Y24941D01*
X540850Y25013D01*
X540906Y25082D01*
X540965Y25149D01*
X541026Y25214D01*
X541091Y25275D01*
X541158Y25334D01*
X541227Y25390D01*
X541299Y25443D01*
X541374Y25493D01*
X541450Y25539D01*
X541528Y25582D01*
X541608Y25621D01*
X541690Y25657D01*
X541773Y25690D01*
X541858Y25718D01*
X541943Y25743D01*
X542030Y25765D01*
X542118Y25782D01*
X542206Y25795D01*
X542295Y25805D01*
X542384Y25811D01*
X542473Y25813D01*
X542064Y29087D02*
X544520Y29087D01*
X542064Y29087D02*
X541985Y29085D01*
X541906Y29079D01*
X541827Y29070D01*
X541749Y29057D01*
X541672Y29039D01*
X541596Y29019D01*
X541521Y28994D01*
X541447Y28966D01*
X541374Y28935D01*
X541303Y28899D01*
X541234Y28861D01*
X541167Y28819D01*
X541102Y28774D01*
X541039Y28726D01*
X540978Y28675D01*
X540921Y28621D01*
X540865Y28565D01*
X540813Y28506D01*
X540763Y28444D01*
X540717Y28380D01*
X540673Y28314D01*
X540633Y28246D01*
X540597Y28176D01*
X540563Y28104D01*
X540533Y28030D01*
X540507Y27956D01*
X540484Y27880D01*
X540466Y27803D01*
X540450Y27726D01*
X540439Y27647D01*
X540431Y27569D01*
X540427Y27490D01*
X540427Y27410D01*
X540431Y27331D01*
X540439Y27253D01*
X540450Y27174D01*
X540466Y27097D01*
X540484Y27020D01*
X540507Y26944D01*
X540533Y26870D01*
X540563Y26796D01*
X540597Y26724D01*
X540633Y26654D01*
X540673Y26586D01*
X540717Y26520D01*
X540763Y26456D01*
X540813Y26394D01*
X540865Y26335D01*
X540921Y26279D01*
X540978Y26225D01*
X541039Y26174D01*
X541102Y26126D01*
X541167Y26081D01*
X541234Y26039D01*
X541303Y26001D01*
X541374Y25965D01*
X541447Y25934D01*
X541521Y25906D01*
X541596Y25881D01*
X541672Y25861D01*
X541749Y25843D01*
X541827Y25830D01*
X541906Y25821D01*
X541985Y25815D01*
X542064Y25813D01*
X543701Y25813D01*
X534954Y29088D02*
X534869Y29086D01*
X534784Y29080D01*
X534700Y29070D01*
X534616Y29057D01*
X534532Y29039D01*
X534450Y29018D01*
X534369Y28993D01*
X534289Y28964D01*
X534210Y28931D01*
X534133Y28895D01*
X534058Y28855D01*
X533984Y28812D01*
X533913Y28766D01*
X533844Y28716D01*
X533777Y28663D01*
X533713Y28607D01*
X533652Y28548D01*
X533593Y28487D01*
X533537Y28423D01*
X533484Y28356D01*
X533434Y28287D01*
X533388Y28216D01*
X533345Y28142D01*
X533305Y28067D01*
X533269Y27990D01*
X533236Y27911D01*
X533207Y27831D01*
X533182Y27750D01*
X533161Y27668D01*
X533143Y27584D01*
X533130Y27500D01*
X533120Y27416D01*
X533114Y27331D01*
X533112Y27246D01*
X534954Y29087D02*
X535050Y29085D01*
X535146Y29079D01*
X535241Y29069D01*
X535336Y29056D01*
X535431Y29038D01*
X535524Y29017D01*
X535617Y28992D01*
X535708Y28963D01*
X535799Y28931D01*
X535888Y28895D01*
X535975Y28855D01*
X536061Y28812D01*
X536145Y28766D01*
X536227Y28716D01*
X536307Y28662D01*
X536384Y28606D01*
X536459Y28546D01*
X536532Y28484D01*
X536602Y28418D01*
X536670Y28350D01*
X536735Y28279D01*
X536796Y28206D01*
X536855Y28130D01*
X536911Y28051D01*
X536963Y27971D01*
X537012Y27888D01*
X537058Y27804D01*
X537100Y27718D01*
X537138Y27630D01*
X537173Y27541D01*
X537205Y27450D01*
X533726Y25814D02*
X533666Y25873D01*
X533609Y25935D01*
X533554Y25999D01*
X533503Y26066D01*
X533454Y26135D01*
X533408Y26205D01*
X533365Y26278D01*
X533325Y26352D01*
X533289Y26428D01*
X533256Y26506D01*
X533226Y26585D01*
X533199Y26665D01*
X533176Y26746D01*
X533157Y26828D01*
X533141Y26910D01*
X533128Y26994D01*
X533119Y27078D01*
X533114Y27162D01*
X533112Y27246D01*
X533726Y25813D02*
X537204Y21721D01*
X533112Y21721D01*
X529889Y27450D02*
X527843Y29087D01*
X527843Y21721D01*
X529889Y21721D02*
X525797Y21721D01*
X522574Y28269D02*
X522574Y29087D01*
X518482Y29087D01*
X520528Y21721D01*
X514999Y21721D02*
X514999Y29087D01*
X511725Y29087D01*
X511725Y25813D02*
X514999Y25813D01*
X508840Y24586D02*
X503930Y24586D01*
X498417Y21721D02*
X498339Y21723D01*
X498261Y21728D01*
X498184Y21738D01*
X498107Y21751D01*
X498031Y21767D01*
X497956Y21787D01*
X497882Y21811D01*
X497809Y21838D01*
X497737Y21869D01*
X497667Y21903D01*
X497599Y21940D01*
X497532Y21981D01*
X497467Y22025D01*
X497405Y22071D01*
X497345Y22121D01*
X497287Y22173D01*
X497232Y22228D01*
X497180Y22286D01*
X497130Y22346D01*
X497084Y22408D01*
X497040Y22473D01*
X496999Y22539D01*
X496962Y22608D01*
X496928Y22678D01*
X496897Y22750D01*
X496870Y22823D01*
X496846Y22897D01*
X496826Y22972D01*
X496810Y23048D01*
X496797Y23125D01*
X496787Y23202D01*
X496782Y23280D01*
X496780Y23358D01*
X498417Y21721D02*
X498531Y21723D01*
X498644Y21728D01*
X498758Y21738D01*
X498871Y21751D01*
X498983Y21768D01*
X499095Y21788D01*
X499206Y21812D01*
X499317Y21840D01*
X499426Y21871D01*
X499534Y21906D01*
X499641Y21945D01*
X499747Y21987D01*
X499851Y22032D01*
X499954Y22081D01*
X500055Y22134D01*
X500154Y22189D01*
X500252Y22248D01*
X500347Y22310D01*
X500440Y22375D01*
X500532Y22443D01*
X500620Y22514D01*
X500707Y22588D01*
X500791Y22665D01*
X500872Y22744D01*
X500668Y27450D02*
X500666Y27528D01*
X500661Y27606D01*
X500651Y27683D01*
X500638Y27760D01*
X500622Y27836D01*
X500602Y27911D01*
X500578Y27985D01*
X500551Y28058D01*
X500520Y28130D01*
X500486Y28200D01*
X500449Y28269D01*
X500408Y28335D01*
X500364Y28400D01*
X500318Y28462D01*
X500268Y28522D01*
X500216Y28580D01*
X500161Y28635D01*
X500103Y28687D01*
X500043Y28737D01*
X499981Y28783D01*
X499916Y28827D01*
X499850Y28868D01*
X499781Y28905D01*
X499711Y28939D01*
X499639Y28970D01*
X499566Y28997D01*
X499492Y29021D01*
X499417Y29041D01*
X499341Y29057D01*
X499264Y29070D01*
X499187Y29080D01*
X499109Y29085D01*
X499031Y29087D01*
X498921Y29085D01*
X498812Y29079D01*
X498702Y29069D01*
X498594Y29056D01*
X498485Y29038D01*
X498378Y29017D01*
X498271Y28991D01*
X498165Y28962D01*
X498060Y28930D01*
X497957Y28893D01*
X497855Y28853D01*
X497754Y28809D01*
X497655Y28761D01*
X497558Y28711D01*
X497463Y28656D01*
X497370Y28598D01*
X497279Y28537D01*
X497190Y28473D01*
X499849Y26017D02*
X499916Y26059D01*
X499981Y26103D01*
X500043Y26151D01*
X500103Y26201D01*
X500161Y26254D01*
X500216Y26310D01*
X500268Y26369D01*
X500318Y26429D01*
X500365Y26493D01*
X500408Y26558D01*
X500449Y26625D01*
X500486Y26694D01*
X500520Y26765D01*
X500551Y26837D01*
X500578Y26911D01*
X500602Y26985D01*
X500622Y27061D01*
X500638Y27138D01*
X500651Y27215D01*
X500661Y27293D01*
X500666Y27372D01*
X500668Y27450D01*
X497598Y24790D02*
X497532Y24749D01*
X497467Y24704D01*
X497405Y24657D01*
X497345Y24606D01*
X497287Y24553D01*
X497232Y24497D01*
X497179Y24439D01*
X497130Y24378D01*
X497083Y24315D01*
X497040Y24250D01*
X496999Y24183D01*
X496962Y24114D01*
X496928Y24043D01*
X496897Y23971D01*
X496870Y23897D01*
X496846Y23822D01*
X496826Y23747D01*
X496810Y23670D01*
X496797Y23593D01*
X496787Y23515D01*
X496782Y23436D01*
X496780Y23358D01*
X497598Y24790D02*
X499849Y26018D01*
X493801Y25404D02*
X493799Y25557D01*
X493793Y25710D01*
X493784Y25862D01*
X493770Y26015D01*
X493753Y26167D01*
X493732Y26318D01*
X493707Y26469D01*
X493678Y26619D01*
X493646Y26769D01*
X493609Y26917D01*
X493569Y27065D01*
X493526Y27212D01*
X493478Y27357D01*
X493427Y27501D01*
X493373Y27644D01*
X493314Y27786D01*
X493253Y27925D01*
X493187Y28064D01*
X493161Y28134D01*
X493131Y28203D01*
X493099Y28271D01*
X493062Y28337D01*
X493023Y28401D01*
X492980Y28463D01*
X492935Y28522D01*
X492886Y28580D01*
X492835Y28634D01*
X492781Y28687D01*
X492724Y28736D01*
X492665Y28783D01*
X492604Y28826D01*
X492541Y28867D01*
X492476Y28904D01*
X492409Y28939D01*
X492340Y28969D01*
X492270Y28997D01*
X492199Y29020D01*
X492127Y29041D01*
X492054Y29057D01*
X491980Y29070D01*
X491905Y29080D01*
X491830Y29085D01*
X491755Y29087D01*
X491680Y29085D01*
X491605Y29080D01*
X491530Y29070D01*
X491456Y29057D01*
X491383Y29041D01*
X491311Y29020D01*
X491240Y28997D01*
X491170Y28969D01*
X491101Y28939D01*
X491034Y28904D01*
X490969Y28867D01*
X490906Y28826D01*
X490845Y28783D01*
X490786Y28736D01*
X490729Y28687D01*
X490675Y28634D01*
X490624Y28580D01*
X490576Y28522D01*
X490530Y28463D01*
X490487Y28401D01*
X490448Y28337D01*
X490412Y28271D01*
X490379Y28204D01*
X490349Y28134D01*
X490323Y28064D01*
X490258Y27926D01*
X490196Y27786D01*
X490138Y27644D01*
X490083Y27501D01*
X490032Y27357D01*
X489984Y27212D01*
X489941Y27065D01*
X489901Y26918D01*
X489864Y26769D01*
X489832Y26619D01*
X489803Y26469D01*
X489778Y26318D01*
X489757Y26167D01*
X489740Y26015D01*
X489726Y25862D01*
X489717Y25710D01*
X489711Y25557D01*
X489709Y25404D01*
X493801Y25404D02*
X493799Y25251D01*
X493793Y25098D01*
X493784Y24945D01*
X493770Y24793D01*
X493753Y24641D01*
X493732Y24490D01*
X493707Y24339D01*
X493678Y24188D01*
X493646Y24039D01*
X493609Y23890D01*
X493569Y23743D01*
X493526Y23596D01*
X493478Y23451D01*
X493427Y23306D01*
X493372Y23164D01*
X493314Y23022D01*
X493252Y22882D01*
X493187Y22744D01*
X493161Y22674D01*
X493131Y22604D01*
X493099Y22537D01*
X493062Y22471D01*
X493023Y22407D01*
X492980Y22345D01*
X492934Y22286D01*
X492886Y22228D01*
X492835Y22174D01*
X492781Y22121D01*
X492724Y22072D01*
X492665Y22025D01*
X492604Y21982D01*
X492541Y21941D01*
X492476Y21904D01*
X492409Y21869D01*
X492340Y21839D01*
X492270Y21811D01*
X492199Y21788D01*
X492127Y21767D01*
X492054Y21751D01*
X491980Y21738D01*
X491905Y21728D01*
X491830Y21723D01*
X491755Y21721D01*
X490323Y22744D02*
X490258Y22882D01*
X490196Y23022D01*
X490138Y23164D01*
X490083Y23307D01*
X490032Y23451D01*
X489984Y23596D01*
X489941Y23743D01*
X489901Y23891D01*
X489864Y24039D01*
X489832Y24189D01*
X489803Y24339D01*
X489778Y24490D01*
X489757Y24641D01*
X489740Y24793D01*
X489726Y24946D01*
X489717Y25098D01*
X489711Y25251D01*
X489709Y25404D01*
X490323Y22744D02*
X490349Y22673D01*
X490379Y22604D01*
X490412Y22537D01*
X490448Y22471D01*
X490487Y22407D01*
X490530Y22345D01*
X490576Y22286D01*
X490624Y22228D01*
X490675Y22174D01*
X490729Y22121D01*
X490786Y22072D01*
X490845Y22025D01*
X490906Y21982D01*
X490969Y21941D01*
X491034Y21904D01*
X491101Y21869D01*
X491170Y21839D01*
X491240Y21811D01*
X491311Y21788D01*
X491383Y21767D01*
X491456Y21751D01*
X491530Y21738D01*
X491605Y21728D01*
X491680Y21723D01*
X491755Y21721D01*
X493392Y23358D02*
X490118Y27450D01*
X486485Y25404D02*
X486483Y25557D01*
X486477Y25710D01*
X486468Y25862D01*
X486454Y26015D01*
X486437Y26167D01*
X486416Y26318D01*
X486391Y26469D01*
X486362Y26619D01*
X486330Y26769D01*
X486293Y26917D01*
X486253Y27065D01*
X486210Y27212D01*
X486162Y27357D01*
X486111Y27501D01*
X486057Y27644D01*
X485998Y27786D01*
X485937Y27925D01*
X485871Y28064D01*
X485845Y28134D01*
X485815Y28203D01*
X485783Y28271D01*
X485746Y28337D01*
X485707Y28401D01*
X485664Y28463D01*
X485619Y28522D01*
X485570Y28580D01*
X485519Y28634D01*
X485465Y28687D01*
X485408Y28736D01*
X485349Y28783D01*
X485288Y28826D01*
X485225Y28867D01*
X485160Y28904D01*
X485093Y28939D01*
X485024Y28969D01*
X484954Y28997D01*
X484883Y29020D01*
X484811Y29041D01*
X484738Y29057D01*
X484664Y29070D01*
X484589Y29080D01*
X484514Y29085D01*
X484439Y29087D01*
X484364Y29085D01*
X484289Y29080D01*
X484214Y29070D01*
X484140Y29057D01*
X484067Y29041D01*
X483995Y29020D01*
X483924Y28997D01*
X483854Y28969D01*
X483785Y28939D01*
X483718Y28904D01*
X483653Y28867D01*
X483590Y28826D01*
X483529Y28783D01*
X483470Y28736D01*
X483413Y28687D01*
X483359Y28634D01*
X483308Y28580D01*
X483260Y28522D01*
X483214Y28463D01*
X483171Y28401D01*
X483132Y28337D01*
X483096Y28271D01*
X483063Y28204D01*
X483033Y28134D01*
X483007Y28064D01*
X482942Y27926D01*
X482880Y27786D01*
X482822Y27644D01*
X482767Y27501D01*
X482716Y27357D01*
X482668Y27212D01*
X482625Y27065D01*
X482585Y26918D01*
X482548Y26769D01*
X482516Y26619D01*
X482487Y26469D01*
X482462Y26318D01*
X482441Y26167D01*
X482424Y26015D01*
X482410Y25862D01*
X482401Y25710D01*
X482395Y25557D01*
X482393Y25404D01*
X486486Y25404D02*
X486484Y25251D01*
X486478Y25098D01*
X486469Y24945D01*
X486455Y24793D01*
X486438Y24641D01*
X486417Y24490D01*
X486392Y24339D01*
X486363Y24188D01*
X486331Y24039D01*
X486294Y23890D01*
X486254Y23743D01*
X486211Y23596D01*
X486163Y23451D01*
X486112Y23306D01*
X486057Y23164D01*
X485999Y23022D01*
X485937Y22882D01*
X485872Y22744D01*
X485871Y22744D02*
X485845Y22674D01*
X485815Y22604D01*
X485783Y22537D01*
X485746Y22471D01*
X485707Y22407D01*
X485664Y22345D01*
X485618Y22286D01*
X485570Y22228D01*
X485519Y22174D01*
X485465Y22121D01*
X485408Y22072D01*
X485349Y22025D01*
X485288Y21982D01*
X485225Y21941D01*
X485160Y21904D01*
X485093Y21869D01*
X485024Y21839D01*
X484954Y21811D01*
X484883Y21788D01*
X484811Y21767D01*
X484738Y21751D01*
X484664Y21738D01*
X484589Y21728D01*
X484514Y21723D01*
X484439Y21721D01*
X483008Y22744D02*
X482943Y22882D01*
X482881Y23022D01*
X482823Y23164D01*
X482768Y23307D01*
X482717Y23451D01*
X482669Y23596D01*
X482626Y23743D01*
X482586Y23891D01*
X482549Y24039D01*
X482517Y24189D01*
X482488Y24339D01*
X482463Y24490D01*
X482442Y24641D01*
X482425Y24793D01*
X482411Y24946D01*
X482402Y25098D01*
X482396Y25251D01*
X482394Y25404D01*
X483007Y22744D02*
X483033Y22673D01*
X483063Y22604D01*
X483096Y22537D01*
X483132Y22471D01*
X483171Y22407D01*
X483214Y22345D01*
X483260Y22286D01*
X483308Y22228D01*
X483359Y22174D01*
X483413Y22121D01*
X483470Y22072D01*
X483529Y22025D01*
X483590Y21982D01*
X483653Y21941D01*
X483718Y21904D01*
X483785Y21869D01*
X483854Y21839D01*
X483924Y21811D01*
X483995Y21788D01*
X484067Y21767D01*
X484140Y21751D01*
X484214Y21738D01*
X484289Y21728D01*
X484364Y21723D01*
X484439Y21721D01*
X486076Y23358D02*
X482803Y27450D01*
X476920Y29088D02*
X476835Y29086D01*
X476750Y29080D01*
X476666Y29070D01*
X476582Y29057D01*
X476498Y29039D01*
X476416Y29018D01*
X476335Y28993D01*
X476255Y28964D01*
X476176Y28931D01*
X476099Y28895D01*
X476024Y28855D01*
X475950Y28812D01*
X475879Y28766D01*
X475810Y28716D01*
X475743Y28663D01*
X475679Y28607D01*
X475618Y28548D01*
X475559Y28487D01*
X475503Y28423D01*
X475450Y28356D01*
X475400Y28287D01*
X475354Y28216D01*
X475311Y28142D01*
X475271Y28067D01*
X475235Y27990D01*
X475202Y27911D01*
X475173Y27831D01*
X475148Y27750D01*
X475127Y27668D01*
X475109Y27584D01*
X475096Y27500D01*
X475086Y27416D01*
X475080Y27331D01*
X475078Y27246D01*
X476920Y29087D02*
X477016Y29085D01*
X477112Y29079D01*
X477207Y29069D01*
X477302Y29056D01*
X477397Y29038D01*
X477490Y29017D01*
X477583Y28992D01*
X477674Y28963D01*
X477765Y28931D01*
X477854Y28895D01*
X477941Y28855D01*
X478027Y28812D01*
X478111Y28766D01*
X478193Y28716D01*
X478273Y28662D01*
X478350Y28606D01*
X478425Y28546D01*
X478498Y28484D01*
X478568Y28418D01*
X478636Y28350D01*
X478701Y28279D01*
X478762Y28206D01*
X478821Y28130D01*
X478877Y28051D01*
X478929Y27971D01*
X478978Y27888D01*
X479024Y27804D01*
X479066Y27718D01*
X479104Y27630D01*
X479139Y27541D01*
X479171Y27450D01*
X475692Y25814D02*
X475632Y25873D01*
X475575Y25935D01*
X475520Y25999D01*
X475469Y26066D01*
X475420Y26135D01*
X475374Y26205D01*
X475331Y26278D01*
X475291Y26352D01*
X475255Y26428D01*
X475222Y26506D01*
X475192Y26585D01*
X475165Y26665D01*
X475142Y26746D01*
X475123Y26828D01*
X475107Y26910D01*
X475094Y26994D01*
X475085Y27078D01*
X475080Y27162D01*
X475078Y27246D01*
X475692Y25813D02*
X479170Y21721D01*
X475078Y21721D01*
X471855Y23358D02*
X470218Y29087D01*
X471855Y23358D02*
X467763Y23358D01*
X468991Y24995D02*
X468991Y21721D01*
M02*
