G04 EAGLE Gerber RS-274X export*
G75*
%MOMM*%
%FSLAX34Y34*%
%LPD*%
%INSoldermask Top*%
%IPPOS*%
%AMOC8*
5,1,8,0,0,1.08239X$1,22.5*%
G01*
%ADD10C,3.700000*%
%ADD11R,0.076200X0.025400*%
%ADD12R,0.127000X0.025400*%
%ADD13R,0.152400X0.025400*%
%ADD14R,0.177800X0.025400*%
%ADD15R,0.203200X0.025400*%
%ADD16R,0.228600X0.025400*%
%ADD17R,0.254000X0.025400*%
%ADD18R,0.279400X0.025400*%
%ADD19R,0.304800X0.025400*%
%ADD20R,0.330200X0.025400*%
%ADD21R,0.355600X0.025400*%
%ADD22R,0.101600X0.025400*%
%ADD23R,0.508000X0.025400*%
%ADD24R,0.457200X0.025400*%
%ADD25R,0.584200X0.025400*%
%ADD26R,0.533400X0.025400*%
%ADD27R,1.168400X0.025400*%
%ADD28R,1.193800X0.025400*%
%ADD29R,0.635000X0.025400*%
%ADD30R,0.381000X0.025400*%
%ADD31R,0.609600X0.025400*%
%ADD32R,0.685800X0.025400*%
%ADD33R,0.736600X0.025400*%
%ADD34R,0.406400X0.025400*%
%ADD35R,0.762000X0.025400*%
%ADD36R,0.787400X0.025400*%
%ADD37R,0.482600X0.025400*%
%ADD38R,0.838200X0.025400*%
%ADD39R,1.143000X0.025400*%
%ADD40R,0.431800X0.025400*%
%ADD41R,0.812800X0.025400*%
%ADD42R,1.422400X0.025400*%
%ADD43R,1.371600X0.025400*%
%ADD44R,0.558800X0.025400*%
%ADD45R,1.346200X0.025400*%
%ADD46R,0.660400X0.025400*%
%ADD47R,0.914400X0.025400*%
%ADD48R,0.711200X0.025400*%
%ADD49R,1.676400X0.025400*%
%ADD50R,0.889000X0.025400*%
%ADD51R,0.863600X0.025400*%
%ADD52R,1.651000X0.025400*%
%ADD53C,1.638000*%
%ADD54C,0.832000*%
%ADD55C,0.819000*%
%ADD56C,2.024000*%
%ADD57C,2.008000*%
%ADD58C,0.910000*%
%ADD59C,3.500000*%
%ADD60C,1.500000*%
%ADD61C,1.025700*%
%ADD62C,0.640500*%
%ADD63C,0.649000*%
%ADD64C,1.908000*%
%ADD65R,1.900000X2.600000*%
%ADD66C,9.644000*%
%ADD67C,1.775000*%
%ADD68C,1.256400*%
%ADD69C,1.109600*%
%ADD70C,1.506400*%
%ADD71C,1.306400*%
%ADD72C,1.556400*%


D10*
X139700Y25400D03*
X660400Y76200D03*
X660400Y355600D03*
X152400Y508000D03*
D11*
X440182Y16764D03*
X191516Y17018D03*
D12*
X440182Y17018D03*
X191516Y17272D03*
D13*
X440309Y17272D03*
X191389Y17526D03*
D14*
X440436Y17526D03*
X191262Y17780D03*
D13*
X440563Y17780D03*
X191135Y18034D03*
D14*
X440690Y18034D03*
X191008Y18288D03*
D15*
X440817Y18288D03*
X190881Y18542D03*
X441071Y18542D03*
X190627Y18796D03*
D16*
X441198Y18796D03*
X190500Y19050D03*
X441198Y19050D03*
X190500Y19304D03*
X441452Y19304D03*
X190246Y19558D03*
D17*
X441579Y19558D03*
X190119Y19812D03*
X441833Y19812D03*
X189865Y20066D03*
D18*
X441960Y20066D03*
X189738Y20320D03*
X441960Y20320D03*
X189738Y20574D03*
X442214Y20574D03*
X189484Y20828D03*
D19*
X442341Y20828D03*
X189357Y21082D03*
D20*
X442468Y21082D03*
X189230Y21336D03*
D12*
X278892Y21336D03*
D18*
X372110Y21336D03*
D20*
X442722Y21336D03*
X188976Y21590D03*
D17*
X278511Y21590D03*
D21*
X372237Y21590D03*
D12*
X434848Y21590D03*
D21*
X442849Y21590D03*
X188849Y21844D03*
D22*
X215265Y21844D03*
X217043Y21844D03*
D14*
X225298Y21844D03*
D20*
X278130Y21844D03*
D12*
X318008Y21844D03*
D20*
X327406Y21844D03*
D12*
X357124Y21844D03*
D20*
X366522Y21844D03*
D23*
X372745Y21844D03*
D12*
X400812Y21844D03*
D20*
X410210Y21844D03*
D16*
X434848Y21844D03*
D21*
X442849Y21844D03*
X188849Y22098D03*
D19*
X199009Y22098D03*
X216281Y22098D03*
D18*
X225044Y22098D03*
D13*
X247015Y22098D03*
X253873Y22098D03*
X272923Y22098D03*
D21*
X278257Y22098D03*
D12*
X295148Y22098D03*
D14*
X318262Y22098D03*
D24*
X327025Y22098D03*
D14*
X357378Y22098D03*
D24*
X366141Y22098D03*
D25*
X373126Y22098D03*
D14*
X401066Y22098D03*
D24*
X409829Y22098D03*
D14*
X417068Y22098D03*
D17*
X434721Y22098D03*
D21*
X443103Y22098D03*
X188595Y22352D03*
D26*
X199644Y22352D03*
D27*
X220599Y22352D03*
D22*
X232791Y22352D03*
X234061Y22352D03*
D19*
X246761Y22352D03*
D16*
X254000Y22352D03*
X273304Y22352D03*
D21*
X278257Y22352D03*
D15*
X295529Y22352D03*
D22*
X305181Y22352D03*
X306451Y22352D03*
D28*
X323342Y22352D03*
D22*
X344297Y22352D03*
X345567Y22352D03*
D28*
X362458Y22352D03*
D29*
X373380Y22352D03*
D22*
X387985Y22352D03*
X389255Y22352D03*
D28*
X406146Y22352D03*
D17*
X417449Y22352D03*
D13*
X429387Y22352D03*
D18*
X434848Y22352D03*
D30*
X443230Y22352D03*
X188468Y22606D03*
D31*
X199517Y22606D03*
D27*
X220599Y22606D03*
D18*
X233680Y22606D03*
D20*
X246634Y22606D03*
D18*
X254000Y22606D03*
D17*
X273431Y22606D03*
D30*
X278384Y22606D03*
D18*
X295910Y22606D03*
X306070Y22606D03*
D28*
X323342Y22606D03*
D18*
X345186Y22606D03*
D28*
X362458Y22606D03*
D32*
X373634Y22606D03*
D18*
X388874Y22606D03*
D28*
X406146Y22606D03*
D19*
X417449Y22606D03*
D15*
X429387Y22606D03*
D18*
X434848Y22606D03*
D30*
X443484Y22606D03*
X188214Y22860D03*
D32*
X199644Y22860D03*
D27*
X220599Y22860D03*
D20*
X233934Y22860D03*
X246634Y22860D03*
D19*
X254127Y22860D03*
X273685Y22860D03*
D30*
X278384Y22860D03*
D19*
X296037Y22860D03*
D20*
X306324Y22860D03*
D28*
X323342Y22860D03*
D20*
X345440Y22860D03*
D28*
X362458Y22860D03*
D33*
X373888Y22860D03*
D20*
X389128Y22860D03*
D28*
X406146Y22860D03*
D19*
X417449Y22860D03*
D16*
X429260Y22860D03*
D19*
X434975Y22860D03*
D34*
X443611Y22860D03*
X188087Y23114D03*
D33*
X199644Y23114D03*
D27*
X220599Y23114D03*
D20*
X234188Y23114D03*
X246634Y23114D03*
D19*
X254127Y23114D03*
X273685Y23114D03*
D21*
X278511Y23114D03*
D19*
X296037Y23114D03*
D20*
X306578Y23114D03*
D28*
X323342Y23114D03*
D20*
X345694Y23114D03*
D28*
X362458Y23114D03*
D35*
X374015Y23114D03*
D20*
X389382Y23114D03*
D28*
X406146Y23114D03*
D19*
X417449Y23114D03*
D17*
X429387Y23114D03*
D19*
X434975Y23114D03*
D34*
X443611Y23114D03*
X188087Y23368D03*
D36*
X199644Y23368D03*
D27*
X220599Y23368D03*
D20*
X234188Y23368D03*
X246634Y23368D03*
D18*
X254254Y23368D03*
D20*
X273558Y23368D03*
X278638Y23368D03*
D19*
X296037Y23368D03*
D20*
X306578Y23368D03*
D27*
X323469Y23368D03*
D20*
X345694Y23368D03*
D27*
X362585Y23368D03*
D15*
X371221Y23368D03*
D37*
X375920Y23368D03*
D20*
X389382Y23368D03*
D27*
X406273Y23368D03*
D19*
X417449Y23368D03*
X429387Y23368D03*
X434975Y23368D03*
D34*
X443865Y23368D03*
X187833Y23622D03*
D38*
X199644Y23622D03*
D39*
X220726Y23622D03*
D20*
X234188Y23622D03*
X246634Y23622D03*
D18*
X254254Y23622D03*
D20*
X273558Y23622D03*
D19*
X278765Y23622D03*
X296037Y23622D03*
D20*
X306578Y23622D03*
D27*
X323469Y23622D03*
D20*
X345694Y23622D03*
D27*
X362585Y23622D03*
D13*
X370967Y23622D03*
D34*
X376555Y23622D03*
D20*
X389382Y23622D03*
D27*
X406273Y23622D03*
D19*
X417449Y23622D03*
D20*
X429260Y23622D03*
D19*
X434975Y23622D03*
D40*
X443992Y23622D03*
X187706Y23876D03*
D24*
X197485Y23876D03*
D30*
X202438Y23876D03*
D37*
X217424Y23876D03*
D34*
X224409Y23876D03*
D20*
X234188Y23876D03*
D19*
X246761Y23876D03*
D17*
X254381Y23876D03*
D19*
X273431Y23876D03*
X279019Y23876D03*
X296037Y23876D03*
D20*
X306578Y23876D03*
D18*
X319024Y23876D03*
D29*
X326136Y23876D03*
D20*
X345694Y23876D03*
D18*
X358140Y23876D03*
D29*
X365252Y23876D03*
D21*
X377063Y23876D03*
D20*
X389382Y23876D03*
D18*
X401828Y23876D03*
D29*
X408940Y23876D03*
D19*
X417449Y23876D03*
D21*
X429133Y23876D03*
D18*
X435102Y23876D03*
D24*
X444119Y23876D03*
X187579Y24130D03*
D40*
X197358Y24130D03*
D20*
X202946Y24130D03*
D21*
X216789Y24130D03*
D19*
X224663Y24130D03*
D20*
X234188Y24130D03*
D18*
X246634Y24130D03*
D17*
X254381Y24130D03*
D19*
X273431Y24130D03*
X279019Y24130D03*
D20*
X295910Y24130D03*
X306578Y24130D03*
D17*
X318897Y24130D03*
X328041Y24130D03*
D20*
X345694Y24130D03*
D17*
X358013Y24130D03*
X367157Y24130D03*
D20*
X377444Y24130D03*
X389382Y24130D03*
D17*
X401701Y24130D03*
X410845Y24130D03*
D18*
X417576Y24130D03*
D30*
X429006Y24130D03*
D16*
X434848Y24130D03*
D24*
X444373Y24130D03*
X187325Y24384D03*
D21*
X196723Y24384D03*
D19*
X203327Y24384D03*
D17*
X216281Y24384D03*
D19*
X234061Y24384D03*
D18*
X246634Y24384D03*
D17*
X254381Y24384D03*
D18*
X273304Y24384D03*
D19*
X279273Y24384D03*
X295783Y24384D03*
X306451Y24384D03*
D17*
X318897Y24384D03*
D12*
X328676Y24384D03*
D19*
X345567Y24384D03*
D17*
X358013Y24384D03*
D12*
X367792Y24384D03*
D19*
X377825Y24384D03*
X389255Y24384D03*
D17*
X401701Y24384D03*
D12*
X411480Y24384D03*
D18*
X417576Y24384D03*
D34*
X428879Y24384D03*
D13*
X434975Y24384D03*
D24*
X444373Y24384D03*
X187325Y24638D03*
D20*
X196596Y24638D03*
D18*
X203708Y24638D03*
D17*
X216281Y24638D03*
D19*
X234061Y24638D03*
D18*
X246634Y24638D03*
D16*
X254508Y24638D03*
D18*
X273304Y24638D03*
X279400Y24638D03*
D19*
X295783Y24638D03*
X306451Y24638D03*
D17*
X318897Y24638D03*
D19*
X345567Y24638D03*
D17*
X358013Y24638D03*
D19*
X378079Y24638D03*
X389255Y24638D03*
D17*
X401701Y24638D03*
D18*
X417576Y24638D03*
D40*
X428752Y24638D03*
D24*
X444627Y24638D03*
X187071Y24892D03*
D20*
X196342Y24892D03*
D18*
X203962Y24892D03*
D17*
X216281Y24892D03*
D19*
X234061Y24892D03*
D18*
X246634Y24892D03*
D16*
X254508Y24892D03*
D18*
X273304Y24892D03*
X279400Y24892D03*
D19*
X295529Y24892D03*
X306451Y24892D03*
D17*
X318897Y24892D03*
D19*
X345567Y24892D03*
D17*
X358013Y24892D03*
D18*
X378206Y24892D03*
D19*
X389255Y24892D03*
D17*
X401701Y24892D03*
D18*
X417576Y24892D03*
D37*
X428498Y24892D03*
X444754Y24892D03*
X186944Y25146D03*
D19*
X196215Y25146D03*
D18*
X204216Y25146D03*
D16*
X216154Y25146D03*
D18*
X234188Y25146D03*
D17*
X246507Y25146D03*
D16*
X254508Y25146D03*
D12*
X263906Y25146D03*
D18*
X273304Y25146D03*
X279654Y25146D03*
D19*
X295529Y25146D03*
D18*
X306578Y25146D03*
D17*
X318897Y25146D03*
D18*
X345694Y25146D03*
D17*
X358013Y25146D03*
D18*
X378460Y25146D03*
X389382Y25146D03*
D17*
X401701Y25146D03*
D18*
X417576Y25146D03*
D40*
X427990Y25146D03*
D23*
X444881Y25146D03*
X186817Y25400D03*
D18*
X196088Y25400D03*
D17*
X204343Y25400D03*
D16*
X216154Y25400D03*
D18*
X234188Y25400D03*
D17*
X246507Y25400D03*
D15*
X254635Y25400D03*
D14*
X263652Y25400D03*
D18*
X273304Y25400D03*
D17*
X279781Y25400D03*
D18*
X295402Y25400D03*
X306578Y25400D03*
D17*
X318897Y25400D03*
D18*
X345694Y25400D03*
D17*
X358013Y25400D03*
X378587Y25400D03*
D18*
X389382Y25400D03*
D17*
X401701Y25400D03*
X417703Y25400D03*
D40*
X427482Y25400D03*
D23*
X445135Y25400D03*
X186563Y25654D03*
D19*
X195961Y25654D03*
D17*
X204597Y25654D03*
D16*
X216154Y25654D03*
D18*
X234188Y25654D03*
D17*
X246507Y25654D03*
D15*
X254635Y25654D03*
D16*
X263652Y25654D03*
D17*
X273177Y25654D03*
X280035Y25654D03*
D19*
X295275Y25654D03*
D18*
X306578Y25654D03*
D17*
X318897Y25654D03*
D18*
X345694Y25654D03*
D17*
X358013Y25654D03*
D16*
X378714Y25654D03*
D18*
X389382Y25654D03*
D17*
X401701Y25654D03*
X417703Y25654D03*
D40*
X427228Y25654D03*
D23*
X445135Y25654D03*
X186563Y25908D03*
D18*
X195834Y25908D03*
D17*
X204851Y25908D03*
D15*
X216281Y25908D03*
D18*
X234188Y25908D03*
D17*
X246507Y25908D03*
D16*
X254762Y25908D03*
D17*
X263525Y25908D03*
X273177Y25908D03*
X280035Y25908D03*
D18*
X295148Y25908D03*
X306578Y25908D03*
D16*
X319024Y25908D03*
D18*
X345694Y25908D03*
D16*
X358140Y25908D03*
D17*
X378841Y25908D03*
D18*
X389382Y25908D03*
D16*
X401828Y25908D03*
D17*
X417703Y25908D03*
D40*
X426720Y25908D03*
D26*
X445262Y25908D03*
X186436Y26162D03*
D18*
X195834Y26162D03*
X204978Y26162D03*
D15*
X216281Y26162D03*
D18*
X234188Y26162D03*
D17*
X246507Y26162D03*
D16*
X254762Y26162D03*
D18*
X263652Y26162D03*
D17*
X273177Y26162D03*
X280289Y26162D03*
D18*
X295148Y26162D03*
X306578Y26162D03*
D16*
X319024Y26162D03*
D18*
X345694Y26162D03*
D16*
X358140Y26162D03*
X378968Y26162D03*
D18*
X389382Y26162D03*
D16*
X401828Y26162D03*
D17*
X417703Y26162D03*
D40*
X426212Y26162D03*
D23*
X445389Y26162D03*
X186309Y26416D03*
D18*
X195834Y26416D03*
X205232Y26416D03*
D15*
X216281Y26416D03*
D18*
X234188Y26416D03*
D17*
X246507Y26416D03*
D15*
X254889Y26416D03*
D19*
X263779Y26416D03*
D17*
X273177Y26416D03*
D16*
X280416Y26416D03*
D18*
X294894Y26416D03*
X306578Y26416D03*
D16*
X319024Y26416D03*
D18*
X345694Y26416D03*
D16*
X358140Y26416D03*
X378968Y26416D03*
D18*
X389382Y26416D03*
D16*
X401828Y26416D03*
X417576Y26416D03*
D40*
X425958Y26416D03*
D23*
X445389Y26416D03*
X186309Y26670D03*
D17*
X195707Y26670D03*
D18*
X205232Y26670D03*
D15*
X216281Y26670D03*
D18*
X234188Y26670D03*
D17*
X246507Y26670D03*
D15*
X254889Y26670D03*
D21*
X263779Y26670D03*
D17*
X273177Y26670D03*
X280543Y26670D03*
D18*
X294894Y26670D03*
X306578Y26670D03*
D16*
X319024Y26670D03*
D18*
X345694Y26670D03*
D16*
X358140Y26670D03*
X379222Y26670D03*
D18*
X389382Y26670D03*
D16*
X401828Y26670D03*
X417576Y26670D03*
D40*
X425450Y26670D03*
D23*
X445389Y26670D03*
X186309Y26924D03*
D18*
X195580Y26924D03*
X205486Y26924D03*
D15*
X216281Y26924D03*
D17*
X234061Y26924D03*
X246507Y26924D03*
D15*
X254889Y26924D03*
D30*
X263652Y26924D03*
D17*
X273177Y26924D03*
D16*
X280670Y26924D03*
D18*
X294640Y26924D03*
D17*
X306451Y26924D03*
D16*
X319024Y26924D03*
D17*
X345567Y26924D03*
D16*
X358140Y26924D03*
X379222Y26924D03*
D17*
X389255Y26924D03*
D16*
X401828Y26924D03*
X417576Y26924D03*
D40*
X425196Y26924D03*
D24*
X445389Y26924D03*
X186309Y27178D03*
D18*
X195580Y27178D03*
D17*
X205613Y27178D03*
D16*
X216408Y27178D03*
D17*
X234061Y27178D03*
D16*
X246634Y27178D03*
D15*
X254889Y27178D03*
D30*
X263652Y27178D03*
D17*
X272923Y27178D03*
X280797Y27178D03*
D18*
X294640Y27178D03*
D17*
X306451Y27178D03*
D16*
X319024Y27178D03*
D17*
X345567Y27178D03*
D16*
X358140Y27178D03*
X379222Y27178D03*
D17*
X389255Y27178D03*
D16*
X401828Y27178D03*
X417576Y27178D03*
D40*
X424688Y27178D03*
X445262Y27178D03*
X186436Y27432D03*
D18*
X195580Y27432D03*
X205740Y27432D03*
D16*
X216408Y27432D03*
X234188Y27432D03*
X246634Y27432D03*
D14*
X255016Y27432D03*
D34*
X263525Y27432D03*
D17*
X272923Y27432D03*
D16*
X280924Y27432D03*
D19*
X294513Y27432D03*
D16*
X306578Y27432D03*
X319024Y27432D03*
X345694Y27432D03*
X358140Y27432D03*
X379222Y27432D03*
X389382Y27432D03*
X401828Y27432D03*
X417576Y27432D03*
D34*
X424307Y27432D03*
D12*
X435102Y27432D03*
D30*
X445262Y27432D03*
X186436Y27686D03*
D17*
X195453Y27686D03*
X205867Y27686D03*
D16*
X216408Y27686D03*
X234188Y27686D03*
X246634Y27686D03*
D14*
X255016Y27686D03*
D34*
X263525Y27686D03*
D17*
X272923Y27686D03*
X281051Y27686D03*
D18*
X294386Y27686D03*
D16*
X306578Y27686D03*
X319024Y27686D03*
X345694Y27686D03*
X358140Y27686D03*
X379222Y27686D03*
X389382Y27686D03*
X401828Y27686D03*
X417576Y27686D03*
D40*
X423926Y27686D03*
D14*
X435102Y27686D03*
D30*
X445262Y27686D03*
X186436Y27940D03*
D17*
X195453Y27940D03*
X205867Y27940D03*
D16*
X216408Y27940D03*
X234188Y27940D03*
X246634Y27940D03*
D14*
X255016Y27940D03*
D34*
X263525Y27940D03*
D17*
X272923Y27940D03*
D16*
X281178Y27940D03*
D19*
X294259Y27940D03*
D16*
X306578Y27940D03*
X319024Y27940D03*
X345694Y27940D03*
X358140Y27940D03*
X379222Y27940D03*
X389382Y27940D03*
X401828Y27940D03*
X417576Y27940D03*
D40*
X423418Y27940D03*
D15*
X435229Y27940D03*
D30*
X445262Y27940D03*
X186436Y28194D03*
D17*
X195453Y28194D03*
X206121Y28194D03*
D16*
X216408Y28194D03*
X234188Y28194D03*
X246634Y28194D03*
D15*
X255143Y28194D03*
D40*
X263652Y28194D03*
D17*
X272923Y28194D03*
X281559Y28194D03*
D18*
X294132Y28194D03*
D16*
X306578Y28194D03*
X319024Y28194D03*
X345694Y28194D03*
X358140Y28194D03*
D17*
X379095Y28194D03*
D16*
X389382Y28194D03*
X401828Y28194D03*
X417576Y28194D03*
D40*
X423164Y28194D03*
D15*
X435229Y28194D03*
D30*
X445516Y28194D03*
X186182Y28448D03*
D17*
X195453Y28448D03*
X206121Y28448D03*
D16*
X216408Y28448D03*
X234188Y28448D03*
X246634Y28448D03*
D15*
X255143Y28448D03*
D24*
X263525Y28448D03*
D17*
X272923Y28448D03*
D19*
X281813Y28448D03*
X294005Y28448D03*
D16*
X306578Y28448D03*
X319024Y28448D03*
X345694Y28448D03*
X358140Y28448D03*
D17*
X379095Y28448D03*
D16*
X389382Y28448D03*
X401828Y28448D03*
X417576Y28448D03*
D40*
X422910Y28448D03*
D15*
X435229Y28448D03*
D34*
X445643Y28448D03*
X186055Y28702D03*
D17*
X195199Y28702D03*
X206375Y28702D03*
D16*
X216408Y28702D03*
X234188Y28702D03*
X246634Y28702D03*
D14*
X255270Y28702D03*
D37*
X263652Y28702D03*
D16*
X272796Y28702D03*
D30*
X282448Y28702D03*
D18*
X293878Y28702D03*
D16*
X306578Y28702D03*
X319024Y28702D03*
X345694Y28702D03*
X358140Y28702D03*
D17*
X379095Y28702D03*
D16*
X389382Y28702D03*
X401828Y28702D03*
X417576Y28702D03*
D40*
X422402Y28702D03*
D15*
X435229Y28702D03*
D40*
X445770Y28702D03*
X185928Y28956D03*
D17*
X195199Y28956D03*
X206629Y28956D03*
D16*
X216408Y28956D03*
X234188Y28956D03*
X246634Y28956D03*
D14*
X255270Y28956D03*
D23*
X263525Y28956D03*
D16*
X272796Y28956D03*
D41*
X284861Y28956D03*
D24*
X292989Y28956D03*
D16*
X306578Y28956D03*
X319024Y28956D03*
X345694Y28956D03*
X358140Y28956D03*
D18*
X378968Y28956D03*
D16*
X389382Y28956D03*
X401828Y28956D03*
X417576Y28956D03*
D34*
X422021Y28956D03*
D16*
X435356Y28956D03*
D34*
X445897Y28956D03*
X185801Y29210D03*
D17*
X195199Y29210D03*
X206629Y29210D03*
D16*
X216408Y29210D03*
X234188Y29210D03*
X246634Y29210D03*
D14*
X255270Y29210D03*
D19*
X262509Y29210D03*
D15*
X265303Y29210D03*
D17*
X272669Y29210D03*
D42*
X287909Y29210D03*
D16*
X306578Y29210D03*
X319024Y29210D03*
X345694Y29210D03*
X358140Y29210D03*
D18*
X378968Y29210D03*
D16*
X389382Y29210D03*
X401828Y29210D03*
X417576Y29210D03*
D40*
X421640Y29210D03*
D15*
X435483Y29210D03*
D24*
X445897Y29210D03*
X185801Y29464D03*
D17*
X195199Y29464D03*
X206883Y29464D03*
D16*
X216408Y29464D03*
X234188Y29464D03*
X246634Y29464D03*
D14*
X255270Y29464D03*
D19*
X262255Y29464D03*
D14*
X265430Y29464D03*
D17*
X272669Y29464D03*
D42*
X287909Y29464D03*
D16*
X306578Y29464D03*
X319024Y29464D03*
X345694Y29464D03*
X358140Y29464D03*
D19*
X378841Y29464D03*
D16*
X389382Y29464D03*
X401828Y29464D03*
X417576Y29464D03*
D34*
X421259Y29464D03*
D15*
X435483Y29464D03*
D23*
X445897Y29464D03*
X185801Y29718D03*
D17*
X195199Y29718D03*
X206883Y29718D03*
D16*
X216408Y29718D03*
X234188Y29718D03*
X246634Y29718D03*
D15*
X255397Y29718D03*
D18*
X262128Y29718D03*
D15*
X265557Y29718D03*
D17*
X272669Y29718D03*
D43*
X287909Y29718D03*
D16*
X306578Y29718D03*
X319024Y29718D03*
X345694Y29718D03*
X358140Y29718D03*
D19*
X378587Y29718D03*
D16*
X389382Y29718D03*
X401828Y29718D03*
X417576Y29718D03*
D34*
X421005Y29718D03*
D15*
X435483Y29718D03*
D44*
X445897Y29718D03*
X185801Y29972D03*
D17*
X195199Y29972D03*
X207137Y29972D03*
D16*
X216408Y29972D03*
X234188Y29972D03*
X246634Y29972D03*
D14*
X255524Y29972D03*
D19*
X262001Y29972D03*
D14*
X265684Y29972D03*
D17*
X272669Y29972D03*
D43*
X287909Y29972D03*
D16*
X306578Y29972D03*
X319024Y29972D03*
X345694Y29972D03*
X358140Y29972D03*
D20*
X378460Y29972D03*
D16*
X389382Y29972D03*
X401828Y29972D03*
D29*
X419608Y29972D03*
D15*
X435483Y29972D03*
D31*
X445897Y29972D03*
X185801Y30226D03*
D16*
X195072Y30226D03*
D17*
X207137Y30226D03*
D16*
X216408Y30226D03*
X234188Y30226D03*
X246634Y30226D03*
D14*
X255524Y30226D03*
D18*
X261874Y30226D03*
D14*
X265938Y30226D03*
D16*
X272542Y30226D03*
D45*
X288036Y30226D03*
D16*
X306578Y30226D03*
D17*
X319151Y30226D03*
D16*
X345694Y30226D03*
D17*
X358267Y30226D03*
D21*
X378333Y30226D03*
D16*
X389382Y30226D03*
D17*
X401955Y30226D03*
D25*
X419354Y30226D03*
D14*
X435610Y30226D03*
D31*
X445897Y30226D03*
X185801Y30480D03*
D16*
X195072Y30480D03*
X207264Y30480D03*
X216408Y30480D03*
X234188Y30480D03*
X246634Y30480D03*
D14*
X255524Y30480D03*
D19*
X261747Y30480D03*
D14*
X265938Y30480D03*
D16*
X272542Y30480D03*
D34*
X283337Y30480D03*
D41*
X290449Y30480D03*
D16*
X306578Y30480D03*
D17*
X319151Y30480D03*
D16*
X345694Y30480D03*
D17*
X358267Y30480D03*
D21*
X378079Y30480D03*
D16*
X389382Y30480D03*
D17*
X401955Y30480D03*
D44*
X419227Y30480D03*
D14*
X435610Y30480D03*
D29*
X446024Y30480D03*
X185674Y30734D03*
D16*
X195072Y30734D03*
D17*
X207391Y30734D03*
D16*
X216408Y30734D03*
X234188Y30734D03*
X246634Y30734D03*
D15*
X255651Y30734D03*
D18*
X261620Y30734D03*
D14*
X266192Y30734D03*
D16*
X272542Y30734D03*
D17*
X282829Y30734D03*
D30*
X292608Y30734D03*
D16*
X306578Y30734D03*
D17*
X319151Y30734D03*
D16*
X345694Y30734D03*
D17*
X358267Y30734D03*
D40*
X377698Y30734D03*
D16*
X389382Y30734D03*
D17*
X401955Y30734D03*
D44*
X419227Y30734D03*
D14*
X435610Y30734D03*
D46*
X446151Y30734D03*
X185547Y30988D03*
D16*
X195072Y30988D03*
X207518Y30988D03*
X216408Y30988D03*
X234188Y30988D03*
X246634Y30988D03*
D15*
X255651Y30988D03*
D18*
X261620Y30988D03*
D14*
X266192Y30988D03*
D17*
X272415Y30988D03*
X282829Y30988D03*
D18*
X292862Y30988D03*
D16*
X306578Y30988D03*
D17*
X319151Y30988D03*
D16*
X345694Y30988D03*
D17*
X358267Y30988D03*
D34*
X377571Y30988D03*
D16*
X389382Y30988D03*
D17*
X401955Y30988D03*
D31*
X419481Y30988D03*
D14*
X435610Y30988D03*
D46*
X446405Y30988D03*
X185293Y31242D03*
D16*
X195072Y31242D03*
X207518Y31242D03*
X216408Y31242D03*
D17*
X234315Y31242D03*
D16*
X246634Y31242D03*
D15*
X255651Y31242D03*
D18*
X261366Y31242D03*
D15*
X266319Y31242D03*
D17*
X272415Y31242D03*
D16*
X282956Y31242D03*
D19*
X292735Y31242D03*
D17*
X306705Y31242D03*
D18*
X319278Y31242D03*
D15*
X325755Y31242D03*
D17*
X345821Y31242D03*
D18*
X358394Y31242D03*
D15*
X364871Y31242D03*
D34*
X377317Y31242D03*
D17*
X389509Y31242D03*
D18*
X402082Y31242D03*
D15*
X408559Y31242D03*
D46*
X419735Y31242D03*
D14*
X435610Y31242D03*
D32*
X446532Y31242D03*
X185166Y31496D03*
D16*
X195072Y31496D03*
D17*
X207645Y31496D03*
D16*
X216408Y31496D03*
D17*
X234315Y31496D03*
D16*
X246634Y31496D03*
D14*
X255778Y31496D03*
D18*
X261366Y31496D03*
D14*
X266446Y31496D03*
D17*
X272415Y31496D03*
D16*
X283210Y31496D03*
D18*
X292608Y31496D03*
D17*
X306705Y31496D03*
D19*
X319405Y31496D03*
D24*
X324739Y31496D03*
D17*
X345821Y31496D03*
D19*
X358521Y31496D03*
D24*
X363855Y31496D03*
X377063Y31496D03*
D17*
X389509Y31496D03*
D19*
X402209Y31496D03*
D24*
X407543Y31496D03*
D17*
X417703Y31496D03*
D40*
X421386Y31496D03*
D14*
X435610Y31496D03*
D46*
X446659Y31496D03*
X185039Y31750D03*
D17*
X194945Y31750D03*
D16*
X207772Y31750D03*
X216408Y31750D03*
D17*
X234315Y31750D03*
D16*
X246634Y31750D03*
D14*
X255778Y31750D03*
D18*
X261112Y31750D03*
D15*
X266573Y31750D03*
D16*
X272288Y31750D03*
X283210Y31750D03*
D18*
X292608Y31750D03*
D17*
X306705Y31750D03*
D47*
X322453Y31750D03*
D17*
X345821Y31750D03*
D47*
X361569Y31750D03*
D37*
X376682Y31750D03*
D17*
X389509Y31750D03*
D47*
X405257Y31750D03*
D17*
X417703Y31750D03*
D34*
X422021Y31750D03*
D14*
X435610Y31750D03*
D32*
X446786Y31750D03*
X184912Y32004D03*
D17*
X194945Y32004D03*
D16*
X207772Y32004D03*
X216408Y32004D03*
D17*
X234315Y32004D03*
D16*
X246634Y32004D03*
D15*
X255905Y32004D03*
D18*
X261112Y32004D03*
D14*
X266700Y32004D03*
D16*
X272288Y32004D03*
X283464Y32004D03*
D18*
X292354Y32004D03*
D17*
X306705Y32004D03*
D47*
X322453Y32004D03*
D17*
X345821Y32004D03*
D47*
X361569Y32004D03*
D23*
X376301Y32004D03*
D17*
X389509Y32004D03*
D47*
X405257Y32004D03*
D17*
X417703Y32004D03*
D21*
X422529Y32004D03*
D14*
X435610Y32004D03*
D32*
X447040Y32004D03*
X184658Y32258D03*
D17*
X194945Y32258D03*
X207899Y32258D03*
D16*
X216408Y32258D03*
D17*
X234315Y32258D03*
D16*
X246634Y32258D03*
D15*
X255905Y32258D03*
D18*
X260858Y32258D03*
D15*
X266827Y32258D03*
D16*
X272288Y32258D03*
X283464Y32258D03*
D18*
X292354Y32258D03*
D17*
X306705Y32258D03*
D47*
X322453Y32258D03*
D17*
X345821Y32258D03*
D47*
X361569Y32258D03*
D23*
X376047Y32258D03*
D17*
X389509Y32258D03*
D47*
X405257Y32258D03*
D16*
X417576Y32258D03*
D21*
X423037Y32258D03*
D14*
X435610Y32258D03*
D48*
X447167Y32258D03*
X184531Y32512D03*
D17*
X194945Y32512D03*
D16*
X208026Y32512D03*
X216408Y32512D03*
D17*
X234315Y32512D03*
D16*
X246634Y32512D03*
D15*
X255905Y32512D03*
D18*
X260858Y32512D03*
D14*
X266954Y32512D03*
D16*
X272288Y32512D03*
X283718Y32512D03*
D18*
X292354Y32512D03*
D17*
X306705Y32512D03*
D47*
X322453Y32512D03*
D17*
X345821Y32512D03*
D47*
X361569Y32512D03*
D26*
X375666Y32512D03*
D17*
X389509Y32512D03*
D47*
X405257Y32512D03*
D16*
X417576Y32512D03*
D20*
X423418Y32512D03*
D14*
X435610Y32512D03*
D48*
X447421Y32512D03*
X184277Y32766D03*
D17*
X194945Y32766D03*
D16*
X208026Y32766D03*
X216408Y32766D03*
D17*
X234315Y32766D03*
D16*
X246634Y32766D03*
D15*
X255905Y32766D03*
D17*
X260731Y32766D03*
D15*
X267081Y32766D03*
D16*
X272288Y32766D03*
X283972Y32766D03*
D18*
X292100Y32766D03*
D17*
X306705Y32766D03*
D47*
X322453Y32766D03*
D17*
X345821Y32766D03*
D47*
X361569Y32766D03*
D26*
X375412Y32766D03*
D17*
X389509Y32766D03*
D47*
X405257Y32766D03*
D16*
X417576Y32766D03*
D19*
X423799Y32766D03*
D14*
X435610Y32766D03*
D48*
X447421Y32766D03*
X184277Y33020D03*
D16*
X194818Y33020D03*
D17*
X208153Y33020D03*
D16*
X216408Y33020D03*
D17*
X234315Y33020D03*
D16*
X246634Y33020D03*
D15*
X255905Y33020D03*
D18*
X260604Y33020D03*
D14*
X267208Y33020D03*
D16*
X272288Y33020D03*
X283972Y33020D03*
D18*
X292100Y33020D03*
D17*
X306705Y33020D03*
D47*
X322453Y33020D03*
D17*
X345821Y33020D03*
D47*
X361569Y33020D03*
D26*
X374904Y33020D03*
D17*
X389509Y33020D03*
D47*
X405257Y33020D03*
D16*
X417576Y33020D03*
D19*
X424053Y33020D03*
D14*
X435610Y33020D03*
D48*
X447675Y33020D03*
X184023Y33274D03*
D16*
X194818Y33274D03*
X208280Y33274D03*
X216408Y33274D03*
D17*
X234315Y33274D03*
D16*
X246634Y33274D03*
D15*
X256159Y33274D03*
D17*
X260477Y33274D03*
D15*
X267335Y33274D03*
D17*
X272161Y33274D03*
D16*
X284226Y33274D03*
D18*
X291846Y33274D03*
D17*
X306705Y33274D03*
D30*
X319786Y33274D03*
D40*
X324866Y33274D03*
D17*
X345821Y33274D03*
D30*
X358902Y33274D03*
D40*
X363982Y33274D03*
D24*
X374269Y33274D03*
D17*
X389509Y33274D03*
D30*
X402590Y33274D03*
D40*
X407670Y33274D03*
D16*
X417576Y33274D03*
D18*
X424434Y33274D03*
D14*
X435610Y33274D03*
D48*
X447675Y33274D03*
X184023Y33528D03*
D16*
X194818Y33528D03*
X208280Y33528D03*
X216408Y33528D03*
D17*
X234315Y33528D03*
D16*
X246634Y33528D03*
D15*
X256159Y33528D03*
D18*
X260350Y33528D03*
D14*
X267462Y33528D03*
D16*
X272034Y33528D03*
X284226Y33528D03*
D18*
X291846Y33528D03*
D17*
X306705Y33528D03*
D18*
X319278Y33528D03*
D14*
X326136Y33528D03*
D17*
X345821Y33528D03*
D18*
X358394Y33528D03*
D14*
X365252Y33528D03*
D24*
X374015Y33528D03*
D17*
X389509Y33528D03*
D18*
X402082Y33528D03*
D14*
X408940Y33528D03*
D16*
X417576Y33528D03*
D18*
X424688Y33528D03*
D15*
X435737Y33528D03*
D46*
X447675Y33528D03*
X184023Y33782D03*
D16*
X194818Y33782D03*
D17*
X208407Y33782D03*
D16*
X216408Y33782D03*
D17*
X234315Y33782D03*
D16*
X246634Y33782D03*
D15*
X256159Y33782D03*
D17*
X260223Y33782D03*
D15*
X267589Y33782D03*
D16*
X272034Y33782D03*
X284480Y33782D03*
D17*
X291719Y33782D03*
X306705Y33782D03*
D18*
X319278Y33782D03*
D17*
X345821Y33782D03*
D18*
X358394Y33782D03*
D40*
X373634Y33782D03*
D17*
X389509Y33782D03*
D18*
X402082Y33782D03*
D16*
X417576Y33782D03*
D17*
X424815Y33782D03*
D15*
X435737Y33782D03*
D46*
X447675Y33782D03*
X184023Y34036D03*
D16*
X194818Y34036D03*
D17*
X208407Y34036D03*
D16*
X216408Y34036D03*
D17*
X234315Y34036D03*
D16*
X246634Y34036D03*
D15*
X256159Y34036D03*
D18*
X260096Y34036D03*
D14*
X267716Y34036D03*
D16*
X272034Y34036D03*
X284734Y34036D03*
D18*
X291592Y34036D03*
D17*
X306705Y34036D03*
X319151Y34036D03*
X345821Y34036D03*
X358267Y34036D03*
D30*
X373380Y34036D03*
D17*
X389509Y34036D03*
X401955Y34036D03*
D16*
X417576Y34036D03*
D18*
X424942Y34036D03*
D15*
X435737Y34036D03*
D31*
X447675Y34036D03*
X184023Y34290D03*
D16*
X194818Y34290D03*
X208534Y34290D03*
X216408Y34290D03*
D17*
X234315Y34290D03*
D16*
X246634Y34290D03*
D15*
X256159Y34290D03*
D18*
X260096Y34290D03*
D15*
X267843Y34290D03*
D16*
X272034Y34290D03*
X284734Y34290D03*
D17*
X291465Y34290D03*
X306705Y34290D03*
X319151Y34290D03*
X345821Y34290D03*
X358267Y34290D03*
D30*
X373126Y34290D03*
D17*
X389509Y34290D03*
X401955Y34290D03*
D16*
X417576Y34290D03*
D17*
X425069Y34290D03*
D16*
X435610Y34290D03*
D25*
X447548Y34290D03*
X184150Y34544D03*
D16*
X194818Y34544D03*
X208534Y34544D03*
X216408Y34544D03*
D17*
X234315Y34544D03*
D16*
X246634Y34544D03*
D15*
X256413Y34544D03*
D17*
X259969Y34544D03*
D14*
X267970Y34544D03*
D16*
X272034Y34544D03*
X284988Y34544D03*
D18*
X291338Y34544D03*
D17*
X306705Y34544D03*
X319151Y34544D03*
X345821Y34544D03*
X358267Y34544D03*
D21*
X372745Y34544D03*
D17*
X389509Y34544D03*
X401955Y34544D03*
D16*
X417576Y34544D03*
D18*
X425196Y34544D03*
D16*
X435610Y34544D03*
D26*
X447548Y34544D03*
X184150Y34798D03*
D16*
X194818Y34798D03*
D17*
X208661Y34798D03*
D16*
X216408Y34798D03*
D17*
X234315Y34798D03*
D16*
X246634Y34798D03*
D15*
X256413Y34798D03*
D18*
X259842Y34798D03*
D15*
X268097Y34798D03*
D16*
X272034Y34798D03*
X284988Y34798D03*
D18*
X291338Y34798D03*
D17*
X306705Y34798D03*
X319151Y34798D03*
X345821Y34798D03*
X358267Y34798D03*
D20*
X372618Y34798D03*
D17*
X389509Y34798D03*
X401955Y34798D03*
D16*
X417576Y34798D03*
D17*
X425323Y34798D03*
D16*
X435610Y34798D03*
D23*
X447421Y34798D03*
X184277Y35052D03*
D17*
X194691Y35052D03*
X208661Y35052D03*
D16*
X216408Y35052D03*
D17*
X234315Y35052D03*
D16*
X246634Y35052D03*
D15*
X256413Y35052D03*
D18*
X259842Y35052D03*
D14*
X268224Y35052D03*
D16*
X272034Y35052D03*
X285242Y35052D03*
D17*
X291211Y35052D03*
X306705Y35052D03*
D16*
X319024Y35052D03*
D17*
X345821Y35052D03*
D16*
X358140Y35052D03*
D19*
X372491Y35052D03*
D17*
X389509Y35052D03*
D16*
X401828Y35052D03*
D17*
X417703Y35052D03*
X425323Y35052D03*
D16*
X435610Y35052D03*
D37*
X447548Y35052D03*
X184150Y35306D03*
D17*
X194691Y35306D03*
X208661Y35306D03*
D16*
X216408Y35306D03*
D17*
X234315Y35306D03*
D16*
X246634Y35306D03*
D15*
X256413Y35306D03*
D19*
X259715Y35306D03*
D15*
X268351Y35306D03*
D16*
X272034Y35306D03*
X285242Y35306D03*
D18*
X291084Y35306D03*
D17*
X306705Y35306D03*
D16*
X319024Y35306D03*
D17*
X345821Y35306D03*
D16*
X358140Y35306D03*
D19*
X372237Y35306D03*
D17*
X389509Y35306D03*
D16*
X401828Y35306D03*
D17*
X417703Y35306D03*
D18*
X425450Y35306D03*
D16*
X435610Y35306D03*
D23*
X447675Y35306D03*
X184023Y35560D03*
D17*
X194691Y35560D03*
D18*
X208788Y35560D03*
D16*
X216408Y35560D03*
D17*
X234315Y35560D03*
D16*
X246634Y35560D03*
D15*
X256413Y35560D03*
D18*
X259588Y35560D03*
D14*
X268478Y35560D03*
D16*
X271780Y35560D03*
X285496Y35560D03*
D17*
X290957Y35560D03*
X306705Y35560D03*
D16*
X319024Y35560D03*
D17*
X345821Y35560D03*
D16*
X358140Y35560D03*
D18*
X372110Y35560D03*
D17*
X389509Y35560D03*
D16*
X401828Y35560D03*
D17*
X417703Y35560D03*
X425577Y35560D03*
D16*
X435610Y35560D03*
D23*
X447929Y35560D03*
X183769Y35814D03*
D17*
X194691Y35814D03*
X208915Y35814D03*
D16*
X216408Y35814D03*
D17*
X234315Y35814D03*
D16*
X246634Y35814D03*
D15*
X256667Y35814D03*
D19*
X259461Y35814D03*
D15*
X268605Y35814D03*
D16*
X271780Y35814D03*
D17*
X285623Y35814D03*
D18*
X290830Y35814D03*
D17*
X306705Y35814D03*
D16*
X319024Y35814D03*
D17*
X345821Y35814D03*
D16*
X358140Y35814D03*
D17*
X371983Y35814D03*
X389509Y35814D03*
D16*
X401828Y35814D03*
D17*
X417703Y35814D03*
X425577Y35814D03*
D16*
X435610Y35814D03*
D26*
X448056Y35814D03*
X183642Y36068D03*
D17*
X194691Y36068D03*
X208915Y36068D03*
X216535Y36068D03*
X234315Y36068D03*
D16*
X246634Y36068D03*
D15*
X256667Y36068D03*
D18*
X259334Y36068D03*
D15*
X268605Y36068D03*
D16*
X271780Y36068D03*
X285750Y36068D03*
D17*
X290703Y36068D03*
X306705Y36068D03*
D16*
X319024Y36068D03*
D17*
X345821Y36068D03*
D16*
X358140Y36068D03*
D17*
X371983Y36068D03*
X389509Y36068D03*
D16*
X401828Y36068D03*
D17*
X417703Y36068D03*
X425577Y36068D03*
D16*
X435610Y36068D03*
D26*
X448310Y36068D03*
X183388Y36322D03*
D17*
X194691Y36322D03*
D16*
X209042Y36322D03*
D17*
X216535Y36322D03*
X234315Y36322D03*
D16*
X246634Y36322D03*
D23*
X258191Y36322D03*
D15*
X268859Y36322D03*
D16*
X271780Y36322D03*
D17*
X285877Y36322D03*
X290703Y36322D03*
X306705Y36322D03*
D16*
X319024Y36322D03*
D17*
X345821Y36322D03*
D16*
X358140Y36322D03*
X371856Y36322D03*
D17*
X389509Y36322D03*
D16*
X401828Y36322D03*
D17*
X417703Y36322D03*
X425577Y36322D03*
D16*
X435610Y36322D03*
D26*
X448310Y36322D03*
X183388Y36576D03*
D17*
X194691Y36576D03*
X209169Y36576D03*
X216535Y36576D03*
X234315Y36576D03*
D16*
X246634Y36576D03*
D37*
X258064Y36576D03*
D15*
X268859Y36576D03*
D16*
X271780Y36576D03*
X286004Y36576D03*
D18*
X290576Y36576D03*
D17*
X306705Y36576D03*
D16*
X319024Y36576D03*
D17*
X345821Y36576D03*
D16*
X358140Y36576D03*
X371856Y36576D03*
D17*
X389509Y36576D03*
D16*
X401828Y36576D03*
D17*
X417703Y36576D03*
X425577Y36576D03*
D16*
X435610Y36576D03*
D26*
X448564Y36576D03*
X183134Y36830D03*
D17*
X194691Y36830D03*
X209169Y36830D03*
X216535Y36830D03*
D18*
X234442Y36830D03*
D16*
X246634Y36830D03*
D37*
X258064Y36830D03*
D15*
X269113Y36830D03*
D16*
X271780Y36830D03*
X286258Y36830D03*
D17*
X290449Y36830D03*
D18*
X306832Y36830D03*
D16*
X319024Y36830D03*
D18*
X345948Y36830D03*
D16*
X358140Y36830D03*
X371856Y36830D03*
D18*
X389636Y36830D03*
D16*
X401828Y36830D03*
D17*
X417703Y36830D03*
X425577Y36830D03*
D16*
X435610Y36830D03*
D44*
X448691Y36830D03*
X183007Y37084D03*
D17*
X194691Y37084D03*
X209169Y37084D03*
X216535Y37084D03*
D18*
X234442Y37084D03*
D16*
X246634Y37084D03*
D40*
X258064Y37084D03*
D15*
X269113Y37084D03*
D17*
X271653Y37084D03*
D16*
X286258Y37084D03*
D18*
X290322Y37084D03*
X306832Y37084D03*
D17*
X319151Y37084D03*
D18*
X345948Y37084D03*
D17*
X358267Y37084D03*
D16*
X371856Y37084D03*
D18*
X389636Y37084D03*
D17*
X401955Y37084D03*
X417703Y37084D03*
X425577Y37084D03*
D16*
X435610Y37084D03*
D25*
X448818Y37084D03*
X182880Y37338D03*
D18*
X194564Y37338D03*
D16*
X209296Y37338D03*
D17*
X216535Y37338D03*
D18*
X234442Y37338D03*
D17*
X246507Y37338D03*
D40*
X258064Y37338D03*
D37*
X270510Y37338D03*
D16*
X286512Y37338D03*
D17*
X290195Y37338D03*
D18*
X306832Y37338D03*
D17*
X319151Y37338D03*
D18*
X345948Y37338D03*
D17*
X358267Y37338D03*
D16*
X371856Y37338D03*
D18*
X389636Y37338D03*
D17*
X401955Y37338D03*
X417703Y37338D03*
D18*
X425450Y37338D03*
D16*
X435610Y37338D03*
D29*
X448818Y37338D03*
X182880Y37592D03*
D18*
X194564Y37592D03*
D17*
X209423Y37592D03*
X216535Y37592D03*
D18*
X234442Y37592D03*
X246634Y37592D03*
D34*
X257937Y37592D03*
D24*
X270637Y37592D03*
D15*
X286639Y37592D03*
D18*
X290068Y37592D03*
X306832Y37592D03*
D17*
X319151Y37592D03*
D18*
X345948Y37592D03*
D17*
X358267Y37592D03*
X371983Y37592D03*
D18*
X389636Y37592D03*
D17*
X401955Y37592D03*
X417703Y37592D03*
D18*
X425450Y37592D03*
D16*
X435610Y37592D03*
D32*
X448818Y37592D03*
X182880Y37846D03*
D18*
X194564Y37846D03*
D17*
X209423Y37846D03*
X216535Y37846D03*
D18*
X234442Y37846D03*
X246634Y37846D03*
D34*
X257937Y37846D03*
D40*
X270510Y37846D03*
D16*
X286766Y37846D03*
D18*
X290068Y37846D03*
X306832Y37846D03*
D17*
X319151Y37846D03*
D18*
X345948Y37846D03*
D17*
X358267Y37846D03*
D16*
X372110Y37846D03*
D18*
X389636Y37846D03*
D17*
X401955Y37846D03*
X417703Y37846D03*
X425323Y37846D03*
D16*
X435610Y37846D03*
D48*
X448691Y37846D03*
X183007Y38100D03*
D18*
X194564Y38100D03*
D17*
X209423Y38100D03*
X216535Y38100D03*
D18*
X234442Y38100D03*
X246634Y38100D03*
D30*
X257810Y38100D03*
D34*
X270637Y38100D03*
D16*
X287020Y38100D03*
D18*
X289814Y38100D03*
X306832Y38100D03*
D17*
X319151Y38100D03*
D18*
X345948Y38100D03*
D17*
X358267Y38100D03*
X372237Y38100D03*
D18*
X389636Y38100D03*
D17*
X401955Y38100D03*
X417703Y38100D03*
D18*
X425196Y38100D03*
D16*
X435610Y38100D03*
D33*
X448818Y38100D03*
X182880Y38354D03*
D18*
X194564Y38354D03*
D17*
X209423Y38354D03*
X216535Y38354D03*
D18*
X234442Y38354D03*
X246634Y38354D03*
D30*
X257810Y38354D03*
D34*
X270637Y38354D03*
D15*
X287147Y38354D03*
D18*
X289814Y38354D03*
X306832Y38354D03*
D17*
X319151Y38354D03*
D18*
X345948Y38354D03*
D17*
X358267Y38354D03*
X372237Y38354D03*
D18*
X389636Y38354D03*
D17*
X401955Y38354D03*
X417703Y38354D03*
D18*
X425196Y38354D03*
D16*
X435610Y38354D03*
D35*
X448945Y38354D03*
X182753Y38608D03*
D18*
X194564Y38608D03*
D17*
X209677Y38608D03*
X216535Y38608D03*
D18*
X234442Y38608D03*
X246634Y38608D03*
D30*
X257810Y38608D03*
X270764Y38608D03*
D37*
X288544Y38608D03*
D18*
X306832Y38608D03*
D17*
X319151Y38608D03*
D18*
X345948Y38608D03*
D17*
X358267Y38608D03*
X372491Y38608D03*
D18*
X389636Y38608D03*
D17*
X401955Y38608D03*
X417703Y38608D03*
D18*
X424942Y38608D03*
X435610Y38608D03*
D35*
X449199Y38608D03*
X182499Y38862D03*
D18*
X194564Y38862D03*
D17*
X209677Y38862D03*
D18*
X216408Y38862D03*
D19*
X234315Y38862D03*
D18*
X246634Y38862D03*
D21*
X257683Y38862D03*
D30*
X270764Y38862D03*
D24*
X288671Y38862D03*
D19*
X306705Y38862D03*
D17*
X319151Y38862D03*
D19*
X345821Y38862D03*
D17*
X358267Y38862D03*
D18*
X372618Y38862D03*
D19*
X389509Y38862D03*
D17*
X401955Y38862D03*
X417703Y38862D03*
D18*
X424942Y38862D03*
X435610Y38862D03*
D36*
X449326Y38862D03*
X182372Y39116D03*
D19*
X194437Y39116D03*
D17*
X209677Y39116D03*
D18*
X216408Y39116D03*
D19*
X234315Y39116D03*
D18*
X246634Y39116D03*
D21*
X257683Y39116D03*
X270891Y39116D03*
D40*
X288798Y39116D03*
D19*
X306705Y39116D03*
D18*
X319278Y39116D03*
D19*
X345821Y39116D03*
D18*
X358394Y39116D03*
X372872Y39116D03*
D19*
X389509Y39116D03*
D18*
X402082Y39116D03*
D17*
X417703Y39116D03*
D18*
X424688Y39116D03*
X435610Y39116D03*
D36*
X449326Y39116D03*
X182372Y39370D03*
D20*
X194310Y39370D03*
D17*
X209677Y39370D03*
D18*
X216408Y39370D03*
D20*
X234442Y39370D03*
D18*
X246634Y39370D03*
D21*
X257683Y39370D03*
X270891Y39370D03*
D34*
X288671Y39370D03*
D20*
X306832Y39370D03*
D18*
X319278Y39370D03*
D20*
X345948Y39370D03*
D18*
X358394Y39370D03*
D19*
X373253Y39370D03*
D13*
X378841Y39370D03*
D20*
X389636Y39370D03*
D18*
X402082Y39370D03*
X417576Y39370D03*
D20*
X424434Y39370D03*
D18*
X435610Y39370D03*
D36*
X449580Y39370D03*
X182118Y39624D03*
D20*
X194310Y39624D03*
D17*
X209677Y39624D03*
D18*
X216408Y39624D03*
D20*
X228854Y39624D03*
X234442Y39624D03*
D21*
X241681Y39624D03*
D20*
X246634Y39624D03*
X257556Y39624D03*
X271018Y39624D03*
D30*
X288798Y39624D03*
D20*
X301244Y39624D03*
X306832Y39624D03*
D21*
X314071Y39624D03*
D18*
X319278Y39624D03*
D16*
X327914Y39624D03*
D20*
X340360Y39624D03*
X345948Y39624D03*
D21*
X353187Y39624D03*
D18*
X358394Y39624D03*
D16*
X367030Y39624D03*
D20*
X373634Y39624D03*
D14*
X378714Y39624D03*
D20*
X384048Y39624D03*
X389636Y39624D03*
D21*
X396875Y39624D03*
D18*
X402082Y39624D03*
D16*
X410718Y39624D03*
D18*
X417576Y39624D03*
D20*
X424180Y39624D03*
D18*
X435610Y39624D03*
D41*
X449707Y39624D03*
X181991Y39878D03*
D21*
X194437Y39878D03*
D19*
X209677Y39878D03*
X216535Y39878D03*
D30*
X228854Y39878D03*
X234442Y39878D03*
D34*
X241427Y39878D03*
D20*
X246634Y39878D03*
X257556Y39878D03*
X271018Y39878D03*
D30*
X288798Y39878D03*
X301244Y39878D03*
X306832Y39878D03*
D34*
X313817Y39878D03*
D20*
X319278Y39878D03*
D30*
X327406Y39878D03*
X340360Y39878D03*
X345948Y39878D03*
D34*
X352933Y39878D03*
D20*
X358394Y39878D03*
D30*
X366522Y39878D03*
D40*
X374142Y39878D03*
D16*
X378714Y39878D03*
D30*
X384048Y39878D03*
X389636Y39878D03*
D34*
X396621Y39878D03*
D20*
X402082Y39878D03*
D30*
X410210Y39878D03*
D19*
X417703Y39878D03*
D30*
X423672Y39878D03*
D18*
X435610Y39878D03*
D38*
X449834Y39878D03*
X181864Y40132D03*
D21*
X194437Y40132D03*
D20*
X209804Y40132D03*
X216408Y40132D03*
D49*
X235331Y40132D03*
D20*
X246634Y40132D03*
X257556Y40132D03*
X271018Y40132D03*
X288798Y40132D03*
D49*
X307721Y40132D03*
D27*
X323469Y40132D03*
D49*
X346837Y40132D03*
D27*
X362585Y40132D03*
D33*
X376174Y40132D03*
D49*
X390525Y40132D03*
D27*
X406273Y40132D03*
D20*
X417830Y40132D03*
D40*
X423164Y40132D03*
D18*
X435610Y40132D03*
D38*
X450088Y40132D03*
X181610Y40386D03*
D21*
X194437Y40386D03*
D20*
X209804Y40386D03*
X216408Y40386D03*
D49*
X235331Y40386D03*
D20*
X246634Y40386D03*
X257556Y40386D03*
D19*
X271145Y40386D03*
D20*
X288798Y40386D03*
D49*
X307721Y40386D03*
D28*
X323596Y40386D03*
D49*
X346837Y40386D03*
D28*
X362712Y40386D03*
D48*
X376301Y40386D03*
D49*
X390525Y40386D03*
D28*
X406400Y40386D03*
D50*
X420624Y40386D03*
D18*
X435610Y40386D03*
D38*
X450088Y40386D03*
X181610Y40640D03*
D21*
X194437Y40640D03*
D20*
X209804Y40640D03*
X216408Y40640D03*
D49*
X235331Y40640D03*
D20*
X246634Y40640D03*
D19*
X257429Y40640D03*
X271145Y40640D03*
X288671Y40640D03*
D49*
X307721Y40640D03*
D28*
X323596Y40640D03*
D49*
X346837Y40640D03*
D28*
X362712Y40640D03*
D46*
X376555Y40640D03*
D49*
X390525Y40640D03*
D28*
X406400Y40640D03*
D38*
X420370Y40640D03*
D18*
X435610Y40640D03*
D51*
X450215Y40640D03*
X181483Y40894D03*
D21*
X194437Y40894D03*
D20*
X209804Y40894D03*
X216408Y40894D03*
D49*
X235331Y40894D03*
D19*
X246761Y40894D03*
D17*
X257429Y40894D03*
D19*
X271145Y40894D03*
D17*
X288925Y40894D03*
D49*
X307721Y40894D03*
D28*
X323596Y40894D03*
D49*
X346837Y40894D03*
D28*
X362712Y40894D03*
D29*
X376682Y40894D03*
D49*
X390525Y40894D03*
D28*
X406400Y40894D03*
D36*
X420116Y40894D03*
D18*
X435610Y40894D03*
D38*
X450342Y40894D03*
X181356Y41148D03*
D19*
X194437Y41148D03*
D20*
X209804Y41148D03*
D19*
X216281Y41148D03*
D49*
X235331Y41148D03*
D18*
X246888Y41148D03*
D17*
X257429Y41148D03*
D18*
X271272Y41148D03*
D17*
X288925Y41148D03*
D49*
X307721Y41148D03*
D28*
X323596Y41148D03*
D49*
X346837Y41148D03*
D28*
X362712Y41148D03*
D44*
X377063Y41148D03*
D49*
X390525Y41148D03*
D28*
X406400Y41148D03*
D33*
X419862Y41148D03*
D18*
X435610Y41148D03*
D41*
X450215Y41148D03*
X181483Y41402D03*
D15*
X194691Y41402D03*
D18*
X209550Y41402D03*
X216154Y41402D03*
D52*
X235458Y41402D03*
D16*
X246888Y41402D03*
D17*
X257429Y41402D03*
D18*
X271272Y41402D03*
D16*
X288798Y41402D03*
D52*
X307848Y41402D03*
D27*
X323723Y41402D03*
D52*
X346964Y41402D03*
D27*
X362839Y41402D03*
D37*
X377444Y41402D03*
D52*
X390652Y41402D03*
D27*
X406527Y41402D03*
D46*
X419481Y41402D03*
D19*
X435737Y41402D03*
D36*
X450088Y41402D03*
X181610Y41656D03*
D22*
X194945Y41656D03*
D14*
X209804Y41656D03*
D16*
X216154Y41656D03*
D19*
X228727Y41656D03*
D15*
X235077Y41656D03*
D17*
X242189Y41656D03*
D13*
X247015Y41656D03*
D15*
X257429Y41656D03*
D17*
X271399Y41656D03*
D16*
X288798Y41656D03*
D19*
X301117Y41656D03*
D15*
X307467Y41656D03*
D17*
X314579Y41656D03*
D15*
X319913Y41656D03*
D17*
X328041Y41656D03*
D19*
X340233Y41656D03*
D15*
X346583Y41656D03*
D17*
X353695Y41656D03*
D15*
X359029Y41656D03*
D17*
X367157Y41656D03*
D21*
X377571Y41656D03*
D19*
X383921Y41656D03*
D15*
X390271Y41656D03*
D17*
X397383Y41656D03*
D15*
X402717Y41656D03*
D17*
X410845Y41656D03*
D40*
X419354Y41656D03*
D19*
X435737Y41656D03*
D33*
X450088Y41656D03*
X181610Y41910D03*
D14*
X228092Y41910D03*
D13*
X235077Y41910D03*
X257429Y41910D03*
D17*
X271399Y41910D03*
D15*
X288925Y41910D03*
D14*
X300482Y41910D03*
D13*
X307467Y41910D03*
D14*
X339598Y41910D03*
D13*
X346583Y41910D03*
D22*
X376809Y41910D03*
D14*
X383286Y41910D03*
D13*
X390271Y41910D03*
D19*
X435737Y41910D03*
D48*
X449961Y41910D03*
X181737Y42164D03*
D15*
X271399Y42164D03*
D14*
X289052Y42164D03*
D18*
X435864Y42164D03*
D32*
X449834Y42164D03*
X181864Y42418D03*
D13*
X271653Y42418D03*
D12*
X289306Y42418D03*
D18*
X435864Y42418D03*
D29*
X449834Y42418D03*
X181864Y42672D03*
D16*
X436118Y42672D03*
D31*
X449707Y42672D03*
X181991Y42926D03*
D14*
X436372Y42926D03*
D25*
X449580Y42926D03*
X182118Y43180D03*
D44*
X449707Y43180D03*
X181991Y43434D03*
D26*
X449580Y43434D03*
X182118Y43688D03*
D23*
X449453Y43688D03*
X182245Y43942D03*
D24*
X449453Y43942D03*
X182245Y44196D03*
D40*
X449326Y44196D03*
X182372Y44450D03*
D34*
X449199Y44450D03*
X182499Y44704D03*
D21*
X449199Y44704D03*
X182499Y44958D03*
D20*
X449072Y44958D03*
X182626Y45212D03*
D19*
X448945Y45212D03*
X182753Y45466D03*
D17*
X448945Y45466D03*
X182753Y45720D03*
D16*
X448818Y45720D03*
X182880Y45974D03*
D15*
X448691Y45974D03*
X183007Y46228D03*
D13*
X448691Y46228D03*
X183007Y46482D03*
D12*
X448564Y46482D03*
X183134Y46736D03*
D11*
X448564Y46736D03*
X183134Y46990D03*
D53*
X270740Y206780D03*
X221940Y206780D03*
D54*
X626854Y222774D02*
X634534Y222774D01*
X634534Y215094D01*
X626854Y215094D01*
X626854Y222774D01*
X614534Y222774D02*
X606854Y222774D01*
X614534Y222774D02*
X614534Y215094D01*
X606854Y215094D01*
X606854Y222774D01*
X417592Y287096D02*
X409912Y287096D01*
X409912Y294776D01*
X417592Y294776D01*
X417592Y287096D01*
X429912Y287096D02*
X437592Y287096D01*
X429912Y287096D02*
X429912Y294776D01*
X437592Y294776D01*
X437592Y287096D01*
X279684Y348364D02*
X279684Y356044D01*
X279684Y348364D02*
X272004Y348364D01*
X272004Y356044D01*
X279684Y356044D01*
X279684Y368364D02*
X279684Y376044D01*
X279684Y368364D02*
X272004Y368364D01*
X272004Y376044D01*
X279684Y376044D01*
X310960Y384332D02*
X318640Y384332D01*
X318640Y376652D01*
X310960Y376652D01*
X310960Y384332D01*
X298640Y384332D02*
X290960Y384332D01*
X298640Y384332D02*
X298640Y376652D01*
X290960Y376652D01*
X290960Y384332D01*
X254986Y376298D02*
X254986Y368618D01*
X254986Y376298D02*
X262666Y376298D01*
X262666Y368618D01*
X254986Y368618D01*
X254986Y356298D02*
X254986Y348618D01*
X254986Y356298D02*
X262666Y356298D01*
X262666Y348618D01*
X254986Y348618D01*
X244640Y147480D02*
X244640Y139800D01*
X236960Y139800D01*
X236960Y147480D01*
X244640Y147480D01*
X244640Y159800D02*
X244640Y167480D01*
X244640Y159800D02*
X236960Y159800D01*
X236960Y167480D01*
X244640Y167480D01*
X278170Y147148D02*
X278170Y139468D01*
X270490Y139468D01*
X270490Y147148D01*
X278170Y147148D01*
X278170Y159468D02*
X278170Y167148D01*
X278170Y159468D02*
X270490Y159468D01*
X270490Y167148D01*
X278170Y167148D01*
X430360Y273620D02*
X438040Y273620D01*
X438040Y265940D01*
X430360Y265940D01*
X430360Y273620D01*
X418040Y273620D02*
X410360Y273620D01*
X418040Y273620D02*
X418040Y265940D01*
X410360Y265940D01*
X410360Y273620D01*
X278200Y289580D02*
X278200Y297260D01*
X278200Y289580D02*
X270520Y289580D01*
X270520Y297260D01*
X278200Y297260D01*
X278200Y309580D02*
X278200Y317260D01*
X278200Y309580D02*
X270520Y309580D01*
X270520Y317260D01*
X278200Y317260D01*
D55*
X77485Y425340D02*
X64675Y425340D01*
X64675Y440180D01*
X77485Y440180D01*
X77485Y425340D01*
X77485Y433120D02*
X64675Y433120D01*
X49045Y425340D02*
X36235Y425340D01*
X36235Y440180D01*
X49045Y440180D01*
X49045Y425340D01*
X49045Y433120D02*
X36235Y433120D01*
D56*
X643820Y443680D03*
X643820Y469080D03*
X643820Y494480D03*
X618420Y443680D03*
X618420Y469080D03*
X618420Y494480D03*
D55*
X316701Y75664D02*
X303891Y75664D01*
X316701Y75664D02*
X316701Y60824D01*
X303891Y60824D01*
X303891Y75664D01*
X303891Y68604D02*
X316701Y68604D01*
X332331Y75664D02*
X345141Y75664D01*
X345141Y60824D01*
X332331Y60824D01*
X332331Y75664D01*
X332331Y68604D02*
X345141Y68604D01*
D57*
X500940Y456060D03*
X551740Y456060D03*
X43780Y459420D03*
X63780Y459420D03*
D55*
X495435Y334640D02*
X508245Y334640D01*
X495435Y334640D02*
X495435Y349480D01*
X508245Y349480D01*
X508245Y334640D01*
X508245Y342420D02*
X495435Y342420D01*
X479805Y334640D02*
X466995Y334640D01*
X466995Y349480D01*
X479805Y349480D01*
X479805Y334640D01*
X479805Y342420D02*
X466995Y342420D01*
D54*
X646160Y19840D02*
X653840Y19840D01*
X653840Y12160D01*
X646160Y12160D01*
X646160Y19840D01*
X633840Y19840D02*
X626160Y19840D01*
X633840Y19840D02*
X633840Y12160D01*
X626160Y12160D01*
X626160Y19840D01*
X626060Y136160D02*
X626060Y143840D01*
X626060Y136160D02*
X618380Y136160D01*
X618380Y143840D01*
X626060Y143840D01*
X626060Y156160D02*
X626060Y163840D01*
X626060Y156160D02*
X618380Y156160D01*
X618380Y163840D01*
X626060Y163840D01*
X628540Y36160D02*
X636220Y36160D01*
X628540Y36160D02*
X628540Y43840D01*
X636220Y43840D01*
X636220Y36160D01*
X648540Y36160D02*
X656220Y36160D01*
X648540Y36160D02*
X648540Y43840D01*
X656220Y43840D01*
X656220Y36160D01*
X641300Y111080D02*
X633620Y111080D01*
X633620Y118760D01*
X641300Y118760D01*
X641300Y111080D01*
X653620Y111080D02*
X661300Y111080D01*
X653620Y111080D02*
X653620Y118760D01*
X661300Y118760D01*
X661300Y111080D01*
X359490Y158832D02*
X351810Y158832D01*
X359490Y158832D02*
X359490Y151152D01*
X351810Y151152D01*
X351810Y158832D01*
X339490Y158832D02*
X331810Y158832D01*
X339490Y158832D02*
X339490Y151152D01*
X331810Y151152D01*
X331810Y158832D01*
X389334Y93678D02*
X397014Y93678D01*
X389334Y93678D02*
X389334Y101358D01*
X397014Y101358D01*
X397014Y93678D01*
X409334Y93678D02*
X417014Y93678D01*
X409334Y93678D02*
X409334Y101358D01*
X417014Y101358D01*
X417014Y93678D01*
X419764Y81224D02*
X427444Y81224D01*
X427444Y73544D01*
X419764Y73544D01*
X419764Y81224D01*
X407444Y81224D02*
X399764Y81224D01*
X407444Y81224D02*
X407444Y73544D01*
X399764Y73544D01*
X399764Y81224D01*
X211044Y268034D02*
X211044Y275714D01*
X218724Y275714D01*
X218724Y268034D01*
X211044Y268034D01*
X211044Y255714D02*
X211044Y248034D01*
X211044Y255714D02*
X218724Y255714D01*
X218724Y248034D01*
X211044Y248034D01*
X195804Y169796D02*
X195804Y162116D01*
X195804Y169796D02*
X203484Y169796D01*
X203484Y162116D01*
X195804Y162116D01*
X195804Y149796D02*
X195804Y142116D01*
X195804Y149796D02*
X203484Y149796D01*
X203484Y142116D01*
X195804Y142116D01*
D55*
X495435Y261940D02*
X508245Y261940D01*
X495435Y261940D02*
X495435Y276780D01*
X508245Y276780D01*
X508245Y261940D01*
X508245Y269720D02*
X495435Y269720D01*
X479805Y261940D02*
X466995Y261940D01*
X466995Y276780D01*
X479805Y276780D01*
X479805Y261940D01*
X479805Y269720D02*
X466995Y269720D01*
D54*
X347188Y468694D02*
X347188Y476374D01*
X354868Y476374D01*
X354868Y468694D01*
X347188Y468694D01*
X347188Y456374D02*
X347188Y448694D01*
X347188Y456374D02*
X354868Y456374D01*
X354868Y448694D01*
X347188Y448694D01*
X284054Y86452D02*
X284054Y78772D01*
X276374Y78772D01*
X276374Y86452D01*
X284054Y86452D01*
X284054Y98772D02*
X284054Y106452D01*
X284054Y98772D02*
X276374Y98772D01*
X276374Y106452D01*
X284054Y106452D01*
X272826Y448948D02*
X272826Y456628D01*
X272826Y448948D02*
X265146Y448948D01*
X265146Y456628D01*
X272826Y456628D01*
X272826Y468948D02*
X272826Y476628D01*
X272826Y468948D02*
X265146Y468948D01*
X265146Y476628D01*
X272826Y476628D01*
X297972Y456628D02*
X297972Y448948D01*
X290292Y448948D01*
X290292Y456628D01*
X297972Y456628D01*
X297972Y468948D02*
X297972Y476628D01*
X297972Y468948D02*
X290292Y468948D01*
X290292Y476628D01*
X297972Y476628D01*
X515180Y496940D02*
X522860Y496940D01*
X522860Y489260D01*
X515180Y489260D01*
X515180Y496940D01*
X502860Y496940D02*
X495180Y496940D01*
X502860Y496940D02*
X502860Y489260D01*
X495180Y489260D01*
X495180Y496940D01*
X555180Y496940D02*
X562860Y496940D01*
X562860Y489260D01*
X555180Y489260D01*
X555180Y496940D01*
X542860Y496940D02*
X535180Y496940D01*
X542860Y496940D02*
X542860Y489260D01*
X535180Y489260D01*
X535180Y496940D01*
D55*
X500625Y186700D02*
X487815Y186700D01*
X487815Y201540D01*
X500625Y201540D01*
X500625Y186700D01*
X500625Y194480D02*
X487815Y194480D01*
X472185Y186700D02*
X459375Y186700D01*
X459375Y201540D01*
X472185Y201540D01*
X472185Y186700D01*
X472185Y194480D02*
X459375Y194480D01*
X495435Y372260D02*
X508245Y372260D01*
X495435Y372260D02*
X495435Y387100D01*
X508245Y387100D01*
X508245Y372260D01*
X508245Y380040D02*
X495435Y380040D01*
X479805Y372260D02*
X466995Y372260D01*
X466995Y387100D01*
X479805Y387100D01*
X479805Y372260D01*
X479805Y380040D02*
X466995Y380040D01*
X495435Y299560D02*
X508245Y299560D01*
X495435Y299560D02*
X495435Y314400D01*
X508245Y314400D01*
X508245Y299560D01*
X508245Y307340D02*
X495435Y307340D01*
X479805Y299560D02*
X466995Y299560D01*
X466995Y314400D01*
X479805Y314400D01*
X479805Y299560D01*
X479805Y307340D02*
X466995Y307340D01*
X487815Y221780D02*
X500625Y221780D01*
X487815Y221780D02*
X487815Y236620D01*
X500625Y236620D01*
X500625Y221780D01*
X500625Y229560D02*
X487815Y229560D01*
X472185Y221780D02*
X459375Y221780D01*
X459375Y236620D01*
X472185Y236620D01*
X472185Y221780D01*
X472185Y229560D02*
X459375Y229560D01*
D57*
X39600Y343280D03*
X39600Y368680D03*
X39600Y394080D03*
D58*
X368284Y114378D02*
X375484Y114378D01*
X368284Y114378D02*
X368284Y118278D01*
X375484Y118278D01*
X375484Y114378D01*
X375484Y133378D02*
X368284Y133378D01*
X368284Y137278D01*
X375484Y137278D01*
X375484Y133378D01*
X356284Y127778D02*
X349084Y127778D01*
X356284Y127778D02*
X356284Y123878D01*
X349084Y123878D01*
X349084Y127778D01*
D57*
X236640Y415380D03*
X262040Y415380D03*
X287440Y415380D03*
X312840Y415380D03*
D59*
X122340Y428080D03*
X427140Y428080D03*
X427140Y143080D03*
D57*
X606218Y257916D03*
X584221Y245216D03*
X562223Y232516D03*
X540226Y219816D03*
X606100Y289120D03*
X580700Y289120D03*
X555300Y289120D03*
X529900Y289120D03*
X606218Y320070D03*
X584221Y332770D03*
X562223Y345470D03*
X540226Y358170D03*
D60*
X204584Y87910D03*
D61*
X210622Y450548D02*
X210622Y467492D01*
X210622Y450548D02*
X194578Y450548D01*
X194578Y467492D01*
X210622Y467492D01*
X210622Y460292D02*
X194578Y460292D01*
X210622Y494348D02*
X210622Y511292D01*
X210622Y494348D02*
X194578Y494348D01*
X194578Y511292D01*
X210622Y511292D01*
X210622Y504092D02*
X194578Y504092D01*
D57*
X21700Y93680D03*
X21700Y133680D03*
X169700Y65680D03*
X169700Y150680D03*
X169700Y190680D03*
X169700Y275680D03*
D62*
X314614Y253552D02*
X318710Y253552D01*
X314614Y253552D02*
X314614Y266848D01*
X318710Y266848D01*
X318710Y253552D01*
X318710Y259637D02*
X314614Y259637D01*
X314614Y265722D02*
X318710Y265722D01*
X322614Y253552D02*
X326710Y253552D01*
X322614Y253552D02*
X322614Y266848D01*
X326710Y266848D01*
X326710Y253552D01*
X326710Y259637D02*
X322614Y259637D01*
X322614Y265722D02*
X326710Y265722D01*
X330614Y253552D02*
X334710Y253552D01*
X330614Y253552D02*
X330614Y266848D01*
X334710Y266848D01*
X334710Y253552D01*
X334710Y259637D02*
X330614Y259637D01*
X330614Y265722D02*
X334710Y265722D01*
X338614Y253552D02*
X342710Y253552D01*
X338614Y253552D02*
X338614Y266848D01*
X342710Y266848D01*
X342710Y253552D01*
X342710Y259637D02*
X338614Y259637D01*
X338614Y265722D02*
X342710Y265722D01*
X346614Y253552D02*
X350710Y253552D01*
X346614Y253552D02*
X346614Y266848D01*
X350710Y266848D01*
X350710Y253552D01*
X350710Y259637D02*
X346614Y259637D01*
X346614Y265722D02*
X350710Y265722D01*
X354614Y253552D02*
X358710Y253552D01*
X354614Y253552D02*
X354614Y266848D01*
X358710Y266848D01*
X358710Y253552D01*
X358710Y259637D02*
X354614Y259637D01*
X354614Y265722D02*
X358710Y265722D01*
X362614Y253552D02*
X366710Y253552D01*
X362614Y253552D02*
X362614Y266848D01*
X366710Y266848D01*
X366710Y253552D01*
X366710Y259637D02*
X362614Y259637D01*
X362614Y265722D02*
X366710Y265722D01*
X370614Y253552D02*
X374710Y253552D01*
X370614Y253552D02*
X370614Y266848D01*
X374710Y266848D01*
X374710Y253552D01*
X374710Y259637D02*
X370614Y259637D01*
X370614Y265722D02*
X374710Y265722D01*
X374710Y336952D02*
X370614Y336952D01*
X370614Y350248D01*
X374710Y350248D01*
X374710Y336952D01*
X374710Y343037D02*
X370614Y343037D01*
X370614Y349122D02*
X374710Y349122D01*
X366710Y336952D02*
X362614Y336952D01*
X362614Y350248D01*
X366710Y350248D01*
X366710Y336952D01*
X366710Y343037D02*
X362614Y343037D01*
X362614Y349122D02*
X366710Y349122D01*
X358710Y336952D02*
X354614Y336952D01*
X354614Y350248D01*
X358710Y350248D01*
X358710Y336952D01*
X358710Y343037D02*
X354614Y343037D01*
X354614Y349122D02*
X358710Y349122D01*
X350710Y336952D02*
X346614Y336952D01*
X346614Y350248D01*
X350710Y350248D01*
X350710Y336952D01*
X350710Y343037D02*
X346614Y343037D01*
X346614Y349122D02*
X350710Y349122D01*
X342710Y336952D02*
X338614Y336952D01*
X338614Y350248D01*
X342710Y350248D01*
X342710Y336952D01*
X342710Y343037D02*
X338614Y343037D01*
X338614Y349122D02*
X342710Y349122D01*
X334710Y336952D02*
X330614Y336952D01*
X330614Y350248D01*
X334710Y350248D01*
X334710Y336952D01*
X334710Y343037D02*
X330614Y343037D01*
X330614Y349122D02*
X334710Y349122D01*
X326710Y336952D02*
X322614Y336952D01*
X322614Y350248D01*
X326710Y350248D01*
X326710Y336952D01*
X326710Y343037D02*
X322614Y343037D01*
X322614Y349122D02*
X326710Y349122D01*
X318710Y336952D02*
X314614Y336952D01*
X314614Y350248D01*
X318710Y350248D01*
X318710Y336952D01*
X318710Y343037D02*
X314614Y343037D01*
X314614Y349122D02*
X318710Y349122D01*
X309610Y327852D02*
X296314Y327852D01*
X296314Y331948D01*
X309610Y331948D01*
X309610Y327852D01*
X309610Y319852D02*
X296314Y319852D01*
X296314Y323948D01*
X309610Y323948D01*
X309610Y319852D01*
X309610Y311852D02*
X296314Y311852D01*
X296314Y315948D01*
X309610Y315948D01*
X309610Y311852D01*
X309610Y303852D02*
X296314Y303852D01*
X296314Y307948D01*
X309610Y307948D01*
X309610Y303852D01*
X309610Y295852D02*
X296314Y295852D01*
X296314Y299948D01*
X309610Y299948D01*
X309610Y295852D01*
X309610Y287852D02*
X296314Y287852D01*
X296314Y291948D01*
X309610Y291948D01*
X309610Y287852D01*
X309610Y279852D02*
X296314Y279852D01*
X296314Y283948D01*
X309610Y283948D01*
X309610Y279852D01*
X309610Y271852D02*
X296314Y271852D01*
X296314Y275948D01*
X309610Y275948D01*
X309610Y271852D01*
X379714Y271852D02*
X393010Y271852D01*
X379714Y271852D02*
X379714Y275948D01*
X393010Y275948D01*
X393010Y271852D01*
X393010Y279852D02*
X379714Y279852D01*
X379714Y283948D01*
X393010Y283948D01*
X393010Y279852D01*
X393010Y287852D02*
X379714Y287852D01*
X379714Y291948D01*
X393010Y291948D01*
X393010Y287852D01*
X393010Y295852D02*
X379714Y295852D01*
X379714Y299948D01*
X393010Y299948D01*
X393010Y295852D01*
X393010Y303852D02*
X379714Y303852D01*
X379714Y307948D01*
X393010Y307948D01*
X393010Y303852D01*
X393010Y311852D02*
X379714Y311852D01*
X379714Y315948D01*
X393010Y315948D01*
X393010Y311852D01*
X393010Y319852D02*
X379714Y319852D01*
X379714Y323948D01*
X393010Y323948D01*
X393010Y319852D01*
X393010Y327852D02*
X379714Y327852D01*
X379714Y331948D01*
X393010Y331948D01*
X393010Y327852D01*
D57*
X110000Y291700D03*
X110000Y241700D03*
D54*
X593460Y163840D02*
X593460Y156160D01*
X593460Y163840D02*
X601140Y163840D01*
X601140Y156160D01*
X593460Y156160D01*
X593460Y143840D02*
X593460Y136160D01*
X593460Y143840D02*
X601140Y143840D01*
X601140Y136160D01*
X593460Y136160D01*
X590305Y18235D02*
X583655Y14395D01*
X579815Y21045D01*
X586465Y24885D01*
X590305Y18235D01*
X587958Y22299D02*
X581987Y22299D01*
X600975Y24395D02*
X607625Y28235D01*
X600975Y24395D02*
X597135Y31045D01*
X603785Y34885D01*
X607625Y28235D01*
X605278Y32299D02*
X599307Y32299D01*
D58*
X382840Y406690D02*
X375640Y406690D01*
X375640Y410590D01*
X382840Y410590D01*
X382840Y406690D01*
X382840Y425690D02*
X375640Y425690D01*
X375640Y429590D01*
X382840Y429590D01*
X382840Y425690D01*
X363640Y420090D02*
X356440Y420090D01*
X363640Y420090D02*
X363640Y416190D01*
X356440Y416190D01*
X356440Y420090D01*
D54*
X387574Y467932D02*
X387574Y475612D01*
X395254Y475612D01*
X395254Y467932D01*
X387574Y467932D01*
X387574Y455612D02*
X387574Y447932D01*
X387574Y455612D02*
X395254Y455612D01*
X395254Y447932D01*
X387574Y447932D01*
X245648Y448440D02*
X245648Y456120D01*
X245648Y448440D02*
X237968Y448440D01*
X237968Y456120D01*
X245648Y456120D01*
X245648Y468440D02*
X245648Y476120D01*
X245648Y468440D02*
X237968Y468440D01*
X237968Y476120D01*
X245648Y476120D01*
D63*
X653195Y297375D02*
X653195Y286865D01*
X653195Y297375D02*
X657705Y297375D01*
X657705Y286865D01*
X653195Y286865D01*
X653195Y293030D02*
X657705Y293030D01*
X643695Y297375D02*
X643695Y286865D01*
X643695Y297375D02*
X648205Y297375D01*
X648205Y286865D01*
X643695Y286865D01*
X643695Y293030D02*
X648205Y293030D01*
X634195Y297375D02*
X634195Y286865D01*
X634195Y297375D02*
X638705Y297375D01*
X638705Y286865D01*
X634195Y286865D01*
X634195Y293030D02*
X638705Y293030D01*
X634195Y271375D02*
X634195Y260865D01*
X634195Y271375D02*
X638705Y271375D01*
X638705Y260865D01*
X634195Y260865D01*
X634195Y267030D02*
X638705Y267030D01*
X643695Y271375D02*
X643695Y260865D01*
X643695Y271375D02*
X648205Y271375D01*
X648205Y260865D01*
X643695Y260865D01*
X643695Y267030D02*
X648205Y267030D01*
X653195Y271375D02*
X653195Y260865D01*
X653195Y271375D02*
X657705Y271375D01*
X657705Y260865D01*
X653195Y260865D01*
X653195Y267030D02*
X657705Y267030D01*
D54*
X109860Y378920D02*
X102180Y378920D01*
X109860Y378920D02*
X109860Y371240D01*
X102180Y371240D01*
X102180Y378920D01*
X89860Y378920D02*
X82180Y378920D01*
X89860Y378920D02*
X89860Y371240D01*
X82180Y371240D01*
X82180Y378920D01*
X121820Y319640D02*
X121820Y311960D01*
X114140Y311960D01*
X114140Y319640D01*
X121820Y319640D01*
X121820Y331960D02*
X121820Y339640D01*
X121820Y331960D02*
X114140Y331960D01*
X114140Y339640D01*
X121820Y339640D01*
D63*
X91845Y343485D02*
X91845Y353995D01*
X96355Y353995D01*
X96355Y343485D01*
X91845Y343485D01*
X91845Y349650D02*
X96355Y349650D01*
X82345Y353995D02*
X82345Y343485D01*
X82345Y353995D02*
X86855Y353995D01*
X86855Y343485D01*
X82345Y343485D01*
X82345Y349650D02*
X86855Y349650D01*
X72845Y353995D02*
X72845Y343485D01*
X72845Y353995D02*
X77355Y353995D01*
X77355Y343485D01*
X72845Y343485D01*
X72845Y349650D02*
X77355Y349650D01*
X72845Y327995D02*
X72845Y317485D01*
X72845Y327995D02*
X77355Y327995D01*
X77355Y317485D01*
X72845Y317485D01*
X72845Y323650D02*
X77355Y323650D01*
X82345Y327995D02*
X82345Y317485D01*
X82345Y327995D02*
X86855Y327995D01*
X86855Y317485D01*
X82345Y317485D01*
X82345Y323650D02*
X86855Y323650D01*
X91845Y327995D02*
X91845Y317485D01*
X91845Y327995D02*
X96355Y327995D01*
X96355Y317485D01*
X91845Y317485D01*
X91845Y323650D02*
X96355Y323650D01*
D54*
X210282Y322644D02*
X210282Y330324D01*
X217962Y330324D01*
X217962Y322644D01*
X210282Y322644D01*
X210282Y310324D02*
X210282Y302644D01*
X210282Y310324D02*
X217962Y310324D01*
X217962Y302644D01*
X210282Y302644D01*
X199460Y361080D02*
X191780Y361080D01*
X191780Y368760D01*
X199460Y368760D01*
X199460Y361080D01*
X211780Y361080D02*
X219460Y361080D01*
X211780Y361080D02*
X211780Y368760D01*
X219460Y368760D01*
X219460Y361080D01*
X180340Y369300D02*
X172660Y369300D01*
X180340Y369300D02*
X180340Y361620D01*
X172660Y361620D01*
X172660Y369300D01*
X160340Y369300D02*
X152660Y369300D01*
X160340Y369300D02*
X160340Y361620D01*
X152660Y361620D01*
X152660Y369300D01*
D57*
X19620Y508000D03*
X45020Y508000D03*
X70420Y508000D03*
X95820Y508000D03*
X307280Y508000D03*
X358080Y508000D03*
D58*
X401560Y496970D02*
X408760Y496970D01*
X401560Y496970D02*
X401560Y500870D01*
X408760Y500870D01*
X408760Y496970D01*
X408760Y515970D02*
X401560Y515970D01*
X401560Y519870D01*
X408760Y519870D01*
X408760Y515970D01*
X389560Y510370D02*
X382360Y510370D01*
X389560Y510370D02*
X389560Y506470D01*
X382360Y506470D01*
X382360Y510370D01*
D55*
X283905Y501160D02*
X271095Y501160D01*
X271095Y516000D01*
X283905Y516000D01*
X283905Y501160D01*
X283905Y508940D02*
X271095Y508940D01*
X255465Y501160D02*
X242655Y501160D01*
X242655Y516000D01*
X255465Y516000D01*
X255465Y501160D01*
X255465Y508940D02*
X242655Y508940D01*
D64*
X517144Y418846D03*
X548640Y416306D03*
D63*
X176151Y339477D02*
X165641Y339477D01*
X165641Y343987D01*
X176151Y343987D01*
X176151Y339477D01*
X176151Y329977D02*
X165641Y329977D01*
X165641Y334487D01*
X176151Y334487D01*
X176151Y329977D01*
X176151Y320477D02*
X165641Y320477D01*
X165641Y324987D01*
X176151Y324987D01*
X176151Y320477D01*
X191641Y320477D02*
X202151Y320477D01*
X191641Y320477D02*
X191641Y324987D01*
X202151Y324987D01*
X202151Y320477D01*
X202151Y339477D02*
X191641Y339477D01*
X191641Y343987D01*
X202151Y343987D01*
X202151Y339477D01*
D58*
X308862Y112678D02*
X308862Y105478D01*
X308862Y112678D02*
X312762Y112678D01*
X312762Y105478D01*
X308862Y105478D01*
X327862Y105478D02*
X327862Y112678D01*
X331762Y112678D01*
X331762Y105478D01*
X327862Y105478D01*
X322262Y124678D02*
X322262Y131878D01*
X322262Y124678D02*
X318362Y124678D01*
X318362Y131878D01*
X322262Y131878D01*
X235674Y92708D02*
X228474Y92708D01*
X228474Y96608D01*
X235674Y96608D01*
X235674Y92708D01*
X235674Y111708D02*
X228474Y111708D01*
X228474Y115608D01*
X235674Y115608D01*
X235674Y111708D01*
X216474Y106108D02*
X209274Y106108D01*
X216474Y106108D02*
X216474Y102208D01*
X209274Y102208D01*
X209274Y106108D01*
D65*
X167600Y396840D03*
X211600Y396840D03*
D66*
X530000Y87380D03*
D57*
X445000Y61980D03*
X445000Y112780D03*
X615000Y61980D03*
X615000Y87380D03*
X615000Y112780D03*
D54*
X435640Y494160D02*
X435640Y501840D01*
X435640Y494160D02*
X427960Y494160D01*
X427960Y501840D01*
X435640Y501840D01*
X435640Y514160D02*
X435640Y521840D01*
X435640Y514160D02*
X427960Y514160D01*
X427960Y521840D01*
X435640Y521840D01*
X44640Y300960D02*
X36960Y300960D01*
X36960Y308640D01*
X44640Y308640D01*
X44640Y300960D01*
X56960Y300960D02*
X64640Y300960D01*
X56960Y300960D02*
X56960Y308640D01*
X64640Y308640D01*
X64640Y300960D01*
D67*
X170180Y434340D03*
D68*
X370840Y441960D03*
X321564Y393700D03*
X656082Y314452D03*
X416560Y517920D03*
D69*
X185420Y303784D03*
X336296Y306070D03*
X361696Y306578D03*
D68*
X581645Y200700D03*
D69*
X561340Y312420D03*
X530860Y243840D03*
X403860Y408940D03*
X256540Y439420D03*
X284480Y439420D03*
X337058Y283210D03*
X185420Y354584D03*
X226060Y142240D03*
D70*
X106680Y124460D03*
D69*
X401320Y124460D03*
X363220Y78740D03*
X659638Y241300D03*
X667004Y26924D03*
X513080Y473964D03*
D68*
X436372Y229880D03*
X480060Y284480D03*
X330200Y457200D03*
X373380Y383540D03*
X247904Y279400D03*
X381254Y157226D03*
D71*
X622554Y360940D03*
D68*
X635790Y243840D03*
X586740Y182880D03*
D69*
X233680Y60960D03*
D68*
X470498Y66040D03*
D69*
X127000Y106680D03*
X190500Y121920D03*
D68*
X332740Y320040D03*
D69*
X292100Y114300D03*
D68*
X274320Y332740D03*
D69*
X165100Y248920D03*
D68*
X389382Y240030D03*
X431800Y330200D03*
X422275Y241935D03*
X458470Y342900D03*
X390906Y262382D03*
X440252Y375088D03*
X576580Y363220D03*
X314960Y457200D03*
X332740Y489138D03*
X358140Y294640D03*
X360680Y320040D03*
D72*
X146340Y348498D03*
D68*
X169926Y310134D03*
D69*
X259080Y121920D03*
M02*
