G04 EAGLE Gerber RS-274X export*
G75*
%MOMM*%
%FSLAX34Y34*%
%LPD*%
%INSoldermask Bottom*%
%IPPOS*%
%AMOC8*
5,1,8,0,0,1.08239X$1,22.5*%
G01*
%ADD10C,3.700000*%
%ADD11C,1.638000*%
%ADD12C,2.024000*%
%ADD13C,2.008000*%
%ADD14C,3.500000*%
%ADD15C,1.908000*%
%ADD16C,9.644000*%
%ADD17C,1.775000*%
%ADD18C,1.256400*%
%ADD19C,1.109600*%
%ADD20C,1.506400*%
%ADD21C,1.306400*%
%ADD22C,1.556400*%


D10*
X139700Y25400D03*
X660400Y76200D03*
X660400Y355600D03*
X152400Y508000D03*
D11*
X270740Y206780D03*
X221940Y206780D03*
D12*
X643820Y443680D03*
X643820Y469080D03*
X643820Y494480D03*
X618420Y443680D03*
X618420Y469080D03*
X618420Y494480D03*
D13*
X500940Y456060D03*
X551740Y456060D03*
X43780Y459420D03*
X63780Y459420D03*
X39600Y343280D03*
X39600Y368680D03*
X39600Y394080D03*
X236640Y415380D03*
X262040Y415380D03*
X287440Y415380D03*
X312840Y415380D03*
D14*
X122340Y428080D03*
X427140Y428080D03*
X427140Y143080D03*
D13*
X606218Y257916D03*
X584221Y245216D03*
X562223Y232516D03*
X540226Y219816D03*
X606100Y289120D03*
X580700Y289120D03*
X555300Y289120D03*
X529900Y289120D03*
X606218Y320070D03*
X584221Y332770D03*
X562223Y345470D03*
X540226Y358170D03*
X21700Y93680D03*
X21700Y133680D03*
X169700Y65680D03*
X169700Y150680D03*
X169700Y190680D03*
X169700Y275680D03*
X110000Y291700D03*
X110000Y241700D03*
X19620Y508000D03*
X45020Y508000D03*
X70420Y508000D03*
X95820Y508000D03*
X307280Y508000D03*
X358080Y508000D03*
D15*
X517144Y418846D03*
X548640Y416306D03*
D16*
X530000Y87380D03*
D13*
X445000Y61980D03*
X445000Y112780D03*
X615000Y61980D03*
X615000Y87380D03*
X615000Y112780D03*
D17*
X170180Y434340D03*
D18*
X370840Y441960D03*
X321564Y393700D03*
X656082Y314452D03*
X416560Y517920D03*
D19*
X185420Y303784D03*
X336296Y306070D03*
X361696Y306578D03*
D18*
X581645Y200700D03*
D19*
X561340Y312420D03*
X530860Y243840D03*
X403860Y408940D03*
X256540Y439420D03*
X284480Y439420D03*
X337058Y283210D03*
X185420Y354584D03*
X226060Y142240D03*
D20*
X106680Y124460D03*
D19*
X401320Y124460D03*
X363220Y78740D03*
X659638Y241300D03*
X667004Y26924D03*
X513080Y473964D03*
D18*
X436372Y229880D03*
X480060Y284480D03*
X330200Y457200D03*
X373380Y383540D03*
X247904Y279400D03*
X381254Y157226D03*
D21*
X622554Y360940D03*
D18*
X635790Y243840D03*
X586740Y182880D03*
D19*
X233680Y60960D03*
D18*
X470498Y66040D03*
D19*
X127000Y106680D03*
X190500Y121920D03*
D18*
X332740Y320040D03*
D19*
X292100Y114300D03*
D18*
X274320Y332740D03*
D19*
X165100Y248920D03*
D18*
X389382Y240030D03*
X431800Y330200D03*
X422275Y241935D03*
X458470Y342900D03*
X390906Y262382D03*
X440252Y375088D03*
X576580Y363220D03*
X314960Y457200D03*
X332740Y489138D03*
X358140Y294640D03*
X360680Y320040D03*
D22*
X146340Y348498D03*
D18*
X169926Y310134D03*
D19*
X259080Y121920D03*
M02*
