M48
;GenerationSoftware,Autodesk,EAGLE,9.6.2*%
;CreationDate,2023-11-09T06:42:33Z*%
FMAT,2
ICI,OFF
METRIC,TZ,000.000
T13C0.203
T12C0.350
T11C0.400
T10C0.600
T9C0.630
T8C0.650
T7C0.850
T6C0.900
T5C1.000
T4C1.016
T3C3.000
T2C3.200
T1C9.144
%
G90
M71
T1
X53000Y8738
T2
X15240Y50800
X66040Y35560
X66040Y7620
X13970Y2540
T3
X42714Y14308
X12234Y42808
X42714Y42808
T4
X61842Y49448
X61842Y46908
X61842Y44368
X64382Y49448
X64382Y46908
X64382Y44368
T5
X61500Y11278
X11000Y29170
X50094Y45606
X4378Y45942
X6378Y45942
X3960Y34328
X3960Y36868
X3960Y39408
X23664Y41538
X26204Y41538
X28744Y41538
X31284Y41538
X60622Y25792
X58422Y24522
X55174Y45606
X56222Y23252
X54023Y21982
X60610Y28912
X58070Y28912
X55530Y28912
X52990Y28912
X60622Y32007
X58422Y33277
X56222Y34547
X54023Y35817
X2170Y9368
X2170Y13368
X16970Y6568
X16970Y15068
X16970Y19068
X16970Y27568
X11000Y24170
X1962Y50800
X4502Y50800
X7042Y50800
X9582Y50800
X30728Y50800
X35808Y50800
X44500Y6198
X44500Y11278
X61500Y6198
X61500Y8738
T6
X54864Y41631
X51714Y41885
T7
X17018Y43434
T8
X14634Y34850
T9
X22194Y20678
X27074Y20678
T10
X10668Y12446
T11
X62255Y36094
T12
X37084Y44196
X32156Y39370
X65608Y31445
X41656Y51792
X42228Y24193
X16993Y31013
X63579Y24384
X58164Y20070
X38125Y15723
X36068Y32004
X35814Y29464
X33274Y48914
X57658Y36322
X44025Y37509
X39091Y26238
X45847Y34290
X43637Y22988
X48006Y28448
X33020Y45720
X37338Y38354
X24790Y27940
X31496Y45720
X58674Y18288
X47050Y6604
X33274Y32004
X27432Y33274
X38938Y24003
X43180Y33020
T13
X18542Y30378
X33630Y30607
X56134Y31242
X53086Y24384
X40386Y40894
X25654Y43942
X28448Y43942
X18542Y35458
X22606Y14224
X40132Y12446
X51308Y47396
X66700Y2692
X23368Y6096
X29210Y11430
X36170Y30658
X65964Y24130
X36322Y7874
X12700Y10668
X16510Y24892
X33706Y28321
X25908Y12192
X19050Y12192
M30